# https://github.com/mikedh/trimesh
v -0.00016995 -0.14133051 -0.03613719
v -0.00019280 -0.13280411 -0.09574966
v 0.00010965 0.10040181 -0.00811225
v 0.00005339 0.08769060 0.04755385
v -0.00001746 -0.13631858 0.04678460
v -0.00076143 -0.13364184 0.13570182
v -0.00009006 -0.13647806 0.07368502
v 0.00009652 0.08506331 0.10060510
v 0.00031570 0.08997378 0.14746594
v 0.00001279 0.05005791 -0.22310764
v 0.00007877 0.09481912 -0.19308215
v -0.00015368 -0.12417727 -0.15882943
v -0.00009803 -0.09299115 -0.21146660
v 0.00015617 0.12310367 -0.13856878
v 0.00017349 0.11936631 -0.07080708
v -0.00007524 -0.13557606 0.01149198
v -0.00002504 0.00112691 -0.23046556
v -0.00005992 -0.04793607 -0.22958362
v -0.00034346 -0.13611143 0.10318981
v 0.08048308 -0.11915616 -0.02403277
v 0.08525721 -0.11249873 -0.07694524
v 0.11928531 -0.09284560 -0.05767423
v 0.11086646 -0.09538921 -0.01211619
v 0.14851410 -0.06271416 -0.04227932
v 0.13759341 -0.06637285 0.00138087
v 0.16461735 -0.02147479 -0.03008588
v 0.15392510 -0.02997533 0.01480121
v 0.12377731 0.07606811 -0.00133419
v 0.12231796 0.06892515 0.04300375
v 0.08610933 0.09344799 -0.00150418
v 0.08603563 0.08849449 0.04654928
v 0.06712315 -0.12019162 0.05039712
v 0.09342999 -0.09837304 0.05569657
v 0.08846518 -0.10502926 0.08629973
v 0.11033197 -0.08390528 0.09907268
v 0.11759609 -0.07486356 0.06668670
v 0.06189181 -0.12406644 0.07831652
v 0.12126762 0.06184282 0.08155043
v 0.08848978 0.08634776 0.09109028
v 0.12707602 0.05490071 0.12145492
v 0.09416825 0.08541909 0.13544951
v 0.14544219 0.04315707 0.16363578
v 0.07347766 0.11222926 -0.20076327
v 0.12527395 0.09741620 -0.18980551
v 0.15613604 0.06803425 -0.17307147
v 0.17278898 0.03703824 -0.14938968
v 0.04741645 -0.11232811 -0.16384905
v 0.02133863 -0.08335849 -0.21594185
v 0.09400622 -0.10686373 -0.13728010
v 0.16451044 -0.06138176 -0.10084136
v 0.17788615 -0.00572067 -0.10225605
v 0.12722441 0.08847601 -0.05701448
v 0.12655785 0.09901886 -0.12218180
v 0.08569571 0.11006597 -0.05962672
v 0.08291310 0.12450550 -0.12776423
v 0.12922225 -0.06091109 0.11414610
v 0.15027448 0.00324272 0.14585316
v 0.14236423 0.02099508 0.10708424
v 0.13680614 -0.04596053 0.08032045
v 0.04281738 0.09990447 -0.00450653
v 0.04209917 0.09441585 0.04838867
v 0.04366146 0.09505519 0.09853311
v 0.04602648 0.09847843 0.14343977
v 0.03326159 0.12934549 -0.13686734
v 0.03999400 0.11766795 -0.06597498
v 0.13138660 -0.09277142 -0.11511821
v 0.07404602 -0.11985669 0.01798972
v 0.10111470 -0.09628813 0.02461536
v 0.12650704 -0.07005872 0.03602596
v 0.14435928 -0.03702219 0.04909632
v 0.14492006 0.04053123 0.03671796
v 0.14937914 0.04989994 -0.00761402
v 0.15379814 0.05961208 -0.06159466
v 0.15249563 0.06817320 -0.12028605
v 0.14097898 0.03154327 0.07143863
v 0.04555858 -0.12659741 -0.09244931
v 0.04361357 -0.13670238 -0.03288490
v 0.04011465 -0.13701009 0.01436970
v 0.03534970 -0.13450830 0.04876646
v 0.03172922 -0.13475439 0.07405503
v 0.02587900 -0.13430071 0.13648157
v 0.01739630 0.05671027 -0.23358262
v 0.02360186 0.10511893 -0.20100811
v 0.14447681 -0.03065301 0.13055903
v 0.14541193 -0.01247703 0.09333488
v 0.14901072 -0.00179472 0.06093641
v 0.15576828 0.00687524 0.02691204
v 0.16354976 0.01751678 -0.01810521
v 0.16846295 0.03144338 -0.07294186
v 0.16496243 0.04560028 -0.11632955
v 0.02856089 -0.13594787 0.10395025
v 0.05628886 -0.12887830 0.10902357
v 0.08161765 -0.11404535 0.11842312
v 0.10179872 -0.09680418 0.13244048
v -0.08076368 -0.11896641 -0.02403027
v -0.08560605 -0.11222449 -0.07694270
v -0.11957002 -0.09247619 -0.05766963
v -0.11106649 -0.09515678 -0.01211309
v -0.14869405 -0.06228722 -0.04227375
v -0.13771442 -0.06612231 0.00138415
v -0.16467550 -0.02103128 -0.03008002
v -0.15397211 -0.02973501 0.01480420
v -0.12359635 0.07636258 -0.00133038
v -0.12225175 0.06904336 0.04300530
v -0.08588854 0.09365131 -0.00150144
v -0.08596492 0.08856356 0.04655023
v -0.06714314 -0.12018051 0.05039725
v -0.09346379 -0.09834147 0.05569501
v -0.08873492 -0.10481198 0.08627722
v -0.11068560 -0.08346814 0.09902726
v -0.11766484 -0.07475984 0.06667765
v -0.06210269 -0.12396482 0.07830603
v -0.12120568 0.06197167 0.08154008
v -0.08842637 0.08641658 0.09108362
v -0.12686745 0.05544930 0.12139806
v -0.09371775 0.08596196 0.13539325
v -0.14531381 0.04443497 0.16347319
v -0.07338619 0.11254502 -0.20075817
v -0.12523264 0.09779428 -0.18979929
v -0.15611934 0.06844516 -0.17306429
v -0.17278484 0.03748567 -0.14938118
v -0.04769751 -0.11211124 -0.16385344
v -0.02149860 -0.08312621 -0.21594688
v -0.09425225 -0.10653606 -0.13728189
v -0.16467970 -0.06089545 -0.10083562
v -0.17792224 -0.00521762 -0.10224774
v -0.12694492 0.08888686 -0.05700875
v -0.12633543 0.09941642 -0.12217279
v -0.08534419 0.11034365 -0.05962304
v -0.08260837 0.12479147 -0.12775776
v -0.12961095 -0.06016104 0.11406839
v -0.15039858 0.00445422 0.14571404
v -0.14231480 0.02146089 0.10703585
v -0.13688714 -0.04573981 0.08029909
v -0.04258652 0.10000333 -0.00450522
v -0.04203143 0.09444619 0.04838903
v -0.04353340 0.09511760 0.09852667
v -0.04537449 0.09880792 0.14340569
v -0.03292461 0.12948942 -0.13686410
v -0.03962805 0.11779753 -0.06597312
v -0.13161922 -0.09236593 -0.11511631
v -0.07416848 -0.11978114 0.01799078
v -0.10119940 -0.09619952 0.02461656
v -0.12654687 -0.06998737 0.03602692
v -0.14438403 -0.03692825 0.04909309
v -0.14487513 0.04069345 0.03671999
v -0.14925800 0.05026301 -0.00760931
v -0.15361593 0.06010481 -0.06158752
v -0.15235818 0.06863077 -0.12027633
v -0.14094704 0.03169886 0.07142802
v -0.04594748 -0.12644639 -0.09244859
v -0.04395647 -0.13659270 -0.03288347
v -0.04025422 -0.13696920 0.01437029
v -0.03536952 -0.13450310 0.04876646
v -0.03186777 -0.13472276 0.07405169
v -0.02743347 -0.13400878 0.13645129
v -0.01737927 0.05694192 -0.23358293
v -0.02344378 0.10530450 -0.20100573
v -0.14479295 -0.02962069 0.13044545
v -0.14545659 -0.01210728 0.09329709
v -0.14901385 -0.00166698 0.06092937
v -0.15575974 0.00707871 0.02691466
v -0.16350497 0.01793808 -0.01809972
v -0.16837699 0.03197242 -0.07293374
v -0.16488130 0.04608482 -0.11631977
v -0.02924004 -0.13580950 0.10393581
v -0.05709677 -0.12853878 0.10898840
v -0.08254222 -0.11341513 0.11835779
v -0.10280684 -0.09581167 0.13233772
v 0.00046589 0.09495361 0.17048065
v 0.00019120 0.08693277 0.12423764
v 0.00006132 0.08536680 0.07470091
v 0.00007123 0.09277869 0.01992816
v -0.00054978 -0.13525443 0.11959362
v 0.00014696 0.11020698 -0.03702612
v -0.00019912 -0.13648570 0.08817741
v 0.00017598 0.12487642 -0.10393531
v -0.00004683 -0.13643563 0.06064566
v 0.00012004 0.11249643 -0.16941431
v -0.00004135 -0.13491686 0.03051922
v 0.00004230 0.07416497 -0.21088827
v -0.00012450 -0.14151745 -0.01032602
v -0.00000869 0.02489234 -0.22766739
v -0.00018928 -0.13759546 -0.06489581
v -0.00004227 -0.02390815 -0.23137313
v -0.00017967 -0.12921197 -0.12747957
v -0.00007765 -0.07072816 -0.22379869
v -0.00012354 -0.11245013 -0.18798335
v 0.04775590 0.10181536 0.16716109
v 0.02188615 0.09534306 0.14631321
v 0.07123043 0.09490083 0.14022422
v 0.10262549 0.08673480 0.16136071
v 0.04474408 0.09655317 0.12030958
v 0.02082630 0.09137252 0.10077782
v 0.13611083 0.06576746 0.17592423
v 0.09045954 0.08547056 0.11220238
v 0.06695020 0.09341690 0.09504135
v 0.13516854 0.05033351 0.14264403
v 0.11326493 0.07145085 0.12877403
v 0.04277626 0.09425177 0.07359822
v 0.02023150 0.09217833 0.04831965
v 0.01265949 -0.13454643 0.13586167
v 0.15445479 -0.00741422 0.16503952
v 0.14957987 0.02237647 0.15411489
v 0.12265906 0.05821317 0.10091016
v 0.10667854 0.07525070 0.08656569
v 0.08724710 0.08745414 0.06869681
v 0.06424513 0.09302435 0.04770764
v 0.14555814 0.01331424 0.12606335
v 0.13636767 0.03799766 0.11421642
v 0.04236101 0.09618853 0.02290744
v 0.02129082 0.10102494 -0.00648350
v 0.01414791 -0.13662267 0.10246262
v 0.02706187 -0.13564903 0.12081183
v 0.03867482 -0.13241096 0.13712683
v 0.14405139 -0.04023651 0.14907385
v 0.14843029 -0.01415308 0.13822868
v 0.13260863 0.04713128 0.07651170
v 0.14049382 0.02664089 0.08858986
v 0.12181035 0.06559626 0.06215508
v 0.10592640 0.08026785 0.04511280
v 0.08556675 0.09042167 0.02393205
v 0.06444686 0.09753824 -0.00310320
v 0.14472157 -0.02080487 0.11169992
v 0.14521464 0.00428245 0.10004947
v 0.04203497 0.10729948 -0.03387631
v 0.01900842 0.11858644 -0.06959150
v 0.03006964 -0.13560419 0.08926603
v 0.01583677 -0.13634025 0.07280047
v 0.04264950 -0.13337030 0.10613416
v 0.05347305 -0.12950668 0.12452331
v 0.09205478 -0.10543809 0.12503770
v 0.07647059 -0.11706573 0.13285902
v 0.11239674 -0.08723141 0.14068012
v 0.13809273 -0.04646719 0.12253201
v 0.12624713 -0.06856063 0.13216290
v 0.14282431 0.03610966 0.05458851
v 0.13520669 0.05549079 0.04015811
v 0.14675503 -0.00642866 0.07665655
v 0.14648675 0.01517746 0.06631787
v 0.12265254 0.07222937 0.02246648
v 0.10628148 0.08614926 -0.00059212
v 0.08626987 0.10027382 -0.02855737
v 0.06235829 0.11534004 -0.06242375
v 0.14272205 -0.02947276 0.08690985
v 0.13302780 -0.05296127 0.09717593
v 0.03700166 0.12670950 -0.09965352
v 0.01228948 0.12673762 -0.13899237
v 0.01772690 -0.13664604 0.04759940
v 0.03347902 -0.13430381 0.06183883
v 0.05909023 -0.12670662 0.09407470
v 0.04718490 -0.13065665 0.07585904
v 0.06954158 -0.12223919 0.11306393
v 0.10639372 -0.09031479 0.11629713
v 0.08553140 -0.10982125 0.10311280
v 0.09997857 -0.09459450 0.09223031
v 0.11984881 -0.07323067 0.10643588
v 0.15200689 0.00233059 0.04492588
v 0.15176716 0.02417964 0.03236122
v 0.14693426 0.04525802 0.01627357
v 0.13812558 0.06381758 -0.00377100
v 0.14046868 -0.04085462 0.06475362
v 0.14840112 -0.01930835 0.05514344
v 0.10808202 0.10086345 -0.05758498
v 0.12555233 0.08186005 -0.02706201
v 0.08462968 0.11938344 -0.09168204
v 0.05713049 0.12960147 -0.13217359
v 0.12822413 -0.06128513 0.07347283
v 0.11387965 -0.07903346 0.08289871
v 0.02873106 0.12174877 -0.17220455
v 0.00662181 0.09883939 -0.19634268
v 0.02030092 -0.13898546 0.01307400
v 0.03753607 -0.13501119 0.03241321
v 0.05199919 -0.12885067 0.04940984
v 0.06442733 -0.12181283 0.06472321
v 0.07572941 -0.11521471 0.08182557
v 0.09073971 -0.10131286 0.07144448
v 0.10578167 -0.08694457 0.06067272
v 0.14881130 -0.03345765 0.03286381
v 0.15668722 -0.01124516 0.02087612
v 0.15944258 0.01216713 0.00598962
v 0.15781855 0.03449519 -0.01249063
v 0.15212264 0.05483944 -0.03298676
v 0.14240781 0.07419552 -0.05839231
v 0.13684297 -0.05415552 0.04263171
v 0.12183534 -0.07187903 0.05152781
v 0.12733578 0.09472992 -0.08847068
v 0.10689222 0.11362961 -0.12437996
v 0.07923445 0.12280715 -0.16596533
v 0.04638663 0.10998852 -0.20247546
v 0.01967797 0.08228559 -0.22144553
v 0.00591359 0.05281523 -0.22624032
v 0.04221748 -0.13793707 -0.00793450
v 0.02233611 -0.14075363 -0.03498055
v 0.05825897 -0.12998158 0.01590917
v 0.07021350 -0.11936969 0.03485962
v 0.08065388 -0.10965524 0.05251296
v 0.09688015 -0.09664656 0.04042240
v 0.11424738 -0.08392522 0.02985617
v 0.13171697 -0.06825530 0.01939364
v 0.14753704 -0.04865001 0.00838132
v 0.16607647 -0.00117085 -0.02410655
v 0.15906923 -0.02569821 -0.00593406
v 0.16714869 0.02409617 -0.04475878
v 0.16214209 0.04549706 -0.06613325
v 0.15308297 0.06469276 -0.09135243
v 0.14152252 0.08326545 -0.12112433
v 0.12621026 0.10019598 -0.15663041
v 0.10133817 0.10822692 -0.19636683
v 0.01301235 0.03138072 -0.24015522
v 0.00603770 0.00227950 -0.23467468
v 0.02319436 -0.13113432 -0.09501307
v 0.04463393 -0.13222863 -0.06170072
v 0.07784242 -0.11978743 -0.00206231
v 0.06311081 -0.12915424 -0.02913385
v 0.08796504 -0.10813573 0.02080460
v 0.10614663 -0.09572023 0.00691039
v 0.12479527 -0.08175924 -0.00564485
v 0.15869761 -0.04265882 -0.03614276
v 0.14292341 -0.06389265 -0.01928961
v 0.17346828 0.01593165 -0.08334279
v 0.17148460 -0.01563127 -0.05968605
v 0.16677589 0.03956026 -0.09886136
v 0.16027424 0.05491180 -0.11849889
v 0.15362268 0.06930837 -0.14728006
v 0.14309216 0.08319717 -0.18201858
v 0.00649833 -0.04650447 -0.23099852
v 0.02247664 -0.12178111 -0.15984879
v 0.04750660 -0.12154175 -0.12567472
v 0.06637593 -0.12000603 -0.08603586
v 0.08290600 -0.11640925 -0.04990138
v 0.09622544 -0.10771940 -0.01831311
v 0.13510834 -0.07963209 -0.04931573
v 0.11506799 -0.09367786 -0.03389764
v 0.17452987 -0.03705864 -0.09898533
v 0.15567756 -0.06172952 -0.06945610
v 0.17713138 0.01896782 -0.13136445
v 0.16784813 0.04192834 -0.12986559
v 0.16569895 0.05283592 -0.16263691
v 0.01217151 -0.09055627 -0.21232246
v 0.03097950 -0.10034741 -0.19564059
v 0.07334190 -0.10994393 -0.14924083
v 0.08845485 -0.10895505 -0.10676175
v 0.10272164 -0.10326535 -0.06721970
v 0.12422946 -0.09192009 -0.08505296
v 0.14920481 -0.08010374 -0.10662252
v 0.17226224 -0.06097160 -0.13610025
v 0.18435667 -0.01088737 -0.14503901
v 0.05694809 -0.10394066 -0.19378804
v 0.09996579 -0.10719025 -0.16662819
v 0.11295829 -0.10110918 -0.12564622
v 0.13979984 -0.09501322 -0.14673109
v -0.04679614 0.10231709 0.16710502
v -0.02122515 0.09550675 0.14629616
v -0.07065494 0.09536939 0.14017570
v -0.10211022 0.08757817 0.16124763
v -0.04436657 0.09674046 0.12029015
v -0.02068146 0.09140760 0.10077412
v -0.13584439 0.06701636 0.17574877
v -0.09021579 0.08574876 0.11217353
v -0.06685007 0.09349285 0.09503374
v -0.13493145 0.05127452 0.14253549
v -0.11293754 0.07202570 0.12871443
v -0.04267756 0.09429779 0.07359524
v -0.02016098 0.09219387 0.04831988
v -0.01421135 -0.13439981 0.13584654
v -0.15483973 -0.00593995 0.16485910
v -0.14958043 0.02364368 0.15396392
v -0.12252148 0.05853200 0.10087880
v -0.10660869 0.07535551 0.08655638
v -0.08717921 0.08752317 0.06869406
v -0.06417515 0.09307289 0.04770823
v -0.14551821 0.01419655 0.12597179
v -0.13624793 0.03851196 0.11416313
v -0.04221507 0.09625292 0.02290828
v -0.02106226 0.10107299 -0.00648284
v -0.01477405 -0.13655913 0.10245606
v -0.02818990 -0.13543012 0.12078919
v -0.04024756 -0.13196774 0.13708082
v -0.14463010 -0.03892842 0.14892386
v -0.14866240 -0.01302586 0.13810210
v -0.13256044 0.04727632 0.07650097
v -0.14044673 0.02693797 0.08856186
v -0.12174508 0.06571991 0.06215079
v -0.10585596 0.08036127 0.04511411
v -0.08542819 0.09055310 0.02393372
v -0.06421590 0.09769071 -0.00310123
v -0.14485700 -0.02007371 0.11162409
v -0.14521829 0.00470336 0.10000584
v -0.04173467 0.10741712 -0.03387476
v -0.01864413 0.11864944 -0.06959053
v -0.03046890 -0.13551841 0.08925709
v -0.01595627 -0.13632676 0.07279916
v -0.04339236 -0.13314091 0.10611044
v -0.05469011 -0.12902378 0.12447323
v -0.09302866 -0.10463440 0.12495437
v -0.07777457 -0.11625632 0.13277522
v -0.11340629 -0.08607988 0.14055863
v -0.13846617 -0.04556416 0.12243484
v -0.12691502 -0.06751700 0.13205054
v -0.14278526 0.03626832 0.05458386
v -0.13514913 0.05563205 0.04016002
v -0.14677139 -0.00618749 0.07663496
v -0.14647401 0.01532128 0.06630882
v -0.12253602 0.07242789 0.02246911
v -0.10607923 0.08639874 -0.00058883
v -0.08599044 0.10051448 -0.02855415
v -0.06199079 0.11554286 -0.06242096
v -0.14279377 -0.02917322 0.08687970
v -0.13324086 -0.05247413 0.09712610
v -0.03662577 0.12684366 -0.09965102
v -0.01196090 0.12680609 -0.13899089
v -0.01774746 -0.13664338 0.04759940
v -0.03355667 -0.13428484 0.06183704
v -0.05959298 -0.12648070 0.09405123
v -0.04736013 -0.13059536 0.07585272
v -0.07040941 -0.12176621 0.11301494
v -0.10706005 -0.08957838 0.11622095
v -0.08613090 -0.10937567 0.10306656
v -0.10029537 -0.09427662 0.09219739
v -0.12023651 -0.07264181 0.10637484
v -0.15200505 0.00249326 0.04492326
v -0.15173834 0.02436326 0.03236349
v -0.14685639 0.04551219 0.01627678
v -0.13797321 0.06414757 -0.00376672
v -0.14051723 -0.04069749 0.06474122
v -0.14841684 -0.01919571 0.05513819
v -0.10776136 0.10121318 -0.05758025
v -0.12532429 0.08221053 -0.02705736
v -0.08428025 0.11966288 -0.09167707
v -0.05680167 0.12981625 -0.13216876
v -0.12830668 -0.06112225 0.07345733
v -0.11407376 -0.07876856 0.08287200
v -0.02847535 0.12191278 -0.17220121
v -0.00646222 0.09892603 -0.19634189
v -0.02044450 -0.13896445 0.01307436
v -0.03760866 -0.13499107 0.03241357
v -0.05202011 -0.12884228 0.04940995
v -0.06454146 -0.12175399 0.06471761
v -0.07596915 -0.11506313 0.08180983
v -0.09088543 -0.10118691 0.07143220
v -0.10583606 -0.08688020 0.06066795
v -0.14884386 -0.03331462 0.03286560
v -0.15670376 -0.01102007 0.02087910
v -0.15941990 0.01246941 0.00599343
v -0.15773243 0.03489004 -0.01248551
v -0.15197020 0.05526705 -0.03298113
v -0.14217643 0.07465391 -0.05838580
v -0.13686957 -0.05408901 0.04263254
v -0.12189154 -0.07178553 0.05152318
v -0.12706334 0.09513706 -0.08846376
v -0.10662504 0.11397830 -0.12437192
v -0.07902415 0.12310509 -0.16595828
v -0.04626558 0.11025122 -0.20247157
v -0.01960249 0.08249636 -0.22144456
v -0.00588816 0.05293169 -0.22624078
v -0.04245542 -0.13786410 -0.00793355
v -0.02269288 -0.14069657 -0.03497985
v -0.05839328 -0.12992143 0.01590999
v -0.07028231 -0.11932939 0.03486022
v -0.08067368 -0.10964075 0.05251320
v -0.09693123 -0.09659566 0.04042312
v -0.11431009 -0.08384030 0.02985724
v -0.13179786 -0.06809990 0.01939566
v -0.14761949 -0.04840055 0.00838453
v -0.16608004 -0.00073421 -0.02410080
v -0.15912289 -0.02536733 -0.00592971
v -0.16708403 0.02457459 -0.04475211
v -0.16200779 0.04601269 -0.06612558
v -0.15290751 0.06517271 -0.09134421
v -0.14134461 0.08369836 -0.12111494
v -0.12607311 0.10058431 -0.15662117
v -0.10127168 0.10857994 -0.19636086
v -0.01303261 0.03161827 -0.24015686
v -0.00608815 0.00241030 -0.23467630
v -0.02359315 -0.13105044 -0.09501355
v -0.04500983 -0.13209847 -0.06169931
v -0.07803931 -0.11965950 -0.00206058
v -0.06342713 -0.12899948 -0.02913183
v -0.08807024 -0.10805038 0.02080568
v -0.10628732 -0.09556453 0.00691242
v -0.12495521 -0.08151528 -0.00564164
v -0.15881649 -0.04221692 -0.03613694
v -0.14307084 -0.06356340 -0.01928532
v -0.17343643 0.01646158 -0.08333416
v -0.17153253 -0.01514515 -0.05967932
v -0.16668794 0.04006631 -0.09885219
v -0.16017104 0.05538592 -0.11848914
v -0.15354381 0.06974272 -0.14727043
v -0.14306898 0.08359176 -0.18201211
v -0.00661316 -0.04637136 -0.23100135
v -0.02277770 -0.12167107 -0.15985153
v -0.04786382 -0.12136377 -0.12567602
v -0.06674839 -0.11978987 -0.08603409
v -0.08322332 -0.11618073 -0.04989854
v -0.09646371 -0.10750651 -0.01831030
v -0.13534322 -0.07923165 -0.04931060
v -0.11530788 -0.09338364 -0.03389377
v -0.17463810 -0.03655649 -0.09897834
v -0.15585750 -0.06126637 -0.06945048
v -0.17713701 0.01944239 -0.13135537
v -0.16780024 0.04239929 -0.12985584
v -0.16568809 0.05326368 -0.16262910
v -0.01235697 -0.09043073 -0.21232581
v -0.03117165 -0.10011366 -0.19564582
v -0.07359669 -0.10965821 -0.14924417
v -0.08876747 -0.10865990 -0.10676105
v -0.10303873 -0.10294347 -0.06721604
v -0.12449811 -0.09153168 -0.08504948
v -0.14941809 -0.07965375 -0.10661849
v -0.17240120 -0.06051100 -0.13609526
v -0.18441973 -0.01043481 -0.14503213
v -0.05710602 -0.10362708 -0.19379137
v -0.10012232 -0.10683585 -0.16662938
v -0.11319440 -0.10074401 -0.12564645
v -0.13997292 -0.09461178 -0.14673001
v 0.02230505 0.09918649 0.16920380
v 0.07583437 0.09747952 0.16548231
v 0.02130349 0.09293003 0.12323521
v 0.06866886 0.09398919 0.11669835
v 0.12289594 0.06983647 0.15243362
v 0.02048054 0.09090143 0.07491954
v 0.10857861 0.07294733 0.10679075
v 0.06552657 0.09291380 0.07141455
v 0.14214552 0.03144459 0.13399446
v 0.02090095 0.09562625 0.02155859
v 0.01330617 -0.13604559 0.11962521
v 0.15048098 -0.02416331 0.15710315
v 0.13307212 0.04261344 0.09481511
v 0.10636529 0.07796319 0.06557997
v 0.06396750 0.09460299 0.02358026
v 0.14641233 -0.00400001 0.11883461
v 0.02081199 0.10943239 -0.03625507
v 0.01494419 -0.13667554 0.08787914
v 0.04048217 -0.13354652 0.12245978
v 0.13576265 -0.05514234 0.14073503
v 0.13385522 0.05147646 0.05850226
v 0.14505377 0.01035862 0.08247086
v 0.10563537 0.08275634 0.02380175
v 0.06382576 0.10441909 -0.03101332
v 0.14017925 -0.03733607 0.10453616
v 0.01563151 0.12605232 -0.10313142
v 0.01675859 -0.13630690 0.06069466
v 0.04485947 -0.13223888 0.09126088
v 0.06577294 -0.12379370 0.12747625
v 0.09653044 -0.09996535 0.10939443
v 0.11621082 -0.08032818 0.12390183
v 0.14888797 0.01959014 0.05016966
v 0.13636930 0.05958106 0.01985807
v 0.14526249 -0.02372338 0.07087644
v 0.10731751 0.09261861 -0.02706129
v 0.06016892 0.12507543 -0.09534141
v 0.12392182 -0.06691344 0.08987950
v 0.00893857 0.11661874 -0.17114908
v 0.01895357 -0.13677478 0.03110846
v 0.04950760 -0.12941833 0.06297692
v 0.07281425 -0.11912131 0.09788059
v 0.10281414 -0.09033140 0.07669112
v 0.15227563 -0.01542658 0.03902908
v 0.15461335 0.02937854 0.01157434
v 0.14052958 0.06891031 -0.02902053
v 0.13248054 -0.05712445 0.05820008
v 0.10794063 0.10877392 -0.08923556
v 0.05226354 0.12467344 -0.17013822
v 0.00565519 0.07715060 -0.21445487
v 0.02154205 -0.14136118 -0.00952553
v 0.05474920 -0.12876617 0.03348157
v 0.07794772 -0.11211077 0.06756707
v 0.10953999 -0.08484116 0.04545113
v 0.14186018 -0.05141751 0.02631564
v 0.16110032 -0.00626664 0.00001330
v 0.16079333 0.04008156 -0.03829901
v 0.14221666 0.07945807 -0.08954690
v 0.10508560 0.11404138 -0.16124270
v 0.00661404 0.02727643 -0.23199989
v 0.02289724 -0.13645143 -0.06399597
v 0.06121714 -0.13025718 -0.00539612
v 0.08400267 -0.10831453 0.03721019
v 0.11942645 -0.08287059 0.01276453
v 0.15309096 -0.04530452 -0.01229572
v 0.17096166 0.00590181 -0.05220487
v 0.16095260 0.05128507 -0.09366279
v 0.14209562 0.08460251 -0.15224931
v 0.00585330 -0.02280232 -0.23411374
v 0.02376722 -0.12719976 -0.12723777
v 0.06464870 -0.12525790 -0.05684174
v 0.09247654 -0.10791322 0.00201691
v 0.12973251 -0.08003015 -0.02645183
v 0.16639995 -0.03958523 -0.06450019
v 0.17165322 0.02892466 -0.11098247
v 0.16202851 0.05513553 -0.14052042
v 0.00854799 -0.06877088 -0.22394927
v 0.01720779 -0.10987900 -0.18978043
v 0.06906467 -0.11521453 -0.11759776
v 0.09963272 -0.10590128 -0.04193956
v 0.14086177 -0.07931161 -0.07631450
v 0.18101060 -0.03683409 -0.13740104
v 0.18284038 0.01266141 -0.15879674
v 0.07863929 -0.10818075 -0.17833377
v 0.10665729 -0.10139291 -0.09542681
v 0.15794770 -0.08103388 -0.13975521
v 0.12020826 -0.10332914 -0.15610884
v -0.02130965 0.09943031 0.16917863
v -0.07508990 0.09818591 0.16539103
v -0.02091672 0.09302496 0.12322544
v -0.06834582 0.09424226 0.11667213
v -0.12253854 0.07075381 0.15231888
v -0.02037966 0.09092482 0.07491787
v -0.10838579 0.07325876 0.10675941
v -0.06544221 0.09297470 0.07141121
v -0.14201214 0.03237840 0.13389286
v -0.02075577 0.09565800 0.02155907
v -0.01440267 -0.13593915 0.11961412
v -0.15097403 -0.02276892 0.15693749
v -0.13298183 0.04293151 0.09478435
v -0.10629570 0.07805997 0.06557640
v -0.06382244 0.09470128 0.02358145
v -0.14646999 -0.00318539 0.11874998
v -0.02050685 0.10949023 -0.03625435
v -0.01530717 -0.13663684 0.08787510
v -0.04165901 -0.13320201 0.12242414
v -0.13639911 -0.05395149 0.14060323
v -0.13380163 0.05161891 0.05849774
v -0.14504174 0.01063065 0.08244582
v -0.10550653 0.08292124 0.02380402
v -0.06353347 0.10459788 -0.03101093
v -0.14036880 -0.03671796 0.10447203
v -0.01526589 0.12611290 -0.10313037
v -0.01682630 -0.13629875 0.06069394
v -0.04530578 -0.13209257 0.09124574
v -0.06700581 -0.12316753 0.12741138
v -0.09717003 -0.09938039 0.10933374
v -0.11689344 -0.07943443 0.12380776
v -0.14886744 0.01975254 0.05016597
v -0.13627035 0.05980850 0.01986105
v -0.14529983 -0.02352098 0.07085915
v -0.10706000 0.09291745 -0.02705742
v -0.05980019 0.12528069 -0.09533770
v -0.12413624 -0.06654299 0.08984183
v -0.00869097 0.11669207 -0.17114791
v -0.01902748 -0.13676456 0.03110858
v -0.04960433 -0.12938217 0.06297371
v -0.07335869 -0.11880196 0.09784743
v -0.10298614 -0.09014398 0.07667252
v -0.15229277 -0.01526196 0.03902765
v -0.15456065 0.02965822 0.01157802
v -0.14033815 0.06930223 -0.02901538
v -0.13253646 -0.05699906 0.05819149
v -0.10762496 0.10912336 -0.08922952
v -0.05202785 0.12490788 -0.17013284
v -0.00557151 0.07725315 -0.21445478
v -0.02179120 -0.14132305 -0.00952499
v -0.05482180 -0.12873543 0.03348204
v -0.07807536 -0.11202463 0.06755897
v -0.10959921 -0.08476548 0.04544898
v -0.14191593 -0.05126471 0.02631755
v -0.16111315 -0.00594552 0.00001747
v -0.16068281 0.04053762 -0.03829282
v -0.14199262 0.07990854 -0.08953925
v -0.10490864 0.11439173 -0.16123415
v -0.00663102 0.02740210 -0.23200087
v -0.02328823 -0.13638203 -0.06399551
v -0.06143880 -0.13015291 -0.00539474
v -0.08406454 -0.10826679 0.03721078
v -0.11953732 -0.08271129 0.01276655
v -0.15319049 -0.04496894 -0.01229125
v -0.17094978 0.00638739 -0.05219812
v -0.16082228 0.05178329 -0.09365406
v -0.14199363 0.08501649 -0.15223991
v -0.00593606 -0.02266819 -0.23411602
v -0.02412472 -0.12710590 -0.12723900
v -0.06500029 -0.12507387 -0.05683958
v -0.09264584 -0.10776828 0.00201876
v -0.12992639 -0.07971637 -0.02644777
v -0.16651543 -0.03910116 -0.06449380
v -0.17161306 0.02942139 -0.11097289
v -0.16196815 0.05558748 -0.14051066
v -0.00869532 -0.06864190 -0.22395243
v -0.01744250 -0.10975683 -0.18978402
v -0.06939558 -0.11497099 -0.11759847
v -0.09991205 -0.10563890 -0.04193604
v -0.14109304 -0.07888343 -0.07630982
v -0.18110936 -0.03636650 -0.13739467
v -0.18288439 0.01309396 -0.15879038
v -0.07880192 -0.10784736 -0.17833631
v -0.10694830 -0.10105084 -0.09542488
v -0.15811465 -0.08059924 -0.13975219
v -0.12036958 -0.10295552 -0.15610915
f 63 190 189
f 189 190 517
f 190 9 517
f 517 9 170
f 191 63 518
f 518 63 189
f 41 191 192
f 192 191 518
f 190 63 519
f 519 63 193
f 62 194 193
f 193 194 519
f 194 8 519
f 519 8 171
f 9 190 171
f 171 190 519
f 63 191 193
f 193 191 520
f 191 41 520
f 520 41 196
f 39 197 196
f 196 197 520
f 197 62 520
f 520 62 193
f 40 199 198
f 198 199 521
f 199 41 521
f 521 41 192
f 192 195 521
f 195 42 521
f 521 42 198
f 194 62 522
f 522 62 200
f 61 201 200
f 200 201 522
f 201 4 522
f 522 4 172
f 8 194 172
f 172 194 522
f 199 40 523
f 523 40 205
f 38 206 205
f 205 206 523
f 206 39 523
f 523 39 196
f 41 199 196
f 196 199 523
f 62 197 200
f 200 197 524
f 197 39 524
f 524 39 207
f 31 208 207
f 207 208 524
f 208 61 524
f 524 61 200
f 42 204 198
f 198 204 525
f 57 209 204
f 204 209 525
f 58 210 209
f 209 210 525
f 210 40 525
f 525 40 198
f 211 60 526
f 526 60 212
f 3 173 212
f 212 173 526
f 4 201 173
f 173 201 526
f 201 61 526
f 526 61 211
f 91 214 213
f 213 214 527
f 214 81 527
f 527 81 202
f 202 6 527
f 527 6 174
f 174 19 527
f 527 19 213
f 216 84 528
f 528 84 217
f 57 203 217
f 217 203 528
f 218 38 529
f 529 38 205
f 40 210 205
f 205 210 529
f 210 58 529
f 529 58 219
f 75 218 219
f 219 218 529
f 206 38 530
f 530 38 220
f 29 221 220
f 220 221 530
f 221 31 530
f 530 31 207
f 39 206 207
f 207 206 530
f 222 30 531
f 531 30 223
f 60 211 223
f 223 211 531
f 61 208 211
f 211 208 531
f 31 222 208
f 208 222 531
f 85 225 224
f 224 225 532
f 225 58 532
f 532 58 209
f 209 57 532
f 532 57 217
f 84 224 217
f 217 224 532
f 226 65 533
f 533 65 227
f 15 175 227
f 227 175 533
f 175 3 533
f 533 3 212
f 60 226 212
f 212 226 533
f 228 91 534
f 534 91 213
f 19 176 213
f 213 176 534
f 176 7 534
f 534 7 229
f 80 228 229
f 229 228 534
f 230 92 535
f 535 92 231
f 81 214 215
f 215 214 535
f 214 91 535
f 535 91 230
f 93 232 233
f 84 216 235
f 235 216 536
f 236 56 536
f 536 56 235
f 38 218 220
f 220 218 537
f 218 75 537
f 537 75 237
f 71 238 237
f 237 238 537
f 238 29 537
f 537 29 220
f 58 225 219
f 219 225 538
f 225 85 538
f 538 85 239
f 86 240 239
f 239 240 538
f 240 75 538
f 538 75 219
f 221 29 539
f 539 29 241
f 241 28 539
f 539 28 242
f 30 222 242
f 242 222 539
f 222 31 539
f 539 31 221
f 30 243 223
f 223 243 540
f 243 54 540
f 540 54 244
f 65 226 244
f 244 226 540
f 226 60 540
f 540 60 223
f 245 85 541
f 541 85 224
f 224 84 541
f 541 84 235
f 235 56 541
f 541 56 246
f 59 245 246
f 246 245 541
f 247 64 542
f 542 64 248
f 14 177 248
f 248 177 542
f 177 15 542
f 542 15 227
f 65 247 227
f 227 247 542
f 178 5 543
f 543 5 249
f 79 250 249
f 249 250 543
f 250 80 543
f 543 80 229
f 7 178 229
f 229 178 543
f 92 230 251
f 251 230 544
f 230 91 544
f 544 91 228
f 228 80 544
f 544 80 252
f 252 37 544
f 544 37 251
f 253 93 545
f 545 93 233
f 92 253 231
f 231 253 545
f 94 232 254
f 254 232 546
f 232 93 546
f 546 93 255
f 34 256 255
f 255 256 546
f 256 35 546
f 546 35 254
f 236 234 547
f 234 94 547
f 547 94 254
f 35 257 254
f 254 257 547
f 257 56 547
f 547 56 236
f 75 240 237
f 237 240 548
f 240 86 548
f 548 86 258
f 87 259 258
f 258 259 548
f 259 71 548
f 548 71 237
f 72 261 260
f 260 261 549
f 261 28 549
f 549 28 241
f 29 238 241
f 241 238 549
f 238 71 549
f 549 71 260
f 85 245 239
f 239 245 550
f 245 59 550
f 550 59 262
f 70 263 262
f 262 263 550
f 263 86 550
f 550 86 239
f 54 243 264
f 264 243 551
f 243 30 551
f 551 30 242
f 28 265 242
f 242 265 551
f 265 52 551
f 551 52 264
f 266 55 552
f 552 55 267
f 64 247 267
f 267 247 552
f 247 65 552
f 552 65 244
f 54 266 244
f 244 266 552
f 268 59 553
f 553 59 246
f 56 257 246
f 246 257 553
f 257 35 553
f 553 35 269
f 36 268 269
f 269 268 553
f 14 248 179
f 179 248 554
f 64 270 248
f 248 270 554
f 270 83 554
f 554 83 271
f 271 11 554
f 554 11 179
f 78 273 272
f 272 273 555
f 273 79 555
f 555 79 249
f 5 180 249
f 249 180 555
f 180 16 555
f 555 16 272
f 250 79 556
f 556 79 274
f 32 275 274
f 274 275 556
f 275 37 556
f 556 37 252
f 80 250 252
f 252 250 556
f 276 34 557
f 557 34 255
f 93 253 255
f 255 253 557
f 253 92 557
f 557 92 251
f 37 276 251
f 251 276 557
f 33 278 277
f 277 278 558
f 278 36 558
f 558 36 269
f 35 256 269
f 269 256 558
f 256 34 558
f 558 34 277
f 86 263 258
f 258 263 559
f 263 70 559
f 559 70 279
f 27 280 279
f 279 280 559
f 280 87 559
f 559 87 258
f 88 282 281
f 281 282 560
f 282 72 560
f 560 72 260
f 71 259 260
f 260 259 560
f 259 87 560
f 560 87 281
f 73 284 283
f 283 284 561
f 52 265 284
f 284 265 561
f 28 261 265
f 265 261 561
f 261 72 561
f 561 72 283
f 285 70 562
f 562 70 262
f 59 268 262
f 262 268 562
f 268 36 562
f 562 36 286
f 69 285 286
f 286 285 562
f 266 54 563
f 563 54 264
f 52 287 264
f 264 287 563
f 287 53 563
f 563 53 288
f 55 266 288
f 288 266 563
f 270 64 564
f 564 64 267
f 55 289 267
f 267 289 564
f 289 43 564
f 564 43 290
f 83 270 290
f 290 270 564
f 82 292 291
f 291 292 565
f 292 10 565
f 565 10 181
f 11 271 181
f 181 271 565
f 271 83 565
f 565 83 291
f 293 78 566
f 566 78 272
f 16 182 272
f 272 182 566
f 1 294 182
f 182 294 566
f 294 77 566
f 566 77 293
f 273 78 567
f 567 78 295
f 67 296 295
f 295 296 567
f 296 32 567
f 567 32 274
f 79 273 274
f 274 273 567
f 297 33 568
f 568 33 277
f 34 276 277
f 277 276 568
f 276 37 568
f 568 37 275
f 275 32 568
f 568 32 297
f 278 33 569
f 569 33 298
f 68 299 298
f 298 299 569
f 299 69 569
f 569 69 286
f 36 278 286
f 286 278 569
f 285 69 570
f 570 69 300
f 25 301 300
f 300 301 570
f 301 27 570
f 570 27 279
f 70 285 279
f 279 285 570
f 302 88 571
f 571 88 281
f 87 280 281
f 281 280 571
f 280 27 571
f 571 27 303
f 26 302 303
f 303 302 571
f 89 305 304
f 304 305 572
f 305 73 572
f 572 73 283
f 72 282 283
f 283 282 572
f 282 88 572
f 572 88 304
f 52 284 287
f 287 284 573
f 284 73 573
f 573 73 306
f 74 307 306
f 306 307 573
f 53 287 307
f 307 287 573
f 289 55 574
f 574 55 288
f 53 308 288
f 288 308 574
f 308 44 574
f 574 44 309
f 43 289 309
f 309 289 574
f 83 290 291
f 82 310 292
f 292 310 575
f 17 183 311
f 311 183 575
f 183 10 575
f 575 10 292
f 312 76 576
f 576 76 313
f 77 294 313
f 313 294 576
f 294 1 576
f 576 1 184
f 2 312 184
f 184 312 576
f 67 295 314
f 314 295 577
f 295 78 577
f 577 78 293
f 77 315 293
f 293 315 577
f 315 20 577
f 577 20 314
f 316 68 578
f 578 68 298
f 33 297 298
f 298 297 578
f 32 296 297
f 297 296 578
f 296 67 578
f 578 67 316
f 299 68 579
f 579 68 317
f 23 318 317
f 317 318 579
f 318 25 579
f 579 25 300
f 69 299 300
f 300 299 579
f 319 26 580
f 580 26 303
f 27 301 303
f 303 301 580
f 301 25 580
f 580 25 320
f 24 319 320
f 320 319 580
f 321 89 581
f 581 89 304
f 88 302 304
f 304 302 581
f 302 26 581
f 581 26 322
f 51 321 322
f 322 321 581
f 73 305 306
f 306 305 582
f 305 89 582
f 582 89 323
f 90 324 323
f 323 324 582
f 324 74 582
f 582 74 306
f 325 45 583
f 583 45 326
f 44 308 326
f 326 308 583
f 308 53 583
f 583 53 307
f 74 325 307
f 307 325 583
f 18 185 327
f 327 185 584
f 185 17 584
f 584 17 311
f 186 12 585
f 585 12 328
f 47 329 328
f 328 329 585
f 76 312 329
f 329 312 585
f 2 186 312
f 312 186 585
f 76 330 313
f 313 330 586
f 330 21 586
f 586 21 331
f 20 315 331
f 331 315 586
f 315 77 586
f 586 77 313
f 332 23 587
f 587 23 317
f 68 316 317
f 317 316 587
f 316 67 587
f 587 67 314
f 20 332 314
f 314 332 587
f 333 24 588
f 588 24 320
f 25 318 320
f 320 318 588
f 318 23 588
f 588 23 334
f 22 333 334
f 334 333 588
f 51 322 335
f 335 322 589
f 26 319 322
f 322 319 589
f 319 24 589
f 589 24 336
f 50 335 336
f 336 335 589
f 89 321 323
f 323 321 590
f 321 51 590
f 590 51 337
f 46 338 337
f 337 338 590
f 338 90 590
f 590 90 323
f 45 325 339
f 339 325 591
f 325 74 591
f 591 74 324
f 90 338 324
f 324 338 591
f 338 46 591
f 591 46 339
f 13 187 340
f 340 187 592
f 187 18 592
f 592 18 327
f 592 48 340
f 341 47 593
f 593 47 328
f 12 188 328
f 328 188 593
f 188 13 593
f 593 13 340
f 48 341 340
f 340 341 593
f 342 49 594
f 594 49 343
f 21 330 343
f 343 330 594
f 330 76 594
f 594 76 329
f 47 342 329
f 329 342 594
f 21 344 331
f 331 344 595
f 344 22 595
f 595 22 334
f 23 332 334
f 334 332 595
f 332 20 595
f 595 20 331
f 66 346 345
f 345 346 596
f 346 50 596
f 596 50 336
f 24 333 336
f 336 333 596
f 333 22 596
f 596 22 345
f 50 347 335
f 335 347 597
f 348 51 597
f 597 51 335
f 598 46 337
f 51 348 337
f 337 348 598
f 47 341 349
f 49 342 350
f 350 342 599
f 342 47 599
f 599 47 349
f 22 344 345
f 345 344 600
f 344 21 600
f 600 21 343
f 49 351 343
f 343 351 600
f 351 66 600
f 600 66 345
f 50 346 347
f 347 346 601
f 346 66 601
f 601 66 352
f 66 351 352
f 352 351 602
f 351 49 602
f 602 49 350
f 170 9 603
f 603 9 354
f 138 353 354
f 354 353 603
f 353 138 604
f 604 138 355
f 116 356 355
f 355 356 604
f 171 8 605
f 605 8 358
f 137 357 358
f 358 357 605
f 357 138 605
f 605 138 354
f 9 171 354
f 354 171 605
f 114 360 361
f 361 360 606
f 360 116 606
f 606 116 355
f 138 357 355
f 355 357 606
f 357 137 606
f 606 137 361
f 359 356 607
f 356 116 607
f 607 116 363
f 115 362 363
f 363 362 607
f 362 117 607
f 607 117 359
f 172 4 608
f 608 4 365
f 136 364 365
f 365 364 608
f 364 137 608
f 608 137 358
f 8 172 358
f 358 172 608
f 360 114 609
f 609 114 370
f 113 369 370
f 370 369 609
f 369 115 609
f 609 115 363
f 116 360 363
f 363 360 609
f 106 371 372
f 372 371 610
f 371 114 610
f 610 114 361
f 137 364 361
f 361 364 610
f 364 136 610
f 610 136 372
f 133 373 374
f 374 373 611
f 132 368 373
f 373 368 611
f 117 362 368
f 368 362 611
f 362 115 611
f 611 115 374
f 4 173 365
f 365 173 612
f 3 376 173
f 173 376 612
f 376 135 612
f 612 135 375
f 375 136 612
f 612 136 365
f 174 6 613
f 613 6 366
f 366 156 613
f 613 156 378
f 166 377 378
f 378 377 613
f 377 19 613
f 613 19 174
f 132 381 367
f 367 381 614
f 381 159 614
f 614 159 380
f 383 133 615
f 615 133 374
f 115 369 374
f 374 369 615
f 369 113 615
f 615 113 382
f 150 383 382
f 382 383 615
f 371 106 616
f 616 106 385
f 104 384 385
f 385 384 616
f 384 113 616
f 616 113 370
f 114 371 370
f 370 371 616
f 136 375 372
f 372 375 617
f 135 387 375
f 375 387 617
f 387 105 617
f 617 105 386
f 106 372 386
f 386 372 617
f 381 132 618
f 618 132 373
f 373 133 618
f 618 133 389
f 160 388 389
f 389 388 618
f 159 381 388
f 388 381 618
f 376 3 619
f 619 3 175
f 15 391 175
f 175 391 619
f 391 140 619
f 619 140 390
f 135 376 390
f 390 376 619
f 393 7 620
f 620 7 176
f 19 377 176
f 176 377 620
f 377 166 620
f 620 166 392
f 155 393 392
f 392 393 620
f 156 379 378
f 378 379 621
f 395 167 621
f 621 167 394
f 394 166 621
f 621 166 378
f 168 397 396
f 159 399 380
f 380 399 622
f 399 131 622
f 622 131 400
f 146 401 402
f 402 401 623
f 401 150 623
f 623 150 382
f 113 384 382
f 382 384 623
f 384 104 623
f 623 104 402
f 161 403 404
f 404 403 624
f 403 160 624
f 624 160 389
f 133 383 389
f 389 383 624
f 383 150 624
f 624 150 404
f 105 406 386
f 386 406 625
f 406 103 625
f 625 103 405
f 405 104 625
f 625 104 385
f 385 106 625
f 625 106 386
f 140 408 390
f 390 408 626
f 408 129 626
f 626 129 407
f 105 387 407
f 407 387 626
f 387 135 626
f 626 135 390
f 410 131 627
f 627 131 399
f 399 159 627
f 627 159 388
f 388 160 627
f 627 160 409
f 134 410 409
f 409 410 627
f 391 15 628
f 628 15 177
f 14 412 177
f 177 412 628
f 412 139 628
f 628 139 411
f 140 391 411
f 411 391 628
f 393 155 629
f 629 155 414
f 154 413 414
f 414 413 629
f 413 5 629
f 629 5 178
f 7 393 178
f 178 393 629
f 416 155 630
f 630 155 392
f 392 166 630
f 630 166 394
f 167 415 394
f 394 415 630
f 415 112 630
f 630 112 416
f 397 168 631
f 631 168 417
f 167 395 417
f 417 395 631
f 109 419 420
f 420 419 632
f 419 168 632
f 632 168 396
f 169 418 396
f 396 418 632
f 418 110 632
f 632 110 420
f 110 418 421
f 421 418 633
f 418 169 633
f 633 169 398
f 398 400 633
f 400 131 633
f 633 131 421
f 162 422 423
f 423 422 634
f 422 161 634
f 634 161 404
f 150 401 404
f 404 401 634
f 401 146 634
f 634 146 423
f 104 405 402
f 402 405 635
f 405 103 635
f 635 103 425
f 147 424 425
f 425 424 635
f 424 146 635
f 635 146 402
f 145 426 427
f 427 426 636
f 426 134 636
f 636 134 409
f 160 403 409
f 409 403 636
f 403 161 636
f 636 161 427
f 103 406 429
f 429 406 637
f 406 105 637
f 637 105 407
f 129 428 407
f 407 428 637
f 428 127 637
f 637 127 429
f 408 140 638
f 638 140 411
f 139 431 411
f 411 431 638
f 431 130 638
f 638 130 430
f 129 408 430
f 430 408 638
f 433 110 639
f 639 110 421
f 131 410 421
f 421 410 639
f 410 134 639
f 639 134 432
f 111 433 432
f 432 433 639
f 435 158 640
f 640 158 434
f 139 412 434
f 434 412 640
f 14 179 412
f 412 179 640
f 179 11 640
f 640 11 435
f 5 413 180
f 180 413 641
f 413 154 641
f 641 154 437
f 153 436 437
f 437 436 641
f 436 16 641
f 641 16 180
f 416 112 642
f 642 112 439
f 107 438 439
f 439 438 642
f 438 154 642
f 642 154 414
f 155 416 414
f 414 416 642
f 415 167 643
f 643 167 417
f 168 419 417
f 417 419 643
f 419 109 643
f 643 109 440
f 112 415 440
f 440 415 643
f 110 433 420
f 420 433 644
f 433 111 644
f 644 111 442
f 108 441 442
f 442 441 644
f 441 109 644
f 644 109 420
f 102 443 444
f 444 443 645
f 443 145 645
f 645 145 427
f 161 422 427
f 427 422 645
f 422 162 645
f 645 162 444
f 146 424 423
f 423 424 646
f 424 147 646
f 646 147 446
f 163 445 446
f 446 445 646
f 445 162 646
f 646 162 423
f 103 429 425
f 425 429 647
f 127 448 429
f 429 448 647
f 148 447 448
f 448 447 647
f 447 147 647
f 647 147 425
f 450 111 648
f 648 111 432
f 134 426 432
f 432 426 648
f 426 145 648
f 648 145 449
f 144 450 449
f 449 450 648
f 452 128 649
f 649 128 451
f 127 428 451
f 451 428 649
f 428 129 649
f 649 129 430
f 130 452 430
f 430 452 649
f 454 118 650
f 650 118 453
f 130 431 453
f 453 431 650
f 431 139 650
f 650 139 434
f 158 454 434
f 434 454 650
f 11 181 435
f 435 181 651
f 181 10 651
f 651 10 456
f 157 455 456
f 456 455 651
f 455 158 651
f 651 158 435
f 1 182 458
f 458 182 652
f 16 436 182
f 182 436 652
f 436 153 652
f 652 153 457
f 457 152 652
f 652 152 458
f 438 107 653
f 653 107 460
f 142 459 460
f 460 459 653
f 459 153 653
f 653 153 437
f 154 438 437
f 437 438 653
f 439 112 654
f 654 112 440
f 109 441 440
f 440 441 654
f 441 108 654
f 654 108 461
f 461 107 654
f 654 107 439
f 450 144 655
f 655 144 463
f 143 462 463
f 463 462 655
f 462 108 655
f 655 108 442
f 111 450 442
f 442 450 655
f 443 102 656
f 656 102 465
f 100 464 465
f 465 464 656
f 464 144 656
f 656 144 449
f 145 443 449
f 449 443 656
f 467 102 657
f 657 102 444
f 162 445 444
f 444 445 657
f 445 163 657
f 657 163 466
f 101 467 466
f 466 467 657
f 147 447 446
f 446 447 658
f 447 148 658
f 658 148 469
f 164 468 469
f 469 468 658
f 468 163 658
f 658 163 446
f 149 470 471
f 471 470 659
f 470 148 659
f 659 148 448
f 127 451 448
f 448 451 659
f 128 471 451
f 451 471 659
f 473 119 660
f 660 119 472
f 128 452 472
f 472 452 660
f 452 130 660
f 660 130 453
f 118 473 453
f 453 473 660
f 158 455 454
f 17 475 183
f 183 475 661
f 157 456 474
f 474 456 661
f 456 10 661
f 661 10 183
f 184 1 662
f 662 1 458
f 152 477 458
f 458 477 662
f 477 151 662
f 662 151 476
f 2 184 476
f 476 184 662
f 152 457 479
f 479 457 663
f 457 153 663
f 663 153 459
f 142 478 459
f 459 478 663
f 478 95 663
f 663 95 479
f 107 461 460
f 460 461 664
f 108 462 461
f 461 462 664
f 462 143 664
f 664 143 480
f 480 142 664
f 664 142 460
f 464 100 665
f 665 100 482
f 98 481 482
f 482 481 665
f 481 143 665
f 665 143 463
f 144 464 463
f 463 464 665
f 484 100 666
f 666 100 465
f 102 467 465
f 465 467 666
f 467 101 666
f 666 101 483
f 99 484 483
f 483 484 666
f 486 101 667
f 667 101 466
f 163 468 466
f 466 468 667
f 468 164 667
f 667 164 485
f 126 486 485
f 485 486 667
f 165 487 488
f 488 487 668
f 487 164 668
f 668 164 469
f 148 470 469
f 469 470 668
f 470 149 668
f 668 149 488
f 471 128 669
f 669 128 472
f 119 490 472
f 472 490 669
f 490 120 669
f 669 120 489
f 149 471 489
f 489 471 669
f 475 17 670
f 670 17 185
f 18 491 185
f 185 491 670
f 151 493 476
f 476 493 671
f 122 492 493
f 493 492 671
f 492 12 671
f 671 12 186
f 2 476 186
f 186 476 671
f 95 495 479
f 479 495 672
f 495 96 672
f 672 96 494
f 151 477 494
f 494 477 672
f 477 152 672
f 672 152 479
f 478 142 673
f 673 142 480
f 143 481 480
f 480 481 673
f 481 98 673
f 673 98 496
f 95 478 496
f 496 478 673
f 498 98 674
f 674 98 482
f 100 484 482
f 482 484 674
f 484 99 674
f 674 99 497
f 97 498 497
f 497 498 674
f 500 99 675
f 675 99 483
f 101 486 483
f 483 486 675
f 126 499 486
f 486 499 675
f 125 500 499
f 499 500 675
f 121 501 502
f 502 501 676
f 501 126 676
f 676 126 485
f 164 487 485
f 485 487 676
f 487 165 676
f 676 165 502
f 165 488 502
f 502 488 677
f 488 149 677
f 677 149 489
f 120 503 489
f 489 503 677
f 503 121 677
f 677 121 502
f 491 18 678
f 678 18 187
f 13 504 187
f 187 504 678
f 504 123 678
f 504 13 679
f 679 13 188
f 12 492 188
f 188 492 679
f 492 122 679
f 679 122 505
f 123 504 505
f 505 504 679
f 493 151 680
f 680 151 494
f 96 507 494
f 494 507 680
f 507 124 680
f 680 124 506
f 122 493 506
f 506 493 680
f 98 498 496
f 496 498 681
f 498 97 681
f 681 97 508
f 96 495 508
f 508 495 681
f 495 95 681
f 681 95 496
f 99 500 497
f 497 500 682
f 500 125 682
f 682 125 510
f 141 509 510
f 510 509 682
f 509 97 682
f 682 97 497
f 125 499 511
f 511 499 683
f 499 126 683
f 683 126 512
f 126 501 512
f 512 501 684
f 501 121 684
f 122 513 505
f 513 122 685
f 685 122 506
f 124 514 506
f 506 514 685
f 124 507 515
f 515 507 686
f 507 96 686
f 686 96 508
f 97 509 508
f 508 509 686
f 509 141 686
f 686 141 515
f 125 511 510
f 510 511 687
f 516 141 687
f 687 141 510
f 514 124 688
f 688 124 515
f 141 516 515
f 515 516 688

