# https://github.com/mikedh/trimesh
v -0.00084717 -0.08146860 0.21596894
v -0.00091782 -0.09138199 0.19739759
v -0.00010597 0.03930434 0.31303832
v 0.00019159 0.06714365 0.26835999
v 0.00030820 0.07866237 0.23834711
v 0.00002821 0.05389545 0.29297075
v -0.00122190 -0.13384522 0.04627159
v -0.00110288 -0.13686141 0.02069570
v -0.00076143 -0.14173227 -0.00893191
v 0.00031570 0.08188335 0.00283222
v 0.00060019 0.09297714 0.05020879
v -0.00095649 -0.10184108 0.17413095
v -0.00107768 -0.11943557 0.12221986
v -0.00114936 -0.12696941 0.09655815
v 0.00038708 0.08879583 0.20105577
v -0.00100119 -0.11054685 0.14812756
v -0.00179108 -0.13112769 0.07115206
v -0.00072292 -0.07226882 0.23197651
v 0.00064473 0.10001603 0.10412547
v -0.00054228 -0.06469939 0.24822733
v 0.00051061 0.09707769 0.15596509
v 0.03276937 -0.07955504 0.22058082
v 0.03924964 -0.08797270 0.20303604
v 0.04878650 0.06456719 0.27543876
v 0.06897481 -0.02220580 0.28576303
v 0.05942727 0.08104768 0.25049537
v 0.07043425 0.05672606 0.28083783
v 0.08730318 0.07402452 0.26090774
v 0.01545370 0.03726907 0.31255618
v 0.02552270 0.06731070 0.27069837
v 0.03078571 0.08081200 0.24222553
v 0.08911044 0.04386349 0.28590944
v 0.08117666 0.01735274 0.29694539
v 0.07064393 0.03077899 0.29758382
v 0.05607511 0.04109223 0.29596123
v 0.03891575 0.04779223 0.29425737
v 0.02027249 0.05206463 0.29335505
v 0.01591170 -0.08125281 0.21730620
v 0.01933467 -0.09081412 0.19889292
v 0.05162422 -0.13318945 0.01627240
v 0.07178207 -0.13338418 0.03804724
v 0.07036345 -0.12759483 0.00051807
v 0.09135292 -0.11567503 0.01477526
v 0.05078186 -0.13714146 -0.00690369
v 0.09416825 0.07732866 -0.00918421
v 0.14544219 0.03506665 0.01900205
v 0.04673311 -0.09943702 0.18153909
v 0.05914181 -0.12737485 0.13284123
v 0.06635660 -0.14183211 0.10502785
v 0.09068992 -0.11992696 0.14316744
v 0.10503305 -0.13227237 0.11561140
v 0.12245985 -0.11885505 0.05090672
v 0.15007878 -0.08900403 0.07355228
v 0.14780972 -0.07243771 0.04907313
v 0.12196872 -0.09822359 0.02949955
v 0.12922225 -0.06900151 -0.03048763
v 0.15027448 -0.00484771 0.00121944
v 0.03739844 0.09340124 0.20580238
v 0.04602648 0.09038800 -0.00119396
v 0.05001891 0.09825672 0.04893859
v 0.02587900 -0.14239114 -0.00815216
v 0.02583510 -0.13738694 0.02059878
v 0.02970933 -0.13588734 0.04560052
v 0.03006216 -0.13623967 0.09896231
v 0.02796017 -0.12575645 0.12578619
v 0.02316032 -0.10199381 0.17623883
v 0.07257350 0.09695668 0.21638405
v 0.02604211 -0.11348931 0.15132305
v 0.05315947 -0.11270161 0.15782684
v 0.10714263 0.08825735 0.22845227
v 0.11562303 0.08157349 0.04948522
v 0.14736143 -0.10378789 0.10044512
v 0.11886185 -0.13558883 0.08175236
v 0.07202244 -0.14692758 0.07163072
v 0.03149608 -0.13961955 0.07089925
v 0.17346225 -0.07228080 0.12229809
v 0.17070930 -0.05650493 0.09917629
v 0.16845094 -0.04030005 0.07217991
v 0.19665272 -0.04383397 0.14517307
v 0.19093708 -0.02632823 0.12722155
v 0.19077366 0.00014547 0.10793766
v 0.07545213 -0.04416715 0.25812465
v 0.01353151 -0.07283936 0.23348778
v 0.02768144 -0.07199803 0.23613900
v 0.04176024 -0.06809430 0.23900124
v 0.05483505 -0.06259243 0.24344358
v 0.06626073 -0.05474377 0.25007254
v 0.14447681 -0.03874344 -0.01407470
v 0.04874010 0.10708622 0.10601079
v 0.09944741 0.10544656 0.11464235
v 0.06571578 -0.03183218 0.27766255
v 0.06054852 -0.04026931 0.26963988
v 0.05342478 -0.04823235 0.26190546
v 0.04451323 -0.05498695 0.25639409
v 0.03463601 -0.06045659 0.25311017
v 0.02418112 -0.06471765 0.25125149
v 0.01263007 -0.06571439 0.24949741
v 0.08620072 0.10928323 0.17095268
v 0.04381947 0.10460183 0.16060928
v 0.02856089 -0.14403830 -0.04068348
v 0.05628886 -0.13696873 -0.03561015
v 0.08161765 -0.12213578 -0.02621061
v 0.10179872 -0.10489460 -0.01219325
v 0.12354018 -0.08415331 0.00433086
v 0.14434295 -0.05705738 0.02158108
v 0.15835129 -0.02518474 0.03865239
v 0.16954320 0.01631809 0.06000438
v 0.16377710 0.06139206 0.09014824
v 0.14528141 0.09010862 0.13375920
v -0.03423571 -0.07913462 0.22054413
v -0.04079980 -0.08750990 0.20300484
v -0.04875132 0.06519387 0.27532226
v -0.06978249 -0.02168534 0.28568345
v -0.05928602 0.08183752 0.25032902
v -0.07071981 0.05747781 0.28069884
v -0.08755894 0.07495409 0.26072565
v -0.01568171 0.03735409 0.31254736
v -0.02520992 0.06768847 0.27062908
v -0.03028178 0.08130814 0.24211386
v -0.08968587 0.04466195 0.28576753
v -0.08185219 0.01795996 0.29684111
v -0.07115389 0.03133161 0.29748702
v -0.05640300 0.04157895 0.29587787
v -0.03905741 0.04817541 0.29419613
v -0.02026087 0.05228082 0.29332376
v -0.01753818 -0.08096219 0.21728814
v -0.02109188 -0.09047669 0.19888037
v -0.05371310 -0.13238231 0.01619071
v -0.07399755 -0.13232049 0.03795764
v -0.07202761 -0.12666557 0.00042188
v -0.09305539 -0.11439148 0.01464497
v -0.05235420 -0.13654807 -0.00696519
v -0.09371775 0.07787154 -0.00924048
v -0.14531381 0.03634454 0.01883946
v -0.04835200 -0.09893190 0.18150961
v -0.06110432 -0.12670136 0.13281479
v -0.06854123 -0.14103449 0.10499573
v -0.09243807 -0.11912583 0.14311722
v -0.10697364 -0.13123405 0.11554739
v -0.12436753 -0.11733931 0.05077478
v -0.15164609 -0.08732622 0.07338896
v -0.14909541 -0.07071395 0.04888903
v -0.12348018 -0.09667865 0.02934290
v -0.12961095 -0.06825147 -0.03056534
v -0.15039858 -0.00363621 0.00108032
v -0.03680985 0.09396434 0.20565966
v -0.04537449 0.09071749 -0.00122803
v -0.04892222 0.09888975 0.04884222
v -0.02743347 -0.14209921 -0.00818244
v -0.02810330 -0.13694776 0.02055313
v -0.03216922 -0.13536328 0.04555415
v -0.03245669 -0.13576647 0.09894291
v -0.03017340 -0.12532497 0.12577400
v -0.02502206 -0.10162416 0.17622870
v -0.07238072 0.09783230 0.21618724
v -0.02805403 -0.11308999 0.15131366
v -0.05491999 -0.11212492 0.15780023
v -0.10742056 0.08926364 0.22823724
v -0.11515497 0.08274620 0.04929724
v -0.14905310 -0.10234423 0.10032123
v -0.12092061 -0.13427504 0.08166009
v -0.07435019 -0.14599329 0.07158065
v -0.03396889 -0.13910599 0.07086784
v -0.17486998 -0.07092529 0.12217188
v -0.17197501 -0.05493654 0.09900394
v -0.16948117 -0.03862727 0.07197544
v -0.19792777 -0.04275934 0.14503980
v -0.19208392 -0.02509330 0.12703636
v -0.19168153 0.00152003 0.10769388
v -0.07663018 -0.04348398 0.25803623
v -0.01495758 -0.07262426 0.23346648
v -0.02902214 -0.07163362 0.23609957
v -0.04305593 -0.06760574 0.23894608
v -0.05610373 -0.06199388 0.24337441
v -0.06749100 -0.05408135 0.24999234
v -0.14479295 -0.03771111 -0.01418827
v -0.04770711 0.10776748 0.10585666
v -0.09900479 0.10654403 0.11441433
v -0.06659698 -0.03128331 0.27758402
v -0.06147134 -0.03974459 0.26956764
v -0.05438543 -0.04774299 0.26184204
v -0.04550477 -0.05455723 0.25634259
v -0.03565739 -0.06011379 0.25307134
v -0.02523851 -0.06447277 0.25122482
v -0.01371114 -0.06558151 0.24948370
v -0.08588295 0.11025004 0.17073402
v -0.04305150 0.10521977 0.16045022
v -0.02924004 -0.14389993 -0.04069792
v -0.05709677 -0.13662920 -0.03564532
v -0.08254222 -0.12150556 -0.02627593
v -0.10280684 -0.10390210 -0.01229601
v -0.12451211 -0.08286798 0.00419238
v -0.14520472 -0.05552411 0.02140614
v -0.15900134 -0.02348486 0.03844471
v -0.16996912 0.01789427 0.05976030
v -0.16402452 0.06281040 0.08987534
v -0.14545537 0.09135572 0.13348180
v -0.00047088 -0.06378424 0.25740287
v -0.00063437 -0.06789431 0.23971495
v -0.00004409 0.04634153 0.30365804
v -0.00079234 -0.07688528 0.22423339
v 0.00011248 0.06075928 0.28115663
v -0.00088293 -0.08625128 0.20715252
v 0.00025605 0.07309159 0.25415164
v -0.00093784 -0.09680797 0.18642184
v 0.00034367 0.08387655 0.22067040
v -0.00097451 -0.10613627 0.16116005
v 0.00043952 0.09327081 0.17947394
v -0.00103899 -0.11526553 0.13532564
v 0.00058390 0.09946522 0.13079154
v -0.00111766 -0.12364793 0.10930625
v 0.00065600 0.09732575 0.07688364
v -0.00117280 -0.12930464 0.08380932
v 0.00046589 0.08686318 0.02584693
v -0.00162556 -0.13241426 0.05863583
v -0.00117531 -0.13504661 0.03373256
v -0.00094698 -0.13929921 0.00640307
v -0.00054978 -0.14334486 -0.02504010
v 0.00619943 -0.06505847 0.24857086
v 0.01167578 -0.06430614 0.25831959
v 0.00778671 0.03872290 0.31287405
v 0.00633583 -0.07248208 0.23239523
v 0.01308975 -0.06887710 0.24129874
v 0.01856455 -0.06574009 0.25042751
v 0.02204949 -0.06333539 0.25997400
v 0.06020329 -0.03309806 0.28429899
v 0.06763585 -0.02713985 0.28167644
v 0.01025242 0.05356813 0.29289374
v 0.01765103 0.04415555 0.30341512
v 0.00757883 -0.08151228 0.21633419
v 0.01443841 -0.07700280 0.22560126
v 0.02061860 -0.07275858 0.23474094
v 0.02594960 -0.06787823 0.24350795
v 0.02947710 -0.06281704 0.25207072
v 0.03108158 -0.05947334 0.26201788
v 0.05525846 -0.04118204 0.27721104
v 0.06336598 -0.03617934 0.27366766
v 0.07292376 -0.03168246 0.27215666
v 0.07676867 -0.02136647 0.28089863
v 0.02300109 0.05990244 0.28240111
v 0.01307162 0.06726171 0.26906660
v 0.02979763 0.05016531 0.29371378
v 0.03369245 0.03963895 0.30326509
v 0.01759171 -0.08592353 0.20855004
v 0.00925991 -0.09141445 0.19786477
v 0.02422445 -0.08071173 0.21878994
v 0.02996618 -0.07587857 0.22852096
v 0.03478690 -0.07031609 0.23746783
v 0.03822520 -0.06385075 0.24574885
v 0.03964703 -0.05785571 0.25453377
v 0.03973104 -0.05423610 0.26552328
v 0.04818800 -0.04834958 0.27071163
v 0.05723872 -0.04430242 0.26560619
v 0.06766501 -0.04146976 0.26305124
v 0.04403594 0.05624462 0.28517076
v 0.03727702 0.06651007 0.27291968
v 0.02802327 0.07425047 0.25736147
v 0.01584740 0.07942682 0.23953474
v 0.04864460 0.03338637 0.30382475
v 0.04778763 0.04497165 0.29492196
v 0.01117289 -0.10217100 0.17478317
v 0.02122502 -0.09636235 0.18816388
v 0.03590449 -0.08350715 0.21223021
v 0.02929435 -0.08967167 0.20062843
v 0.04130664 -0.07770923 0.22270465
v 0.04554610 -0.07195794 0.23223817
v 0.04846785 -0.06554536 0.24096185
v 0.04964097 -0.05832663 0.24939331
v 0.04914056 -0.05180419 0.25878596
v 0.05971243 -0.05066525 0.25496405
v 0.07125419 -0.04970072 0.25393885
v 0.06314267 0.04861422 0.28855827
v 0.05990890 0.06127973 0.27807656
v 0.04514767 0.08145393 0.24592754
v 0.05385605 0.07274782 0.26396668
v 0.03396771 0.08713765 0.22507060
v 0.01941242 0.09053454 0.20252088
v 0.06372450 0.03633952 0.29694077
v 0.06166924 0.02460066 0.30366036
v 0.01263623 -0.11191181 0.14912453
v 0.02480039 -0.10763814 0.16380617
v 0.03500892 -0.10112522 0.17852068
v 0.04289633 -0.09340661 0.19284737
v 0.05996696 -0.06635756 0.23749825
v 0.06076981 -0.05907352 0.24651620
v 0.07103098 0.01348168 0.30126661
v 0.07967049 0.03707156 0.29192027
v 0.08021660 0.05091262 0.28353634
v 0.07839879 0.06536414 0.27197370
v 0.07360916 0.07887848 0.25575891
v 0.06565985 0.08927748 0.23475420
v 0.05488266 0.09611065 0.21059373
v 0.04077147 0.09952138 0.18442914
v 0.02273066 0.09965592 0.15731013
v 0.07657295 0.02439723 0.29762340
v 0.01344621 -0.12219526 0.12341443
v 0.02701767 -0.11971861 0.13882139
v 0.03953492 -0.11382468 0.15425557
v 0.05015207 -0.10581057 0.16973931
v 0.09685459 0.08155297 0.24618676
v 0.09014484 0.09412542 0.22260064
v 0.07968748 0.10425151 0.19519114
v 0.06459525 0.10914454 0.16522866
v 0.04617088 0.10787236 0.13430324
v 0.02386453 0.10288282 0.10441557
v 0.02900599 -0.13149821 0.11260006
v 0.01443451 -0.13052627 0.09735191
v 0.04321011 -0.12764059 0.12885872
v 0.05605119 -0.11987893 0.14557180
v 0.10797166 0.10428142 0.17727026
v 0.09224899 0.10982571 0.14377517
v 0.07430807 0.10871805 0.10895580
v 0.02281458 0.09574483 0.04922491
v 0.05044327 0.10311886 0.07733014
v 0.01525839 -0.13397741 0.07111621
v 0.03100976 -0.13924746 0.08491483
v 0.04719851 -0.14026854 0.10128948
v 0.06264882 -0.13494701 0.11957431
v 0.07519381 -0.12477939 0.13771442
v 0.13668171 0.09464863 0.15912321
v 0.12313093 0.09852487 0.12320098
v 0.10725376 0.09585614 0.08474678
v 0.08023060 0.09427974 0.04923958
v 0.04775590 0.09372493 0.02252737
v 0.02188615 0.08725263 0.00167948
v 0.03106287 -0.13786515 0.05781406
v 0.01428151 -0.13477331 0.04637606
v 0.04993904 -0.14455711 0.07067630
v 0.06973216 -0.14640481 0.08879578
v 0.08634903 -0.13942205 0.10996467
v 0.09754456 -0.12655183 0.13017085
v 0.15452827 0.07883285 0.11033908
v 0.14180202 0.07173972 0.07046556
v 0.07123043 0.08681040 -0.00440951
v 0.10262549 0.07864437 0.01672699
v 0.02757127 -0.13579168 0.03301504
v 0.01257515 -0.13757389 0.02114286
v 0.04715840 -0.13662710 0.04313633
v 0.07253338 -0.14230838 0.05469698
v 0.09633651 -0.14427894 0.07528192
v 0.11258567 -0.13558436 0.09941617
v 0.12072410 -0.12171404 0.12174246
v 0.18059150 0.05169401 0.10988018
v 0.13611083 0.05767703 0.03129050
v 0.16935583 0.03966676 0.07326329
v 0.15632080 0.02552898 0.03871708
v 0.13516854 0.04224309 -0.00198969
v 0.02539555 -0.13999494 0.00667298
v 0.01265949 -0.14263686 -0.00877206
v 0.03857385 -0.13584725 0.01905991
v 0.05853541 -0.13153485 0.02631344
v 0.09986317 -0.12857347 0.04284060
v 0.12147494 -0.12887013 0.06501612
v 0.13465624 -0.12009520 0.09064770
v 0.14149406 -0.10799171 0.11417705
v 0.17250999 -0.07908597 0.13297215
v 0.18487143 -0.05686777 0.13329592
v 0.19298159 -0.03474931 0.13565022
v 0.20393627 -0.01522034 0.14149240
v 0.19513697 0.02496130 0.11759132
v 0.18036645 0.00753618 0.08140489
v 0.16523733 -0.00578429 0.04886745
v 0.15445479 -0.01550465 0.02040580
v 0.14957987 0.01428604 0.00948116
v 0.14555814 0.00522381 -0.01857038
v 0.02706187 -0.14373946 -0.02382189
v 0.04929156 -0.13555581 0.00498413
v 0.03867482 -0.14050139 -0.00750689
v 0.06285926 -0.13000378 0.01027021
v 0.07988956 -0.12215599 0.00763306
v 0.08424102 -0.12271372 0.02544463
v 0.10557804 -0.10783593 0.02183658
v 0.12256680 -0.10785671 0.03959669
v 0.13934009 -0.10472688 0.06201574
v 0.14920797 -0.09726598 0.08643439
v 0.15986026 -0.08787375 0.11066183
v 0.17230182 -0.06457138 0.11112458
v 0.18021040 -0.04030790 0.11323535
v 0.19077500 -0.01597452 0.11863837
v 0.20594510 0.00830473 0.13300797
v 0.17799822 -0.02244644 0.08636412
v 0.16492978 -0.03284915 0.05680296
v 0.15194201 -0.04188419 0.03022440
v 0.14405139 -0.04832694 0.00444013
v 0.14843029 -0.02224351 -0.00640504
v 0.04264950 -0.14146073 -0.03849956
v 0.05347305 -0.13759711 -0.02011041
v 0.06151081 -0.13261887 -0.00506762
v 0.09205478 -0.11352852 -0.01959603
v 0.09705917 -0.11022463 0.00240873
v 0.07647059 -0.12515616 -0.01177470
v 0.11239674 -0.09532184 -0.00395361
v 0.12193949 -0.09077996 0.01825021
v 0.13655350 -0.08634574 0.03894155
v 0.14952186 -0.08047970 0.06101304
v 0.16001552 -0.07281205 0.08571824
v 0.16992237 -0.04824522 0.08636591
v 0.15827649 -0.05644905 0.06004733
v 0.14585998 -0.06494675 0.03638278
v 0.13809273 -0.05455762 -0.02210172
v 0.13470007 -0.07132918 0.01303367
v 0.12624713 -0.07665106 -0.01247083
v 0.06954158 -0.13032962 -0.03156979
v 0.10639372 -0.09840521 -0.02833660
v -0.00729009 -0.06498881 0.24856374
v -0.01260883 -0.06420833 0.25830945
v -0.00800596 0.03876636 0.31286970
v -0.00780808 -0.07236429 0.23238388
v -0.01434396 -0.06870430 0.24128008
v -0.01964034 -0.06554750 0.25040671
v -0.02296793 -0.06315661 0.25995541
v -0.06097035 -0.03268199 0.28423843
v -0.06848290 -0.02660081 0.28159675
v -0.01018531 0.05368055 0.29287809
v -0.01777943 0.04429728 0.30339727
v -0.00929365 -0.08133960 0.21632612
v -0.01596750 -0.07675085 0.22558019
v -0.02200442 -0.07245993 0.23471025
v -0.02715498 -0.06756881 0.24347332
v -0.03051924 -0.06252110 0.25203803
v -0.03197504 -0.05922289 0.26198980
v -0.05606815 -0.04077968 0.27715525
v -0.06427200 -0.03563786 0.27359167
v -0.07392813 -0.03104750 0.27206558
v -0.07769338 -0.02074984 0.28080466
v -0.02283429 0.06020141 0.28235257
v -0.01266511 0.06746600 0.26902750
v -0.02985446 0.05047423 0.29366666
v -0.03391378 0.03989786 0.30322760
v -0.01927482 -0.08560934 0.20853436
v -0.01111503 -0.09121158 0.19786119
v -0.02576623 -0.08034005 0.21876258
v -0.03137352 -0.07548458 0.22848150
v -0.03610364 -0.06988775 0.23742014
v -0.03939341 -0.06341679 0.24569944
v -0.04065738 -0.05746511 0.25448844
v -0.04059443 -0.05392181 0.26548597
v -0.04902558 -0.04798289 0.27066407
v -0.05818282 -0.04379167 0.26553783
v -0.06872614 -0.04084664 0.26296631
v -0.04408523 0.05675715 0.28508231
v -0.03709178 0.06702846 0.27282393
v -0.02759541 0.07469432 0.25727075
v -0.01520258 0.07970711 0.23946324
v -0.04898910 0.03372584 0.30376992
v -0.04801930 0.04541594 0.29484811
v -0.01315244 -0.10195072 0.17478153
v -0.02303006 -0.09600929 0.18815273
v -0.03739529 -0.08307391 0.21219558
v -0.03094490 -0.08924830 0.20060673
v -0.04272630 -0.07725429 0.22266024
v -0.04690271 -0.07146143 0.23218396
v -0.04975122 -0.06499779 0.24089950
v -0.05077979 -0.05779170 0.24932942
v -0.05011841 -0.05134005 0.25872827
v -0.06081547 -0.05006978 0.25488806
v -0.07246079 -0.04902344 0.25385430
v -0.06345077 0.04923877 0.28844699
v -0.06003462 0.06198229 0.27794588
v -0.04481742 0.08211818 0.24578342
v -0.05375474 0.07347014 0.26382294
v -0.03341997 0.08767345 0.22494048
v -0.01864613 0.09086232 0.20242274
v -0.06414571 0.03686097 0.29685009
v -0.06213983 0.02500617 0.30359092
v -0.01475383 -0.11167956 0.14912155
v -0.02672999 -0.10725303 0.16379669
v -0.03674385 -0.10066314 0.17850137
v -0.04447540 -0.09292533 0.19281697
v -0.06130404 -0.06576029 0.23743170
v -0.06202148 -0.05843605 0.24644110
v -0.07162748 0.01395881 0.30118448
v -0.08021572 0.03775513 0.29179943
v -0.08065465 0.05169410 0.28339410
v -0.07866401 0.06622298 0.27180985
v -0.07366262 0.07975641 0.25558013
v -0.06548844 0.09011956 0.23456904
v -0.05448661 0.09685156 0.21041796
v -0.04011137 0.10011131 0.18427643
v -0.02177277 0.10001187 0.15720269
v -0.07716753 0.02497893 0.29752204
v -0.01573728 -0.12195275 0.12340683
v -0.02912791 -0.11930456 0.13881129
v -0.04141719 -0.11331459 0.15423876
v -0.05183101 -0.10527349 0.16971132
v -0.09712578 0.08253337 0.24598390
v -0.09016981 0.09509525 0.22239494
v -0.07944512 0.10516840 0.19498271
v -0.06403685 0.10995859 0.16503227
v -0.04526012 0.10851908 0.13414282
v -0.02262027 0.10324442 0.10432556
v -0.03131766 -0.13104650 0.11258480
v -0.01685615 -0.13026642 0.09733889
v -0.04529846 -0.12706969 0.12884161
v -0.05790751 -0.11925686 0.14554581
v -0.10792544 0.10534948 0.17703444
v -0.09185056 0.11085681 0.14354852
v -0.07355484 0.10964389 0.10875446
v -0.02152551 0.09606331 0.04918393
v -0.04934346 0.10380435 0.07719877
v -0.01772727 -0.13369925 0.07109630
v -0.03346199 -0.13875231 0.08489019
v -0.04949844 -0.13962125 0.10126638
v -0.06472439 -0.13421405 0.11954603
v -0.07704457 -0.12402943 0.13767630
v -0.13688556 0.09581485 0.15885767
v -0.12300340 0.09972634 0.12295020
v -0.10680758 0.09699273 0.08453223
v -0.07943606 0.09517128 0.04909568
v -0.04679614 0.09422666 0.02247129
v -0.02122515 0.08741632 0.00166243
v -0.03353072 -0.13734093 0.05777505
v -0.01676054 -0.13450105 0.04635024
v -0.05235346 -0.14383533 0.07063881
v -0.07200818 -0.14553827 0.08875653
v -0.08841948 -0.13848784 0.10991734
v -0.09938981 -0.12563989 0.13011530
v -0.15471753 0.08015042 0.11006317
v -0.14168512 0.07313743 0.07023188
v -0.07065494 0.08727897 -0.00445803
v -0.10211022 0.07948774 0.01661390
v -0.02993688 -0.13530811 0.03296740
v -0.01486393 -0.13734900 0.02111948
v -0.04953211 -0.13586661 0.04307415
v -0.07482857 -0.14132043 0.05463088
v -0.09854817 -0.14313373 0.07521161
v -0.11460194 -0.13440859 0.09933963
v -0.12253395 -0.12060651 0.12166232
v -0.18111462 0.05307006 0.10958746
v -0.13584439 0.05892593 0.03111504
v -0.16968650 0.04116744 0.07300216
v -0.15643693 0.02706111 0.03850770
v -0.13493145 0.04318409 -0.00209823
v -0.02732139 -0.13963408 0.00663553
v -0.01421135 -0.14249023 -0.00878718
v -0.04078837 -0.13520811 0.01899375
v -0.06069246 -0.13061647 0.02622598
v -0.10193305 -0.12723781 0.04272868
v -0.12350184 -0.12743959 0.06490490
v -0.13652463 -0.11868979 0.09053549
v -0.14319899 -0.10669286 0.11407030
v -0.17395669 -0.07786052 0.13286838
v -0.18618832 -0.05564176 0.13316610
v -0.19419596 -0.03359107 0.13548914
v -0.20510425 -0.01417902 0.14131001
v -0.19594873 0.02629849 0.11731336
v -0.18105524 0.00904657 0.08115295
v -0.16577128 -0.00414192 0.04864262
v -0.15483973 -0.01403038 0.02022538
v -0.14958043 0.01555325 0.00933020
v -0.14551821 0.00610612 -0.01866193
v -0.02818990 -0.14352054 -0.02384454
v -0.05114174 -0.13487239 0.00491343
v -0.04024756 -0.14005817 -0.00755291
v -0.06475788 -0.12908650 0.01017626
v -0.08159407 -0.12105255 0.00751977
v -0.08616228 -0.12150125 0.02532783
v -0.10719972 -0.10640955 0.02169290
v -0.12429830 -0.10629440 0.03944837
v -0.14107078 -0.10310298 0.06186673
v -0.15085592 -0.09568553 0.08628765
v -0.16139574 -0.08644758 0.11053598
v -0.17364807 -0.06309965 0.11097401
v -0.18138618 -0.03889206 0.11305735
v -0.19183577 -0.01466835 0.11842829
v -0.20697457 0.00945581 0.13276789
v -0.17894482 -0.02090278 0.08614573
v -0.16579480 -0.03115102 0.05658999
v -0.15270869 -0.04026209 0.03003353
v -0.14463010 -0.04701885 0.00429013
v -0.14866240 -0.02111629 -0.00653163
v -0.04339236 -0.14123134 -0.03852329
v -0.05469011 -0.13711421 -0.02016050
v -0.06307942 -0.13187967 -0.00514413
v -0.09302867 -0.11272483 -0.01967935
v -0.09842045 -0.10904699 0.00228664
v -0.07777457 -0.12434675 -0.01185851
v -0.11340629 -0.09417031 -0.00407510
v -0.12318981 -0.08933954 0.01809797
v -0.13795123 -0.08470439 0.03877147
v -0.15095625 -0.07876101 0.06083700
v -0.16141640 -0.07116015 0.08554974
v -0.17108192 -0.04661615 0.08617589
v -0.15942321 -0.05471867 0.05985272
v -0.14694310 -0.06330623 0.03620020
v -0.13846617 -0.05365459 -0.02219889
v -0.13563009 -0.06991072 0.01287642
v -0.12691502 -0.07560743 -0.01258318
v -0.07040941 -0.12985664 -0.03161879
v -0.10706005 -0.09766881 -0.02841277
v 0.00579855 -0.06396991 0.25764126
v 0.00630991 -0.06820608 0.24021795
v 0.01706076 -0.06419925 0.25912127
v 0.06184813 -0.02862997 0.28804106
v 0.00895148 0.04575637 0.30355975
v 0.00678159 -0.07698451 0.22462806
v 0.01965173 -0.06880402 0.24241978
v 0.02665359 -0.06171209 0.26088664
v 0.05797914 -0.03726907 0.28070363
v 0.07509078 -0.02662401 0.27656692
v 0.01167301 0.06054277 0.28153008
v 0.02582256 0.04206384 0.30325747
v 0.00840478 -0.08634678 0.20756990
v 0.02209907 -0.07680026 0.22696245
v 0.03213775 -0.06611531 0.24451840
v 0.03539713 -0.05688897 0.26359645
v 0.05199372 -0.04487438 0.27380970
v 0.07047762 -0.03655169 0.26759753
v 0.03373945 0.05858917 0.28369519
v 0.01439973 0.07354139 0.25512150
v 0.04131303 0.03681276 0.30346408
v 0.01021283 -0.09698334 0.18699703
v 0.02671987 -0.08500726 0.21014386
v 0.03787237 -0.07416903 0.23021966
v 0.04405746 -0.06126702 0.24731255
v 0.04403120 -0.05143612 0.26792160
v 0.06403010 -0.04616515 0.25869057
v 0.05385020 0.05292153 0.28679830
v 0.04097663 0.07413868 0.26045063
v 0.01757244 0.08510918 0.22204140
v 0.05549281 0.02937545 0.30396196
v 0.01203251 -0.10704159 0.16200048
v 0.03210778 -0.09517843 0.19013557
v 0.05295882 -0.06937403 0.23462859
v 0.05490428 -0.05487521 0.25197873
v 0.07180726 0.04334594 0.29038072
v 0.06641034 0.06998797 0.26791069
v 0.04988733 0.08863761 0.22933787
v 0.02115465 0.09559339 0.18098688
v 0.06694701 0.01924474 0.30280215
v 0.01299009 -0.11730162 0.13644296
v 0.03747277 -0.10728465 0.16641912
v 0.06651165 -0.06280347 0.24098569
v 0.08637260 0.02986097 0.29291704
v 0.08955835 0.05888699 0.27580148
v 0.08163681 0.08698515 0.24074221
v 0.05999256 0.10337453 0.18933409
v 0.02352379 0.10264690 0.13170198
v 0.01391971 -0.12682195 0.11040217
v 0.04141719 -0.12068829 0.14185050
v 0.09908762 0.10056057 0.20163268
v 0.06898423 0.11172718 0.13806272
v 0.02367673 0.09996294 0.07657880
v 0.01498067 -0.13284669 0.08420980
v 0.04523487 -0.13438303 0.11550966
v 0.11509137 0.10349723 0.15086570
v 0.07890684 0.10156790 0.07941219
v 0.02230505 0.09109606 0.02457008
v 0.01507630 -0.13432502 0.05854395
v 0.04894510 -0.14416119 0.08616748
v 0.08049552 -0.13235196 0.12460476
v 0.13131268 0.08752079 0.09570590
v 0.07583437 0.08938909 0.02084859
v 0.01320291 -0.13576281 0.03381386
v 0.04947479 -0.14125832 0.05614045
v 0.09212346 -0.14420461 0.09335676
v 0.15210042 0.04914612 0.05215396
v 0.12289594 0.06174604 0.00779989
v 0.01240114 -0.14021080 0.00663339
v 0.04254780 -0.13462585 0.03086458
v 0.09846683 -0.13865169 0.05763784
v 0.12845526 -0.12266677 0.10635832
v 0.20603196 -0.02410990 0.14899981
v 0.18318396 0.03092525 0.09534478
v 0.15655624 0.00374339 0.02880374
v 0.14214552 0.02335416 -0.01063927
v 0.01330617 -0.14413602 -0.02500851
v 0.03785902 -0.13828124 0.00614130
v 0.07122929 -0.12667579 0.01800163
v 0.10295794 -0.11723241 0.03170674
v 0.13844628 -0.11385242 0.07550907
v 0.15613531 -0.09334799 0.12264484
v 0.18219546 -0.04837648 0.12347251
v 0.20461558 -0.00483108 0.13588926
v 0.17296203 -0.01404848 0.06831625
v 0.15048098 -0.03225374 0.01246943
v 0.14641233 -0.01209043 -0.02579911
v 0.04048217 -0.14163695 -0.02217394
v 0.05787493 -0.13282057 0.00354050
v 0.08630658 -0.11803606 -0.00504377
v 0.10875315 -0.10131669 0.00997770
v 0.13849977 -0.09515464 0.05001494
v 0.16066704 -0.08087719 0.09840947
v 0.17939737 -0.03158908 0.10142776
v 0.15455329 -0.04972536 0.04588833
v 0.13576265 -0.06323277 -0.00389870
v 0.06577294 -0.13188413 -0.01715748
v 0.09653044 -0.10805577 -0.03523929
v 0.11621082 -0.08841861 -0.02073190
v 0.13483582 -0.07873481 0.02725743
v 0.15957805 -0.06436011 0.07298228
v -0.00673554 -0.06391879 0.25763601
v -0.00759104 -0.06811831 0.24020886
v -0.01798984 -0.06405897 0.25910676
v -0.06258255 -0.02822487 0.28798041
v -0.00904546 0.04582699 0.30355248
v -0.00838176 -0.07684097 0.22461730
v -0.02088540 -0.06855779 0.24239284
v -0.02756399 -0.06149515 0.26086283
v -0.05877084 -0.03685517 0.28064492
v -0.07605518 -0.02599790 0.27647412
v -0.01143781 0.06070007 0.28150433
v -0.02599174 0.04226858 0.30322984
v -0.01018561 -0.08615727 0.20756400
v -0.02356421 -0.07646527 0.22693208
v -0.03332626 -0.06574174 0.24447617
v -0.03627614 -0.05660546 0.26356354
v -0.05282125 -0.04448472 0.27375725
v -0.07151178 -0.03592101 0.26750922
v -0.03366912 0.05900850 0.28362477
v -0.01385349 0.07378718 0.25506684
v -0.04159423 0.03711575 0.30341750
v -0.01212987 -0.09677124 0.18699491
v -0.02830080 -0.08461310 0.21011883
v -0.03924939 -0.07372200 0.23017243
v -0.04521201 -0.06077807 0.24725547
v -0.04488171 -0.05109364 0.26787913
v -0.06511474 -0.04555187 0.25860965
v -0.05402923 0.05350002 0.28669631
v -0.04070061 0.07474003 0.26032948
v -0.01686025 0.08541820 0.22195432
v -0.05590033 0.02974816 0.30389974
v -0.01407716 -0.10681419 0.16199851
v -0.03379427 -0.09473744 0.19011512
v -0.05430580 -0.06882568 0.23456812
v -0.05602777 -0.05430382 0.25190827
v -0.07223805 0.04400404 0.29026335
v -0.06649225 0.07079421 0.26775301
v -0.04952508 0.08934850 0.22917491
v -0.02030858 0.09593615 0.18088165
v -0.06747998 0.01968458 0.30272630
v -0.01519664 -0.11706603 0.13643831
v -0.03927255 -0.10679970 0.16640106
v -0.06783623 -0.06216495 0.24091348
v -0.08702361 0.03056291 0.29279497
v -0.09000291 0.05977259 0.27563769
v -0.08167306 0.08792202 0.24054587
v -0.05953216 0.10414982 0.18914667
v -0.02241685 0.10300852 0.13159844
v -0.01628609 -0.12657121 0.11039168
v -0.04339722 -0.12014956 0.14183396
v -0.09907720 0.10157609 0.20141658
v -0.06830617 0.11259277 0.13786006
v -0.02236022 0.10031310 0.07651222
v -0.01743445 -0.13257633 0.08419359
v -0.04743390 -0.13377437 0.11549011
v -0.11499760 0.10462738 0.15061894
v -0.07812424 0.10251695 0.07922953
v -0.02130965 0.09133988 0.02454491
v -0.01755044 -0.13404473 0.05852038
v -0.05132388 -0.14347429 0.08613828
v -0.08245582 -0.13151557 0.12456319
v -0.13116811 0.08880450 0.09546959
v -0.07508990 0.09009548 0.02075730
v -0.01559492 -0.13551522 0.03378823
v -0.05188608 -0.14050824 0.05609140
v -0.09428597 -0.14316473 0.09330040
v -0.15209653 0.05061366 0.05193326
v -0.12253854 0.06266338 0.00768515
v -0.01435829 -0.14002497 0.00661419
v -0.04483707 -0.13391938 0.03079715
v -0.10064178 -0.13741609 0.05754906
v -0.13031399 -0.12140712 0.10626370
v -0.20725418 -0.02312924 0.14884117
v -0.18378457 0.03236739 0.09506902
v -0.15680900 0.00525422 0.02861039
v -0.14201214 0.02428797 -0.01074086
v -0.01440267 -0.14402958 -0.02501960
v -0.03976050 -0.13774971 0.00608622
v -0.07316294 -0.12562263 0.01789644
v -0.10480098 -0.11583931 0.03157505
v -0.14027720 -0.11231794 0.07537821
v -0.15769827 -0.09205962 0.12253794
v -0.18344731 -0.04704917 0.12331691
v -0.20572058 -0.00373053 0.13568029
v -0.17372593 -0.01243324 0.06808668
v -0.15097403 -0.03085935 0.01230377
v -0.14646999 -0.01127581 -0.02588375
v -0.04165901 -0.14129243 -0.02220958
v -0.05966489 -0.13202987 0.00345849
v -0.08765344 -0.11703934 -0.00514701
v -0.11007742 -0.09998647 0.00983918
v -0.14008366 -0.09349008 0.04985163
v -0.16214836 -0.07932773 0.09826168
v -0.18048219 -0.03009794 0.10122895
v -0.15553277 -0.04800354 0.04569022
v -0.13639911 -0.06204192 -0.00403050
v -0.06700581 -0.13125795 -0.01722234
v -0.09717003 -0.10747082 -0.03529999
v -0.11689344 -0.08752486 -0.02082597
v -0.13601214 -0.07718872 0.02709018
v -0.16086149 -0.06265182 0.07279861
f 20 219 198
f 198 219 591
f 219 97 591
f 591 97 220
f 219 20 592
f 592 20 199
f 18 222 199
f 199 222 592
f 222 83 592
f 592 83 223
f 97 219 223
f 223 219 592
f 220 97 593
f 593 97 224
f 96 225 224
f 224 225 593
f 91 227 226
f 226 227 594
f 227 25 594
f 228 6 595
f 595 6 200
f 3 221 200
f 200 221 595
f 221 29 595
f 595 29 229
f 37 228 229
f 229 228 595
f 222 18 596
f 596 18 201
f 1 230 201
f 201 230 596
f 230 38 596
f 596 38 231
f 83 222 231
f 231 222 596
f 224 97 597
f 597 97 223
f 83 232 223
f 223 232 597
f 232 84 597
f 597 84 233
f 96 224 233
f 233 224 597
f 225 96 598
f 598 96 234
f 95 235 234
f 234 235 598
f 236 92 599
f 599 92 237
f 237 91 599
f 599 91 226
f 227 91 600
f 600 91 238
f 25 227 239
f 239 227 600
f 6 228 202
f 202 228 601
f 228 37 601
f 601 37 240
f 30 241 240
f 240 241 601
f 241 4 601
f 601 4 202
f 242 37 602
f 602 37 229
f 36 242 243
f 243 242 602
f 38 230 244
f 244 230 603
f 230 1 603
f 603 1 203
f 2 245 203
f 203 245 603
f 245 39 603
f 603 39 244
f 232 83 604
f 604 83 231
f 38 246 231
f 231 246 604
f 22 247 246
f 246 247 604
f 84 232 247
f 247 232 604
f 96 233 234
f 234 233 605
f 84 248 233
f 233 248 605
f 85 249 248
f 248 249 605
f 249 95 605
f 605 95 234
f 235 95 606
f 606 95 250
f 94 251 250
f 250 251 606
f 252 93 607
f 607 93 253
f 92 236 253
f 253 236 607
f 92 254 237
f 237 254 608
f 254 82 608
f 238 91 608
f 608 91 237
f 37 242 240
f 240 242 609
f 242 36 609
f 609 36 255
f 24 256 255
f 255 256 609
f 256 30 609
f 609 30 240
f 257 31 610
f 610 31 258
f 5 204 258
f 258 204 610
f 4 241 204
f 204 241 610
f 241 30 610
f 610 30 257
f 35 260 259
f 259 260 611
f 260 36 611
f 611 36 243
f 261 66 612
f 612 66 262
f 39 245 262
f 262 245 612
f 245 2 612
f 612 2 205
f 12 261 205
f 205 261 612
f 263 22 613
f 613 22 246
f 246 38 613
f 613 38 244
f 39 264 244
f 244 264 613
f 23 263 264
f 264 263 613
f 84 247 248
f 248 247 614
f 247 22 614
f 614 22 265
f 265 266 614
f 266 85 614
f 614 85 248
f 95 249 250
f 250 249 615
f 249 85 615
f 615 85 267
f 86 268 267
f 267 268 615
f 268 94 615
f 615 94 250
f 251 94 616
f 616 94 269
f 93 252 269
f 269 252 616
f 93 270 253
f 253 270 617
f 270 87 617
f 617 87 271
f 82 254 271
f 271 254 617
f 254 92 617
f 617 92 253
f 260 35 618
f 618 35 272
f 27 273 272
f 272 273 618
f 273 24 618
f 618 24 255
f 36 260 255
f 255 260 618
f 274 31 619
f 619 31 257
f 30 256 257
f 257 256 619
f 256 24 619
f 619 24 275
f 26 274 275
f 275 274 619
f 258 31 620
f 620 31 276
f 58 277 276
f 276 277 620
f 15 206 277
f 277 206 620
f 206 5 620
f 620 5 258
f 278 35 621
f 621 35 259
f 34 278 279
f 279 278 621
f 280 68 622
f 622 68 281
f 66 261 281
f 281 261 622
f 261 12 622
f 622 12 207
f 16 280 207
f 207 280 622
f 66 282 262
f 262 282 623
f 47 283 282
f 282 283 623
f 283 23 623
f 623 23 264
f 264 39 623
f 623 39 262
f 85 266 267
f 267 266 624
f 284 86 624
f 624 86 267
f 94 268 269
f 269 268 625
f 268 86 625
f 625 86 285
f 87 270 285
f 285 270 625
f 270 93 625
f 625 93 269
f 35 278 272
f 272 278 626
f 278 34 626
f 626 34 287
f 32 288 287
f 287 288 626
f 288 27 626
f 626 27 272
f 28 290 289
f 289 290 627
f 290 26 627
f 627 26 275
f 24 273 275
f 275 273 627
f 273 27 627
f 627 27 289
f 67 292 291
f 291 292 628
f 292 58 628
f 628 58 276
f 31 274 276
f 276 274 628
f 274 26 628
f 628 26 291
f 277 58 629
f 629 58 293
f 99 294 293
f 293 294 629
f 294 21 629
f 629 21 208
f 208 15 629
f 629 15 277
f 295 34 630
f 630 34 279
f 33 295 286
f 286 295 630
f 296 65 631
f 631 65 297
f 68 280 297
f 297 280 631
f 280 16 631
f 631 16 209
f 13 296 209
f 209 296 631
f 68 298 281
f 281 298 632
f 69 299 298
f 298 299 632
f 299 47 632
f 632 47 282
f 282 66 632
f 632 66 281
f 86 284 285
f 285 284 633
f 633 87 285
f 34 295 287
f 287 295 634
f 295 33 634
f 635 28 289
f 27 288 289
f 289 288 635
f 288 32 635
f 70 301 300
f 300 301 636
f 301 67 636
f 636 67 291
f 26 290 291
f 291 290 636
f 290 28 636
f 636 28 300
f 98 303 302
f 302 303 637
f 303 99 637
f 637 99 293
f 58 292 293
f 293 292 637
f 292 67 637
f 637 67 302
f 294 99 638
f 638 99 304
f 89 305 304
f 304 305 638
f 19 210 305
f 305 210 638
f 210 21 638
f 638 21 294
f 306 65 639
f 639 65 296
f 13 211 296
f 296 211 639
f 211 14 639
f 639 14 307
f 64 306 307
f 307 306 639
f 298 68 640
f 640 68 297
f 65 308 297
f 297 308 640
f 308 48 640
f 640 48 309
f 69 298 309
f 309 298 640
f 98 302 310
f 310 302 641
f 67 301 302
f 302 301 641
f 301 70 641
f 98 311 303
f 303 311 642
f 90 312 311
f 311 312 642
f 312 89 642
f 642 89 304
f 99 303 304
f 304 303 642
f 313 11 643
f 643 11 212
f 19 305 212
f 212 305 643
f 305 89 643
f 643 89 314
f 60 313 314
f 314 313 643
f 75 316 315
f 315 316 644
f 316 64 644
f 644 64 307
f 14 213 307
f 307 213 644
f 213 17 644
f 644 17 315
f 308 65 645
f 645 65 306
f 306 64 645
f 645 64 317
f 49 318 317
f 317 318 645
f 318 48 645
f 645 48 308
f 48 319 309
f 320 109 646
f 646 109 321
f 90 311 321
f 321 311 646
f 311 98 646
f 646 98 310
f 310 320 646
f 312 90 647
f 647 90 322
f 71 323 322
f 322 323 647
f 323 60 647
f 647 60 314
f 89 312 314
f 314 312 647
f 313 60 648
f 648 60 324
f 59 325 324
f 324 325 648
f 325 10 648
f 648 10 214
f 11 313 214
f 214 313 648
f 75 315 326
f 326 315 649
f 315 17 649
f 649 17 215
f 7 327 215
f 215 327 649
f 327 63 649
f 649 63 326
f 64 316 317
f 317 316 650
f 316 75 650
f 650 75 328
f 74 329 328
f 328 329 650
f 329 49 650
f 650 49 317
f 51 331 330
f 330 331 651
f 331 50 651
f 651 50 319
f 48 318 319
f 319 318 651
f 318 49 651
f 651 49 330
f 332 108 652
f 652 108 333
f 71 322 333
f 333 322 652
f 322 90 652
f 652 90 321
f 109 332 321
f 321 332 652
f 334 59 653
f 653 59 324
f 60 323 324
f 324 323 653
f 71 335 323
f 323 335 653
f 45 334 335
f 335 334 653
f 63 327 336
f 336 327 654
f 327 7 654
f 654 7 216
f 8 337 216
f 216 337 654
f 337 62 654
f 654 62 336
f 328 75 655
f 655 75 326
f 63 338 326
f 326 338 655
f 41 339 338
f 338 339 655
f 339 74 655
f 655 74 328
f 73 341 340
f 340 341 656
f 341 51 656
f 656 51 330
f 49 329 330
f 330 329 656
f 329 74 656
f 656 74 340
f 108 332 343
f 71 333 344
f 344 333 657
f 108 345 333
f 333 345 657
f 345 107 657
f 657 107 346
f 346 46 657
f 657 46 344
f 658 45 335
f 71 344 335
f 335 344 658
f 344 46 658
f 658 46 347
f 62 337 348
f 348 337 659
f 337 8 659
f 659 8 217
f 9 349 217
f 217 349 659
f 61 348 349
f 349 348 659
f 338 63 660
f 660 63 336
f 62 350 336
f 336 350 660
f 350 40 660
f 660 40 351
f 41 338 351
f 351 338 660
f 52 353 352
f 352 353 661
f 353 73 661
f 661 73 340
f 74 339 340
f 340 339 661
f 339 41 661
f 661 41 352
f 354 72 662
f 662 72 355
f 355 342 662
f 342 51 662
f 662 51 341
f 73 354 341
f 341 354 662
f 358 80 663
f 663 80 359
f 345 108 664
f 664 108 343
f 343 360 664
f 360 81 664
f 664 81 361
f 107 345 361
f 361 345 664
f 107 362 346
f 346 362 665
f 106 363 362
f 362 363 665
f 363 57 665
f 665 57 364
f 46 346 364
f 364 346 665
f 46 364 347
f 347 364 666
f 57 365 364
f 364 365 666
f 366 61 667
f 667 61 349
f 349 9 667
f 667 9 218
f 367 40 668
f 668 40 350
f 62 348 350
f 350 348 668
f 348 61 668
f 668 61 368
f 44 367 368
f 368 367 668
f 42 370 369
f 369 370 669
f 43 371 370
f 370 371 669
f 371 41 669
f 669 41 351
f 40 369 351
f 351 369 669
f 41 371 352
f 352 371 670
f 371 43 670
f 670 43 372
f 55 373 372
f 372 373 670
f 373 52 670
f 670 52 352
f 53 375 374
f 374 375 671
f 72 354 375
f 375 354 671
f 73 353 354
f 354 353 671
f 353 52 671
f 671 52 374
f 355 72 672
f 672 72 376
f 76 356 376
f 376 356 672
f 358 79 673
f 673 79 357
f 76 377 357
f 357 377 673
f 377 77 673
f 673 77 378
f 80 358 378
f 378 358 673
f 81 380 379
f 379 380 674
f 80 379 359
f 359 379 674
f 81 360 380
f 362 107 675
f 675 107 361
f 81 381 361
f 361 381 675
f 381 78 675
f 675 78 382
f 106 362 382
f 382 362 675
f 105 384 383
f 383 384 676
f 384 88 676
f 676 88 385
f 57 363 385
f 385 363 676
f 363 106 676
f 676 106 383
f 365 57 677
f 677 57 385
f 386 101 678
f 678 101 387
f 387 44 678
f 678 44 368
f 61 366 368
f 368 366 678
f 366 100 678
f 678 100 386
f 388 42 679
f 679 42 369
f 369 40 679
f 679 40 367
f 367 44 679
f 679 44 388
f 389 103 680
f 680 103 390
f 43 370 390
f 390 370 680
f 370 42 680
f 680 42 391
f 102 389 391
f 391 389 680
f 392 104 681
f 681 104 393
f 393 55 681
f 681 55 372
f 43 390 372
f 372 390 681
f 103 392 390
f 390 392 681
f 54 395 394
f 394 395 682
f 395 53 682
f 682 53 374
f 52 373 374
f 374 373 682
f 373 55 682
f 682 55 394
f 377 76 683
f 683 76 376
f 72 375 376
f 376 375 683
f 375 53 683
f 683 53 396
f 77 377 396
f 396 377 683
f 78 381 397
f 397 381 684
f 81 379 381
f 381 379 684
f 379 80 684
f 684 80 378
f 77 397 378
f 378 397 684
f 398 54 685
f 685 54 399
f 399 105 685
f 685 105 383
f 106 382 383
f 383 382 685
f 78 398 382
f 382 398 685
f 88 384 400
f 400 384 686
f 384 105 686
f 686 105 401
f 104 402 401
f 401 402 686
f 402 56 686
f 686 56 400
f 403 102 687
f 687 102 391
f 42 388 391
f 391 388 687
f 44 387 388
f 388 387 687
f 101 403 387
f 387 403 687
f 103 389 404
f 404 389 688
f 389 102 688
f 104 392 402
f 402 392 689
f 392 103 689
f 689 103 404
f 689 56 402
f 105 399 401
f 401 399 690
f 54 394 399
f 399 394 690
f 55 393 394
f 394 393 690
f 393 104 690
f 690 104 401
f 54 398 395
f 395 398 691
f 398 78 691
f 691 78 397
f 397 77 691
f 691 77 396
f 53 395 396
f 396 395 691
f 406 185 692
f 692 185 405
f 20 198 405
f 405 198 692
f 409 171 693
f 693 171 408
f 18 199 408
f 408 199 693
f 199 20 693
f 693 20 405
f 185 409 405
f 405 409 693
f 184 410 411
f 411 410 694
f 410 185 694
f 694 185 406
f 695 113 413
f 179 412 413
f 413 412 695
f 415 117 696
f 696 117 407
f 3 200 407
f 407 200 696
f 200 6 696
f 696 6 414
f 125 415 414
f 414 415 696
f 417 126 697
f 697 126 416
f 1 201 416
f 416 201 697
f 201 18 697
f 697 18 408
f 171 417 408
f 408 417 697
f 419 172 698
f 698 172 418
f 171 409 418
f 418 409 698
f 409 185 698
f 698 185 410
f 184 419 410
f 410 419 698
f 183 420 421
f 421 420 699
f 420 184 699
f 699 184 411
f 412 179 700
f 700 179 423
f 423 180 700
f 700 180 422
f 424 179 701
f 701 179 413
f 113 425 413
f 413 425 701
f 118 426 427
f 427 426 702
f 426 125 702
f 702 125 414
f 6 202 414
f 414 202 702
f 202 4 702
f 702 4 427
f 415 125 703
f 703 125 428
f 124 429 428
f 428 429 703
f 2 203 431
f 431 203 704
f 203 1 704
f 704 1 416
f 126 430 416
f 416 430 704
f 430 127 704
f 704 127 431
f 110 432 433
f 433 432 705
f 126 417 432
f 432 417 705
f 417 171 705
f 705 171 418
f 172 433 418
f 418 433 705
f 173 434 435
f 435 434 706
f 172 419 434
f 434 419 706
f 184 420 419
f 419 420 706
f 420 183 706
f 706 183 435
f 182 436 437
f 437 436 707
f 436 183 707
f 707 183 421
f 180 439 422
f 422 439 708
f 439 181 708
f 708 181 438
f 709 170 440
f 180 423 440
f 440 423 709
f 423 179 709
f 709 179 424
f 112 441 442
f 442 441 710
f 441 124 710
f 710 124 428
f 125 426 428
f 428 426 710
f 426 118 710
f 710 118 442
f 4 204 427
f 427 204 711
f 5 444 204
f 204 444 711
f 444 119 711
f 711 119 443
f 443 118 711
f 711 118 427
f 429 124 712
f 712 124 446
f 123 445 446
f 446 445 712
f 205 2 713
f 713 2 431
f 127 448 431
f 431 448 713
f 448 154 713
f 713 154 447
f 12 205 447
f 447 205 713
f 127 430 450
f 450 430 714
f 430 126 714
f 714 126 432
f 432 110 714
f 714 110 449
f 111 450 449
f 449 450 714
f 452 451 715
f 451 110 715
f 715 110 433
f 172 434 433
f 433 434 715
f 434 173 715
f 715 173 452
f 174 453 454
f 454 453 716
f 453 173 716
f 716 173 435
f 183 436 435
f 435 436 716
f 436 182 716
f 716 182 454
f 181 455 438
f 438 455 717
f 455 182 717
f 717 182 437
f 170 457 440
f 440 457 718
f 457 175 718
f 718 175 456
f 181 439 456
f 456 439 718
f 439 180 718
f 718 180 440
f 441 112 719
f 719 112 459
f 115 458 459
f 459 458 719
f 458 123 719
f 719 123 446
f 124 441 446
f 446 441 719
f 461 112 720
f 720 112 442
f 118 443 442
f 442 443 720
f 443 119 720
f 720 119 460
f 114 461 460
f 460 461 720
f 15 463 206
f 206 463 721
f 146 462 463
f 463 462 721
f 462 119 721
f 721 119 444
f 444 5 721
f 721 5 206
f 445 123 722
f 722 123 464
f 122 465 464
f 464 465 722
f 207 12 723
f 723 12 447
f 154 467 447
f 447 467 723
f 467 156 723
f 723 156 466
f 16 207 466
f 466 207 723
f 450 111 724
f 724 111 469
f 135 468 469
f 469 468 724
f 154 448 468
f 468 448 724
f 448 127 724
f 724 127 450
f 173 453 452
f 452 453 725
f 453 174 725
f 725 174 470
f 175 471 456
f 456 471 726
f 471 174 726
f 726 174 454
f 182 455 454
f 454 455 726
f 455 181 726
f 726 181 456
f 120 473 474
f 474 473 727
f 473 122 727
f 727 122 464
f 123 458 464
f 464 458 727
f 458 115 727
f 727 115 474
f 112 461 459
f 459 461 728
f 461 114 728
f 728 114 476
f 116 475 476
f 476 475 728
f 475 115 728
f 728 115 459
f 119 462 460
f 460 462 729
f 462 146 729
f 729 146 478
f 155 477 478
f 478 477 729
f 477 114 729
f 729 114 460
f 208 21 730
f 730 21 480
f 187 479 480
f 480 479 730
f 479 146 730
f 730 146 463
f 463 15 730
f 730 15 208
f 465 122 731
f 731 122 481
f 121 472 481
f 481 472 731
f 209 16 732
f 732 16 466
f 156 483 466
f 466 483 732
f 483 153 732
f 732 153 482
f 13 209 482
f 482 209 732
f 468 135 733
f 733 135 485
f 157 484 485
f 485 484 733
f 156 467 484
f 484 467 733
f 467 154 733
f 733 154 468
f 174 471 470
f 470 471 734
f 471 175 734
f 735 121 481
f 122 473 481
f 481 473 735
f 115 475 474
f 474 475 736
f 475 116 736
f 736 120 474
f 114 477 476
f 476 477 737
f 477 155 737
f 737 155 487
f 158 486 487
f 487 486 737
f 486 116 737
f 737 116 476
f 146 479 478
f 478 479 738
f 479 187 738
f 738 187 489
f 186 488 489
f 489 488 738
f 488 155 738
f 738 155 478
f 19 491 210
f 210 491 739
f 177 490 491
f 491 490 739
f 490 187 739
f 739 187 480
f 480 21 739
f 739 21 210
f 493 14 740
f 740 14 211
f 13 482 211
f 211 482 740
f 482 153 740
f 740 153 492
f 152 493 492
f 492 493 740
f 495 136 741
f 741 136 494
f 153 483 494
f 494 483 741
f 483 156 741
f 741 156 484
f 157 495 484
f 484 495 741
f 742 158 487
f 155 488 487
f 487 488 742
f 186 496 488
f 488 496 742
f 490 177 743
f 743 177 498
f 178 497 498
f 498 497 743
f 186 489 497
f 497 489 743
f 187 490 489
f 489 490 743
f 500 177 744
f 744 177 491
f 19 212 491
f 491 212 744
f 212 11 744
f 744 11 499
f 148 500 499
f 499 500 744
f 14 493 213
f 213 493 745
f 493 152 745
f 745 152 502
f 163 501 502
f 502 501 745
f 501 17 745
f 745 17 213
f 137 503 504
f 504 503 746
f 503 152 746
f 746 152 492
f 492 153 746
f 746 153 494
f 494 136 746
f 746 136 504
f 136 495 505
f 496 186 747
f 747 186 497
f 178 507 497
f 497 507 747
f 507 197 747
f 747 197 506
f 506 496 747
f 500 148 748
f 748 148 509
f 159 508 509
f 509 508 748
f 508 178 748
f 748 178 498
f 177 500 498
f 498 500 748
f 214 10 749
f 749 10 511
f 147 510 511
f 511 510 749
f 510 148 749
f 749 148 499
f 11 214 499
f 499 214 749
f 7 215 513
f 513 215 750
f 215 17 750
f 750 17 501
f 163 512 501
f 501 512 750
f 512 151 750
f 750 151 513
f 162 514 515
f 515 514 751
f 514 163 751
f 751 163 502
f 152 503 502
f 502 503 751
f 503 137 751
f 751 137 515
f 136 505 504
f 504 505 752
f 505 138 752
f 752 138 517
f 139 516 517
f 517 516 752
f 516 137 752
f 752 137 504
f 507 178 753
f 753 178 508
f 159 519 508
f 508 519 753
f 519 196 753
f 753 196 518
f 197 507 518
f 518 507 753
f 159 509 521
f 521 509 754
f 148 510 509
f 509 510 754
f 510 147 754
f 754 147 520
f 133 521 520
f 520 521 754
f 8 216 523
f 523 216 755
f 216 7 755
f 755 7 513
f 151 522 513
f 513 522 755
f 522 150 755
f 755 150 523
f 129 524 525
f 525 524 756
f 151 512 524
f 524 512 756
f 512 163 756
f 756 163 514
f 514 162 756
f 756 162 525
f 137 516 515
f 515 516 757
f 516 139 757
f 757 139 527
f 161 526 527
f 527 526 757
f 526 162 757
f 757 162 515
f 196 529 518
f 532 195 758
f 758 195 531
f 196 519 531
f 531 519 758
f 159 530 519
f 519 530 758
f 530 134 758
f 758 134 532
f 159 521 530
f 530 521 759
f 521 133 759
f 533 134 759
f 759 134 530
f 9 217 535
f 535 217 760
f 217 8 760
f 760 8 523
f 150 534 523
f 523 534 760
f 149 535 534
f 534 535 760
f 537 128 761
f 761 128 536
f 150 522 536
f 536 522 761
f 522 151 761
f 761 151 524
f 129 537 524
f 524 537 761
f 162 526 525
f 525 526 762
f 526 161 762
f 762 161 539
f 140 538 539
f 539 538 762
f 538 129 762
f 762 129 525
f 527 139 763
f 763 139 528
f 528 541 763
f 541 160 763
f 763 160 540
f 161 527 540
f 540 527 763
f 545 168 764
f 764 168 544
f 547 169 765
f 765 169 546
f 546 529 765
f 529 196 765
f 765 196 531
f 195 547 531
f 531 547 765
f 550 145 766
f 766 145 549
f 194 548 549
f 549 548 766
f 195 532 548
f 548 532 766
f 134 550 532
f 532 550 766
f 145 550 551
f 551 550 767
f 134 533 550
f 550 533 767
f 218 9 768
f 768 9 535
f 535 149 768
f 768 149 552
f 554 149 769
f 769 149 534
f 150 536 534
f 534 536 769
f 536 128 769
f 769 128 553
f 132 554 553
f 553 554 769
f 537 129 770
f 770 129 557
f 131 556 557
f 557 556 770
f 130 555 556
f 556 555 770
f 128 537 555
f 555 537 770
f 143 558 559
f 559 558 771
f 558 131 771
f 771 131 557
f 129 538 557
f 557 538 771
f 538 140 771
f 771 140 559
f 161 540 539
f 539 540 772
f 160 561 540
f 540 561 772
f 141 560 561
f 561 560 772
f 560 140 772
f 772 140 539
f 562 160 773
f 773 160 541
f 164 562 542
f 542 562 773
f 564 165 774
f 774 165 563
f 164 543 563
f 563 543 774
f 543 167 774
f 774 167 544
f 168 564 544
f 544 564 774
f 169 565 566
f 566 565 775
f 168 545 565
f 565 545 775
f 169 566 546
f 568 166 776
f 776 166 567
f 169 547 567
f 567 547 776
f 547 195 776
f 776 195 548
f 194 568 548
f 548 568 776
f 145 571 549
f 549 571 777
f 571 176 777
f 777 176 570
f 193 569 570
f 570 569 777
f 569 194 777
f 777 194 549
f 571 145 778
f 778 145 551
f 149 554 552
f 552 554 779
f 554 132 779
f 779 132 573
f 573 189 779
f 779 189 572
f 572 188 779
f 779 188 552
f 553 128 780
f 780 128 555
f 555 130 780
f 780 130 574
f 574 132 780
f 780 132 553
f 577 130 781
f 781 130 556
f 131 576 556
f 556 576 781
f 576 191 781
f 781 191 575
f 190 577 575
f 575 577 781
f 131 558 576
f 576 558 782
f 558 143 782
f 782 143 579
f 579 192 782
f 782 192 578
f 191 576 578
f 578 576 782
f 140 560 559
f 559 560 783
f 560 141 783
f 783 141 581
f 142 580 581
f 581 580 783
f 580 143 783
f 783 143 559
f 582 141 784
f 784 141 561
f 160 562 561
f 561 562 784
f 562 164 784
f 784 164 563
f 165 582 563
f 563 582 784
f 564 168 785
f 785 168 565
f 169 567 565
f 565 567 785
f 166 583 567
f 567 583 785
f 165 564 583
f 583 564 785
f 194 569 568
f 568 569 786
f 569 193 786
f 786 193 585
f 585 142 786
f 786 142 584
f 166 568 584
f 584 568 786
f 192 587 588
f 588 587 787
f 587 193 787
f 787 193 570
f 176 586 570
f 570 586 787
f 586 144 787
f 787 144 588
f 132 574 573
f 573 574 788
f 130 577 574
f 574 577 788
f 577 190 788
f 788 190 589
f 189 573 589
f 589 573 788
f 789 190 575
f 191 590 575
f 575 590 789
f 590 191 790
f 790 191 578
f 192 588 578
f 578 588 790
f 588 144 790
f 143 580 579
f 579 580 791
f 142 585 580
f 580 585 791
f 193 587 585
f 585 587 791
f 587 192 791
f 791 192 579
f 582 165 792
f 792 165 583
f 583 166 792
f 792 166 584
f 142 581 584
f 584 581 792
f 141 582 581
f 581 582 792

