# https://github.com/mikedh/trimesh
v 0.24939489 -0.02116373 -0.02189362
v 0.24689448 -0.00910600 -0.02365607
v 0.25400823 -0.03199756 0.00556695
v 0.24457675 -0.00076783 -0.02312431
v 0.25086761 -0.01867450 0.01733264
v 0.24251282 0.00867477 -0.02179566
v 0.24139780 0.01902170 -0.01723507
v 0.24222821 0.02453168 -0.00473031
v 0.24547744 0.02156251 0.01066583
v 0.24866426 -0.00475301 0.02023777
v 0.24729627 0.00853163 0.01879427
v 0.23393255 -0.02868848 0.01218325
v 0.23366451 -0.01711375 0.02127895
v 0.23280650 -0.00345651 0.02390280
v 0.23228931 0.01006206 0.02197275
v 0.23190129 0.02366963 0.01437780
v 0.22899634 0.02171192 -0.01547641
v 0.23046696 0.02739335 -0.00123715
v 0.22867477 0.01013654 -0.02073130
v 0.22891659 -0.00172945 -0.02090400
v 0.22952747 -0.01236097 -0.01869440
v 0.23071063 -0.02218201 -0.01249468
v 0.24719244 -0.03349816 -0.00979435
v 0.23217881 -0.03025392 -0.00220540
v 0.01187810 0.01379849 0.03404623
v 0.01873004 0.03182652 -0.02714768
v 0.00987193 -0.02467355 0.03941566
v 0.01097101 -0.03697586 0.02538866
v 0.02035701 -0.02404967 -0.02111322
v 0.02146581 0.00436174 -0.03973371
v 0.05625406 -0.01669089 0.04291445
v 0.05952120 -0.03281942 0.03027627
v 0.06731242 -0.02134368 -0.02066180
v 0.06682169 0.01167708 -0.03695568
v 0.06348008 0.03513745 -0.02885717
v 0.06053281 0.04588080 -0.00331548
v 0.05373275 0.02254652 0.03649992
v 0.10180330 -0.01263504 0.03974369
v 0.10341531 -0.02655291 0.02818429
v 0.10927063 -0.02069414 -0.01825863
v 0.11050731 0.01026992 -0.03379607
v 0.11006272 0.03210161 -0.02791291
v 0.10797048 0.04530585 -0.00589889
v 0.10200149 0.02525392 0.03490236
v 0.14455599 -0.00942946 0.03378093
v 0.14537650 -0.02145415 0.02449057
v 0.14906150 -0.01886702 -0.01407093
v 0.15033311 0.00731431 -0.02841869
v 0.15068394 0.02593787 -0.02528179
v 0.15038508 0.03982044 -0.00853065
v 0.14587748 0.02456061 0.02937609
v 0.01754624 -0.03159875 -0.00734225
v 0.06521851 -0.03127331 -0.00705528
v 0.10758942 -0.02945686 -0.00503361
v 0.14785391 -0.02575141 -0.00241852
v 0.01364622 -0.03785941 0.00766405
v 0.06244731 -0.03682098 0.01037732
v 0.10537022 -0.03206971 0.01160634
v 0.14654374 -0.02692803 0.01139656
v 0.18105251 -0.00635309 0.02959403
v 0.18177491 -0.01866770 0.02314606
v 0.18226445 -0.02547451 0.01177007
v 0.18298054 -0.02525801 -0.00093344
v 0.18348551 -0.01895002 -0.01169941
v 0.18426216 0.00411669 -0.02454346
v 0.18468297 0.01996072 -0.02370948
v 0.18479055 0.03377188 -0.01188996
v 0.18150663 0.02384122 0.02312294
v 0.01054481 -0.00561523 0.04139403
v 0.05415824 0.00295849 0.04343942
v 0.10106403 0.00608939 0.04198420
v 0.14461917 0.00697162 0.03630745
v 0.18076479 0.00846453 0.03021935
v 0.18364292 0.03507564 0.00726432
v 0.14842516 0.03811711 0.01344800
v 0.10468763 0.04028181 0.01802075
v 0.05610180 0.03870903 0.02104825
v 0.01305944 0.03357667 0.01953724
v 0.02257299 0.04127671 -0.00102884
v 0.00866506 0.03939051 -0.00202429
v 0.18406236 -0.00892762 -0.01948011
v 0.14996797 -0.00771278 -0.02294487
v 0.11026388 -0.00776912 -0.02824238
v 0.06799173 -0.00774249 -0.03120229
v 0.02184281 -0.01340851 -0.03264627
v 0.21043050 -0.00389751 0.02656403
v 0.20946950 0.01015257 0.02567002
v 0.20923829 0.02397206 0.01813364
v 0.21030015 0.03208878 0.00228944
v 0.21097630 0.02811615 -0.01404822
v 0.21096438 0.01546334 -0.02188042
v 0.21079767 0.00195812 -0.02186993
v 0.21081471 -0.00976388 -0.01801172
v 0.21139854 -0.01925616 -0.01090920
v 0.21196818 -0.02573265 -0.00054783
v 0.21192867 -0.02533626 0.01223874
v 0.21149856 -0.01663409 0.02213588
v -0.00924477 -0.03303261 -0.00872260
v 0.01559117 -0.03504566 -0.00021017
v -0.01365176 -0.03773201 0.00682810
v 0.01211873 -0.03879324 0.01644403
v -0.01592645 -0.03510345 0.02409950
v -0.00552225 -0.02613966 -0.02340099
v 0.01915842 -0.02787939 -0.01424414
v 0.04112953 -0.03673604 0.00918519
v 0.04375464 -0.03009092 -0.00742823
v 0.06382000 -0.03484085 0.00112846
v 0.01020756 -0.03221091 0.03350782
v -0.01454803 -0.02264028 0.03754160
v 0.06105340 -0.03643175 0.02045941
v 0.03789973 -0.03457200 0.02855575
v -0.00192916 -0.01525453 -0.03477857
v 0.02125672 -0.01938326 -0.02728033
v 0.04593459 -0.02064252 -0.02079621
v 0.06636995 -0.02676485 -0.01428872
v 0.08388174 -0.03480171 0.01121089
v 0.08646274 -0.03081325 -0.00631100
v 0.10647029 -0.03163819 0.00302342
v 0.00997752 -0.01542024 0.04211387
v -0.01001135 -0.00392696 0.04018679
v 0.05785131 -0.02589472 0.03819266
v 0.03419128 -0.01981179 0.04218143
v 0.10435528 -0.03037227 0.02019620
v 0.08145535 -0.02957257 0.02962202
v 0.00157320 0.00235507 -0.04048300
v 0.02183753 -0.00572553 -0.03712770
v 0.04627916 -0.00819241 -0.03160653
v 0.06790632 -0.01508911 -0.02630323
v 0.08832318 -0.02132320 -0.01996207
v 0.10852665 -0.02566320 -0.01216188
v 0.12646371 -0.02916943 0.01151180
v 0.12816942 -0.02748185 -0.00359476
v 0.14717954 -0.02715392 0.00441569
v 0.01135838 0.00411364 0.03828800
v -0.00510797 0.01516932 0.03220654
v 0.01232114 0.02361123 0.02852654
v -0.00292677 0.03318689 0.01835108
v 0.03147069 -0.00005640 0.04257426
v 0.05498955 -0.00680955 0.04446512
v 0.10255235 -0.02056078 0.03502610
v 0.07911140 -0.01449654 0.04195604
v 0.14594877 -0.02511452 0.01825404
v 0.12492520 -0.02373482 0.02620193
v 0.02052012 0.01732413 -0.03830323
v 0.00432512 0.02759935 -0.03073674
v 0.04378128 0.01056315 -0.03814054
v 0.06766635 0.00113589 -0.03498894
v 0.08922094 -0.00778678 -0.03031451
v 0.10987681 -0.01480635 -0.02359954
v 0.12964255 -0.01971307 -0.01603454
v 0.14847261 -0.02287947 -0.00858438
v 0.18259031 -0.02645518 0.00539008
v 0.16518021 -0.02584624 0.01148891
v 0.16612554 -0.02513402 -0.00161320
v 0.05367407 0.01273031 0.04068252
v 0.03028741 0.01985755 0.03577968
v 0.00842184 0.03783274 0.00883380
v 0.05451390 0.03156973 0.03006145
v 0.03150609 0.03757783 0.02186945
v 0.07780921 0.00492698 0.04327565
v 0.10127127 -0.00354375 0.04204613
v 0.14488715 -0.01610516 0.02978206
v 0.12379467 -0.01102915 0.03669631
v 0.18201983 -0.02297527 0.01785213
v 0.16429651 -0.01986786 0.02360052
v 0.01115185 0.03756167 -0.01393959
v 0.03878894 0.03542379 -0.02952617
v 0.06526184 0.02367110 -0.03552294
v 0.08893162 0.01136946 -0.03582945
v 0.11045778 0.00057221 -0.03184944
v 0.13070542 -0.00763206 -0.02544484
v 0.14953744 -0.01374437 -0.01887196
v 0.18324244 -0.02267913 -0.00666541
v 0.16701090 -0.01873274 -0.01272196
v 0.21200645 -0.02669837 0.00583985
v 0.19796246 -0.02557012 0.01217487
v 0.19833839 -0.02548621 -0.00060388
v 0.10127604 0.01582570 0.03970483
v 0.07823527 0.02428860 0.03625634
v 0.01993737 0.03956570 0.00995526
v 0.01505506 0.04008102 -0.00142977
v 0.10319722 0.03348134 0.02747005
v 0.08069843 0.03984879 0.01965868
v 0.05834886 0.04368774 0.00971797
v 0.03755978 0.04464589 -0.00190079
v 0.12354225 0.00656151 0.03948209
v 0.14445227 -0.00165610 0.03605652
v 0.18142736 -0.01297848 0.02710456
v 0.16356975 -0.00798702 0.03149018
v 0.21176225 -0.02182539 0.01787239
v 0.19750166 -0.01743073 0.02245733
v 0.02276379 0.03981451 -0.01340038
v 0.06211334 0.04331303 -0.01720664
v 0.08744705 0.03430545 -0.02862439
v 0.11039066 0.02125581 -0.03283304
v 0.13113958 0.00888011 -0.03105214
v 0.15019262 -0.00076445 -0.02627847
v 0.16788602 -0.00819725 -0.02095187
v 0.18378961 -0.01431603 -0.01594043
v 0.21175921 -0.02309129 -0.00618345
v 0.19831949 -0.01921123 -0.01109147
v 0.22315025 -0.02655806 0.01340032
v 0.22248375 -0.02780602 -0.00001985
v 0.23327875 -0.03114915 0.00501323
v 0.14507753 0.01599767 0.03413206
v 0.12472051 0.02507002 0.03249189
v 0.14705044 0.03201345 0.02224997
v 0.12741727 0.03953493 0.01604918
v 0.10637790 0.04481728 0.00691277
v 0.08448398 0.04627749 -0.00464392
v 0.16360921 0.00759847 0.03313163
v 0.18080294 0.00083296 0.03069797
v 0.21101141 -0.01051273 0.02505502
v 0.19660711 -0.00496540 0.02797383
v 0.23398310 -0.02353427 0.01779312
v 0.22324651 -0.01640535 0.02232206
v 0.10930920 0.04096456 -0.01842833
v 0.13127166 0.02927741 -0.02653059
v 0.15049893 0.01645253 -0.02836794
v 0.16824228 0.00568276 -0.02622801
v 0.18420935 -0.00281261 -0.02241096
v 0.19831139 -0.00945489 -0.01848540
v 0.21103525 -0.01475658 -0.01478794
v 0.22176576 -0.02065625 -0.01064208
v 0.23125255 -0.02677913 -0.00793633
v 0.24045342 -0.03226493 -0.00589803
v 0.24979097 -0.03441345 -0.00230274
v 0.24392539 -0.03074301 0.00932136
v 0.18098348 0.01636203 0.02783665
v 0.16486168 0.02408346 0.02611366
v 0.18252200 0.03027796 0.01613098
v 0.16723096 0.03651693 0.01012805
v 0.14961278 0.04107298 0.00273317
v 0.13006622 0.04306848 -0.00718313
v 0.20987672 0.00300241 0.02673152
v 0.19594812 0.00939076 0.02779102
v 0.23320758 -0.01035931 0.02329236
v 0.22245592 -0.00343421 0.02511069
v 0.25251055 -0.02571059 0.01293162
v 0.24283338 -0.01837261 0.01934972
v 0.15069610 0.03430576 -0.01835045
v 0.16868669 0.02274606 -0.02433082
v 0.18443513 0.01182727 -0.02523524
v 0.21074510 -0.00414866 -0.02032030
v 0.19842356 0.00287064 -0.02319384
v 0.22065669 -0.01141438 -0.01777363
v 0.23007858 -0.01745254 -0.01599076
v 0.24701327 -0.02874596 -0.01612422
v 0.23949504 -0.02260676 -0.01640815
v 0.25229281 -0.03424407 -0.01267624
v 0.25945091 -0.03459542 0.00001138
v 0.20920843 0.01737242 0.02300218
v 0.19623441 0.02387552 0.02048770
v 0.20961034 0.02913195 0.01103231
v 0.19793946 0.03368178 0.00458017
v 0.18438125 0.03630868 -0.00264812
v 0.16867912 0.03654175 -0.01029614
v 0.22176474 0.01025684 0.02367535
v 0.23250514 0.00323665 0.02322334
v 0.24968076 -0.01164405 0.01982048
v 0.24143422 -0.00432856 0.02207953
v 0.26149660 -0.02896954 0.00852832
v 0.25762135 -0.01732061 0.01621011
v 0.18489319 0.02781136 -0.01923394
v 0.19880641 0.01756859 -0.02296150
v 0.21084726 0.00855388 -0.02257180
v 0.22047603 -0.00016220 -0.02105209
v 0.22915345 -0.00709199 -0.02001473
v 0.23830336 -0.01158953 -0.02090389
v 0.24787384 -0.01442576 -0.02348459
v 0.23214167 0.01729357 0.01956275
v 0.22113156 0.02385064 0.01634371
v 0.23113567 0.02686029 0.00697616
v 0.22116274 0.02963430 0.00043723
v 0.21078324 0.03166690 -0.00658900
v 0.19885343 0.03099028 -0.01332036
v 0.24791360 0.00186054 0.01989326
v 0.24055636 0.00899812 0.02032977
v 0.25485963 -0.00406972 0.01883650
v 0.21097672 0.02216939 -0.01900050
v 0.22061718 0.01248412 -0.02104217
v 0.22871768 0.00407290 -0.02120027
v 0.24578536 -0.00486468 -0.02333361
v 0.23683619 -0.00197361 -0.02156350
v 0.24007922 0.02255763 0.01239198
v 0.24663049 0.01558019 0.01608634
v 0.24368137 0.02426657 0.00338411
v 0.23694628 0.02530473 -0.00335732
v 0.22945088 0.02563972 -0.00939819
v 0.22094733 0.02470782 -0.01456919
v 0.25281847 0.00894099 0.01735881
v 0.22876322 0.01615495 -0.01893532
v 0.24341941 0.00367839 -0.02271211
v 0.23592901 0.00875525 -0.02098298
v 0.25017673 0.02140287 0.00962931
v 0.24683553 0.02537787 -0.00528368
v 0.24150699 0.02259459 -0.01193047
v 0.23573858 0.01962999 -0.01650590
v 0.24178040 0.01395544 -0.02016363
v 0.24634200 0.02034457 -0.01750973
v -0.01155704 -0.03593500 -0.00121924
v -0.01524377 -0.03768387 0.01547834
v -0.00726733 -0.02987959 -0.01622871
v 0.04245725 -0.03398619 0.00035477
v -0.01567921 -0.03003827 0.03181359
v 0.03960207 -0.03732690 0.01889908
v -0.00371963 -0.02129255 -0.02970415
v 0.04497194 -0.02566830 -0.01442778
v 0.08518875 -0.03369954 0.00202963
v -0.01259944 -0.01362423 0.04045475
v 0.03601360 -0.02858454 0.03686154
v 0.08269566 -0.03343238 0.02067450
v -0.00022364 -0.00751063 -0.03849041
v 0.04641345 -0.01491997 -0.02651566
v 0.08749253 -0.02660321 -0.01360345
v 0.12731785 -0.02916333 0.00382262
v -0.00724313 0.00578582 0.03718317
v -0.00357872 0.02460847 0.02630264
v 0.03259835 -0.00988790 0.04375979
v 0.08021700 -0.02307514 0.03708678
v 0.12565506 -0.02741602 0.01913333
v 0.00372574 0.01465245 -0.03864348
v 0.04551557 0.00011105 -0.03580883
v 0.08891851 -0.01507483 -0.02549097
v 0.12896013 -0.02415669 -0.01023719
v 0.16559881 -0.02634414 0.00484383
v 0.03072488 0.00968186 0.03970298
v 0.03037131 0.02959841 0.03018373
v 0.07825685 -0.00487912 0.04391950
v 0.12428027 -0.01818617 0.03222993
v 0.16473770 -0.02367199 0.01788968
v 0.04116786 0.02302496 -0.03678676
v 0.08921385 0.00102924 -0.03404713
v 0.13023454 -0.01418095 -0.02104813
v 0.16660607 -0.02251789 -0.00745609
v 0.19812685 -0.02654687 0.00573742
v 0.07777387 0.01474888 0.04088154
v 0.01425445 0.03931030 0.00636590
v 0.07922262 0.03281297 0.02910894
v 0.03483710 0.04240105 0.01091561
v 0.12352473 -0.00264111 0.03920168
v 0.16389728 -0.01452431 0.02824682
v 0.19777495 -0.02221391 0.01780835
v 0.01584196 0.03913514 -0.00983974
v 0.03850335 0.04312032 -0.01611969
v 0.08835328 0.02303007 -0.03444880
v 0.13098747 -0.00001709 -0.02894935
v 0.16741627 -0.01385998 -0.01721212
v 0.19834739 -0.02288689 -0.00624675
v 0.22280717 -0.02852371 0.00680813
v 0.12391257 0.01601662 0.03728995
v 0.12593991 0.03302510 0.02521792
v 0.08256090 0.04478944 0.00835848
v 0.16348410 -0.00055050 0.03318217
v 0.19708204 -0.01154974 0.02588868
v 0.22334319 -0.02214584 0.01857746
v 0.08614737 0.04279004 -0.01800743
v 0.13124037 0.01901388 -0.03057837
v 0.16814744 -0.00173593 -0.02403116
v 0.19833022 -0.01469671 -0.01513758
v 0.22222430 -0.02481898 -0.00592121
v 0.24252522 -0.03306348 0.00164142
v 0.16399890 0.01604450 0.03078744
v 0.16602767 0.03112825 0.01913339
v 0.12889189 0.04335764 0.00505105
v 0.19619638 0.00206457 0.02861059
v 0.22289121 -0.01001378 0.02442273
v 0.24371767 -0.02518732 0.01545724
v 0.13088197 0.03788815 -0.01825610
v 0.16839528 0.01403731 -0.02659568
v 0.19832397 -0.00361579 -0.02121875
v 0.22115928 -0.01632574 -0.01454100
v 0.23954868 -0.02821768 -0.01205134
v 0.25489646 -0.03585953 -0.00582513
v 0.19596010 0.01686899 0.02519470
v 0.19698489 0.02972619 0.01343367
v 0.16816652 0.03863137 -0.00023112
v 0.22206700 0.00328316 0.02481315
v 0.24203378 -0.01132093 0.02158505
v 0.25940758 -0.02357525 0.01269668
v 0.16886336 0.03078475 -0.01867151
v 0.19859284 0.01001127 -0.02397832
v 0.22047001 -0.00589278 -0.01981130
v 0.23907137 -0.01700956 -0.01931852
v 0.22145450 0.01744985 0.02123207
v 0.22107267 0.02801299 0.00894362
v 0.19856399 0.03417470 -0.00490820
v 0.24096626 0.00233231 0.02164572
v 0.25621325 -0.01065615 0.01837537
v 0.19892043 0.02489137 -0.01938045
v 0.22051996 0.00602563 -0.02168745
v 0.23754960 -0.00673175 -0.02138969
v 0.24033016 0.01619845 0.01785585
v 0.23819286 0.02522392 0.00493416
v 0.22114235 0.02857149 -0.00757012
v 0.25373441 0.00234926 0.01840782
v 0.22074044 0.01889483 -0.01876906
v 0.23627591 0.00320299 -0.02161425
v 0.25174022 0.01572496 0.01471511
v 0.24835300 0.02472587 0.00250244
v 0.23611659 0.02344612 -0.01099837
v 0.23568308 0.01435260 -0.01949343
v 0.24618447 0.02371571 -0.01243618
f 52 99 98
f 98 99 301
f 99 56 301
f 301 56 100
f 56 101 100
f 100 101 302
f 101 28 302
f 302 28 102
f 29 104 103
f 103 104 303
f 104 52 303
f 303 52 98
f 56 99 105
f 105 99 304
f 99 52 304
f 304 52 106
f 53 107 106
f 106 107 304
f 107 57 304
f 304 57 105
f 27 109 108
f 108 109 305
f 28 108 102
f 102 108 305
f 101 56 306
f 306 56 105
f 57 110 105
f 105 110 306
f 110 32 306
f 306 32 111
f 28 101 111
f 111 101 306
f 85 113 112
f 112 113 307
f 113 29 307
f 307 29 103
f 52 104 106
f 106 104 308
f 104 29 308
f 308 29 114
f 33 115 114
f 114 115 308
f 115 53 308
f 308 53 106
f 57 107 116
f 116 107 309
f 107 53 309
f 309 53 117
f 54 118 117
f 117 118 309
f 118 58 309
f 309 58 116
f 69 120 119
f 119 120 310
f 109 27 310
f 310 27 119
f 108 28 311
f 311 28 111
f 32 121 111
f 111 121 311
f 121 31 311
f 311 31 122
f 27 108 122
f 122 108 311
f 110 57 312
f 312 57 116
f 58 123 116
f 116 123 312
f 123 39 312
f 312 39 124
f 32 110 124
f 124 110 312
f 30 126 125
f 125 126 313
f 126 85 313
f 313 85 112
f 113 85 314
f 314 85 127
f 127 84 314
f 314 84 128
f 128 33 314
f 314 33 114
f 29 113 114
f 114 113 314
f 53 115 117
f 117 115 315
f 115 33 315
f 315 33 129
f 40 130 129
f 129 130 315
f 130 54 315
f 315 54 117
f 58 118 131
f 131 118 316
f 118 54 316
f 316 54 132
f 55 133 132
f 132 133 316
f 133 59 316
f 316 59 131
f 120 69 317
f 317 69 134
f 25 135 134
f 134 135 317
f 135 25 318
f 318 25 136
f 78 137 136
f 136 137 318
f 138 69 319
f 319 69 119
f 27 122 119
f 119 122 319
f 31 139 122
f 122 139 319
f 70 138 139
f 139 138 319
f 121 32 320
f 320 32 124
f 39 140 124
f 124 140 320
f 140 38 320
f 320 38 141
f 31 121 141
f 141 121 320
f 123 58 321
f 321 58 131
f 59 142 131
f 131 142 321
f 142 46 321
f 321 46 143
f 39 123 143
f 143 123 321
f 144 30 322
f 322 30 125
f 26 144 145
f 145 144 322
f 127 85 323
f 323 85 126
f 30 146 126
f 126 146 323
f 146 34 323
f 323 34 147
f 84 127 147
f 147 127 323
f 84 148 128
f 128 148 324
f 148 83 324
f 324 83 149
f 40 129 149
f 149 129 324
f 33 128 129
f 129 128 324
f 54 130 132
f 132 130 325
f 130 40 325
f 325 40 150
f 47 151 150
f 150 151 325
f 151 55 325
f 325 55 132
f 152 62 326
f 326 62 153
f 59 133 153
f 153 133 326
f 133 55 326
f 326 55 154
f 63 152 154
f 154 152 326
f 69 138 134
f 134 138 327
f 138 70 327
f 327 70 155
f 37 156 155
f 155 156 327
f 156 25 327
f 327 25 134
f 78 157 137
f 156 37 328
f 328 37 158
f 77 159 158
f 158 159 328
f 159 78 328
f 328 78 136
f 25 156 136
f 136 156 328
f 160 70 329
f 329 70 139
f 139 31 329
f 329 31 141
f 38 161 141
f 141 161 329
f 71 160 161
f 161 160 329
f 140 39 330
f 330 39 143
f 46 162 143
f 143 162 330
f 162 45 330
f 330 45 163
f 38 140 163
f 163 140 330
f 142 59 331
f 331 59 153
f 62 164 153
f 153 164 331
f 164 61 331
f 331 61 165
f 46 142 165
f 165 142 331
f 26 145 166
f 26 167 144
f 144 167 332
f 167 35 332
f 332 35 168
f 34 146 168
f 168 146 332
f 146 30 332
f 332 30 144
f 148 84 333
f 333 84 147
f 34 169 147
f 147 169 333
f 169 41 333
f 333 41 170
f 83 148 170
f 170 148 333
f 83 171 149
f 149 171 334
f 171 82 334
f 334 82 172
f 47 150 172
f 172 150 334
f 150 40 334
f 334 40 149
f 173 63 335
f 335 63 154
f 55 151 154
f 154 151 335
f 151 47 335
f 335 47 174
f 174 64 335
f 335 64 173
f 175 96 336
f 336 96 176
f 62 152 176
f 176 152 336
f 152 63 336
f 336 63 177
f 95 175 177
f 177 175 336
f 70 160 155
f 155 160 337
f 160 71 337
f 337 71 178
f 44 179 178
f 178 179 337
f 179 37 337
f 337 37 155
f 157 78 338
f 338 78 180
f 180 79 338
f 338 79 181
f 181 80 338
f 338 80 157
f 179 44 339
f 339 44 182
f 76 183 182
f 182 183 339
f 183 77 339
f 339 77 158
f 37 179 158
f 158 179 339
f 78 159 180
f 180 159 340
f 159 77 340
f 340 77 184
f 36 185 184
f 184 185 340
f 185 79 340
f 340 79 180
f 186 71 341
f 341 71 161
f 161 38 341
f 341 38 163
f 45 187 163
f 163 187 341
f 72 186 187
f 187 186 341
f 162 46 342
f 342 46 165
f 61 188 165
f 165 188 342
f 188 60 342
f 342 60 189
f 45 162 189
f 189 162 342
f 164 62 343
f 343 62 176
f 96 190 176
f 176 190 343
f 190 97 343
f 343 97 191
f 61 164 191
f 191 164 343
f 166 80 344
f 344 80 181
f 181 79 344
f 344 79 192
f 26 166 192
f 192 166 344
f 79 185 192
f 192 185 345
f 185 36 345
f 345 36 193
f 35 167 193
f 193 167 345
f 26 192 167
f 167 192 345
f 35 194 168
f 168 194 346
f 194 42 346
f 346 42 195
f 41 169 195
f 195 169 346
f 169 34 346
f 346 34 168
f 171 83 347
f 347 83 170
f 41 196 170
f 170 196 347
f 196 48 347
f 347 48 197
f 82 171 197
f 197 171 347
f 82 198 172
f 172 198 348
f 81 199 198
f 198 199 348
f 199 64 348
f 348 64 174
f 174 47 348
f 348 47 172
f 200 95 349
f 349 95 177
f 63 173 177
f 177 173 349
f 173 64 349
f 349 64 201
f 201 94 349
f 349 94 200
f 96 175 202
f 202 175 350
f 175 95 350
f 350 95 203
f 24 204 203
f 203 204 350
f 204 12 350
f 350 12 202
f 71 186 178
f 178 186 351
f 186 72 351
f 351 72 205
f 51 206 205
f 205 206 351
f 206 44 351
f 351 44 178
f 206 51 352
f 352 51 207
f 75 208 207
f 207 208 352
f 208 76 352
f 352 76 182
f 44 206 182
f 182 206 352
f 77 183 184
f 184 183 353
f 183 76 353
f 353 76 209
f 43 210 209
f 209 210 353
f 210 36 353
f 353 36 184
f 72 187 211
f 211 187 354
f 187 45 354
f 354 45 189
f 60 212 189
f 189 212 354
f 212 73 354
f 354 73 211
f 188 61 355
f 355 61 191
f 97 213 191
f 191 213 355
f 213 86 355
f 355 86 214
f 60 188 214
f 214 188 355
f 190 96 356
f 356 96 202
f 12 215 202
f 202 215 356
f 215 13 356
f 356 13 216
f 97 190 216
f 216 190 356
f 42 194 217
f 217 194 357
f 194 35 357
f 357 35 193
f 36 210 193
f 193 210 357
f 210 43 357
f 357 43 217
f 42 218 195
f 195 218 358
f 218 49 358
f 358 49 219
f 48 196 219
f 219 196 358
f 196 41 358
f 358 41 195
f 198 82 359
f 359 82 197
f 48 220 197
f 197 220 359
f 220 65 359
f 359 65 221
f 81 198 221
f 221 198 359
f 81 222 199
f 199 222 360
f 222 93 360
f 360 93 223
f 94 201 223
f 223 201 360
f 64 199 201
f 201 199 360
f 203 95 361
f 361 95 200
f 94 224 200
f 200 224 361
f 224 22 361
f 361 22 225
f 24 203 225
f 225 203 361
f 204 24 362
f 362 24 226
f 23 227 226
f 226 227 362
f 227 3 362
f 362 3 228
f 12 204 228
f 228 204 362
f 72 211 205
f 205 211 363
f 211 73 363
f 363 73 229
f 68 230 229
f 229 230 363
f 230 51 363
f 363 51 205
f 230 68 364
f 364 68 231
f 74 232 231
f 231 232 364
f 232 75 364
f 364 75 207
f 51 230 207
f 207 230 364
f 76 208 209
f 209 208 365
f 208 75 365
f 365 75 233
f 50 234 233
f 233 234 365
f 234 43 365
f 365 43 209
f 235 87 366
f 366 87 236
f 73 212 236
f 236 212 366
f 212 60 366
f 366 60 214
f 86 235 214
f 214 235 366
f 213 97 367
f 367 97 216
f 13 237 216
f 216 237 367
f 237 14 367
f 367 14 238
f 86 213 238
f 238 213 367
f 215 12 368
f 368 12 228
f 3 239 228
f 228 239 368
f 239 5 368
f 368 5 240
f 13 215 240
f 240 215 368
f 49 218 241
f 241 218 369
f 218 42 369
f 369 42 217
f 43 234 217
f 217 234 369
f 234 50 369
f 369 50 241
f 49 242 219
f 219 242 370
f 242 66 370
f 370 66 243
f 65 220 243
f 243 220 370
f 220 48 370
f 370 48 219
f 93 222 244
f 244 222 371
f 222 81 371
f 371 81 221
f 65 245 221
f 221 245 371
f 245 92 371
f 371 92 244
f 93 246 223
f 223 246 372
f 246 21 372
f 372 21 247
f 22 224 247
f 247 224 372
f 224 94 372
f 372 94 223
f 248 23 373
f 373 23 226
f 24 225 226
f 226 225 373
f 225 22 373
f 373 22 249
f 1 248 249
f 249 248 373
f 227 23 374
f 374 23 250
f 3 227 251
f 251 227 374
f 229 73 375
f 375 73 236
f 87 252 236
f 236 252 375
f 88 253 252
f 252 253 375
f 253 68 375
f 375 68 229
f 253 88 376
f 376 88 254
f 89 255 254
f 254 255 376
f 255 74 376
f 376 74 231
f 68 253 231
f 231 253 376
f 75 232 233
f 233 232 377
f 232 74 377
f 377 74 256
f 67 257 256
f 256 257 377
f 257 50 377
f 377 50 233
f 87 235 258
f 258 235 378
f 235 86 378
f 378 86 238
f 14 259 238
f 238 259 378
f 259 15 378
f 378 15 258
f 237 13 379
f 379 13 240
f 5 260 240
f 240 260 379
f 260 10 379
f 379 10 261
f 14 237 261
f 261 237 379
f 5 239 263
f 263 239 380
f 3 262 239
f 239 262 380
f 66 242 264
f 264 242 381
f 242 49 381
f 381 49 241
f 50 257 241
f 241 257 381
f 257 67 381
f 381 67 264
f 66 265 243
f 243 265 382
f 265 91 382
f 382 91 266
f 92 245 266
f 266 245 382
f 245 65 382
f 382 65 243
f 246 93 383
f 383 93 244
f 92 267 244
f 244 267 383
f 267 20 383
f 383 20 268
f 21 246 268
f 268 246 383
f 247 21 384
f 384 21 269
f 2 270 269
f 269 270 384
f 270 1 384
f 384 1 249
f 22 247 249
f 249 247 384
f 23 248 250
f 3 251 262
f 252 87 385
f 385 87 258
f 15 271 258
f 258 271 385
f 271 16 385
f 385 16 272
f 88 252 272
f 272 252 385
f 88 272 254
f 254 272 386
f 16 273 272
f 272 273 386
f 18 274 273
f 273 274 386
f 274 89 386
f 386 89 254
f 74 255 256
f 256 255 387
f 255 89 387
f 387 89 275
f 90 276 275
f 275 276 387
f 276 67 387
f 387 67 256
f 259 14 388
f 388 14 261
f 10 277 261
f 261 277 388
f 277 11 388
f 388 11 278
f 15 259 278
f 278 259 388
f 10 260 279
f 279 260 389
f 260 5 389
f 389 5 263
f 91 265 280
f 280 265 390
f 265 66 390
f 390 66 264
f 67 276 264
f 264 276 390
f 276 90 390
f 390 90 280
f 91 281 266
f 266 281 391
f 281 19 391
f 391 19 282
f 20 267 282
f 282 267 391
f 267 92 391
f 391 92 266
f 283 2 392
f 392 2 269
f 21 268 269
f 269 268 392
f 20 284 268
f 268 284 392
f 284 4 392
f 392 4 283
f 285 16 393
f 393 16 271
f 271 15 393
f 393 15 278
f 11 286 278
f 278 286 393
f 9 285 286
f 286 285 393
f 9 287 285
f 285 287 394
f 8 288 287
f 287 288 394
f 288 18 394
f 394 18 273
f 273 16 394
f 394 16 285
f 89 274 275
f 275 274 395
f 274 18 395
f 395 18 289
f 17 290 289
f 289 290 395
f 290 90 395
f 395 90 275
f 11 277 291
f 291 277 396
f 277 10 396
f 396 10 279
f 281 91 397
f 397 91 280
f 90 290 280
f 280 290 397
f 290 17 397
f 397 17 292
f 19 281 292
f 292 281 397
f 4 284 293
f 293 284 398
f 284 20 398
f 398 20 282
f 19 294 282
f 282 294 398
f 294 6 398
f 398 6 293
f 295 9 399
f 399 9 286
f 11 291 286
f 286 291 399
f 296 8 400
f 400 8 287
f 9 295 287
f 287 295 400
f 7 298 297
f 297 298 401
f 298 17 401
f 401 17 289
f 18 288 289
f 289 288 401
f 288 8 401
f 401 8 297
f 298 7 402
f 402 7 299
f 6 294 299
f 299 294 402
f 294 19 402
f 402 19 292
f 17 298 292
f 292 298 402
f 300 7 403
f 403 7 297
f 8 296 297
f 297 296 403
f 7 300 299

