# https://github.com/mikedh/trimesh
v -0.11249237 0.07223896 -0.08954933
v -0.11253021 0.02330796 -0.09690725
v -0.11256509 -0.02575502 -0.09602531
v -0.03902750 0.13441031 -0.06720496
v -0.05484801 0.09146396 -0.11973592
v 0.01276878 0.11959724 -0.05624720
v 0.00641389 0.10149110 -0.11172477
v 0.04363088 0.09021530 -0.03951316
v 0.04686319 0.08307718 -0.09017897
v 0.06028382 0.05921928 -0.01583137
v 0.06916974 0.05127134 -0.06517910
v -0.05022458 -0.08154047 -0.08767214
v -0.06508872 -0.09014706 -0.03029074
v -0.09116653 -0.06117744 -0.08238354
v -0.08500771 -0.05686068 -0.11618946
v -0.00691601 -0.08752489 -0.06257624
v -0.01849895 -0.08468268 -0.00372179
v 0.06490738 -0.03768750 -0.03713235
v 0.05200527 -0.03920071 0.03271695
v 0.07601830 0.00911346 -0.04421022
v 0.06538098 0.01646038 0.03130226
v 0.03464779 -0.07412327 -0.04513059
v 0.01888143 -0.07059037 0.01844010
v -0.09510887 0.07889132 -0.10002431
v -0.08890331 0.12729997 -0.06744980
v -0.10471472 0.02777339 -0.10990510
v -0.10004103 0.04063730 -0.13486368
v 0.00080232 0.09204447 -0.15708486
v -0.05287656 0.08533025 -0.16769693
v 0.04355169 0.07620159 -0.13964079
v 0.06980564 0.04694052 -0.11923204
v -0.08119249 -0.05088392 -0.16137222
v -0.04361943 -0.08015900 -0.14325849
v 0.00158104 -0.09053726 -0.12281749
v 0.04358097 -0.07185963 -0.10682223
v 0.06931155 -0.03359329 -0.09925709
v 0.07818825 0.00882819 -0.10347448
v -0.09347971 0.04791216 -0.17306489
v -0.00293197 0.08896084 -0.20098237
v -0.05058145 0.08230084 -0.21084807
v 0.03712002 0.07266782 -0.18788365
v 0.06222443 0.04587854 -0.17391840
v -0.07422612 -0.04346468 -0.21080867
v -0.03865370 -0.07614116 -0.19968862
v 0.00693342 -0.08594116 -0.18528406
v 0.04701588 -0.06555196 -0.17169390
v 0.06818325 -0.02719397 -0.16395060
v 0.07273319 0.01173078 -0.16465036
v -0.08517489 0.04855795 -0.21572975
v -0.00521494 0.07418133 -0.33487404
v 0.02263554 0.06418592 -0.33090050
v 0.04118601 0.04509832 -0.32854436
v 0.05068817 0.02111657 -0.32860459
v 0.04879478 -0.00670172 -0.33239073
v 0.03389760 -0.03577247 -0.33891044
v 0.00749705 -0.05641191 -0.34632782
v -0.02914118 -0.05302402 -0.35218901
v -0.05876656 -0.02150173 -0.35292659
v -0.06639594 0.04663612 -0.34600467
v -0.03895450 0.06871809 -0.34025974
v -0.00525644 0.07982373 -0.29274157
v 0.02680036 0.06766319 -0.28633026
v 0.04693531 0.04493266 -0.28168047
v 0.05552252 0.01717056 -0.28019813
v 0.05492762 -0.01390911 -0.28316692
v 0.03934456 -0.04610544 -0.28995404
v 0.00739713 -0.06413982 -0.29771314
v -0.03186327 -0.06135367 -0.30491275
v -0.06474757 -0.03015109 -0.30796356
v -0.07025636 0.04541907 -0.30397779
v -0.04253457 0.07226334 -0.29903481
v -0.00431143 0.08589219 -0.24697313
v 0.03168287 0.07079978 -0.23747391
v 0.05355933 0.04475873 -0.22885988
v 0.06324770 0.01378757 -0.22464750
v 0.06185492 -0.02102216 -0.22639100
v 0.04439761 -0.05630691 -0.23382161
v 0.00839762 -0.07575972 -0.24423710
v -0.03476229 -0.06952993 -0.25411252
v -0.06915832 -0.03672529 -0.26015160
v -0.07629139 0.04686218 -0.25990931
v -0.04649585 0.07798460 -0.25502179
v -0.00309075 0.07404928 -0.37631113
v 0.02248045 0.06615849 -0.37302537
v 0.03915008 0.04925661 -0.37216870
v 0.05041138 0.02933664 -0.37283055
v 0.04796537 0.00401069 -0.37617633
v 0.03379264 -0.02416416 -0.38178224
v 0.01055219 -0.04755252 -0.38899557
v -0.02602640 -0.04267207 -0.39361734
v -0.05263707 -0.00995792 -0.39298633
v -0.06024406 0.05018046 -0.38868592
v -0.03329217 0.06798937 -0.38227422
v -0.06819029 0.02079774 -0.39256821
v -0.07376207 0.01365534 -0.35053388
v -0.07807199 0.00857630 -0.30672053
v -0.08377100 0.00506172 -0.26137648
v -0.09254048 0.00131454 -0.21581683
v -0.10082623 -0.00461388 -0.17130706
v -0.10451021 -0.01410481 -0.13228222
v -0.10360259 -0.02172668 -0.10517720
v -0.11251385 0.04707339 -0.09410908
v -0.11254744 -0.00172710 -0.09781482
v -0.11258281 -0.04854712 -0.09024038
v -0.08377411 0.14392982 -0.03864624
v -0.03327072 0.14498820 -0.03240702
v -0.06611854 0.13216957 -0.06891715
v -0.09282720 0.10446663 -0.08788722
v -0.10659158 0.07499628 -0.09268201
v 0.01370510 0.12237702 -0.02307210
v -0.01116700 0.13040797 -0.06280852
v -0.07790960 0.08412557 -0.10754924
v -0.04490675 0.11474420 -0.09532227
v -0.09949282 0.05356177 -0.10659691
v -0.10646747 0.02446055 -0.10111637
v 0.04111751 0.09148941 -0.01372175
v 0.03058700 0.10537821 -0.04846027
v -0.02105981 0.10212605 -0.11804015
v 0.00979383 0.11104292 -0.08612113
v -0.08281331 0.06781347 -0.13089339
v -0.10262847 0.03384449 -0.12109358
v -0.10600684 -0.02432342 -0.09744021
v -0.10553247 0.00187366 -0.10929330
v 0.06202471 -0.01487760 0.03457298
v 0.06462621 0.04114887 0.00219386
v 0.05534296 0.06410938 0.00369272
v 0.05319379 0.07501697 -0.02907860
v 0.04565150 0.08706083 -0.06506055
v 0.02892780 0.09457194 -0.10210530
v 0.00336942 0.09525491 -0.13503978
v -0.02557121 0.09246953 -0.16321353
v -0.05316130 0.08732127 -0.14554995
v -0.07693516 0.07014349 -0.17118625
v -0.09702050 0.04560798 -0.15288863
v -0.10396323 -0.01844817 -0.11720789
v -0.10592019 0.01225103 -0.13520884
v -0.10033365 -0.06837522 -0.07876415
v -0.09854715 -0.04272751 -0.09641441
v -0.08152567 -0.07816636 -0.06208228
v -0.03916327 -0.08776288 -0.01568252
v 0.03669965 -0.05792269 0.02693579
v 0.05975708 -0.03879055 -0.00254194
v 0.07287521 -0.01467797 -0.03885797
v 0.07185150 0.01129368 -0.01148070
v 0.07458354 0.03144745 -0.05346651
v 0.06523999 0.05474824 -0.03981996
v 0.06013174 0.06836461 -0.07747290
v 0.04586188 0.07919667 -0.11527937
v 0.02407258 0.08617112 -0.14909170
v -0.00133494 0.09009788 -0.17879275
v -0.02688397 0.08930753 -0.20637388
v -0.05199775 0.08391165 -0.18931154
v -0.07107569 0.06836845 -0.21399818
v -0.08972049 0.04852663 -0.19415311
v -0.10344133 -0.00945669 -0.15057621
v -0.10107220 0.02202443 -0.17297659
v -0.08671217 -0.05811320 -0.09709611
v -0.09741323 -0.03750368 -0.12597942
v -0.06906394 -0.07134512 -0.10283732
v -0.05555708 -0.08175961 -0.06022973
v -0.02875870 -0.08677625 -0.07379318
v -0.01253938 -0.08500920 -0.03306988
v 0.00045312 -0.07892813 0.00791209
v 0.02729467 -0.07283217 -0.01317278
v 0.05188396 -0.05817949 -0.03962928
v 0.06753614 -0.03597776 -0.06864985
v 0.07595538 -0.01222810 -0.09975550
v 0.07793256 0.00846993 -0.07389087
v 0.07620732 0.02867515 -0.11025646
v 0.07074773 0.04854472 -0.09181953
v 0.05891762 0.06306141 -0.12939530
v 0.04038846 0.07418799 -0.16372859
v 0.01881845 0.08276284 -0.19475979
v -0.00380069 0.08771879 -0.22376261
v -0.02580834 0.08514537 -0.25124333
v -0.04865883 0.08039393 -0.23279325
v -0.06419182 0.06490902 -0.25801752
v -0.08053697 0.04800131 -0.23767755
v -0.09704084 -0.00131601 -0.19333521
v -0.09207540 0.02574591 -0.21626807
v -0.08346953 -0.05462032 -0.13778878
v -0.09402394 -0.02942065 -0.16755442
v -0.06383453 -0.06765348 -0.15306429
v -0.04626981 -0.08151814 -0.11525407
v -0.02143195 -0.08850263 -0.13286289
v -0.00240677 -0.08990688 -0.09215050
v 0.01442068 -0.08402902 -0.05294732
v 0.03988367 -0.07371148 -0.07594820
v 0.05836440 -0.05397890 -0.10175148
v 0.06963851 -0.03050322 -0.13154433
v 0.07239547 -0.00735531 -0.16312026
v 0.07640465 0.01020767 -0.13402287
v 0.06934073 0.02957900 -0.16840623
v 0.06662530 0.04641461 -0.14667545
v 0.05146521 0.06028886 -0.18067334
v 0.03414208 0.07166778 -0.21252684
v 0.01530019 0.08062651 -0.24225257
v -0.00478867 0.08327500 -0.27009089
v -0.02390310 0.07815170 -0.29596589
v -0.04443501 0.07515492 -0.27717704
v -0.05866906 0.06095830 -0.30177126
v -0.07288143 0.04580767 -0.28213993
v -0.08794903 0.00336966 -0.23851157
v -0.08300543 0.02650820 -0.26092551
v -0.07774653 -0.04742133 -0.18604306
v -0.08639358 -0.02213290 -0.21413878
v -0.05800677 -0.06171860 -0.20581839
v -0.04127084 -0.07847009 -0.17146990
v -0.01617735 -0.08481766 -0.19267265
v 0.00464084 -0.08905897 -0.15423175
v 0.02411605 -0.08492212 -0.11399219
v 0.04606416 -0.06899085 -0.13911756
v 0.05975392 -0.04695602 -0.16692310
v 0.06519029 -0.02433120 -0.19568027
v 0.06415337 -0.00317541 -0.22476584
v 0.06792536 0.01263903 -0.19494257
v 0.05969087 0.02971476 -0.22602934
v 0.05761976 0.04511605 -0.20141587
v 0.04433454 0.05864661 -0.23275147
v 0.02938394 0.06952756 -0.26225353
v 0.01217014 0.07604072 -0.28954036
v -0.00553474 0.07638539 -0.31445772
v -0.02178279 0.07285805 -0.33739770
v -0.04085319 0.07005443 -0.32003555
v -0.05472439 0.05993939 -0.34339694
v -0.06823526 0.04573390 -0.32523767
v -0.07682161 0.02767969 -0.30548532
v -0.08049541 0.00663229 -0.28413323
v -0.07143867 -0.03984668 -0.23539213
v -0.07889463 -0.01620911 -0.26117042
v -0.05434836 -0.05571826 -0.25780461
v -0.03649937 -0.07311941 -0.22725634
v -0.01322999 -0.07595679 -0.24946780
v 0.00808396 -0.08116936 -0.21533290
v 0.02873152 -0.07927084 -0.17804400
v 0.04624068 -0.06119255 -0.20341174
v 0.05543231 -0.03922473 -0.22951279
v 0.05845877 -0.01745912 -0.25571994
v 0.05647012 0.00203150 -0.28109986
v 0.05903854 0.01534477 -0.25318358
v 0.05255336 0.03150373 -0.28046475
v 0.05014855 0.04477097 -0.25572754
v 0.03837394 0.05714117 -0.28368721
v 0.02430030 0.06559939 -0.30937392
v 0.01002249 0.07139221 -0.33271185
v -0.00429872 0.07359212 -0.35578553
v -0.01797309 0.07177265 -0.37899236
v -0.03653480 0.06838552 -0.36129005
v -0.04863507 0.06129468 -0.38580755
v -0.06380327 0.04879917 -0.36750118
v -0.07301541 0.03107002 -0.34849641
v -0.07597540 0.01070743 -0.32881651
v -0.07376528 -0.01098203 -0.30765230
v -0.06713406 -0.03366703 -0.28438631
v -0.05070839 -0.04849302 -0.30719955
v -0.03328853 -0.06569455 -0.28006236
v -0.01169588 -0.06608473 -0.30156506
v 0.00802778 -0.06972319 -0.27164052
v 0.02823547 -0.06907019 -0.23886470
v 0.04223467 -0.05123085 -0.26274470
v 0.04975999 -0.03047664 -0.28620497
v 0.05171221 -0.01048444 -0.30869818
v 0.05104186 0.00753782 -0.33004463
v 0.05272115 0.01900814 -0.30538196
v 0.04755206 0.03383711 -0.32814384
v 0.04382546 0.04498360 -0.30606953
v 0.03259674 0.05498060 -0.32949070
v 0.02220296 0.06457685 -0.35234491
v 0.01077030 0.07210963 -0.37430773
v -0.00162811 0.07535378 -0.39879421
v -0.03017659 0.06725697 -0.40439720
v -0.05573053 0.04975941 -0.40997038
v -0.07133097 0.01767061 -0.37188769
v -0.06701542 0.03632934 -0.39094246
v -0.06821231 -0.00384069 -0.35192797
v -0.06175599 -0.02628826 -0.33087698
v -0.04605456 -0.03944312 -0.35336275
v -0.03050753 -0.05725219 -0.32893989
v -0.01032665 -0.05862927 -0.34960873
v 0.00714294 -0.05961893 -0.32250551
v 0.02456561 -0.05759935 -0.29378087
v 0.03612629 -0.04089207 -0.31526688
v 0.04292523 -0.02130181 -0.33548359
v 0.04761022 -0.00124225 -0.35495267
v 0.05119959 0.01707609 -0.37416983
v 0.05024233 0.02496320 -0.35119740
v 0.04614029 0.04014583 -0.37224136
v 0.03972938 0.04680320 -0.35080544
v 0.03132632 0.05775341 -0.37239272
v 0.02348999 0.06881717 -0.39592550
v -0.06346532 0.02271190 -0.41259719
v -0.05554361 -0.01518514 -0.37339581
v -0.06324363 0.00507706 -0.39315728
v -0.03915618 -0.02550628 -0.39300711
v -0.02688708 -0.04722308 -0.37323496
v -0.00714990 -0.05019869 -0.39207143
v 0.00877435 -0.05182124 -0.36837903
v 0.02186548 -0.04794186 -0.34249703
v 0.03345429 -0.02944653 -0.36096705
v 0.04126575 -0.00958747 -0.37864120
v 0.04859100 0.00774732 -0.39740989
v 0.05086526 0.03282088 -0.39544923
v 0.03992539 0.05228204 -0.39521227
v -0.04976764 -0.00633126 -0.41244224
v -0.02348876 -0.03575200 -0.41211487
v 0.01086958 -0.04180611 -0.40793283
v 0.02467435 -0.03837246 -0.38551480
v 0.03496607 -0.02052891 -0.40148944
v -0.06024162 0.14685449 -0.03657991
v -0.10684998 0.09933165 -0.08089656
v -0.00741956 0.13622243 -0.02768439
v -0.07155812 0.10961458 -0.09287409
v -0.10589113 0.04945748 -0.09844158
v 0.02959045 0.10678356 -0.01869100
v -0.01610062 0.11639230 -0.09306473
v -0.09089354 0.06068428 -0.11678778
v -0.10665187 -0.00062127 -0.10055543
v 0.04952335 0.07731657 -0.00696211
v 0.03007991 0.10053358 -0.07641458
v -0.02401449 0.09556158 -0.14139428
v -0.07932027 0.07021769 -0.15017211
v -0.10581988 0.00637989 -0.12105123
v -0.10395717 -0.04658983 -0.09039096
v -0.09529738 -0.08769795 -0.05622212
v 0.06850543 -0.01465304 -0.00384273
v 0.07033522 0.03484245 -0.02523843
v 0.05701818 0.07169339 -0.05287214
v 0.02655097 0.08924738 -0.12607188
v -0.02644195 0.09073359 -0.18463919
v -0.07426363 0.06931712 -0.19254289
v -0.10425857 0.01766855 -0.15293505
v -0.09725042 -0.04013529 -0.10936259
v -0.07306190 -0.07202895 -0.07994316
v -0.03386588 -0.08599970 -0.04477546
v 0.04544253 -0.05885283 -0.00619690
v 0.07511579 -0.01380253 -0.06944538
v 0.07647959 0.02937752 -0.08162840
v 0.06062537 0.06537967 -0.10344208
v 0.02133761 0.08404065 -0.17181370
v -0.02656767 0.08758709 -0.22863487
v -0.06758444 0.06695289 -0.23584078
v -0.09683871 0.02424746 -0.19432471
v -0.09637742 -0.03394471 -0.14562980
v -0.06630190 -0.07035448 -0.12745202
v -0.02465265 -0.08802199 -0.10293379
v 0.00770309 -0.08114809 -0.02255053
v 0.05566069 -0.05637067 -0.07097118
v 0.07512067 -0.00986897 -0.13134030
v 0.07362186 0.02912480 -0.13937930
v 0.05552059 0.06157450 -0.15506092
v 0.01687243 0.08178462 -0.21827770
v -0.02485508 0.08192015 -0.27388177
v -0.06118306 0.06271255 -0.28014443
v -0.08720924 0.02623947 -0.23848224
v -0.09047663 -0.02560470 -0.19072232
v -0.06075757 -0.06469466 -0.17940805
v -0.01877431 -0.08743506 -0.16290509
v 0.01978207 -0.08560538 -0.08313886
v 0.06006285 -0.05074844 -0.13422666
v 0.06835235 -0.00543051 -0.19435424
v 0.06440977 0.02950751 -0.19737247
v 0.04763783 0.05929840 -0.20664374
v 0.01374542 0.07864214 -0.26616881
v -0.02303917 0.07498616 -0.31712980
v -0.05668921 0.05997894 -0.32285783
v -0.07958394 0.02684260 -0.28334776
v -0.08237051 -0.01898467 -0.23759086
v -0.05607276 -0.05880203 -0.23185531
v -0.01446650 -0.08087283 -0.22162852
v 0.02719335 -0.08267198 -0.14613149
v 0.05794045 -0.04332634 -0.19878197
v 0.06020782 -0.00059904 -0.25382195
v 0.05583351 0.03046955 -0.25387151
v 0.04139201 0.05797250 -0.25854880
v 0.01071280 0.07324895 -0.31177799
v -0.02004956 0.07202407 -0.35822845
v -0.05213825 0.06075163 -0.36456610
v -0.07473764 0.02904117 -0.32713131
v -0.07621378 -0.01369813 -0.28455500
v -0.05268030 -0.05240125 -0.28293989
v -0.01232715 -0.07088864 -0.27608583
v 0.02896588 -0.07455391 -0.20908395
v 0.05272643 -0.03477557 -0.25876699
v 0.05331957 0.00465692 -0.30651710
v 0.04973740 0.03254848 -0.30529911
v 0.03513751 0.05593053 -0.30747712
v 0.01019292 0.07115093 -0.35379065
v -0.01590340 0.07245892 -0.40139187
v -0.04468469 0.06032368 -0.40756632
v -0.07055037 0.03414868 -0.36994845
v -0.07104006 -0.00797883 -0.33015765
v -0.04835417 -0.04420006 -0.33063225
v -0.01102622 -0.06197486 -0.32600806
v 0.02669235 -0.06338604 -0.26713560
v 0.04626154 -0.02607860 -0.31174610
v 0.05052388 0.01217832 -0.35268081
v 0.04656174 0.03669639 -0.35062528
v 0.03136303 0.05569157 -0.35138322
v 0.01183604 0.07397271 -0.39704097
v -0.06212675 0.03690726 -0.41158933
v -0.06572883 0.00122678 -0.37278134
v -0.04229219 -0.03247918 -0.37397865
v -0.00881305 -0.05476267 -0.37136648
v 0.02270470 -0.05238982 -0.31890649
v 0.04110477 -0.01496340 -0.35772205
v 0.05163646 0.02080883 -0.39619506
v 0.04653657 0.04324511 -0.39523689
v 0.03258500 0.06093016 -0.39520232
v -0.05928849 0.00805633 -0.41288150
v -0.03723864 -0.02107508 -0.41219795
v -0.00619649 -0.04291279 -0.41069997
v 0.02297685 -0.04280257 -0.36465693
v 0.04219579 -0.00594749 -0.39912436
v 0.02507784 -0.03413322 -0.40461344
f 106 4 309
f 309 4 107
f 25 105 107
f 107 105 309
f 24 109 108
f 108 109 310
f 310 25 108
f 110 6 311
f 311 6 111
f 4 106 111
f 111 106 311
f 112 24 312
f 312 24 108
f 25 107 108
f 108 107 312
f 4 113 107
f 107 113 312
f 113 5 312
f 312 5 112
f 24 114 109
f 109 114 313
f 114 26 313
f 313 26 115
f 2 102 115
f 115 102 313
f 102 1 313
f 313 1 109
f 116 8 314
f 314 8 117
f 6 110 117
f 117 110 314
f 5 113 118
f 118 113 315
f 113 4 315
f 315 4 111
f 6 119 111
f 111 119 315
f 119 7 315
f 315 7 118
f 114 24 316
f 316 24 112
f 5 120 112
f 112 120 316
f 120 27 316
f 316 27 121
f 26 114 121
f 121 114 316
f 3 103 122
f 122 103 317
f 103 2 317
f 317 2 115
f 26 123 115
f 115 123 317
f 123 101 317
f 317 101 122
f 10 126 125
f 8 116 127
f 127 116 318
f 126 10 318
f 318 10 127
f 8 128 117
f 117 128 319
f 128 9 319
f 319 9 129
f 7 119 129
f 129 119 319
f 119 6 319
f 319 6 117
f 7 130 118
f 118 130 320
f 130 28 320
f 320 28 131
f 29 132 131
f 131 132 320
f 132 5 320
f 320 5 118
f 5 132 120
f 120 132 321
f 132 29 321
f 321 29 133
f 38 134 133
f 133 134 321
f 27 120 134
f 134 120 321
f 101 123 135
f 135 123 322
f 123 26 322
f 322 26 121
f 27 136 121
f 121 136 322
f 136 100 322
f 322 100 135
f 137 104 323
f 104 3 323
f 323 3 122
f 101 138 122
f 122 138 323
f 138 14 323
f 323 14 137
f 139 13 324
f 14 139 137
f 137 139 324
f 19 142 124
f 124 142 325
f 142 18 325
f 325 18 143
f 20 144 143
f 143 144 325
f 144 21 325
f 325 21 124
f 11 146 145
f 145 146 326
f 146 10 326
f 326 10 125
f 21 144 125
f 125 144 326
f 144 20 326
f 326 20 145
f 10 146 127
f 127 146 327
f 146 11 327
f 327 11 147
f 9 128 147
f 147 128 327
f 128 8 327
f 327 8 127
f 9 148 129
f 129 148 328
f 148 30 328
f 328 30 149
f 28 130 149
f 149 130 328
f 130 7 328
f 328 7 129
f 28 150 131
f 131 150 329
f 150 39 329
f 329 39 151
f 40 152 151
f 151 152 329
f 152 29 329
f 329 29 131
f 29 152 133
f 133 152 330
f 152 40 330
f 330 40 153
f 49 154 153
f 153 154 330
f 154 38 330
f 330 38 133
f 100 136 155
f 155 136 331
f 136 27 331
f 331 27 134
f 38 156 134
f 134 156 331
f 156 99 331
f 331 99 155
f 14 138 157
f 157 138 332
f 138 101 332
f 332 101 135
f 100 158 135
f 135 158 332
f 158 15 332
f 332 15 157
f 159 12 333
f 333 12 160
f 13 139 160
f 160 139 333
f 139 14 333
f 333 14 157
f 15 159 157
f 157 159 333
f 161 16 334
f 334 16 162
f 17 140 162
f 162 140 334
f 140 13 334
f 334 13 160
f 12 161 160
f 160 161 334
f 22 165 164
f 164 165 335
f 165 18 335
f 335 18 142
f 19 141 142
f 142 141 335
f 141 23 335
f 335 23 164
f 18 166 143
f 143 166 336
f 166 36 336
f 336 36 167
f 37 168 167
f 167 168 336
f 168 20 336
f 336 20 143
f 20 168 145
f 145 168 337
f 168 37 337
f 337 37 169
f 31 170 169
f 169 170 337
f 170 11 337
f 337 11 145
f 11 170 147
f 147 170 338
f 170 31 338
f 338 31 171
f 30 148 171
f 171 148 338
f 148 9 338
f 338 9 147
f 30 172 149
f 149 172 339
f 172 41 339
f 339 41 173
f 39 150 173
f 173 150 339
f 150 28 339
f 339 28 149
f 39 174 151
f 151 174 340
f 174 72 340
f 340 72 175
f 82 176 175
f 175 176 340
f 176 40 340
f 340 40 151
f 40 176 153
f 153 176 341
f 176 82 341
f 341 82 177
f 81 178 177
f 177 178 341
f 178 49 341
f 341 49 153
f 99 156 179
f 179 156 342
f 156 38 342
f 342 38 154
f 154 49 342
f 342 49 180
f 180 98 342
f 342 98 179
f 15 158 181
f 181 158 343
f 158 100 343
f 343 100 155
f 99 182 155
f 155 182 343
f 182 32 343
f 343 32 181
f 159 15 344
f 344 15 181
f 32 183 181
f 181 183 344
f 183 33 344
f 344 33 184
f 12 159 184
f 184 159 344
f 161 12 345
f 345 12 184
f 33 185 184
f 184 185 345
f 185 34 345
f 345 34 186
f 16 161 186
f 186 161 345
f 187 22 346
f 346 22 164
f 23 163 164
f 164 163 346
f 163 17 346
f 346 17 162
f 16 187 162
f 162 187 346
f 165 22 347
f 347 22 188
f 35 189 188
f 188 189 347
f 189 36 347
f 347 36 166
f 18 165 166
f 166 165 347
f 36 190 167
f 167 190 348
f 190 47 348
f 348 47 191
f 48 192 191
f 191 192 348
f 192 37 348
f 348 37 167
f 37 192 169
f 169 192 349
f 192 48 349
f 349 48 193
f 42 194 193
f 193 194 349
f 194 31 349
f 349 31 169
f 31 194 171
f 171 194 350
f 194 42 350
f 350 42 195
f 41 172 195
f 195 172 350
f 172 30 350
f 350 30 171
f 41 196 173
f 173 196 351
f 196 73 351
f 351 73 197
f 72 174 197
f 197 174 351
f 174 39 351
f 351 39 173
f 72 198 175
f 175 198 352
f 198 61 352
f 352 61 199
f 71 200 199
f 199 200 352
f 200 82 352
f 352 82 175
f 82 200 177
f 177 200 353
f 200 71 353
f 353 71 201
f 70 202 201
f 201 202 353
f 202 81 353
f 353 81 177
f 203 98 354
f 354 98 180
f 49 178 180
f 180 178 354
f 178 81 354
f 354 81 204
f 97 203 204
f 204 203 354
f 32 182 205
f 205 182 355
f 182 99 355
f 355 99 179
f 98 206 179
f 179 206 355
f 206 43 355
f 355 43 205
f 183 32 356
f 356 32 205
f 43 207 205
f 205 207 356
f 207 44 356
f 356 44 208
f 33 183 208
f 208 183 356
f 185 33 357
f 357 33 208
f 44 209 208
f 208 209 357
f 209 45 357
f 357 45 210
f 34 185 210
f 210 185 357
f 187 16 358
f 358 16 186
f 34 211 186
f 186 211 358
f 211 35 358
f 358 35 188
f 22 187 188
f 188 187 358
f 189 35 359
f 359 35 212
f 46 213 212
f 212 213 359
f 213 47 359
f 359 47 190
f 36 189 190
f 190 189 359
f 191 47 360
f 360 47 214
f 76 215 214
f 214 215 360
f 75 216 215
f 215 216 360
f 216 48 360
f 360 48 191
f 48 216 193
f 193 216 361
f 216 75 361
f 361 75 217
f 74 218 217
f 217 218 361
f 218 42 361
f 361 42 193
f 42 218 195
f 195 218 362
f 218 74 362
f 362 74 219
f 73 196 219
f 219 196 362
f 196 41 362
f 362 41 195
f 73 220 197
f 197 220 363
f 220 62 363
f 363 62 221
f 61 198 221
f 221 198 363
f 198 72 363
f 363 72 197
f 61 222 199
f 199 222 364
f 222 50 364
f 364 50 223
f 60 224 223
f 223 224 364
f 224 71 364
f 364 71 199
f 71 224 201
f 201 224 365
f 224 60 365
f 365 60 225
f 59 226 225
f 225 226 365
f 226 70 365
f 365 70 201
f 96 228 227
f 227 228 366
f 228 97 366
f 366 97 204
f 81 202 204
f 204 202 366
f 202 70 366
f 366 70 227
f 43 206 229
f 229 206 367
f 206 98 367
f 367 98 203
f 203 97 367
f 367 97 230
f 230 80 367
f 367 80 229
f 207 43 368
f 368 43 229
f 80 231 229
f 229 231 368
f 231 79 368
f 368 79 232
f 44 207 232
f 232 207 368
f 209 44 369
f 369 44 232
f 79 233 232
f 232 233 369
f 233 78 369
f 369 78 234
f 45 209 234
f 234 209 369
f 211 34 370
f 370 34 210
f 45 235 210
f 210 235 370
f 235 46 370
f 370 46 212
f 35 211 212
f 212 211 370
f 213 46 371
f 371 46 236
f 77 237 236
f 236 237 371
f 237 76 371
f 371 76 214
f 47 213 214
f 214 213 371
f 215 76 372
f 372 76 238
f 65 239 238
f 238 239 372
f 64 240 239
f 239 240 372
f 240 75 372
f 372 75 215
f 75 240 217
f 217 240 373
f 240 64 373
f 373 64 241
f 63 242 241
f 241 242 373
f 242 74 373
f 373 74 217
f 74 242 219
f 219 242 374
f 242 63 374
f 374 63 243
f 62 220 243
f 243 220 374
f 220 73 374
f 374 73 219
f 62 244 221
f 221 244 375
f 244 51 375
f 375 51 245
f 50 222 245
f 245 222 375
f 222 61 375
f 375 61 221
f 50 246 223
f 223 246 376
f 246 83 376
f 376 83 247
f 93 248 247
f 247 248 376
f 248 60 376
f 376 60 223
f 60 248 225
f 225 248 377
f 248 93 377
f 377 93 249
f 92 250 249
f 249 250 377
f 250 59 377
f 377 59 225
f 95 252 251
f 251 252 378
f 252 96 378
f 378 96 227
f 70 226 227
f 227 226 378
f 226 59 378
f 378 59 251
f 228 96 379
f 379 96 253
f 253 69 379
f 379 69 254
f 80 230 254
f 254 230 379
f 97 228 230
f 230 228 379
f 231 80 380
f 380 80 254
f 69 255 254
f 254 255 380
f 255 68 380
f 380 68 256
f 79 231 256
f 256 231 380
f 233 79 381
f 381 79 256
f 68 257 256
f 256 257 381
f 257 67 381
f 381 67 258
f 78 233 258
f 258 233 381
f 235 45 382
f 382 45 234
f 78 259 234
f 234 259 382
f 259 77 382
f 382 77 236
f 46 235 236
f 236 235 382
f 237 77 383
f 383 77 260
f 66 261 260
f 260 261 383
f 261 65 383
f 383 65 238
f 76 237 238
f 238 237 383
f 239 65 384
f 384 65 262
f 54 263 262
f 262 263 384
f 53 264 263
f 263 264 384
f 264 64 384
f 384 64 239
f 64 264 241
f 241 264 385
f 264 53 385
f 385 53 265
f 52 266 265
f 265 266 385
f 266 63 385
f 385 63 241
f 63 266 243
f 243 266 386
f 266 52 386
f 386 52 267
f 51 244 267
f 267 244 386
f 244 62 386
f 386 62 243
f 51 268 245
f 245 268 387
f 268 84 387
f 387 84 269
f 83 246 269
f 269 246 387
f 246 50 387
f 387 50 245
f 83 270 247
f 247 270 388
f 271 93 388
f 388 93 247
f 93 271 249
f 249 271 389
f 272 92 389
f 389 92 249
f 95 251 273
f 273 251 390
f 59 250 251
f 251 250 390
f 250 92 390
f 390 92 274
f 94 273 274
f 274 273 390
f 95 275 252
f 252 275 391
f 275 58 391
f 391 58 276
f 69 253 276
f 276 253 391
f 96 252 253
f 253 252 391
f 255 69 392
f 392 69 276
f 58 277 276
f 276 277 392
f 277 57 392
f 392 57 278
f 68 255 278
f 278 255 392
f 257 68 393
f 393 68 278
f 57 279 278
f 278 279 393
f 279 56 393
f 393 56 280
f 67 257 280
f 280 257 393
f 259 78 394
f 394 78 258
f 67 281 258
f 258 281 394
f 281 66 394
f 394 66 260
f 77 259 260
f 260 259 394
f 261 66 395
f 395 66 282
f 55 283 282
f 282 283 395
f 283 54 395
f 395 54 262
f 65 261 262
f 262 261 395
f 263 54 396
f 396 54 284
f 284 87 396
f 396 87 285
f 86 286 285
f 285 286 396
f 286 53 396
f 396 53 263
f 53 286 265
f 265 286 397
f 286 86 397
f 397 86 287
f 85 288 287
f 287 288 397
f 288 52 397
f 397 52 265
f 52 288 267
f 267 288 398
f 288 85 398
f 398 85 289
f 84 268 289
f 289 268 398
f 268 51 398
f 398 51 267
f 84 290 269
f 269 290 399
f 270 83 399
f 399 83 269
f 291 94 400
f 400 94 274
f 92 272 274
f 274 272 400
f 58 275 292
f 292 275 401
f 275 95 401
f 401 95 273
f 94 293 273
f 273 293 401
f 293 91 401
f 401 91 292
f 277 58 402
f 402 58 292
f 91 294 292
f 292 294 402
f 294 90 402
f 402 90 295
f 57 277 295
f 295 277 402
f 279 57 403
f 403 57 295
f 90 296 295
f 295 296 403
f 296 89 403
f 403 89 297
f 56 279 297
f 297 279 403
f 281 67 404
f 404 67 280
f 56 298 280
f 280 298 404
f 298 55 404
f 404 55 282
f 66 281 282
f 282 281 404
f 283 55 405
f 405 55 299
f 88 300 299
f 299 300 405
f 300 87 405
f 405 87 284
f 54 283 284
f 284 283 405
f 285 87 406
f 406 87 301
f 86 285 302
f 302 285 406
f 86 302 287
f 287 302 407
f 303 85 407
f 407 85 287
f 85 303 289
f 289 303 408
f 290 84 408
f 408 84 289
f 91 293 304
f 304 293 409
f 94 291 293
f 293 291 409
f 294 91 410
f 410 91 304
f 90 294 305
f 305 294 410
f 296 90 411
f 411 90 305
f 89 296 306
f 306 296 411
f 298 56 412
f 412 56 297
f 89 307 297
f 297 307 412
f 307 88 412
f 412 88 299
f 55 298 299
f 299 298 412
f 300 88 413
f 413 88 308
f 87 300 301
f 301 300 413
f 307 89 414
f 414 89 306
f 88 307 308
f 308 307 414

