# https://github.com/mikedh/trimesh
v -0.00061969 0.07690706 -0.01459414
v -0.02777831 0.06696073 -0.01917320
v 0.02475437 0.07083624 -0.01186985
v 0.04235799 0.05459651 -0.01067662
v -0.04660250 -0.00343336 -0.02490354
v -0.02123162 -0.02937186 -0.02343714
v 0.01056750 -0.03673415 -0.01977819
v 0.03562941 -0.01908298 -0.01443815
v 0.04927815 0.00857888 -0.01150858
v 0.05207091 0.03395967 -0.01031211
v -0.05089049 0.04907554 -0.02322632
v 0.00923067 0.04729041 -0.36568099
v -0.01160051 0.04703122 -0.36379218
v 0.02394026 0.03166411 -0.36369371
v 0.03113026 0.01462783 -0.35877132
v -0.02507472 -0.00781408 -0.34150904
v -0.01499781 -0.02107634 -0.33769250
v -0.00236633 -0.02572312 -0.33740276
v 0.01037475 -0.02408052 -0.34066272
v 0.02138341 -0.01611961 -0.34622699
v 0.02840895 -0.00309017 -0.35272658
v -0.02324001 0.03040583 -0.35724878
v 0.00645506 0.08767291 -0.17179441
v 0.03886972 0.07806798 -0.16913366
v 0.05878336 0.05353225 -0.16617978
v 0.06303153 0.02558853 -0.16245008
v 0.05415464 -0.00152710 -0.15975821
v 0.03321580 -0.02265025 -0.15911376
v 0.00588983 -0.02454185 -0.16057360
v -0.01701922 -0.01255014 -0.16350174
v -0.03726773 0.00242170 -0.16719037
v -0.04637980 0.05334028 -0.17315477
v -0.02540114 0.07827649 -0.17359924
v 0.00130261 0.08521416 -0.06119359
v 0.03035744 0.07820326 -0.05800438
v 0.05093279 0.05893258 -0.05604279
v 0.05773773 0.03352273 -0.05575383
v 0.05346345 0.00632768 -0.05586028
v 0.03637566 -0.01904272 -0.05765522
v 0.00938380 -0.02829654 -0.06216955
v -0.01816660 -0.02012051 -0.06568229
v -0.04030440 0.00032547 -0.06789678
v -0.04720409 0.05166810 -0.06679118
v -0.02782091 0.07485317 -0.06469667
v 0.00810013 0.07519216 -0.22747850
v 0.03493968 0.06673866 -0.22531974
v 0.05208094 0.04535450 -0.22190297
v 0.05526524 0.02001692 -0.21777278
v 0.04689408 -0.00370221 -0.21456861
v 0.02804001 -0.02014696 -0.21281046
v 0.00495085 -0.02155695 -0.21252394
v -0.01452460 -0.01144041 -0.21457362
v -0.03171587 0.00207399 -0.21857220
v -0.03699598 0.04716546 -0.22628915
v -0.01871752 0.06744525 -0.22796613
v 0.00761678 0.06458451 -0.27988386
v 0.03028204 0.05543548 -0.27849400
v 0.04324023 0.03494415 -0.27479869
v 0.04542009 0.01271618 -0.27032322
v 0.03769142 -0.00676268 -0.26613414
v 0.02170437 -0.01833720 -0.26271617
v 0.00383577 -0.01935714 -0.26100981
v -0.01160627 -0.01191210 -0.26220131
v -0.02512246 0.00091130 -0.26579267
v -0.03051611 0.04113307 -0.27537560
v -0.01530811 0.05888666 -0.27894086
v -0.00309075 0.07404928 0.03110316
v 0.02248045 0.06615848 0.03438893
v 0.03915008 0.04925660 0.03524560
v 0.05041138 0.02933663 0.03458375
v 0.04796537 0.00401069 0.03123796
v 0.03379264 -0.02416417 0.02563205
v 0.01055219 -0.04755252 0.01841873
v -0.02602640 -0.04267208 0.01379696
v -0.05263707 -0.00995792 0.01442796
v -0.06024406 0.05018045 0.01872838
v -0.03329217 0.06798936 0.02514008
v 0.00458548 0.09173228 -0.11429799
v -0.02782687 0.08092337 -0.11698502
v -0.04857417 0.05491020 -0.11773783
v -0.03884201 0.00268422 -0.11460567
v -0.01786293 -0.01494675 -0.11237133
v 0.00744239 -0.02636971 -0.10892278
v 0.03659812 -0.02237426 -0.10583484
v 0.05772472 0.00181953 -0.10542256
v 0.06457312 0.03042424 -0.10678649
v 0.05894540 0.05897061 -0.10906184
v 0.03781823 0.08338523 -0.11134315
v 0.00745703 0.05658337 -0.32702768
v 0.02547245 0.04309541 -0.32564950
v 0.03454026 0.02341718 -0.32131368
v 0.03522310 0.00424067 -0.31601804
v 0.02835827 -0.01133512 -0.31085134
v 0.01578940 -0.01995393 -0.30613405
v 0.00161055 -0.02075103 -0.30340827
v -0.01137969 -0.01544510 -0.30371535
v -0.02205510 -0.00305133 -0.30700248
v -0.02675378 0.03543348 -0.31929910
v -0.01393072 0.05301467 -0.32492304
v -0.02827861 0.01197548 -0.34815311
v -0.02816945 0.01484080 -0.31260324
v -0.03356383 0.01909855 -0.27059585
v -0.04105154 0.02255034 -0.22269613
v -0.04929829 0.02476335 -0.17061394
v -0.05107378 0.02636176 -0.11664164
v -0.05080317 0.02534747 -0.06799853
v -0.05829728 0.02394028 -0.02513885
v -0.06819029 0.02079774 0.01484609
v 0.01066118 0.04093224 -0.38985336
v 0.02540288 0.02283029 -0.39000374
v 0.03290687 0.00204974 -0.38730800
v 0.02676836 -0.01550261 -0.38066912
v 0.01839492 -0.02898497 -0.37496084
v 0.00593850 -0.03697723 -0.36918032
v -0.00799846 -0.03936792 -0.36635244
v -0.02210820 -0.03332370 -0.36835128
v -0.03216074 -0.01611408 -0.37332350
v -0.03194743 0.00736163 -0.37927288
v -0.01980951 0.02749536 -0.38559097
v -0.00759354 0.04519759 -0.38894218
v -0.01797309 0.07177264 0.02842194
v -0.04863507 0.06129467 0.02160674
v 0.01077030 0.07210962 0.03310657
v -0.00162811 0.07535377 0.00862008
v -0.01464058 0.07373270 -0.01690340
v -0.03017659 0.06725697 0.00301710
v -0.04083501 0.05932317 -0.02132368
v -0.05573053 0.04975940 -0.00255609
v -0.06701542 0.03632933 0.01647183
v 0.05119959 0.01707608 0.03324446
v 0.04614029 0.04014582 0.03517294
v 0.03132632 0.05775340 0.03502157
v 0.02348999 0.06881717 0.01148880
v 0.01286770 0.07553701 -0.01295978
v 0.00044306 0.08075033 -0.03700048
v -0.01409799 0.08256484 -0.06299448
v -0.02718496 0.07047967 -0.04079419
v -0.03919172 0.06424011 -0.06587529
v -0.04762240 0.05004096 -0.04404849
v -0.05675936 0.03705038 -0.02446949
v -0.06346532 0.02271190 -0.00518289
v -0.06324363 0.00507705 0.01425701
v -0.03915618 -0.02550629 0.01440719
v -0.00714990 -0.05019869 0.01534286
v 0.04126575 -0.00958748 0.02877310
v 0.04859100 0.00774731 0.01000440
v 0.05218678 0.02174880 -0.01078182
v 0.05086526 0.03282087 0.01196507
v 0.04866067 0.04497369 -0.01034912
v 0.03992539 0.05228203 0.01220202
v 0.03456599 0.06348690 -0.01108694
v 0.02732768 0.07406216 -0.03429401
v 0.01651873 0.08337018 -0.05955482
v 0.00311829 0.08922049 -0.08679509
v -0.01245902 0.08877584 -0.11578345
v -0.02790502 0.07872768 -0.08990806
v -0.04031800 0.06915084 -0.11759430
v -0.04778134 0.05371007 -0.09141672
v -0.05347640 0.02506947 -0.04598975
v -0.05087774 0.03837090 -0.06756377
v -0.05501504 0.01019036 -0.02527392
v -0.04976764 -0.00633126 -0.00502795
v -0.03477567 -0.01685613 -0.02417767
v -0.02348876 -0.03575201 -0.00470057
v -0.00542960 -0.03677389 -0.02224022
v 0.01086958 -0.04180612 -0.00051853
v 0.02467435 -0.03837247 0.02189949
v 0.03496607 -0.02052891 0.00592485
v 0.04362320 -0.00524301 -0.01260740
v 0.05072721 0.00793844 -0.03304106
v 0.05673846 0.02010739 -0.05571914
v 0.05478180 0.03410721 -0.03217196
v 0.05601519 0.04654234 -0.05583715
v 0.04669788 0.05708514 -0.03241837
v 0.04215970 0.06983863 -0.05672830
v 0.03453795 0.08183658 -0.08356279
v 0.02186740 0.09015303 -0.11273897
v 0.00561293 0.09139360 -0.14307177
v -0.01016141 0.08512551 -0.17282951
v -0.02717483 0.08090109 -0.14508939
v -0.03779086 0.06718027 -0.17370266
v -0.04839658 0.05482507 -0.14520907
v -0.05199178 0.04022591 -0.11737502
v -0.05029172 0.02615014 -0.09152710
v -0.04336180 -0.00097537 -0.04625565
v -0.04714355 0.01260281 -0.06813133
v -0.03041692 -0.01096980 -0.06701505
v -0.01911940 -0.02333516 -0.04392821
v -0.00464533 -0.02616137 -0.06412733
v 0.00994226 -0.03153562 -0.04061842
v 0.02488046 -0.03117840 -0.01723373
v 0.03519204 -0.01789285 -0.03564608
v 0.04721557 -0.00751808 -0.05626392
v 0.05648962 0.00395935 -0.07984400
v 0.06285156 0.01601964 -0.10592186
v 0.06175425 0.03220920 -0.08038181
v 0.06352333 0.04475135 -0.10787857
v 0.05552024 0.05952676 -0.08147192
v 0.05032524 0.07226949 -0.11018360
v 0.03931078 0.08192945 -0.14028299
v 0.02340633 0.08541957 -0.17054415
v 0.00724941 0.08183285 -0.19990289
v -0.00590620 0.07312809 -0.22790277
v -0.02234441 0.07321273 -0.20126414
v -0.02928843 0.05846229 -0.22744352
v -0.04231115 0.05045818 -0.20030916
v -0.05027920 0.03862735 -0.17208487
v -0.05130865 0.02586806 -0.14327925
v -0.04661387 0.01375112 -0.11560714
v -0.03873722 0.00218796 -0.09059519
v -0.02885921 -0.00660612 -0.11369711
v -0.01796600 -0.01705067 -0.08840418
v -0.00582661 -0.02177262 -0.11075383
v 0.00852185 -0.02667898 -0.08477199
v 0.02317011 -0.02590518 -0.05988669
v 0.03697131 -0.02096629 -0.08094192
v 0.04916463 -0.01183941 -0.10526168
v 0.05670702 0.00003313 -0.13232422
v 0.06025126 0.01175422 -0.16082108
v 0.06493538 0.02815680 -0.13448954
v 0.06252944 0.03949280 -0.16435820
v 0.06018244 0.05680201 -0.13775730
v 0.05083347 0.06685129 -0.16770101
v 0.03698041 0.07278753 -0.19754761
v 0.02223534 0.07303617 -0.22662783
v 0.00794794 0.06947751 -0.25401998
v -0.00440595 0.06356636 -0.27972788
v -0.01651379 0.06273653 -0.25374126
v -0.02417643 0.05106945 -0.27745247
v -0.03316788 0.04405270 -0.25124156
v -0.04559787 0.02360171 -0.19706225
v -0.04100976 0.03483944 -0.22465450
v -0.04465668 0.01264867 -0.16896516
v -0.03865957 0.00259147 -0.14051402
v -0.02757709 -0.00567855 -0.16530395
v -0.01757655 -0.01351788 -0.13758862
v -0.00619094 -0.01939309 -0.16191792
v 0.00653155 -0.02568630 -0.13446474
v 0.02196369 -0.02708045 -0.10713333
v 0.03523356 -0.02298832 -0.13218307
v 0.04529991 -0.01374865 -0.15920317
v 0.05087092 -0.00259699 -0.18745065
v 0.05234393 0.00773526 -0.21595842
v 0.05942207 0.02319435 -0.19032490
v 0.05522112 0.03269469 -0.21986085
v 0.05553439 0.04990734 -0.19433773
v 0.04526321 0.05715420 -0.22371030
v 0.03266945 0.06116168 -0.25234360
v 0.01957709 0.06187454 -0.27945280
v 0.00737082 0.06041737 -0.30433482
v -0.00372433 0.05712404 -0.32633948
v -0.01455409 0.05566296 -0.30273014
v -0.02180243 0.04532994 -0.32255930
v -0.02856582 0.03824730 -0.29814857
v -0.03708958 0.02100373 -0.24720037
v -0.03379031 0.03009524 -0.27304423
v -0.03487642 0.00220718 -0.19316566
v -0.03775240 0.01145437 -0.22066355
v -0.02351793 -0.00522066 -0.21642721
v -0.01599270 -0.01191215 -0.18933666
v -0.00529257 -0.01737153 -0.21324390
v 0.00541791 -0.02312644 -0.18682992
v 0.01938296 -0.02614538 -0.15959287
v 0.03086241 -0.02156256 -0.18631703
v 0.03876217 -0.01357624 -0.21353662
v 0.04241046 -0.00504805 -0.24107230
v 0.04280899 0.00231907 -0.26815045
v 0.05045804 0.01661584 -0.24474972
v 0.04557265 0.02373741 -0.27256495
v 0.04786458 0.04050986 -0.24892843
v 0.03832767 0.04592459 -0.27691698
v 0.02794377 0.04934294 -0.30311894
v 0.01762699 0.05134827 -0.32681918
v 0.00878574 0.05153834 -0.34802395
v -0.00129061 0.05081509 -0.36531776
v -0.01242696 0.04948821 -0.34585261
v -0.01872931 0.03935419 -0.36105555
v -0.02486998 0.03272241 -0.33914822
v -0.03036739 0.01705775 -0.29243696
v -0.02874772 0.02497166 -0.31590486
v -0.02818134 0.00177378 -0.24280894
v -0.03036750 0.00925661 -0.26812041
v -0.01864795 -0.00604272 -0.26373589
v -0.01297130 -0.01140859 -0.23900223
v -0.00418929 -0.01656652 -0.26125592
v 0.00445091 -0.02020440 -0.23732704
v 0.01628543 -0.02257198 -0.21238530
v 0.02494963 -0.01890053 -0.23841196
v 0.03044992 -0.01387824 -0.26430041
v 0.03292515 -0.00905673 -0.28961909
v 0.03272868 -0.00427544 -0.31340468
v 0.04041503 0.00829842 -0.29426497
v 0.03568434 0.01363854 -0.31868476
v 0.03882473 0.02898241 -0.29909056
v 0.03126132 0.03349128 -0.32374460
v 0.02441167 0.03689038 -0.34607291
v 0.01662729 0.03940752 -0.36484754
v 0.00958245 0.04298582 -0.37935489
v 0.00266041 0.04796913 -0.38924474
v -0.00975346 0.04523488 -0.37821782
v -0.01426336 0.03714075 -0.38776857
v -0.02154577 0.02830876 -0.37291169
v -0.02649019 0.02128995 -0.35268295
v -0.02747186 0.01305102 -0.33118528
v -0.02284742 -0.00066007 -0.28732067
v -0.02574761 0.00548687 -0.30957907
v -0.01719832 -0.01017408 -0.30503076
v -0.01098952 -0.01330564 -0.28395849
v -0.00506589 -0.01889326 -0.30317897
v 0.00287291 -0.01950215 -0.28324544
v 0.01254807 -0.02004807 -0.26152724
v 0.01855619 -0.01880115 -0.28549206
v 0.02260319 -0.01662646 -0.30837882
v 0.02436347 -0.01352620 -0.32977045
v 0.02550723 -0.01018997 -0.34943038
v 0.03097390 0.00057410 -0.33553052
v 0.03030170 0.00522568 -0.35594791
v 0.03190324 0.01864385 -0.34118640
v 0.02946427 0.02333280 -0.36163765
v 0.02462796 0.02635552 -0.37825853
v 0.01746716 0.03179619 -0.39010906
v 0.01257221 0.04339667 -0.39963782
v -0.01822649 0.03046669 -0.39723003
v -0.02593029 0.01777382 -0.38262385
v -0.02986301 0.00908694 -0.36441427
v -0.02786274 0.00187571 -0.34455544
v -0.02284624 -0.00552210 -0.32501483
v -0.02065853 -0.01568247 -0.33918196
v -0.01275979 -0.01798649 -0.32158697
v -0.00884781 -0.02424910 -0.33707148
v -0.00022969 -0.02277772 -0.32142347
v 0.00862800 -0.02122542 -0.30441904
v 0.01298872 -0.02162219 -0.32451051
v 0.01623221 -0.02084103 -0.34324932
v 0.01965373 -0.02223135 -0.36033010
v 0.02307606 -0.02270819 -0.37767661
v 0.02734011 -0.00977419 -0.36741674
v 0.03008602 -0.00743168 -0.38422787
v 0.03162188 0.00758704 -0.37418407
v 0.03216349 0.01314719 -0.38929754
v 0.02602870 0.02354120 -0.40094674
v -0.03012372 0.00795356 -0.39277762
v -0.03431390 -0.00447877 -0.37614584
v -0.02847002 -0.01183140 -0.35713226
v -0.02792317 -0.02596943 -0.37071264
v -0.01837742 -0.02629109 -0.35243499
v -0.01510905 -0.03777787 -0.36675090
v -0.00514781 -0.03138156 -0.35142565
v 0.00412787 -0.02566539 -0.33865565
v 0.00798573 -0.02971713 -0.35452229
v 0.01260936 -0.03385568 -0.37194437
v 0.01922334 -0.03406452 -0.38848740
v 0.02735624 -0.01877336 -0.39221662
v 0.03253617 -0.00005563 -0.39987010
v -0.03340170 -0.01741339 -0.38869721
v -0.02535584 -0.03863189 -0.38351274
v -0.01072542 -0.04674117 -0.37998360
v -0.00094099 -0.03881762 -0.36714745
v 0.00494118 -0.04439600 -0.38250721
v -0.01590340 0.07245891 0.00602242
v -0.04468469 0.06032367 -0.00015202
v 0.01183604 0.07397270 0.01037332
v -0.01422157 0.07802369 -0.03881699
v -0.03883281 0.06127608 -0.04255462
v -0.06212675 0.03690726 -0.00417504
v 0.05163646 0.02080882 0.01121923
v 0.04653657 0.04324510 0.01217741
v 0.03258500 0.06093015 0.01221198
v 0.01466434 0.07899687 -0.03556472
v -0.01319914 0.08640075 -0.08840311
v -0.03985434 0.06738514 -0.09087360
v -0.05243561 0.03778482 -0.04523373
v -0.05928849 0.00805632 -0.00546721
v -0.03723864 -0.02107508 -0.00478366
v -0.00619649 -0.04291279 -0.00328568
v 0.04219579 -0.00594749 0.00828993
v 0.05389688 0.02133403 -0.03252769
v 0.05236169 0.04615719 -0.03218085
v 0.03807446 0.06649569 -0.03311592
v 0.01943042 0.08763748 -0.08511716
v -0.01158305 0.08847753 -0.14426100
v -0.03985851 0.06917881 -0.14547825
v -0.05101628 0.03959251 -0.09165341
v -0.05059483 0.01205366 -0.04636616
v -0.03234841 -0.01326852 -0.04528117
v -0.00476040 -0.02983580 -0.04256737
v 0.02507784 -0.03413323 0.00280085
v 0.04482404 -0.00567715 -0.03390330
v 0.06066173 0.01812225 -0.08001137
v 0.06032357 0.04603804 -0.08085620
v 0.04689560 0.07192691 -0.08232814
v 0.02324637 0.08938426 -0.14168608
v -0.00811809 0.07946006 -0.20074403
v -0.03410019 0.06317683 -0.20115280
v -0.05210321 0.03995319 -0.14440727
v -0.04605359 0.01359876 -0.09116447
v -0.02930970 -0.00815455 -0.08968580
v -0.00523326 -0.02356210 -0.08677793
v 0.02341931 -0.02726819 -0.03815937
v 0.04895908 -0.00982872 -0.07992625
v 0.06261716 0.01390660 -0.13316667
v 0.06414936 0.04240346 -0.13613456
v 0.05178808 0.07048356 -0.13902199
v 0.02280917 0.07966855 -0.19885594
v -0.00487772 0.06786769 -0.25414091
v -0.02617227 0.05452971 -0.25279647
v -0.04612768 0.03675249 -0.19886899
v -0.04659088 0.01327804 -0.14190018
v -0.02845757 -0.00595140 -0.13911825
v -0.00616816 -0.02046598 -0.13599837
v 0.02275278 -0.02622209 -0.08270311
v 0.04771852 -0.01314502 -0.13194454
v 0.05652993 0.00993664 -0.18865001
v 0.05908718 0.03661978 -0.19236910
v 0.04809981 0.06235206 -0.19602084
v 0.02087864 0.06717440 -0.25338906
v -0.00413944 0.06005739 -0.30388367
v -0.02291361 0.04802329 -0.30076170
v -0.03691085 0.03254459 -0.24932796
v -0.04150960 0.01201841 -0.19513607
v -0.02585435 -0.00542797 -0.19116616
v -0.00580697 -0.01834466 -0.18783891
v 0.02076439 -0.02711676 -0.13311315
v 0.04236152 -0.01374933 -0.18667853
v 0.04767450 0.00523482 -0.24278176
v 0.05057222 0.02855408 -0.24684590
v 0.04196378 0.05182321 -0.25080317
v 0.01851834 0.05678670 -0.30412620
v -0.00217148 0.05311012 -0.34748459
v -0.02022167 0.04202827 -0.34298575
v -0.03101442 0.02752797 -0.29531282
v -0.03390870 0.01053878 -0.24497783
v -0.02084198 -0.00529168 -0.24078906
v -0.00467430 -0.01670954 -0.23780847
v 0.01797824 -0.02448465 -0.18634683
v 0.03469112 -0.01343100 -0.23962772
v 0.03776824 -0.00114607 -0.29190034
v 0.04071342 0.01844897 -0.29665881
v 0.03462768 0.03951998 -0.30131251
v 0.01741832 0.04492410 -0.34750807
v 0.00033337 0.04864039 -0.37920535
v -0.01668850 0.03719313 -0.37594360
v -0.02703930 0.02321448 -0.33478367
v -0.02737433 0.00760856 -0.28971761
v -0.01729234 -0.00769418 -0.28536445
v -0.00425959 -0.01725667 -0.28323299
v 0.01451816 -0.02100043 -0.23754919
v 0.02630820 -0.01505942 -0.28743947
v 0.02840183 -0.00712536 -0.33264995
v 0.03203357 0.00929162 -0.33840138
v 0.02983297 0.02796024 -0.34388512
v 0.01657914 0.03445558 -0.37901801
v 0.00487299 0.05039867 -0.39927262
v -0.02611450 0.01890232 -0.36877561
v -0.02587870 0.00342845 -0.32786065
v -0.01835880 -0.01284995 -0.32289141
v -0.00667701 -0.02112519 -0.32108885
v 0.01053345 -0.02014269 -0.28403580
v 0.01909531 -0.01840301 -0.32697332
v 0.02416656 -0.01661761 -0.36372828
v 0.02981059 -0.00163448 -0.37101620
v 0.03056227 0.01747633 -0.37663746
v 0.01889040 0.03372864 -0.40020496
v -0.02445043 0.01965944 -0.39499897
v -0.03070795 -0.00148623 -0.36048657
v -0.02419226 -0.02028061 -0.35439557
v -0.01185010 -0.02988193 -0.35139728
v 0.00643746 -0.02301691 -0.32260966
v 0.01409697 -0.02661123 -0.35724467
v 0.02378122 -0.02633651 -0.39030212
v 0.03053626 -0.01065158 -0.39596397
v 0.03184005 0.01215705 -0.40127552
v -0.03412344 -0.00452450 -0.39079535
v -0.03030143 -0.02933304 -0.38623899
v -0.01839104 -0.04444030 -0.38104439
v 0.00151831 -0.03128811 -0.35249460
v 0.01268383 -0.04038632 -0.38536263
v -0.00302011 -0.04646832 -0.38059628
f 67 124 121
f 121 124 360
f 124 1 360
f 360 1 125
f 2 126 125
f 125 126 360
f 126 77 360
f 360 77 121
f 77 126 122
f 122 126 361
f 126 2 361
f 361 2 127
f 127 11 361
f 361 11 128
f 128 76 361
f 361 76 122
f 68 133 123
f 123 133 362
f 133 3 362
f 362 3 134
f 1 124 134
f 134 124 362
f 124 67 362
f 362 67 123
f 1 135 125
f 125 135 363
f 135 34 363
f 363 34 136
f 136 44 363
f 363 44 137
f 2 125 137
f 137 125 363
f 127 2 364
f 364 2 137
f 44 138 137
f 137 138 364
f 138 43 364
f 364 43 139
f 11 127 139
f 139 127 364
f 140 107 365
f 365 107 141
f 141 108 365
f 365 108 129
f 76 128 129
f 129 128 365
f 11 140 128
f 128 140 365
f 130 71 366
f 366 71 146
f 9 147 146
f 146 147 366
f 147 10 366
f 366 10 148
f 70 130 148
f 148 130 366
f 70 148 131
f 131 148 367
f 10 149 148
f 148 149 367
f 4 150 149
f 149 150 367
f 150 69 367
f 367 69 131
f 69 150 132
f 132 150 368
f 4 151 150
f 150 151 368
f 3 133 151
f 151 133 368
f 133 68 368
f 368 68 132
f 3 152 134
f 134 152 369
f 152 35 369
f 369 35 153
f 34 135 153
f 153 135 369
f 135 1 369
f 369 1 134
f 34 154 136
f 136 154 370
f 154 78 370
f 370 78 155
f 79 156 155
f 155 156 370
f 156 44 370
f 370 44 136
f 44 156 138
f 138 156 371
f 156 79 371
f 371 79 157
f 80 158 157
f 157 158 371
f 158 43 371
f 371 43 138
f 107 140 159
f 159 140 372
f 140 11 372
f 372 11 139
f 43 160 139
f 139 160 372
f 160 106 372
f 372 106 159
f 107 161 141
f 141 161 373
f 161 5 373
f 373 5 162
f 75 142 162
f 162 142 373
f 108 141 142
f 142 141 373
f 143 75 374
f 374 75 162
f 5 163 162
f 162 163 374
f 163 6 374
f 374 6 164
f 74 143 164
f 164 143 374
f 144 74 375
f 375 74 164
f 6 165 164
f 164 165 375
f 165 7 375
f 375 7 166
f 73 144 166
f 166 144 375
f 145 72 376
f 376 72 168
f 8 169 168
f 168 169 376
f 169 9 376
f 376 9 146
f 71 145 146
f 146 145 376
f 147 9 377
f 377 9 170
f 38 171 170
f 170 171 377
f 37 172 171
f 171 172 377
f 10 147 172
f 172 147 377
f 10 172 149
f 149 172 378
f 172 37 378
f 378 37 173
f 36 174 173
f 173 174 378
f 174 4 378
f 378 4 149
f 4 174 151
f 151 174 379
f 174 36 379
f 379 36 175
f 35 152 175
f 175 152 379
f 152 3 379
f 379 3 151
f 35 176 153
f 153 176 380
f 176 88 380
f 380 88 177
f 78 154 177
f 177 154 380
f 154 34 380
f 380 34 153
f 78 178 155
f 155 178 381
f 178 23 381
f 381 23 179
f 33 180 179
f 179 180 381
f 180 79 381
f 381 79 155
f 79 180 157
f 157 180 382
f 180 33 382
f 382 33 181
f 32 182 181
f 181 182 382
f 182 80 382
f 382 80 157
f 183 105 383
f 383 105 184
f 106 160 184
f 184 160 383
f 160 43 383
f 383 43 158
f 158 80 383
f 383 80 183
f 5 161 185
f 185 161 384
f 161 107 384
f 384 107 159
f 106 186 159
f 159 186 384
f 186 42 384
f 384 42 185
f 163 5 385
f 385 5 185
f 42 187 185
f 185 187 385
f 187 41 385
f 385 41 188
f 6 163 188
f 188 163 385
f 165 6 386
f 386 6 188
f 41 189 188
f 188 189 386
f 189 40 386
f 386 40 190
f 7 165 190
f 190 165 386
f 167 73 387
f 387 73 166
f 7 191 166
f 166 191 387
f 191 8 387
f 387 8 168
f 72 167 168
f 168 167 387
f 169 8 388
f 388 8 192
f 39 193 192
f 192 193 388
f 193 38 388
f 388 38 170
f 9 169 170
f 170 169 388
f 38 194 171
f 171 194 389
f 194 85 389
f 389 85 195
f 86 196 195
f 195 196 389
f 196 37 389
f 389 37 171
f 37 196 173
f 173 196 390
f 196 86 390
f 390 86 197
f 87 198 197
f 197 198 390
f 198 36 390
f 390 36 173
f 36 198 175
f 175 198 391
f 198 87 391
f 391 87 199
f 88 176 199
f 199 176 391
f 176 35 391
f 391 35 175
f 88 200 177
f 177 200 392
f 200 24 392
f 392 24 201
f 23 178 201
f 201 178 392
f 178 78 392
f 392 78 177
f 23 202 179
f 179 202 393
f 202 45 393
f 393 45 203
f 55 204 203
f 203 204 393
f 204 33 393
f 393 33 179
f 33 204 181
f 181 204 394
f 204 55 394
f 394 55 205
f 54 206 205
f 205 206 394
f 206 32 394
f 394 32 181
f 207 104 395
f 395 104 208
f 105 183 208
f 208 183 395
f 80 182 183
f 183 182 395
f 182 32 395
f 395 32 207
f 105 209 184
f 184 209 396
f 209 81 396
f 396 81 210
f 42 186 210
f 210 186 396
f 186 106 396
f 396 106 184
f 187 42 397
f 397 42 210
f 81 211 210
f 210 211 397
f 211 82 397
f 397 82 212
f 41 187 212
f 212 187 397
f 189 41 398
f 398 41 212
f 82 213 212
f 212 213 398
f 213 83 398
f 398 83 214
f 40 189 214
f 214 189 398
f 191 7 399
f 399 7 190
f 40 215 190
f 190 215 399
f 215 39 399
f 399 39 192
f 8 191 192
f 192 191 399
f 193 39 400
f 400 39 216
f 84 217 216
f 216 217 400
f 217 85 400
f 400 85 194
f 38 193 194
f 194 193 400
f 195 85 401
f 401 85 218
f 27 219 218
f 218 219 401
f 26 220 219
f 219 220 401
f 220 86 401
f 401 86 195
f 86 220 197
f 197 220 402
f 220 26 402
f 402 26 221
f 25 222 221
f 221 222 402
f 222 87 402
f 402 87 197
f 87 222 199
f 199 222 403
f 222 25 403
f 403 25 223
f 24 200 223
f 223 200 403
f 200 88 403
f 403 88 199
f 24 224 201
f 201 224 404
f 224 46 404
f 404 46 225
f 45 202 225
f 225 202 404
f 202 23 404
f 404 23 201
f 45 226 203
f 203 226 405
f 226 56 405
f 405 56 227
f 66 228 227
f 227 228 405
f 228 55 405
f 405 55 203
f 55 228 205
f 205 228 406
f 66 229 228
f 228 229 406
f 229 65 406
f 406 65 230
f 54 205 230
f 230 205 406
f 104 207 231
f 231 207 407
f 207 32 407
f 407 32 206
f 54 232 206
f 206 232 407
f 232 103 407
f 407 103 231
f 104 233 208
f 208 233 408
f 233 31 408
f 408 31 234
f 81 209 234
f 234 209 408
f 209 105 408
f 408 105 208
f 211 81 409
f 409 81 234
f 31 235 234
f 234 235 409
f 235 30 409
f 409 30 236
f 82 211 236
f 236 211 409
f 213 82 410
f 410 82 236
f 30 237 236
f 236 237 410
f 237 29 410
f 410 29 238
f 83 213 238
f 238 213 410
f 215 40 411
f 411 40 214
f 83 239 214
f 214 239 411
f 239 84 411
f 411 84 216
f 39 215 216
f 216 215 411
f 217 84 412
f 412 84 240
f 28 241 240
f 240 241 412
f 241 27 412
f 412 27 218
f 85 217 218
f 218 217 412
f 219 27 413
f 413 27 242
f 49 243 242
f 242 243 413
f 243 48 413
f 413 48 244
f 26 219 244
f 244 219 413
f 26 244 221
f 221 244 414
f 244 48 414
f 414 48 245
f 47 246 245
f 245 246 414
f 246 25 414
f 414 25 221
f 25 246 223
f 223 246 415
f 246 47 415
f 415 47 247
f 46 224 247
f 247 224 415
f 224 24 415
f 415 24 223
f 46 248 225
f 225 248 416
f 248 57 416
f 416 57 249
f 56 226 249
f 249 226 416
f 226 45 416
f 416 45 225
f 56 250 227
f 227 250 417
f 89 251 250
f 250 251 417
f 251 99 417
f 417 99 252
f 252 66 417
f 417 66 227
f 229 66 418
f 418 66 252
f 99 253 252
f 252 253 418
f 253 98 418
f 418 98 254
f 65 229 254
f 254 229 418
f 103 232 255
f 255 232 419
f 232 54 419
f 419 54 230
f 65 256 230
f 230 256 419
f 256 102 419
f 419 102 255
f 31 233 257
f 257 233 420
f 233 104 420
f 420 104 231
f 103 258 231
f 231 258 420
f 258 53 420
f 420 53 257
f 235 31 421
f 421 31 257
f 53 259 257
f 257 259 421
f 259 52 421
f 421 52 260
f 30 235 260
f 260 235 421
f 237 30 422
f 422 30 260
f 52 261 260
f 260 261 422
f 261 51 422
f 422 51 262
f 29 237 262
f 262 237 422
f 239 83 423
f 423 83 238
f 29 263 238
f 238 263 423
f 263 28 423
f 423 28 240
f 84 239 240
f 240 239 423
f 241 28 424
f 424 28 264
f 50 265 264
f 264 265 424
f 265 49 424
f 424 49 242
f 27 241 242
f 242 241 424
f 243 49 425
f 425 49 266
f 60 267 266
f 266 267 425
f 267 59 425
f 425 59 268
f 268 48 425
f 425 48 243
f 48 268 245
f 245 268 426
f 268 59 426
f 426 59 269
f 58 270 269
f 269 270 426
f 270 47 426
f 426 47 245
f 47 270 247
f 247 270 427
f 270 58 427
f 427 58 271
f 57 248 271
f 271 248 427
f 248 46 427
f 427 46 247
f 57 272 249
f 249 272 428
f 90 273 272
f 272 273 428
f 273 89 428
f 428 89 250
f 250 56 428
f 428 56 249
f 251 89 429
f 429 89 274
f 12 275 274
f 274 275 429
f 275 13 429
f 429 13 276
f 99 251 276
f 276 251 429
f 253 99 430
f 430 99 276
f 13 277 276
f 276 277 430
f 277 22 430
f 430 22 278
f 98 253 278
f 278 253 430
f 102 256 279
f 279 256 431
f 256 65 431
f 431 65 254
f 98 280 254
f 254 280 431
f 280 101 431
f 431 101 279
f 53 258 281
f 281 258 432
f 258 103 432
f 432 103 255
f 102 282 255
f 255 282 432
f 282 64 432
f 432 64 281
f 259 53 433
f 433 53 281
f 64 283 281
f 281 283 433
f 283 63 433
f 433 63 284
f 52 259 284
f 284 259 433
f 261 52 434
f 434 52 284
f 63 285 284
f 284 285 434
f 285 62 434
f 434 62 286
f 51 261 286
f 286 261 434
f 263 29 435
f 435 29 262
f 51 287 262
f 262 287 435
f 287 50 435
f 435 50 264
f 28 263 264
f 264 263 435
f 265 50 436
f 436 50 288
f 61 289 288
f 288 289 436
f 289 60 436
f 436 60 266
f 49 265 266
f 266 265 436
f 267 60 437
f 437 60 290
f 290 93 437
f 437 93 291
f 92 292 291
f 291 292 437
f 59 267 292
f 292 267 437
f 59 292 269
f 269 292 438
f 292 92 438
f 438 92 293
f 91 294 293
f 293 294 438
f 294 58 438
f 438 58 269
f 58 294 271
f 271 294 439
f 294 91 439
f 439 91 295
f 90 272 295
f 295 272 439
f 272 57 439
f 439 57 271
f 273 90 440
f 440 90 296
f 14 297 296
f 296 297 440
f 297 12 440
f 440 12 274
f 89 273 274
f 274 273 440
f 275 12 441
f 441 12 298
f 109 299 298
f 298 299 441
f 299 120 441
f 441 120 300
f 13 275 300
f 300 275 441
f 277 13 442
f 442 13 300
f 120 301 300
f 300 301 442
f 301 119 442
f 442 119 302
f 22 277 302
f 302 277 442
f 303 100 443
f 443 100 304
f 101 280 304
f 304 280 443
f 280 98 443
f 443 98 278
f 22 303 278
f 278 303 443
f 64 282 305
f 305 282 444
f 282 102 444
f 444 102 279
f 101 306 279
f 279 306 444
f 306 97 444
f 444 97 305
f 283 64 445
f 445 64 305
f 97 307 305
f 305 307 445
f 307 96 445
f 445 96 308
f 63 283 308
f 308 283 445
f 285 63 446
f 446 63 308
f 96 309 308
f 308 309 446
f 309 95 446
f 446 95 310
f 62 285 310
f 310 285 446
f 287 51 447
f 447 51 286
f 62 311 286
f 286 311 447
f 311 61 447
f 447 61 288
f 50 287 288
f 288 287 447
f 61 312 289
f 289 312 448
f 312 94 448
f 448 94 313
f 93 290 313
f 313 290 448
f 290 60 448
f 448 60 289
f 93 314 291
f 291 314 449
f 314 20 449
f 449 20 315
f 21 316 315
f 315 316 449
f 316 92 449
f 449 92 291
f 92 316 293
f 293 316 450
f 316 21 450
f 450 21 317
f 15 318 317
f 317 318 450
f 318 91 450
f 450 91 293
f 91 318 295
f 295 318 451
f 318 15 451
f 451 15 319
f 14 296 319
f 319 296 451
f 296 90 451
f 451 90 295
f 297 14 452
f 452 14 320
f 110 321 320
f 320 321 452
f 321 109 452
f 452 109 298
f 12 297 298
f 298 297 452
f 299 109 453
f 453 109 322
f 119 301 323
f 324 118 454
f 454 118 325
f 100 303 325
f 325 303 454
f 303 22 454
f 454 22 302
f 119 324 302
f 302 324 454
f 100 326 304
f 304 326 455
f 326 16 455
f 455 16 327
f 97 306 327
f 327 306 455
f 306 101 455
f 455 101 304
f 307 97 456
f 456 97 327
f 16 328 327
f 327 328 456
f 328 17 456
f 456 17 329
f 96 307 329
f 329 307 456
f 309 96 457
f 457 96 329
f 17 330 329
f 329 330 457
f 330 18 457
f 457 18 331
f 95 309 331
f 331 309 457
f 62 310 311
f 311 310 458
f 310 95 458
f 458 95 332
f 94 312 332
f 332 312 458
f 312 61 458
f 458 61 311
f 94 333 313
f 313 333 459
f 333 19 459
f 459 19 334
f 20 314 334
f 334 314 459
f 314 93 459
f 459 93 313
f 20 335 315
f 315 335 460
f 335 113 460
f 460 113 336
f 112 337 336
f 336 337 460
f 337 21 460
f 460 21 315
f 21 337 317
f 317 337 461
f 337 112 461
f 461 112 338
f 111 339 338
f 338 339 461
f 339 15 461
f 461 15 317
f 15 339 319
f 319 339 462
f 339 111 462
f 462 111 340
f 340 110 462
f 462 110 320
f 14 319 320
f 320 319 462
f 110 341 321
f 321 341 463
f 322 109 463
f 463 109 321
f 118 324 342
f 342 324 464
f 324 119 464
f 464 119 323
f 326 100 465
f 465 100 325
f 118 343 325
f 325 343 465
f 343 117 465
f 465 117 344
f 16 326 344
f 344 326 465
f 328 16 466
f 466 16 344
f 117 345 344
f 344 345 466
f 345 116 466
f 466 116 346
f 17 328 346
f 346 328 466
f 330 17 467
f 467 17 346
f 116 347 346
f 346 347 467
f 347 115 467
f 467 115 348
f 18 330 348
f 348 330 467
f 95 331 332
f 332 331 468
f 331 18 468
f 468 18 349
f 19 333 349
f 349 333 468
f 333 94 468
f 468 94 332
f 19 350 334
f 334 350 469
f 350 114 469
f 469 114 351
f 113 335 351
f 351 335 469
f 335 20 469
f 469 20 334
f 113 352 336
f 336 352 470
f 353 112 470
f 470 112 336
f 112 353 338
f 338 353 471
f 354 111 471
f 471 111 338
f 111 354 340
f 340 354 472
f 341 110 472
f 472 110 340
f 343 118 473
f 473 118 342
f 117 343 355
f 355 343 473
f 345 117 474
f 474 117 355
f 116 345 356
f 356 345 474
f 347 116 475
f 475 116 356
f 115 347 357
f 357 347 475
f 18 348 349
f 349 348 476
f 348 115 476
f 476 115 358
f 114 350 358
f 358 350 476
f 350 19 476
f 476 19 349
f 114 359 351
f 351 359 477
f 352 113 477
f 477 113 351
f 358 115 478
f 478 115 357
f 359 114 478
f 478 114 358

