# https://github.com/mikedh/trimesh
v 0.00056211 0.07690330 -0.01459381
v 0.02772056 0.06695638 -0.01917276
v -0.02481215 0.07083308 -0.01187000
v -0.04241619 0.05459377 -0.01067713
v 0.04654309 -0.00343812 -0.02490339
v 0.02117156 -0.02937601 -0.02343759
v -0.01062778 -0.03673756 -0.01977900
v -0.03568931 -0.01908583 -0.01443920
v -0.04933740 0.00857628 -0.01150957
v -0.05212961 0.03395712 -0.01031289
v 0.05083236 0.04907066 -0.02322569
v -0.00928278 0.04728487 -0.36568066
v 0.01154836 0.04702508 -0.36379161
v -0.02399282 0.03165898 -0.36369386
v -0.03118335 0.01462279 -0.35877195
v 0.02502078 -0.00782092 -0.34150919
v 0.01494346 -0.02108291 -0.33769301
v 0.00231186 -0.02572936 -0.33740351
v -0.01042914 -0.02408633 -0.34066364
v -0.02143750 -0.01612506 -0.34622797
v -0.02846260 -0.00309542 -0.35272732
v 0.02318731 0.03039921 -0.35724840
v -0.00650936 0.08766953 -0.17179349
v -0.03892435 0.07806545 -0.16913345
v -0.05883871 0.05353014 -0.16618016
v -0.06308767 0.02558658 -0.16245094
v -0.05421160 -0.00152932 -0.15975937
v -0.03327334 -0.02265307 -0.15911493
v -0.00594740 -0.02454542 -0.16057447
v 0.01696201 -0.01255426 -0.16350189
v 0.03721101 0.00241706 -0.16719010
v 0.04632457 0.05333548 -0.17315367
v 0.02534659 0.07827227 -0.17359796
v -0.00135889 0.08521118 -0.06119266
v -0.03041394 0.07820107 -0.05800405
v -0.05098985 0.05893092 -0.05604318
v -0.05779551 0.03352126 -0.05575469
v -0.05352201 0.00632610 -0.05586138
v -0.03643490 -0.01904476 -0.05765644
v -0.00944319 -0.02829927 -0.06217054
v 0.01810747 -0.02012394 -0.06568268
v 0.04024589 0.00032139 -0.06789646
v 0.04714698 0.05166385 -0.06678995
v 0.02776442 0.07484933 -0.06469551
v -0.00815386 0.07518825 -0.22747776
v -0.03499368 0.06673551 -0.22531953
v -0.05213553 0.04535169 -0.22190341
v -0.05532062 0.02001410 -0.21777359
v -0.04695015 -0.00370517 -0.21456966
v -0.02809657 -0.02015045 -0.21281150
v -0.00500745 -0.02156109 -0.21252468
v 0.01446833 -0.01144502 -0.21457383
v 0.03165998 0.00206896 -0.21857205
v 0.03694147 0.04716041 -0.22628817
v 0.01866359 0.06744075 -0.22796509
v -0.00766992 0.06458017 -0.27988330
v -0.03033549 0.05543176 -0.27849391
v -0.04329427 0.03494066 -0.27479914
v -0.04547480 0.01271264 -0.27032408
v -0.03774668 -0.00676644 -0.26613525
v -0.02176003 -0.01834143 -0.26271716
v -0.00389149 -0.01936184 -0.26101056
v 0.01155079 -0.01191720 -0.26220164
v 0.02506737 0.00090584 -0.26579264
v 0.03046226 0.04112761 -0.27537486
v 0.01525480 0.05888169 -0.27893999
v 0.00303164 0.07404611 0.03110132
v -0.02253962 0.06615559 0.03438705
v -0.03920938 0.04925387 0.03524399
v -0.05047086 0.02933399 0.03458247
v -0.04802507 0.00400797 0.03123707
v -0.03385255 -0.02416710 0.02563158
v -0.01061232 -0.04755577 0.01841870
v 0.02596632 -0.04267572 0.01379699
v 0.05257729 -0.00996181 0.01442751
v 0.06018482 0.05017655 0.01872706
v 0.03323308 0.06798582 0.02513841
v -0.00464065 0.09172904 -0.11429706
v 0.02777145 0.08091927 -0.11698368
v 0.04851804 0.05490557 -0.11773655
v 0.03878440 0.00267980 -0.11460546
v 0.01780476 -0.01495060 -0.11237159
v -0.00750091 -0.02637290 -0.10892364
v -0.03665657 -0.02237666 -0.10583606
v -0.05778252 0.00181771 -0.10542378
v -0.06463011 0.03042262 -0.10678741
v -0.05900154 0.05896884 -0.10906222
v -0.03787364 0.08338288 -0.11134288
v -0.00750966 0.05657874 -0.32702723
v -0.02552547 0.04309125 -0.32564965
v -0.03459387 0.02341316 -0.32131419
v -0.03527734 0.00423661 -0.31601885
v -0.02841295 -0.01133941 -0.31085238
v -0.01584440 -0.01995862 -0.30613497
v -0.00166560 -0.02075618 -0.30340907
v 0.01132480 -0.01545065 -0.30371580
v 0.02200059 -0.00305711 -0.30700245
v 0.02670049 0.03542777 -0.31929854
v 0.01387798 0.05300940 -0.32492235
v 0.02822532 0.01196864 -0.34815285
v 0.02811550 0.01483495 -0.31260297
v 0.03350932 0.01909292 -0.27059540
v 0.04099631 0.02254510 -0.22269544
v 0.04924223 0.02475843 -0.17061314
v 0.05101684 0.02635705 -0.11664078
v 0.05074535 0.02534316 -0.06799766
v 0.05823852 0.02393525 -0.02513829
v 0.06813078 0.02079370 0.01484522
v -0.01071329 0.04092397 -0.38985303
v -0.02545521 0.02282225 -0.39000341
v -0.03295954 0.00204186 -0.38730761
v -0.02682145 -0.01551034 -0.38066837
v -0.01844834 -0.02899274 -0.37495968
v -0.00599219 -0.03698496 -0.36917880
v 0.00794466 -0.03937584 -0.36635056
v 0.02205453 -0.03333184 -0.36834916
v 0.03210742 -0.01612244 -0.37332138
v 0.03189456 0.00735313 -0.37927112
v 0.01975711 0.02748675 -0.38558975
v 0.00754146 0.04518901 -0.38894156
v 0.01791399 0.07176930 0.02842018
v 0.04857594 0.06129092 0.02160522
v -0.01082942 0.07210662 0.03310469
v 0.00156968 0.07535003 0.00861928
v 0.01458295 0.07372864 -0.01690295
v 0.03011808 0.06725271 0.00301650
v 0.04077709 0.05931851 -0.02132306
v 0.05567178 0.04975469 -0.00255638
v 0.06695607 0.03632533 0.01647079
v -0.05125917 0.01707342 0.03324330
v -0.04619969 0.04014314 0.03517148
v -0.03138554 0.05775060 0.03501987
v -0.02354856 0.06881385 0.01148772
v -0.01292533 0.07553357 -0.01295975
v -0.00050004 0.08074688 -0.03699997
v 0.01404171 0.08256136 -0.06299344
v 0.02712775 0.07047557 -0.04079333
v 0.03913495 0.06423610 -0.06587407
v 0.04756471 0.05003636 -0.04404756
v 0.05670093 0.03704537 -0.02446893
v 0.06340609 0.02270709 -0.00518307
v 0.06318399 0.00507306 0.01425645
v 0.03909626 -0.02551008 0.01440698
v 0.00708976 -0.05020215 0.01534289
v -0.04132555 -0.00959029 0.02877241
v -0.04865056 0.00774444 0.01000351
v -0.05224578 0.02174626 -0.01078272
v -0.05092442 0.03281803 0.01196405
v -0.04871911 0.04497106 -0.01034984
v -0.03998423 0.05227900 0.01220101
v -0.03462395 0.06348397 -0.01108727
v -0.02738489 0.07405938 -0.03429386
v -0.01657507 0.08336760 -0.05955425
v -0.00317401 0.08921735 -0.08679423
v 0.01240383 0.08877214 -0.11578235
v 0.02784908 0.07872371 -0.08990678
v 0.04026226 0.06914642 -0.11759296
v 0.04772472 0.05370562 -0.09141549
v 0.05341807 0.02506472 -0.04598907
v 0.05082027 0.03836658 -0.06756273
v 0.05495597 0.01018541 -0.02527359
v 0.04970793 -0.00633585 -0.00502816
v 0.03471595 -0.01686062 -0.02417782
v 0.02342855 -0.03575614 -0.00470084
v 0.00536935 -0.03677766 -0.02224091
v -0.01092996 -0.04180964 -0.00051907
v -0.02473439 -0.03837551 0.02189931
v -0.03502610 -0.02053201 0.00592414
v -0.04368280 -0.00524572 -0.01260844
v -0.05078614 0.00793622 -0.03304204
v -0.05679666 0.02010590 -0.05572012
v -0.05484009 0.03410509 -0.03217271
v -0.05607262 0.04654082 -0.05583784
v -0.04675554 0.05708284 -0.03241876
v -0.04221645 0.06983674 -0.05672833
v -0.03459390 0.08183430 -0.08356252
v -0.02192263 0.09015025 -0.11273834
v -0.00566761 0.09139028 -0.14307079
v 0.01010704 0.08512169 -0.17282835
v 0.02711989 0.08089690 -0.14508805
v 0.03773601 0.06717573 -0.17370144
v 0.04834091 0.05482031 -0.14520785
v 0.05193524 0.04022118 -0.11737391
v 0.05023434 0.02614563 -0.09152624
v 0.04330282 -0.00097984 -0.04625544
v 0.04708537 0.01259857 -0.06813076
v 0.03035808 -0.01097357 -0.06701508
v 0.01905980 -0.02333901 -0.04392853
v 0.00458603 -0.02616447 -0.06412795
v -0.01000211 -0.03153876 -0.04061934
v -0.02494062 -0.03118149 -0.01723471
v -0.03525160 -0.01789538 -0.03564718
v -0.04727450 -0.00751984 -0.05626515
v -0.05654781 0.00395767 -0.07984522
v -0.06290892 0.01601798 -0.10592291
v -0.06181164 0.03220766 -0.08038273
v -0.06357987 0.04474969 -0.10787925
v -0.05557686 0.05952505 -0.08147231
v -0.05038098 0.07226747 -0.11018363
v -0.03936574 0.08192701 -0.14028266
v -0.02346069 0.08541663 -0.17054358
v -0.00730343 0.08182944 -0.19990209
v 0.00585242 0.07312388 -0.22790185
v 0.02229016 0.07320852 -0.20126292
v 0.02923425 0.05845747 -0.22744253
v 0.04225628 0.05045341 -0.20030805
v 0.05022355 0.03862243 -0.17208382
v 0.05125215 0.02586321 -0.14327845
v 0.04655658 0.01374651 -0.11560652
v 0.03867915 0.00218374 -0.09059492
v 0.02880131 -0.00661025 -0.11369702
v 0.01790738 -0.01705433 -0.08840451
v 0.00576825 -0.02177616 -0.11075440
v -0.00858080 -0.02668194 -0.08477280
v -0.02322948 -0.02590756 -0.05988786
v -0.03703018 -0.02096850 -0.08094320
v -0.04922278 -0.01184147 -0.10526296
v -0.05676439 0.00003112 -0.13232544
v -0.06030785 0.01175218 -0.16082218
v -0.06499194 0.02815505 -0.13449040
v -0.06258516 0.03949084 -0.16435894
v -0.06023817 0.05680012 -0.13775769
v -0.05088842 0.06684904 -0.16770115
v -0.03703472 0.07278488 -0.19754735
v -0.02228914 0.07303257 -0.22662738
v -0.00800137 0.06947338 -0.25401935
v 0.00435276 0.06356170 -0.27972713
v 0.01646018 0.06273176 -0.25374034
v 0.02412286 0.05106422 -0.27745166
v 0.03311370 0.04404742 -0.25124070
v 0.04554220 0.02359679 -0.19706151
v 0.04095490 0.03483422 -0.22465363
v 0.04460026 0.01264385 -0.16896453
v 0.03860239 0.00258692 -0.14051369
v 0.02752012 -0.00568294 -0.16530386
v 0.01751888 -0.01352190 -0.13758889
v 0.00613351 -0.01939697 -0.16191843
v -0.00658961 -0.02568970 -0.13446555
v -0.02202228 -0.02708325 -0.10713437
v -0.03529160 -0.02299094 -0.13218430
v -0.04535717 -0.01375112 -0.15920445
v -0.05092743 -0.00259941 -0.18745181
v -0.05239965 0.00773239 -0.21595940
v -0.05947782 0.02319222 -0.19032577
v -0.05527613 0.03269187 -0.21986154
v -0.05558935 0.04990516 -0.19433811
v -0.04531746 0.05715128 -0.22371039
v -0.03272313 0.06115822 -0.25234351
v -0.01963033 0.06187054 -0.27945247
v -0.00742371 0.06041288 -0.30433443
v 0.00367171 0.05711910 -0.32633892
v 0.01450107 0.05565781 -0.30272940
v 0.02174943 0.04532441 -0.32255867
v 0.02851227 0.03824165 -0.29814795
v 0.03703473 0.02099826 -0.24719980
v 0.03373611 0.03008966 -0.27304360
v 0.03482009 0.00220250 -0.19316533
v 0.03769682 0.01144919 -0.22066310
v 0.02346183 -0.00522549 -0.21642730
v 0.01593596 -0.01191637 -0.18933681
v 0.00523612 -0.01737592 -0.21324435
v -0.00547501 -0.02313013 -0.18683073
v -0.01944056 -0.02614859 -0.15959379
v -0.03091948 -0.02156555 -0.18631813
v -0.03881854 -0.01357943 -0.21353772
v -0.04246610 -0.00505145 -0.24107340
v -0.04286399 0.00231545 -0.26815143
v -0.05051306 0.01661264 -0.24475059
v -0.04562701 0.02373392 -0.27256557
v -0.04791889 0.04050668 -0.24892882
v -0.03838134 0.04592104 -0.27691719
v -0.02799697 0.04933900 -0.30311891
v -0.01767974 0.05134389 -0.32681897
v -0.00883806 0.05153316 -0.34802362
v 0.00123859 0.05080927 -0.36531731
v 0.01237454 0.04948240 -0.34585199
v 0.01867692 0.03934778 -0.36105505
v 0.02481700 0.03271619 -0.33914772
v 0.03031317 0.01705197 -0.29243663
v 0.02869410 0.02496585 -0.31590435
v 0.02812591 0.00176848 -0.24280879
v 0.03031267 0.00925099 -0.26812026
v 0.01859264 -0.00604801 -0.26373604
v 0.01291543 -0.01141348 -0.23900256
v 0.00413362 -0.01657143 -0.26125649
v -0.00450704 -0.02020883 -0.23732778
v -0.01634203 -0.02257581 -0.21238628
v -0.02500571 -0.01890442 -0.23841295
v -0.03050542 -0.01388222 -0.26430139
v -0.03298011 -0.00906078 -0.28962013
v -0.03278312 -0.00427959 -0.31340560
v -0.04046948 0.00829457 -0.29426584
v -0.03573821 0.01363452 -0.31868538
v -0.03887856 0.02897863 -0.29909107
v -0.03131460 0.03348725 -0.32374486
v -0.02446443 0.03688561 -0.34607300
v -0.01667967 0.03940219 -0.36484751
v -0.00963455 0.04297934 -0.37935463
v -0.00271246 0.04796062 -0.38924441
v 0.00970136 0.04522787 -0.37821713
v 0.01421113 0.03713214 -0.38776764
v 0.02149321 0.02830153 -0.37291101
v 0.02643719 0.02128322 -0.35268262
v 0.02741822 0.01304464 -0.33118501
v 0.02279264 -0.00066568 -0.28732064
v 0.02569335 0.00548103 -0.30957898
v 0.01714357 -0.01017976 -0.30503103
v 0.01093433 -0.01331096 -0.28395894
v 0.00501089 -0.01889866 -0.30317959
v -0.00292825 -0.01950709 -0.28324619
v -0.01260379 -0.02005254 -0.26152804
v -0.01861148 -0.01880564 -0.28549293
v -0.02265806 -0.01663092 -0.30837986
v -0.02441785 -0.01353105 -0.32977143
v -0.02556111 -0.01019530 -0.34943131
v -0.03102776 0.00056944 -0.33553126
v -0.03035507 0.00522051 -0.35594860
v -0.03195657 0.01863920 -0.34118691
v -0.02951711 0.02332778 -0.36163810
v -0.02468045 0.02634943 -0.37825856
v -0.01751941 0.03178802 -0.39010879
v -0.01262419 0.04338679 -0.39963785
v 0.01817438 0.03045678 -0.39722869
v 0.02587766 0.01776521 -0.38262227
v 0.02980986 0.00907952 -0.36441359
v 0.02780912 0.00186879 -0.34455535
v 0.02279202 -0.00552840 -0.32501498
v 0.02060436 -0.01568919 -0.33918241
v 0.01270518 -0.01799252 -0.32158747
v 0.00879338 -0.02425552 -0.33707210
v 0.00017497 -0.02278335 -0.32142422
v -0.00868306 -0.02123035 -0.30441996
v -0.01304340 -0.02162738 -0.32451144
v -0.01628646 -0.02084663 -0.34325030
v -0.01970762 -0.02223769 -0.36033037
v -0.02312933 -0.02271593 -0.37767562
v -0.02739353 -0.00978034 -0.36741707
v -0.03013887 -0.00743955 -0.38422719
v -0.03167486 0.00758109 -0.37418422
v -0.03221598 0.01313927 -0.38929728
v -0.02608070 0.02353134 -0.40094641
v 0.03007133 0.00794376 -0.39277515
v 0.03426082 -0.00448724 -0.37614384
v 0.02841628 -0.01183876 -0.35713175
v 0.02786965 -0.02597770 -0.37071052
v 0.01832329 -0.02629823 -0.35243472
v 0.01505525 -0.03778587 -0.36674890
v 0.00509354 -0.03138851 -0.35142568
v -0.00418229 -0.02567142 -0.33865646
v -0.00803991 -0.02972370 -0.35452250
v -0.01266290 -0.03386342 -0.37194303
v -0.01927610 -0.03407382 -0.38848504
v -0.02740885 -0.01878245 -0.39221516
v -0.03258835 -0.00006532 -0.39986917
v 0.03334905 -0.01742308 -0.38869378
v 0.02530289 -0.03864134 -0.38350883
v 0.01067233 -0.04675039 -0.37997988
v 0.00088721 -0.03882539 -0.36714593
v -0.00499417 -0.04440522 -0.38250408
v 0.01584496 0.07245491 0.00602177
v 0.04462609 0.06031915 -0.00015247
v -0.01189455 0.07396919 0.01037240
v 0.01416455 0.07801989 -0.03881630
v 0.03877540 0.06127168 -0.04255381
v 0.06206776 0.03690246 -0.00417528
v -0.05169582 0.02080599 0.01121819
v -0.04659559 0.04324219 0.01217636
v -0.03264371 0.06092700 0.01221094
v -0.01472142 0.07899378 -0.03556445
v 0.01314341 0.08639716 -0.08840194
v 0.03979809 0.06738088 -0.09087244
v 0.05237759 0.03778010 -0.04523292
v 0.05922902 0.00805158 -0.00546736
v 0.03717868 -0.02107945 -0.00478390
v 0.00613613 -0.04291661 -0.00328606
v -0.04225560 -0.00595047 0.00828913
v -0.05395548 0.02133189 -0.03252855
v -0.05241971 0.04615504 -0.03218141
v -0.03813188 0.06649319 -0.03311607
v -0.01948617 0.08763479 -0.08511654
v 0.01152830 0.08847377 -0.14425978
v 0.03980325 0.06917428 -0.14547685
v 0.05095928 0.03958797 -0.09165236
v 0.05053617 0.01204900 -0.04636571
v 0.03228908 -0.01327272 -0.04528132
v 0.00470060 -0.02983930 -0.04256800
v -0.02513805 -0.03413650 0.00280023
v -0.04488333 -0.00567948 -0.03390440
v -0.06071952 0.01812069 -0.08001241
v -0.06038055 0.04603648 -0.08085677
v -0.04695186 0.07192497 -0.08232817
v -0.02330114 0.08938142 -0.14168540
v 0.00806405 0.07945623 -0.20074293
v 0.03404567 0.06317229 -0.20115158
v 0.05204712 0.03994832 -0.14440617
v 0.04599584 0.01359435 -0.09116390
v 0.02925134 -0.00815850 -0.08968583
v 0.00517444 -0.02356541 -0.08677855
v -0.02347910 -0.02727100 -0.03816041
v -0.04901762 -0.00983061 -0.07992759
v -0.06267412 0.01390477 -0.13316777
v -0.06420551 0.04240167 -0.13613531
v -0.05184339 0.07048146 -0.13902202
v -0.02286325 0.07966554 -0.19885537
v 0.00482424 0.06786324 -0.25414011
v 0.02611839 0.05452464 -0.25279555
v 0.04607242 0.03674759 -0.19886807
v 0.04653401 0.01327330 -0.14189956
v 0.02840012 -0.00595569 -0.13911822
v 0.00611027 -0.02046970 -0.13599893
v -0.02281177 -0.02622467 -0.08270422
v -0.04777627 -0.01314727 -0.13194582
v -0.05658607 0.00993439 -0.18865111
v -0.05914254 0.03661766 -0.19236985
v -0.04815441 0.06234970 -0.19602093
v -0.02093214 0.06717060 -0.25338861
v 0.00408653 0.06005258 -0.30388311
v 0.02286034 0.04801787 -0.30076101
v 0.03685632 0.03253918 -0.24932721
v 0.04145359 0.01201357 -0.19513556
v 0.02579778 -0.00543244 -0.19116613
v 0.00575002 -0.01834864 -0.18783942
v -0.02082251 -0.02711976 -0.13311413
v -0.04241836 -0.01375199 -0.18667969
v -0.04772986 0.00523154 -0.24278274
v -0.05062686 0.02855092 -0.24684659
v -0.04201774 0.05181995 -0.25080326
v -0.01857133 0.05678257 -0.30412588
v 0.00211918 0.05310464 -0.34748402
v 0.02016901 0.04202219 -0.34298512
v 0.03096052 0.02752219 -0.29531220
v 0.03385352 0.01053333 -0.24497744
v 0.02078630 -0.00529677 -0.24078915
v 0.00461828 -0.01671421 -0.23780891
v -0.01803538 -0.02448800 -0.18634775
v -0.03474702 -0.01343461 -0.23962876
v -0.03782298 -0.00115001 -0.29190132
v -0.04076757 0.01844513 -0.29665950
v -0.03468117 0.03951618 -0.30131266
v -0.01747084 0.04491914 -0.34750792
v -0.00038537 0.04863365 -0.37920484
v 0.01663620 0.03718601 -0.37594298
v 0.02698602 0.02320814 -0.33478329
v 0.02731982 0.00760284 -0.28971753
v 0.01723733 -0.00769964 -0.28536472
v 0.00420431 -0.01726180 -0.28323355
v -0.01457429 -0.02100460 -0.23755011
v -0.02636339 -0.01506368 -0.28744051
v -0.02845599 -0.00713011 -0.33265081
v -0.03208718 0.00928697 -0.33840212
v -0.02988599 0.02795557 -0.34388545
v -0.01663147 0.03444926 -0.37901786
v -0.00492492 0.05038876 -0.39927253
v 0.02606167 0.01889500 -0.36877498
v 0.02582479 0.00342210 -0.32786056
v 0.01830436 -0.01285613 -0.32289180
v 0.00662231 -0.02113105 -0.32108954
v -0.01058881 -0.02014742 -0.28403661
v -0.01914984 -0.01840800 -0.32697430
v -0.02422026 -0.01662387 -0.36372861
v -0.02986380 -0.00164053 -0.37101647
v -0.03061499 0.01747037 -0.37663767
v -0.01894237 0.03371876 -0.40020475
v 0.02439818 0.01964958 -0.39499703
v 0.03065451 -0.00149361 -0.36048600
v 0.02413830 -0.02028788 -0.35439512
v 0.01179588 -0.02988894 -0.35139719
v -0.00649218 -0.02302232 -0.32261053
v -0.01415101 -0.02661768 -0.35724488
v -0.02383390 -0.02634565 -0.39030024
v -0.03058866 -0.01066092 -0.39596269
v -0.03189214 0.01214723 -0.40127495
v 0.03407091 -0.00453426 -0.39079234
v 0.03024863 -0.02934262 -0.38623521
v 0.01833800 -0.04444961 -0.38104054
v -0.00157256 -0.03129482 -0.35249463
v -0.01273672 -0.04039557 -0.38535991
v 0.00296704 -0.04647752 -0.38059285
f 2 125 126
f 126 125 360
f 125 1 360
f 360 1 124
f 67 121 124
f 124 121 360
f 121 77 360
f 360 77 126
f 128 11 361
f 361 11 127
f 127 2 361
f 361 2 126
f 77 122 126
f 126 122 361
f 122 76 361
f 361 76 128
f 1 134 124
f 124 134 362
f 134 3 362
f 362 3 133
f 68 123 133
f 133 123 362
f 123 67 362
f 362 67 124
f 137 44 363
f 363 44 136
f 136 34 363
f 363 34 135
f 1 125 135
f 135 125 363
f 2 137 125
f 125 137 363
f 139 43 364
f 364 43 138
f 44 137 138
f 138 137 364
f 137 2 364
f 364 2 127
f 11 139 127
f 127 139 364
f 76 129 128
f 128 129 365
f 129 108 365
f 365 108 141
f 141 107 365
f 365 107 140
f 11 128 140
f 140 128 365
f 148 10 366
f 366 10 147
f 9 146 147
f 147 146 366
f 146 71 366
f 366 71 130
f 70 148 130
f 130 148 366
f 4 149 150
f 150 149 367
f 10 148 149
f 149 148 367
f 70 131 148
f 148 131 367
f 131 69 367
f 367 69 150
f 3 151 133
f 133 151 368
f 4 150 151
f 151 150 368
f 69 132 150
f 150 132 368
f 132 68 368
f 368 68 133
f 34 153 135
f 135 153 369
f 153 35 369
f 369 35 152
f 3 134 152
f 152 134 369
f 134 1 369
f 369 1 135
f 79 155 156
f 156 155 370
f 155 78 370
f 370 78 154
f 34 136 154
f 154 136 370
f 136 44 370
f 370 44 156
f 80 157 158
f 158 157 371
f 157 79 371
f 371 79 156
f 44 138 156
f 156 138 371
f 138 43 371
f 371 43 158
f 43 139 160
f 160 139 372
f 139 11 372
f 372 11 140
f 107 159 140
f 140 159 372
f 159 106 372
f 372 106 160
f 75 162 142
f 142 162 373
f 162 5 373
f 373 5 161
f 107 141 161
f 161 141 373
f 108 142 141
f 141 142 373
f 164 6 374
f 374 6 163
f 5 162 163
f 163 162 374
f 162 75 374
f 374 75 143
f 74 164 143
f 143 164 374
f 166 7 375
f 375 7 165
f 6 164 165
f 165 164 375
f 164 74 375
f 375 74 144
f 73 166 144
f 144 166 375
f 146 9 376
f 376 9 169
f 8 168 169
f 169 168 376
f 168 72 376
f 376 72 145
f 71 146 145
f 145 146 376
f 37 171 172
f 172 171 377
f 38 170 171
f 171 170 377
f 170 9 377
f 377 9 147
f 10 172 147
f 147 172 377
f 36 173 174
f 174 173 378
f 173 37 378
f 378 37 172
f 10 149 172
f 172 149 378
f 149 4 378
f 378 4 174
f 35 175 152
f 152 175 379
f 175 36 379
f 379 36 174
f 4 151 174
f 174 151 379
f 151 3 379
f 379 3 152
f 78 177 154
f 154 177 380
f 177 88 380
f 380 88 176
f 35 153 176
f 176 153 380
f 153 34 380
f 380 34 154
f 33 179 180
f 180 179 381
f 179 23 381
f 381 23 178
f 78 155 178
f 178 155 381
f 155 79 381
f 381 79 180
f 32 181 182
f 182 181 382
f 181 33 382
f 382 33 180
f 79 157 180
f 180 157 382
f 157 80 382
f 382 80 182
f 158 43 383
f 383 43 160
f 106 184 160
f 160 184 383
f 184 105 383
f 383 105 183
f 183 80 383
f 383 80 158
f 106 159 186
f 186 159 384
f 159 107 384
f 384 107 161
f 5 185 161
f 161 185 384
f 185 42 384
f 384 42 186
f 188 41 385
f 385 41 187
f 42 185 187
f 187 185 385
f 185 5 385
f 385 5 163
f 6 188 163
f 163 188 385
f 190 40 386
f 386 40 189
f 41 188 189
f 189 188 386
f 188 6 386
f 386 6 165
f 7 190 165
f 165 190 386
f 168 8 387
f 387 8 191
f 7 166 191
f 191 166 387
f 166 73 387
f 387 73 167
f 72 168 167
f 167 168 387
f 170 38 388
f 388 38 193
f 39 192 193
f 193 192 388
f 192 8 388
f 388 8 169
f 9 170 169
f 169 170 388
f 86 195 196
f 196 195 389
f 195 85 389
f 389 85 194
f 38 171 194
f 194 171 389
f 171 37 389
f 389 37 196
f 87 197 198
f 198 197 390
f 197 86 390
f 390 86 196
f 37 173 196
f 196 173 390
f 173 36 390
f 390 36 198
f 88 199 176
f 176 199 391
f 199 87 391
f 391 87 198
f 36 175 198
f 198 175 391
f 175 35 391
f 391 35 176
f 23 201 178
f 178 201 392
f 201 24 392
f 392 24 200
f 88 177 200
f 200 177 392
f 177 78 392
f 392 78 178
f 55 203 204
f 204 203 393
f 203 45 393
f 393 45 202
f 23 179 202
f 202 179 393
f 179 33 393
f 393 33 204
f 54 205 206
f 206 205 394
f 205 55 394
f 394 55 204
f 33 181 204
f 204 181 394
f 181 32 394
f 394 32 206
f 80 183 182
f 182 183 395
f 105 208 183
f 183 208 395
f 208 104 395
f 395 104 207
f 207 32 395
f 395 32 182
f 42 210 186
f 186 210 396
f 210 81 396
f 396 81 209
f 105 184 209
f 209 184 396
f 184 106 396
f 396 106 186
f 212 82 397
f 397 82 211
f 81 210 211
f 211 210 397
f 210 42 397
f 397 42 187
f 41 212 187
f 187 212 397
f 214 83 398
f 398 83 213
f 82 212 213
f 213 212 398
f 212 41 398
f 398 41 189
f 40 214 189
f 189 214 398
f 192 39 399
f 399 39 215
f 40 190 215
f 215 190 399
f 190 7 399
f 399 7 191
f 8 192 191
f 191 192 399
f 194 85 400
f 400 85 217
f 84 216 217
f 217 216 400
f 216 39 400
f 400 39 193
f 38 194 193
f 193 194 400
f 26 219 220
f 220 219 401
f 27 218 219
f 219 218 401
f 218 85 401
f 401 85 195
f 195 86 401
f 401 86 220
f 25 221 222
f 222 221 402
f 221 26 402
f 402 26 220
f 86 197 220
f 220 197 402
f 197 87 402
f 402 87 222
f 24 223 200
f 200 223 403
f 223 25 403
f 403 25 222
f 87 199 222
f 222 199 403
f 199 88 403
f 403 88 200
f 45 225 202
f 202 225 404
f 225 46 404
f 404 46 224
f 24 201 224
f 224 201 404
f 201 23 404
f 404 23 202
f 66 227 228
f 228 227 405
f 227 56 405
f 405 56 226
f 45 203 226
f 226 203 405
f 203 55 405
f 405 55 228
f 230 65 406
f 406 65 229
f 66 228 229
f 229 228 406
f 55 205 228
f 228 205 406
f 54 230 205
f 205 230 406
f 54 206 232
f 232 206 407
f 206 32 407
f 407 32 207
f 104 231 207
f 207 231 407
f 231 103 407
f 407 103 232
f 81 234 209
f 209 234 408
f 234 31 408
f 408 31 233
f 104 208 233
f 233 208 408
f 208 105 408
f 408 105 209
f 236 30 409
f 409 30 235
f 31 234 235
f 235 234 409
f 234 81 409
f 409 81 211
f 82 236 211
f 211 236 409
f 238 29 410
f 410 29 237
f 30 236 237
f 237 236 410
f 236 82 410
f 410 82 213
f 83 238 213
f 213 238 410
f 216 84 411
f 411 84 239
f 83 214 239
f 239 214 411
f 214 40 411
f 411 40 215
f 39 216 215
f 215 216 411
f 218 27 412
f 412 27 241
f 28 240 241
f 241 240 412
f 240 84 412
f 412 84 217
f 85 218 217
f 217 218 412
f 244 48 413
f 413 48 243
f 49 242 243
f 243 242 413
f 242 27 413
f 413 27 219
f 26 244 219
f 219 244 413
f 47 245 246
f 246 245 414
f 245 48 414
f 414 48 244
f 26 221 244
f 244 221 414
f 221 25 414
f 414 25 246
f 46 247 224
f 224 247 415
f 247 47 415
f 415 47 246
f 25 223 246
f 246 223 415
f 223 24 415
f 415 24 224
f 56 249 226
f 226 249 416
f 249 57 416
f 416 57 248
f 46 225 248
f 248 225 416
f 225 45 416
f 416 45 226
f 252 99 417
f 417 99 251
f 89 250 251
f 251 250 417
f 56 227 250
f 250 227 417
f 227 66 417
f 417 66 252
f 254 98 418
f 418 98 253
f 99 252 253
f 253 252 418
f 252 66 418
f 418 66 229
f 65 254 229
f 229 254 418
f 65 230 256
f 256 230 419
f 230 54 419
f 419 54 232
f 103 255 232
f 232 255 419
f 255 102 419
f 419 102 256
f 103 231 258
f 258 231 420
f 231 104 420
f 420 104 233
f 31 257 233
f 233 257 420
f 257 53 420
f 420 53 258
f 260 52 421
f 421 52 259
f 53 257 259
f 259 257 421
f 257 31 421
f 421 31 235
f 30 260 235
f 235 260 421
f 262 51 422
f 422 51 261
f 52 260 261
f 261 260 422
f 260 30 422
f 422 30 237
f 29 262 237
f 237 262 422
f 240 28 423
f 423 28 263
f 29 238 263
f 263 238 423
f 238 83 423
f 423 83 239
f 84 240 239
f 239 240 423
f 242 49 424
f 424 49 265
f 50 264 265
f 265 264 424
f 264 28 424
f 424 28 241
f 27 242 241
f 241 242 424
f 268 59 425
f 425 59 267
f 60 266 267
f 267 266 425
f 266 49 425
f 425 49 243
f 243 48 425
f 425 48 268
f 58 269 270
f 270 269 426
f 269 59 426
f 426 59 268
f 48 245 268
f 268 245 426
f 245 47 426
f 426 47 270
f 57 271 248
f 248 271 427
f 271 58 427
f 427 58 270
f 47 247 270
f 270 247 427
f 247 46 427
f 427 46 248
f 250 89 428
f 428 89 273
f 90 272 273
f 273 272 428
f 57 249 272
f 272 249 428
f 249 56 428
f 428 56 250
f 276 13 429
f 429 13 275
f 12 274 275
f 275 274 429
f 274 89 429
f 429 89 251
f 99 276 251
f 251 276 429
f 278 22 430
f 430 22 277
f 13 276 277
f 277 276 430
f 276 99 430
f 430 99 253
f 98 278 253
f 253 278 430
f 98 254 280
f 280 254 431
f 254 65 431
f 431 65 256
f 102 279 256
f 256 279 431
f 279 101 431
f 431 101 280
f 102 255 282
f 282 255 432
f 255 103 432
f 432 103 258
f 53 281 258
f 258 281 432
f 281 64 432
f 432 64 282
f 284 63 433
f 433 63 283
f 64 281 283
f 283 281 433
f 281 53 433
f 433 53 259
f 52 284 259
f 259 284 433
f 286 62 434
f 434 62 285
f 63 284 285
f 285 284 434
f 284 52 434
f 434 52 261
f 51 286 261
f 261 286 434
f 264 50 435
f 435 50 287
f 51 262 287
f 287 262 435
f 262 29 435
f 435 29 263
f 28 264 263
f 263 264 435
f 266 60 436
f 436 60 289
f 61 288 289
f 289 288 436
f 288 50 436
f 436 50 265
f 49 266 265
f 265 266 436
f 92 291 292
f 292 291 437
f 291 93 437
f 437 93 290
f 290 60 437
f 437 60 267
f 59 292 267
f 267 292 437
f 91 293 294
f 294 293 438
f 293 92 438
f 438 92 292
f 59 269 292
f 292 269 438
f 269 58 438
f 438 58 294
f 90 295 272
f 272 295 439
f 295 91 439
f 439 91 294
f 58 271 294
f 294 271 439
f 271 57 439
f 439 57 272
f 274 12 440
f 440 12 297
f 14 296 297
f 297 296 440
f 296 90 440
f 440 90 273
f 89 274 273
f 273 274 440
f 300 120 441
f 441 120 299
f 109 298 299
f 299 298 441
f 298 12 441
f 441 12 275
f 13 300 275
f 275 300 441
f 302 119 442
f 442 119 301
f 120 300 301
f 301 300 442
f 300 13 442
f 442 13 277
f 22 302 277
f 277 302 442
f 278 98 443
f 443 98 280
f 101 304 280
f 280 304 443
f 304 100 443
f 443 100 303
f 22 278 303
f 303 278 443
f 101 279 306
f 306 279 444
f 279 102 444
f 444 102 282
f 64 305 282
f 282 305 444
f 305 97 444
f 444 97 306
f 308 96 445
f 445 96 307
f 97 305 307
f 307 305 445
f 305 64 445
f 445 64 283
f 63 308 283
f 283 308 445
f 310 95 446
f 446 95 309
f 96 308 309
f 309 308 446
f 308 63 446
f 446 63 285
f 62 310 285
f 285 310 446
f 288 61 447
f 447 61 311
f 62 286 311
f 311 286 447
f 286 51 447
f 447 51 287
f 50 288 287
f 287 288 447
f 93 313 290
f 290 313 448
f 313 94 448
f 448 94 312
f 61 289 312
f 312 289 448
f 289 60 448
f 448 60 290
f 21 315 316
f 316 315 449
f 315 20 449
f 449 20 314
f 93 291 314
f 314 291 449
f 291 92 449
f 449 92 316
f 15 317 318
f 318 317 450
f 317 21 450
f 450 21 316
f 92 293 316
f 316 293 450
f 293 91 450
f 450 91 318
f 14 319 296
f 296 319 451
f 319 15 451
f 451 15 318
f 91 295 318
f 318 295 451
f 295 90 451
f 451 90 296
f 298 109 452
f 452 109 321
f 110 320 321
f 321 320 452
f 320 14 452
f 452 14 297
f 12 298 297
f 297 298 452
f 322 109 453
f 453 109 299
f 119 323 301
f 302 22 454
f 454 22 303
f 100 325 303
f 303 325 454
f 325 118 454
f 454 118 324
f 119 302 324
f 324 302 454
f 97 327 306
f 306 327 455
f 327 16 455
f 455 16 326
f 100 304 326
f 326 304 455
f 304 101 455
f 455 101 306
f 329 17 456
f 456 17 328
f 16 327 328
f 328 327 456
f 327 97 456
f 456 97 307
f 96 329 307
f 307 329 456
f 331 18 457
f 457 18 330
f 17 329 330
f 330 329 457
f 329 96 457
f 457 96 309
f 95 331 309
f 309 331 457
f 94 332 312
f 312 332 458
f 332 95 458
f 458 95 310
f 62 311 310
f 310 311 458
f 311 61 458
f 458 61 312
f 20 334 314
f 314 334 459
f 334 19 459
f 459 19 333
f 94 313 333
f 333 313 459
f 313 93 459
f 459 93 314
f 112 336 337
f 337 336 460
f 336 113 460
f 460 113 335
f 20 315 335
f 335 315 460
f 315 21 460
f 460 21 337
f 111 338 339
f 339 338 461
f 338 112 461
f 461 112 337
f 21 317 337
f 337 317 461
f 317 15 461
f 461 15 339
f 320 110 462
f 462 110 340
f 340 111 462
f 462 111 339
f 15 319 339
f 339 319 462
f 14 320 319
f 319 320 462
f 110 321 341
f 341 321 463
f 321 109 463
f 463 109 322
f 323 119 464
f 464 119 324
f 118 342 324
f 324 342 464
f 344 117 465
f 465 117 343
f 118 325 343
f 343 325 465
f 325 100 465
f 465 100 326
f 16 344 326
f 326 344 465
f 346 116 466
f 466 116 345
f 117 344 345
f 345 344 466
f 344 16 466
f 466 16 328
f 17 346 328
f 328 346 466
f 348 115 467
f 467 115 347
f 116 346 347
f 347 346 467
f 346 17 467
f 467 17 330
f 18 348 330
f 330 348 467
f 19 349 333
f 333 349 468
f 349 18 468
f 468 18 331
f 95 332 331
f 331 332 468
f 332 94 468
f 468 94 333
f 113 351 335
f 335 351 469
f 351 114 469
f 469 114 350
f 19 334 350
f 350 334 469
f 334 20 469
f 469 20 335
f 113 336 352
f 352 336 470
f 336 112 470
f 470 112 353
f 112 338 353
f 353 338 471
f 338 111 471
f 471 111 354
f 111 340 354
f 354 340 472
f 340 110 472
f 472 110 341
f 342 118 473
f 473 118 343
f 117 355 343
f 343 355 473
f 355 117 474
f 474 117 345
f 116 356 345
f 345 356 474
f 356 116 475
f 475 116 347
f 115 357 347
f 347 357 475
f 114 358 350
f 350 358 476
f 358 115 476
f 476 115 348
f 18 349 348
f 348 349 476
f 349 19 476
f 476 19 350
f 114 351 359
f 359 351 477
f 351 113 477
f 477 113 352
f 357 115 478
f 478 115 358
f 358 114 478
f 478 114 359

