# https://github.com/mikedh/trimesh
v 0.11253552 0.07188261 -0.08955131
v 0.11249768 0.02295161 -0.09690924
v 0.11246281 -0.02611137 -0.09602730
v 0.03913654 0.13436972 -0.06720185
v 0.05481449 0.09145447 -0.11973839
v -0.01270992 0.11961897 -0.05624297
v -0.00645803 0.10149825 -0.11172730
v -0.04359661 0.09026986 -0.03950797
v -0.04690996 0.08309120 -0.09018081
v -0.06026211 0.05931037 -0.01582485
v -0.06921747 0.05129529 -0.06517944
v 0.05013344 -0.08155077 -0.08767428
v 0.06482522 -0.09028654 -0.03029712
v 0.09102412 -0.06130151 -0.08239056
v 0.08491944 -0.05689089 -0.11619304
v 0.00682073 -0.08751932 -0.06257749
v 0.01827048 -0.08471136 -0.00372557
v -0.06499355 -0.03763410 -0.03713092
v -0.05215697 -0.03907075 0.03272070
v -0.07607403 0.00915875 -0.04420854
v -0.06539951 0.01660708 0.03130858
v -0.03474258 -0.07409875 -0.04513086
v -0.01909649 -0.07054123 0.01844002
v 0.09514346 0.07876662 -0.10002661
v 0.08907895 0.12712920 -0.06744941
v 0.10468161 0.02765688 -0.10990986
v 0.09999539 0.04060463 -0.13486703
v -0.00086193 0.09204802 -0.15708871
v 0.05281694 0.08533351 -0.16770060
v -0.04361129 0.07620561 -0.13964416
v -0.06986524 0.04694506 -0.11923465
v 0.08113287 -0.05088052 -0.16137238
v 0.04355983 -0.08015511 -0.14325793
v -0.00164063 -0.09053284 -0.12281664
v -0.04364054 -0.07185477 -0.10682186
v -0.06937113 -0.03358823 -0.09925768
v -0.07824786 0.00883316 -0.10347620
v 0.09342169 0.04791198 -0.17306766
v 0.00287237 0.08896314 -0.20098609
v 0.05052186 0.08230285 -0.21085155
v -0.03717960 0.07267049 -0.18788683
v -0.06228401 0.04588160 -0.17392093
v 0.07416647 -0.04346269 -0.21080911
v 0.03859406 -0.07613885 -0.19968820
v -0.00699305 -0.08593846 -0.18528327
v -0.04707552 -0.06554888 -0.17169353
v -0.06824285 -0.02719065 -0.16395141
v -0.07279274 0.01173409 -0.16465205
v 0.08511528 0.04855982 -0.21573249
v 0.00515535 0.07417978 -0.33487737
v -0.02269515 0.06418450 -0.33090350
v -0.04124561 0.04509697 -0.32854691
v -0.05074780 0.02111523 -0.32860649
v -0.04885443 -0.00670317 -0.33239192
v -0.03395730 -0.03577411 -0.33891088
v -0.00755674 -0.05641376 -0.34632787
v 0.02908146 -0.05302610 -0.35218915
v 0.05870688 -0.02150386 -0.35292745
v 0.06633633 0.04663421 -0.34600720
v 0.03889492 0.06871635 -0.34026283
v 0.00519685 0.07982343 -0.29274499
v -0.02685995 0.06766308 -0.28633329
v -0.04699492 0.04493271 -0.28168300
v -0.05558218 0.01717064 -0.28020003
v -0.05498727 -0.01390913 -0.28316802
v -0.03940424 -0.04610567 -0.28995427
v -0.00745681 -0.06414030 -0.29771298
v 0.03180357 -0.06135436 -0.30491254
v 0.06468788 -0.03015187 -0.30796421
v 0.07019673 0.04541841 -0.30398029
v 0.04247496 0.07226285 -0.29903817
v 0.00425181 0.08589318 -0.24697673
v -0.03174245 0.07080107 -0.23747712
v -0.05361892 0.04476025 -0.22886246
v -0.06330733 0.01378921 -0.22464925
v -0.06191453 -0.02102057 -0.22639182
v -0.04445724 -0.05630557 -0.23382157
v -0.00845730 -0.07575866 -0.24423674
v 0.03470261 -0.06952918 -0.25411224
v 0.06909865 -0.03672469 -0.26015198
v 0.07623177 0.04686278 -0.25991189
v 0.04643625 0.07798537 -0.25502527
v 0.00303163 0.07404611 -0.37631351
v -0.02253963 0.06615559 -0.37302777
v -0.03920940 0.04925387 -0.37217084
v -0.05047087 0.02933399 -0.37283236
v -0.04802509 0.00400797 -0.37617776
v -0.03385256 -0.02416710 -0.38178325
v -0.01061234 -0.04755577 -0.38899612
v 0.02596631 -0.04267572 -0.39361784
v 0.05257727 -0.00996181 -0.39298731
v 0.06018481 0.05017655 -0.38868776
v 0.03323307 0.06798582 -0.38227642
v 0.06813077 0.02079370 -0.39256960
v 0.07370243 0.01365326 -0.35053563
v 0.07801234 0.00857554 -0.30672216
v 0.08371135 0.00506228 -0.26137799
v 0.09248084 0.00131638 -0.21581829
v 0.10076660 -0.00461075 -0.17130840
v 0.10444259 -0.01413746 -0.13228574
v 0.10351229 -0.02183842 -0.10518385
v 0.11251404 0.04671704 -0.09411107
v 0.11248046 -0.00208345 -0.09781681
v 0.11244508 -0.04890347 -0.09024237
v 0.08404738 0.14373748 -0.03864489
v 0.03349858 0.14492979 -0.03240196
v 0.06625715 0.13207592 -0.06891525
v 0.09292024 0.10432105 -0.08788824
v 0.10663457 0.07475639 -0.09268446
v -0.01355039 0.12240901 -0.02306485
v 0.01125105 0.13040464 -0.06280454
v 0.07791331 0.08407230 -0.10755110
v 0.04493048 0.11471958 -0.09532228
v 0.09949011 0.05344297 -0.10660054
v 0.10643458 0.02423500 -0.10111998
v -0.04102108 0.09156742 -0.01371411
v -0.03054625 0.10541645 -0.04845579
v 0.02101681 0.10212856 -0.11804298
v -0.00980282 0.11105557 -0.08612095
v 0.08277726 0.06778968 -0.13089626
v 0.10259081 0.03377604 -0.12109776
v 0.10590957 -0.02454667 -0.09744503
v 0.10547005 0.00176367 -0.10929909
v -0.06211537 -0.01473179 0.03457798
v -0.06461428 0.04126708 0.00220095
v -0.05527751 0.06422399 0.00370048
v -0.05316536 0.07508838 -0.02907278
v -0.04567313 0.08708918 -0.06505966
v -0.02897455 0.09458219 -0.10210773
v -0.00342306 0.09525998 -0.13504316
v 0.02551161 0.09247293 -0.16321744
v 0.05311045 0.08732056 -0.14555316
v 0.07687554 0.07014665 -0.17118958
v 0.09696918 0.04559306 -0.15289171
v 0.10388496 -0.01851947 -0.11721331
v 0.10586278 0.01221837 -0.13521238
v 0.10016575 -0.06860604 -0.07876949
v 0.09843107 -0.04284776 -0.09642127
v 0.08135108 -0.07828897 -0.06208950
v 0.03892604 -0.08783351 -0.01568785
v -0.03689536 -0.05782905 0.02693783
v -0.05987847 -0.03868631 -0.00253894
v -0.07294378 -0.01462779 -0.03885625
v -0.07189700 0.01138988 -0.01147581
v -0.07463227 0.03148234 -0.05346568
v -0.06526177 0.05480262 -0.03981689
v -0.06017672 0.06838499 -0.07747382
v -0.04591805 0.07920389 -0.11528228
v -0.02413216 0.08617490 -0.14909537
v 0.00127535 0.09010082 -0.17879647
v 0.02682437 0.08930968 -0.20637757
v 0.05193814 0.08391428 -0.18931514
v 0.07101608 0.06837037 -0.21400133
v 0.08966086 0.04852911 -0.19415581
v 0.10337827 -0.00947147 -0.15057868
v 0.10101258 0.02202752 -0.17297864
v 0.08660084 -0.05817422 -0.09710188
v 0.09733529 -0.03753615 -0.12598298
v 0.06897305 -0.07136498 -0.10284024
v 0.05541671 -0.08180238 -0.06023505
v 0.02866785 -0.08677816 -0.07379475
v 0.01240041 -0.08501116 -0.03307306
v -0.00067167 -0.07891932 0.00790987
v -0.02745019 -0.07278708 -0.01317369
v -0.05198126 -0.05813771 -0.03962865
v -0.06760120 -0.03596147 -0.06864983
v -0.07601495 -0.01222304 -0.09975657
v -0.07799137 0.00848674 -0.07389148
v -0.07626693 0.02867994 -0.11025870
v -0.07080436 0.04855512 -0.09182157
v -0.05897720 0.06306570 -0.12939832
v -0.04044804 0.07419133 -0.16373183
v -0.01887804 0.08276533 -0.19476330
v 0.00374109 0.08772044 -0.22376624
v 0.02574876 0.08514625 -0.25124699
v 0.04859924 0.08039533 -0.23279679
v 0.06413220 0.06490969 -0.25802058
v 0.08047735 0.04800255 -0.23768032
v 0.09698121 -0.00131351 -0.19333661
v 0.09201577 0.02574775 -0.21627006
v 0.08339543 -0.05463327 -0.13779071
v 0.09396431 -0.02941743 -0.16755505
v 0.06377491 -0.06764986 -0.15306404
v 0.04619375 -0.08152034 -0.11525488
v 0.02137234 -0.08849846 -0.13286209
v 0.00233948 -0.08990111 -0.09215020
v -0.01451309 -0.08401533 -0.05294803
v -0.03995202 -0.07370041 -0.07594806
v -0.05842395 -0.05397392 -0.10175160
v -0.06969808 -0.03049902 -0.13154504
v -0.07245506 -0.00735197 -0.16312148
v -0.07646427 0.01021181 -0.13402459
v -0.06940031 0.02958221 -0.16840848
v -0.06668490 0.04641841 -0.14667805
v -0.05152480 0.06029172 -0.18067634
v -0.03420167 0.07166977 -0.21253008
v -0.01535979 0.08062765 -0.24225608
v 0.00472907 0.08327536 -0.27009445
v 0.02384352 0.07815131 -0.29596940
v 0.04437539 0.07515506 -0.27718037
v 0.05860945 0.06095772 -0.30177426
v 0.07282181 0.04580765 -0.28214258
v 0.08788940 0.00337087 -0.23851308
v 0.08294580 0.02650878 -0.26092750
v 0.07768689 -0.04741864 -0.18604329
v 0.08633394 -0.02213100 -0.21413979
v 0.05794713 -0.06171647 -0.20581836
v 0.04121120 -0.07846701 -0.17146927
v 0.01611771 -0.08481514 -0.19267201
v -0.00470046 -0.08905542 -0.15423089
v -0.02417564 -0.08491744 -0.11399153
v -0.04612377 -0.06898687 -0.13911732
v -0.05981354 -0.04695280 -0.16692324
v -0.06524990 -0.02432876 -0.19568104
v -0.06421304 -0.00317377 -0.22476703
v -0.06798495 0.01264150 -0.19494426
v -0.05975048 0.02971636 -0.22603148
v -0.05767933 0.04511834 -0.20141840
v -0.04439412 0.05864803 -0.23275435
v -0.02944353 0.06952814 -0.26225674
v -0.01222972 0.07604052 -0.28954363
v 0.00547517 0.07638448 -0.31446120
v 0.02172323 0.07285641 -0.33740091
v 0.04079360 0.07005334 -0.32003886
v 0.05466482 0.05993752 -0.34339973
v 0.06817564 0.04573262 -0.32524019
v 0.07676198 0.02767898 -0.30548754
v 0.08043577 0.00663220 -0.28413492
v 0.07137901 -0.03984539 -0.23539257
v 0.07883498 -0.01620854 -0.26117152
v 0.05428869 -0.05571760 -0.25780457
v 0.03643969 -0.07311787 -0.22725594
v 0.01317031 -0.07595588 -0.24946728
v -0.00814363 -0.08116748 -0.21533230
v -0.02879116 -0.07926792 -0.17804331
v -0.04630032 -0.06119032 -0.20341164
v -0.05549192 -0.03922326 -0.22951317
v -0.05851839 -0.01745836 -0.25572097
v -0.05652978 0.00203155 -0.28110132
v -0.05909815 0.01534562 -0.25318545
v -0.05261299 0.03150381 -0.28046703
v -0.05020820 0.04477175 -0.25572997
v -0.03843355 0.05714115 -0.28369004
v -0.02435988 0.06559864 -0.30937701
v -0.01008207 0.07139073 -0.33271509
v 0.00423939 0.07358962 -0.35578826
v 0.01791397 0.07176930 -0.37899464
v 0.03647543 0.06838273 -0.36129269
v 0.04857592 0.06129092 -0.38580960
v 0.06374381 0.04879609 -0.36750337
v 0.07295579 0.03106799 -0.34849864
v 0.07591576 0.01070604 -0.32881820
v 0.07370562 -0.01098282 -0.30765346
v 0.06707438 -0.03366712 -0.28438699
v 0.05064870 -0.04849377 -0.30719978
v 0.03322884 -0.06569452 -0.28006226
v 0.01163618 -0.06608532 -0.30156478
v -0.00808748 -0.06972292 -0.27164018
v -0.02829511 -0.06906897 -0.23886439
v -0.04229434 -0.05123030 -0.26274475
v -0.04981963 -0.03047674 -0.28620559
v -0.05177188 -0.01048518 -0.30869925
v -0.05110149 0.00753643 -0.33004618
v -0.05278079 0.01900750 -0.30538386
v -0.04761165 0.03383578 -0.32814616
v -0.04388505 0.04498293 -0.30607209
v -0.03265631 0.05497921 -0.32949343
v -0.02226236 0.06457455 -0.35234758
v -0.01082943 0.07210662 -0.37431014
v 0.00156967 0.07535003 -0.39879555
v 0.03011806 0.06725271 -0.40439832
v 0.05567176 0.04975469 -0.40997121
v 0.07127136 0.01766740 -0.37188923
v 0.06695605 0.03632533 -0.39094403
v 0.06815265 -0.00384279 -0.35192940
v 0.06169630 -0.02628969 -0.33087769
v 0.04599485 -0.03944527 -0.35336310
v 0.03044782 -0.05725354 -0.32893986
v 0.01026687 -0.05863129 -0.34960863
v -0.00720264 -0.05962009 -0.32250547
v -0.02462533 -0.05759970 -0.29378080
v -0.03618596 -0.04089301 -0.31526724
v -0.04298490 -0.02130335 -0.33548439
v -0.04766996 -0.00124449 -0.35495409
v -0.05125919 0.01707342 -0.37417153
v -0.05030189 0.02496105 -0.35119930
v -0.04619971 0.04014314 -0.37224334
v -0.03978889 0.04680101 -0.35080782
v -0.03138556 0.05775060 -0.37239495
v -0.02354857 0.06881385 -0.39592710
v 0.06340608 0.02270709 -0.41259789
v 0.05548381 -0.01518829 -0.37339681
v 0.06318397 0.00507306 -0.39315838
v 0.03909624 -0.02551008 -0.39300784
v 0.02682713 -0.04722607 -0.37323534
v 0.00708975 -0.05020215 -0.39207193
v -0.00883433 -0.05182395 -0.36837932
v -0.02192517 -0.04794360 -0.34249723
v -0.03351419 -0.02944894 -0.36096799
v -0.04132557 -0.00959029 -0.37864241
v -0.04865058 0.00774444 -0.39741132
v -0.05092444 0.03281803 -0.39545077
v -0.03998424 0.05227900 -0.39521381
v 0.04970791 -0.00633585 -0.41244298
v 0.02342854 -0.03575614 -0.41211566
v -0.01092998 -0.04180964 -0.40793389
v -0.02473441 -0.03837551 -0.38551551
v -0.03502612 -0.02053201 -0.40149069
v 0.06049488 0.14673257 -0.03657652
v 0.10695122 0.09907785 -0.08089846
v 0.00761409 0.13621643 -0.02767783
v 0.07161357 0.10954471 -0.09287441
v 0.10589171 0.04922680 -0.09844455
v -0.02947091 0.10684119 -0.01868359
v 0.01610510 0.11639170 -0.09306462
v 0.09087574 0.06062595 -0.11679094
v 0.10658667 -0.00084349 -0.10055970
v -0.04944542 0.07741218 -0.00695434
v -0.03009702 0.10055455 -0.07641421
v 0.02396204 0.09556451 -0.14139751
v 0.07927136 0.07020990 -0.15017517
v 0.10576104 0.00631088 -0.12105598
v 0.10382741 -0.04681720 -0.09039611
v 0.09508023 -0.08793213 -0.05622770
v -0.06858663 -0.01454180 -0.00383835
v -0.07036166 0.03491865 -0.02523406
v -0.05703919 0.07173298 -0.05287018
v -0.02660577 0.08925385 -0.12607501
v 0.02638235 0.09073636 -0.18464285
v 0.07420402 0.06931966 -0.19254619
v 0.10420101 0.01765336 -0.15293783
v 0.09715522 -0.04020145 -0.10936821
v 0.07293556 -0.07208278 -0.07994883
v 0.03372081 -0.08602266 -0.04477999
v -0.04559192 -0.05877455 -0.00619587
v -0.07517773 -0.01378477 -0.06944560
v -0.07653643 0.02939166 -0.08162960
v -0.06068192 0.06538809 -0.10344471
v -0.02139725 0.08404377 -0.17181724
v 0.02650808 0.08758859 -0.22863841
v 0.06752483 0.06695419 -0.23584390
v 0.09677909 0.02424993 -0.19432682
v 0.09630917 -0.03395856 -0.14563200
v 0.06622658 -0.07036153 -0.12745342
v 0.02458231 -0.08801879 -0.10293379
v -0.00784685 -0.08113083 -0.02255283
v -0.05572808 -0.05635661 -0.07097115
v -0.07518025 -0.00986477 -0.13134141
v -0.07368141 0.02912879 -0.13938142
v -0.05558020 0.06157808 -0.15506388
v -0.01693201 0.08178643 -0.21828133
v 0.02479548 0.08192040 -0.27388546
v 0.06112345 0.06271261 -0.28014749
v 0.08714960 0.02624067 -0.23848432
v 0.09041699 -0.02560214 -0.19072312
v 0.06069794 -0.06469178 -0.17940784
v 0.01871469 -0.08743172 -0.16290429
v -0.01985069 -0.08559709 -0.08313861
v -0.06012245 -0.05074433 -0.13422671
v -0.06841199 -0.00542802 -0.19435549
v -0.06446938 0.02950992 -0.19737470
v -0.04769738 0.05930055 -0.20664656
v -0.01380503 0.07864261 -0.26617229
v 0.02297957 0.07498516 -0.31713307
v 0.05662961 0.05997776 -0.32286084
v 0.07952430 0.02684253 -0.28334990
v 0.08231087 -0.01898344 -0.23759183
v 0.05601310 -0.05880064 -0.23185521
v 0.01440684 -0.08087114 -0.22162789
v -0.02725297 -0.08266819 -0.14613089
v -0.05800006 -0.04332400 -0.19878227
v -0.06026742 -0.00059821 -0.25382334
v -0.05589315 0.03047038 -0.25387377
v -0.04145162 0.05797320 -0.25855184
v -0.01077239 0.07324813 -0.31178129
v 0.01999018 0.07202144 -0.35823113
v 0.05207884 0.06074868 -0.36456859
v 0.07467800 0.02903983 -0.32713342
v 0.07615412 -0.01369821 -0.28455603
v 0.05262063 -0.05240130 -0.28294003
v 0.01226744 -0.07088848 -0.27608550
v -0.02902552 -0.07455185 -0.20908347
v -0.05278610 -0.03477490 -0.25876749
v -0.05337921 0.00465624 -0.30651855
v -0.04979701 0.03254785 -0.30530143
v -0.03519711 0.05592983 -0.30747992
v -0.01025226 0.07114855 -0.35379347
v 0.01584495 0.07245491 -0.40139306
v 0.04462607 0.06031915 -0.40756729
v 0.07049084 0.03414551 -0.36995032
v 0.07098040 -0.00798026 -0.33015886
v 0.04829448 -0.04420149 -0.33063257
v 0.01096650 -0.06197612 -0.32600802
v -0.02675201 -0.06338564 -0.26713544
v -0.04632123 -0.02607943 -0.31174684
v -0.05058354 0.01217615 -0.35268244
v -0.04662128 0.03669424 -0.35062736
v -0.03142248 0.05568933 -0.35138580
v -0.01189456 0.07396919 -0.39704242
v 0.06206775 0.03690246 -0.41159010
v 0.06566913 0.00122358 -0.37278256
v 0.04223229 -0.03248227 -0.37397924
v 0.00875306 -0.05476555 -0.37136674
v -0.02276441 -0.05239085 -0.31890664
v -0.04116455 -0.01496573 -0.35772321
v -0.05169584 0.02080599 -0.39619663
v -0.04659560 0.04324219 -0.39523846
v -0.03264372 0.06092700 -0.39520389
v 0.05922901 0.00805158 -0.41288218
v 0.03717867 -0.02107945 -0.41219872
v 0.00613612 -0.04291661 -0.41070089
v -0.02303678 -0.04280513 -0.36465740
v -0.04225561 -0.00595047 -0.39912570
v -0.02513807 -0.03413650 -0.40461460
f 107 4 309
f 309 4 106
f 25 107 105
f 105 107 309
f 24 108 109
f 109 108 310
f 108 25 310
f 111 6 311
f 311 6 110
f 4 111 106
f 106 111 311
f 4 107 113
f 113 107 312
f 25 108 107
f 107 108 312
f 108 24 312
f 312 24 112
f 112 5 312
f 312 5 113
f 2 115 102
f 102 115 313
f 115 26 313
f 313 26 114
f 24 109 114
f 114 109 313
f 109 1 313
f 313 1 102
f 6 117 110
f 110 117 314
f 117 8 314
f 314 8 116
f 6 111 119
f 119 111 315
f 111 4 315
f 315 4 113
f 5 118 113
f 113 118 315
f 118 7 315
f 315 7 119
f 121 27 316
f 316 27 120
f 5 112 120
f 120 112 316
f 112 24 316
f 316 24 114
f 26 121 114
f 114 121 316
f 26 115 123
f 123 115 317
f 115 2 317
f 317 2 103
f 3 122 103
f 103 122 317
f 122 101 317
f 317 101 123
f 10 125 126
f 8 127 116
f 116 127 318
f 127 10 318
f 318 10 126
f 7 129 119
f 119 129 319
f 129 9 319
f 319 9 128
f 8 117 128
f 128 117 319
f 117 6 319
f 319 6 119
f 29 131 132
f 132 131 320
f 131 28 320
f 320 28 130
f 7 118 130
f 130 118 320
f 118 5 320
f 320 5 132
f 38 133 134
f 134 133 321
f 133 29 321
f 321 29 132
f 5 120 132
f 132 120 321
f 27 134 120
f 120 134 321
f 27 121 136
f 136 121 322
f 121 26 322
f 322 26 123
f 101 135 123
f 123 135 322
f 135 100 322
f 322 100 136
f 101 122 138
f 138 122 323
f 122 3 323
f 323 3 104
f 104 137 323
f 137 14 323
f 323 14 138
f 324 13 139
f 14 137 139
f 139 137 324
f 20 143 144
f 144 143 325
f 143 18 325
f 325 18 142
f 19 124 142
f 142 124 325
f 124 21 325
f 325 21 144
f 21 125 144
f 144 125 326
f 125 10 326
f 326 10 146
f 11 145 146
f 146 145 326
f 145 20 326
f 326 20 144
f 9 147 128
f 128 147 327
f 147 11 327
f 327 11 146
f 10 127 146
f 146 127 327
f 127 8 327
f 327 8 128
f 28 149 130
f 130 149 328
f 149 30 328
f 328 30 148
f 9 129 148
f 148 129 328
f 129 7 328
f 328 7 130
f 40 151 152
f 152 151 329
f 151 39 329
f 329 39 150
f 28 131 150
f 150 131 329
f 131 29 329
f 329 29 152
f 49 153 154
f 154 153 330
f 153 40 330
f 330 40 152
f 29 133 152
f 152 133 330
f 133 38 330
f 330 38 154
f 38 134 156
f 156 134 331
f 134 27 331
f 331 27 136
f 100 155 136
f 136 155 331
f 155 99 331
f 331 99 156
f 100 135 158
f 158 135 332
f 135 101 332
f 332 101 138
f 14 157 138
f 138 157 332
f 157 15 332
f 332 15 158
f 157 14 333
f 333 14 139
f 13 160 139
f 139 160 333
f 160 12 333
f 333 12 159
f 15 157 159
f 159 157 333
f 160 13 334
f 334 13 140
f 17 162 140
f 140 162 334
f 162 16 334
f 334 16 161
f 12 160 161
f 161 160 334
f 19 142 141
f 141 142 335
f 142 18 335
f 335 18 165
f 22 164 165
f 165 164 335
f 164 23 335
f 335 23 141
f 37 167 168
f 168 167 336
f 167 36 336
f 336 36 166
f 18 143 166
f 166 143 336
f 143 20 336
f 336 20 168
f 31 169 170
f 170 169 337
f 169 37 337
f 337 37 168
f 20 145 168
f 168 145 337
f 145 11 337
f 337 11 170
f 30 171 148
f 148 171 338
f 171 31 338
f 338 31 170
f 11 147 170
f 170 147 338
f 147 9 338
f 338 9 148
f 39 173 150
f 150 173 339
f 173 41 339
f 339 41 172
f 30 149 172
f 172 149 339
f 149 28 339
f 339 28 150
f 82 175 176
f 176 175 340
f 175 72 340
f 340 72 174
f 39 151 174
f 174 151 340
f 151 40 340
f 340 40 176
f 81 177 178
f 178 177 341
f 177 82 341
f 341 82 176
f 40 153 176
f 176 153 341
f 153 49 341
f 341 49 178
f 180 49 342
f 342 49 154
f 154 38 342
f 342 38 156
f 99 179 156
f 156 179 342
f 179 98 342
f 342 98 180
f 99 155 182
f 182 155 343
f 155 100 343
f 343 100 158
f 15 181 158
f 158 181 343
f 181 32 343
f 343 32 182
f 184 33 344
f 344 33 183
f 32 181 183
f 183 181 344
f 181 15 344
f 344 15 159
f 12 184 159
f 159 184 344
f 186 34 345
f 345 34 185
f 33 184 185
f 185 184 345
f 184 12 345
f 345 12 161
f 16 186 161
f 161 186 345
f 162 17 346
f 346 17 163
f 23 164 163
f 163 164 346
f 164 22 346
f 346 22 187
f 16 162 187
f 187 162 346
f 166 36 347
f 347 36 189
f 35 188 189
f 189 188 347
f 188 22 347
f 347 22 165
f 18 166 165
f 165 166 347
f 48 191 192
f 192 191 348
f 191 47 348
f 348 47 190
f 36 167 190
f 190 167 348
f 167 37 348
f 348 37 192
f 42 193 194
f 194 193 349
f 193 48 349
f 349 48 192
f 37 169 192
f 192 169 349
f 169 31 349
f 349 31 194
f 41 195 172
f 172 195 350
f 195 42 350
f 350 42 194
f 31 171 194
f 194 171 350
f 171 30 350
f 350 30 172
f 72 197 174
f 174 197 351
f 197 73 351
f 351 73 196
f 41 173 196
f 196 173 351
f 173 39 351
f 351 39 174
f 71 199 200
f 200 199 352
f 199 61 352
f 352 61 198
f 72 175 198
f 198 175 352
f 175 82 352
f 352 82 200
f 70 201 202
f 202 201 353
f 201 71 353
f 353 71 200
f 82 177 200
f 200 177 353
f 177 81 353
f 353 81 202
f 204 81 354
f 354 81 178
f 49 180 178
f 178 180 354
f 180 98 354
f 354 98 203
f 97 204 203
f 203 204 354
f 98 179 206
f 206 179 355
f 179 99 355
f 355 99 182
f 32 205 182
f 182 205 355
f 205 43 355
f 355 43 206
f 208 44 356
f 356 44 207
f 43 205 207
f 207 205 356
f 205 32 356
f 356 32 183
f 33 208 183
f 183 208 356
f 210 45 357
f 357 45 209
f 44 208 209
f 209 208 357
f 208 33 357
f 357 33 185
f 34 210 185
f 185 210 357
f 188 35 358
f 358 35 211
f 34 186 211
f 211 186 358
f 186 16 358
f 358 16 187
f 22 188 187
f 187 188 358
f 190 47 359
f 359 47 213
f 46 212 213
f 213 212 359
f 212 35 359
f 359 35 189
f 36 190 189
f 189 190 359
f 75 215 216
f 216 215 360
f 76 214 215
f 215 214 360
f 214 47 360
f 360 47 191
f 191 48 360
f 360 48 216
f 74 217 218
f 218 217 361
f 217 75 361
f 361 75 216
f 48 193 216
f 216 193 361
f 193 42 361
f 361 42 218
f 73 219 196
f 196 219 362
f 219 74 362
f 362 74 218
f 42 195 218
f 218 195 362
f 195 41 362
f 362 41 196
f 61 221 198
f 198 221 363
f 221 62 363
f 363 62 220
f 73 197 220
f 220 197 363
f 197 72 363
f 363 72 198
f 60 223 224
f 224 223 364
f 223 50 364
f 364 50 222
f 61 199 222
f 222 199 364
f 199 71 364
f 364 71 224
f 59 225 226
f 226 225 365
f 225 60 365
f 365 60 224
f 71 201 224
f 224 201 365
f 201 70 365
f 365 70 226
f 81 204 202
f 202 204 366
f 204 97 366
f 366 97 228
f 96 227 228
f 228 227 366
f 227 70 366
f 366 70 202
f 230 97 367
f 367 97 203
f 203 98 367
f 367 98 206
f 43 229 206
f 206 229 367
f 229 80 367
f 367 80 230
f 232 79 368
f 368 79 231
f 80 229 231
f 231 229 368
f 229 43 368
f 368 43 207
f 44 232 207
f 207 232 368
f 234 78 369
f 369 78 233
f 79 232 233
f 233 232 369
f 232 44 369
f 369 44 209
f 45 234 209
f 209 234 369
f 212 46 370
f 370 46 235
f 45 210 235
f 235 210 370
f 210 34 370
f 370 34 211
f 35 212 211
f 211 212 370
f 214 76 371
f 371 76 237
f 77 236 237
f 237 236 371
f 236 46 371
f 371 46 213
f 47 214 213
f 213 214 371
f 64 239 240
f 240 239 372
f 65 238 239
f 239 238 372
f 238 76 372
f 372 76 215
f 215 75 372
f 372 75 240
f 63 241 242
f 242 241 373
f 241 64 373
f 373 64 240
f 75 217 240
f 240 217 373
f 217 74 373
f 373 74 242
f 62 243 220
f 220 243 374
f 243 63 374
f 374 63 242
f 74 219 242
f 242 219 374
f 219 73 374
f 374 73 220
f 50 245 222
f 222 245 375
f 245 51 375
f 375 51 244
f 62 221 244
f 244 221 375
f 221 61 375
f 375 61 222
f 93 247 248
f 248 247 376
f 247 83 376
f 376 83 246
f 50 223 246
f 246 223 376
f 223 60 376
f 376 60 248
f 92 249 250
f 250 249 377
f 249 93 377
f 377 93 248
f 60 225 248
f 248 225 377
f 225 59 377
f 377 59 250
f 70 227 226
f 226 227 378
f 227 96 378
f 378 96 252
f 95 251 252
f 252 251 378
f 251 59 378
f 378 59 226
f 80 254 230
f 230 254 379
f 254 69 379
f 379 69 253
f 253 96 379
f 379 96 228
f 97 230 228
f 228 230 379
f 256 68 380
f 380 68 255
f 69 254 255
f 255 254 380
f 254 80 380
f 380 80 231
f 79 256 231
f 231 256 380
f 258 67 381
f 381 67 257
f 68 256 257
f 257 256 381
f 256 79 381
f 381 79 233
f 78 258 233
f 233 258 381
f 236 77 382
f 382 77 259
f 78 234 259
f 259 234 382
f 234 45 382
f 382 45 235
f 46 236 235
f 235 236 382
f 238 65 383
f 383 65 261
f 66 260 261
f 261 260 383
f 260 77 383
f 383 77 237
f 76 238 237
f 237 238 383
f 53 263 264
f 264 263 384
f 54 262 263
f 263 262 384
f 262 65 384
f 384 65 239
f 239 64 384
f 384 64 264
f 52 265 266
f 266 265 385
f 265 53 385
f 385 53 264
f 64 241 264
f 264 241 385
f 241 63 385
f 385 63 266
f 51 267 244
f 244 267 386
f 267 52 386
f 386 52 266
f 63 243 266
f 266 243 386
f 243 62 386
f 386 62 244
f 83 269 246
f 246 269 387
f 269 84 387
f 387 84 268
f 51 245 268
f 268 245 387
f 245 50 387
f 387 50 246
f 83 247 270
f 270 247 388
f 247 93 388
f 388 93 271
f 93 249 271
f 271 249 389
f 249 92 389
f 389 92 272
f 274 92 390
f 390 92 250
f 59 251 250
f 250 251 390
f 95 273 251
f 251 273 390
f 94 274 273
f 273 274 390
f 69 276 253
f 253 276 391
f 276 58 391
f 391 58 275
f 95 252 275
f 275 252 391
f 96 253 252
f 252 253 391
f 278 57 392
f 392 57 277
f 58 276 277
f 277 276 392
f 276 69 392
f 392 69 255
f 68 278 255
f 255 278 392
f 280 56 393
f 393 56 279
f 57 278 279
f 279 278 393
f 278 68 393
f 393 68 257
f 67 280 257
f 257 280 393
f 260 66 394
f 394 66 281
f 67 258 281
f 281 258 394
f 258 78 394
f 394 78 259
f 77 260 259
f 259 260 394
f 262 54 395
f 395 54 283
f 55 282 283
f 283 282 395
f 282 66 395
f 395 66 261
f 65 262 261
f 261 262 395
f 86 285 286
f 286 285 396
f 285 87 396
f 396 87 284
f 284 54 396
f 396 54 263
f 263 53 396
f 396 53 286
f 85 287 288
f 288 287 397
f 287 86 397
f 397 86 286
f 53 265 286
f 286 265 397
f 265 52 397
f 397 52 288
f 84 289 268
f 268 289 398
f 289 85 398
f 398 85 288
f 52 267 288
f 288 267 398
f 267 51 398
f 398 51 268
f 84 269 290
f 290 269 399
f 269 83 399
f 399 83 270
f 92 274 272
f 272 274 400
f 274 94 400
f 400 94 291
f 94 273 293
f 293 273 401
f 273 95 401
f 401 95 275
f 58 292 275
f 275 292 401
f 292 91 401
f 401 91 293
f 295 90 402
f 402 90 294
f 91 292 294
f 294 292 402
f 292 58 402
f 402 58 277
f 57 295 277
f 277 295 402
f 297 89 403
f 403 89 296
f 90 295 296
f 296 295 403
f 295 57 403
f 403 57 279
f 56 297 279
f 279 297 403
f 282 55 404
f 404 55 298
f 56 280 298
f 298 280 404
f 280 67 404
f 404 67 281
f 66 282 281
f 281 282 404
f 284 87 405
f 405 87 300
f 88 299 300
f 300 299 405
f 299 55 405
f 405 55 283
f 54 284 283
f 283 284 405
f 301 87 406
f 406 87 285
f 86 302 285
f 285 302 406
f 86 287 302
f 302 287 407
f 287 85 407
f 407 85 303
f 85 289 303
f 303 289 408
f 289 84 408
f 408 84 290
f 91 304 293
f 293 304 409
f 94 293 291
f 291 293 409
f 304 91 410
f 410 91 294
f 90 305 294
f 294 305 410
f 305 90 411
f 411 90 296
f 89 306 296
f 296 306 411
f 299 88 412
f 412 88 307
f 89 297 307
f 307 297 412
f 297 56 412
f 412 56 298
f 55 299 298
f 298 299 412
f 308 88 413
f 413 88 300
f 87 301 300
f 300 301 413
f 306 89 414
f 414 89 307
f 88 308 307
f 307 308 414

