# https://github.com/mikedh/trimesh
v -0.01650979 0.04924116 -0.01479679
v 0.00186262 0.05481595 -0.01548564
v -0.02698143 0.02712279 -0.01612854
v -0.03284028 -0.00274837 -0.01752788
v 0.03349855 -0.01589152 -0.00730038
v 0.02813841 -0.04166713 -0.00254303
v 0.01323558 -0.05428573 0.00365609
v -0.00532832 -0.05360905 0.00297654
v -0.02428716 -0.04005172 -0.00552446
v -0.02862412 -0.02043513 -0.00438559
v 0.01649195 0.03690261 -0.01374602
v 0.02751035 0.01138888 -0.01007664
v -0.02275138 -0.17470532 -0.05769086
v -0.02454695 -0.17261901 -0.05740768
v -0.01740414 -0.17222890 -0.05715066
v -0.01970564 -0.17064309 -0.05569178
v -0.01929565 -0.16900760 -0.05483919
v -0.01550786 -0.17123586 -0.05764687
v -0.02387097 -0.16891798 -0.05589008
v -0.02273467 -0.17076200 -0.05603909
v -0.01789869 -0.16434422 -0.05259097
v -0.02608483 -0.16250026 -0.05556250
v -0.01429699 -0.15682685 -0.06175429
v -0.01326421 -0.16326314 -0.06409782
v -0.01767896 -0.15812501 -0.05020386
v -0.02454342 -0.15645462 -0.06456482
v -0.01278035 -0.15198436 -0.06419343
v -0.02668460 -0.14613420 -0.06660277
v -0.02561325 -0.16356116 -0.06625330
v -0.02129240 -0.17204368 -0.06537271
v -0.01736167 -0.17211613 -0.06570506
v -0.02654938 -0.17191693 -0.05836767
v -0.02304403 -0.17517629 -0.05981266
v -0.02578995 -0.15650400 -0.05342364
v -0.01821086 -0.17514497 -0.05993688
v -0.02553251 -0.14247048 -0.05139464
v -0.03221473 -0.14337316 -0.06764543
v -0.02986836 -0.13989469 -0.04962802
v -0.04130815 -0.13860476 -0.06469238
v -0.04019938 -0.14470026 -0.06473809
v -0.03125684 -0.14759654 -0.06619203
v -0.03096268 -0.14837390 -0.05252492
v -0.01486592 -0.14427906 -0.04706800
v -0.00870866 -0.15184033 -0.06263679
v -0.01921199 -0.17463577 -0.05774349
v -0.04756100 -0.14507082 -0.06024766
v -0.04755437 -0.14547196 -0.06146681
v -0.04890297 -0.14416963 -0.06248719
v -0.04932439 -0.14369184 -0.05973077
v -0.04637536 -0.14416352 -0.05776727
v -0.04597571 -0.14520639 -0.05915457
v -0.05206603 -0.13925549 -0.05859971
v -0.04647501 -0.13969511 -0.05484760
v -0.05383964 -0.13223854 -0.05600613
v -0.04707086 -0.13440198 -0.05261660
v -0.05468281 -0.12195641 -0.05503988
v -0.04633307 -0.12854850 -0.05088139
v -0.04045659 -0.13393651 -0.05172664
v -0.05419667 -0.12294498 -0.06358713
v -0.04487009 -0.13451424 -0.06572884
v -0.04295677 -0.13611102 -0.06381094
v -0.05119286 -0.13369970 -0.06515622
v -0.04932071 -0.13810983 -0.06604093
v -0.04200923 -0.13803538 -0.06464797
v -0.04331601 -0.14495170 -0.05857843
v -0.04184772 -0.14336341 -0.06769383
v -0.04348788 -0.14707783 -0.06300539
v -0.04496759 -0.14378518 -0.06696683
v -0.04563436 -0.14661398 -0.06359285
v -0.04628894 -0.14677030 -0.06193042
v -0.04448090 -0.14571637 -0.05953038
v -0.04490398 -0.14695874 -0.06115180
v -0.03686842 -0.16110980 -0.05912930
v -0.03154492 -0.16019833 -0.05891794
v -0.03585392 -0.15967420 -0.05816805
v -0.03818846 -0.16070458 -0.05973071
v -0.03681232 -0.15875315 -0.05784154
v -0.03273349 -0.15817249 -0.05743271
v -0.03305681 -0.15915787 -0.05799663
v -0.03984365 -0.15351167 -0.05668497
v -0.03195854 -0.15351748 -0.05455577
v -0.04074645 -0.14625454 -0.05372065
v -0.04096647 -0.15302145 -0.06512713
v -0.03053786 -0.15169516 -0.06630105
v -0.02995846 -0.15983072 -0.05911148
v -0.03587943 -0.15958398 -0.06577927
v -0.03323597 -0.15904769 -0.06596053
v -0.03471117 -0.16274187 -0.06128794
v -0.03224885 -0.16288855 -0.06161207
v -0.03529136 -0.16219216 -0.05954832
v -0.03284368 -0.16206485 -0.05966133
v -0.00572717 -0.17735350 -0.05363816
v -0.00823638 -0.17910507 -0.05490810
v -0.00948693 -0.17764553 -0.05476111
v -0.00579758 -0.17588740 -0.05268031
v -0.00211434 -0.17834657 -0.05433887
v -0.00094879 -0.18031779 -0.05616993
v -0.00090383 -0.17754093 -0.05404997
v 0.00065301 -0.18015694 -0.05692768
v -0.00615832 -0.16939723 -0.05097973
v 0.00263286 -0.17217713 -0.05350262
v -0.00639734 -0.15929112 -0.04800475
v 0.00334877 -0.15977913 -0.05118120
v 0.00354275 -0.17227652 -0.06524158
v -0.00199278 -0.18171707 -0.06373173
v -0.00333101 -0.18331188 -0.05769199
v -0.01134071 -0.17059997 -0.06136781
v -0.00678584 -0.18141162 -0.06375933
v -0.00919935 -0.15836736 -0.06084895
v 0.00498337 -0.15023804 -0.06529337
v 0.00147969 -0.16091105 -0.06536949
v -0.00796773 -0.14461228 -0.04580599
v -0.00815307 -0.18332073 -0.05718088
v -0.00783391 -0.18272725 -0.05547506
v -0.00416772 -0.18278047 -0.05575728
v 0.00474977 -0.14345851 -0.04745382
v 0.01356834 -0.14369225 -0.04502928
v 0.01274753 -0.16018259 -0.04959619
v 0.01739518 -0.14781305 -0.06727469
v 0.01244552 -0.16398772 -0.06614655
v 0.02991991 -0.16106474 -0.04740393
v 0.02695391 -0.17720285 -0.04900473
v 0.03178154 -0.14081442 -0.04353887
v 0.03680614 -0.16368568 -0.06242853
v 0.03694120 -0.14220574 -0.06037241
v 0.02874412 -0.18224034 -0.06179756
v 0.01003304 -0.17821303 -0.06308478
v 0.01318340 -0.18594453 -0.05343616
v 0.01117550 -0.17392570 -0.04979509
v 0.01305348 -0.18419900 -0.04879409
v 0.01536362 -0.17459729 -0.04814774
v 0.01436536 -0.18295777 -0.04658186
v 0.02045588 -0.18371710 -0.04571104
v 0.02148756 -0.18623948 -0.04768270
v 0.02329972 -0.17650053 -0.04739624
v 0.02033414 -0.18788406 -0.05243057
v 0.02394186 0.01837063 -0.03276324
v 0.02411596 0.02156664 -0.04858732
v -0.02125017 0.05681653 -0.04187572
v -0.03715347 0.00947728 -0.03823376
v -0.02494192 0.04479763 -0.06230068
v -0.04051459 0.01195833 -0.05071896
v -0.02462187 -0.17382687 -0.05797350
v -0.01848020 -0.16665098 -0.05403680
v -0.02554215 -0.16594234 -0.05542547
v -0.01473266 -0.15973547 -0.06264591
v -0.01795916 -0.16137448 -0.05139941
v -0.01376985 -0.15397116 -0.06162632
v -0.02444987 -0.15164402 -0.06425995
v -0.02494787 -0.15930325 -0.06537598
v -0.02267551 -0.16894355 -0.06610864
v -0.01461621 -0.16868359 -0.06670427
v -0.02778970 -0.16862774 -0.06172991
v -0.02566873 -0.17368400 -0.05986166
v -0.02271885 -0.17400846 -0.06337690
v -0.02556862 -0.17183468 -0.06352645
v -0.02595995 -0.15962556 -0.05482835
v -0.01267277 -0.16930562 -0.06015408
v -0.01687238 -0.17433429 -0.06369638
v -0.01509489 -0.17332777 -0.05990648
v -0.01327819 -0.17240783 -0.06405288
v -0.02583857 -0.15114009 -0.05242723
v -0.04042518 -0.14213168 -0.06366718
v -0.03126900 -0.14577144 -0.06635612
v -0.03061658 -0.14550099 -0.05163449
v -0.01662980 -0.15252864 -0.04865593
v -0.01687430 -0.17343560 -0.05819100
v -0.04649156 -0.14228716 -0.05611151
v -0.05059782 -0.14193517 -0.05917054
v -0.05325863 -0.13586625 -0.05729359
v -0.04690909 -0.13680914 -0.05360949
v -0.04706569 -0.13191618 -0.05173725
v -0.05444999 -0.12838024 -0.05544478
v -0.04058149 -0.01929097 -0.04246843
v -0.03563282 -0.02883484 -0.02533197
v -0.04235230 -0.01249939 -0.05581325
v -0.04355407 -0.13524921 -0.06412750
v -0.05253895 -0.13053128 -0.06450796
v -0.05035706 -0.13565635 -0.06566072
v -0.04257087 -0.13701092 -0.06395024
v -0.04046778 -0.14229142 -0.06062961
v -0.04155132 -0.14596239 -0.06612915
v -0.04182716 -0.14631355 -0.06158769
v -0.04129581 -0.14063155 -0.06766140
v -0.03896001 -0.14409429 -0.06458074
v -0.04713045 -0.14195382 -0.06712890
v -0.04736365 -0.14551741 -0.06353736
v -0.04473911 -0.14545327 -0.06570399
v -0.04979648 -0.14188477 -0.06348944
v -0.04745229 -0.14371633 -0.06535906
v -0.04702407 -0.14604354 -0.06226599
v -0.04379453 -0.14643901 -0.06037802
v -0.03805286 -0.15666672 -0.05747914
v -0.03218897 -0.15623796 -0.05631620
v -0.04056689 -0.14951983 -0.05523771
v -0.04075813 -0.14783656 -0.06571031
v -0.03151609 -0.15075204 -0.05313915
v -0.02793999 -0.15813088 -0.06101406
v -0.03798114 -0.15694341 -0.06649071
v -0.03181361 -0.15630856 -0.06693780
v -0.04002541 -0.15830758 -0.06158781
v -0.03704171 -0.16204366 -0.06099647
v -0.03507701 -0.16177758 -0.06413031
v -0.03816736 -0.16060796 -0.06361502
v -0.03178622 -0.16191271 -0.06454176
v -0.03667922 -0.16183701 -0.05985099
v -0.03158779 -0.14931011 -0.06618577
v -0.03016627 -0.16190666 -0.06123233
v -0.02884911 -0.16081822 -0.06434035
v -0.03125684 -0.16144332 -0.05991316
v -0.04070349 -0.14139134 -0.05258244
v -0.00614212 -0.17370590 -0.05156040
v 0.00073174 -0.17596412 -0.05416739
v -0.00637639 -0.16444564 -0.04980868
v 0.00315368 -0.16605675 -0.05209458
v 0.00372030 -0.17900383 -0.05898011
v -0.00196283 -0.18263116 -0.06050348
v -0.00025581 -0.18184510 -0.05770975
v 0.00061511 -0.17831844 -0.06495214
v 0.00197969 -0.18114242 -0.06034642
v -0.00947265 -0.17723045 -0.06461805
v -0.00988798 -0.16506856 -0.06099975
v -0.00871824 -0.15362754 -0.06077474
v 0.00251782 -0.15568965 -0.06431562
v 0.00161076 -0.16598120 -0.06523824
v -0.00631329 -0.15280548 -0.04631358
v -0.00776799 -0.18301967 -0.06045330
v -0.01117870 -0.17518133 -0.05588281
v -0.01082671 -0.18096030 -0.05649728
v -0.01182091 -0.17987934 -0.05911523
v -0.00934936 -0.18164277 -0.05580527
v -0.00158311 -0.18184253 -0.05653179
v 0.00350216 -0.15277543 -0.04949087
v 0.01437989 -0.15328613 -0.04770362
v 0.01537377 -0.15599954 -0.06619340
v 0.02861254 -0.16934323 -0.04944825
v 0.03015791 -0.15227085 -0.04534268
v 0.03643963 -0.15438971 -0.06201881
v 0.03370856 -0.17372751 -0.06334990
v 0.01018736 -0.17058500 -0.06544507
v 0.01103695 -0.18332779 -0.05831379
v 0.01046956 -0.18077338 -0.04995430
v 0.01403742 -0.17982814 -0.04729712
v 0.02595456 -0.18400571 -0.04828936
v 0.02186647 -0.18136871 -0.04589629
v 0.02323647 -0.18708467 -0.05764127
v 0.01102783 -0.16691422 -0.05000699
v 0.01563849 0.00233931 -0.06329805
v -0.02314880 0.00170966 -0.06475991
v -0.00378020 0.00641271 -0.06430739
v 0.02716096 -0.00602208 -0.04951918
v 0.03133467 -0.01222415 -0.03006625
v 0.01598586 0.04789522 -0.04022968
v 0.01704644 0.04219498 -0.05997545
v -0.00317410 0.06199711 -0.04463488
v -0.03292012 0.03634839 -0.03775978
v -0.00487840 0.05100385 -0.06291312
v -0.03787185 0.02852999 -0.05639488
v -0.03593081 -0.00590374 -0.06351447
v -0.00329345 -0.18030259 -0.05470484
v -0.00660621 -0.17982468 -0.05436087
v -0.01969649 -0.17269772 -0.05643976
v -0.02274469 -0.17301187 -0.05656368
v -0.03304872 -0.16059381 -0.05859864
v -0.03546879 -0.16102898 -0.05864799
v -0.04563597 -0.14613810 -0.05988240
v -0.04685614 -0.14601037 -0.06062323
v 0.03214374 -0.05268573 -0.02732950
v 0.02838798 -0.04754539 -0.04986846
v 0.01377979 -0.04517343 -0.06015140
v -0.00344127 -0.04502068 -0.06493312
v -0.02361098 -0.04634753 -0.06608379
v -0.03992987 -0.04890397 -0.06672919
v -0.04951409 -0.04963259 -0.06028736
v -0.04678422 -0.05269439 -0.04592335
v -0.03640918 -0.05904212 -0.03292257
v -0.02371652 -0.06746906 -0.01906353
v 0.01633616 -0.07306288 -0.01000482
v -0.00550218 -0.07484448 -0.00999445
v -0.05279726 -0.08431488 -0.05106580
v -0.05626638 -0.08492604 -0.06339723
v -0.04563889 -0.09258497 -0.06915182
v -0.02809577 -0.09101180 -0.06867588
v -0.00241190 -0.10059950 -0.06910616
v 0.02029850 -0.09183118 -0.06648982
v 0.03387037 -0.08930815 -0.05474532
v 0.03180662 -0.09219173 -0.03560013
v 0.01541615 -0.10012956 -0.02196068
v -0.04154456 -0.08809549 -0.04090434
v -0.02630612 -0.09491435 -0.03290904
v -0.00720328 -0.10051679 -0.02563298
v -0.05623579 -0.10924548 -0.06414956
v -0.05440456 -0.10817081 -0.05492270
v -0.04526596 -0.11536149 -0.04814202
v -0.02887149 -0.12385888 -0.04502928
v -0.01106435 -0.12875265 -0.04200149
v 0.01101961 -0.12751041 -0.03655607
v 0.03462441 -0.12168765 -0.04053724
v 0.03927886 -0.12340307 -0.06007087
v -0.04171453 -0.13143796 -0.06946141
v -0.02626126 -0.13016701 -0.06970459
v -0.00648698 -0.14241332 -0.06923562
v 0.02409805 -0.12749225 -0.06890124
v 0.00539894 -0.13317162 -0.06932431
v -0.01517019 -0.13518508 -0.06971604
v -0.03619921 -0.12761731 -0.06978530
v -0.05006278 -0.11792177 -0.06871778
v -0.01071329 0.04092394 0.00531650
v -0.02545521 0.02282222 0.00516611
v -0.03295954 0.00204182 0.00786191
v -0.02682145 -0.01551037 0.01450115
v -0.01844834 -0.02899277 0.02020985
v -0.00599219 -0.03698499 0.02599072
v 0.00794466 -0.03937588 0.02881896
v 0.02205453 -0.03333187 0.02682036
v 0.03210742 -0.01612248 0.02184814
v 0.03189456 0.00735309 0.01589841
v 0.01975711 0.02748672 0.00957978
v 0.00754146 0.04518898 0.00622797
v -0.00963455 0.04297931 0.01581490
v -0.00271246 0.04796058 0.00592512
v 0.00970136 0.04522783 0.01695240
v 0.01421113 0.03713210 0.00740188
v -0.01751941 0.03178798 0.00506073
v -0.01262419 0.04338675 -0.00446832
v -0.00829545 0.05580652 -0.01483554
v 0.00535326 0.04866242 -0.00429815
v 0.01047370 0.04815965 -0.01509595
v 0.01817438 0.03045675 -0.00205916
v 0.02587766 0.01776517 0.01254725
v -0.02312933 -0.02271596 0.01749390
v -0.03013887 -0.00743958 0.01094234
v -0.03221598 0.01313924 0.00587225
v -0.02608070 0.02353131 -0.00577688
v -0.02184793 0.03893705 -0.01542729
v -0.01943766 0.05458676 -0.02835274
v -0.01278745 0.06144091 -0.04386938
v -0.00078645 0.05997582 -0.03025609
v 0.00726543 0.05787075 -0.04346555
v 0.01601404 0.04332688 -0.02730030
v 0.03007133 0.00794372 0.00239438
v 0.02185035 0.02429162 -0.01186329
v 0.03426082 -0.00448727 0.01902568
v 0.02786965 -0.02597773 0.02445900
v 0.01505525 -0.03778591 0.02842063
v -0.01266290 -0.03386346 0.02322650
v -0.01927610 -0.03407385 0.00668448
v -0.02741025 -0.02733224 -0.00506389
v -0.02740885 -0.01878249 0.00295436
v -0.03093198 -0.01471006 -0.00959116
v -0.03258835 -0.00006535 -0.00469965
v -0.03115022 0.01372809 -0.01717758
v -0.02807066 0.04813870 -0.03954595
v -0.02908638 0.03224228 -0.02736145
v -0.02325159 0.05445945 -0.05337894
v -0.01534644 0.04928722 -0.06301856
v -0.00459743 0.05961959 -0.05556983
v 0.00641701 0.04889842 -0.06237972
v 0.01643091 0.04872641 -0.05130559
v 0.02486356 0.01475944 -0.02188516
v 0.02031972 0.03368970 -0.03625083
v 0.03142552 -0.00217286 -0.00856638
v 0.03334905 -0.01742311 0.00647575
v 0.03179057 -0.02969077 -0.00530064
v 0.02530289 -0.03864137 0.01166070
v 0.02174327 -0.05012572 0.00153011
v 0.01067233 -0.04675042 0.01518965
v 0.00088721 -0.03882542 0.02802360
v -0.00499417 -0.04440525 0.01266545
v -0.01469722 -0.04904891 -0.00008368
v -0.03165263 -0.03450554 -0.01606548
v -0.03408356 -0.01581642 -0.02243209
v -0.03553978 0.02313390 -0.03736669
v -0.03448319 0.00427565 -0.02945256
v -0.03632401 0.03610986 -0.04785013
v -0.03299837 0.03769927 -0.06012142
v -0.02444004 0.02548991 -0.06416720
v -0.01456420 0.00475455 -0.06452096
v -0.00429785 0.03232759 -0.06368601
v 0.00652041 0.00554014 -0.06435639
v 0.01709437 0.02542883 -0.06335777
v 0.02311994 0.03118264 -0.05385059
v 0.02389283 0.02104163 -0.04230994
v 0.03217781 -0.01421869 -0.01896846
v 0.02814983 0.00336430 -0.03089523
v 0.03034219 -0.04520049 -0.01405132
v 0.03291401 -0.03014621 -0.02940613
v 0.02583173 -0.06610635 -0.01649874
v 0.01498978 -0.06249123 -0.00390387
v 0.00417516 -0.05518404 0.00389683
v -0.02441482 -0.05385150 -0.01254576
v -0.00572812 -0.06356138 -0.00325137
v -0.01507781 -0.07170696 -0.01392365
v -0.03596562 -0.04351650 -0.02873510
v -0.03072222 -0.06298104 -0.02578247
v -0.03884409 -0.00441308 -0.04013646
v -0.03798482 -0.02370251 -0.03440225
v -0.03970177 0.01209240 -0.04563761
v -0.03984447 0.01915141 -0.05294389
v -0.03714883 0.01347375 -0.06144458
v -0.03022815 -0.00204608 -0.06493509
v -0.01348740 -0.04551340 -0.06574899
v -0.00372037 -0.01977969 -0.06471008
v -0.02238034 -0.02255383 -0.06540245
v 0.00544426 -0.04489812 -0.06313419
v 0.01370342 -0.02115544 -0.06056011
v 0.02219753 -0.00169685 -0.05706382
v 0.02522331 0.01064557 -0.04918963
v 0.03032315 -0.00948768 -0.04040819
v 0.02731726 -0.02579201 -0.04910487
v 0.03280485 -0.04939303 -0.04097146
v 0.03179233 -0.07412603 -0.03218240
v 0.02527312 -0.09622592 -0.02687460
v 0.01645257 -0.08597253 -0.01592785
v 0.00522102 -0.07566812 -0.00814378
v -0.02427518 -0.08108138 -0.02621424
v -0.00569181 -0.08708380 -0.01787692
v -0.01725735 -0.09834657 -0.02900034
v -0.04296273 -0.03552455 -0.04446101
v -0.04164013 -0.05562174 -0.03971612
v -0.03878643 -0.07398648 -0.03669870
v -0.03429440 -0.09124654 -0.03693694
v -0.04252508 -0.01565291 -0.04974753
v -0.04114965 0.00249153 -0.05300695
v -0.04008390 -0.00936571 -0.06043243
v -0.03258350 -0.04768414 -0.06641173
v -0.03677173 -0.02708801 -0.06533837
v -0.02629507 -0.06932959 -0.06735218
v -0.01710026 -0.09403125 -0.06873828
v -0.00341007 -0.07091753 -0.06651694
v 0.01118612 -0.09501675 -0.06820476
v 0.01608068 -0.06917792 -0.06303322
v 0.02152641 -0.04615523 -0.05570078
v 0.03059262 -0.06925863 -0.05199838
v 0.03499593 -0.08995092 -0.04539734
v 0.03306230 -0.10790542 -0.03900838
v 0.02491912 -0.12397140 -0.03460151
v 0.01358199 -0.11359048 -0.02910656
v 0.00378375 -0.10136658 -0.02246416
v -0.02814211 -0.10869720 -0.04004091
v -0.00927533 -0.11386949 -0.03446865
v -0.02033003 -0.12513861 -0.04285711
v -0.04516007 -0.03034630 -0.05849260
v -0.05003470 -0.05061079 -0.05332762
v -0.04762509 -0.08564285 -0.04589188
v -0.05061837 -0.06942060 -0.04808587
v -0.04406321 -0.10172576 -0.04524481
v -0.03757800 -0.11768648 -0.04641569
v -0.04598556 -0.04930550 -0.06514096
v -0.04364708 -0.07041612 -0.06793368
v -0.03705800 -0.09032727 -0.06885022
v -0.02662055 -0.11252132 -0.06972611
v -0.02083533 -0.13257731 -0.06971079
v -0.01033826 -0.12060538 -0.06984615
v 0.00332987 -0.11922219 -0.06948739
v 0.01435206 -0.13002193 -0.06918961
v 0.02340363 -0.11113259 -0.06925046
v 0.02845944 -0.08985428 -0.06214231
v 0.03768558 -0.10754764 -0.05866057
v 0.03851283 -0.12170087 -0.05031896
v 0.03337056 -0.13276082 -0.04221535
v 0.02314045 -0.14208686 -0.03974527
v 0.01378149 -0.13657939 -0.03933531
v -0.00001159 -0.12623635 -0.03917831
v -0.01564838 -0.13765241 -0.04484773
v -0.02176166 -0.14265349 -0.04629058
v -0.02580631 -0.13499009 -0.04747778
v -0.05597334 -0.08412591 -0.05714041
v -0.05343099 -0.06860795 -0.06186366
v -0.05122064 -0.11006883 -0.05062002
v -0.05456631 -0.09746442 -0.05346948
v -0.03102614 -0.13245287 -0.04656684
v -0.03640759 -0.13570285 -0.04805338
v -0.04112256 -0.12595290 -0.04992169
v -0.05274458 -0.08710912 -0.06806946
v -0.04065795 -0.11224511 -0.06973004
v -0.03148997 -0.12824432 -0.06973726
v -0.02676582 -0.14005416 -0.06957418
v -0.02188614 -0.14800870 -0.06865507
v -0.01655315 -0.14537719 -0.06922126
v -0.01010300 -0.13866767 -0.06958336
v -0.00201970 -0.13790741 -0.06937104
v 0.01084284 -0.14891973 -0.06552184
v 0.02207582 -0.13923397 -0.06873786
v 0.00541361 -0.14429381 -0.06862062
v 0.03441523 -0.12587896 -0.06809312
v 0.03793338 -0.13493340 -0.05985254
v 0.03639764 -0.14103883 -0.05123299
v 0.02180597 -0.15259039 -0.04246181
v 0.01460852 -0.14907414 -0.04634762
v 0.03074247 -0.14718363 -0.04431355
v 0.00887947 -0.14196497 -0.04859895
v 0.00497207 -0.13664771 -0.04291272
v -0.00145119 -0.14345693 -0.04401541
v -0.00836801 -0.13812652 -0.04388165
v -0.01093775 -0.14352640 -0.04834974
v -0.01601475 -0.14891755 -0.04791659
v -0.02222753 -0.15163249 -0.04770809
v -0.02555610 -0.14726582 -0.05243278
v -0.02733670 -0.14108133 -0.05157506
v -0.05621316 -0.10793373 -0.05952346
v -0.05739838 -0.09868485 -0.06455630
v -0.04719041 -0.12231067 -0.04913801
v -0.05177572 -0.12409459 -0.05121350
v -0.05415821 -0.11638239 -0.05533236
v -0.03040276 -0.14310488 -0.05075639
v -0.03657027 -0.14327887 -0.04899466
v -0.04043935 -0.13875773 -0.05224305
v -0.04295489 -0.13072657 -0.05178040
v -0.05388767 -0.11215539 -0.06745118
v -0.04930186 -0.10722047 -0.06942570
v -0.04523680 -0.12682831 -0.06952053
v -0.03968814 -0.12951261 -0.06973237
v -0.03387502 -0.13775791 -0.06955177
v -0.02956696 -0.14443335 -0.06680423
v -0.01330990 -0.15263939 -0.06225711
v -0.02458005 -0.14862880 -0.06482530
v -0.01998830 -0.15288159 -0.06670064
v -0.01042189 -0.15111804 -0.06199747
v -0.00720735 -0.14947256 -0.06837213
v -0.00309235 -0.15231839 -0.06724268
v 0.00699279 -0.14715767 -0.05420613
v 0.01126337 -0.14817172 -0.05536807
v 0.02978458 -0.14467150 -0.06683820
v 0.03528166 -0.15275737 -0.05257559
v 0.03621690 -0.14852077 -0.06137574
v 0.02990483 -0.15671015 -0.04647142
v 0.02104309 -0.15994155 -0.04478443
v 0.01365815 -0.15696063 -0.04885954
v 0.01132753 -0.15532845 -0.05664206
v 0.01709385 -0.15161985 -0.06639057
v -0.00666039 -0.14913404 -0.04600132
v 0.00378139 -0.14826190 -0.04858422
v -0.00112619 -0.15281197 -0.04529279
v -0.01211618 -0.14860532 -0.05278611
v -0.01029515 -0.14821309 -0.05191463
v -0.01303084 -0.15360683 -0.05347461
v -0.01722084 -0.15569573 -0.04951918
v -0.02276210 -0.15720594 -0.04950505
v -0.02580170 -0.15426543 -0.05281103
v -0.02632596 -0.15140742 -0.05871981
v -0.02681023 -0.14545843 -0.05932873
v -0.02819198 -0.14403233 -0.05851948
v -0.05522618 -0.12120955 -0.05957073
v -0.05514438 -0.11704984 -0.06366688
v -0.04695351 -0.13055789 -0.05138111
v -0.05152237 -0.12968275 -0.05197948
v -0.05469006 -0.12561406 -0.05518115
v -0.03146832 -0.14483174 -0.06668985
v -0.02911709 -0.14672363 -0.05835074
v -0.03075349 -0.14714929 -0.05218804
v -0.03635979 -0.14736935 -0.05035865
v -0.04078929 -0.14403784 -0.05306470
v -0.04080629 -0.14046967 -0.06346512
v -0.04209365 -0.13709013 -0.05677587
v -0.04200362 -0.14127809 -0.05763841
v -0.04268336 -0.13696372 -0.06412977
v -0.04331277 -0.13466152 -0.05607718
v -0.05106780 -0.12830546 -0.06681627
v -0.04841264 -0.12873953 -0.06847358
v -0.04093352 -0.13611606 -0.06885666
v -0.03786324 -0.14062655 -0.06858057
v -0.01405719 -0.15545031 -0.06151730
v -0.02429956 -0.15461793 -0.06419760
v -0.01957209 -0.15671214 -0.06625074
v -0.00859691 -0.15246662 -0.06096232
v -0.00401162 -0.15556931 -0.06602550
v 0.00312519 -0.15323469 -0.06417149
v 0.00515430 -0.15371904 -0.05702764
v 0.02750266 -0.15515995 -0.06679094
v 0.03689475 -0.15919015 -0.06213224
v 0.03556785 -0.16192493 -0.05403477
v 0.01978384 -0.16681355 -0.04687011
v 0.01170984 -0.16349274 -0.04986566
v 0.02949551 -0.16542765 -0.04830289
v 0.00875738 -0.16230354 -0.05713969
v 0.01382296 -0.16031694 -0.06634724
v -0.00988783 -0.15297225 -0.05167335
v -0.00628664 -0.15624991 -0.04689896
v 0.00344607 -0.15664825 -0.05043799
v -0.00153242 -0.15982714 -0.04705477
v -0.01337492 -0.15842289 -0.05445701
v -0.01790842 -0.15985471 -0.05079192
v -0.02275282 -0.16042074 -0.05118424
v -0.02586716 -0.15816408 -0.05411142
v -0.02644075 -0.15640983 -0.05927640
v -0.05345871 -0.12725499 -0.06408405
v -0.05472517 -0.12839609 -0.05988848
v -0.04406101 -0.13486902 -0.06461465
v -0.04294483 -0.13483047 -0.05633456
v -0.04706903 -0.13319263 -0.05216163
v -0.05125092 -0.13281384 -0.05273217
v -0.05411993 -0.13045403 -0.05568433
v -0.03709275 -0.14378652 -0.06749547
v -0.03123796 -0.14671966 -0.06623334
v -0.02932890 -0.14884430 -0.05851883
v -0.03121088 -0.14950818 -0.05273688
v -0.03659476 -0.15063679 -0.05175030
v -0.04067293 -0.14790204 -0.05444521
v -0.04208875 -0.14492565 -0.05899912
v -0.04017147 -0.14354893 -0.06416523
v -0.04796672 -0.13349971 -0.06737363
v -0.01464090 -0.15830955 -0.06210274
v -0.02475777 -0.15797755 -0.06488836
v -0.01946950 -0.15925312 -0.06696403
v -0.00888553 -0.15557030 -0.06060106
v -0.00433162 -0.16002270 -0.06618941
v 0.00169706 -0.15827021 -0.06475282
v 0.00457254 -0.16029730 -0.05874908
v 0.02505605 -0.16491884 -0.06659454
v 0.03578338 -0.16859320 -0.06317365
v 0.03489222 -0.17133006 -0.05498213
v 0.02796935 -0.17294809 -0.04973942
v 0.01949568 -0.17024123 -0.04801536
v 0.01087469 -0.17027521 -0.04998881
v 0.00737238 -0.16814083 -0.05703986
v 0.01113738 -0.16725847 -0.06580776
v -0.00992675 -0.15864399 -0.05262226
v -0.00647935 -0.16192704 -0.04912060
v 0.00311702 -0.16280946 -0.05160159
v -0.00176995 -0.16508639 -0.04911560
v -0.01340845 -0.16160893 -0.05540019
v -0.01787707 -0.16283932 -0.05198616
v -0.02262245 -0.16322642 -0.05236715
v -0.02600306 -0.16102093 -0.05542082
v -0.02697361 -0.15946236 -0.06024754
v -0.05362248 -0.13245791 -0.06028014
v -0.05171396 -0.13249326 -0.06489742
v -0.04322404 -0.13565039 -0.06393450
v -0.04274297 -0.13623595 -0.05709499
v -0.04699671 -0.13555790 -0.05309105
v -0.05098216 -0.13598519 -0.05393350
v -0.05358432 -0.13405525 -0.05656683
v -0.03664035 -0.14591175 -0.06777269
v -0.02938046 -0.15019789 -0.05904883
v -0.03137723 -0.14842140 -0.06614554
v -0.03172524 -0.15209368 -0.05381352
v -0.03655389 -0.15387064 -0.05399311
v -0.04022761 -0.15152022 -0.05618525
v -0.04046173 -0.14608657 -0.06532192
v -0.04221745 -0.14828592 -0.06036186
v -0.04655503 -0.13496101 -0.06752181
v -0.01432064 -0.16105616 -0.06346250
v -0.02524081 -0.16077763 -0.06612080
v -0.01939261 -0.16275850 -0.06751227
v -0.00955899 -0.16186046 -0.06101179
v -0.00476785 -0.16507655 -0.06599361
v 0.00147972 -0.16348094 -0.06553817
v 0.00484188 -0.16714287 -0.05914783
v 0.02154285 -0.17300957 -0.06607848
v 0.03208849 -0.18046549 -0.05424184
v 0.03135827 -0.17831853 -0.06265587
v 0.01373138 -0.17420500 -0.04896617
v 0.02503538 -0.17684957 -0.04822654
v 0.01934655 -0.17437711 -0.04734838
v 0.00723213 -0.17519250 -0.05648363
v 0.00994022 -0.17451429 -0.06478441
v -0.01036805 -0.16439146 -0.05385858
v -0.00623712 -0.16696480 -0.05048293
v 0.00304019 -0.16924342 -0.05290931
v -0.00180715 -0.17069968 -0.05107975
v -0.01312530 -0.16495749 -0.05698299
v -0.01816098 -0.16555741 -0.05339497
v -0.02229510 -0.16587409 -0.05356842
v -0.02595836 -0.16410184 -0.05547988
v -0.02748100 -0.16262826 -0.06072849
v -0.05269834 -0.13533152 -0.06123883
v -0.05079417 -0.13469288 -0.06538850
v -0.04273014 -0.13659525 -0.06375688
v -0.04263881 -0.13760045 -0.05779487
v -0.04662748 -0.13814047 -0.05418777
v -0.05005081 -0.13948437 -0.05543035
v -0.05275363 -0.13758880 -0.05801427
v -0.03676707 -0.14854234 -0.06789488
v -0.03149767 -0.15034452 -0.06630492
v -0.02876079 -0.15225115 -0.05939287
v -0.03224860 -0.15504896 -0.05539572
v -0.03555143 -0.15647673 -0.05607319
v -0.03909259 -0.15516743 -0.05711591
v -0.04149221 -0.15309059 -0.06093317
v -0.04094157 -0.15009683 -0.06535012
v -0.04602960 -0.13611626 -0.06742609
v -0.01376988 -0.16553867 -0.06671143
v -0.02372983 -0.16672870 -0.06651706
v -0.01919317 -0.16762069 -0.06665766
v -0.01027927 -0.16755032 -0.06102479
v -0.00502133 -0.16959816 -0.06633383
v 0.00216796 -0.16827795 -0.06524408
v 0.00510739 -0.17309356 -0.05891061
v 0.01919574 -0.18100887 -0.06464726
v 0.02558655 -0.18544689 -0.06004435
v 0.02699025 -0.18612194 -0.05277914
v 0.02684332 -0.18181065 -0.04847419
v 0.01043168 -0.17781016 -0.04988223
v 0.01460475 -0.17697629 -0.04786551
v 0.01216775 -0.18038264 -0.04869801
v 0.02274522 -0.17877683 -0.04670018
v 0.02438594 -0.18336335 -0.04730016
v 0.01781070 -0.17991331 -0.04585725
v 0.01042752 -0.18122524 -0.06077188
v 0.00917177 -0.18174860 -0.05480111
v -0.01024126 -0.16988563 -0.05407679
v -0.00611734 -0.17170596 -0.05113614
v 0.00170992 -0.17450175 -0.05392015
v -0.00246693 -0.17448672 -0.05189872
v -0.01172173 -0.16717052 -0.06219929
v -0.01487651 -0.16802114 -0.05667686
v -0.01889043 -0.16794380 -0.05448294
v -0.02176693 -0.16844997 -0.05489308
v -0.02468181 -0.16759991 -0.05572027
v -0.02760413 -0.16645223 -0.06374401
v -0.02742682 -0.16701507 -0.05877364
v -0.05156727 -0.13863787 -0.06221294
v -0.04985170 -0.13668421 -0.06589735
v -0.04248852 -0.13739377 -0.06431448
v -0.04241043 -0.13934135 -0.05834514
v -0.04653300 -0.14118737 -0.05545735
v -0.04886253 -0.14202869 -0.05710155
v -0.05123127 -0.14079723 -0.05889720
v -0.03625324 -0.15159350 -0.06786895
v -0.02772531 -0.15466368 -0.06327230
v -0.02905084 -0.15669426 -0.05801439
v -0.03254364 -0.15738383 -0.05691189
v -0.03481732 -0.15831774 -0.05728000
v -0.03730193 -0.15789690 -0.05767834
v -0.03969339 -0.15707570 -0.05959064
v -0.04095440 -0.15589422 -0.06311619
v -0.04613280 -0.13774711 -0.06759977
v -0.01299199 -0.17096984 -0.06563127
v -0.01232083 -0.17086246 -0.06291735
v -0.02679650 -0.17033058 -0.06320280
v -0.02481599 -0.17071327 -0.06513000
v -0.01618429 -0.17075836 -0.06620955
v -0.02189416 -0.17075425 -0.06572497
v -0.01950021 -0.17213982 -0.06555766
v -0.01064220 -0.17405802 -0.06442410
v -0.00465745 -0.17696702 -0.06540900
v 0.00149111 -0.17571690 -0.06558025
v 0.00482833 -0.17763102 -0.06124616
v 0.00293139 -0.17754268 -0.05680674
v 0.01686090 -0.18638187 -0.05906522
v 0.02173290 -0.18780276 -0.05514199
v 0.02159604 -0.18769821 -0.05000937
v 0.02463000 -0.18522966 -0.04829550
v 0.01140822 -0.18283287 -0.04964823
v 0.01385306 -0.18182832 -0.04700440
v 0.01333594 -0.18302402 -0.04751056
v 0.02137649 -0.18456834 -0.04643369
v 0.02129912 -0.18310696 -0.04574460
v 0.01696247 -0.18353516 -0.04565287
v 0.01269718 -0.18560841 -0.05084807
v 0.01203707 -0.18483192 -0.05588418
v -0.01205900 -0.17330786 -0.05774105
v -0.00912753 -0.17411110 -0.05317265
v -0.00597629 -0.17501420 -0.05220068
v -0.00006834 -0.17684150 -0.05422902
v -0.00306316 -0.17638042 -0.05275416
v -0.01404642 -0.17036694 -0.05871099
v -0.01706178 -0.17000270 -0.05607450
v -0.02319004 -0.16988665 -0.05605024
v -0.01955858 -0.16983023 -0.05527180
v -0.02127442 -0.17045906 -0.05563611
v -0.02551365 -0.17034310 -0.05726498
v -0.02730154 -0.17060879 -0.05988580
v -0.05066632 -0.14175048 -0.06151509
v -0.04979834 -0.14032954 -0.06431937
v -0.04024534 -0.14015922 -0.06227034
v -0.04351199 -0.14260903 -0.05726832
v -0.04647173 -0.14325422 -0.05684137
v -0.04810415 -0.14400047 -0.05852169
v -0.05006377 -0.14274505 -0.05942875
v -0.03128767 -0.15383830 -0.06731403
v -0.03941432 -0.15495568 -0.06661892
v -0.03511588 -0.15602648 -0.06701130
v -0.02801704 -0.15961712 -0.06318164
v -0.02974126 -0.15808236 -0.06625146
v -0.02876258 -0.15924141 -0.05988163
v -0.03100480 -0.15862390 -0.05795038
v -0.03638622 -0.15924698 -0.05799347
v -0.03287518 -0.15868583 -0.05777180
v -0.03438920 -0.15911341 -0.05782610
v -0.03793147 -0.15960854 -0.05883813
v -0.03899422 -0.15995875 -0.06044847
v -0.03947900 -0.15949824 -0.06282568
v -0.03885488 -0.15875390 -0.06487370
v -0.04176615 -0.13913652 -0.06679356
v -0.04794687 -0.14015493 -0.06705469
v -0.04492055 -0.14122617 -0.06792128
v -0.01690687 -0.17322573 -0.06508464
v -0.01484038 -0.17354679 -0.06408846
v -0.01411168 -0.17315066 -0.06185049
v -0.01487866 -0.17235780 -0.05922741
v -0.02637292 -0.17280546 -0.05939478
v -0.02578354 -0.17283800 -0.06169295
v -0.02435081 -0.17295146 -0.06351751
v -0.02214503 -0.17304194 -0.06468952
v -0.01981139 -0.17464196 -0.06340069
v -0.01135117 -0.17848030 -0.06228352
v -0.01201020 -0.17736524 -0.05801779
v -0.00808378 -0.17983174 -0.06422389
v -0.00446977 -0.18163958 -0.06380290
v -0.00051254 -0.18029570 -0.06434000
v 0.00231011 -0.18058041 -0.06247568
v 0.00311664 -0.18008739 -0.05997813
v 0.00022265 -0.17897627 -0.05561006
v 0.00210306 -0.17967164 -0.05791312
v 0.01628104 -0.18730035 -0.05209106
v 0.01661482 -0.18521678 -0.04745770
v -0.00797118 -0.17651158 -0.05359924
v -0.01024930 -0.17668369 -0.05507523
v -0.00158836 -0.17800945 -0.05411011
v -0.00357009 -0.17764017 -0.05364686
v -0.00567637 -0.17673030 -0.05313343
v -0.01837227 -0.17125380 -0.05627984
v -0.01663548 -0.17183474 -0.05711424
v -0.02400033 -0.17170638 -0.05686939
v -0.02559271 -0.17240724 -0.05764979
v -0.01980203 -0.17164460 -0.05600828
v -0.02113308 -0.17280748 -0.05638587
v -0.02257164 -0.17175400 -0.05620593
v -0.04933275 -0.14372155 -0.06128114
v -0.04951379 -0.14309427 -0.06294996
v -0.04870480 -0.14255765 -0.06482852
v -0.04753594 -0.14267781 -0.06632209
v -0.03924555 -0.14190286 -0.06617820
v -0.03939253 -0.14287245 -0.06332487
v -0.04149821 -0.14371961 -0.05924088
v -0.04488499 -0.14451560 -0.05776668
v -0.04829784 -0.14458024 -0.06011927
v -0.04621910 -0.14479059 -0.05864429
v -0.04691815 -0.14508548 -0.05959642
v -0.03242403 -0.15791166 -0.06634694
v -0.03677581 -0.15867093 -0.06605262
v -0.03463808 -0.15930372 -0.06596446
v -0.02951251 -0.16093939 -0.06032217
v -0.02925755 -0.16177189 -0.06262839
v -0.03032070 -0.16157508 -0.06455660
v -0.03273742 -0.16043082 -0.06542969
v -0.03089474 -0.16007224 -0.05884969
v -0.03210583 -0.15956014 -0.05836809
v -0.03654882 -0.16042211 -0.05862379
v -0.03761692 -0.16097504 -0.05934769
v -0.03308666 -0.15974089 -0.05819428
v -0.03420563 -0.16075700 -0.05853307
v -0.03555435 -0.16018620 -0.05826753
v -0.03783590 -0.16152474 -0.06046528
v -0.03740256 -0.16172248 -0.06215972
v -0.03664725 -0.16129428 -0.06394106
v -0.03580855 -0.16065267 -0.06518233
v -0.04118462 -0.14213747 -0.06790113
v -0.04600684 -0.14307561 -0.06704235
v -0.04363587 -0.14364251 -0.06736392
v -0.01742713 -0.17494339 -0.06179440
v -0.01651897 -0.17446461 -0.06015527
v -0.01621523 -0.17347130 -0.05860132
v -0.01695177 -0.17286655 -0.05788690
v -0.02467038 -0.17329034 -0.05768996
v -0.02513437 -0.17394885 -0.05851746
v -0.02466996 -0.17447933 -0.05990398
v -0.02281179 -0.17478230 -0.06169695
v -0.02061845 -0.17551967 -0.05977470
v -0.00744148 -0.18222508 -0.06242925
v -0.01038612 -0.18183473 -0.05987179
v -0.01152173 -0.18043881 -0.05742192
v -0.01051998 -0.17942136 -0.05577165
v -0.00470887 -0.18310466 -0.06092066
v -0.00179844 -0.18240243 -0.06239414
v 0.00033410 -0.18197790 -0.06029677
v 0.00098400 -0.18143913 -0.05910200
v 0.00055452 -0.18074307 -0.05733961
v -0.00042398 -0.18034082 -0.05628628
v -0.00111581 -0.17939442 -0.05548364
v -0.00728430 -0.17794442 -0.05417097
v -0.00869645 -0.17848512 -0.05472320
v -0.00603034 -0.17835253 -0.05383742
v -0.00275441 -0.17904043 -0.05439413
v -0.00491256 -0.18012237 -0.05433708
v -0.01852274 -0.17258993 -0.05672348
v -0.02388160 -0.17296973 -0.05683923
v -0.01956856 -0.17393920 -0.05708688
v -0.02105726 -0.17479241 -0.05771661
v -0.02283005 -0.17418060 -0.05698276
v -0.04772453 -0.14517972 -0.06088698
v -0.04822259 -0.14491510 -0.06192309
v -0.04818426 -0.14480740 -0.06314349
v -0.04735543 -0.14476085 -0.06438130
v -0.04612054 -0.14473659 -0.06556976
v -0.04483478 -0.14454385 -0.06654686
v -0.04132624 -0.14435416 -0.06724632
v -0.03971039 -0.14546609 -0.06573880
v -0.04014158 -0.14568510 -0.06287253
v -0.04191753 -0.14562702 -0.06034654
v -0.04404226 -0.14541462 -0.05903506
v -0.04517347 -0.14543992 -0.05919999
v -0.04584734 -0.14563468 -0.05949169
v -0.04632322 -0.14609957 -0.06020445
v -0.04716811 -0.14553219 -0.06030267
v -0.03331777 -0.16189977 -0.06445813
v -0.03128016 -0.16091096 -0.05951607
v -0.03092383 -0.16177657 -0.06032914
v -0.03106253 -0.16253051 -0.06162184
v -0.03160001 -0.16267237 -0.06322438
v -0.03221947 -0.16043487 -0.05876839
v -0.03636566 -0.16117051 -0.05888283
v -0.03682397 -0.16196552 -0.06021887
v -0.03683896 -0.16153204 -0.05958664
v -0.03296587 -0.16152388 -0.05909783
v -0.03405052 -0.16221574 -0.05952764
v -0.03542826 -0.16179785 -0.05907696
v -0.03602681 -0.16247323 -0.06116188
v -0.03460635 -0.16252053 -0.06275618
v -0.04321827 -0.14583519 -0.06601650
v -0.01879738 -0.17480153 -0.05859321
v -0.01768732 -0.17406973 -0.05796272
v -0.02395585 -0.17430255 -0.05780810
v -0.02290808 -0.17496958 -0.05839086
v -0.00821479 -0.18345022 -0.05853462
v -0.01003982 -0.18229657 -0.05698043
v -0.00899728 -0.18061909 -0.05544335
v -0.01000890 -0.18136263 -0.05597186
v -0.00558911 -0.18364015 -0.05740923
v -0.00256452 -0.18322220 -0.05924821
v -0.00159281 -0.18271756 -0.05781472
v -0.00111891 -0.18098640 -0.05635720
v -0.00110064 -0.18177950 -0.05695850
v -0.00201140 -0.18039623 -0.05534840
v -0.00776027 -0.17963388 -0.05466986
v -0.00754543 -0.18189609 -0.05492598
v -0.00401470 -0.18197220 -0.05514288
v -0.00603350 -0.18291402 -0.05549473
v -0.04725918 -0.14580574 -0.06111628
v -0.04723875 -0.14581314 -0.06193095
v -0.04724626 -0.14590058 -0.06284100
v -0.04654157 -0.14613017 -0.06367147
v -0.04496509 -0.14612341 -0.06478828
v -0.04238850 -0.14672258 -0.06445312
v -0.04251699 -0.14680007 -0.06244779
v -0.04398699 -0.14611625 -0.05996525
v -0.04326460 -0.14651897 -0.06071067
v -0.04502286 -0.14602369 -0.05973667
v -0.04529408 -0.14669230 -0.06050485
v -0.04567005 -0.14695820 -0.06161535
v -0.04653104 -0.14651942 -0.06126434
v -0.03357457 -0.16293227 -0.06144184
v -0.03181769 -0.16179243 -0.05982679
v -0.03286201 -0.16247859 -0.06026590
v -0.03632785 -0.16200644 -0.05967456
v -0.03501366 -0.16242689 -0.06019318
v -0.04462038 -0.14698541 -0.06333309
v -0.00902279 -0.18211677 -0.05576140
v -0.00790489 -0.18292382 -0.05626750
v -0.00381148 -0.18292588 -0.05664778
v -0.00266927 -0.18246957 -0.05608135
v -0.04677121 -0.14640528 -0.06213814
v -0.04596528 -0.14668611 -0.06261677
v -0.04422012 -0.14675000 -0.06071514
v -0.04452927 -0.14707169 -0.06182575
v -0.00038537 0.04863362 0.01596469
v 0.01663620 0.03718598 0.01922655
v -0.00492492 0.05038873 -0.00410300
v 0.01267721 0.04091471 -0.00352699
v -0.01894237 0.03371873 -0.00503522
v -0.01069683 0.06017731 -0.02963334
v 0.00884432 0.05451851 -0.02958125
v 0.02439818 0.01964955 0.00017250
v -0.02383390 -0.02634568 0.00486928
v -0.03058866 -0.01066096 -0.00079316
v -0.03189214 0.01214719 -0.00610542
v -0.02480182 0.04442297 -0.02754664
v -0.01428805 0.05857022 -0.05499303
v 0.00634333 0.05682537 -0.05462718
v 0.02023226 0.02921817 -0.02446997
v 0.03407091 -0.00453429 0.00437719
v 0.03024863 -0.02934265 0.00893432
v 0.01833800 -0.04444965 0.01412898
v -0.01273672 -0.04039560 0.00980961
v -0.03135629 -0.02289636 -0.01372963
v -0.03247359 0.01864148 -0.02795154
v -0.03106099 0.04685280 -0.05069423
v -0.01542196 0.02994836 -0.06386662
v 0.00699018 0.03076749 -0.06361121
v 0.02178288 0.03557375 -0.04635245
v 0.02905743 0.00041163 -0.02011877
v 0.03237790 -0.02990379 -0.01737976
v 0.02405137 -0.05627671 -0.00843656
v 0.00296704 -0.04647755 0.01457667
v -0.01548615 -0.05954341 -0.00684834
v -0.03115019 -0.04834701 -0.02026868
v -0.03635593 -0.00945574 -0.03165936
v -0.03873233 0.02410403 -0.04588842
v -0.03178360 0.01980724 -0.06410003
v -0.01331837 -0.02079250 -0.06517470
v 0.00524600 -0.01986029 -0.06325614
v 0.02284136 0.01753717 -0.05698723
v 0.02741130 0.00659912 -0.04076576
v 0.03180717 -0.02821563 -0.04048681
v 0.02591763 -0.08050502 -0.02214742
v 0.00470047 -0.06464743 -0.00222379
v -0.01555774 -0.08467677 -0.02149057
v -0.03955287 -0.03923363 -0.03708261
v -0.03196308 -0.07734896 -0.03139836
v -0.04089688 -0.00071571 -0.04732215
v -0.03997049 0.00732159 -0.05738688
v -0.03021523 -0.02487463 -0.06565499
v -0.01534562 -0.06999184 -0.06687063
v 0.00724976 -0.07023910 -0.06556547
v 0.02121174 -0.02333596 -0.05568951
v 0.03375317 -0.07059817 -0.04284954
v 0.02512861 -0.11078329 -0.03147471
v 0.00508381 -0.08803292 -0.01500267
v -0.01900220 -0.11183962 -0.03748888
v -0.04547663 -0.03250300 -0.05184007
v -0.04495761 -0.07131517 -0.04243791
v -0.03656079 -0.10491124 -0.04268134
v -0.04213627 -0.02876494 -0.06322610
v -0.03573944 -0.06982408 -0.06769162
v -0.01837766 -0.11553721 -0.06981546
v 0.01330806 -0.11402497 -0.06940478
v 0.02429807 -0.06878309 -0.05862916
v 0.03699723 -0.10705867 -0.04874533
v 0.02426726 -0.13448271 -0.03726655
v 0.00177732 -0.11413123 -0.03140813
v -0.02183567 -0.13567607 -0.04537231
v -0.05401054 -0.06845129 -0.05510521
v -0.05001676 -0.09893136 -0.04895216
v -0.03668740 -0.12812432 -0.04782689
v -0.05000432 -0.06953099 -0.06669790
v -0.03416251 -0.11097680 -0.06973124
v -0.02249813 -0.14180615 -0.06957966
v -0.00496829 -0.12819876 -0.06979090
v 0.01332195 -0.14211818 -0.06858492
v 0.03312156 -0.10891354 -0.06720662
v 0.03753005 -0.13305448 -0.05083114
v 0.02236590 -0.14785233 -0.04125947
v 0.00869478 -0.13810351 -0.04356021
v -0.00153892 -0.13654452 -0.04249924
v -0.01133908 -0.13969400 -0.04638195
v -0.02187262 -0.14765990 -0.04694861
v -0.02792028 -0.13616630 -0.04800189
v -0.05712548 -0.09741870 -0.05886638
v -0.05172414 -0.11844918 -0.05116427
v -0.03650814 -0.14029828 -0.04840076
v -0.04368322 -0.12621629 -0.05010897
v -0.05416679 -0.10138122 -0.06863123
v -0.04447719 -0.11806217 -0.06957030
v -0.03036968 -0.13888296 -0.06939960
v -0.02058887 -0.15072325 -0.06698489
v -0.01110770 -0.14857411 -0.06859100
v -0.00168744 -0.14736268 -0.06878972
v 0.00931102 -0.14642507 -0.05492067
v 0.03234151 -0.13730401 -0.06721884
v 0.03551280 -0.14727014 -0.05181408
v 0.02147216 -0.15652269 -0.04390043
v 0.01174134 -0.15133795 -0.05594474
v -0.00112090 -0.14845878 -0.04480177
v -0.01111151 -0.14756366 -0.05233073
v -0.01276231 -0.15087595 -0.05310392
v -0.02267089 -0.15486911 -0.04847527
v -0.02630907 -0.14785653 -0.05909044
v -0.02773738 -0.14440140 -0.05892962
v -0.05521785 -0.11579722 -0.05962926
v -0.05162747 -0.12750092 -0.05164361
v -0.02866811 -0.14493030 -0.05836129
v -0.03645733 -0.14561286 -0.04976410
v -0.04206832 -0.13917449 -0.05703622
v -0.04261838 -0.13546496 -0.05638492
v -0.05269748 -0.12106681 -0.06652188
v -0.04393163 -0.13363716 -0.06874776
v -0.03763109 -0.13690230 -0.06942350
v -0.01972118 -0.15523818 -0.06626230
v -0.00370081 -0.15417632 -0.06632245
v 0.00582656 -0.14987805 -0.05524534
v 0.02861081 -0.14992353 -0.06708807
v 0.03550901 -0.15742096 -0.05329537
v 0.02036549 -0.16341224 -0.04560149
v 0.01008844 -0.15923887 -0.05709213
v -0.00992957 -0.15041661 -0.05162466
v -0.00123769 -0.15663650 -0.04612559
v -0.01317485 -0.15616399 -0.05404645
v -0.02273473 -0.15892792 -0.05042219
v -0.02627388 -0.15431094 -0.05885047
v -0.05510861 -0.12517759 -0.05969250
v -0.04310730 -0.13438332 -0.05603361
v -0.05130492 -0.13131508 -0.05239379
v -0.03747244 -0.14262032 -0.06771147
v -0.02926305 -0.14801448 -0.05842084
v -0.03636990 -0.14892855 -0.05097079
v -0.04190509 -0.14329186 -0.05839086
v -0.04928653 -0.13192674 -0.06716114
v -0.01947068 -0.15803644 -0.06648755
v -0.00435315 -0.15764111 -0.06597066
v 0.00468789 -0.15703541 -0.05817240
v 0.02631551 -0.16054976 -0.06693017
v 0.03541523 -0.16671195 -0.05460107
v 0.01950873 -0.16894579 -0.04773086
v 0.00778350 -0.16521203 -0.05704272
v -0.00988668 -0.15573984 -0.05194318
v -0.00177512 -0.16250861 -0.04814124
v -0.01350603 -0.16002232 -0.05480665
v -0.02273428 -0.16184047 -0.05179381
v -0.02675982 -0.15803054 -0.05972052
v -0.05405676 -0.13074632 -0.06006032
v -0.04281765 -0.13554403 -0.05673790
v -0.05116130 -0.13432345 -0.05328214
v -0.03679690 -0.14482304 -0.06762600
v -0.02937309 -0.14951685 -0.05867589
v -0.03675310 -0.15230584 -0.05279815
v -0.04228951 -0.14645970 -0.05958652
v -0.04709062 -0.13434365 -0.06750965
v -0.01950274 -0.16065967 -0.06748044
v -0.00452423 -0.16265720 -0.06625950
v 0.00458850 -0.16380334 -0.05890167
v 0.02336960 -0.16908559 -0.06634593
v 0.03373499 -0.17610350 -0.05476624
v 0.01967041 -0.17176637 -0.04791510
v 0.00719149 -0.17128369 -0.05687171
v -0.01018400 -0.16147232 -0.05334008
v -0.00176653 -0.16796180 -0.05012870
v -0.01329203 -0.16312748 -0.05629009
v -0.02244838 -0.16456735 -0.05299890
v -0.02717161 -0.16092226 -0.06071478
v -0.05321172 -0.13390896 -0.06071150
v -0.04268143 -0.13691550 -0.05741531
v -0.05064332 -0.13785016 -0.05465484
v -0.03670594 -0.14714986 -0.06787604
v -0.02917816 -0.15105930 -0.05940932
v -0.03600694 -0.15515849 -0.05515355
v -0.04200050 -0.15063187 -0.06092775
v -0.04622878 -0.13552961 -0.06746113
v -0.01916862 -0.16516101 -0.06717986
v -0.00489558 -0.16706914 -0.06581265
v 0.00505990 -0.16994089 -0.05937850
v 0.02031599 -0.17704928 -0.06555706
v 0.02962403 -0.18411946 -0.05369300
v 0.01249567 -0.17776337 -0.04896790
v 0.02510722 -0.18105653 -0.04754180
v 0.01866840 -0.17698797 -0.04664934
v 0.00793196 -0.17901265 -0.05571705
v -0.01038511 -0.16742784 -0.05422097
v -0.00202444 -0.17287996 -0.05147940
v -0.01376320 -0.16677642 -0.05683851
v -0.02209155 -0.16725939 -0.05430281
v -0.02766539 -0.16462204 -0.05990285
v -0.05209398 -0.13686445 -0.06191486
v -0.04252023 -0.13834807 -0.05820239
v -0.04934986 -0.14081439 -0.05623120
v -0.03671907 -0.15012204 -0.06777042
v -0.02833751 -0.15437206 -0.05841643
v -0.03513102 -0.15751150 -0.05674535
v -0.04068318 -0.15514588 -0.06033605
v -0.04599805 -0.13678697 -0.06747735
v -0.01186165 -0.16905811 -0.06513649
v -0.02612005 -0.16874325 -0.06506664
v -0.01927099 -0.16997251 -0.06614041
v -0.00498921 -0.17360809 -0.06611329
v 0.00453413 -0.17597258 -0.05764067
v 0.01800621 -0.18444452 -0.06238902
v 0.02480122 -0.18701422 -0.05141860
v 0.01220351 -0.18205601 -0.04840022
v 0.02349649 -0.18424478 -0.04716420
v 0.01728134 -0.18211305 -0.04554355
v 0.01078363 -0.18378863 -0.05310392
v -0.00978723 -0.17203972 -0.05339766
v -0.00280967 -0.17553648 -0.05239886
v -0.01604810 -0.16914376 -0.05628312
v -0.02147627 -0.16944620 -0.05536610
v -0.02645048 -0.16899419 -0.05791551
v -0.05117466 -0.14048421 -0.06186807
v -0.04259865 -0.14111396 -0.05780041
v -0.04846770 -0.14307216 -0.05775160
v -0.03558794 -0.15372872 -0.06757468
v -0.02827650 -0.15641090 -0.06601202
v -0.03008273 -0.15785637 -0.05792159
v -0.03458498 -0.15874106 -0.05761254
v -0.03872603 -0.15868869 -0.05915254
v -0.04023217 -0.15720230 -0.06433988
v -0.04564585 -0.13942250 -0.06791407
v -0.01481542 -0.17228550 -0.06552386
v -0.01342618 -0.17175239 -0.06068277
v -0.02671100 -0.17169738 -0.06123513
v -0.02353974 -0.17195973 -0.06498164
v -0.01972789 -0.17374188 -0.06467992
v -0.01239209 -0.17593503 -0.06086367
v -0.00438689 -0.17966837 -0.06481338
v 0.00349958 -0.17936379 -0.06247324
v 0.00144544 -0.17840293 -0.05629885
v 0.01634797 -0.18714586 -0.05577725
v 0.01633616 -0.18700468 -0.04924572
v 0.01680952 -0.18410131 -0.04608047
v -0.00848544 -0.17552036 -0.05341315
v -0.00329535 -0.17705673 -0.05321401
v -0.01784056 -0.17066043 -0.05609912
v -0.02465458 -0.17106044 -0.05685395
v -0.02115849 -0.17158097 -0.05591542
v -0.05011322 -0.14268747 -0.06144613
v -0.04861526 -0.14120388 -0.06574982
v -0.03943726 -0.14099869 -0.06498003
v -0.04432957 -0.14357137 -0.05715609
v -0.04745702 -0.14464173 -0.05925500
v -0.03479481 -0.15783101 -0.06639063
v -0.02844477 -0.16053933 -0.06156224
v -0.03123201 -0.15947613 -0.06584960
v -0.03162587 -0.15915066 -0.05811524
v -0.03730652 -0.16010520 -0.05868071
v -0.03426862 -0.15974405 -0.05806154
v -0.03844640 -0.16097230 -0.06145400
v -0.03729378 -0.16003632 -0.06509215
v -0.04423398 -0.14255395 -0.06769782
v -0.01559868 -0.17421713 -0.06202751
v -0.01608796 -0.17280233 -0.05814761
v -0.02562822 -0.17323902 -0.05824047
v -0.02463804 -0.17386201 -0.06177735
v -0.02005145 -0.17525080 -0.06163162
v -0.00993712 -0.18048063 -0.06233621
v -0.01136826 -0.17856493 -0.05659759
v -0.00469461 -0.18265092 -0.06235713
v 0.00070280 -0.18158197 -0.06236762
v 0.00198960 -0.18027207 -0.05854642
v -0.00067408 -0.17924195 -0.05536515
v -0.00752090 -0.17735454 -0.05382955
v -0.00420053 -0.17855006 -0.05385721
v -0.01885451 -0.17181548 -0.05628586
v -0.02357501 -0.17218303 -0.05663389
v -0.02123792 -0.17415324 -0.05697656
v -0.04852429 -0.14460531 -0.06113982
v -0.04854943 -0.14387625 -0.06388628
v -0.04630487 -0.14382487 -0.06648147
v -0.03960302 -0.14321765 -0.06709033
v -0.04016878 -0.14451906 -0.06156468
v -0.04501860 -0.14506239 -0.05852538
v -0.04661380 -0.14557278 -0.05981714
v -0.03422324 -0.16075447 -0.06534779
v -0.03054351 -0.16103509 -0.05966216
v -0.03029041 -0.16242033 -0.06314117
v -0.03245324 -0.15991160 -0.05842227
v -0.03616725 -0.16064104 -0.05856258
v -0.03736109 -0.16158125 -0.05990332
v -0.03414834 -0.16171029 -0.05901277
v -0.03612830 -0.16222152 -0.06245703
v -0.04323024 -0.14472061 -0.06691414
v -0.01726006 -0.17421073 -0.05871290
v -0.01807979 -0.17349505 -0.05737031
v -0.02401249 -0.17385599 -0.05714673
v -0.02429964 -0.17453441 -0.05849469
v -0.02088940 -0.17511540 -0.05840850
v -0.01048097 -0.18216863 -0.05806512
v -0.00962028 -0.18012246 -0.05539781
v -0.00523339 -0.18365049 -0.05899251
v -0.00050415 -0.18251231 -0.05934322
v -0.00054991 -0.18097013 -0.05661333
v -0.00184596 -0.17953405 -0.05503559
v -0.00709476 -0.17853087 -0.05418283
v -0.00576960 -0.18207329 -0.05488950
v -0.04739270 -0.14551437 -0.06074834
v -0.04775904 -0.14542249 -0.06254643
v -0.04616703 -0.14551869 -0.06465846
v -0.04107434 -0.14656004 -0.06384504
v -0.04330370 -0.14593872 -0.05981725
v -0.04533325 -0.14571827 -0.05945981
v -0.04597709 -0.14665392 -0.06090707
v -0.03316700 -0.16268968 -0.06298029
v -0.03198482 -0.16121563 -0.05929238
v -0.03170501 -0.16223037 -0.06044030
v -0.03640603 -0.16171372 -0.05929261
v -0.03614682 -0.16224694 -0.06022209
v -0.03398587 -0.16249990 -0.06016612
v -0.04362264 -0.14652166 -0.06471974
v -0.00941257 -0.18223199 -0.05634606
v -0.00857289 -0.18128040 -0.05521393
v -0.00573596 -0.18315106 -0.05633694
v -0.00226632 -0.18252560 -0.05688345
v -0.00247192 -0.18164128 -0.05562967
v -0.04697691 -0.14619314 -0.06159240
v -0.04667744 -0.14633035 -0.06285489
v -0.04372501 -0.14688569 -0.06134987
v -0.04463620 -0.14645612 -0.06020403
v -0.04526365 -0.14697879 -0.06225020
f 322 319 958
f 958 319 321
f 308 320 321
f 321 320 958
f 959 318 323
f 319 322 323
f 323 322 959
f 327 2 960
f 960 2 326
f 326 1 960
f 960 1 325
f 325 308 960
f 960 308 321
f 319 327 321
f 321 327 960
f 329 11 961
f 961 11 328
f 2 327 328
f 328 327 961
f 327 319 961
f 961 319 323
f 318 329 323
f 323 329 961
f 1 335 325
f 325 335 962
f 335 3 962
f 962 3 334
f 309 324 334
f 334 324 962
f 324 308 962
f 962 308 325
f 338 255 963
f 963 255 337
f 337 139 963
f 963 139 336
f 1 326 336
f 336 326 963
f 2 338 326
f 326 338 963
f 11 340 328
f 328 340 964
f 340 253 964
f 964 253 339
f 255 338 339
f 339 338 964
f 338 2 964
f 964 2 328
f 11 329 342
f 342 329 965
f 329 318 965
f 965 318 330
f 317 341 330
f 330 341 965
f 341 12 965
f 965 12 342
f 10 348 349
f 349 348 966
f 9 347 348
f 348 347 966
f 312 331 347
f 347 331 966
f 331 311 966
f 966 311 349
f 4 350 351
f 351 350 967
f 350 10 967
f 967 10 349
f 311 332 349
f 349 332 967
f 332 310 967
f 967 310 351
f 3 352 334
f 334 352 968
f 4 351 352
f 352 351 968
f 310 333 351
f 351 333 968
f 333 309 968
f 968 309 334
f 3 335 354
f 354 335 969
f 335 1 969
f 969 1 336
f 139 353 336
f 336 353 969
f 353 256 969
f 969 256 354
f 255 357 337
f 337 357 970
f 357 257 970
f 970 257 356
f 141 355 356
f 356 355 970
f 355 139 970
f 970 139 337
f 357 255 971
f 971 255 339
f 253 359 339
f 339 359 971
f 254 358 359
f 359 358 971
f 358 257 971
f 971 257 357
f 253 340 361
f 361 340 972
f 340 11 972
f 972 11 342
f 12 360 342
f 342 360 972
f 360 137 972
f 972 137 361
f 363 5 973
f 973 5 362
f 12 341 362
f 362 341 973
f 341 317 973
f 973 317 343
f 316 363 343
f 343 363 973
f 365 6 974
f 974 6 364
f 5 363 364
f 364 363 974
f 363 316 974
f 974 316 344
f 315 365 344
f 344 365 974
f 367 7 975
f 975 7 366
f 6 365 366
f 366 365 975
f 365 315 975
f 975 315 345
f 314 367 345
f 345 367 975
f 9 370 347
f 347 370 976
f 370 8 976
f 976 8 369
f 313 346 369
f 369 346 976
f 346 312 976
f 976 312 347
f 4 372 350
f 350 372 977
f 372 175 977
f 977 175 371
f 9 348 371
f 371 348 977
f 348 10 977
f 977 10 350
f 4 352 374
f 374 352 978
f 352 3 978
f 978 3 354
f 256 373 354
f 354 373 978
f 373 140 978
f 978 140 374
f 355 141 979
f 979 141 376
f 258 375 376
f 376 375 979
f 375 256 979
f 979 256 353
f 139 355 353
f 353 355 979
f 257 379 356
f 356 379 980
f 379 250 980
f 980 250 378
f 249 377 378
f 378 377 980
f 377 141 980
f 980 141 356
f 257 358 379
f 379 358 981
f 358 254 981
f 981 254 381
f 248 380 381
f 381 380 981
f 380 250 981
f 981 250 379
f 383 138 982
f 982 138 382
f 382 254 982
f 982 254 359
f 359 253 982
f 982 253 361
f 137 383 361
f 361 383 982
f 137 360 385
f 385 360 983
f 360 12 983
f 983 12 362
f 5 384 362
f 362 384 983
f 384 252 983
f 983 252 385
f 252 384 387
f 387 384 984
f 384 5 984
f 984 5 364
f 6 386 364
f 364 386 984
f 268 387 386
f 386 387 984
f 278 388 389
f 389 388 985
f 268 386 388
f 388 386 985
f 386 6 985
f 985 6 366
f 7 389 366
f 366 389 985
f 8 390 369
f 369 390 986
f 7 367 390
f 390 367 986
f 367 314 986
f 986 314 368
f 368 313 986
f 986 313 369
f 279 392 393
f 393 392 987
f 392 8 987
f 987 8 370
f 9 391 370
f 370 391 987
f 391 277 987
f 987 277 393
f 277 391 395
f 395 391 988
f 391 9 988
f 988 9 371
f 175 394 371
f 371 394 988
f 394 276 988
f 988 276 395
f 175 372 397
f 397 372 989
f 372 4 989
f 989 4 374
f 140 396 374
f 374 396 989
f 396 174 989
f 989 174 397
f 375 258 990
f 990 258 399
f 142 398 399
f 399 398 990
f 140 373 398
f 398 373 990
f 373 256 990
f 990 256 375
f 377 249 991
f 991 249 401
f 259 400 401
f 401 400 991
f 400 258 991
f 991 258 376
f 141 377 376
f 376 377 991
f 404 249 992
f 992 249 378
f 250 403 378
f 378 403 992
f 403 271 992
f 992 271 402
f 272 404 402
f 402 404 992
f 250 380 403
f 403 380 993
f 380 248 993
f 993 248 406
f 270 405 406
f 406 405 993
f 405 271 993
f 993 271 403
f 251 407 408
f 408 407 994
f 407 248 994
f 994 248 381
f 254 382 381
f 381 382 994
f 382 138 994
f 994 138 408
f 383 137 995
f 995 137 385
f 252 409 385
f 385 409 995
f 409 251 995
f 995 251 408
f 138 383 408
f 408 383 995
f 411 269 996
f 996 269 410
f 251 409 410
f 410 409 996
f 409 252 996
f 996 252 387
f 268 411 387
f 387 411 996
f 288 413 414
f 414 413 997
f 413 287 997
f 997 287 412
f 268 388 412
f 412 388 997
f 388 278 997
f 997 278 414
f 415 278 998
f 998 278 389
f 7 390 389
f 389 390 998
f 390 8 998
f 998 8 392
f 392 279 998
f 998 279 415
f 418 291 999
f 999 291 417
f 417 279 999
f 999 279 393
f 277 416 393
f 393 416 999
f 416 290 999
f 999 290 418
f 276 394 420
f 420 394 1000
f 394 175 1000
f 1000 175 397
f 174 419 397
f 397 419 1000
f 419 275 1000
f 1000 275 420
f 290 416 422
f 422 416 1001
f 416 277 1001
f 1001 277 395
f 276 421 395
f 395 421 1001
f 421 289 1001
f 1001 289 422
f 396 140 1002
f 1002 140 398
f 142 424 398
f 398 424 1002
f 424 176 1002
f 1002 176 423
f 174 396 423
f 423 396 1002
f 424 142 1003
f 1003 142 399
f 258 400 399
f 399 400 1003
f 400 259 1003
f 1003 259 425
f 176 424 425
f 425 424 1003
f 427 259 1004
f 1004 259 401
f 249 404 401
f 401 404 1004
f 404 272 1004
f 1004 272 426
f 273 427 426
f 426 427 1004
f 284 429 430
f 430 429 1005
f 429 283 1005
f 1005 283 428
f 428 272 1005
f 1005 272 402
f 402 271 1005
f 1005 271 430
f 432 285 1006
f 1006 285 431
f 284 430 431
f 431 430 1006
f 271 405 430
f 430 405 1006
f 405 270 1006
f 1006 270 432
f 433 270 1007
f 1007 270 406
f 248 407 406
f 406 407 1007
f 407 251 1007
f 1007 251 410
f 269 433 410
f 410 433 1007
f 411 268 1008
f 1008 268 412
f 287 435 412
f 412 435 1008
f 435 286 1008
f 1008 286 434
f 269 411 434
f 434 411 1008
f 297 437 438
f 438 437 1009
f 437 298 1009
f 1009 298 436
f 287 413 436
f 436 413 1009
f 413 288 1009
f 1009 288 438
f 439 288 1010
f 1010 288 414
f 278 415 414
f 414 415 1010
f 415 279 1010
f 1010 279 417
f 291 439 417
f 417 439 1010
f 296 441 442
f 442 441 1011
f 291 418 441
f 441 418 1011
f 290 440 418
f 418 440 1011
f 440 295 1011
f 1011 295 442
f 275 419 444
f 444 419 1012
f 419 174 1012
f 1012 174 423
f 176 443 423
f 423 443 1012
f 443 274 1012
f 1012 274 444
f 421 276 1013
f 1013 276 420
f 275 446 420
f 420 446 1013
f 280 445 446
f 446 445 1013
f 445 289 1013
f 1013 289 421
f 295 440 448
f 448 440 1014
f 440 290 1014
f 1014 290 422
f 289 447 422
f 422 447 1014
f 447 294 1014
f 1014 294 448
f 443 176 1015
f 1015 176 425
f 259 427 425
f 425 427 1015
f 427 273 1015
f 1015 273 449
f 274 443 449
f 449 443 1015
f 272 428 426
f 426 428 1016
f 428 283 1016
f 1016 283 451
f 282 450 451
f 451 450 1016
f 450 273 1016
f 1016 273 426
f 305 453 454
f 454 453 1017
f 453 301 1017
f 1017 301 452
f 283 429 452
f 452 429 1017
f 429 284 1017
f 1017 284 454
f 457 303 1018
f 1018 303 456
f 304 455 456
f 456 455 1018
f 455 284 1018
f 1018 284 431
f 285 457 431
f 431 457 1018
f 286 458 434
f 434 458 1019
f 285 432 458
f 458 432 1019
f 270 433 432
f 432 433 1019
f 433 269 1019
f 1019 269 434
f 287 436 435
f 435 436 1020
f 436 298 1020
f 1020 298 460
f 299 459 460
f 460 459 1020
f 459 286 1020
f 1020 286 435
f 117 462 463
f 463 462 1021
f 462 123 1021
f 1021 123 461
f 298 437 461
f 461 437 1021
f 437 297 1021
f 1021 297 463
f 464 297 1022
f 1022 297 438
f 288 439 438
f 438 439 1022
f 439 291 1022
f 1022 291 441
f 296 464 441
f 441 464 1022
f 36 466 467
f 467 466 1023
f 43 465 466
f 466 465 1023
f 465 296 1023
f 1023 296 442
f 295 467 442
f 442 467 1023
f 446 275 1024
f 1024 275 444
f 274 469 444
f 444 469 1024
f 281 468 469
f 469 468 1024
f 468 280 1024
f 1024 280 446
f 447 289 1025
f 1025 289 445
f 445 280 1025
f 1025 280 471
f 471 293 1025
f 1025 293 470
f 294 447 470
f 470 447 1025
f 474 58 1026
f 1026 58 473
f 38 472 473
f 473 472 1026
f 472 295 1026
f 1026 295 448
f 294 474 448
f 448 474 1026
f 469 274 1027
f 1027 274 449
f 273 450 449
f 449 450 1027
f 282 475 450
f 450 475 1027
f 475 281 1027
f 1027 281 469
f 451 283 1028
f 1028 283 452
f 301 477 452
f 452 477 1028
f 477 306 1028
f 1028 306 476
f 476 282 1028
f 1028 282 451
f 453 305 1029
f 1029 305 480
f 27 479 480
f 480 479 1029
f 479 28 1029
f 1029 28 478
f 301 453 478
f 478 453 1029
f 455 304 1030
f 1030 304 482
f 302 481 482
f 482 481 1030
f 481 305 1030
f 1030 305 454
f 284 455 454
f 454 455 1030
f 485 304 1031
f 1031 304 456
f 303 484 456
f 456 484 1031
f 484 119 1031
f 1031 119 483
f 110 485 483
f 483 485 1031
f 286 459 458
f 458 459 1032
f 459 299 1032
f 1032 299 486
f 303 457 486
f 486 457 1032
f 457 285 1032
f 1032 285 458
f 461 123 1033
f 1033 123 488
f 125 487 488
f 488 487 1033
f 487 299 1033
f 1033 299 460
f 298 461 460
f 460 461 1033
f 123 462 491
f 491 462 1034
f 462 117 1034
f 1034 117 490
f 234 489 490
f 490 489 1034
f 489 237 1034
f 1034 237 491
f 493 116 1035
f 1035 116 492
f 492 117 1035
f 1035 117 463
f 297 493 463
f 463 493 1035
f 112 494 495
f 495 494 1036
f 116 493 494
f 494 493 1036
f 297 464 493
f 493 464 1036
f 464 296 1036
f 1036 296 495
f 465 43 1037
f 1037 43 496
f 496 112 1037
f 1037 112 495
f 296 465 495
f 495 465 1037
f 466 36 1038
f 1038 36 499
f 162 498 499
f 499 498 1038
f 166 497 498
f 498 497 1038
f 43 466 497
f 497 466 1038
f 472 38 1039
f 1039 38 500
f 500 36 1039
f 1039 36 467
f 295 472 467
f 467 472 1039
f 468 281 1040
f 1040 281 502
f 292 501 502
f 502 501 1040
f 501 293 1040
f 1040 293 471
f 280 468 471
f 471 468 1040
f 505 56 1041
f 1041 56 504
f 57 503 504
f 504 503 1041
f 503 294 1041
f 1041 294 470
f 293 505 470
f 470 505 1041
f 58 508 473
f 473 508 1042
f 508 211 1042
f 1042 211 507
f 165 506 507
f 507 506 1042
f 506 38 1042
f 1042 38 473
f 503 57 1043
f 1043 57 509
f 58 474 509
f 509 474 1043
f 294 503 474
f 474 503 1043
f 281 475 502
f 502 475 1044
f 475 282 1044
f 1044 282 511
f 307 510 511
f 511 510 1044
f 510 292 1044
f 1044 292 502
f 476 306 1045
f 1045 306 513
f 300 512 513
f 513 512 1045
f 512 307 1045
f 1045 307 511
f 282 476 511
f 511 476 1045
f 28 515 478
f 478 515 1046
f 515 37 1046
f 1046 37 514
f 306 477 514
f 514 477 1046
f 477 301 1046
f 1046 301 478
f 518 149 1047
f 1047 149 517
f 28 479 517
f 517 479 1047
f 479 27 1047
f 1047 27 516
f 148 518 516
f 516 518 1047
f 520 44 1048
f 1048 44 519
f 519 27 1048
f 1048 27 480
f 305 481 480
f 480 481 1048
f 481 302 1048
f 1048 302 520
f 304 485 482
f 482 485 1049
f 485 110 1049
f 1049 110 521
f 44 520 521
f 521 520 1049
f 520 302 1049
f 1049 302 482
f 117 492 523
f 523 492 1050
f 116 522 492
f 492 522 1050
f 522 110 1050
f 1050 110 483
f 119 523 483
f 483 523 1050
f 484 303 1051
f 1051 303 486
f 299 487 486
f 486 487 1051
f 487 125 1051
f 1051 125 524
f 119 484 524
f 524 484 1051
f 526 125 1052
f 1052 125 488
f 123 491 488
f 488 491 1052
f 491 237 1052
f 1052 237 525
f 238 526 525
f 525 526 1052
f 489 234 1053
f 1053 234 529
f 118 528 529
f 529 528 1053
f 121 527 528
f 528 527 1053
f 527 237 1053
f 1053 237 489
f 117 523 490
f 490 523 1054
f 119 531 523
f 523 531 1054
f 531 235 1054
f 1054 235 530
f 530 234 1054
f 1054 234 490
f 233 533 534
f 534 533 1055
f 533 116 1055
f 1055 116 494
f 112 532 494
f 494 532 1055
f 226 534 532
f 532 534 1055
f 44 536 519
f 519 536 1056
f 112 496 536
f 536 496 1056
f 43 535 496
f 496 535 1056
f 27 519 535
f 535 519 1056
f 148 516 537
f 537 516 1057
f 27 535 516
f 516 535 1057
f 43 497 535
f 535 497 1057
f 497 166 1057
f 1057 166 537
f 498 162 1058
f 1058 162 540
f 34 539 540
f 540 539 1058
f 25 538 539
f 539 538 1058
f 538 166 1058
f 1058 166 498
f 36 542 499
f 499 542 1059
f 28 517 542
f 542 517 1059
f 517 149 1059
f 1059 149 541
f 541 162 1059
f 1059 162 499
f 37 515 543
f 543 515 1060
f 28 542 515
f 515 542 1060
f 542 36 1060
f 1060 36 500
f 38 543 500
f 500 543 1060
f 293 501 505
f 505 501 1061
f 501 292 1061
f 1061 292 545
f 59 544 545
f 545 544 1061
f 56 505 544
f 544 505 1061
f 56 548 504
f 504 548 1062
f 548 173 1062
f 1062 173 547
f 172 546 547
f 547 546 1062
f 546 57 1062
f 1062 57 504
f 550 164 1063
f 1063 164 549
f 37 543 549
f 549 543 1063
f 38 506 543
f 543 506 1063
f 506 165 1063
f 1063 165 550
f 211 553 507
f 507 553 1064
f 553 82 1064
f 1064 82 552
f 42 551 552
f 552 551 1064
f 551 165 1064
f 1064 165 507
f 556 211 1065
f 1065 211 508
f 58 555 508
f 508 555 1065
f 555 39 1065
f 1065 39 554
f 163 556 554
f 554 556 1065
f 555 58 1066
f 1066 58 509
f 57 558 509
f 509 558 1066
f 60 557 558
f 558 557 1066
f 39 555 557
f 557 555 1066
f 510 307 1067
f 1067 307 560
f 60 559 560
f 560 559 1067
f 559 59 1067
f 1067 59 545
f 292 510 545
f 545 510 1067
f 39 557 561
f 561 557 1068
f 557 60 1068
f 1068 60 560
f 307 512 560
f 560 512 1068
f 512 300 1068
f 1068 300 561
f 306 514 513
f 513 514 1069
f 37 562 514
f 514 562 1069
f 39 561 562
f 562 561 1069
f 561 300 1069
f 1069 300 513
f 26 564 565
f 565 564 1070
f 149 518 564
f 564 518 1070
f 518 148 1070
f 1070 148 563
f 563 23 1070
f 1070 23 565
f 110 568 521
f 521 568 1071
f 568 224 1071
f 1071 224 567
f 567 223 1071
f 1071 223 566
f 566 44 1071
f 1071 44 521
f 224 568 569
f 569 568 1072
f 568 110 1072
f 1072 110 522
f 116 533 522
f 522 533 1072
f 533 233 1072
f 1072 233 569
f 235 531 570
f 570 531 1073
f 531 119 1073
f 1073 119 524
f 125 526 524
f 524 526 1073
f 526 238 1073
f 1073 238 570
f 237 527 525
f 525 527 1074
f 527 121 1074
f 1074 121 572
f 124 571 572
f 572 571 1074
f 571 238 1074
f 1074 238 525
f 575 121 1075
f 1075 121 528
f 528 118 1075
f 1075 118 574
f 247 573 574
f 574 573 1075
f 236 575 573
f 573 575 1075
f 530 235 1076
f 1076 235 577
f 577 120 1076
f 1076 120 576
f 576 118 1076
f 1076 118 529
f 234 530 529
f 529 530 1076
f 578 226 1077
f 1077 226 532
f 112 536 532
f 532 536 1077
f 44 566 536
f 536 566 1077
f 223 578 566
f 566 578 1077
f 103 580 581
f 581 580 1078
f 580 233 1078
f 1078 233 534
f 226 579 534
f 534 579 1078
f 579 102 1078
f 1078 102 581
f 538 25 1079
f 1079 25 582
f 582 23 1079
f 1079 23 563
f 563 148 1079
f 1079 148 537
f 166 538 537
f 537 538 1079
f 539 34 1080
f 1080 34 585
f 157 584 585
f 585 584 1080
f 147 583 584
f 584 583 1080
f 583 25 1080
f 1080 25 539
f 541 149 1081
f 1081 149 564
f 26 586 564
f 564 586 1081
f 586 34 1081
f 1081 34 540
f 162 541 540
f 540 541 1081
f 588 173 1082
f 1082 173 548
f 548 56 1082
f 1082 56 544
f 544 59 1082
f 1082 59 587
f 178 588 587
f 587 588 1082
f 1083 558 546
f 558 57 546
f 546 172 1083
f 1083 172 590
f 177 589 590
f 590 589 1083
f 558 1083 60
f 589 60 1083
f 173 593 547
f 547 593 1084
f 593 54 1084
f 1084 54 592
f 55 591 592
f 592 591 1084
f 591 172 1084
f 1084 172 547
f 594 163 1085
f 1085 163 554
f 39 562 554
f 554 562 1085
f 562 37 1085
f 1085 37 549
f 164 594 549
f 549 594 1085
f 596 41 1086
f 1086 41 595
f 164 550 595
f 595 550 1086
f 165 551 550
f 550 551 1086
f 551 42 1086
f 1086 42 596
f 552 82 1087
f 1087 82 599
f 195 598 599
f 599 598 1087
f 598 197 1087
f 1087 197 597
f 597 42 1087
f 1087 42 552
f 40 600 601
f 601 600 1088
f 600 82 1088
f 1088 82 553
f 211 556 553
f 553 556 1088
f 556 163 1088
f 1088 163 601
f 602 178 1089
f 1089 178 587
f 59 559 587
f 587 559 1089
f 559 60 1089
f 1089 60 589
f 177 602 589
f 589 602 1089
f 150 604 605
f 605 604 1090
f 604 26 1090
f 1090 26 565
f 23 603 565
f 565 603 1090
f 603 146 1090
f 1090 146 605
f 224 608 567
f 567 608 1091
f 111 607 608
f 608 607 1091
f 607 109 1091
f 1091 109 606
f 223 567 606
f 606 567 1091
f 580 103 1092
f 1092 103 609
f 111 608 609
f 609 608 1092
f 608 224 1092
f 1092 224 569
f 233 580 569
f 569 580 1092
f 571 124 1093
f 1093 124 610
f 120 577 610
f 610 577 1093
f 577 235 1093
f 1093 235 570
f 238 571 570
f 570 571 1093
f 239 611 612
f 612 611 1094
f 611 124 1094
f 1094 124 572
f 121 575 572
f 572 575 1094
f 575 236 1094
f 1094 236 612
f 573 247 1095
f 1095 247 615
f 129 614 615
f 615 614 1095
f 122 613 614
f 614 613 1095
f 613 236 1095
f 1095 236 573
f 240 616 617
f 617 616 1096
f 616 247 1096
f 1096 247 574
f 118 576 574
f 574 576 1096
f 120 617 576
f 576 617 1096
f 579 226 1097
f 1097 226 578
f 578 223 1097
f 1097 223 606
f 109 618 606
f 606 618 1097
f 618 102 1097
f 1097 102 579
f 215 620 621
f 621 620 1098
f 620 103 1098
f 1098 103 581
f 102 619 581
f 581 619 1098
f 619 214 1098
f 1098 214 621
f 25 583 582
f 582 583 1099
f 583 147 1099
f 1099 147 622
f 622 146 1099
f 1099 146 603
f 23 582 603
f 603 582 1099
f 584 157 1100
f 1100 157 625
f 625 22 1100
f 1100 22 624
f 21 623 624
f 624 623 1100
f 623 147 1100
f 1100 147 584
f 626 157 1101
f 1101 157 585
f 34 586 585
f 585 586 1101
f 586 26 1101
f 1101 26 604
f 150 626 604
f 604 626 1101
f 173 588 593
f 593 588 1102
f 588 178 1102
f 1102 178 628
f 62 627 628
f 628 627 1102
f 627 54 1102
f 1102 54 593
f 172 591 590
f 590 591 1103
f 591 55 1103
f 1103 55 630
f 61 629 630
f 630 629 1103
f 629 177 1103
f 1103 177 590
f 592 54 1104
f 1104 54 633
f 170 632 633
f 633 632 1104
f 171 631 632
f 632 631 1104
f 631 55 1104
f 1104 55 592
f 634 40 1105
f 1105 40 601
f 163 594 601
f 601 594 1105
f 594 164 1105
f 1105 164 595
f 41 634 595
f 595 634 1105
f 41 596 636
f 636 596 1106
f 42 597 596
f 596 597 1106
f 597 197 1106
f 1106 197 635
f 207 636 635
f 635 636 1106
f 598 195 1107
f 1107 195 639
f 80 638 639
f 639 638 1107
f 81 637 638
f 638 637 1107
f 197 598 637
f 637 598 1107
f 641 195 1108
f 1108 195 599
f 82 600 599
f 599 600 1108
f 600 40 1108
f 1108 40 640
f 196 641 640
f 640 641 1108
f 642 62 1109
f 1109 62 628
f 178 602 628
f 628 602 1109
f 602 177 1109
f 1109 177 629
f 61 642 629
f 629 642 1109
f 29 644 645
f 645 644 1110
f 150 605 644
f 644 605 1110
f 146 643 605
f 605 643 1110
f 24 645 643
f 643 645 1110
f 607 111 1111
f 1111 111 648
f 225 647 648
f 648 647 1111
f 647 222 1111
f 1111 222 646
f 109 607 646
f 646 607 1111
f 649 225 1112
f 1112 225 648
f 648 111 1112
f 1112 111 609
f 103 620 609
f 609 620 1112
f 620 215 1112
f 1112 215 649
f 240 617 650
f 650 617 1113
f 617 120 1113
f 1113 120 610
f 124 611 610
f 610 611 1113
f 611 239 1113
f 1113 239 650
f 652 239 1114
f 1114 239 612
f 236 613 612
f 612 613 1114
f 613 122 1114
f 1114 122 651
f 126 652 651
f 651 652 1114
f 655 135 1115
f 1115 135 654
f 122 614 654
f 654 614 1115
f 129 653 614
f 614 653 1115
f 653 131 1115
f 1115 131 655
f 616 240 1116
f 1116 240 657
f 127 656 657
f 657 656 1116
f 656 129 1116
f 1116 129 615
f 247 616 615
f 615 616 1116
f 658 214 1117
f 1117 214 619
f 102 618 619
f 619 618 1117
f 618 109 1117
f 1117 109 646
f 222 658 646
f 646 658 1117
f 101 660 661
f 661 660 1118
f 660 215 1118
f 1118 215 621
f 214 659 621
f 621 659 1118
f 659 100 1118
f 1118 100 661
f 147 623 622
f 622 623 1119
f 623 21 1119
f 1119 21 662
f 662 24 1119
f 1119 24 643
f 643 146 1119
f 1119 146 622
f 22 665 624
f 624 665 1120
f 665 145 1120
f 1120 145 664
f 144 663 664
f 664 663 1120
f 663 21 1120
f 1120 21 624
f 157 626 625
f 625 626 1121
f 626 150 1121
f 1121 150 644
f 29 666 644
f 644 666 1121
f 666 22 1121
f 1121 22 625
f 627 62 1122
f 1122 62 668
f 179 667 668
f 668 667 1122
f 667 170 1122
f 1122 170 633
f 54 627 633
f 633 627 1122
f 180 669 670
f 670 669 1123
f 669 61 1123
f 1123 61 630
f 55 631 630
f 630 631 1123
f 631 171 1123
f 1123 171 670
f 632 170 1124
f 1124 170 673
f 52 672 673
f 673 672 1124
f 53 671 672
f 672 671 1124
f 671 171 1124
f 1124 171 632
f 674 196 1125
f 1125 196 640
f 40 634 640
f 640 634 1125
f 634 41 1125
f 1125 41 636
f 207 674 636
f 636 674 1125
f 197 637 635
f 635 637 1126
f 637 81 1126
f 1126 81 676
f 84 675 676
f 676 675 1126
f 675 207 1126
f 1126 207 635
f 80 679 638
f 638 679 1127
f 679 193 1127
f 1127 193 678
f 194 677 678
f 678 677 1127
f 677 81 1127
f 1127 81 638
f 83 680 681
f 681 680 1128
f 680 80 1128
f 1128 80 639
f 195 641 639
f 639 641 1128
f 641 196 1128
f 1128 196 681
f 682 179 1129
f 1129 179 668
f 62 642 668
f 668 642 1129
f 642 61 1129
f 1129 61 669
f 180 682 669
f 669 682 1129
f 151 684 685
f 685 684 1130
f 29 645 684
f 684 645 1130
f 24 683 645
f 645 683 1130
f 152 685 683
f 683 685 1130
f 647 225 1131
f 1131 225 688
f 104 687 688
f 688 687 1131
f 107 686 687
f 687 686 1131
f 686 222 1131
f 1131 222 647
f 225 649 688
f 688 649 1132
f 215 660 649
f 649 660 1132
f 660 101 1132
f 1132 101 689
f 689 104 1132
f 1132 104 688
f 652 126 1133
f 1133 126 690
f 690 127 1133
f 1133 127 657
f 657 240 1133
f 1133 240 650
f 239 652 650
f 650 652 1133
f 122 693 651
f 651 693 1134
f 244 692 693
f 693 692 1134
f 246 691 692
f 692 691 1134
f 691 126 1134
f 1134 126 651
f 696 243 1135
f 1135 243 695
f 131 653 695
f 695 653 1135
f 653 129 1135
f 1135 129 694
f 242 696 694
f 694 696 1135
f 244 693 698
f 698 693 1136
f 693 122 1136
f 1136 122 654
f 135 697 654
f 654 697 1136
f 697 245 1136
f 1136 245 698
f 655 131 1137
f 1137 131 695
f 243 699 695
f 695 699 1137
f 245 697 699
f 699 697 1137
f 697 135 1137
f 1137 135 655
f 701 242 1138
f 1138 242 694
f 129 656 694
f 694 656 1138
f 656 127 1138
f 1138 127 700
f 241 701 700
f 700 701 1138
f 702 100 1139
f 1139 100 659
f 214 658 659
f 659 658 1139
f 658 222 1139
f 1139 222 686
f 107 702 686
f 686 702 1139
f 213 704 705
f 705 704 1140
f 704 101 1140
f 1140 101 661
f 100 703 661
f 661 703 1140
f 703 212 1140
f 1140 212 705
f 144 707 663
f 663 707 1141
f 707 158 1141
f 1141 158 706
f 24 662 706
f 706 662 1141
f 21 663 662
f 662 663 1141
f 145 710 664
f 664 710 1142
f 710 19 1142
f 1142 19 709
f 17 708 709
f 709 708 1142
f 708 144 1142
f 1142 144 664
f 145 665 712
f 712 665 1143
f 22 666 665
f 665 666 1143
f 29 711 666
f 666 711 1143
f 153 712 711
f 711 712 1143
f 667 179 1144
f 1144 179 714
f 63 713 714
f 714 713 1144
f 713 52 1144
f 1144 52 673
f 170 667 673
f 673 667 1144
f 671 53 1145
f 1145 53 716
f 64 715 716
f 716 715 1145
f 715 180 1145
f 1145 180 670
f 171 671 670
f 670 671 1145
f 672 52 1146
f 1146 52 719
f 169 718 719
f 719 718 1146
f 168 717 718
f 718 717 1146
f 717 53 1146
f 1146 53 672
f 720 83 1147
f 1147 83 681
f 196 674 681
f 681 674 1147
f 674 207 1147
f 1147 207 675
f 84 720 675
f 675 720 1147
f 81 677 676
f 676 677 1148
f 677 194 1148
f 1148 194 722
f 198 721 722
f 722 721 1148
f 84 676 721
f 721 676 1148
f 193 725 678
f 678 725 1149
f 725 77 1149
f 1149 77 724
f 78 723 724
f 724 723 1149
f 723 194 1149
f 1149 194 678
f 80 680 679
f 679 680 1150
f 680 83 1150
f 1150 83 727
f 201 726 727
f 727 726 1150
f 193 679 726
f 726 679 1150
f 728 63 1151
f 1151 63 714
f 179 682 714
f 714 682 1151
f 180 715 682
f 682 715 1151
f 64 728 715
f 715 728 1151
f 161 729 730
f 730 729 1152
f 729 152 1152
f 1152 152 683
f 24 706 683
f 683 706 1152
f 158 730 706
f 706 730 1152
f 684 151 1153
f 1153 151 732
f 156 731 732
f 732 731 1153
f 731 153 1153
f 1153 153 711
f 29 684 711
f 711 684 1153
f 30 734 735
f 735 734 1154
f 734 151 1154
f 1154 151 685
f 685 152 1154
f 1154 152 733
f 733 31 1154
f 1154 31 735
f 687 104 1155
f 1155 104 738
f 219 737 738
f 738 737 1155
f 737 221 1155
f 1155 221 736
f 107 687 736
f 736 687 1155
f 740 216 1156
f 1156 216 739
f 104 689 739
f 739 689 1156
f 101 704 689
f 689 704 1156
f 704 213 1156
f 1156 213 740
f 241 700 741
f 741 700 1157
f 700 127 1157
f 1157 127 690
f 126 691 690
f 690 691 1157
f 691 246 1157
f 1157 246 741
f 692 244 1158
f 1158 244 744
f 134 743 744
f 744 743 1158
f 743 136 1158
f 1158 136 742
f 246 692 742
f 742 692 1158
f 132 746 747
f 747 746 1159
f 243 696 746
f 746 696 1159
f 696 242 1159
f 1159 242 745
f 745 130 1159
f 1159 130 747
f 133 748 749
f 749 748 1160
f 748 134 1160
f 1160 134 744
f 244 698 744
f 744 698 1160
f 245 749 698
f 698 749 1160
f 699 243 1161
f 1161 243 746
f 746 132 1161
f 1161 132 750
f 750 133 1161
f 1161 133 749
f 749 245 1161
f 1161 245 699
f 752 128 1162
f 1162 128 751
f 130 745 751
f 751 745 1162
f 745 242 1162
f 1162 242 701
f 241 752 701
f 701 752 1162
f 754 212 1163
f 1163 212 703
f 703 100 1163
f 1163 100 702
f 107 753 702
f 702 753 1163
f 753 228 1163
f 1163 228 754
f 98 756 757
f 757 756 1164
f 756 213 1164
f 1164 213 705
f 212 755 705
f 705 755 1164
f 755 95 1164
f 1164 95 757
f 707 144 1165
f 1165 144 708
f 17 759 708
f 708 759 1165
f 759 18 1165
f 1165 18 758
f 158 707 758
f 758 707 1165
f 16 761 762
f 762 761 1166
f 761 17 1166
f 1166 17 709
f 19 760 709
f 709 760 1166
f 760 20 1166
f 1166 20 762
f 764 32 1167
f 1167 32 763
f 19 710 763
f 763 710 1167
f 710 145 1167
f 1167 145 712
f 153 764 712
f 712 764 1167
f 52 713 719
f 719 713 1168
f 63 766 713
f 713 766 1168
f 766 189 1168
f 1168 189 765
f 765 169 1168
f 1168 169 719
f 168 768 717
f 717 768 1169
f 768 181 1169
f 1169 181 767
f 64 716 767
f 767 716 1169
f 716 53 1169
f 1169 53 717
f 718 169 1170
f 1170 169 771
f 771 49 1170
f 1170 49 770
f 770 50 1170
f 1170 50 769
f 168 718 769
f 769 718 1170
f 774 199 1171
f 1171 199 773
f 83 720 773
f 773 720 1171
f 84 772 720
f 720 772 1171
f 200 774 772
f 772 774 1171
f 776 200 1172
f 1172 200 772
f 84 721 772
f 772 721 1172
f 721 198 1172
f 1172 198 775
f 209 776 775
f 775 776 1172
f 194 723 722
f 722 723 1173
f 723 78 1173
f 1173 78 778
f 85 777 778
f 778 777 1173
f 777 198 1173
f 1173 198 722
f 79 780 781
f 781 780 1174
f 780 78 1174
f 1174 78 724
f 77 779 724
f 724 779 1174
f 779 75 1174
f 1174 75 781
f 726 201 1175
f 1175 201 783
f 76 782 783
f 783 782 1175
f 782 77 1175
f 1175 77 725
f 725 193 1175
f 1175 193 726
f 83 773 727
f 727 773 1176
f 773 199 1176
f 1176 199 785
f 204 784 785
f 785 784 1176
f 784 201 1176
f 1176 201 727
f 788 186 1177
f 1177 186 787
f 63 728 787
f 787 728 1177
f 64 786 728
f 728 786 1177
f 184 788 786
f 786 788 1177
f 159 789 790
f 790 789 1178
f 789 31 1178
f 1178 31 733
f 152 729 733
f 733 729 1178
f 729 161 1178
f 1178 161 790
f 792 160 1179
f 1179 160 791
f 161 730 791
f 791 730 1179
f 730 158 1179
f 1179 158 758
f 18 792 758
f 758 792 1179
f 731 156 1180
f 1180 156 794
f 154 793 794
f 794 793 1180
f 32 764 793
f 793 764 1180
f 153 731 764
f 764 731 1180
f 734 30 1181
f 1181 30 796
f 155 795 796
f 796 795 1181
f 795 156 1181
f 1181 156 732
f 151 734 732
f 732 734 1181
f 797 155 1182
f 1182 155 796
f 796 30 1182
f 1182 30 735
f 735 31 1182
f 1182 31 789
f 159 797 789
f 789 797 1182
f 228 753 799
f 799 753 1183
f 753 107 1183
f 1183 107 736
f 736 221 1183
f 1183 221 798
f 798 230 1183
f 1183 230 799
f 737 219 1184
f 1184 219 802
f 802 105 1184
f 1184 105 801
f 801 108 1184
f 1184 108 800
f 221 737 800
f 800 737 1184
f 104 739 738
f 738 739 1185
f 739 216 1185
f 1185 216 804
f 220 803 804
f 804 803 1185
f 803 219 1185
f 1185 219 738
f 216 740 806
f 806 740 1186
f 740 213 1186
f 1186 213 756
f 756 98 1186
f 1186 98 805
f 805 99 1186
f 1186 99 806
f 241 741 752
f 752 741 1187
f 246 742 741
f 741 742 1187
f 742 136 1187
f 1187 136 807
f 807 128 1187
f 1187 128 752
f 808 130 1188
f 1188 130 751
f 128 807 751
f 751 807 1188
f 807 136 1188
f 1188 136 743
f 743 134 1188
f 1188 134 808
f 134 748 808
f 808 748 1189
f 748 133 1189
f 1189 133 750
f 750 132 1189
f 1189 132 747
f 130 808 747
f 747 808 1189
f 212 754 755
f 755 754 1190
f 228 810 754
f 754 810 1190
f 94 809 810
f 810 809 1190
f 809 95 1190
f 1190 95 755
f 95 813 757
f 757 813 1191
f 92 812 813
f 813 812 1191
f 96 811 812
f 812 811 1191
f 811 98 1191
f 1191 98 757
f 18 759 815
f 815 759 1192
f 17 761 759
f 759 761 1192
f 761 16 1192
f 1192 16 814
f 814 15 1192
f 1192 15 815
f 817 14 1193
f 1193 14 816
f 20 760 816
f 816 760 1193
f 760 19 1193
f 1193 19 763
f 32 817 763
f 763 817 1193
f 762 20 1194
f 1194 20 820
f 263 819 820
f 820 819 1194
f 262 818 819
f 819 818 1194
f 818 16 1194
f 1194 16 762
f 765 189 1195
f 1195 189 822
f 48 821 822
f 822 821 1195
f 821 49 1195
f 1195 49 771
f 169 765 771
f 771 765 1195
f 766 63 1196
f 1196 63 787
f 787 186 1196
f 1196 186 824
f 190 823 824
f 824 823 1196
f 189 766 823
f 823 766 1196
f 64 767 786
f 786 767 1197
f 181 826 767
f 767 826 1197
f 185 825 826
f 826 825 1197
f 825 184 1197
f 1197 184 786
f 768 168 1198
f 1198 168 769
f 50 828 769
f 769 828 1198
f 828 65 1198
f 1198 65 827
f 181 768 827
f 827 768 1198
f 51 830 831
f 831 830 1199
f 830 50 1199
f 1199 50 770
f 49 829 770
f 770 829 1199
f 829 46 1199
f 1199 46 831
f 834 86 1200
f 1200 86 833
f 199 774 833
f 833 774 1200
f 774 200 1200
f 1200 200 832
f 832 87 1200
f 1200 87 834
f 209 775 836
f 836 775 1201
f 775 198 1201
f 1201 198 777
f 85 835 777
f 777 835 1201
f 835 208 1201
f 1201 208 836
f 838 87 1202
f 1202 87 832
f 200 776 832
f 832 776 1202
f 776 209 1202
f 1202 209 837
f 205 838 837
f 837 838 1202
f 780 79 1203
f 1203 79 840
f 74 839 840
f 840 839 1203
f 839 85 1203
f 1203 85 778
f 78 780 778
f 778 780 1203
f 77 782 779
f 779 782 1204
f 782 76 1204
f 1204 76 842
f 842 73 1204
f 1204 73 841
f 75 779 841
f 841 779 1204
f 75 845 781
f 781 845 1205
f 265 844 845
f 845 844 1205
f 264 843 844
f 844 843 1205
f 843 79 1205
f 1205 79 781
f 201 784 783
f 783 784 1206
f 784 204 1206
f 1206 204 847
f 202 846 847
f 847 846 1206
f 846 76 1206
f 1206 76 783
f 199 833 785
f 785 833 1207
f 833 86 1207
f 1207 86 849
f 203 848 849
f 849 848 1207
f 848 204 1207
f 1207 204 785
f 852 68 1208
f 1208 68 851
f 186 788 851
f 851 788 1208
f 788 184 1208
f 1208 184 850
f 850 66 1208
f 1208 66 852
f 35 853 854
f 854 853 1209
f 853 159 1209
f 1209 159 790
f 161 791 790
f 790 791 1209
f 791 160 1209
f 1209 160 854
f 792 18 1210
f 1210 18 815
f 15 856 815
f 815 856 1210
f 856 167 1210
f 1210 167 855
f 160 792 855
f 855 792 1210
f 793 154 1211
f 1211 154 858
f 858 143 1211
f 1211 143 857
f 14 817 857
f 857 817 1211
f 817 32 1211
f 1211 32 793
f 795 155 1212
f 1212 155 860
f 33 859 860
f 860 859 1212
f 859 154 1212
f 1212 154 794
f 156 795 794
f 794 795 1212
f 861 33 1213
f 1213 33 860
f 155 797 860
f 860 797 1213
f 797 159 1213
f 1213 159 853
f 853 35 1213
f 1213 35 861
f 230 798 863
f 863 798 1214
f 221 800 798
f 798 800 1214
f 800 108 1214
f 1214 108 862
f 862 227 1214
f 1214 227 863
f 865 94 1215
f 1215 94 810
f 810 228 1215
f 1215 228 799
f 799 230 1215
f 1215 230 864
f 229 865 864
f 864 865 1215
f 801 105 1216
f 1216 105 867
f 867 217 1216
f 1216 217 866
f 227 862 866
f 866 862 1216
f 862 108 1216
f 1216 108 801
f 219 803 802
f 802 803 1217
f 803 220 1217
f 1217 220 868
f 217 867 868
f 868 867 1217
f 867 105 1217
f 1217 105 802
f 216 806 804
f 804 806 1218
f 99 870 806
f 806 870 1218
f 218 869 870
f 870 869 1218
f 869 220 1218
f 1218 220 804
f 811 96 1219
f 1219 96 872
f 97 871 872
f 872 871 1219
f 99 805 871
f 871 805 1219
f 98 811 805
f 805 811 1219
f 95 809 813
f 813 809 1220
f 809 94 1220
f 1220 94 874
f 93 873 874
f 874 873 1220
f 873 92 1220
f 1220 92 813
f 877 260 1221
f 1221 260 876
f 96 812 876
f 876 812 1221
f 812 92 1221
f 1221 92 875
f 261 877 875
f 875 877 1221
f 16 818 814
f 814 818 1222
f 818 262 1222
f 1222 262 878
f 15 814 878
f 878 814 1222
f 820 20 1223
f 1223 20 816
f 14 879 816
f 816 879 1223
f 879 263 1223
f 1223 263 820
f 263 882 819
f 819 882 1224
f 882 13 1224
f 1224 13 881
f 45 880 881
f 881 880 1224
f 880 262 1224
f 1224 262 819
f 829 49 1225
f 1225 49 821
f 821 48 1225
f 1225 48 884
f 47 883 884
f 884 883 1225
f 46 829 883
f 883 829 1225
f 189 823 822
f 822 823 1226
f 823 190 1226
f 1226 190 886
f 187 885 886
f 886 885 1226
f 885 48 1226
f 1226 48 822
f 186 851 824
f 824 851 1227
f 851 68 1227
f 1227 68 888
f 188 887 888
f 888 887 1227
f 887 190 1227
f 1227 190 824
f 184 825 850
f 850 825 1228
f 825 185 1228
f 1228 185 890
f 182 889 890
f 890 889 1228
f 889 66 1228
f 1228 66 850
f 826 181 1229
f 1229 181 827
f 65 892 827
f 827 892 1229
f 892 183 1229
f 1229 183 891
f 891 185 1229
f 1229 185 826
f 51 894 830
f 830 894 1230
f 71 893 894
f 894 893 1230
f 65 828 893
f 893 828 1230
f 828 50 1230
f 1230 50 830
f 46 897 831
f 831 897 1231
f 897 267 1231
f 1231 267 896
f 266 895 896
f 896 895 1231
f 895 51 1231
f 1231 51 831
f 898 203 1232
f 1232 203 849
f 849 86 1232
f 1232 86 834
f 834 87 1232
f 1232 87 838
f 838 205 1232
f 1232 205 898
f 208 835 900
f 900 835 1233
f 835 85 1233
f 1233 85 839
f 74 899 839
f 839 899 1233
f 899 210 1233
f 1233 210 900
f 902 205 1234
f 1234 205 837
f 837 209 1234
f 1234 209 836
f 208 901 836
f 836 901 1234
f 901 89 1234
f 1234 89 902
f 79 843 840
f 840 843 1235
f 843 264 1235
f 1235 264 903
f 903 74 1235
f 1235 74 840
f 73 904 841
f 841 904 1236
f 904 265 1236
f 1236 265 845
f 75 841 845
f 845 841 1236
f 73 842 906
f 906 842 1237
f 76 846 842
f 842 846 1237
f 202 905 846
f 846 905 1237
f 905 206 1237
f 1237 206 906
f 265 909 844
f 844 909 1238
f 909 90 1238
f 1238 90 908
f 91 907 908
f 908 907 1238
f 907 264 1238
f 1238 264 844
f 204 848 847
f 847 848 1239
f 848 203 1239
f 1239 203 911
f 88 910 911
f 911 910 1239
f 910 202 1239
f 1239 202 847
f 188 888 912
f 912 888 1240
f 888 68 1240
f 1240 68 852
f 852 66 1240
f 1240 66 889
f 889 182 1240
f 1240 182 912
f 855 167 1241
f 1241 167 914
f 45 913 914
f 914 913 1241
f 913 35 1241
f 1241 35 854
f 854 160 1241
f 1241 160 855
f 914 167 1242
f 1242 167 856
f 856 15 1242
f 1242 15 878
f 262 880 878
f 878 880 1242
f 880 45 1242
f 1242 45 914
f 13 882 915
f 915 882 1243
f 882 263 1243
f 1243 263 879
f 14 857 879
f 879 857 1243
f 857 143 1243
f 1243 143 915
f 154 859 858
f 858 859 1244
f 859 33 1244
f 1244 33 916
f 13 915 916
f 916 915 1244
f 915 143 1244
f 1244 143 858
f 35 913 861
f 861 913 1245
f 913 45 1245
f 1245 45 881
f 881 13 1245
f 1245 13 916
f 33 861 916
f 916 861 1245
f 918 229 1246
f 1246 229 864
f 864 230 1246
f 1246 230 863
f 227 917 863
f 863 917 1246
f 113 918 917
f 917 918 1246
f 231 919 920
f 920 919 1247
f 919 93 1247
f 1247 93 874
f 94 865 874
f 874 865 1247
f 865 229 1247
f 1247 229 920
f 217 922 866
f 866 922 1248
f 922 106 1248
f 1248 106 921
f 113 917 921
f 921 917 1248
f 917 227 1248
f 1248 227 866
f 220 869 868
f 868 869 1249
f 869 218 1249
f 1249 218 923
f 106 922 923
f 923 922 1249
f 922 217 1249
f 1249 217 868
f 925 218 1250
f 1250 218 870
f 99 871 870
f 870 871 1250
f 97 924 871
f 871 924 1250
f 232 925 924
f 924 925 1250
f 872 96 1251
f 1251 96 876
f 876 260 1251
f 1251 260 926
f 926 97 1251
f 1251 97 872
f 873 93 1252
f 1252 93 927
f 927 261 1252
f 1252 261 875
f 92 873 875
f 875 873 1252
f 930 115 1253
f 1253 115 929
f 260 877 929
f 929 877 1253
f 877 261 1253
f 1253 261 928
f 114 930 928
f 928 930 1253
f 883 47 1254
f 1254 47 931
f 931 267 1254
f 1254 267 897
f 897 46 1254
f 1254 46 883
f 191 932 933
f 933 932 1255
f 932 47 1255
f 1255 47 884
f 48 885 884
f 884 885 1255
f 885 187 1255
f 1255 187 933
f 190 887 886
f 886 887 1256
f 887 188 1256
f 1256 188 935
f 935 69 1256
f 1256 69 934
f 934 187 1256
f 1256 187 886
f 185 891 890
f 890 891 1257
f 891 183 1257
f 1257 183 937
f 67 936 937
f 937 936 1257
f 936 182 1257
f 1257 182 890
f 183 892 939
f 939 892 1258
f 892 65 1258
f 1258 65 893
f 893 71 1258
f 1258 71 938
f 192 939 938
f 938 939 1258
f 51 895 894
f 894 895 1259
f 895 266 1259
f 1259 266 940
f 940 71 1259
f 1259 71 894
f 896 267 1260
f 1260 267 943
f 70 942 943
f 943 942 1260
f 942 72 1260
f 1260 72 941
f 266 896 941
f 941 896 1260
f 88 911 944
f 944 911 1261
f 203 898 911
f 911 898 1261
f 205 902 898
f 898 902 1261
f 902 89 1261
f 1261 89 944
f 945 210 1262
f 1262 210 899
f 899 74 1262
f 1262 74 903
f 264 907 903
f 903 907 1262
f 91 945 907
f 907 945 1262
f 945 91 1263
f 1263 91 946
f 89 901 946
f 946 901 1263
f 901 208 1263
f 1263 208 900
f 210 945 900
f 900 945 1263
f 906 206 1264
f 1264 206 947
f 90 909 947
f 947 909 1264
f 265 904 909
f 909 904 1264
f 904 73 1264
f 1264 73 906
f 905 202 1265
f 1265 202 910
f 88 948 910
f 910 948 1265
f 948 90 1265
f 1265 90 947
f 206 905 947
f 947 905 1265
f 91 908 946
f 946 908 1266
f 908 90 1266
f 1266 90 948
f 948 88 1266
f 1266 88 944
f 89 946 944
f 944 946 1266
f 69 935 949
f 949 935 1267
f 935 188 1267
f 1267 188 912
f 182 936 912
f 912 936 1267
f 936 67 1267
f 1267 67 949
f 918 113 1268
f 1268 113 951
f 114 950 951
f 951 950 1268
f 950 231 1268
f 1268 231 920
f 229 918 920
f 920 918 1268
f 919 231 1269
f 1269 231 950
f 114 928 950
f 950 928 1269
f 928 261 1269
f 1269 261 927
f 93 919 927
f 927 919 1269
f 113 921 951
f 951 921 1270
f 106 952 921
f 921 952 1270
f 952 115 1270
f 1270 115 930
f 930 114 1270
f 1270 114 951
f 218 925 923
f 923 925 1271
f 925 232 1271
f 1271 232 953
f 115 952 953
f 953 952 1271
f 952 106 1271
f 1271 106 923
f 953 232 1272
f 1272 232 924
f 97 926 924
f 924 926 1272
f 926 260 1272
f 1272 260 929
f 115 953 929
f 929 953 1272
f 932 191 1273
f 1273 191 954
f 954 70 1273
f 1273 70 943
f 267 931 943
f 943 931 1273
f 47 932 931
f 931 932 1273
f 70 954 955
f 955 954 1274
f 954 191 1274
f 1274 191 933
f 187 934 933
f 933 934 1274
f 934 69 1274
f 1274 69 955
f 957 67 1275
f 1275 67 937
f 183 939 937
f 937 939 1275
f 192 956 939
f 939 956 1275
f 956 72 1275
f 1275 72 957
f 956 192 1276
f 1276 192 938
f 71 940 938
f 938 940 1276
f 940 266 1276
f 1276 266 941
f 72 956 941
f 941 956 1276
f 67 957 949
f 949 957 1277
f 72 942 957
f 957 942 1277
f 942 70 1277
f 1277 70 955
f 69 949 955
f 955 949 1277

