# https://github.com/mikedh/trimesh
v 0.01555914 -0.03917033 -0.01961580
v 0.00792605 -0.03562929 -0.01473704
v 0.00890142 -0.02757449 -0.02459222
v 0.01314861 -0.03112752 -0.02730942
v 0.00088555 -0.02116366 -0.02189380
v 0.01215333 -0.01129589 -0.02892900
v 0.01659995 -0.02075882 -0.03131145
v 0.01424724 -0.01791672 -0.03043029
v 0.01503205 -0.03675266 -0.00353238
v -0.00161481 -0.00910596 -0.02365613
v 0.01094413 -0.00361336 -0.02781236
v 0.02399635 -0.03373388 0.00345823
v 0.00549889 -0.03199753 0.00556692
v -0.00393242 -0.00076775 -0.02312434
v 0.00845170 0.00468247 -0.02759719
v 0.00235826 -0.01867453 0.01733267
v 0.01494163 -0.01520893 0.01592395
v -0.00599641 0.00867480 -0.02179572
v 0.00424379 0.01384694 -0.02565408
v -0.00711149 0.01902174 -0.01723513
v 0.00191903 0.02322356 -0.01845330
v 0.02299339 -0.00504179 -0.02890667
v 0.02312773 -0.00992710 -0.03049761
v 0.02554035 -0.01287780 -0.03151673
v 0.02812940 -0.02136460 0.01147228
v 0.02265048 0.00086693 -0.02711451
v 0.02493817 -0.01083406 0.01594633
v 0.00257093 0.02708226 -0.00550228
v -0.00628108 0.02453170 -0.00473034
v 0.02037758 0.00894425 -0.02825159
v 0.00598818 0.02251104 0.00883517
v -0.00303191 0.02156250 0.01066583
v 0.01532960 0.01910027 -0.02791691
v 0.01170403 -0.00247058 0.01775882
v 0.00015485 -0.00475302 0.02023777
v 0.01190335 0.02850478 -0.02028283
v -0.00121301 0.00853161 0.01879439
v 0.00913727 0.01026519 0.01621491
v 0.01169151 0.03164159 -0.00625661
v 0.01482797 0.02598258 0.00713292
v 0.01827276 0.01396963 0.01434588
v 0.02137339 0.00141802 0.01657179
v -0.00131691 -0.03349812 -0.00979435
v 0.03400040 -0.00430673 -0.02485737
v 0.03206241 -0.00736723 -0.02795103
v 0.03262132 0.01238414 -0.02671468
v 0.02777249 0.02282911 -0.02870667
v 0.02399790 0.03265520 -0.02175683
v 0.03139174 0.00414190 0.01511946
v 0.02798885 0.01706270 0.01230446
v 0.01850975 -0.02568557 0.00991461
v 0.00128150 -0.03441346 -0.00230271
v 0.00400114 -0.02571061 0.01293159
v -0.00149602 -0.02874590 -0.01612434
v -0.00901431 -0.02260682 -0.01640818
v 0.00378340 -0.03424403 -0.01267627
v 0.01060408 -0.03741101 -0.00870225
v 0.01094145 -0.03459536 0.00001130
v 0.00117141 -0.01164405 0.01982042
v 0.01298720 -0.02896947 0.00852826
v 0.01651657 -0.02077387 0.01303458
v 0.00911200 -0.01732057 0.01621008
v -0.01020598 -0.01158953 -0.02090383
v -0.00063550 -0.01442571 -0.02348453
v 0.00750303 -0.03200359 -0.02007720
v 0.00585139 -0.02461398 -0.02326027
v 0.01204336 -0.03742171 -0.01675805
v 0.01898831 -0.03963176 -0.00692877
v 0.01947504 -0.03582290 0.00078613
v 0.02110320 -0.03003479 0.00682086
v -0.00059581 0.00186050 0.01989326
v 0.01331699 -0.00882464 0.01750654
v 0.00635028 -0.00406969 0.01883647
v 0.02339804 -0.02303103 0.01079512
v 0.02650297 -0.01652169 0.01412848
v 0.02004606 -0.01276706 0.01608801
v -0.00272393 -0.00486470 -0.02333364
v -0.01167309 -0.00197357 -0.02156353
v 0.00749856 -0.01574424 -0.02651051
v 0.00536770 -0.00657099 -0.02588746
v 0.01153880 -0.00756831 -0.02827621
v 0.01081514 -0.02978689 -0.02555397
v 0.01365256 -0.03575958 -0.02386573
v 0.01302463 -0.01473586 -0.02957407
v 0.01097447 -0.02270500 -0.02814871
v 0.02752692 -0.03721589 -0.00009462
v 0.02792341 -0.03118802 0.00475749
v 0.02992594 -0.02564708 0.00870126
v -0.00187886 0.01558012 0.01608649
v -0.00482786 0.02426659 0.00338411
v 0.00430906 0.00894099 0.01735878
v 0.01036996 0.00374349 0.01743284
v 0.02324688 -0.00477102 0.01687151
v 0.01656824 -0.00049205 0.01702702
v 0.02984393 -0.00936843 0.01561943
v 0.03279960 -0.02020836 0.01198417
v -0.00508994 0.00367837 -0.02271214
v -0.01258028 0.00875522 -0.02098292
v 0.00271159 0.00162453 -0.02496508
v 0.01001948 0.00044890 -0.02736801
v 0.01628160 -0.00134181 -0.02809983
v 0.02298582 -0.00233053 -0.02772704
v 0.01703638 -0.00762583 -0.02961111
v 0.01424468 -0.02606226 -0.02980179
v 0.01476026 -0.01949561 -0.03036866
v 0.01838106 -0.01340253 -0.03111464
v 0.02284956 -0.00771825 -0.02973577
v 0.00166738 0.02140290 0.00962928
v 0.00775427 0.01676778 0.01361474
v 0.00407118 0.02618152 0.00199288
v -0.00167364 0.02537793 -0.00528377
v -0.00700241 0.02259455 -0.01193050
v 0.01979142 0.00756168 0.01580268
v 0.01368690 0.01210673 0.01523048
v 0.02644014 0.00295663 0.01584905
v 0.03316510 -0.00216055 0.01569587
v -0.00672889 0.01395545 -0.02016371
v -0.00053138 0.01059183 -0.02340588
v 0.00632441 0.00912847 -0.02706826
v 0.01411837 0.00675724 -0.02851883
v 0.02199113 0.00478160 -0.02739903
v 0.02896351 -0.00416777 -0.02695009
v 0.02949405 0.00207091 -0.02496275
v 0.03533757 -0.00141846 -0.02310225
v 0.02381480 -0.01153261 -0.03088939
v 0.02069563 -0.01639569 -0.03201234
v 0.02837723 -0.00809972 -0.02922466
v 0.03292274 -0.00606759 -0.02666861
v 0.01025409 0.02422114 0.00796422
v 0.01657522 0.02029096 0.01157638
v 0.00691324 0.02930113 -0.00580150
v 0.01307005 0.02999623 0.00104326
v 0.00186348 0.02600358 -0.01247582
v -0.00216728 0.02034460 -0.01750982
v 0.02312511 0.01570071 0.01337829
v 0.02961540 0.01051967 0.01414347
v 0.00268459 0.01882069 -0.02285686
v 0.00964183 0.01651909 -0.02704975
v 0.01791757 0.01366042 -0.02879950
v 0.02670032 0.01066798 -0.02750427
v 0.03475595 0.00787208 -0.02447802
v 0.01984674 0.02762375 0.00609827
v 0.02635986 0.02327131 0.00941381
v 0.00661540 0.02579456 -0.01933080
v 0.01123232 0.03108113 -0.01375097
v 0.01735777 0.03397632 -0.00705335
v 0.01324433 0.02427637 -0.02505600
v 0.03021991 0.01726167 -0.02851695
v 0.02175170 0.02124013 -0.02850983
v 0.01812679 0.03090770 -0.02109045
v 0.02556497 0.02833505 -0.02645195
v -0.00896066 -0.02821775 -0.01205134
v 0.00638705 -0.03585947 -0.00582516
v 0.01089823 -0.02357522 0.01269662
v -0.00943804 -0.01700961 -0.01931855
v 0.00365818 -0.02998941 -0.01848719
v 0.01489580 -0.03932387 -0.01153597
v 0.01595807 -0.03278210 0.00454038
v 0.00770390 -0.01065613 0.01837543
v 0.02161342 -0.01826421 0.01373988
v -0.01095968 -0.00673177 -0.02138972
v 0.00626975 -0.01109708 -0.02622750
v 0.01067656 -0.03422267 -0.02157930
v 0.00936592 -0.01949135 -0.02702105
v 0.02333117 -0.03886545 -0.00284946
v 0.02552271 -0.02731843 0.00780183
v 0.00522500 0.00234921 0.01840785
v 0.01833957 -0.00669611 0.01717442
v 0.03133446 -0.01521850 0.01434463
v -0.01223350 0.00320292 -0.02161419
v 0.00425702 -0.00240861 -0.02543578
v 0.01665515 -0.00462024 -0.02886939
v 0.01207578 -0.02464182 -0.02857158
v 0.01760584 -0.01061461 -0.03038293
v 0.00323087 0.01572496 0.01471516
v -0.00015634 0.02472591 0.00250241
v 0.01510429 0.00568110 0.01661679
v 0.02827996 -0.00327678 0.01633090
v -0.01282620 0.01435255 -0.01949346
v 0.00100905 0.00587875 -0.02457133
v 0.01553982 0.00255252 -0.02823314
v 0.02958733 -0.00135154 -0.02560332
v 0.01893246 -0.01506228 -0.03133482
v 0.02832055 -0.00635139 -0.02823889
v 0.01210314 0.01850989 0.01255292
v 0.00834423 0.02809435 0.00154942
v -0.00232482 0.02371577 -0.01243636
v 0.02472711 0.00923483 0.01497427
v -0.00168759 0.01566305 -0.02114874
v 0.01195914 0.01146301 -0.02834111
v 0.02848178 0.00627919 -0.02583033
v 0.02909988 -0.00942349 -0.02960926
v 0.02148765 0.02188415 0.01042724
v 0.00629276 0.02845735 -0.01301712
v 0.01836210 0.03189007 0.00016394
v 0.00775015 0.02157834 -0.02411938
v 0.02426368 0.01559155 -0.02862021
v 0.01731479 0.03362196 -0.01457387
v 0.01958698 0.02669052 -0.02596748
f 54 43 152
f 5 54 55
f 55 54 152
f 52 43 153
f 153 43 56
f 2 57 56
f 56 57 153
f 57 9 153
f 153 9 58
f 13 52 58
f 58 52 153
f 60 51 154
f 154 51 61
f 61 17 154
f 154 17 62
f 16 53 62
f 62 53 154
f 13 60 53
f 53 60 154
f 10 64 63
f 63 64 155
f 64 5 155
f 155 5 55
f 65 2 156
f 156 2 56
f 43 54 56
f 56 54 156
f 54 5 156
f 156 5 66
f 3 65 66
f 66 65 156
f 67 1 157
f 68 9 157
f 157 9 57
f 57 2 157
f 157 2 67
f 58 9 158
f 158 9 69
f 12 70 69
f 69 70 158
f 70 51 158
f 158 51 60
f 13 58 60
f 60 58 158
f 17 72 62
f 62 72 159
f 72 34 159
f 159 34 73
f 35 59 73
f 73 59 159
f 59 16 159
f 159 16 62
f 25 75 74
f 74 75 160
f 75 27 160
f 160 27 76
f 17 61 76
f 76 61 160
f 61 51 160
f 160 51 74
f 77 10 161
f 161 10 63
f 78 14 161
f 161 14 77
f 5 64 79
f 79 64 162
f 64 10 162
f 162 10 80
f 11 81 80
f 80 81 162
f 81 6 162
f 162 6 79
f 2 65 67
f 67 65 163
f 65 3 163
f 163 3 82
f 4 83 82
f 82 83 163
f 83 1 163
f 163 1 67
f 5 79 66
f 66 79 164
f 6 84 79
f 79 84 164
f 84 8 164
f 164 8 85
f 3 66 85
f 85 66 164
f 86 12 165
f 165 12 69
f 9 68 69
f 69 68 165
f 87 88 166
f 88 25 166
f 166 25 74
f 51 70 74
f 74 70 166
f 70 12 166
f 166 12 87
f 37 71 91
f 91 71 167
f 71 35 167
f 167 35 73
f 73 34 167
f 167 34 92
f 38 91 92
f 92 91 167
f 27 93 76
f 76 93 168
f 93 42 168
f 168 42 94
f 34 72 94
f 94 72 168
f 72 17 168
f 168 17 76
f 27 75 95
f 95 75 169
f 75 25 169
f 169 25 96
f 14 78 97
f 97 78 170
f 98 18 170
f 170 18 97
f 14 99 77
f 77 99 171
f 15 100 99
f 99 100 171
f 100 11 171
f 171 11 80
f 10 77 80
f 80 77 171
f 81 11 172
f 172 11 101
f 26 102 101
f 101 102 172
f 102 22 172
f 172 22 103
f 6 81 103
f 103 81 172
f 104 4 173
f 173 4 82
f 82 3 173
f 173 3 85
f 8 105 85
f 85 105 173
f 7 104 105
f 105 104 173
f 8 84 106
f 106 84 174
f 84 6 174
f 174 6 103
f 22 107 103
f 103 107 174
f 107 23 174
f 174 23 106
f 12 86 87
f 25 88 96
f 108 32 175
f 175 32 89
f 37 91 89
f 89 91 175
f 91 38 175
f 175 38 109
f 31 108 109
f 109 108 175
f 28 111 110
f 110 111 176
f 111 29 176
f 176 29 90
f 32 108 90
f 90 108 176
f 108 31 176
f 176 31 110
f 94 42 177
f 177 42 113
f 41 114 113
f 113 114 177
f 114 38 177
f 177 38 92
f 34 94 92
f 92 94 177
f 42 93 115
f 115 93 178
f 93 27 178
f 178 27 95
f 95 116 178
f 116 49 178
f 178 49 115
f 179 20 117
f 18 98 117
f 117 98 179
f 18 118 97
f 97 118 180
f 118 19 180
f 180 19 119
f 15 99 119
f 119 99 180
f 99 14 180
f 180 14 97
f 100 15 181
f 181 15 120
f 120 30 181
f 181 30 121
f 121 26 181
f 181 26 101
f 11 100 101
f 101 100 181
f 22 102 122
f 122 102 182
f 102 26 182
f 182 26 123
f 123 124 182
f 124 44 182
f 182 44 122
f 105 8 183
f 183 8 106
f 106 23 183
f 183 23 125
f 24 126 125
f 125 126 183
f 126 7 183
f 183 7 105
f 23 107 127
f 127 107 184
f 107 22 184
f 184 22 122
f 44 128 122
f 122 128 184
f 128 45 184
f 184 45 127
f 129 31 185
f 185 31 109
f 38 114 109
f 109 114 185
f 114 41 185
f 185 41 130
f 40 129 130
f 130 129 185
f 131 28 186
f 186 28 110
f 31 129 110
f 110 129 186
f 129 40 186
f 186 40 132
f 39 131 132
f 132 131 186
f 21 134 133
f 133 134 187
f 134 20 187
f 187 20 112
f 29 111 112
f 112 111 187
f 111 28 187
f 187 28 133
f 135 41 188
f 188 41 113
f 113 42 188
f 188 42 115
f 115 49 188
f 188 49 136
f 50 135 136
f 136 135 188
f 118 18 189
f 189 18 117
f 20 134 117
f 117 134 189
f 134 21 189
f 189 21 137
f 19 118 137
f 137 118 189
f 19 138 119
f 119 138 190
f 138 33 190
f 190 33 139
f 30 120 139
f 139 120 190
f 120 15 190
f 190 15 119
f 140 46 191
f 191 46 141
f 141 123 191
f 123 26 191
f 191 26 121
f 30 140 121
f 121 140 191
f 23 127 125
f 125 127 192
f 127 45 192
f 192 24 125
f 142 40 193
f 193 40 130
f 41 135 130
f 130 135 193
f 135 50 193
f 193 50 143
f 143 142 193
f 144 21 194
f 194 21 133
f 28 131 133
f 133 131 194
f 131 39 194
f 194 39 145
f 36 144 145
f 145 144 194
f 146 39 195
f 195 39 132
f 40 142 132
f 132 142 195
f 21 144 137
f 137 144 196
f 144 36 196
f 196 36 147
f 33 138 147
f 147 138 196
f 138 19 196
f 196 19 137
f 46 140 148
f 148 140 197
f 140 30 197
f 197 30 139
f 33 149 139
f 139 149 197
f 149 47 197
f 197 47 148
f 150 36 198
f 198 36 145
f 39 146 145
f 145 146 198
f 149 33 199
f 199 33 147
f 36 150 147
f 147 150 199
f 150 48 199
f 199 48 151
f 47 149 151
f 151 149 199

