# https://github.com/mikedh/trimesh
v 0.01645809 0.04925279 -0.01479268
v -0.00191433 0.05482761 -0.01548201
v 0.02692980 0.02713452 -0.01612514
v 0.03278876 -0.00273657 -0.01752561
v -0.03355042 -0.01588034 -0.00730133
v -0.02819046 -0.04165622 -0.00254488
v -0.01328788 -0.05427513 0.00365418
v 0.00527605 -0.05359839 0.00297540
v 0.02423520 -0.04004059 -0.00552434
v 0.02857190 -0.02042499 -0.00438404
v -0.01654369 0.03691414 -0.01374382
v -0.02756219 0.01140021 -0.01007611
v 0.02270346 -0.17469098 -0.05769211
v 0.02449899 -0.17260458 -0.05740893
v 0.01735615 -0.17221462 -0.05715239
v 0.01965754 -0.17062869 -0.05569345
v 0.01924744 -0.16899314 -0.05484104
v 0.01545986 -0.17122166 -0.05764878
v 0.02382281 -0.16890349 -0.05589163
v 0.02268656 -0.17074751 -0.05604059
v 0.01785021 -0.16432961 -0.05259323
v 0.02603652 -0.16248571 -0.05556434
v 0.01424896 -0.15681296 -0.06175727
v 0.01321646 -0.16324942 -0.06410050
v 0.01763018 -0.15811025 -0.05020654
v 0.02449556 -0.15644067 -0.06456715
v 0.01273235 -0.15197068 -0.06419688
v 0.02663665 -0.14612036 -0.06660569
v 0.02556565 -0.16354733 -0.06625509
v 0.02124491 -0.17202987 -0.06537426
v 0.01731422 -0.17210241 -0.06570685
v 0.02650147 -0.17190253 -0.05836886
v 0.02299627 -0.17516210 -0.05981386
v 0.02574136 -0.15648930 -0.05342591
v 0.01816308 -0.17513086 -0.05993837
v 0.02548345 -0.14245563 -0.05139786
v 0.03216677 -0.14335929 -0.06764817
v 0.02981915 -0.13987966 -0.04963112
v 0.04125991 -0.13859048 -0.06469482
v 0.04015129 -0.14468600 -0.06474018
v 0.03120890 -0.14758255 -0.06619453
v 0.03091385 -0.14835902 -0.05252737
v 0.01481666 -0.14426418 -0.04707181
v 0.00866055 -0.15182661 -0.06264049
v 0.01916408 -0.17462148 -0.05774498
v 0.04751261 -0.14505609 -0.06024927
v 0.04750606 -0.14545732 -0.06146836
v 0.04885470 -0.14415505 -0.06248879
v 0.04927590 -0.14367705 -0.05973232
v 0.04632681 -0.14414864 -0.05776900
v 0.04592725 -0.14519163 -0.05915624
v 0.05201741 -0.13924058 -0.05860144
v 0.04642614 -0.13968008 -0.05484962
v 0.05379065 -0.13222339 -0.05600816
v 0.04702171 -0.13438677 -0.05261898
v 0.05463355 -0.12194124 -0.05504262
v 0.04628367 -0.12853322 -0.05088413
v 0.04040741 -0.13392138 -0.05172944
v 0.05414804 -0.12293037 -0.06358981
v 0.04482182 -0.13449996 -0.06573135
v 0.04290842 -0.13609665 -0.06381345
v 0.05114453 -0.13368525 -0.06515837
v 0.04927256 -0.13809546 -0.06604290
v 0.04196101 -0.13802110 -0.06465042
v 0.04326754 -0.14493697 -0.05858034
v 0.04179981 -0.14334931 -0.06769592
v 0.04343968 -0.14706340 -0.06300712
v 0.04491963 -0.14377098 -0.06696874
v 0.04558622 -0.14659955 -0.06359452
v 0.04624071 -0.14675575 -0.06193197
v 0.04443251 -0.14570167 -0.05953211
v 0.04485571 -0.14694416 -0.06115347
v 0.03682029 -0.16109525 -0.05913049
v 0.03149679 -0.16018387 -0.05891955
v 0.03580569 -0.15965961 -0.05816948
v 0.03814038 -0.16069003 -0.05973190
v 0.03676405 -0.15873848 -0.05784297
v 0.03268518 -0.15815791 -0.05743444
v 0.03300857 -0.15914332 -0.05799824
v 0.03979521 -0.15349688 -0.05668652
v 0.03190996 -0.15350272 -0.05455780
v 0.04069766 -0.14623951 -0.05372262
v 0.04091858 -0.15300720 -0.06512862
v 0.03049000 -0.15168121 -0.06630331
v 0.02991032 -0.15981629 -0.05911320
v 0.03583174 -0.15956991 -0.06578070
v 0.03318828 -0.15903365 -0.06596214
v 0.03466322 -0.16272750 -0.06128925
v 0.03220093 -0.16287424 -0.06161344
v 0.03524327 -0.16217767 -0.05954957
v 0.03279563 -0.16205042 -0.05966276
v 0.00567904 -0.17733922 -0.05364037
v 0.00818840 -0.17909085 -0.05490994
v 0.00943889 -0.17763125 -0.05476302
v 0.00574937 -0.17587306 -0.05268258
v 0.00206630 -0.17833244 -0.05434120
v 0.00090088 -0.18030380 -0.05617219
v 0.00085574 -0.17752679 -0.05405241
v -0.00070085 -0.18014305 -0.05693012
v 0.00610986 -0.16938277 -0.05098242
v -0.00268109 -0.17216303 -0.05350566
v 0.00634846 -0.15927648 -0.04800808
v -0.00339742 -0.15976491 -0.05118519
v -0.00359023 -0.17226326 -0.06524467
v 0.00194542 -0.18170356 -0.06373382
v 0.00328326 -0.18329792 -0.05769390
v 0.01129296 -0.17058610 -0.06137007
v 0.00673848 -0.18139802 -0.06376112
v 0.00915129 -0.15835353 -0.06085223
v -0.00503132 -0.15022483 -0.06529808
v -0.00152741 -0.16089775 -0.06537324
v 0.00791839 -0.14459746 -0.04581022
v 0.00810534 -0.18330665 -0.05718249
v 0.00778602 -0.18271305 -0.05547673
v 0.00411987 -0.18276637 -0.05575919
v -0.00479905 -0.14344405 -0.04745895
v -0.01361777 -0.14367785 -0.04503495
v -0.01279627 -0.16016846 -0.04960078
v -0.01744305 -0.14780020 -0.06728041
v -0.01249312 -0.16397472 -0.06615078
v -0.02996877 -0.16105085 -0.04740953
v -0.02700233 -0.17718901 -0.04900908
v -0.03183110 -0.14080032 -0.04354596
v -0.03685398 -0.16367294 -0.06243443
v -0.03698964 -0.14219286 -0.06037974
v -0.02879159 -0.18222736 -0.06180167
v -0.01008052 -0.17819976 -0.06308794
v -0.01323134 -0.18593066 -0.05343902
v -0.01122394 -0.17391153 -0.04979861
v -0.01310176 -0.18418484 -0.04879707
v -0.01541217 -0.17458310 -0.04815149
v -0.01441383 -0.18294345 -0.04658496
v -0.02050437 -0.18370288 -0.04571450
v -0.02153589 -0.18622540 -0.04768610
v -0.02334827 -0.17648648 -0.04740036
v -0.02038211 -0.18787028 -0.05243373
v -0.02399281 0.01838309 -0.03276223
v -0.02416635 0.02157986 -0.04858613
v 0.02119949 0.05682953 -0.04187107
v 0.03710272 0.00949013 -0.03823078
v 0.02489202 0.04481161 -0.06229651
v 0.04046430 0.01197178 -0.05071574
v 0.02457394 -0.17381250 -0.05797470
v 0.01843186 -0.16663646 -0.05403888
v 0.02549391 -0.16592779 -0.05542707
v 0.01468476 -0.15972163 -0.06264871
v 0.01791056 -0.16135981 -0.05140185
v 0.01372176 -0.15395727 -0.06162959
v 0.02440190 -0.15163009 -0.06426263
v 0.02490013 -0.15928935 -0.06537813
v 0.02262803 -0.16892978 -0.06611031
v 0.01456874 -0.16867002 -0.06670648
v 0.02774190 -0.16861354 -0.06173122
v 0.02562096 -0.17366975 -0.05986279
v 0.02267130 -0.17399450 -0.06337816
v 0.02552103 -0.17182066 -0.06352770
v 0.02591153 -0.15961092 -0.05483037
v 0.01262488 -0.16929164 -0.06015635
v 0.01682486 -0.17432045 -0.06369799
v 0.01504710 -0.17331373 -0.05990833
v 0.01323064 -0.17239412 -0.06405491
v 0.02578979 -0.15112533 -0.05242985
v 0.04037692 -0.14211737 -0.06366944
v 0.03122102 -0.14575749 -0.06635875
v 0.03056761 -0.14548608 -0.05163717
v 0.01658081 -0.15251382 -0.04865909
v 0.01682638 -0.17342140 -0.05819273
v 0.04644283 -0.14227219 -0.05611336
v 0.05054929 -0.14192032 -0.05917221
v 0.05320983 -0.13585120 -0.05729544
v 0.04686009 -0.13679401 -0.05361170
v 0.04701643 -0.13190090 -0.05173975
v 0.05440094 -0.12836508 -0.05544704
v 0.04053094 -0.01927791 -0.04246676
v 0.03558161 -0.02882261 -0.02533090
v 0.04230227 -0.01248568 -0.05581111
v 0.04350572 -0.13523485 -0.06413001
v 0.05249050 -0.13051674 -0.06451023
v 0.05030882 -0.13564195 -0.06566274
v 0.04252251 -0.13699656 -0.06395274
v 0.04041933 -0.14227687 -0.06063187
v 0.04150333 -0.14594822 -0.06613111
v 0.04177891 -0.14629905 -0.06158960
v 0.04124778 -0.14061748 -0.06766373
v 0.03891190 -0.14408003 -0.06458294
v 0.04708245 -0.14193957 -0.06713074
v 0.04731550 -0.14550295 -0.06353891
v 0.04469108 -0.14543899 -0.06570578
v 0.04974820 -0.14187022 -0.06349111
v 0.04740422 -0.14370196 -0.06536078
v 0.04697584 -0.14602899 -0.06226760
v 0.04374620 -0.14642440 -0.06037980
v 0.03800451 -0.15665202 -0.05748057
v 0.03214058 -0.15622332 -0.05631804
v 0.04051828 -0.14950492 -0.05523950
v 0.04071014 -0.14782237 -0.06571221
v 0.03146734 -0.15073719 -0.05314142
v 0.02789196 -0.15811663 -0.06101608
v 0.03793343 -0.15692933 -0.06649220
v 0.03176593 -0.15629463 -0.06693965
v 0.03997742 -0.15829312 -0.06158900
v 0.03699373 -0.16202923 -0.06099761
v 0.03502923 -0.16176339 -0.06413162
v 0.03811955 -0.16059368 -0.06361616
v 0.03173848 -0.16189863 -0.06454331
v 0.03663119 -0.16182252 -0.05985218
v 0.03153988 -0.14929616 -0.06618816
v 0.03011831 -0.16189237 -0.06123394
v 0.02880131 -0.16080420 -0.06434214
v 0.03120878 -0.16142895 -0.05991471
v 0.04065450 -0.14137625 -0.05258477
v 0.00609379 -0.17369150 -0.05156279
v -0.00077985 -0.17595001 -0.05417007
v 0.00632773 -0.16443112 -0.04981166
v -0.00320214 -0.16604259 -0.05209810
v -0.00376804 -0.17899012 -0.05898279
v 0.00191526 -0.18261745 -0.06050557
v 0.00020804 -0.18183126 -0.05771202
v -0.00066248 -0.17830508 -0.06495464
v -0.00202729 -0.18112879 -0.06034881
v 0.00942525 -0.17721685 -0.06461996
v 0.00984007 -0.16505470 -0.06100249
v 0.00867006 -0.15361371 -0.06077832
v -0.00256571 -0.15567633 -0.06431979
v -0.00165838 -0.16596787 -0.06524169
v 0.00626417 -0.15279069 -0.04631734
v 0.00772044 -0.18300583 -0.06045496
v 0.01113069 -0.17516710 -0.05588472
v 0.01077887 -0.18094613 -0.05649889
v 0.01177321 -0.17986532 -0.05911684
v 0.00930148 -0.18162858 -0.05580693
v 0.00153528 -0.18182858 -0.05653393
v -0.00355108 -0.15276112 -0.04949528
v -0.01442890 -0.15327190 -0.04770875
v -0.01542152 -0.15598660 -0.06619841
v -0.02866113 -0.16932943 -0.04945320
v -0.03020713 -0.15225681 -0.04534888
v -0.03648768 -0.15437694 -0.06202531
v -0.03375612 -0.17371475 -0.06335491
v -0.01023485 -0.17057188 -0.06544876
v -0.01108463 -0.18331419 -0.05831665
v -0.01051785 -0.18075924 -0.04995728
v -0.01408589 -0.17981385 -0.04730046
v -0.02600288 -0.18399178 -0.04829317
v -0.02191502 -0.18135451 -0.04589999
v -0.02328412 -0.18707131 -0.05764472
v -0.01107644 -0.16690006 -0.05001098
v -0.01568826 0.00235326 -0.06329745
v 0.02309909 0.00172376 -0.06475788
v 0.00373046 0.00642674 -0.06430584
v -0.02721123 -0.00600881 -0.04951942
v -0.03138568 -0.01221183 -0.03006703
v -0.01603660 0.04790805 -0.04022694
v -0.01709642 0.04220877 -0.05997300
v 0.00312349 0.06201020 -0.04463071
v 0.03286930 0.03636121 -0.03775567
v 0.00482854 0.05101782 -0.06290936
v 0.03782176 0.02854372 -0.05639100
v 0.03588109 -0.00588967 -0.06351233
v 0.00324546 -0.18028842 -0.05470699
v 0.00655816 -0.17981046 -0.05436277
v 0.01964846 -0.17268335 -0.05644131
v 0.02269667 -0.17299744 -0.05656499
v 0.03300055 -0.16057928 -0.05860019
v 0.03542065 -0.16101443 -0.05864930
v 0.04558756 -0.14612340 -0.05988407
v 0.04680782 -0.14599570 -0.06062484
v -0.03219478 -0.05267354 -0.02733225
v -0.02843815 -0.04753211 -0.04987079
v -0.01382959 -0.04515962 -0.06015307
v 0.00339167 -0.04500661 -0.06493413
v 0.02356141 -0.04633335 -0.06608403
v 0.03988033 -0.04888974 -0.06672895
v 0.04946431 -0.04961865 -0.06028676
v 0.04673391 -0.05268115 -0.04592305
v 0.03635838 -0.05902953 -0.03292298
v 0.02366521 -0.06745715 -0.01906478
v -0.01638781 -0.07305149 -0.01000786
v 0.00545052 -0.07483304 -0.00999677
v 0.05274715 -0.08430127 -0.05106705
v 0.05621680 -0.08491190 -0.06339830
v 0.04558966 -0.09257071 -0.06915438
v 0.02804645 -0.09099764 -0.06867909
v 0.00236277 -0.10058564 -0.06911117
v -0.02034789 -0.09181738 -0.06649518
v -0.03392027 -0.08929468 -0.05475062
v -0.03185730 -0.09217893 -0.03560525
v -0.01546735 -0.10011728 -0.02196544
v 0.04149409 -0.08808232 -0.04090613
v 0.02625536 -0.09490156 -0.03291178
v 0.00715224 -0.10050437 -0.02563667
v 0.05618668 -0.10923102 -0.06415242
v 0.05435488 -0.10815622 -0.05492556
v 0.04521605 -0.11534671 -0.04814541
v 0.02882152 -0.12384424 -0.04503340
v 0.01101428 -0.12873817 -0.04200637
v -0.01107000 -0.12749608 -0.03656232
v -0.03467465 -0.12167368 -0.04054534
v -0.03932784 -0.12339013 -0.06007928
v 0.04166644 -0.13142400 -0.06946433
v 0.02621316 -0.13015338 -0.06970859
v 0.00643910 -0.14240011 -0.06924015
v -0.02414636 -0.12747951 -0.06890869
v -0.00544708 -0.13315857 -0.06933016
v 0.01512220 -0.13517170 -0.06972039
v 0.03615107 -0.12760349 -0.06978881
v 0.05001419 -0.11790754 -0.06872088
v 0.01066118 0.04093225 0.00531954
v 0.02540287 0.02283030 0.00516921
v 0.03290687 0.00204975 0.00786489
v 0.02676835 -0.01550261 0.01450378
v 0.01839491 -0.02898497 0.02021211
v 0.00593849 -0.03697723 0.02599263
v -0.00799846 -0.03936792 0.02882046
v -0.02210820 -0.03332369 0.02682167
v -0.03216074 -0.01611408 0.02184945
v -0.03194742 0.00736163 0.01590002
v -0.01980953 0.02749536 0.00958198
v -0.00759357 0.04519759 0.00623071
v 0.00958244 0.04298582 0.01581794
v 0.00266040 0.04796913 0.00592816
v -0.00975347 0.04523489 0.01695514
v -0.01426337 0.03714075 0.00740433
v 0.01746716 0.03179619 0.00506389
v 0.01257221 0.04339667 -0.00446492
v 0.00824372 0.05581818 -0.01483142
v -0.00540522 0.04867239 -0.00429523
v -0.01052541 0.04817127 -0.01509297
v -0.01822650 0.03046669 -0.00205708
v -0.02593029 0.01777382 0.01254910
v 0.02307606 -0.02270819 0.01749635
v 0.03008602 -0.00743168 0.01094508
v 0.03216351 0.01314719 0.00587541
v 0.02602869 0.02354120 -0.00577378
v 0.02179625 0.03894870 -0.01542354
v 0.01938640 0.05459910 -0.02834827
v 0.01273679 0.06145397 -0.04386485
v 0.00073530 0.05998822 -0.03025210
v -0.00731607 0.05788376 -0.04346198
v -0.01606525 0.04333909 -0.02729774
v -0.03012373 0.00795355 0.00239527
v -0.02190214 0.02430307 -0.01186192
v -0.03431391 -0.00447877 0.01902705
v -0.02792318 -0.02596943 0.02446026
v -0.01510905 -0.03777787 0.02842200
v 0.01260934 -0.03385567 0.02322859
v 0.01922332 -0.03406451 0.00668555
v 0.02735812 -0.02732171 -0.00506276
v 0.02735624 -0.01877335 0.00295627
v 0.03088003 -0.01469933 -0.00958943
v 0.03253617 -0.00005563 -0.00469714
v 0.03109864 0.01373986 -0.01717466
v 0.02801987 0.04815159 -0.03954148
v 0.02903517 0.03225459 -0.02735770
v 0.02320134 0.05447300 -0.05337435
v 0.01529657 0.04930122 -0.06301451
v 0.00454722 0.05963321 -0.05556571
v -0.00646690 0.04891234 -0.06237656
v -0.01648124 0.04873979 -0.05130279
v -0.02491494 0.01477138 -0.02188432
v -0.02037057 0.03370233 -0.03624892
v -0.03147741 -0.00216160 -0.00856656
v -0.03340171 -0.01741339 0.00647575
v -0.03184253 -0.02967975 -0.00530213
v -0.02535585 -0.03863189 0.01166022
v -0.02179550 -0.05011505 0.00152808
v -0.01072544 -0.04674116 0.01518935
v -0.00094100 -0.03881762 0.02802545
v 0.00494117 -0.04439600 0.01266575
v 0.01464505 -0.04903809 -0.00008428
v 0.03160112 -0.03449376 -0.01606482
v 0.03403228 -0.01580434 -0.02243048
v 0.03548899 0.02314670 -0.03736317
v 0.03443211 0.00428807 -0.02944994
v 0.03627359 0.03612316 -0.04784596
v 0.03294840 0.03771316 -0.06011724
v 0.02439024 0.02550398 -0.06416398
v 0.01451450 0.00476861 -0.06451911
v 0.00424804 0.03234161 -0.06368321
v -0.00657013 0.00555416 -0.06435531
v -0.01714419 0.02544278 -0.06335616
v -0.02317014 0.03119612 -0.05384886
v -0.02394345 0.02105455 -0.04230881
v -0.03222923 -0.01420691 -0.01896930
v -0.02820083 0.00337666 -0.03089505
v -0.03039376 -0.04518893 -0.01405358
v -0.03296500 -0.03013392 -0.02940780
v -0.02588315 -0.06609466 -0.01650184
v -0.01504169 -0.06248013 -0.00390643
v -0.00422746 -0.05517340 0.00389522
v 0.02436321 -0.05383991 -0.01254636
v 0.00567618 -0.06355027 -0.00325316
v 0.01502629 -0.07169532 -0.01392543
v 0.03591462 -0.04350411 -0.02873474
v 0.03067111 -0.06296880 -0.02578324
v 0.03879347 -0.00440014 -0.04013407
v 0.03793400 -0.02368984 -0.03440088
v 0.03965130 0.01210562 -0.04563445
v 0.03979426 0.01916498 -0.05294031
v 0.03709897 0.01348772 -0.06144142
v 0.03017848 -0.00203196 -0.06493294
v 0.01343780 -0.04549926 -0.06574959
v 0.00367072 -0.01976563 -0.06470984
v 0.02233069 -0.02253970 -0.06540161
v -0.00549392 -0.04488415 -0.06313550
v -0.01375324 -0.02114162 -0.06056058
v -0.02224751 -0.00168322 -0.05706370
v -0.02527362 0.01065881 -0.04918903
v -0.03037377 -0.00947486 -0.04040873
v -0.02736752 -0.02577876 -0.04910612
v -0.03285536 -0.04938018 -0.04097402
v -0.03184319 -0.07411348 -0.03218657
v -0.02532416 -0.09621346 -0.02687961
v -0.01650405 -0.08596068 -0.01593179
v -0.00527276 -0.07565680 -0.00814658
v 0.02422412 -0.08106901 -0.02621633
v 0.00564045 -0.08707184 -0.01787990
v 0.01720644 -0.09833394 -0.02900356
v 0.04291230 -0.03551139 -0.04446000
v 0.04158955 -0.05560880 -0.03971612
v 0.03873580 -0.07397360 -0.03669989
v 0.03424378 -0.09123358 -0.03693908
v 0.04247483 -0.01563949 -0.04974556
v 0.04109948 0.00250510 -0.05300415
v 0.04003405 -0.00935179 -0.06043029
v 0.03253397 -0.04766994 -0.06641167
v 0.03672209 -0.02707385 -0.06533718
v 0.02624559 -0.06931542 -0.06735420
v 0.01705103 -0.09401722 -0.06874222
v 0.00336055 -0.07090354 -0.06652027
v -0.01123540 -0.09500293 -0.06821001
v -0.01613033 -0.06916409 -0.06303698
v -0.02157637 -0.04614165 -0.05570275
v -0.03064270 -0.06924525 -0.05200237
v -0.03504623 -0.08993777 -0.04540265
v -0.03311284 -0.10789189 -0.03901571
v -0.02496967 -0.12395724 -0.03460878
v -0.01363294 -0.11357700 -0.02911258
v -0.00383492 -0.10135425 -0.02246845
v 0.02809166 -0.10868329 -0.04004484
v 0.00922465 -0.11385577 -0.03447348
v 0.02027995 -0.12512412 -0.04286164
v 0.04511016 -0.03033246 -0.05849123
v 0.04998466 -0.05059718 -0.05332708
v 0.04757478 -0.08562946 -0.04589331
v 0.05056813 -0.06940719 -0.04808640
v 0.04401293 -0.10171165 -0.04524797
v 0.03752800 -0.11767184 -0.04641944
v 0.04593598 -0.04929133 -0.06514055
v 0.04359763 -0.07040188 -0.06793499
v 0.03700875 -0.09031306 -0.06885308
v 0.02657180 -0.11250745 -0.06973058
v 0.02078729 -0.13256382 -0.06971496
v 0.01028973 -0.12059184 -0.06985146
v -0.00337850 -0.11920883 -0.06949353
v -0.01440029 -0.13000903 -0.06919622
v -0.02345247 -0.11111938 -0.06925768
v -0.02850902 -0.08984058 -0.06214768
v -0.03773510 -0.10753437 -0.05866838
v -0.03856246 -0.12168740 -0.05032742
v -0.03342044 -0.13274678 -0.04222292
v -0.02319026 -0.14207234 -0.03975171
v -0.01383151 -0.13656487 -0.03934151
v -0.00003869 -0.12622203 -0.03918397
v 0.01559874 -0.13763762 -0.04485202
v 0.02171230 -0.14263844 -0.04629409
v 0.02575674 -0.13497522 -0.04748154
v 0.05592351 -0.08411203 -0.05714148
v 0.05338129 -0.06859390 -0.06186408
v 0.05117074 -0.11005416 -0.05062312
v 0.05451640 -0.09745021 -0.05347198
v 0.03097647 -0.13243788 -0.04657048
v 0.03635819 -0.13568761 -0.04805636
v 0.04107297 -0.12593791 -0.04992491
v 0.05269521 -0.08709480 -0.06807107
v 0.04060922 -0.11223107 -0.06973386
v 0.03144180 -0.12823059 -0.06974113
v 0.02671792 -0.14004054 -0.06957752
v 0.02183836 -0.14799511 -0.06865817
v 0.01650532 -0.14536377 -0.06922489
v 0.01005508 -0.13865440 -0.06958783
v 0.00197169 -0.13789428 -0.06937611
v -0.01089083 -0.14890664 -0.06552702
v -0.02212384 -0.13922130 -0.06874448
v -0.00546151 -0.14428078 -0.06862581
v -0.03446364 -0.12586636 -0.06810123
v -0.03798206 -0.13492050 -0.05986035
v -0.03644668 -0.14102536 -0.05124032
v -0.02185537 -0.15257599 -0.04246742
v -0.01465772 -0.14905982 -0.04635304
v -0.03079186 -0.14716952 -0.04432011
v -0.00892867 -0.14195069 -0.04860449
v -0.00502187 -0.13663318 -0.04291838
v 0.00140166 -0.14344217 -0.04402018
v 0.00831829 -0.13811179 -0.04388642
v 0.01088853 -0.14351170 -0.04835385
v 0.01596563 -0.14890268 -0.04792005
v 0.02217846 -0.15161746 -0.04771090
v 0.02550726 -0.14725106 -0.05243570
v 0.02728762 -0.14106645 -0.05157822
v 0.05616372 -0.10791919 -0.05952626
v 0.05734902 -0.09867051 -0.06455868
v 0.04714068 -0.12229553 -0.04914111
v 0.05172624 -0.12407929 -0.05121624
v 0.05410879 -0.11636748 -0.05533528
v 0.03035372 -0.14308991 -0.05075926
v 0.03652110 -0.14326363 -0.04899710
v 0.04039031 -0.13874265 -0.05224550
v 0.04290562 -0.13071144 -0.05178332
v 0.05383881 -0.11214106 -0.06745422
v 0.04925298 -0.10720625 -0.06942892
v 0.04518852 -0.12681425 -0.06952357
v 0.03964006 -0.12949871 -0.06973553
v 0.03382709 -0.13774412 -0.06955475
v 0.02951898 -0.14441948 -0.06680703
v 0.01326182 -0.15262555 -0.06226045
v 0.02453201 -0.14861487 -0.06482816
v 0.01994049 -0.15286793 -0.06670356
v 0.01037374 -0.15110423 -0.06200111
v 0.00715959 -0.14945926 -0.06837612
v 0.00304458 -0.15230512 -0.06724668
v -0.00704153 -0.14714371 -0.05421120
v -0.01131201 -0.14815794 -0.05537337
v -0.02983254 -0.14465888 -0.06684494
v -0.03533037 -0.15274396 -0.05258209
v -0.03626513 -0.14850794 -0.06138259
v -0.02995388 -0.15669616 -0.04647732
v -0.02109218 -0.15992727 -0.04478955
v -0.01370704 -0.15694650 -0.04886436
v -0.01137593 -0.15531479 -0.05664682
v -0.01714170 -0.15160697 -0.06639600
v 0.00661114 -0.14911925 -0.04600531
v -0.00383049 -0.14824753 -0.04858899
v 0.00107697 -0.15279724 -0.04529691
v 0.01206738 -0.14859088 -0.05278981
v 0.01024629 -0.14819863 -0.05191845
v 0.01298218 -0.15359240 -0.05347788
v 0.01717197 -0.15568097 -0.04952204
v 0.02271327 -0.15719103 -0.04950744
v 0.02575301 -0.15425070 -0.05281341
v 0.02627762 -0.15139308 -0.05872238
v 0.02676179 -0.14544412 -0.05933172
v 0.02814346 -0.14401793 -0.05852246
v 0.05517719 -0.12119470 -0.05957341
v 0.05509549 -0.11703529 -0.06366974
v 0.04690423 -0.13054260 -0.05138373
v 0.05147310 -0.12966739 -0.05198187
v 0.05464091 -0.12559890 -0.05518359
v 0.03142034 -0.14481782 -0.06669253
v 0.02906861 -0.14670919 -0.05835342
v 0.03070458 -0.14713438 -0.05219060
v 0.03631081 -0.14735421 -0.05036086
v 0.04074036 -0.14402278 -0.05306679
v 0.04075804 -0.14045530 -0.06346744
v 0.04204484 -0.13707530 -0.05677837
v 0.04195499 -0.14126333 -0.05764061
v 0.04263505 -0.13694938 -0.06413227
v 0.04326387 -0.13464662 -0.05607975
v 0.05101942 -0.12829112 -0.06681877
v 0.04836433 -0.12872534 -0.06847626
v 0.04088550 -0.13610207 -0.06885928
v 0.03781530 -0.14061259 -0.06858307
v 0.01400911 -0.15543639 -0.06152040
v 0.02425166 -0.15460398 -0.06420010
v 0.01952436 -0.15669843 -0.06625342
v 0.00854874 -0.15245282 -0.06096596
v 0.00396381 -0.15555592 -0.06602931
v -0.00317313 -0.15322133 -0.06417584
v -0.00520273 -0.15370526 -0.05703211
v -0.02755038 -0.15514730 -0.06679684
v -0.03694269 -0.15917741 -0.06213844
v -0.03561629 -0.16191160 -0.05404067
v -0.01983263 -0.16679939 -0.04687464
v -0.01175851 -0.16347860 -0.04986989
v -0.02954425 -0.16541382 -0.04830813
v -0.00880560 -0.16228982 -0.05714387
v -0.01387061 -0.16030397 -0.06635183
v 0.00983904 -0.15295776 -0.05167687
v 0.00623763 -0.15623521 -0.04690248
v -0.00349486 -0.15663396 -0.05044210
v 0.00148349 -0.15981256 -0.04705840
v 0.01332646 -0.15840851 -0.05445993
v 0.01785975 -0.15984001 -0.05079448
v 0.02270415 -0.16040595 -0.05118644
v 0.02581867 -0.15814941 -0.05411357
v 0.02639254 -0.15639549 -0.05927861
v 0.05341017 -0.12724041 -0.06408650
v 0.05467638 -0.12838121 -0.05989069
v 0.04401269 -0.13485468 -0.06461716
v 0.04289597 -0.13481559 -0.05633712
v 0.04701986 -0.13317738 -0.05216402
v 0.05120175 -0.13279854 -0.05273438
v 0.05407091 -0.13043887 -0.05568647
v 0.03704479 -0.14377250 -0.06749785
v 0.03119000 -0.14670571 -0.06623590
v 0.02928048 -0.14882987 -0.05852139
v 0.03116208 -0.14949333 -0.05273926
v 0.03654592 -0.15062173 -0.05175221
v 0.04062422 -0.14788710 -0.05444711
v 0.04204028 -0.14491098 -0.05900109
v 0.04012331 -0.14353465 -0.06416744
v 0.04791855 -0.13348546 -0.06737602
v 0.01459291 -0.15829565 -0.06210560
v 0.02470996 -0.15796362 -0.06489056
v 0.01942187 -0.15923946 -0.06696653
v 0.00883739 -0.15555643 -0.06060451
v 0.00428392 -0.16000935 -0.06619287
v -0.00174490 -0.15825685 -0.06475681
v -0.00462070 -0.16028362 -0.05875307
v -0.02510358 -0.16490613 -0.06659955
v -0.03583103 -0.16858049 -0.06317914
v -0.03494038 -0.17131676 -0.05498737
v -0.02801782 -0.17293428 -0.04974413
v -0.01954433 -0.17022713 -0.04801971
v -0.01092319 -0.17026108 -0.04999256
v -0.00742048 -0.16812708 -0.05704355
v -0.01118492 -0.16724541 -0.06581169
v 0.00987817 -0.15862956 -0.05262542
v 0.00643060 -0.16191246 -0.04912376
v -0.00316559 -0.16279527 -0.05160534
v 0.00172128 -0.16507190 -0.04911888
v 0.01336011 -0.16159465 -0.05540293
v 0.01782852 -0.16282471 -0.05198848
v 0.02257394 -0.16321169 -0.05236918
v 0.02595472 -0.16100638 -0.05542272
v 0.02692553 -0.15944808 -0.06024951
v 0.05357384 -0.13244308 -0.06028223
v 0.05166560 -0.13247876 -0.06489956
v 0.04317566 -0.13563602 -0.06393707
v 0.04269420 -0.13622115 -0.05709749
v 0.04694768 -0.13554274 -0.05309331
v 0.05093314 -0.13596997 -0.05393547
v 0.05353542 -0.13404017 -0.05656880
v 0.03659245 -0.14589780 -0.06777495
v 0.02933209 -0.15018352 -0.05905128
v 0.03132930 -0.14840745 -0.06614798
v 0.03167658 -0.15207889 -0.05381572
v 0.03650527 -0.15385576 -0.05399483
v 0.04017907 -0.15150537 -0.05618691
v 0.04041370 -0.14607235 -0.06532389
v 0.04216915 -0.14827131 -0.06036359
v 0.04650693 -0.13494683 -0.06752419
v 0.01427280 -0.16104238 -0.06346524
v 0.02519315 -0.16076379 -0.06612283
v 0.01934510 -0.16274487 -0.06751454
v 0.00951102 -0.16184663 -0.06101477
v 0.00472027 -0.16506313 -0.06599665
v -0.00152735 -0.16346764 -0.06554174
v -0.00488983 -0.16712921 -0.05915141
v -0.02159025 -0.17299672 -0.06608272
v -0.03213651 -0.18045210 -0.05424631
v -0.03140579 -0.17830568 -0.06266046
v -0.01377985 -0.17419084 -0.04896986
v -0.02508385 -0.17683562 -0.04823071
v -0.01939514 -0.17436298 -0.04735237
v -0.00728013 -0.17517870 -0.05648679
v -0.00998767 -0.17450111 -0.06478781
v 0.01031967 -0.16437711 -0.05386132
v 0.00618857 -0.16695031 -0.05048579
v -0.00308855 -0.16922932 -0.05291265
v 0.00175871 -0.17068534 -0.05108261
v 0.01307713 -0.16494330 -0.05698556
v 0.01811259 -0.16554286 -0.05339718
v 0.02224674 -0.16585948 -0.05357027
v 0.02591007 -0.16408729 -0.05548161
v 0.02743303 -0.16261401 -0.06073022
v 0.05264982 -0.13531678 -0.06124079
v 0.05074587 -0.13467844 -0.06539059
v 0.04268181 -0.13658088 -0.06375939
v 0.04259010 -0.13758569 -0.05779731
v 0.04657855 -0.13812535 -0.05418992
v 0.05000197 -0.13946929 -0.05543214
v 0.05270492 -0.13757383 -0.05801606
v 0.03671926 -0.14852839 -0.06789696
v 0.03144979 -0.15033056 -0.06630725
v 0.02871250 -0.15223678 -0.05939525
v 0.03220009 -0.15503426 -0.05539763
v 0.03550302 -0.15646200 -0.05607486
v 0.03904419 -0.15515267 -0.05711734
v 0.04144406 -0.15307607 -0.06093466
v 0.04089361 -0.15008258 -0.06535178
v 0.04598149 -0.13610207 -0.06742841
v 0.01372235 -0.16552510 -0.06671387
v 0.02368232 -0.16671493 -0.06651872
v 0.01914569 -0.16760700 -0.06665957
v 0.01023142 -0.16753646 -0.06102735
v 0.00497386 -0.16958477 -0.06633657
v -0.00221552 -0.16826465 -0.06524742
v -0.00515524 -0.17307990 -0.05891377
v -0.01924305 -0.18099590 -0.06465083
v -0.02563405 -0.18543374 -0.06004798
v -0.02703822 -0.18610834 -0.05278289
v -0.02689168 -0.18179675 -0.04847825
v -0.01048003 -0.17779600 -0.04988545
v -0.01465324 -0.17696210 -0.04786903
v -0.01221612 -0.18036844 -0.04870117
v -0.02279377 -0.17876269 -0.04670411
v -0.02443436 -0.18334930 -0.04730392
v -0.01785928 -0.17989903 -0.04586083
v -0.01047510 -0.18121182 -0.06077486
v -0.00921972 -0.18173476 -0.05480391
v 0.01019302 -0.16987132 -0.05407917
v 0.00606893 -0.17169153 -0.05113870
v -0.00175810 -0.17448767 -0.05392301
v 0.00241865 -0.17447241 -0.05190134
v 0.01167394 -0.16715669 -0.06220174
v 0.01482838 -0.16800689 -0.05667907
v 0.01884215 -0.16792931 -0.05448484
v 0.02171870 -0.16843545 -0.05489480
v 0.02463361 -0.16758539 -0.05572188
v 0.02755644 -0.16643818 -0.06374544
v 0.02737882 -0.16700067 -0.05877513
v 0.05151885 -0.13862320 -0.06221473
v 0.04980352 -0.13666984 -0.06589937
v 0.04244023 -0.13737944 -0.06431699
v 0.04236179 -0.13932662 -0.05834746
v 0.04648422 -0.14117234 -0.05545926
v 0.04881390 -0.14201375 -0.05710328
v 0.05118268 -0.14078235 -0.05889887
v 0.03620549 -0.15157955 -0.06787086
v 0.02767729 -0.15464958 -0.06327456
v 0.02900254 -0.15667980 -0.05801642
v 0.03249528 -0.15736922 -0.05691361
v 0.03476902 -0.15830310 -0.05728155
v 0.03725364 -0.15788223 -0.05767971
v 0.03964522 -0.15706109 -0.05959195
v 0.04090642 -0.15587985 -0.06311750
v 0.04608472 -0.13773291 -0.06760198
v 0.01294451 -0.17095624 -0.06563342
v 0.01227318 -0.17084869 -0.06291956
v 0.02674886 -0.17031654 -0.06320405
v 0.02476846 -0.17069938 -0.06513137
v 0.01613685 -0.17074474 -0.06621146
v 0.02184667 -0.17074045 -0.06572652
v 0.01945277 -0.17212608 -0.06555927
v 0.01059473 -0.17404439 -0.06442618
v 0.00461009 -0.17695357 -0.06541133
v -0.00153849 -0.17570361 -0.06558305
v -0.00487594 -0.17761751 -0.06124902
v -0.00297931 -0.17752879 -0.05680948
v -0.01690847 -0.18636846 -0.05906826
v -0.02178070 -0.18778919 -0.05514526
v -0.02164416 -0.18768429 -0.05001265
v -0.02467829 -0.18521567 -0.04829907
v -0.01145647 -0.18281870 -0.04965115
v -0.01390152 -0.18181401 -0.04700756
v -0.01338436 -0.18300976 -0.04751360
v -0.02142495 -0.18455418 -0.04643714
v -0.02134764 -0.18309273 -0.04574817
v -0.01701099 -0.18352084 -0.04565614
v -0.01274531 -0.18559437 -0.05085093
v -0.01208490 -0.18481817 -0.05588704
v 0.01201108 -0.17329373 -0.05774307
v 0.00907931 -0.17409675 -0.05317479
v 0.00592805 -0.17499985 -0.05220300
v 0.00002022 -0.17682739 -0.05423158
v 0.00301495 -0.17636617 -0.05275655
v 0.01399847 -0.17035284 -0.05871314
v 0.01701366 -0.16998835 -0.05607641
v 0.02314191 -0.16987219 -0.05605179
v 0.01951038 -0.16981580 -0.05527353
v 0.02122631 -0.17044460 -0.05563772
v 0.02546560 -0.17032867 -0.05726635
v 0.02725368 -0.17059447 -0.05988699
v 0.05061793 -0.14173578 -0.06151670
v 0.04975011 -0.14031508 -0.06432110
v 0.04019698 -0.14014479 -0.06227273
v 0.04346337 -0.14259421 -0.05727035
v 0.04642307 -0.14323928 -0.05684316
v 0.04805561 -0.14398562 -0.05852336
v 0.05001526 -0.14273023 -0.05943036
v 0.03123995 -0.15382441 -0.06731611
v 0.03936657 -0.15494158 -0.06662041
v 0.03506818 -0.15601250 -0.06701297
v 0.02796917 -0.15960305 -0.06318355
v 0.02969354 -0.15806844 -0.06625336
v 0.02871447 -0.15922709 -0.05988353
v 0.03095656 -0.15860938 -0.05795217
v 0.03633799 -0.15923234 -0.05799484
v 0.03282692 -0.15867125 -0.05777347
v 0.03434097 -0.15909879 -0.05782759
v 0.03788330 -0.15959396 -0.05883938
v 0.03894617 -0.15994423 -0.06044960
v 0.03943109 -0.15948387 -0.06282681
v 0.03880709 -0.15873968 -0.06487495
v 0.04171809 -0.13912239 -0.06679595
v 0.04789882 -0.14014067 -0.06705660
v 0.04487254 -0.14121204 -0.06792331
v 0.01685940 -0.17321198 -0.06508636
v 0.01479288 -0.17353304 -0.06409031
v 0.01406401 -0.17313679 -0.06185240
v 0.01483079 -0.17234369 -0.05922931
v 0.02632507 -0.17279111 -0.05939591
v 0.02573585 -0.17282384 -0.06169409
v 0.02430325 -0.17293747 -0.06351876
v 0.02209755 -0.17302807 -0.06469089
v 0.01976385 -0.17462807 -0.06340218
v 0.01130363 -0.17846649 -0.06228524
v 0.01196235 -0.17735114 -0.05801952
v 0.00803639 -0.17981814 -0.06422573
v 0.00442243 -0.18162601 -0.06380486
v 0.00046518 -0.18028229 -0.06434232
v -0.00235759 -0.18056690 -0.06247818
v -0.00316428 -0.18007373 -0.05998069
v -0.00027061 -0.17896228 -0.05561256
v -0.00215085 -0.17965784 -0.05791569
v -0.01632905 -0.18728649 -0.05209398
v -0.01666319 -0.18520259 -0.04746079
v 0.00792305 -0.17649727 -0.05360132
v 0.01020126 -0.17666944 -0.05507720
v 0.00154027 -0.17799531 -0.05411255
v 0.00352199 -0.17762597 -0.05364919
v 0.00562821 -0.17671602 -0.05313563
v 0.01832419 -0.17123946 -0.05628163
v 0.01658746 -0.17182048 -0.05711609
v 0.02395230 -0.17169194 -0.05687076
v 0.02554476 -0.17239284 -0.05765098
v 0.01975393 -0.17163019 -0.05600989
v 0.02108505 -0.17279308 -0.05638736
v 0.02252357 -0.17173954 -0.05620736
v 0.04928442 -0.14370688 -0.06128269
v 0.04946553 -0.14307969 -0.06295156
v 0.04865666 -0.14254322 -0.06483018
v 0.04748791 -0.14266353 -0.06632388
v 0.03919747 -0.14188873 -0.06618059
v 0.03934430 -0.14285811 -0.06332719
v 0.04144972 -0.14370497 -0.05924296
v 0.04483642 -0.14450078 -0.05776852
v 0.04824945 -0.14456548 -0.06012088
v 0.04617058 -0.14477580 -0.05864602
v 0.04686969 -0.14507072 -0.05959809
v 0.03237631 -0.15789767 -0.06634867
v 0.03672811 -0.15865683 -0.06605399
v 0.03459036 -0.15928968 -0.06596595
v 0.02946448 -0.16092508 -0.06032389
v 0.02920970 -0.16175776 -0.06263006
v 0.03027295 -0.16156100 -0.06455821
v 0.03268968 -0.16041677 -0.06543124
v 0.03084656 -0.16005777 -0.05885136
v 0.03205764 -0.15954562 -0.05836976
v 0.03650068 -0.16040750 -0.05862504
v 0.03756880 -0.16096049 -0.05934888
v 0.03303843 -0.15972637 -0.05819583
v 0.03415751 -0.16074245 -0.05853444
v 0.03550612 -0.16017159 -0.05826890
v 0.03778788 -0.16151028 -0.06046641
v 0.03735467 -0.16170811 -0.06216085
v 0.03659942 -0.16128003 -0.06394225
v 0.03576081 -0.16063853 -0.06518364
v 0.04113667 -0.14212342 -0.06790340
v 0.04595887 -0.14306139 -0.06704420
v 0.04358795 -0.14362835 -0.06736588
v 0.01737949 -0.17492943 -0.06179601
v 0.01647123 -0.17445057 -0.06015694
v 0.01616734 -0.17345714 -0.05860311
v 0.01690381 -0.17285230 -0.05788863
v 0.02462246 -0.17327591 -0.05769116
v 0.02508648 -0.17393448 -0.05851859
v 0.02462219 -0.17446508 -0.05990511
v 0.02276411 -0.17476820 -0.06169820
v 0.02057069 -0.17550548 -0.05977601
v 0.00739402 -0.18221136 -0.06243098
v 0.01033850 -0.18182077 -0.05987334
v 0.01147391 -0.18042468 -0.05742353
v 0.01047206 -0.17940714 -0.05577338
v 0.00466137 -0.18309092 -0.06092256
v 0.00175099 -0.18238883 -0.06239623
v -0.00038168 -0.18196424 -0.06029904
v -0.00103167 -0.18142538 -0.05910438
v -0.00060233 -0.18072920 -0.05734199
v 0.00037609 -0.18032687 -0.05628860
v 0.00106788 -0.17938038 -0.05548602
v 0.00723623 -0.17793014 -0.05417299
v 0.00864843 -0.17847090 -0.05472511
v 0.00598226 -0.17833828 -0.05383950
v 0.00270638 -0.17902627 -0.05439633
v 0.00486454 -0.18010818 -0.05433911
v 0.01847472 -0.17257558 -0.05672514
v 0.02383360 -0.17295527 -0.05684054
v 0.01952060 -0.17392485 -0.05708838
v 0.02100935 -0.17477809 -0.05771792
v 0.02278208 -0.17416619 -0.05698401
v 0.04767620 -0.14516505 -0.06088853
v 0.04817428 -0.14490046 -0.06192470
v 0.04813605 -0.14479285 -0.06314510
v 0.04730728 -0.14474641 -0.06438291
v 0.04607251 -0.14472227 -0.06557149
v 0.04478677 -0.14452960 -0.06654871
v 0.04127833 -0.14434006 -0.06724840
v 0.03966235 -0.14545192 -0.06574088
v 0.04009338 -0.14567070 -0.06287456
v 0.04186916 -0.14561244 -0.06034845
v 0.04399379 -0.14539992 -0.05903691
v 0.04512500 -0.14542519 -0.05920172
v 0.04579892 -0.14561995 -0.05949342
v 0.04627483 -0.14608487 -0.06020606
v 0.04711973 -0.14551749 -0.06030428
v 0.03326999 -0.16188564 -0.06445950
v 0.03123205 -0.16089656 -0.05951768
v 0.03087582 -0.16176220 -0.06033069
v 0.03101461 -0.16251626 -0.06162333
v 0.03155222 -0.16265821 -0.06322587
v 0.03217130 -0.16042041 -0.05877000
v 0.03631755 -0.16115593 -0.05888408
v 0.03677594 -0.16195103 -0.06022000
v 0.03679087 -0.16151749 -0.05958784
v 0.03291776 -0.16150939 -0.05909926
v 0.03400248 -0.16220125 -0.05952895
v 0.03538018 -0.16178333 -0.05907822
v 0.03597885 -0.16245880 -0.06116307
v 0.03455853 -0.16250627 -0.06275743
v 0.04317027 -0.14582097 -0.06601834
v 0.01874956 -0.17478733 -0.05859470
v 0.01763939 -0.17405551 -0.05796432
v 0.02390795 -0.17428817 -0.05780929
v 0.02286022 -0.17495524 -0.05839211
v 0.00816713 -0.18343624 -0.05853623
v 0.00999203 -0.18228247 -0.05698198
v 0.00894934 -0.18060490 -0.05544508
v 0.00996104 -0.18134843 -0.05597353
v 0.00554138 -0.18362614 -0.05741096
v 0.00251691 -0.18320837 -0.05925024
v 0.00154510 -0.18270366 -0.05781680
v 0.00107105 -0.18097242 -0.05635941
v 0.00105284 -0.18176558 -0.05696070
v 0.00196345 -0.18038215 -0.05535060
v 0.00771227 -0.17961963 -0.05467176
v 0.00749746 -0.18188187 -0.05492777
v 0.00396676 -0.18195807 -0.05514491
v 0.00598560 -0.18289985 -0.05549651
v 0.04721083 -0.14579110 -0.06111789
v 0.04719048 -0.14579855 -0.06193256
v 0.04719808 -0.14588602 -0.06284261
v 0.04649343 -0.14611571 -0.06367308
v 0.04491701 -0.14610904 -0.06479001
v 0.04234042 -0.14670824 -0.06445497
v 0.04246878 -0.14678564 -0.06244963
v 0.04393863 -0.14610158 -0.05996704
v 0.04321628 -0.14650439 -0.06071246
v 0.04497444 -0.14600899 -0.05973840
v 0.04524573 -0.14667766 -0.06050652
v 0.04562180 -0.14694362 -0.06161696
v 0.04648276 -0.14650478 -0.06126595
v 0.03352665 -0.16291793 -0.06144315
v 0.03176963 -0.16177802 -0.05982828
v 0.03281402 -0.16246419 -0.06026727
v 0.03627982 -0.16199191 -0.05967575
v 0.03496566 -0.16241243 -0.06019443
v 0.04457220 -0.14697095 -0.06333476
v 0.00897491 -0.18210255 -0.05576307
v 0.00785707 -0.18290969 -0.05626917
v 0.00376368 -0.18291186 -0.05664968
v 0.00262144 -0.18245556 -0.05608344
v 0.04672297 -0.14639070 -0.06213975
v 0.04591706 -0.14667158 -0.06261837
v 0.04417177 -0.14673536 -0.06071687
v 0.04448103 -0.14705714 -0.06182742
v 0.00033338 0.04864039 0.01596761
v -0.01668850 0.03719313 0.01922929
v 0.00487297 0.05039867 -0.00409967
v -0.01272923 0.04092470 -0.00352442
v 0.01889037 0.03372866 -0.00503200
v 0.01064566 0.06018969 -0.02962893
v -0.00889547 0.05453085 -0.02957791
v -0.02445045 0.01965943 0.00017393
v 0.02378122 -0.02633651 0.00487083
v 0.03053623 -0.01065157 -0.00079101
v 0.03184005 0.01215705 -0.00610262
v 0.02475058 0.04443528 -0.02754241
v 0.01423787 0.05858383 -0.05498862
v -0.00639354 0.05683892 -0.05462360
v -0.02028356 0.02923024 -0.02446830
v -0.03412345 -0.00452450 0.00437760
v -0.03030144 -0.02933304 0.00893396
v -0.01839103 -0.04444029 0.01412857
v 0.01268385 -0.04038631 0.00981033
v 0.03130464 -0.02288471 -0.01372844
v 0.03242242 0.01865382 -0.02794832
v 0.03101062 0.04686624 -0.05068970
v 0.01537215 0.02996239 -0.06386352
v -0.00703998 0.03078147 -0.06360894
v -0.02183336 0.03558687 -0.04635054
v -0.02910887 0.00042348 -0.02011877
v -0.03242937 -0.02989208 -0.01738137
v -0.02410313 -0.05626541 -0.00843912
v -0.00302012 -0.04646832 0.01457661
v 0.01543432 -0.05953211 -0.00684953
v 0.03109889 -0.04833503 -0.02026874
v 0.03630497 -0.00944321 -0.03165734
v 0.03868186 0.02411725 -0.04588467
v 0.03173383 0.01982134 -0.06409675
v 0.01326870 -0.02077840 -0.06517416
v -0.00529574 -0.01984631 -0.06325626
v -0.02289140 0.01755080 -0.05698615
v -0.02746193 0.00661196 -0.04076540
v -0.03185774 -0.02820281 -0.04048836
v -0.02596885 -0.08049290 -0.02215159
v -0.00475244 -0.06463640 -0.00222600
v 0.01550650 -0.08466463 -0.02149308
v 0.03950217 -0.03922083 -0.03708196
v 0.03191223 -0.07733634 -0.03139997
v 0.04084649 -0.00070242 -0.04731953
v 0.03992047 0.00733537 -0.05738395
v 0.03016561 -0.02486046 -0.06565392
v 0.01529612 -0.06997775 -0.06687331
v -0.00729930 -0.07022517 -0.06556904
v -0.02126174 -0.02332239 -0.05569041
v -0.03380361 -0.07058518 -0.04285371
v -0.02517947 -0.11076980 -0.03148144
v -0.00513531 -0.08802110 -0.01500624
v 0.01895160 -0.11182577 -0.03749323
v 0.04542651 -0.03248947 -0.05183882
v 0.04490715 -0.07130202 -0.04243875
v 0.03651043 -0.10489725 -0.04268479
v 0.04208656 -0.02875088 -0.06322479
v 0.03568997 -0.06980986 -0.06769335
v 0.01832900 -0.11552349 -0.06982046
v -0.01335684 -0.11401168 -0.06941140
v -0.02434790 -0.06876944 -0.05863309
v -0.03704727 -0.10704528 -0.04875296
v -0.02431744 -0.13446825 -0.03727353
v -0.00182816 -0.11411760 -0.03141361
v 0.02178600 -0.13566121 -0.04537630
v 0.05396061 -0.06843755 -0.05510557
v 0.04996664 -0.09891724 -0.04895484
v 0.03663773 -0.12810931 -0.04783040
v 0.04995479 -0.06951673 -0.06669873
v 0.03411374 -0.11096283 -0.06973535
v 0.02245029 -0.14179262 -0.06958318
v 0.00492000 -0.12818543 -0.06979632
v -0.01336990 -0.14210530 -0.06859082
v -0.03317054 -0.10890039 -0.06721437
v -0.03757937 -0.13304097 -0.05083901
v -0.02241547 -0.14783787 -0.04126549
v -0.00874448 -0.13808905 -0.04356593
v 0.00148909 -0.13652990 -0.04250443
v 0.01128960 -0.13967930 -0.04638642
v 0.02182340 -0.14764484 -0.04695171
v 0.02787083 -0.13615135 -0.04800540
v 0.05707582 -0.09740443 -0.05886865
v 0.05167448 -0.11843412 -0.05116731
v 0.03645887 -0.14028301 -0.04840338
v 0.04363369 -0.12620119 -0.05011207
v 0.05411772 -0.10136689 -0.06863397
v 0.04442861 -0.11804806 -0.06957376
v 0.03032177 -0.13886925 -0.06940275
v 0.02054106 -0.15070956 -0.06698787
v 0.01105992 -0.14856072 -0.06859475
v 0.00163966 -0.14734953 -0.06879413
v -0.00935973 -0.14641123 -0.05492592
v -0.03238967 -0.13729142 -0.06722617
v -0.03556170 -0.14725666 -0.05182099
v -0.02152134 -0.15650838 -0.04390579
v -0.01178989 -0.15132420 -0.05594981
v 0.00107156 -0.14844405 -0.04480624
v 0.01106265 -0.14754920 -0.05233455
v 0.01271357 -0.15086152 -0.05310744
v 0.02262192 -0.15485414 -0.04847783
v 0.02626067 -0.14784219 -0.05909324
v 0.02768888 -0.14438703 -0.05893260
v 0.05516867 -0.11578252 -0.05963212
v 0.05157813 -0.12748556 -0.05164611
v 0.02861958 -0.14491587 -0.05836415
v 0.03640827 -0.14559769 -0.04976636
v 0.04201960 -0.13915967 -0.05703861
v 0.04256954 -0.13545010 -0.05638748
v 0.05264883 -0.12105243 -0.06652468
v 0.04388350 -0.13362310 -0.06875032
v 0.03758314 -0.13688841 -0.06942630
v 0.01967340 -0.15522446 -0.06626505
v 0.00365299 -0.15416293 -0.06632632
v -0.00587516 -0.14986416 -0.05525011
v -0.02865867 -0.14991092 -0.06709433
v -0.03555758 -0.15740757 -0.05330163
v -0.02041446 -0.16339802 -0.04560632
v -0.01013671 -0.15922519 -0.05709654
v 0.00988074 -0.15040212 -0.05162841
v 0.00118864 -0.15662183 -0.04612947
v 0.01312631 -0.15614962 -0.05404955
v 0.02268600 -0.15891307 -0.05042446
v 0.02622562 -0.15429660 -0.05885285
v 0.05505975 -0.12516273 -0.05969489
v 0.04305836 -0.13436841 -0.05603623
v 0.05125573 -0.13129975 -0.05239606
v 0.03742447 -0.14260634 -0.06771392
v 0.02921461 -0.14800002 -0.05842340
v 0.03632098 -0.14891346 -0.05097282
v 0.04185655 -0.14327716 -0.05839294
v 0.04923829 -0.13191245 -0.06716353
v 0.01942297 -0.15802275 -0.06649017
v 0.00430542 -0.15762772 -0.06597424
v -0.00473616 -0.15702172 -0.05817664
v -0.02636310 -0.16053705 -0.06693560
v -0.03546350 -0.16669866 -0.05460668
v -0.01955742 -0.16893168 -0.04773527
v -0.00783166 -0.16519829 -0.05704665
v 0.00983797 -0.15572538 -0.05194652
v 0.00172628 -0.16249408 -0.04814464
v 0.01345762 -0.16000797 -0.05480951
v 0.02268570 -0.16182571 -0.05179590
v 0.02671167 -0.15801623 -0.05972266
v 0.05400803 -0.13073145 -0.06006247
v 0.04276883 -0.13552918 -0.05674046
v 0.05111220 -0.13430818 -0.05328429
v 0.03674897 -0.14480906 -0.06762832
v 0.02932470 -0.14950242 -0.05867839
v 0.03670435 -0.15229084 -0.05280000
v 0.04224109 -0.14644506 -0.05958843
v 0.04704245 -0.13432943 -0.06751204
v 0.01945516 -0.16064604 -0.06748289
v 0.00447662 -0.16264381 -0.06626278
v -0.00463659 -0.16378965 -0.05890542
v -0.02341706 -0.16907283 -0.06635058
v -0.03378306 -0.17609014 -0.05477113
v -0.01971902 -0.17175226 -0.04791933
v -0.00723952 -0.17126991 -0.05687517
v 0.01013552 -0.16145795 -0.05334306
v 0.00171797 -0.16794740 -0.05013180
v 0.01324379 -0.16311323 -0.05629271
v 0.02239992 -0.16455271 -0.05300087
v 0.02712359 -0.16090800 -0.06071663
v 0.05316316 -0.13389417 -0.06071353
v 0.04263266 -0.13690071 -0.05741775
v 0.05059438 -0.13783502 -0.05465674
v 0.03665810 -0.14713590 -0.06787819
v 0.02912986 -0.15104493 -0.05941176
v 0.03595846 -0.15514370 -0.05515522
v 0.04195230 -0.15061732 -0.06092930
v 0.04618063 -0.13551541 -0.06746346
v 0.01912110 -0.16514738 -0.06718194
v 0.00484803 -0.16705572 -0.06581557
v -0.00510781 -0.16992726 -0.05938190
v -0.02036333 -0.17703640 -0.06556094
v -0.02967200 -0.18410595 -0.05369705
v -0.01254410 -0.17774918 -0.04897130
v -0.02515566 -0.18104254 -0.04754579
v -0.01871698 -0.17697378 -0.04665315
v -0.00797990 -0.17899885 -0.05572003
v 0.01033680 -0.16741352 -0.05422354
v 0.00197607 -0.17286562 -0.05148214
v 0.01371508 -0.16676219 -0.05684090
v 0.02204325 -0.16724484 -0.05430454
v 0.02761739 -0.16460769 -0.05990446
v 0.05204552 -0.13684975 -0.06191671
v 0.04247158 -0.13833331 -0.05820477
v 0.04930111 -0.14079936 -0.05623293
v 0.03667127 -0.15010806 -0.06777239
v 0.02828919 -0.15435763 -0.05841863
v 0.03508266 -0.15749683 -0.05674696
v 0.04063504 -0.15513133 -0.06033742
v 0.04594993 -0.13677277 -0.06747961
v 0.01181410 -0.16904449 -0.06513882
v 0.02607249 -0.16872933 -0.06506807
v 0.01922353 -0.16995879 -0.06614220
v 0.00494182 -0.17359470 -0.06611580
v -0.00458203 -0.17595880 -0.05764359
v -0.01805359 -0.18443136 -0.06239223
v -0.02484931 -0.18700047 -0.05142218
v -0.01225188 -0.18204181 -0.04840326
v -0.02354489 -0.18423071 -0.04716778
v -0.01732989 -0.18209874 -0.04554689
v -0.01083164 -0.18377470 -0.05310678
v 0.00973898 -0.17202534 -0.05339992
v 0.00276147 -0.17552220 -0.05240130
v 0.01600000 -0.16912945 -0.05628514
v 0.02142810 -0.16943174 -0.05536777
v 0.02640247 -0.16897978 -0.05791688
v 0.05112629 -0.14046954 -0.06186974
v 0.04255002 -0.14109918 -0.05780256
v 0.04841911 -0.14305725 -0.05775326
v 0.03554025 -0.15371477 -0.06757653
v 0.02822875 -0.15639701 -0.06601417
v 0.03003445 -0.15784185 -0.05792350
v 0.03453668 -0.15872644 -0.05761403
v 0.03867786 -0.15867411 -0.05915385
v 0.04018431 -0.15718802 -0.06434113
v 0.04559784 -0.13940834 -0.06791621
v 0.01476797 -0.17227187 -0.06552583
v 0.01337840 -0.17173844 -0.06068480
v 0.02666327 -0.17168318 -0.06123632
v 0.02349224 -0.17194586 -0.06498301
v 0.01968040 -0.17372804 -0.06468141
v 0.01234441 -0.17592110 -0.06086552
v 0.00433955 -0.17965489 -0.06481552
v -0.00354709 -0.17935031 -0.06247586
v -0.00149335 -0.17838900 -0.05630147
v -0.01639575 -0.18713220 -0.05578023
v -0.01638435 -0.18699061 -0.04924864
v -0.01685798 -0.18408700 -0.04608363
v 0.00843726 -0.17550602 -0.05341530
v 0.00324719 -0.17704250 -0.05321640
v 0.01779246 -0.17064606 -0.05610096
v 0.02460652 -0.17104601 -0.05685532
v 0.02111038 -0.17156654 -0.05591697
v 0.05006485 -0.14267277 -0.06144774
v 0.04856717 -0.14118954 -0.06575161
v 0.03938913 -0.14098450 -0.06498247
v 0.04428097 -0.14355653 -0.05715799
v 0.04740857 -0.14462694 -0.05925661
v 0.03474712 -0.15781700 -0.06639218
v 0.02839678 -0.16052510 -0.06156409
v 0.03118431 -0.15946214 -0.06585133
v 0.03157764 -0.15913614 -0.05811691
v 0.03725835 -0.16009062 -0.05868196
v 0.03422039 -0.15972947 -0.05806303
v 0.03839844 -0.16095783 -0.06145513
v 0.03724601 -0.16002216 -0.06509346
v 0.04418602 -0.14253979 -0.06769985
v 0.01555102 -0.17420324 -0.06202930
v 0.01604002 -0.17278813 -0.05814946
v 0.02558031 -0.17322462 -0.05824167
v 0.02459040 -0.17384787 -0.06177855
v 0.02000379 -0.17523678 -0.06163299
v 0.00988965 -0.18046685 -0.06233793
v 0.01132037 -0.17855074 -0.05659932
v 0.00464715 -0.18263729 -0.06235904
v -0.00075026 -0.18156843 -0.06236994
v -0.00203733 -0.18025832 -0.05854887
v 0.00062612 -0.17922794 -0.05536747
v 0.00747280 -0.17734026 -0.05383164
v 0.00415245 -0.17853584 -0.05385941
v 0.01880645 -0.17180111 -0.05628759
v 0.02352699 -0.17216860 -0.05663526
v 0.02118995 -0.17413886 -0.05697793
v 0.04847594 -0.14459064 -0.06114137
v 0.04850128 -0.14386176 -0.06388789
v 0.04625686 -0.14381059 -0.06648326
v 0.03955504 -0.14320358 -0.06709260
v 0.04012047 -0.14450460 -0.06156683
v 0.04497009 -0.14504763 -0.05852717
v 0.04656541 -0.14555805 -0.05981874
v 0.03417554 -0.16074040 -0.06534922
v 0.03049543 -0.16102072 -0.05966377
v 0.03024258 -0.16240617 -0.06314272
v 0.03240504 -0.15989711 -0.05842388
v 0.03611907 -0.16062646 -0.05856383
v 0.03731304 -0.16156673 -0.05990452
v 0.03410023 -0.16169577 -0.05901414
v 0.03608044 -0.16220721 -0.06245822
v 0.04318228 -0.14470645 -0.06691605
v 0.01721220 -0.17419656 -0.05871451
v 0.01803183 -0.17348080 -0.05737191
v 0.02396455 -0.17384159 -0.05714792
v 0.02425175 -0.17452007 -0.05849588
v 0.02084153 -0.17510112 -0.05840981
v 0.01043326 -0.18215456 -0.05806667
v 0.00957234 -0.18010824 -0.05539954
v 0.00518575 -0.18363660 -0.05899429
v 0.00045650 -0.18249854 -0.05934536
v 0.00050206 -0.18095618 -0.05661559
v 0.00179797 -0.17951994 -0.05503792
v 0.00704668 -0.17851662 -0.05418479
v 0.00572166 -0.18205913 -0.05489135
v 0.04734435 -0.14549970 -0.06074989
v 0.04771083 -0.14540794 -0.06254798
v 0.04611894 -0.14550429 -0.06466013
v 0.04102620 -0.14654570 -0.06384701
v 0.04325532 -0.14592405 -0.05981910
v 0.04528483 -0.14570354 -0.05946153
v 0.04592877 -0.14663931 -0.06090868
v 0.03311916 -0.16267543 -0.06298161
v 0.03193673 -0.16120117 -0.05929393
v 0.03165700 -0.16221603 -0.06044179
v 0.03635793 -0.16169917 -0.05929381
v 0.03609880 -0.16223248 -0.06022328
v 0.03393786 -0.16248547 -0.06016749
v 0.04357456 -0.14650734 -0.06472152
v 0.00936472 -0.18221783 -0.05634767
v 0.00852497 -0.18126618 -0.05521566
v 0.00568815 -0.18313699 -0.05633873
v 0.00221853 -0.18251165 -0.05688548
v 0.00242403 -0.18162720 -0.05563176
v 0.04692864 -0.14617853 -0.06159395
v 0.04662927 -0.14631583 -0.06285644
v 0.04367673 -0.14687114 -0.06135160
v 0.04458784 -0.14644145 -0.06020570
v 0.04521539 -0.14696427 -0.06225181
f 308 321 320
f 320 321 958
f 321 319 958
f 958 319 322
f 319 323 322
f 322 323 959
f 323 318 959
f 321 308 960
f 960 308 325
f 325 1 960
f 960 1 326
f 326 2 960
f 960 2 327
f 319 321 327
f 327 321 960
f 323 319 961
f 961 319 327
f 2 328 327
f 327 328 961
f 328 11 961
f 961 11 329
f 318 323 329
f 329 323 961
f 309 334 324
f 324 334 962
f 334 3 962
f 962 3 335
f 1 325 335
f 335 325 962
f 325 308 962
f 962 308 324
f 1 336 326
f 326 336 963
f 336 139 963
f 963 139 337
f 337 255 963
f 963 255 338
f 2 326 338
f 338 326 963
f 255 339 338
f 338 339 964
f 339 253 964
f 964 253 340
f 11 328 340
f 340 328 964
f 328 2 964
f 964 2 338
f 317 330 341
f 341 330 965
f 330 318 965
f 965 318 329
f 11 342 329
f 329 342 965
f 342 12 965
f 965 12 341
f 312 347 331
f 331 347 966
f 9 348 347
f 347 348 966
f 10 349 348
f 348 349 966
f 349 311 966
f 966 311 331
f 311 349 332
f 332 349 967
f 349 10 967
f 967 10 350
f 4 351 350
f 350 351 967
f 351 310 967
f 967 310 332
f 310 351 333
f 333 351 968
f 4 352 351
f 351 352 968
f 3 334 352
f 352 334 968
f 334 309 968
f 968 309 333
f 139 336 353
f 353 336 969
f 336 1 969
f 969 1 335
f 3 354 335
f 335 354 969
f 354 256 969
f 969 256 353
f 141 356 355
f 355 356 970
f 356 257 970
f 970 257 357
f 255 337 357
f 357 337 970
f 337 139 970
f 970 139 355
f 254 359 358
f 358 359 971
f 253 339 359
f 359 339 971
f 339 255 971
f 971 255 357
f 357 257 971
f 971 257 358
f 12 342 360
f 360 342 972
f 342 11 972
f 972 11 340
f 253 361 340
f 340 361 972
f 361 137 972
f 972 137 360
f 343 317 973
f 973 317 341
f 12 362 341
f 341 362 973
f 362 5 973
f 973 5 363
f 316 343 363
f 363 343 973
f 344 316 974
f 974 316 363
f 5 364 363
f 363 364 974
f 364 6 974
f 974 6 365
f 315 344 365
f 365 344 974
f 345 315 975
f 975 315 365
f 6 366 365
f 365 366 975
f 366 7 975
f 975 7 367
f 314 345 367
f 367 345 975
f 313 369 346
f 346 369 976
f 369 8 976
f 976 8 370
f 9 347 370
f 370 347 976
f 347 312 976
f 976 312 346
f 9 371 348
f 348 371 977
f 371 175 977
f 977 175 372
f 4 350 372
f 372 350 977
f 350 10 977
f 977 10 348
f 256 354 373
f 373 354 978
f 354 3 978
f 978 3 352
f 4 374 352
f 352 374 978
f 374 140 978
f 978 140 373
f 353 256 979
f 979 256 375
f 258 376 375
f 375 376 979
f 376 141 979
f 979 141 355
f 139 353 355
f 355 353 979
f 249 378 377
f 377 378 980
f 378 250 980
f 980 250 379
f 257 356 379
f 379 356 980
f 356 141 980
f 980 141 377
f 248 381 380
f 380 381 981
f 381 254 981
f 981 254 358
f 257 379 358
f 358 379 981
f 379 250 981
f 981 250 380
f 361 253 982
f 982 253 359
f 359 254 982
f 982 254 382
f 382 138 982
f 982 138 383
f 137 361 383
f 383 361 982
f 5 362 384
f 384 362 983
f 362 12 983
f 983 12 360
f 137 385 360
f 360 385 983
f 385 252 983
f 983 252 384
f 6 364 386
f 386 364 984
f 364 5 984
f 984 5 384
f 252 387 384
f 384 387 984
f 268 386 387
f 387 386 984
f 366 6 985
f 985 6 386
f 268 388 386
f 386 388 985
f 278 389 388
f 388 389 985
f 7 366 389
f 389 366 985
f 368 314 986
f 986 314 367
f 7 390 367
f 367 390 986
f 8 369 390
f 390 369 986
f 369 313 986
f 986 313 368
f 9 370 391
f 391 370 987
f 370 8 987
f 987 8 392
f 279 393 392
f 392 393 987
f 393 277 987
f 987 277 391
f 175 371 394
f 394 371 988
f 371 9 988
f 988 9 391
f 277 395 391
f 391 395 988
f 395 276 988
f 988 276 394
f 140 374 396
f 396 374 989
f 374 4 989
f 989 4 372
f 175 397 372
f 372 397 989
f 397 174 989
f 989 174 396
f 140 398 373
f 373 398 990
f 142 399 398
f 398 399 990
f 399 258 990
f 990 258 375
f 375 256 990
f 990 256 373
f 376 258 991
f 991 258 400
f 259 401 400
f 400 401 991
f 401 249 991
f 991 249 377
f 141 376 377
f 377 376 991
f 402 271 992
f 992 271 403
f 250 378 403
f 403 378 992
f 378 249 992
f 992 249 404
f 272 402 404
f 404 402 992
f 270 406 405
f 405 406 993
f 406 248 993
f 993 248 380
f 250 403 380
f 380 403 993
f 403 271 993
f 993 271 405
f 254 381 382
f 382 381 994
f 381 248 994
f 994 248 407
f 251 408 407
f 407 408 994
f 408 138 994
f 994 138 382
f 408 251 995
f 995 251 409
f 252 385 409
f 409 385 995
f 385 137 995
f 995 137 383
f 138 408 383
f 383 408 995
f 387 252 996
f 996 252 409
f 251 410 409
f 409 410 996
f 410 269 996
f 996 269 411
f 268 387 411
f 411 387 996
f 268 412 388
f 388 412 997
f 412 287 997
f 997 287 413
f 288 414 413
f 413 414 997
f 414 278 997
f 997 278 388
f 392 8 998
f 998 8 390
f 7 389 390
f 390 389 998
f 389 278 998
f 998 278 415
f 415 279 998
f 998 279 392
f 277 393 416
f 416 393 999
f 393 279 999
f 999 279 417
f 417 291 999
f 999 291 418
f 418 290 999
f 999 290 416
f 174 397 419
f 419 397 1000
f 397 175 1000
f 1000 175 394
f 276 420 394
f 394 420 1000
f 420 275 1000
f 1000 275 419
f 276 395 421
f 421 395 1001
f 395 277 1001
f 1001 277 416
f 290 422 416
f 416 422 1001
f 422 289 1001
f 1001 289 421
f 423 176 1002
f 1002 176 424
f 142 398 424
f 424 398 1002
f 398 140 1002
f 1002 140 396
f 174 423 396
f 396 423 1002
f 425 259 1003
f 1003 259 400
f 258 399 400
f 400 399 1003
f 399 142 1003
f 1003 142 424
f 176 425 424
f 424 425 1003
f 426 272 1004
f 1004 272 404
f 249 401 404
f 404 401 1004
f 401 259 1004
f 1004 259 427
f 273 426 427
f 427 426 1004
f 402 272 1005
f 1005 272 428
f 428 283 1005
f 1005 283 429
f 284 430 429
f 429 430 1005
f 430 271 1005
f 1005 271 402
f 271 430 405
f 405 430 1006
f 284 431 430
f 430 431 1006
f 431 285 1006
f 1006 285 432
f 432 270 1006
f 1006 270 405
f 410 251 1007
f 1007 251 407
f 248 406 407
f 407 406 1007
f 406 270 1007
f 1007 270 433
f 269 410 433
f 433 410 1007
f 434 286 1008
f 1008 286 435
f 287 412 435
f 435 412 1008
f 412 268 1008
f 1008 268 411
f 269 434 411
f 411 434 1008
f 287 436 413
f 413 436 1009
f 436 298 1009
f 1009 298 437
f 297 438 437
f 437 438 1009
f 438 288 1009
f 1009 288 413
f 417 279 1010
f 1010 279 415
f 278 414 415
f 415 414 1010
f 414 288 1010
f 1010 288 439
f 291 417 439
f 439 417 1010
f 290 418 440
f 440 418 1011
f 291 441 418
f 418 441 1011
f 296 442 441
f 441 442 1011
f 442 295 1011
f 1011 295 440
f 176 423 443
f 443 423 1012
f 423 174 1012
f 1012 174 419
f 275 444 419
f 419 444 1012
f 444 274 1012
f 1012 274 443
f 280 446 445
f 445 446 1013
f 275 420 446
f 446 420 1013
f 420 276 1013
f 1013 276 421
f 421 289 1013
f 1013 289 445
f 289 422 447
f 447 422 1014
f 422 290 1014
f 1014 290 440
f 295 448 440
f 440 448 1014
f 448 294 1014
f 1014 294 447
f 449 273 1015
f 1015 273 427
f 259 425 427
f 427 425 1015
f 425 176 1015
f 1015 176 443
f 274 449 443
f 443 449 1015
f 282 451 450
f 450 451 1016
f 451 283 1016
f 1016 283 428
f 272 426 428
f 428 426 1016
f 426 273 1016
f 1016 273 450
f 283 452 429
f 429 452 1017
f 452 301 1017
f 1017 301 453
f 305 454 453
f 453 454 1017
f 454 284 1017
f 1017 284 429
f 431 284 1018
f 1018 284 455
f 304 456 455
f 455 456 1018
f 456 303 1018
f 1018 303 457
f 285 431 457
f 457 431 1018
f 270 432 433
f 433 432 1019
f 285 458 432
f 432 458 1019
f 286 434 458
f 458 434 1019
f 434 269 1019
f 1019 269 433
f 299 460 459
f 459 460 1020
f 460 298 1020
f 1020 298 436
f 287 435 436
f 436 435 1020
f 435 286 1020
f 1020 286 459
f 298 461 437
f 437 461 1021
f 461 123 1021
f 1021 123 462
f 117 463 462
f 462 463 1021
f 463 297 1021
f 1021 297 437
f 441 291 1022
f 1022 291 439
f 288 438 439
f 439 438 1022
f 438 297 1022
f 1022 297 464
f 296 441 464
f 464 441 1022
f 442 296 1023
f 1023 296 465
f 43 466 465
f 465 466 1023
f 36 467 466
f 466 467 1023
f 295 442 467
f 467 442 1023
f 281 469 468
f 468 469 1024
f 274 444 469
f 469 444 1024
f 444 275 1024
f 1024 275 446
f 446 280 1024
f 1024 280 468
f 470 293 1025
f 1025 293 471
f 471 280 1025
f 1025 280 445
f 445 289 1025
f 1025 289 447
f 294 470 447
f 447 470 1025
f 448 295 1026
f 1026 295 472
f 38 473 472
f 472 473 1026
f 473 58 1026
f 1026 58 474
f 294 448 474
f 474 448 1026
f 282 450 475
f 475 450 1027
f 273 449 450
f 450 449 1027
f 449 274 1027
f 1027 274 469
f 469 281 1027
f 1027 281 475
f 476 306 1028
f 1028 306 477
f 301 452 477
f 477 452 1028
f 452 283 1028
f 1028 283 451
f 451 282 1028
f 1028 282 476
f 478 28 1029
f 1029 28 479
f 27 480 479
f 479 480 1029
f 480 305 1029
f 1029 305 453
f 301 478 453
f 453 478 1029
f 454 305 1030
f 1030 305 481
f 302 482 481
f 481 482 1030
f 482 304 1030
f 1030 304 455
f 284 454 455
f 455 454 1030
f 483 119 1031
f 1031 119 484
f 303 456 484
f 484 456 1031
f 456 304 1031
f 1031 304 485
f 110 483 485
f 485 483 1031
f 303 486 457
f 457 486 1032
f 486 299 1032
f 1032 299 459
f 286 458 459
f 459 458 1032
f 458 285 1032
f 1032 285 457
f 460 299 1033
f 1033 299 487
f 125 488 487
f 487 488 1033
f 488 123 1033
f 1033 123 461
f 298 460 461
f 461 460 1033
f 234 490 489
f 489 490 1034
f 490 117 1034
f 1034 117 462
f 123 491 462
f 462 491 1034
f 491 237 1034
f 1034 237 489
f 463 117 1035
f 1035 117 492
f 492 116 1035
f 1035 116 493
f 297 463 493
f 493 463 1035
f 297 493 464
f 464 493 1036
f 116 494 493
f 493 494 1036
f 112 495 494
f 494 495 1036
f 495 296 1036
f 1036 296 464
f 495 112 1037
f 1037 112 496
f 496 43 1037
f 1037 43 465
f 296 495 465
f 465 495 1037
f 166 498 497
f 497 498 1038
f 162 499 498
f 498 499 1038
f 499 36 1038
f 1038 36 466
f 43 497 466
f 466 497 1038
f 467 36 1039
f 1039 36 500
f 500 38 1039
f 1039 38 472
f 295 467 472
f 472 467 1039
f 471 293 1040
f 1040 293 501
f 292 502 501
f 501 502 1040
f 502 281 1040
f 1040 281 468
f 280 471 468
f 468 471 1040
f 470 294 1041
f 1041 294 503
f 57 504 503
f 503 504 1041
f 504 56 1041
f 1041 56 505
f 293 470 505
f 505 470 1041
f 165 507 506
f 506 507 1042
f 507 211 1042
f 1042 211 508
f 58 473 508
f 508 473 1042
f 473 38 1042
f 1042 38 506
f 58 509 474
f 474 509 1043
f 509 57 1043
f 1043 57 503
f 294 474 503
f 503 474 1043
f 307 511 510
f 510 511 1044
f 511 282 1044
f 1044 282 475
f 281 502 475
f 475 502 1044
f 502 292 1044
f 1044 292 510
f 511 307 1045
f 1045 307 512
f 300 513 512
f 512 513 1045
f 513 306 1045
f 1045 306 476
f 282 511 476
f 476 511 1045
f 306 514 477
f 477 514 1046
f 514 37 1046
f 1046 37 515
f 28 478 515
f 515 478 1046
f 478 301 1046
f 1046 301 477
f 516 27 1047
f 1047 27 479
f 28 517 479
f 479 517 1047
f 517 149 1047
f 1047 149 518
f 148 516 518
f 518 516 1047
f 305 480 481
f 481 480 1048
f 480 27 1048
f 1048 27 519
f 519 44 1048
f 1048 44 520
f 520 302 1048
f 1048 302 481
f 44 521 520
f 520 521 1049
f 521 110 1049
f 1049 110 485
f 304 482 485
f 485 482 1049
f 482 302 1049
f 1049 302 520
f 483 110 1050
f 1050 110 522
f 116 492 522
f 522 492 1050
f 117 523 492
f 492 523 1050
f 119 483 523
f 523 483 1050
f 524 125 1051
f 1051 125 487
f 299 486 487
f 487 486 1051
f 486 303 1051
f 1051 303 484
f 119 524 484
f 484 524 1051
f 525 237 1052
f 1052 237 491
f 123 488 491
f 491 488 1052
f 488 125 1052
f 1052 125 526
f 238 525 526
f 526 525 1052
f 121 528 527
f 527 528 1053
f 118 529 528
f 528 529 1053
f 529 234 1053
f 1053 234 489
f 489 237 1053
f 1053 237 527
f 530 235 1054
f 1054 235 531
f 119 523 531
f 531 523 1054
f 117 490 523
f 523 490 1054
f 490 234 1054
f 1054 234 530
f 112 494 532
f 532 494 1055
f 494 116 1055
f 1055 116 533
f 233 534 533
f 533 534 1055
f 226 532 534
f 534 532 1055
f 43 496 535
f 535 496 1056
f 112 536 496
f 496 536 1056
f 44 519 536
f 536 519 1056
f 27 535 519
f 519 535 1056
f 43 535 497
f 497 535 1057
f 27 516 535
f 535 516 1057
f 148 537 516
f 516 537 1057
f 537 166 1057
f 1057 166 497
f 25 539 538
f 538 539 1058
f 34 540 539
f 539 540 1058
f 540 162 1058
f 1058 162 498
f 498 166 1058
f 1058 166 538
f 541 149 1059
f 1059 149 517
f 28 542 517
f 517 542 1059
f 36 499 542
f 542 499 1059
f 499 162 1059
f 1059 162 541
f 500 36 1060
f 1060 36 542
f 28 515 542
f 542 515 1060
f 37 543 515
f 515 543 1060
f 38 500 543
f 543 500 1060
f 59 545 544
f 544 545 1061
f 545 292 1061
f 1061 292 501
f 293 505 501
f 501 505 1061
f 56 544 505
f 505 544 1061
f 172 547 546
f 546 547 1062
f 547 173 1062
f 1062 173 548
f 56 504 548
f 548 504 1062
f 504 57 1062
f 1062 57 546
f 38 543 506
f 506 543 1063
f 37 549 543
f 543 549 1063
f 549 164 1063
f 1063 164 550
f 550 165 1063
f 1063 165 506
f 42 552 551
f 551 552 1064
f 552 82 1064
f 1064 82 553
f 211 507 553
f 553 507 1064
f 507 165 1064
f 1064 165 551
f 554 39 1065
f 1065 39 555
f 58 508 555
f 555 508 1065
f 508 211 1065
f 1065 211 556
f 163 554 556
f 556 554 1065
f 60 558 557
f 557 558 1066
f 57 509 558
f 558 509 1066
f 509 58 1066
f 1066 58 555
f 39 557 555
f 555 557 1066
f 545 59 1067
f 1067 59 559
f 60 560 559
f 559 560 1067
f 560 307 1067
f 1067 307 510
f 292 545 510
f 510 545 1067
f 307 560 512
f 512 560 1068
f 560 60 1068
f 1068 60 557
f 39 561 557
f 557 561 1068
f 561 300 1068
f 1068 300 512
f 39 562 561
f 561 562 1069
f 37 514 562
f 562 514 1069
f 306 513 514
f 514 513 1069
f 513 300 1069
f 1069 300 561
f 563 148 1070
f 1070 148 518
f 149 564 518
f 518 564 1070
f 26 565 564
f 564 565 1070
f 565 23 1070
f 1070 23 563
f 566 223 1071
f 1071 223 567
f 567 224 1071
f 1071 224 568
f 110 521 568
f 568 521 1071
f 521 44 1071
f 1071 44 566
f 116 522 533
f 533 522 1072
f 522 110 1072
f 1072 110 568
f 224 569 568
f 568 569 1072
f 569 233 1072
f 1072 233 533
f 125 524 526
f 526 524 1073
f 524 119 1073
f 1073 119 531
f 235 570 531
f 531 570 1073
f 570 238 1073
f 1073 238 526
f 124 572 571
f 571 572 1074
f 572 121 1074
f 1074 121 527
f 237 525 527
f 527 525 1074
f 525 238 1074
f 1074 238 571
f 247 574 573
f 573 574 1075
f 574 118 1075
f 1075 118 528
f 528 121 1075
f 1075 121 575
f 236 573 575
f 575 573 1075
f 529 118 1076
f 1076 118 576
f 576 120 1076
f 1076 120 577
f 577 235 1076
f 1076 235 530
f 234 529 530
f 530 529 1076
f 44 536 566
f 566 536 1077
f 112 532 536
f 536 532 1077
f 532 226 1077
f 1077 226 578
f 223 566 578
f 578 566 1077
f 226 534 579
f 579 534 1078
f 534 233 1078
f 1078 233 580
f 103 581 580
f 580 581 1078
f 581 102 1078
f 1078 102 579
f 537 148 1079
f 1079 148 563
f 563 23 1079
f 1079 23 582
f 582 25 1079
f 1079 25 538
f 166 537 538
f 538 537 1079
f 147 584 583
f 583 584 1080
f 157 585 584
f 584 585 1080
f 585 34 1080
f 1080 34 539
f 539 25 1080
f 1080 25 583
f 540 34 1081
f 1081 34 586
f 26 564 586
f 586 564 1081
f 564 149 1081
f 1081 149 541
f 162 540 541
f 541 540 1081
f 587 59 1082
f 1082 59 544
f 544 56 1082
f 1082 56 548
f 548 173 1082
f 1082 173 588
f 178 587 588
f 588 587 1082
f 177 590 589
f 589 590 1083
f 590 172 1083
f 1083 172 546
f 1083 546 558
f 546 57 558
f 558 60 1083
f 60 589 1083
f 55 592 591
f 591 592 1084
f 592 54 1084
f 1084 54 593
f 173 547 593
f 593 547 1084
f 547 172 1084
f 1084 172 591
f 549 37 1085
f 1085 37 562
f 39 554 562
f 562 554 1085
f 554 163 1085
f 1085 163 594
f 164 549 594
f 594 549 1085
f 165 550 551
f 551 550 1086
f 164 595 550
f 550 595 1086
f 595 41 1086
f 1086 41 596
f 596 42 1086
f 1086 42 551
f 597 197 1087
f 1087 197 598
f 195 599 598
f 598 599 1087
f 599 82 1087
f 1087 82 552
f 552 42 1087
f 1087 42 597
f 211 553 556
f 556 553 1088
f 553 82 1088
f 1088 82 600
f 40 601 600
f 600 601 1088
f 601 163 1088
f 1088 163 556
f 589 60 1089
f 1089 60 559
f 59 587 559
f 559 587 1089
f 587 178 1089
f 1089 178 602
f 177 589 602
f 602 589 1089
f 23 565 603
f 603 565 1090
f 565 26 1090
f 1090 26 604
f 150 605 604
f 604 605 1090
f 605 146 1090
f 1090 146 603
f 606 109 1091
f 1091 109 607
f 111 608 607
f 607 608 1091
f 224 567 608
f 608 567 1091
f 223 606 567
f 567 606 1091
f 569 224 1092
f 1092 224 608
f 111 609 608
f 608 609 1092
f 609 103 1092
f 1092 103 580
f 233 569 580
f 580 569 1092
f 570 235 1093
f 1093 235 577
f 120 610 577
f 577 610 1093
f 610 124 1093
f 1093 124 571
f 238 570 571
f 571 570 1093
f 121 572 575
f 575 572 1094
f 572 124 1094
f 1094 124 611
f 239 612 611
f 611 612 1094
f 612 236 1094
f 1094 236 575
f 122 614 613
f 613 614 1095
f 129 615 614
f 614 615 1095
f 615 247 1095
f 1095 247 573
f 573 236 1095
f 1095 236 613
f 118 574 576
f 576 574 1096
f 574 247 1096
f 1096 247 616
f 240 617 616
f 616 617 1096
f 120 576 617
f 617 576 1096
f 109 606 618
f 618 606 1097
f 606 223 1097
f 1097 223 578
f 578 226 1097
f 1097 226 579
f 579 102 1097
f 1097 102 618
f 102 581 619
f 619 581 1098
f 581 103 1098
f 1098 103 620
f 215 621 620
f 620 621 1098
f 621 214 1098
f 1098 214 619
f 603 146 1099
f 1099 146 622
f 622 147 1099
f 1099 147 583
f 25 582 583
f 583 582 1099
f 23 603 582
f 582 603 1099
f 21 624 623
f 623 624 1100
f 624 22 1100
f 1100 22 625
f 625 157 1100
f 1100 157 584
f 584 147 1100
f 1100 147 623
f 604 26 1101
f 1101 26 586
f 34 585 586
f 586 585 1101
f 585 157 1101
f 1101 157 626
f 150 604 626
f 626 604 1101
f 62 628 627
f 627 628 1102
f 628 178 1102
f 1102 178 588
f 173 593 588
f 588 593 1102
f 593 54 1102
f 1102 54 627
f 61 630 629
f 629 630 1103
f 630 55 1103
f 1103 55 591
f 172 590 591
f 591 590 1103
f 590 177 1103
f 1103 177 629
f 171 632 631
f 631 632 1104
f 170 633 632
f 632 633 1104
f 633 54 1104
f 1104 54 592
f 592 55 1104
f 1104 55 631
f 595 164 1105
f 1105 164 594
f 163 601 594
f 594 601 1105
f 601 40 1105
f 1105 40 634
f 41 595 634
f 634 595 1105
f 635 197 1106
f 1106 197 597
f 42 596 597
f 597 596 1106
f 41 636 596
f 596 636 1106
f 207 635 636
f 636 635 1106
f 81 638 637
f 637 638 1107
f 80 639 638
f 638 639 1107
f 639 195 1107
f 1107 195 598
f 197 637 598
f 598 637 1107
f 640 40 1108
f 1108 40 600
f 82 599 600
f 600 599 1108
f 599 195 1108
f 1108 195 641
f 196 640 641
f 641 640 1108
f 629 177 1109
f 1109 177 602
f 178 628 602
f 602 628 1109
f 628 62 1109
f 1109 62 642
f 61 629 642
f 642 629 1109
f 146 605 643
f 643 605 1110
f 150 644 605
f 605 644 1110
f 29 645 644
f 644 645 1110
f 24 643 645
f 645 643 1110
f 646 222 1111
f 1111 222 647
f 225 648 647
f 647 648 1111
f 648 111 1111
f 1111 111 607
f 109 646 607
f 607 646 1111
f 103 609 620
f 620 609 1112
f 609 111 1112
f 1112 111 648
f 648 225 1112
f 1112 225 649
f 649 215 1112
f 1112 215 620
f 124 610 611
f 611 610 1113
f 610 120 1113
f 1113 120 617
f 240 650 617
f 617 650 1113
f 650 239 1113
f 1113 239 611
f 651 122 1114
f 1114 122 613
f 236 612 613
f 613 612 1114
f 612 239 1114
f 1114 239 652
f 126 651 652
f 652 651 1114
f 129 614 653
f 653 614 1115
f 122 654 614
f 614 654 1115
f 654 135 1115
f 1115 135 655
f 655 131 1115
f 1115 131 653
f 615 129 1116
f 1116 129 656
f 127 657 656
f 656 657 1116
f 657 240 1116
f 1116 240 616
f 247 615 616
f 616 615 1116
f 646 109 1117
f 1117 109 618
f 102 619 618
f 618 619 1117
f 619 214 1117
f 1117 214 658
f 222 646 658
f 658 646 1117
f 214 621 659
f 659 621 1118
f 621 215 1118
f 1118 215 660
f 101 661 660
f 660 661 1118
f 661 100 1118
f 1118 100 659
f 643 24 1119
f 1119 24 662
f 662 21 1119
f 1119 21 623
f 147 622 623
f 623 622 1119
f 622 146 1119
f 1119 146 643
f 144 664 663
f 663 664 1120
f 664 145 1120
f 1120 145 665
f 22 624 665
f 665 624 1120
f 624 21 1120
f 1120 21 663
f 29 644 666
f 666 644 1121
f 644 150 1121
f 1121 150 626
f 157 625 626
f 626 625 1121
f 625 22 1121
f 1121 22 666
f 633 170 1122
f 1122 170 667
f 179 668 667
f 667 668 1122
f 668 62 1122
f 1122 62 627
f 54 633 627
f 627 633 1122
f 55 630 631
f 631 630 1123
f 630 61 1123
f 1123 61 669
f 180 670 669
f 669 670 1123
f 670 171 1123
f 1123 171 631
f 53 672 671
f 671 672 1124
f 52 673 672
f 672 673 1124
f 673 170 1124
f 1124 170 632
f 632 171 1124
f 1124 171 671
f 636 41 1125
f 1125 41 634
f 40 640 634
f 634 640 1125
f 640 196 1125
f 1125 196 674
f 207 636 674
f 674 636 1125
f 84 676 675
f 675 676 1126
f 676 81 1126
f 1126 81 637
f 197 635 637
f 637 635 1126
f 635 207 1126
f 1126 207 675
f 194 678 677
f 677 678 1127
f 678 193 1127
f 1127 193 679
f 80 638 679
f 679 638 1127
f 638 81 1127
f 1127 81 677
f 195 639 641
f 641 639 1128
f 639 80 1128
f 1128 80 680
f 83 681 680
f 680 681 1128
f 681 196 1128
f 1128 196 641
f 669 61 1129
f 1129 61 642
f 62 668 642
f 642 668 1129
f 668 179 1129
f 1129 179 682
f 180 669 682
f 682 669 1129
f 24 645 683
f 683 645 1130
f 29 684 645
f 645 684 1130
f 151 685 684
f 684 685 1130
f 152 683 685
f 685 683 1130
f 107 687 686
f 686 687 1131
f 104 688 687
f 687 688 1131
f 688 225 1131
f 1131 225 647
f 647 222 1131
f 1131 222 686
f 689 101 1132
f 1132 101 660
f 215 649 660
f 660 649 1132
f 225 688 649
f 649 688 1132
f 688 104 1132
f 1132 104 689
f 650 240 1133
f 1133 240 657
f 657 127 1133
f 1133 127 690
f 690 126 1133
f 1133 126 652
f 239 650 652
f 652 650 1133
f 246 692 691
f 691 692 1134
f 244 693 692
f 692 693 1134
f 122 651 693
f 693 651 1134
f 651 126 1134
f 1134 126 691
f 694 129 1135
f 1135 129 653
f 131 695 653
f 653 695 1135
f 695 243 1135
f 1135 243 696
f 242 694 696
f 696 694 1135
f 135 654 697
f 697 654 1136
f 654 122 1136
f 1136 122 693
f 244 698 693
f 693 698 1136
f 698 245 1136
f 1136 245 697
f 245 699 697
f 697 699 1137
f 243 695 699
f 699 695 1137
f 695 131 1137
f 1137 131 655
f 655 135 1137
f 1137 135 697
f 700 127 1138
f 1138 127 656
f 129 694 656
f 656 694 1138
f 694 242 1138
f 1138 242 701
f 241 700 701
f 701 700 1138
f 686 222 1139
f 1139 222 658
f 214 659 658
f 658 659 1139
f 659 100 1139
f 1139 100 702
f 107 686 702
f 702 686 1139
f 100 661 703
f 703 661 1140
f 661 101 1140
f 1140 101 704
f 213 705 704
f 704 705 1140
f 705 212 1140
f 1140 212 703
f 24 706 662
f 662 706 1141
f 706 158 1141
f 1141 158 707
f 144 663 707
f 707 663 1141
f 21 662 663
f 663 662 1141
f 17 709 708
f 708 709 1142
f 709 19 1142
f 1142 19 710
f 145 664 710
f 710 664 1142
f 664 144 1142
f 1142 144 708
f 29 666 711
f 711 666 1143
f 22 665 666
f 666 665 1143
f 145 712 665
f 665 712 1143
f 153 711 712
f 712 711 1143
f 673 52 1144
f 1144 52 713
f 63 714 713
f 713 714 1144
f 714 179 1144
f 1144 179 667
f 170 673 667
f 667 673 1144
f 670 180 1145
f 1145 180 715
f 64 716 715
f 715 716 1145
f 716 53 1145
f 1145 53 671
f 171 670 671
f 671 670 1145
f 168 718 717
f 717 718 1146
f 169 719 718
f 718 719 1146
f 719 52 1146
f 1146 52 672
f 672 53 1146
f 1146 53 717
f 675 207 1147
f 1147 207 674
f 196 681 674
f 674 681 1147
f 681 83 1147
f 1147 83 720
f 84 675 720
f 720 675 1147
f 198 722 721
f 721 722 1148
f 722 194 1148
f 1148 194 677
f 81 676 677
f 677 676 1148
f 84 721 676
f 676 721 1148
f 78 724 723
f 723 724 1149
f 724 77 1149
f 1149 77 725
f 193 678 725
f 725 678 1149
f 678 194 1149
f 1149 194 723
f 201 727 726
f 726 727 1150
f 727 83 1150
f 1150 83 680
f 80 679 680
f 680 679 1150
f 193 726 679
f 679 726 1150
f 180 682 715
f 715 682 1151
f 179 714 682
f 682 714 1151
f 714 63 1151
f 1151 63 728
f 64 715 728
f 728 715 1151
f 24 683 706
f 706 683 1152
f 683 152 1152
f 1152 152 729
f 161 730 729
f 729 730 1152
f 158 706 730
f 730 706 1152
f 711 153 1153
f 1153 153 731
f 156 732 731
f 731 732 1153
f 732 151 1153
f 1153 151 684
f 29 711 684
f 684 711 1153
f 733 152 1154
f 1154 152 685
f 685 151 1154
f 1154 151 734
f 30 735 734
f 734 735 1154
f 735 31 1154
f 1154 31 733
f 736 221 1155
f 1155 221 737
f 219 738 737
f 737 738 1155
f 738 104 1155
f 1155 104 687
f 107 736 687
f 687 736 1155
f 101 689 704
f 704 689 1156
f 104 739 689
f 689 739 1156
f 739 216 1156
f 1156 216 740
f 740 213 1156
f 1156 213 704
f 126 690 691
f 691 690 1157
f 690 127 1157
f 1157 127 700
f 241 741 700
f 700 741 1157
f 741 246 1157
f 1157 246 691
f 742 136 1158
f 1158 136 743
f 134 744 743
f 743 744 1158
f 744 244 1158
f 1158 244 692
f 246 742 692
f 692 742 1158
f 745 242 1159
f 1159 242 696
f 243 746 696
f 696 746 1159
f 132 747 746
f 746 747 1159
f 747 130 1159
f 1159 130 745
f 244 744 698
f 698 744 1160
f 744 134 1160
f 1160 134 748
f 133 749 748
f 748 749 1160
f 245 698 749
f 749 698 1160
f 749 133 1161
f 1161 133 750
f 750 132 1161
f 1161 132 746
f 746 243 1161
f 1161 243 699
f 699 245 1161
f 1161 245 749
f 701 242 1162
f 1162 242 745
f 130 751 745
f 745 751 1162
f 751 128 1162
f 1162 128 752
f 241 701 752
f 752 701 1162
f 107 702 753
f 753 702 1163
f 702 100 1163
f 1163 100 703
f 703 212 1163
f 1163 212 754
f 754 228 1163
f 1163 228 753
f 212 705 755
f 755 705 1164
f 705 213 1164
f 1164 213 756
f 98 757 756
f 756 757 1164
f 757 95 1164
f 1164 95 755
f 758 18 1165
f 1165 18 759
f 17 708 759
f 759 708 1165
f 708 144 1165
f 1165 144 707
f 158 758 707
f 707 758 1165
f 19 709 760
f 760 709 1166
f 709 17 1166
f 1166 17 761
f 16 762 761
f 761 762 1166
f 762 20 1166
f 1166 20 760
f 712 145 1167
f 1167 145 710
f 19 763 710
f 710 763 1167
f 763 32 1167
f 1167 32 764
f 153 712 764
f 764 712 1167
f 765 189 1168
f 1168 189 766
f 63 713 766
f 766 713 1168
f 52 719 713
f 713 719 1168
f 719 169 1168
f 1168 169 765
f 64 767 716
f 716 767 1169
f 767 181 1169
f 1169 181 768
f 168 717 768
f 768 717 1169
f 717 53 1169
f 1169 53 716
f 769 50 1170
f 1170 50 770
f 770 49 1170
f 1170 49 771
f 771 169 1170
f 1170 169 718
f 168 769 718
f 718 769 1170
f 84 720 772
f 772 720 1171
f 83 773 720
f 720 773 1171
f 773 199 1171
f 1171 199 774
f 200 772 774
f 774 772 1171
f 775 198 1172
f 1172 198 721
f 84 772 721
f 721 772 1172
f 772 200 1172
f 1172 200 776
f 209 775 776
f 776 775 1172
f 85 778 777
f 777 778 1173
f 778 78 1173
f 1173 78 723
f 194 722 723
f 723 722 1173
f 722 198 1173
f 1173 198 777
f 77 724 779
f 779 724 1174
f 724 78 1174
f 1174 78 780
f 79 781 780
f 780 781 1174
f 781 75 1174
f 1174 75 779
f 725 77 1175
f 1175 77 782
f 76 783 782
f 782 783 1175
f 783 201 1175
f 1175 201 726
f 726 193 1175
f 1175 193 725
f 204 785 784
f 784 785 1176
f 785 199 1176
f 1176 199 773
f 83 727 773
f 773 727 1176
f 727 201 1176
f 1176 201 784
f 64 728 786
f 786 728 1177
f 63 787 728
f 728 787 1177
f 787 186 1177
f 1177 186 788
f 184 786 788
f 788 786 1177
f 152 733 729
f 729 733 1178
f 733 31 1178
f 1178 31 789
f 159 790 789
f 789 790 1178
f 790 161 1178
f 1178 161 729
f 758 158 1179
f 1179 158 730
f 161 791 730
f 730 791 1179
f 791 160 1179
f 1179 160 792
f 18 758 792
f 792 758 1179
f 32 793 764
f 764 793 1180
f 154 794 793
f 793 794 1180
f 794 156 1180
f 1180 156 731
f 153 764 731
f 731 764 1180
f 732 156 1181
f 1181 156 795
f 155 796 795
f 795 796 1181
f 796 30 1181
f 1181 30 734
f 151 732 734
f 734 732 1181
f 789 31 1182
f 1182 31 735
f 735 30 1182
f 1182 30 796
f 796 155 1182
f 1182 155 797
f 159 789 797
f 797 789 1182
f 798 221 1183
f 1183 221 736
f 736 107 1183
f 1183 107 753
f 228 799 753
f 753 799 1183
f 799 230 1183
f 1183 230 798
f 800 108 1184
f 1184 108 801
f 801 105 1184
f 1184 105 802
f 802 219 1184
f 1184 219 737
f 221 800 737
f 737 800 1184
f 220 804 803
f 803 804 1185
f 804 216 1185
f 1185 216 739
f 104 738 739
f 739 738 1185
f 738 219 1185
f 1185 219 803
f 805 98 1186
f 1186 98 756
f 756 213 1186
f 1186 213 740
f 216 806 740
f 740 806 1186
f 806 99 1186
f 1186 99 805
f 807 136 1187
f 1187 136 742
f 246 741 742
f 742 741 1187
f 241 752 741
f 741 752 1187
f 752 128 1187
f 1187 128 807
f 743 136 1188
f 1188 136 807
f 128 751 807
f 807 751 1188
f 751 130 1188
f 1188 130 808
f 808 134 1188
f 1188 134 743
f 747 132 1189
f 1189 132 750
f 750 133 1189
f 1189 133 748
f 134 808 748
f 748 808 1189
f 130 747 808
f 808 747 1189
f 94 810 809
f 809 810 1190
f 228 754 810
f 810 754 1190
f 212 755 754
f 754 755 1190
f 755 95 1190
f 1190 95 809
f 96 812 811
f 811 812 1191
f 92 813 812
f 812 813 1191
f 95 757 813
f 813 757 1191
f 757 98 1191
f 1191 98 811
f 814 16 1192
f 1192 16 761
f 17 759 761
f 761 759 1192
f 18 815 759
f 759 815 1192
f 815 15 1192
f 1192 15 814
f 763 19 1193
f 1193 19 760
f 20 816 760
f 760 816 1193
f 816 14 1193
f 1193 14 817
f 32 763 817
f 817 763 1193
f 262 819 818
f 818 819 1194
f 263 820 819
f 819 820 1194
f 820 20 1194
f 1194 20 762
f 762 16 1194
f 1194 16 818
f 771 49 1195
f 1195 49 821
f 48 822 821
f 821 822 1195
f 822 189 1195
f 1195 189 765
f 169 771 765
f 765 771 1195
f 190 824 823
f 823 824 1196
f 824 186 1196
f 1196 186 787
f 787 63 1196
f 1196 63 766
f 189 823 766
f 766 823 1196
f 185 826 825
f 825 826 1197
f 181 767 826
f 826 767 1197
f 64 786 767
f 767 786 1197
f 786 184 1197
f 1197 184 825
f 827 65 1198
f 1198 65 828
f 50 769 828
f 828 769 1198
f 769 168 1198
f 1198 168 768
f 181 827 768
f 768 827 1198
f 49 770 829
f 829 770 1199
f 770 50 1199
f 1199 50 830
f 51 831 830
f 830 831 1199
f 831 46 1199
f 1199 46 829
f 832 200 1200
f 1200 200 774
f 199 833 774
f 774 833 1200
f 833 86 1200
f 1200 86 834
f 834 87 1200
f 1200 87 832
f 85 777 835
f 835 777 1201
f 777 198 1201
f 1201 198 775
f 209 836 775
f 775 836 1201
f 836 208 1201
f 1201 208 835
f 837 209 1202
f 1202 209 776
f 200 832 776
f 776 832 1202
f 832 87 1202
f 1202 87 838
f 205 837 838
f 838 837 1202
f 778 85 1203
f 1203 85 839
f 74 840 839
f 839 840 1203
f 840 79 1203
f 1203 79 780
f 78 778 780
f 780 778 1203
f 841 73 1204
f 1204 73 842
f 842 76 1204
f 1204 76 782
f 77 779 782
f 782 779 1204
f 75 841 779
f 779 841 1204
f 264 844 843
f 843 844 1205
f 265 845 844
f 844 845 1205
f 75 781 845
f 845 781 1205
f 781 79 1205
f 1205 79 843
f 202 847 846
f 846 847 1206
f 847 204 1206
f 1206 204 784
f 201 783 784
f 784 783 1206
f 783 76 1206
f 1206 76 846
f 203 849 848
f 848 849 1207
f 849 86 1207
f 1207 86 833
f 199 785 833
f 833 785 1207
f 785 204 1207
f 1207 204 848
f 850 184 1208
f 1208 184 788
f 186 851 788
f 788 851 1208
f 851 68 1208
f 1208 68 852
f 852 66 1208
f 1208 66 850
f 161 790 791
f 791 790 1209
f 790 159 1209
f 1209 159 853
f 35 854 853
f 853 854 1209
f 854 160 1209
f 1209 160 791
f 855 167 1210
f 1210 167 856
f 15 815 856
f 856 815 1210
f 815 18 1210
f 1210 18 792
f 160 855 792
f 792 855 1210
f 14 857 817
f 817 857 1211
f 857 143 1211
f 1211 143 858
f 858 154 1211
f 1211 154 793
f 793 32 1211
f 1211 32 817
f 794 154 1212
f 1212 154 859
f 33 860 859
f 859 860 1212
f 860 155 1212
f 1212 155 795
f 156 794 795
f 795 794 1212
f 853 159 1213
f 1213 159 797
f 155 860 797
f 797 860 1213
f 860 33 1213
f 1213 33 861
f 861 35 1213
f 1213 35 853
f 862 108 1214
f 1214 108 800
f 221 798 800
f 800 798 1214
f 230 863 798
f 798 863 1214
f 863 227 1214
f 1214 227 862
f 864 230 1215
f 1215 230 799
f 799 228 1215
f 1215 228 810
f 810 94 1215
f 1215 94 865
f 229 864 865
f 865 864 1215
f 227 866 862
f 862 866 1216
f 866 217 1216
f 1216 217 867
f 867 105 1216
f 1216 105 801
f 801 108 1216
f 1216 108 862
f 217 868 867
f 867 868 1217
f 868 220 1217
f 1217 220 803
f 219 802 803
f 803 802 1217
f 802 105 1217
f 1217 105 867
f 218 870 869
f 869 870 1218
f 99 806 870
f 870 806 1218
f 216 804 806
f 806 804 1218
f 804 220 1218
f 1218 220 869
f 99 871 805
f 805 871 1219
f 97 872 871
f 871 872 1219
f 872 96 1219
f 1219 96 811
f 98 805 811
f 811 805 1219
f 93 874 873
f 873 874 1220
f 874 94 1220
f 1220 94 809
f 95 813 809
f 809 813 1220
f 813 92 1220
f 1220 92 873
f 875 92 1221
f 1221 92 812
f 96 876 812
f 812 876 1221
f 876 260 1221
f 1221 260 877
f 261 875 877
f 877 875 1221
f 878 262 1222
f 1222 262 818
f 16 814 818
f 818 814 1222
f 15 878 814
f 814 878 1222
f 14 816 879
f 879 816 1223
f 816 20 1223
f 1223 20 820
f 820 263 1223
f 1223 263 879
f 45 881 880
f 880 881 1224
f 881 13 1224
f 1224 13 882
f 263 819 882
f 882 819 1224
f 819 262 1224
f 1224 262 880
f 47 884 883
f 883 884 1225
f 884 48 1225
f 1225 48 821
f 821 49 1225
f 1225 49 829
f 46 883 829
f 829 883 1225
f 187 886 885
f 885 886 1226
f 886 190 1226
f 1226 190 823
f 189 822 823
f 823 822 1226
f 822 48 1226
f 1226 48 885
f 188 888 887
f 887 888 1227
f 888 68 1227
f 1227 68 851
f 186 824 851
f 851 824 1227
f 824 190 1227
f 1227 190 887
f 182 890 889
f 889 890 1228
f 890 185 1228
f 1228 185 825
f 184 850 825
f 825 850 1228
f 850 66 1228
f 1228 66 889
f 891 183 1229
f 1229 183 892
f 65 827 892
f 892 827 1229
f 827 181 1229
f 1229 181 826
f 826 185 1229
f 1229 185 891
f 65 893 828
f 828 893 1230
f 71 894 893
f 893 894 1230
f 51 830 894
f 894 830 1230
f 830 50 1230
f 1230 50 828
f 266 896 895
f 895 896 1231
f 896 267 1231
f 1231 267 897
f 46 831 897
f 897 831 1231
f 831 51 1231
f 1231 51 895
f 838 87 1232
f 1232 87 834
f 834 86 1232
f 1232 86 849
f 849 203 1232
f 1232 203 898
f 898 205 1232
f 1232 205 838
f 74 839 899
f 899 839 1233
f 839 85 1233
f 1233 85 835
f 208 900 835
f 835 900 1233
f 900 210 1233
f 1233 210 899
f 208 836 901
f 901 836 1234
f 836 209 1234
f 1234 209 837
f 837 205 1234
f 1234 205 902
f 902 89 1234
f 1234 89 901
f 903 264 1235
f 1235 264 843
f 79 840 843
f 843 840 1235
f 840 74 1235
f 1235 74 903
f 845 265 1236
f 1236 265 904
f 73 841 904
f 904 841 1236
f 75 845 841
f 841 845 1236
f 202 846 905
f 905 846 1237
f 76 842 846
f 846 842 1237
f 73 906 842
f 842 906 1237
f 906 206 1237
f 1237 206 905
f 91 908 907
f 907 908 1238
f 908 90 1238
f 1238 90 909
f 265 844 909
f 909 844 1238
f 844 264 1238
f 1238 264 907
f 88 911 910
f 910 911 1239
f 911 203 1239
f 1239 203 848
f 204 847 848
f 848 847 1239
f 847 202 1239
f 1239 202 910
f 889 66 1240
f 1240 66 852
f 852 68 1240
f 1240 68 888
f 188 912 888
f 888 912 1240
f 912 182 1240
f 1240 182 889
f 854 35 1241
f 1241 35 913
f 45 914 913
f 913 914 1241
f 914 167 1241
f 1241 167 855
f 855 160 1241
f 1241 160 854
f 262 878 880
f 880 878 1242
f 878 15 1242
f 1242 15 856
f 856 167 1242
f 1242 167 914
f 914 45 1242
f 1242 45 880
f 14 879 857
f 857 879 1243
f 879 263 1243
f 1243 263 882
f 13 915 882
f 882 915 1243
f 915 143 1243
f 1243 143 857
f 13 916 915
f 915 916 1244
f 916 33 1244
f 1244 33 859
f 154 858 859
f 859 858 1244
f 858 143 1244
f 1244 143 915
f 916 13 1245
f 1245 13 881
f 881 45 1245
f 1245 45 913
f 35 861 913
f 913 861 1245
f 33 916 861
f 861 916 1245
f 227 863 917
f 917 863 1246
f 863 230 1246
f 1246 230 864
f 864 229 1246
f 1246 229 918
f 113 917 918
f 918 917 1246
f 94 874 865
f 865 874 1247
f 874 93 1247
f 1247 93 919
f 231 920 919
f 919 920 1247
f 920 229 1247
f 1247 229 865
f 113 921 917
f 917 921 1248
f 921 106 1248
f 1248 106 922
f 217 866 922
f 922 866 1248
f 866 227 1248
f 1248 227 917
f 106 923 922
f 922 923 1249
f 923 218 1249
f 1249 218 869
f 220 868 869
f 869 868 1249
f 868 217 1249
f 1249 217 922
f 97 871 924
f 924 871 1250
f 99 870 871
f 871 870 1250
f 870 218 1250
f 1250 218 925
f 232 924 925
f 925 924 1250
f 926 260 1251
f 1251 260 876
f 876 96 1251
f 1251 96 872
f 872 97 1251
f 1251 97 926
f 875 261 1252
f 1252 261 927
f 927 93 1252
f 1252 93 873
f 92 875 873
f 873 875 1252
f 928 261 1253
f 1253 261 877
f 260 929 877
f 877 929 1253
f 929 115 1253
f 1253 115 930
f 114 928 930
f 930 928 1253
f 897 267 1254
f 1254 267 931
f 931 47 1254
f 1254 47 883
f 883 46 1254
f 1254 46 897
f 48 884 885
f 885 884 1255
f 884 47 1255
f 1255 47 932
f 191 933 932
f 932 933 1255
f 933 187 1255
f 1255 187 885
f 934 69 1256
f 1256 69 935
f 935 188 1256
f 1256 188 887
f 190 886 887
f 887 886 1256
f 886 187 1256
f 1256 187 934
f 67 937 936
f 936 937 1257
f 937 183 1257
f 1257 183 891
f 185 890 891
f 891 890 1257
f 890 182 1257
f 1257 182 936
f 938 71 1258
f 1258 71 893
f 893 65 1258
f 1258 65 892
f 183 939 892
f 892 939 1258
f 192 938 939
f 939 938 1258
f 940 266 1259
f 1259 266 895
f 51 894 895
f 895 894 1259
f 894 71 1259
f 1259 71 940
f 941 72 1260
f 1260 72 942
f 70 943 942
f 942 943 1260
f 943 267 1260
f 1260 267 896
f 266 941 896
f 896 941 1260
f 205 898 902
f 902 898 1261
f 203 911 898
f 898 911 1261
f 88 944 911
f 911 944 1261
f 944 89 1261
f 1261 89 902
f 264 903 907
f 907 903 1262
f 903 74 1262
f 1262 74 899
f 899 210 1262
f 1262 210 945
f 91 907 945
f 945 907 1262
f 900 208 1263
f 1263 208 901
f 89 946 901
f 901 946 1263
f 946 91 1263
f 1263 91 945
f 210 900 945
f 945 900 1263
f 265 909 904
f 904 909 1264
f 90 947 909
f 909 947 1264
f 947 206 1264
f 1264 206 906
f 906 73 1264
f 1264 73 904
f 947 90 1265
f 1265 90 948
f 88 910 948
f 948 910 1265
f 910 202 1265
f 1265 202 905
f 206 947 905
f 905 947 1265
f 944 88 1266
f 1266 88 948
f 948 90 1266
f 1266 90 908
f 91 946 908
f 908 946 1266
f 89 944 946
f 946 944 1266
f 182 912 936
f 936 912 1267
f 912 188 1267
f 1267 188 935
f 69 949 935
f 935 949 1267
f 949 67 1267
f 1267 67 936
f 920 231 1268
f 1268 231 950
f 114 951 950
f 950 951 1268
f 951 113 1268
f 1268 113 918
f 229 920 918
f 918 920 1268
f 927 261 1269
f 1269 261 928
f 114 950 928
f 928 950 1269
f 950 231 1269
f 1269 231 919
f 93 927 919
f 919 927 1269
f 930 115 1270
f 1270 115 952
f 106 921 952
f 952 921 1270
f 113 951 921
f 921 951 1270
f 951 114 1270
f 1270 114 930
f 115 953 952
f 952 953 1271
f 953 232 1271
f 1271 232 925
f 218 923 925
f 925 923 1271
f 923 106 1271
f 1271 106 952
f 929 260 1272
f 1272 260 926
f 97 924 926
f 926 924 1272
f 924 232 1272
f 1272 232 953
f 115 929 953
f 953 929 1272
f 267 943 931
f 931 943 1273
f 943 70 1273
f 1273 70 954
f 954 191 1273
f 1273 191 932
f 47 931 932
f 932 931 1273
f 187 933 934
f 934 933 1274
f 933 191 1274
f 1274 191 954
f 70 955 954
f 954 955 1274
f 955 69 1274
f 1274 69 934
f 192 939 956
f 956 939 1275
f 183 937 939
f 939 937 1275
f 937 67 1275
f 1275 67 957
f 957 72 1275
f 1275 72 956
f 941 266 1276
f 1276 266 940
f 71 938 940
f 940 938 1276
f 938 192 1276
f 1276 192 956
f 72 941 956
f 956 941 1276
f 955 70 1277
f 1277 70 942
f 72 957 942
f 942 957 1277
f 67 949 957
f 957 949 1277
f 69 955 949
f 949 955 1277

