# https://github.com/mikedh/trimesh
v 0.24939489 -0.02116366 -0.02189374
v 0.24689454 -0.00910596 -0.02365607
v 0.25400823 -0.03199753 0.00556698
v 0.24457693 -0.00076775 -0.02312428
v 0.25086761 -0.01867453 0.01733273
v 0.24251294 0.00867480 -0.02179566
v 0.24139786 0.01902174 -0.01723507
v 0.24222827 0.02453170 -0.00473028
v 0.24547744 0.02156250 0.01066589
v 0.24866420 -0.00475302 0.02023783
v 0.24729633 0.00853161 0.01879445
v 0.23393255 -0.02868855 0.01218334
v 0.23366451 -0.01711382 0.02127913
v 0.23280656 -0.00345660 0.02390289
v 0.23228931 0.01006195 0.02197281
v 0.23190129 0.02366954 0.01437786
v 0.22899634 0.02171186 -0.01547629
v 0.23046702 0.02739327 -0.00123709
v 0.22867471 0.01013643 -0.02073124
v 0.22891659 -0.00172947 -0.02090392
v 0.22952735 -0.01236105 -0.01869434
v 0.23071063 -0.02218207 -0.01249465
v 0.24719244 -0.03349812 -0.00979429
v 0.23217899 -0.03025393 -0.00220537
v 0.01187801 0.01379841 0.03404632
v 0.01872995 0.03182645 -0.02714768
v 0.00987190 -0.02467354 0.03941566
v 0.01097086 -0.03697593 0.02538872
v 0.02035692 -0.02404969 -0.02111328
v 0.02146581 0.00436172 -0.03973374
v 0.05625409 -0.01669096 0.04291451
v 0.05952132 -0.03281943 0.03027624
v 0.06731248 -0.02134369 -0.02066186
v 0.06682169 0.01167701 -0.03695571
v 0.06348020 0.03513744 -0.02885720
v 0.06053281 0.04588073 -0.00331551
v 0.05373284 0.02254651 0.03649986
v 0.10180330 -0.01263514 0.03974375
v 0.10341549 -0.02655296 0.02818435
v 0.10927063 -0.02069425 -0.01825857
v 0.11050725 0.01026982 -0.03379601
v 0.11006278 0.03210151 -0.02791291
v 0.10797048 0.04530581 -0.00589886
v 0.10200155 0.02525387 0.03490236
v 0.14455611 -0.00942952 0.03378105
v 0.14537650 -0.02145422 0.02449062
v 0.14906156 -0.01886709 -0.01407087
v 0.15033323 0.00731424 -0.02841866
v 0.15068400 0.02593781 -0.02528173
v 0.15038502 0.03982032 -0.00853047
v 0.14587742 0.02456043 0.02937615
v 0.01754615 -0.03159883 -0.00734216
v 0.06521851 -0.03127332 -0.00705528
v 0.10758948 -0.02945690 -0.00503358
v 0.14785391 -0.02575154 -0.00241843
v 0.01364622 -0.03785943 0.00766405
v 0.06244743 -0.03682099 0.01037732
v 0.10537028 -0.03206976 0.01160634
v 0.14654374 -0.02692810 0.01139656
v 0.18105257 -0.00635318 0.02959412
v 0.18177491 -0.01866785 0.02314624
v 0.18226451 -0.02547455 0.01177016
v 0.18298048 -0.02525816 -0.00093332
v 0.18348557 -0.01895011 -0.01169932
v 0.18426222 0.00411656 -0.02454334
v 0.18468302 0.01996059 -0.02370939
v 0.18479055 0.03377178 -0.01188987
v 0.18150669 0.02384111 0.02312303
v 0.01054475 -0.00561526 0.04139408
v 0.05415827 0.00295846 0.04343936
v 0.10106403 0.00608929 0.04198420
v 0.14461923 0.00697156 0.03630754
v 0.18076491 0.00846444 0.03021950
v 0.18364298 0.03507552 0.00726444
v 0.14842510 0.03811697 0.01344809
v 0.10468769 0.04028171 0.01802075
v 0.05610189 0.03870902 0.02104825
v 0.01305938 0.03357664 0.01953721
v 0.02257302 0.04127670 -0.00102884
v 0.00866497 0.03939046 -0.00202429
v 0.18406242 -0.00892770 -0.01948002
v 0.14996791 -0.00771287 -0.02294475
v 0.11026394 -0.00776916 -0.02824244
v 0.06799167 -0.00774258 -0.03120223
v 0.02184278 -0.01340853 -0.03264624
v 0.21043056 -0.00389764 0.02656403
v 0.20946950 0.01015242 0.02567032
v 0.20923829 0.02397191 0.01813382
v 0.21030009 0.03208867 0.00228950
v 0.21097630 0.02811605 -0.01404810
v 0.21096444 0.01546323 -0.02188033
v 0.21079767 0.00195803 -0.02186981
v 0.21081465 -0.00976399 -0.01801157
v 0.21139848 -0.01925630 -0.01090896
v 0.21196818 -0.02573278 -0.00054771
v 0.21192867 -0.02533635 0.01223886
v 0.21149868 -0.01663420 0.02213600
v -0.00924489 -0.03303267 -0.00872260
v 0.01559106 -0.03504574 -0.00021017
v -0.01365200 -0.03773207 0.00682819
v 0.01211867 -0.03879326 0.01644397
v -0.01592657 -0.03510350 0.02409956
v -0.00552243 -0.02613971 -0.02340099
v 0.01915842 -0.02787942 -0.01424420
v 0.04112956 -0.03673615 0.00918519
v 0.04375470 -0.03009092 -0.00742829
v 0.06382000 -0.03484092 0.00112852
v 0.01020753 -0.03221093 0.03350782
v -0.01454821 -0.02264031 0.03754160
v 0.06105351 -0.03643176 0.02045941
v 0.03789973 -0.03457212 0.02855575
v -0.00192937 -0.01525454 -0.03477857
v 0.02125666 -0.01938327 -0.02728033
v 0.04593471 -0.02064246 -0.02079633
v 0.06637001 -0.02676487 -0.01428878
v 0.08388174 -0.03480174 0.01121083
v 0.08646280 -0.03081328 -0.00631097
v 0.10647023 -0.03163830 0.00302351
v 0.00997746 -0.01542026 0.04211387
v -0.01001146 -0.00392702 0.04018685
v 0.05785134 -0.02589479 0.03819263
v 0.03419137 -0.01981179 0.04218140
v 0.10435534 -0.03037231 0.02019620
v 0.08145541 -0.02957266 0.02962211
v 0.00157312 0.00235504 -0.04048297
v 0.02183744 -0.00572556 -0.03712764
v 0.04627916 -0.00819252 -0.03160644
v 0.06790626 -0.01508924 -0.02630320
v 0.08832318 -0.02132323 -0.01996210
v 0.10852671 -0.02566325 -0.01216194
v 0.12646377 -0.02916949 0.01151174
v 0.12816942 -0.02748191 -0.00359476
v 0.14717960 -0.02715405 0.00441584
v 0.01135838 0.00411361 0.03828803
v -0.00510809 0.01516927 0.03220659
v 0.01232111 0.02361120 0.02852654
v -0.00292695 0.03318688 0.01835111
v 0.03147078 -0.00005640 0.04257423
v 0.05498961 -0.00680960 0.04446512
v 0.10255241 -0.02056082 0.03502616
v 0.07911152 -0.01449658 0.04195604
v 0.14594877 -0.02511465 0.01825410
v 0.12492514 -0.02373488 0.02620187
v 0.02052009 0.01732415 -0.03830323
v 0.00432494 0.02759929 -0.03073671
v 0.04378137 0.01056315 -0.03814054
v 0.06766641 0.00113588 -0.03498900
v 0.08922088 -0.00778687 -0.03031442
v 0.10987687 -0.01480639 -0.02359962
v 0.12964261 -0.01971312 -0.01603448
v 0.14847255 -0.02287960 -0.00858432
v 0.18259031 -0.02645526 0.00539023
v 0.16518027 -0.02584636 0.01148900
v 0.16612560 -0.02513416 -0.00161302
v 0.05367413 0.01273028 0.04068252
v 0.03028747 0.01985755 0.03577968
v 0.00842175 0.03783272 0.00883383
v 0.05451387 0.03156966 0.03006148
v 0.03150615 0.03757772 0.02186948
v 0.07780921 0.00492690 0.04327580
v 0.10127127 -0.00354390 0.04204622
v 0.14488727 -0.01610522 0.02978212
v 0.12379467 -0.01102921 0.03669631
v 0.18201977 -0.02297548 0.01785219
v 0.16429657 -0.01986794 0.02360064
v 0.01115170 0.03756163 -0.01393953
v 0.03878900 0.03542379 -0.02952617
v 0.06526190 0.02367109 -0.03552297
v 0.08893162 0.01136944 -0.03582945
v 0.11045784 0.00057217 -0.03184944
v 0.13070542 -0.00763206 -0.02544484
v 0.14953744 -0.01374443 -0.01887193
v 0.18324250 -0.02267923 -0.00666532
v 0.16701090 -0.01873281 -0.01272187
v 0.21200645 -0.02669850 0.00584015
v 0.19796246 -0.02557032 0.01217505
v 0.19833827 -0.02548637 -0.00060362
v 0.10127610 0.01582566 0.03970480
v 0.07823527 0.02428851 0.03625637
v 0.01993734 0.03956564 0.00995532
v 0.01505503 0.04008099 -0.00142983
v 0.10319722 0.03348124 0.02747011
v 0.08069849 0.03984872 0.01965868
v 0.05834883 0.04368767 0.00971791
v 0.03755987 0.04464589 -0.00190088
v 0.12354219 0.00656140 0.03948218
v 0.14445239 -0.00165617 0.03605658
v 0.18142748 -0.01297858 0.02710465
v 0.16356981 -0.00798711 0.03149030
v 0.21176225 -0.02182554 0.01787260
v 0.19750166 -0.01743083 0.02245742
v 0.02276376 0.03981445 -0.01340029
v 0.06211334 0.04331296 -0.01720658
v 0.08744705 0.03430540 -0.02862430
v 0.11039060 0.02125577 -0.03283304
v 0.13113952 0.00887999 -0.03105205
v 0.15019262 -0.00076456 -0.02627844
v 0.16788608 -0.00819737 -0.02095181
v 0.18378967 -0.01431608 -0.01594037
v 0.21175915 -0.02309146 -0.00618327
v 0.19831944 -0.01921139 -0.01109129
v 0.22315031 -0.02655813 0.01340044
v 0.22248381 -0.02780611 -0.00001985
v 0.23327869 -0.03114923 0.00501329
v 0.14507753 0.01599760 0.03413209
v 0.12472057 0.02506996 0.03249198
v 0.14705038 0.03201333 0.02225012
v 0.12741727 0.03953486 0.01604918
v 0.10637784 0.04481718 0.00691283
v 0.08448398 0.04627746 -0.00464395
v 0.16360927 0.00759837 0.03313172
v 0.18080300 0.00083286 0.03069812
v 0.21101141 -0.01051287 0.02505517
v 0.19660723 -0.00496549 0.02797389
v 0.23398304 -0.02353438 0.01779324
v 0.22324657 -0.01640546 0.02232218
v 0.10930914 0.04096440 -0.01842827
v 0.13127160 0.02927729 -0.02653050
v 0.15049899 0.01645245 -0.02836794
v 0.16824234 0.00568267 -0.02622792
v 0.18420941 -0.00281271 -0.02241087
v 0.19831133 -0.00945495 -0.01848528
v 0.21103531 -0.01475668 -0.01478782
v 0.22176576 -0.02065634 -0.01064199
v 0.23125255 -0.02677923 -0.00793618
v 0.24045342 -0.03226494 -0.00589800
v 0.24979085 -0.03441346 -0.00230265
v 0.24392539 -0.03074303 0.00932148
v 0.18098354 0.01636194 0.02783665
v 0.16486174 0.02408336 0.02611378
v 0.18252206 0.03027784 0.01613107
v 0.16723102 0.03651683 0.01012811
v 0.14961290 0.04107291 0.00273326
v 0.13006616 0.04306836 -0.00718299
v 0.20987678 0.00300232 0.02673164
v 0.19594806 0.00939059 0.02779123
v 0.23320752 -0.01035943 0.02329242
v 0.22245586 -0.00343432 0.02511075
v 0.25251049 -0.02571061 0.01293164
v 0.24283326 -0.01837272 0.01934999
v 0.15069610 0.03430570 -0.01835042
v 0.16868675 0.02274598 -0.02433074
v 0.18443519 0.01182718 -0.02523515
v 0.21074504 -0.00414879 -0.02032021
v 0.19842362 0.00287048 -0.02319366
v 0.22065669 -0.01141447 -0.01777345
v 0.23007846 -0.01745262 -0.01599067
v 0.24701333 -0.02874590 -0.01612428
v 0.23949504 -0.02260682 -0.01640812
v 0.25229275 -0.03424403 -0.01267621
v 0.25945079 -0.03459536 0.00001135
v 0.20920855 0.01737234 0.02300236
v 0.19623441 0.02387536 0.02048796
v 0.20961034 0.02913182 0.01103255
v 0.19793952 0.03368164 0.00458041
v 0.18438125 0.03630854 -0.00264794
v 0.16867918 0.03654167 -0.01029605
v 0.22176468 0.01025675 0.02367541
v 0.23250520 0.00323659 0.02322349
v 0.24968076 -0.01164405 0.01982048
v 0.24143422 -0.00432857 0.02207956
v 0.26149654 -0.02896947 0.00852832
v 0.25762135 -0.01732057 0.01621014
v 0.18489319 0.02781125 -0.01923373
v 0.19880646 0.01756848 -0.02296141
v 0.21084726 0.00855374 -0.02257162
v 0.22047597 -0.00016233 -0.02105194
v 0.22915339 -0.00709206 -0.02001470
v 0.23830336 -0.01158953 -0.02090377
v 0.24787384 -0.01442571 -0.02348447
v 0.23214161 0.01729351 0.01956290
v 0.22113150 0.02385053 0.01634374
v 0.23113567 0.02686020 0.00697634
v 0.22116268 0.02963420 0.00043729
v 0.21078330 0.03166681 -0.00658894
v 0.19885343 0.03099019 -0.01332021
v 0.24791354 0.00186050 0.01989332
v 0.24055636 0.00899805 0.02032992
v 0.25485963 -0.00406969 0.01883653
v 0.21097678 0.02216931 -0.01900032
v 0.22061718 0.01248404 -0.02104199
v 0.22871763 0.00407280 -0.02120000
v 0.24578542 -0.00486470 -0.02333358
v 0.23683625 -0.00197357 -0.02156347
v 0.24007910 0.02255756 0.01239216
v 0.24663049 0.01558012 0.01608655
v 0.24368149 0.02426659 0.00338417
v 0.23694640 0.02530470 -0.00335714
v 0.22945076 0.02563959 -0.00939810
v 0.22094733 0.02470770 -0.01456904
v 0.25281841 0.00894099 0.01735884
v 0.22876316 0.01615486 -0.01893520
v 0.24341941 0.00367837 -0.02271208
v 0.23592907 0.00875522 -0.02098286
v 0.25017673 0.02140290 0.00962934
v 0.24683571 0.02537793 -0.00528371
v 0.24150693 0.02259455 -0.01193044
v 0.23573852 0.01962992 -0.01650587
v 0.24178046 0.01395545 -0.02016366
v 0.24634206 0.02034460 -0.01750976
v -0.01155713 -0.03593506 -0.00121924
v -0.01524401 -0.03768397 0.01547840
v -0.00726748 -0.02987961 -0.01622871
v 0.04245731 -0.03398619 0.00035474
v -0.01567942 -0.03003832 0.03181365
v 0.03960207 -0.03732696 0.01889917
v -0.00371972 -0.02129260 -0.02970415
v 0.04497203 -0.02566836 -0.01442790
v 0.08518881 -0.03369957 0.00202960
v -0.01259959 -0.01362428 0.04045478
v 0.03601363 -0.02858460 0.03686148
v 0.08269578 -0.03343241 0.02067447
v -0.00022379 -0.00751066 -0.03849038
v 0.04641339 -0.01492003 -0.02651563
v 0.08749259 -0.02660330 -0.01360342
v 0.12731791 -0.02916339 0.00382259
v -0.00724331 0.00578577 0.03718311
v -0.00357884 0.02460841 0.02630267
v 0.03259829 -0.00988802 0.04375985
v 0.08021706 -0.02307516 0.03708676
v 0.12565517 -0.02741608 0.01913339
v 0.00372559 0.01465242 -0.03864354
v 0.04551560 0.00011105 -0.03580883
v 0.08891857 -0.01507486 -0.02549100
v 0.12896019 -0.02415675 -0.01023719
v 0.16559875 -0.02634428 0.00484395
v 0.03072494 0.00968185 0.03970292
v 0.03037140 0.02959841 0.03018370
v 0.07825702 -0.00487907 0.04391941
v 0.12428027 -0.01818629 0.03222999
v 0.16473776 -0.02367204 0.01788971
v 0.04116794 0.02302496 -0.03678676
v 0.08921385 0.00102921 -0.03404713
v 0.13023460 -0.01418101 -0.02104804
v 0.16660613 -0.02251797 -0.00745597
v 0.19812685 -0.02654697 0.00573757
v 0.07777387 0.01474877 0.04088154
v 0.01425439 0.03931027 0.00636590
v 0.07922274 0.03281295 0.02910897
v 0.03483710 0.04240094 0.01091564
v 0.12352479 -0.00264116 0.03920168
v 0.16389734 -0.01452440 0.02824691
v 0.19777489 -0.02221411 0.01780862
v 0.01584184 0.03913500 -0.00983962
v 0.03850335 0.04312021 -0.01611963
v 0.08835322 0.02302993 -0.03444877
v 0.13098752 -0.00001709 -0.02894935
v 0.16741627 -0.01386009 -0.01721200
v 0.19834745 -0.02288693 -0.00624672
v 0.22280711 -0.02852384 0.00680819
v 0.12391269 0.01601656 0.03728995
v 0.12593997 0.03302505 0.02521792
v 0.08256090 0.04478934 0.00835860
v 0.16348416 -0.00055058 0.03318223
v 0.19708192 -0.01154990 0.02588886
v 0.22334325 -0.02214593 0.01857761
v 0.08614743 0.04279001 -0.01800737
v 0.13124031 0.01901382 -0.03057837
v 0.16814744 -0.00173602 -0.02403107
v 0.19833016 -0.01469692 -0.01513743
v 0.22222418 -0.02481915 -0.00592098
v 0.24252522 -0.03306352 0.00164154
v 0.16399896 0.01604436 0.03078756
v 0.16602772 0.03112815 0.01913348
v 0.12889194 0.04335759 0.00505108
v 0.19619638 0.00206441 0.02861077
v 0.22289121 -0.01001389 0.02442282
v 0.24371773 -0.02518735 0.01545733
v 0.13088197 0.03788804 -0.01825601
v 0.16839528 0.01403718 -0.02659544
v 0.19832397 -0.00361591 -0.02121857
v 0.22115922 -0.01632585 -0.01454085
v 0.23954868 -0.02821775 -0.01205128
v 0.25489640 -0.03585947 -0.00582510
v 0.19596010 0.01686884 0.02519497
v 0.19698495 0.02972608 0.01343372
v 0.16816658 0.03863127 -0.00023103
v 0.22206700 0.00328301 0.02481335
v 0.24203378 -0.01132098 0.02158520
v 0.25940758 -0.02357522 0.01269668
v 0.16886336 0.03078469 -0.01867142
v 0.19859278 0.01001114 -0.02397820
v 0.22047007 -0.00589287 -0.01981118
v 0.23907131 -0.01700961 -0.01931849
v 0.22145456 0.01744975 0.02123222
v 0.22107273 0.02801288 0.00894374
v 0.19856399 0.03417459 -0.00490808
v 0.24096620 0.00233224 0.02164587
v 0.25621325 -0.01065613 0.01837549
v 0.19892055 0.02489127 -0.01938027
v 0.22051990 0.00602554 -0.02168727
v 0.23754966 -0.00673177 -0.02138966
v 0.24033016 0.01619838 0.01785591
v 0.23819292 0.02522391 0.00493428
v 0.22114229 0.02857140 -0.00757000
v 0.25373435 0.00234921 0.01840791
v 0.22074038 0.01889472 -0.01876891
v 0.23627585 0.00320292 -0.02161413
v 0.25174022 0.01572496 0.01471522
v 0.24835300 0.02472591 0.00250247
v 0.23611653 0.02344606 -0.01099819
v 0.23568314 0.01435255 -0.01949340
v 0.24618453 0.02371577 -0.01243630
f 52 99 98
f 98 99 301
f 99 56 301
f 301 56 100
f 56 101 100
f 100 101 302
f 101 28 302
f 302 28 102
f 29 104 103
f 103 104 303
f 104 52 303
f 303 52 98
f 56 99 105
f 105 99 304
f 99 52 304
f 304 52 106
f 53 107 106
f 106 107 304
f 107 57 304
f 304 57 105
f 27 109 108
f 108 109 305
f 28 108 102
f 102 108 305
f 101 56 306
f 306 56 105
f 57 110 105
f 105 110 306
f 110 32 306
f 306 32 111
f 28 101 111
f 111 101 306
f 85 113 112
f 112 113 307
f 113 29 307
f 307 29 103
f 52 104 106
f 106 104 308
f 104 29 308
f 308 29 114
f 33 115 114
f 114 115 308
f 115 53 308
f 308 53 106
f 57 107 116
f 116 107 309
f 107 53 309
f 309 53 117
f 54 118 117
f 117 118 309
f 118 58 309
f 309 58 116
f 69 120 119
f 119 120 310
f 109 27 310
f 310 27 119
f 108 28 311
f 311 28 111
f 32 121 111
f 111 121 311
f 121 31 311
f 311 31 122
f 27 108 122
f 122 108 311
f 110 57 312
f 312 57 116
f 58 123 116
f 116 123 312
f 123 39 312
f 312 39 124
f 32 110 124
f 124 110 312
f 30 126 125
f 125 126 313
f 126 85 313
f 313 85 112
f 113 85 314
f 314 85 127
f 127 84 314
f 314 84 128
f 128 33 314
f 314 33 114
f 29 113 114
f 114 113 314
f 53 115 117
f 117 115 315
f 115 33 315
f 315 33 129
f 40 130 129
f 129 130 315
f 130 54 315
f 315 54 117
f 58 118 131
f 131 118 316
f 118 54 316
f 316 54 132
f 55 133 132
f 132 133 316
f 133 59 316
f 316 59 131
f 120 69 317
f 317 69 134
f 25 135 134
f 134 135 317
f 135 25 318
f 318 25 136
f 78 137 136
f 136 137 318
f 138 69 319
f 319 69 119
f 27 122 119
f 119 122 319
f 31 139 122
f 122 139 319
f 70 138 139
f 139 138 319
f 121 32 320
f 320 32 124
f 39 140 124
f 124 140 320
f 140 38 320
f 320 38 141
f 31 121 141
f 141 121 320
f 123 58 321
f 321 58 131
f 59 142 131
f 131 142 321
f 142 46 321
f 321 46 143
f 39 123 143
f 143 123 321
f 144 30 322
f 322 30 125
f 26 144 145
f 145 144 322
f 127 85 323
f 323 85 126
f 30 146 126
f 126 146 323
f 146 34 323
f 323 34 147
f 84 127 147
f 147 127 323
f 84 148 128
f 128 148 324
f 148 83 324
f 324 83 149
f 40 129 149
f 149 129 324
f 33 128 129
f 129 128 324
f 54 130 132
f 132 130 325
f 130 40 325
f 325 40 150
f 47 151 150
f 150 151 325
f 151 55 325
f 325 55 132
f 152 62 326
f 326 62 153
f 59 133 153
f 153 133 326
f 133 55 326
f 326 55 154
f 63 152 154
f 154 152 326
f 69 138 134
f 134 138 327
f 138 70 327
f 327 70 155
f 37 156 155
f 155 156 327
f 156 25 327
f 327 25 134
f 78 157 137
f 156 37 328
f 328 37 158
f 77 159 158
f 158 159 328
f 159 78 328
f 328 78 136
f 25 156 136
f 136 156 328
f 160 70 329
f 329 70 139
f 139 31 329
f 329 31 141
f 38 161 141
f 141 161 329
f 71 160 161
f 161 160 329
f 140 39 330
f 330 39 143
f 46 162 143
f 143 162 330
f 162 45 330
f 330 45 163
f 38 140 163
f 163 140 330
f 142 59 331
f 331 59 153
f 62 164 153
f 153 164 331
f 164 61 331
f 331 61 165
f 46 142 165
f 165 142 331
f 26 145 166
f 26 167 144
f 144 167 332
f 167 35 332
f 332 35 168
f 34 146 168
f 168 146 332
f 146 30 332
f 332 30 144
f 148 84 333
f 333 84 147
f 34 169 147
f 147 169 333
f 169 41 333
f 333 41 170
f 83 148 170
f 170 148 333
f 83 171 149
f 149 171 334
f 171 82 334
f 334 82 172
f 47 150 172
f 172 150 334
f 150 40 334
f 334 40 149
f 173 63 335
f 335 63 154
f 55 151 154
f 154 151 335
f 151 47 335
f 335 47 174
f 174 64 335
f 335 64 173
f 175 96 336
f 336 96 176
f 62 152 176
f 176 152 336
f 152 63 336
f 336 63 177
f 95 175 177
f 177 175 336
f 70 160 155
f 155 160 337
f 160 71 337
f 337 71 178
f 44 179 178
f 178 179 337
f 179 37 337
f 337 37 155
f 157 78 338
f 338 78 180
f 180 79 338
f 338 79 181
f 181 80 338
f 338 80 157
f 179 44 339
f 339 44 182
f 76 183 182
f 182 183 339
f 183 77 339
f 339 77 158
f 37 179 158
f 158 179 339
f 78 159 180
f 180 159 340
f 159 77 340
f 340 77 184
f 36 185 184
f 184 185 340
f 185 79 340
f 340 79 180
f 186 71 341
f 341 71 161
f 161 38 341
f 341 38 163
f 45 187 163
f 163 187 341
f 72 186 187
f 187 186 341
f 162 46 342
f 342 46 165
f 61 188 165
f 165 188 342
f 188 60 342
f 342 60 189
f 45 162 189
f 189 162 342
f 164 62 343
f 343 62 176
f 96 190 176
f 176 190 343
f 190 97 343
f 343 97 191
f 61 164 191
f 191 164 343
f 166 80 344
f 344 80 181
f 181 79 344
f 344 79 192
f 26 166 192
f 192 166 344
f 79 185 192
f 192 185 345
f 185 36 345
f 345 36 193
f 35 167 193
f 193 167 345
f 26 192 167
f 167 192 345
f 35 194 168
f 168 194 346
f 194 42 346
f 346 42 195
f 41 169 195
f 195 169 346
f 169 34 346
f 346 34 168
f 171 83 347
f 347 83 170
f 41 196 170
f 170 196 347
f 196 48 347
f 347 48 197
f 82 171 197
f 197 171 347
f 82 198 172
f 172 198 348
f 81 199 198
f 198 199 348
f 199 64 348
f 348 64 174
f 174 47 348
f 348 47 172
f 200 95 349
f 349 95 177
f 63 173 177
f 177 173 349
f 173 64 349
f 349 64 201
f 201 94 349
f 349 94 200
f 96 175 202
f 202 175 350
f 175 95 350
f 350 95 203
f 24 204 203
f 203 204 350
f 204 12 350
f 350 12 202
f 71 186 178
f 178 186 351
f 186 72 351
f 351 72 205
f 51 206 205
f 205 206 351
f 206 44 351
f 351 44 178
f 206 51 352
f 352 51 207
f 75 208 207
f 207 208 352
f 208 76 352
f 352 76 182
f 44 206 182
f 182 206 352
f 77 183 184
f 184 183 353
f 183 76 353
f 353 76 209
f 43 210 209
f 209 210 353
f 210 36 353
f 353 36 184
f 72 187 211
f 211 187 354
f 187 45 354
f 354 45 189
f 60 212 189
f 189 212 354
f 212 73 354
f 354 73 211
f 188 61 355
f 355 61 191
f 97 213 191
f 191 213 355
f 213 86 355
f 355 86 214
f 60 188 214
f 214 188 355
f 190 96 356
f 356 96 202
f 12 215 202
f 202 215 356
f 215 13 356
f 356 13 216
f 97 190 216
f 216 190 356
f 42 194 217
f 217 194 357
f 194 35 357
f 357 35 193
f 36 210 193
f 193 210 357
f 210 43 357
f 357 43 217
f 42 218 195
f 195 218 358
f 218 49 358
f 358 49 219
f 48 196 219
f 219 196 358
f 196 41 358
f 358 41 195
f 198 82 359
f 359 82 197
f 48 220 197
f 197 220 359
f 220 65 359
f 359 65 221
f 81 198 221
f 221 198 359
f 81 222 199
f 199 222 360
f 222 93 360
f 360 93 223
f 94 201 223
f 223 201 360
f 64 199 201
f 201 199 360
f 203 95 361
f 361 95 200
f 94 224 200
f 200 224 361
f 224 22 361
f 361 22 225
f 24 203 225
f 225 203 361
f 204 24 362
f 362 24 226
f 23 227 226
f 226 227 362
f 227 3 362
f 362 3 228
f 12 204 228
f 228 204 362
f 72 211 205
f 205 211 363
f 211 73 363
f 363 73 229
f 68 230 229
f 229 230 363
f 230 51 363
f 363 51 205
f 230 68 364
f 364 68 231
f 74 232 231
f 231 232 364
f 232 75 364
f 364 75 207
f 51 230 207
f 207 230 364
f 76 208 209
f 209 208 365
f 208 75 365
f 365 75 233
f 50 234 233
f 233 234 365
f 234 43 365
f 365 43 209
f 235 87 366
f 366 87 236
f 73 212 236
f 236 212 366
f 212 60 366
f 366 60 214
f 86 235 214
f 214 235 366
f 213 97 367
f 367 97 216
f 13 237 216
f 216 237 367
f 237 14 367
f 367 14 238
f 86 213 238
f 238 213 367
f 215 12 368
f 368 12 228
f 3 239 228
f 228 239 368
f 239 5 368
f 368 5 240
f 13 215 240
f 240 215 368
f 49 218 241
f 241 218 369
f 218 42 369
f 369 42 217
f 43 234 217
f 217 234 369
f 234 50 369
f 369 50 241
f 49 242 219
f 219 242 370
f 242 66 370
f 370 66 243
f 65 220 243
f 243 220 370
f 220 48 370
f 370 48 219
f 93 222 244
f 244 222 371
f 222 81 371
f 371 81 221
f 65 245 221
f 221 245 371
f 245 92 371
f 371 92 244
f 93 246 223
f 223 246 372
f 246 21 372
f 372 21 247
f 22 224 247
f 247 224 372
f 224 94 372
f 372 94 223
f 248 23 373
f 373 23 226
f 24 225 226
f 226 225 373
f 225 22 373
f 373 22 249
f 1 248 249
f 249 248 373
f 227 23 374
f 374 23 250
f 3 227 251
f 251 227 374
f 229 73 375
f 375 73 236
f 87 252 236
f 236 252 375
f 88 253 252
f 252 253 375
f 253 68 375
f 375 68 229
f 253 88 376
f 376 88 254
f 89 255 254
f 254 255 376
f 255 74 376
f 376 74 231
f 68 253 231
f 231 253 376
f 75 232 233
f 233 232 377
f 232 74 377
f 377 74 256
f 67 257 256
f 256 257 377
f 257 50 377
f 377 50 233
f 87 235 258
f 258 235 378
f 235 86 378
f 378 86 238
f 14 259 238
f 238 259 378
f 259 15 378
f 378 15 258
f 237 13 379
f 379 13 240
f 5 260 240
f 240 260 379
f 260 10 379
f 379 10 261
f 14 237 261
f 261 237 379
f 5 239 263
f 263 239 380
f 3 262 239
f 239 262 380
f 66 242 264
f 264 242 381
f 242 49 381
f 381 49 241
f 50 257 241
f 241 257 381
f 257 67 381
f 381 67 264
f 66 265 243
f 243 265 382
f 265 91 382
f 382 91 266
f 92 245 266
f 266 245 382
f 245 65 382
f 382 65 243
f 246 93 383
f 383 93 244
f 92 267 244
f 244 267 383
f 267 20 383
f 383 20 268
f 21 246 268
f 268 246 383
f 247 21 384
f 384 21 269
f 2 270 269
f 269 270 384
f 270 1 384
f 384 1 249
f 22 247 249
f 249 247 384
f 23 248 250
f 3 251 262
f 252 87 385
f 385 87 258
f 15 271 258
f 258 271 385
f 271 16 385
f 385 16 272
f 88 252 272
f 272 252 385
f 88 272 254
f 254 272 386
f 16 273 272
f 272 273 386
f 18 274 273
f 273 274 386
f 274 89 386
f 386 89 254
f 74 255 256
f 256 255 387
f 255 89 387
f 387 89 275
f 90 276 275
f 275 276 387
f 276 67 387
f 387 67 256
f 259 14 388
f 388 14 261
f 10 277 261
f 261 277 388
f 277 11 388
f 388 11 278
f 15 259 278
f 278 259 388
f 10 260 279
f 279 260 389
f 260 5 389
f 389 5 263
f 91 265 280
f 280 265 390
f 265 66 390
f 390 66 264
f 67 276 264
f 264 276 390
f 276 90 390
f 390 90 280
f 91 281 266
f 266 281 391
f 281 19 391
f 391 19 282
f 20 267 282
f 282 267 391
f 267 92 391
f 391 92 266
f 283 2 392
f 392 2 269
f 21 268 269
f 269 268 392
f 20 284 268
f 268 284 392
f 284 4 392
f 392 4 283
f 285 16 393
f 393 16 271
f 271 15 393
f 393 15 278
f 11 286 278
f 278 286 393
f 9 285 286
f 286 285 393
f 9 287 285
f 285 287 394
f 8 288 287
f 287 288 394
f 288 18 394
f 394 18 273
f 273 16 394
f 394 16 285
f 89 274 275
f 275 274 395
f 274 18 395
f 395 18 289
f 17 290 289
f 289 290 395
f 290 90 395
f 395 90 275
f 11 277 291
f 291 277 396
f 277 10 396
f 396 10 279
f 281 91 397
f 397 91 280
f 90 290 280
f 280 290 397
f 290 17 397
f 397 17 292
f 19 281 292
f 292 281 397
f 4 284 293
f 293 284 398
f 284 20 398
f 398 20 282
f 19 294 282
f 282 294 398
f 294 6 398
f 398 6 293
f 295 9 399
f 399 9 286
f 11 291 286
f 286 291 399
f 296 8 400
f 400 8 287
f 9 295 287
f 287 295 400
f 7 298 297
f 297 298 401
f 298 17 401
f 401 17 289
f 18 288 289
f 289 288 401
f 288 8 401
f 401 8 297
f 298 7 402
f 402 7 299
f 6 294 299
f 299 294 402
f 294 19 402
f 402 19 292
f 17 298 292
f 292 298 402
f 300 7 403
f 403 7 297
f 8 296 297
f 297 296 403
f 7 300 299

