# https://github.com/mikedh/trimesh
v -0.00061967 0.07690706 -0.01459411
v -0.02777830 0.06696074 -0.01917323
v 0.02475438 0.07083624 -0.01186988
v 0.04235800 0.05459651 -0.01067662
v -0.04660250 -0.00343336 -0.02490351
v -0.02123161 -0.02937186 -0.02343711
v 0.01056752 -0.03673415 -0.01977822
v 0.03562943 -0.01908298 -0.01443818
v 0.04927816 0.00857888 -0.01150861
v 0.05207092 0.03395968 -0.01031208
v -0.05089048 0.04907556 -0.02322629
v 0.00923067 0.04729041 -0.36568096
v -0.01160050 0.04703121 -0.36379221
v 0.02394024 0.03166412 -0.36369368
v 0.03113028 0.01462783 -0.35877135
v -0.02507471 -0.00781408 -0.34150901
v -0.01499780 -0.02107634 -0.33769247
v -0.00236632 -0.02572313 -0.33740273
v 0.01037476 -0.02408053 -0.34066275
v 0.02138343 -0.01611961 -0.34622702
v 0.02840897 -0.00309017 -0.35272655
v -0.02323999 0.03040584 -0.35724887
v 0.00645508 0.08767291 -0.17179438
v 0.03886973 0.07806800 -0.16913369
v 0.05878340 0.05353225 -0.16617975
v 0.06303155 0.02558853 -0.16245005
v 0.05415467 -0.00152709 -0.15975818
v 0.03321581 -0.02265024 -0.15911373
v 0.00588985 -0.02454185 -0.16057357
v -0.01701919 -0.01255013 -0.16350171
v -0.03726771 0.00242169 -0.16719040
v -0.04637979 0.05334028 -0.17315480
v -0.02540111 0.07827650 -0.17359921
v 0.00130262 0.08521417 -0.06119356
v 0.03035746 0.07820327 -0.05800441
v 0.05093280 0.05893259 -0.05604282
v 0.05773772 0.03352274 -0.05575386
v 0.05346347 0.00632769 -0.05586025
v 0.03637568 -0.01904272 -0.05765525
v 0.00938381 -0.02829654 -0.06216964
v -0.01816659 -0.02012051 -0.06568232
v -0.04030439 0.00032547 -0.06789681
v -0.04720408 0.05166811 -0.06679115
v -0.02782089 0.07485318 -0.06469664
v 0.00810016 0.07519217 -0.22747847
v 0.03493971 0.06673867 -0.22531977
v 0.05208095 0.04535451 -0.22190300
v 0.05526526 0.02001692 -0.21777275
v 0.04689408 -0.00370221 -0.21456859
v 0.02804003 -0.02014697 -0.21281049
v 0.00495087 -0.02155695 -0.21252397
v -0.01452457 -0.01144041 -0.21457359
v -0.03171584 0.00207399 -0.21857223
v -0.03699595 0.04716547 -0.22628918
v -0.01871751 0.06744525 -0.22796616
v 0.00761679 0.06458452 -0.27988389
v 0.03028207 0.05543548 -0.27849397
v 0.04324024 0.03494414 -0.27479866
v 0.04542010 0.01271618 -0.27032325
v 0.03769144 -0.00676268 -0.26613423
v 0.02170440 -0.01833720 -0.26271620
v 0.00383579 -0.01935715 -0.26100984
v -0.01160626 -0.01191210 -0.26220128
v -0.02512243 0.00091130 -0.26579276
v -0.03051610 0.04113307 -0.27537557
v -0.01530809 0.05888666 -0.27894089
v -0.00309073 0.07404928 0.03110319
v 0.02248047 0.06615848 0.03438896
v 0.03915010 0.04925661 0.03524563
v 0.05041140 0.02933664 0.03458378
v 0.04796539 0.00401069 0.03123799
v 0.03379265 -0.02416417 0.02563208
v 0.01055221 -0.04755252 0.01841876
v -0.02602638 -0.04267208 0.01379699
v -0.05263705 -0.00995792 0.01442799
v -0.06024404 0.05018046 0.01872838
v -0.03329216 0.06798936 0.02514011
v 0.00458550 0.09173228 -0.11429796
v -0.02782685 0.08092337 -0.11698505
v -0.04857415 0.05491021 -0.11773786
v -0.03884199 0.00268422 -0.11460570
v -0.01786292 -0.01494675 -0.11237136
v 0.00744241 -0.02636971 -0.10892281
v 0.03659814 -0.02237425 -0.10583481
v 0.05772472 0.00181953 -0.10542259
v 0.06457313 0.03042424 -0.10678652
v 0.05894541 0.05897061 -0.10906187
v 0.03781823 0.08338523 -0.11134312
v 0.00745704 0.05658337 -0.32702765
v 0.02547247 0.04309542 -0.32564953
v 0.03454027 0.02341719 -0.32131365
v 0.03522312 0.00424067 -0.31601802
v 0.02835829 -0.01133511 -0.31085137
v 0.01578944 -0.01995393 -0.30613407
v 0.00161057 -0.02075103 -0.30340824
v -0.01137968 -0.01544509 -0.30371532
v -0.02205508 -0.00305133 -0.30700245
v -0.02675378 0.03543348 -0.31929913
v -0.01393071 0.05301467 -0.32492301
v -0.02827860 0.01197548 -0.34815314
v -0.02816943 0.01484080 -0.31260327
v -0.03356381 0.01909856 -0.27059582
v -0.04105153 0.02255034 -0.22269610
v -0.04929826 0.02476336 -0.17061397
v -0.05107376 0.02636176 -0.11664161
v -0.05080315 0.02534748 -0.06799850
v -0.05829727 0.02394028 -0.02513883
v -0.06819027 0.02079774 0.01484612
v 0.01066119 0.04093224 -0.38985339
v 0.02540288 0.02283029 -0.39000371
v 0.03290688 0.00204974 -0.38730803
v 0.02676836 -0.01550261 -0.38066915
v 0.01839492 -0.02898497 -0.37496081
v 0.00593850 -0.03697724 -0.36918029
v -0.00799844 -0.03936793 -0.36635247
v -0.02210819 -0.03332370 -0.36835125
v -0.03216073 -0.01611408 -0.37332347
v -0.03194740 0.00736162 -0.37927291
v -0.01980951 0.02749536 -0.38559094
v -0.00759356 0.04519759 -0.38894221
v -0.01797307 0.07177265 0.02842197
v -0.04863506 0.06129468 0.02160674
v 0.01077031 0.07210963 0.03310660
v -0.00162809 0.07535378 0.00862011
v -0.01464057 0.07373271 -0.01690337
v -0.03017658 0.06725697 0.00301713
v -0.04083499 0.05932317 -0.02132365
v -0.05573052 0.04975940 -0.00255609
v -0.06701541 0.03632933 0.01647186
v 0.05119961 0.01707608 0.03324449
v 0.04614031 0.04014583 0.03517297
v 0.03132633 0.05775340 0.03502160
v 0.02349000 0.06881717 0.01148877
v 0.01286770 0.07553702 -0.01295981
v 0.00044307 0.08075034 -0.03700051
v -0.01409797 0.08256484 -0.06299451
v -0.02718494 0.07047968 -0.04079416
v -0.03919171 0.06424012 -0.06587532
v -0.04762238 0.05004097 -0.04404846
v -0.05675935 0.03705039 -0.02446952
v -0.06346530 0.02271190 -0.00518286
v -0.06324361 0.00507706 0.01425704
v -0.03915616 -0.02550629 0.01440716
v -0.00714988 -0.05019870 0.01534289
v 0.04126576 -0.00958747 0.02877313
v 0.04859101 0.00774732 0.01000443
v 0.05218679 0.02174881 -0.01078179
v 0.05086527 0.03282087 0.01196507
v 0.04866069 0.04497369 -0.01034915
v 0.03992540 0.05228204 0.01220205
v 0.03456601 0.06348690 -0.01108697
v 0.02732769 0.07406217 -0.03429398
v 0.01651875 0.08337018 -0.05955485
v 0.00311831 0.08922049 -0.08679512
v -0.01245902 0.08877584 -0.11578348
v -0.02790499 0.07872769 -0.08990809
v -0.04031797 0.06915084 -0.11759433
v -0.04778133 0.05371007 -0.09141669
v -0.05347638 0.02506947 -0.04598978
v -0.05087773 0.03837091 -0.06756374
v -0.05501503 0.01019036 -0.02527395
v -0.04976763 -0.00633126 -0.00502798
v -0.03477566 -0.01685614 -0.02417764
v -0.02348876 -0.03575202 -0.00470060
v -0.00542958 -0.03677389 -0.02224025
v 0.01086960 -0.04180612 -0.00051853
v 0.02467436 -0.03837246 0.02189952
v 0.03496609 -0.02052891 0.00592488
v 0.04362322 -0.00524301 -0.01260743
v 0.05072720 0.00793844 -0.03304103
v 0.05673847 0.02010739 -0.05571911
v 0.05478182 0.03410723 -0.03217193
v 0.05601520 0.04654235 -0.05583718
v 0.04669789 0.05708515 -0.03241834
v 0.04215968 0.06983864 -0.05672833
v 0.03453798 0.08183659 -0.08356282
v 0.02186743 0.09015303 -0.11273894
v 0.00561295 0.09139360 -0.14307174
v -0.01016138 0.08512552 -0.17282948
v -0.02717482 0.08090108 -0.14508942
v -0.03779083 0.06718028 -0.17370275
v -0.04839656 0.05482507 -0.14520910
v -0.05199176 0.04022592 -0.11737499
v -0.05029172 0.02615014 -0.09152707
v -0.04336178 -0.00097537 -0.04625568
v -0.04714353 0.01260281 -0.06813136
v -0.03041692 -0.01096980 -0.06701508
v -0.01911939 -0.02333516 -0.04392824
v -0.00464532 -0.02616137 -0.06412730
v 0.00994227 -0.03153562 -0.04061839
v 0.02488048 -0.03117839 -0.01723376
v 0.03519205 -0.01789285 -0.03564605
v 0.04721559 -0.00751808 -0.05626389
v 0.05648964 0.00395936 -0.07984403
v 0.06285157 0.01601964 -0.10592183
v 0.06175426 0.03220920 -0.08038184
v 0.06352333 0.04475135 -0.10787860
v 0.05552026 0.05952677 -0.08147189
v 0.05032525 0.07226949 -0.11018357
v 0.03931078 0.08192945 -0.14028296
v 0.02340635 0.08541957 -0.17054418
v 0.00724944 0.08183285 -0.19990292
v -0.00590616 0.07312809 -0.22790274
v -0.02234438 0.07321273 -0.20126411
v -0.02928840 0.05846229 -0.22744349
v -0.04231112 0.05045818 -0.20030919
v -0.05027918 0.03862736 -0.17208484
v -0.05130862 0.02586806 -0.14327928
v -0.04661386 0.01375112 -0.11560717
v -0.03873720 0.00218797 -0.09059522
v -0.02885920 -0.00660612 -0.11369714
v -0.01796599 -0.01705067 -0.08840421
v -0.00582658 -0.02177262 -0.11075386
v 0.00852187 -0.02667898 -0.08477196
v 0.02317012 -0.02590518 -0.05988672
v 0.03697132 -0.02096629 -0.08094189
v 0.04916466 -0.01183941 -0.10526165
v 0.05670705 0.00003313 -0.13232419
v 0.06025130 0.01175422 -0.16082105
v 0.06493539 0.02815681 -0.13448951
v 0.06252945 0.03949281 -0.16435823
v 0.06018247 0.05680202 -0.13775727
v 0.05083349 0.06685129 -0.16770110
v 0.03698043 0.07278754 -0.19754764
v 0.02223536 0.07303617 -0.22662786
v 0.00794795 0.06947752 -0.25401995
v -0.00440593 0.06356636 -0.27972791
v -0.01651377 0.06273654 -0.25374123
v -0.02417641 0.05106947 -0.27745250
v -0.03316786 0.04405270 -0.25124153
v -0.04559784 0.02360171 -0.19706228
v -0.04100973 0.03483944 -0.22465447
v -0.04465666 0.01264867 -0.16896513
v -0.03865956 0.00259147 -0.14051399
v -0.02757706 -0.00567855 -0.16530392
v -0.01757652 -0.01351788 -0.13758859
v -0.00619091 -0.01939310 -0.16191790
v 0.00653157 -0.02568630 -0.13446471
v 0.02196371 -0.02708045 -0.10713336
v 0.03523361 -0.02298832 -0.13218305
v 0.04529992 -0.01374864 -0.15920314
v 0.05087093 -0.00259698 -0.18745062
v 0.05234396 0.00773526 -0.21595845
v 0.05942208 0.02319436 -0.19032493
v 0.05522116 0.03269470 -0.21986082
v 0.05553443 0.04990734 -0.19433770
v 0.04526324 0.05715421 -0.22371027
v 0.03266946 0.06116169 -0.25234362
v 0.01957712 0.06187454 -0.27945277
v 0.00737084 0.06041737 -0.30433485
v -0.00372431 0.05712404 -0.32633951
v -0.01455409 0.05566296 -0.30273017
v -0.02180241 0.04532995 -0.32255939
v -0.02856580 0.03824730 -0.29814860
v -0.03708956 0.02100374 -0.24720034
v -0.03379028 0.03009524 -0.27304420
v -0.03487639 0.00220718 -0.19316563
v -0.03775238 0.01145438 -0.22066358
v -0.02351791 -0.00522066 -0.21642718
v -0.01599267 -0.01191215 -0.18933663
v -0.00529255 -0.01737153 -0.21324387
v 0.00541794 -0.02312643 -0.18682989
v 0.01938298 -0.02614538 -0.15959284
v 0.03086243 -0.02156256 -0.18631706
v 0.03876219 -0.01357624 -0.21353659
v 0.04241047 -0.00504805 -0.24107233
v 0.04280900 0.00231907 -0.26815042
v 0.05045807 0.01661584 -0.24474970
v 0.04557268 0.02373741 -0.27256498
v 0.04786459 0.04050986 -0.24892846
v 0.03832769 0.04592458 -0.27691695
v 0.02794380 0.04934295 -0.30311897
v 0.01762701 0.05134826 -0.32681915
v 0.00878575 0.05153834 -0.34802398
v -0.00129060 0.05081509 -0.36531779
v -0.01242695 0.04948821 -0.34585258
v -0.01872929 0.03935420 -0.36105564
v -0.02486996 0.03272241 -0.33914819
v -0.03036737 0.01705775 -0.29243693
v -0.02874772 0.02497166 -0.31590489
v -0.02818132 0.00177378 -0.24280891
v -0.03036748 0.00925661 -0.26812050
v -0.01864794 -0.00604272 -0.26373586
v -0.01297128 -0.01140859 -0.23900220
v -0.00418927 -0.01656652 -0.26125589
v 0.00445093 -0.02020440 -0.23732701
v 0.01628544 -0.02257198 -0.21238527
v 0.02494965 -0.01890053 -0.23841199
v 0.03044995 -0.01387824 -0.26430038
v 0.03292517 -0.00905673 -0.28961912
v 0.03272869 -0.00427543 -0.31340471
v 0.04041506 0.00829843 -0.29426494
v 0.03568435 0.01363854 -0.31868473
v 0.03882474 0.02898242 -0.29909059
v 0.03126133 0.03349129 -0.32374457
v 0.02441167 0.03689038 -0.34607288
v 0.01662733 0.03940753 -0.36484751
v 0.00958245 0.04298581 -0.37935498
v 0.00266042 0.04796912 -0.38924477
v -0.00975345 0.04523488 -0.37821779
v -0.01426335 0.03714075 -0.38776860
v -0.02154576 0.02830875 -0.37291166
v -0.02649017 0.02128995 -0.35268298
v -0.02747184 0.01305102 -0.33118525
v -0.02284740 -0.00066007 -0.28732064
v -0.02574760 0.00548687 -0.30957904
v -0.01719830 -0.01017408 -0.30503073
v -0.01098950 -0.01330564 -0.28395852
v -0.00506587 -0.01889327 -0.30317900
v 0.00287292 -0.01950215 -0.28324547
v 0.01254808 -0.02004807 -0.26152721
v 0.01855620 -0.01880115 -0.28549209
v 0.02260321 -0.01662646 -0.30837885
v 0.02436348 -0.01352620 -0.32977048
v 0.02550725 -0.01018998 -0.34943035
v 0.03097390 0.00057410 -0.33553049
v 0.03030171 0.00522568 -0.35594788
v 0.03190326 0.01864385 -0.34118637
v 0.02946428 0.02333280 -0.36163768
v 0.02462798 0.02635552 -0.37825850
v 0.01746718 0.03179619 -0.39010903
v 0.01257222 0.04339667 -0.39963785
v -0.01822649 0.03046669 -0.39723000
v -0.02593027 0.01777382 -0.38262382
v -0.02986299 0.00908694 -0.36441430
v -0.02786273 0.00187571 -0.34455541
v -0.02284623 -0.00552211 -0.32501480
v -0.02065852 -0.01568247 -0.33918205
v -0.01275977 -0.01798649 -0.32158700
v -0.00884781 -0.02424910 -0.33707145
v -0.00022967 -0.02277772 -0.32142350
v 0.00862802 -0.02122542 -0.30441907
v 0.01298874 -0.02162219 -0.32451048
v 0.01623223 -0.02084103 -0.34324935
v 0.01965373 -0.02223135 -0.36033008
v 0.02307608 -0.02270819 -0.37767658
v 0.02734012 -0.00977420 -0.36741671
v 0.03008603 -0.00743168 -0.38422784
v 0.03162190 0.00758704 -0.37418404
v 0.03216352 0.01314719 -0.38929752
v 0.02602870 0.02354120 -0.40094671
v -0.03012372 0.00795355 -0.39277765
v -0.03431389 -0.00447877 -0.37614587
v -0.02847001 -0.01183141 -0.35713223
v -0.02792317 -0.02596943 -0.37071267
v -0.01837741 -0.02629109 -0.35243496
v -0.01510904 -0.03777787 -0.36675093
v -0.00514779 -0.03138156 -0.35142568
v 0.00412787 -0.02566539 -0.33865562
v 0.00798573 -0.02971713 -0.35452232
v 0.01260936 -0.03385568 -0.37194434
v 0.01922334 -0.03406452 -0.38848737
v 0.02735626 -0.01877336 -0.39221665
v 0.03253619 -0.00005563 -0.39987007
v -0.03340169 -0.01741340 -0.38869718
v -0.02535583 -0.03863189 -0.38351271
v -0.01072542 -0.04674117 -0.37998357
v -0.00094099 -0.03881762 -0.36714748
v 0.00494119 -0.04439600 -0.38250718
v -0.01590338 0.07245892 0.00602242
v -0.04468468 0.06032367 -0.00015205
v 0.01183606 0.07397271 0.01037335
v -0.01422157 0.07802369 -0.03881696
v -0.03883280 0.06127609 -0.04255465
v -0.06212673 0.03690726 -0.00417501
v 0.05163648 0.02080882 0.01121923
v 0.04653659 0.04324511 0.01217744
v 0.03258502 0.06093016 0.01221201
v 0.01466436 0.07899687 -0.03556475
v -0.01319912 0.08640076 -0.08840308
v -0.03985433 0.06738515 -0.09087363
v -0.05243560 0.03778482 -0.04523370
v -0.05928848 0.00805633 -0.00546715
v -0.03723863 -0.02107508 -0.00478369
v -0.00619648 -0.04291279 -0.00328565
v 0.04219580 -0.00594749 0.00828996
v 0.05389690 0.02133404 -0.03252766
v 0.05236170 0.04615720 -0.03218082
v 0.03807447 0.06649570 -0.03311589
v 0.01943044 0.08763748 -0.08511719
v -0.01158304 0.08847754 -0.14426097
v -0.03985850 0.06917881 -0.14547822
v -0.05101627 0.03959251 -0.09165344
v -0.05059482 0.01205367 -0.04636613
v -0.03234839 -0.01326852 -0.04528114
v -0.00476038 -0.02983581 -0.04256734
v 0.02507786 -0.03413322 0.00280085
v 0.04482406 -0.00567715 -0.03390327
v 0.06066174 0.01812225 -0.08001134
v 0.06032360 0.04603805 -0.08085617
v 0.04689562 0.07192692 -0.08232817
v 0.02324640 0.08938428 -0.14168605
v -0.00811806 0.07946006 -0.20074400
v -0.03410016 0.06317683 -0.20115277
v -0.05210318 0.03995319 -0.14440724
v -0.04605357 0.01359876 -0.09116450
v -0.02930969 -0.00815454 -0.08968577
v -0.00523324 -0.02356210 -0.08677801
v 0.02341933 -0.02726819 -0.03815934
v 0.04895910 -0.00982872 -0.07992628
v 0.06261719 0.01390661 -0.13316670
v 0.06414939 0.04240346 -0.13613459
v 0.05178810 0.07048356 -0.13902196
v 0.02280919 0.07966856 -0.19885591
v -0.00487769 0.06786769 -0.25414094
v -0.02617224 0.05452972 -0.25279650
v -0.04612766 0.03675250 -0.19886902
v -0.04659085 0.01327804 -0.14190021
v -0.02845754 -0.00595140 -0.13911828
v -0.00616813 -0.02046598 -0.13599840
v 0.02275278 -0.02622209 -0.08270314
v 0.04771853 -0.01314502 -0.13194457
v 0.05652995 0.00993664 -0.18865004
v 0.05908719 0.03661979 -0.19236913
v 0.04809982 0.06235205 -0.19602087
v 0.02087865 0.06717441 -0.25338903
v -0.00413942 0.06005739 -0.30388376
v -0.02291360 0.04802329 -0.30076173
v -0.03691083 0.03254459 -0.24932799
v -0.04150957 0.01201841 -0.19513604
v -0.02585432 -0.00542797 -0.19116613
v -0.00580694 -0.01834466 -0.18783888
v 0.02076439 -0.02711676 -0.13311312
v 0.04236156 -0.01374933 -0.18667856
v 0.04767451 0.00523482 -0.24278173
v 0.05057225 0.02855409 -0.24684593
v 0.04196379 0.05182321 -0.25080314
v 0.01851835 0.05678671 -0.30412617
v -0.00217146 0.05311013 -0.34748456
v -0.02022167 0.04202827 -0.34298572
v -0.03101442 0.02752798 -0.29531279
v -0.03390868 0.01053878 -0.24497780
v -0.02084196 -0.00529167 -0.24078903
v -0.00467429 -0.01670954 -0.23780844
v 0.01797826 -0.02448465 -0.18634686
v 0.03469113 -0.01343100 -0.23962769
v 0.03776825 -0.00114606 -0.29190037
v 0.04071344 0.01844897 -0.29665878
v 0.03462767 0.03951998 -0.30131248
v 0.01741832 0.04492410 -0.34750804
v 0.00033339 0.04864039 -0.37920532
v -0.01668849 0.03719313 -0.37594363
v -0.02703929 0.02321449 -0.33478370
v -0.02737432 0.00760856 -0.28971764
v -0.01729233 -0.00769418 -0.28536442
v -0.00425959 -0.01725667 -0.28323296
v 0.01451818 -0.02100043 -0.23754922
v 0.02630822 -0.01505942 -0.28743944
v 0.02840184 -0.00712536 -0.33264992
v 0.03203357 0.00929163 -0.33840141
v 0.02983298 0.02796024 -0.34388509
v 0.01657916 0.03445557 -0.37901804
v 0.00487299 0.05039867 -0.39927259
v -0.02611450 0.01890232 -0.36877570
v -0.02587868 0.00342845 -0.32786062
v -0.01835880 -0.01284994 -0.32289144
v -0.00667699 -0.02112519 -0.32108888
v 0.01053347 -0.02014269 -0.28403577
v 0.01909532 -0.01840301 -0.32697329
v 0.02416658 -0.01661761 -0.36372837
v 0.02981059 -0.00163448 -0.37101617
v 0.03056227 0.01747632 -0.37663749
v 0.01889039 0.03372866 -0.40020493
v -0.02445044 0.01965943 -0.39499900
v -0.03070793 -0.00148623 -0.36048666
v -0.02419224 -0.02028062 -0.35439560
v -0.01185009 -0.02988193 -0.35139737
v 0.00643747 -0.02301691 -0.32260963
v 0.01409698 -0.02661124 -0.35724464
v 0.02378123 -0.02633651 -0.39030209
v 0.03053624 -0.01065158 -0.39596394
v 0.03184006 0.01215705 -0.40127555
v -0.03412344 -0.00452450 -0.39079532
v -0.03030142 -0.02933305 -0.38623896
v -0.01839101 -0.04444029 -0.38104436
v 0.00151832 -0.03128812 -0.35249457
v 0.01268386 -0.04038631 -0.38536260
v -0.00302010 -0.04646832 -0.38059631
f 67 124 121
f 121 124 360
f 124 1 360
f 360 1 125
f 2 126 125
f 125 126 360
f 126 77 360
f 360 77 121
f 77 126 122
f 122 126 361
f 126 2 361
f 361 2 127
f 127 11 361
f 361 11 128
f 128 76 361
f 361 76 122
f 68 133 123
f 123 133 362
f 133 3 362
f 362 3 134
f 1 124 134
f 134 124 362
f 124 67 362
f 362 67 123
f 1 135 125
f 125 135 363
f 135 34 363
f 363 34 136
f 136 44 363
f 363 44 137
f 2 125 137
f 137 125 363
f 127 2 364
f 364 2 137
f 44 138 137
f 137 138 364
f 138 43 364
f 364 43 139
f 11 127 139
f 139 127 364
f 140 107 365
f 365 107 141
f 141 108 365
f 365 108 129
f 76 128 129
f 129 128 365
f 11 140 128
f 128 140 365
f 130 71 366
f 366 71 146
f 9 147 146
f 146 147 366
f 147 10 366
f 366 10 148
f 70 130 148
f 148 130 366
f 70 148 131
f 131 148 367
f 10 149 148
f 148 149 367
f 4 150 149
f 149 150 367
f 150 69 367
f 367 69 131
f 69 150 132
f 132 150 368
f 4 151 150
f 150 151 368
f 3 133 151
f 151 133 368
f 133 68 368
f 368 68 132
f 3 152 134
f 134 152 369
f 152 35 369
f 369 35 153
f 34 135 153
f 153 135 369
f 135 1 369
f 369 1 134
f 34 154 136
f 136 154 370
f 154 78 370
f 370 78 155
f 79 156 155
f 155 156 370
f 156 44 370
f 370 44 136
f 44 156 138
f 138 156 371
f 156 79 371
f 371 79 157
f 80 158 157
f 157 158 371
f 158 43 371
f 371 43 138
f 107 140 159
f 159 140 372
f 140 11 372
f 372 11 139
f 43 160 139
f 139 160 372
f 160 106 372
f 372 106 159
f 107 161 141
f 141 161 373
f 161 5 373
f 373 5 162
f 75 142 162
f 162 142 373
f 108 141 142
f 142 141 373
f 143 75 374
f 374 75 162
f 5 163 162
f 162 163 374
f 163 6 374
f 374 6 164
f 74 143 164
f 164 143 374
f 144 74 375
f 375 74 164
f 6 165 164
f 164 165 375
f 165 7 375
f 375 7 166
f 73 144 166
f 166 144 375
f 145 72 376
f 376 72 168
f 8 169 168
f 168 169 376
f 169 9 376
f 376 9 146
f 71 145 146
f 146 145 376
f 147 9 377
f 377 9 170
f 38 171 170
f 170 171 377
f 37 172 171
f 171 172 377
f 10 147 172
f 172 147 377
f 10 172 149
f 149 172 378
f 172 37 378
f 378 37 173
f 36 174 173
f 173 174 378
f 174 4 378
f 378 4 149
f 4 174 151
f 151 174 379
f 174 36 379
f 379 36 175
f 35 152 175
f 175 152 379
f 152 3 379
f 379 3 151
f 35 176 153
f 153 176 380
f 176 88 380
f 380 88 177
f 78 154 177
f 177 154 380
f 154 34 380
f 380 34 153
f 78 178 155
f 155 178 381
f 178 23 381
f 381 23 179
f 33 180 179
f 179 180 381
f 180 79 381
f 381 79 155
f 79 180 157
f 157 180 382
f 180 33 382
f 382 33 181
f 32 182 181
f 181 182 382
f 182 80 382
f 382 80 157
f 183 105 383
f 383 105 184
f 106 160 184
f 184 160 383
f 160 43 383
f 383 43 158
f 158 80 383
f 383 80 183
f 5 161 185
f 185 161 384
f 161 107 384
f 384 107 159
f 106 186 159
f 159 186 384
f 186 42 384
f 384 42 185
f 163 5 385
f 385 5 185
f 42 187 185
f 185 187 385
f 187 41 385
f 385 41 188
f 6 163 188
f 188 163 385
f 165 6 386
f 386 6 188
f 41 189 188
f 188 189 386
f 189 40 386
f 386 40 190
f 7 165 190
f 190 165 386
f 167 73 387
f 387 73 166
f 7 191 166
f 166 191 387
f 191 8 387
f 387 8 168
f 72 167 168
f 168 167 387
f 169 8 388
f 388 8 192
f 39 193 192
f 192 193 388
f 193 38 388
f 388 38 170
f 9 169 170
f 170 169 388
f 38 194 171
f 171 194 389
f 194 85 389
f 389 85 195
f 86 196 195
f 195 196 389
f 196 37 389
f 389 37 171
f 37 196 173
f 173 196 390
f 196 86 390
f 390 86 197
f 87 198 197
f 197 198 390
f 198 36 390
f 390 36 173
f 36 198 175
f 175 198 391
f 198 87 391
f 391 87 199
f 88 176 199
f 199 176 391
f 176 35 391
f 391 35 175
f 88 200 177
f 177 200 392
f 200 24 392
f 392 24 201
f 23 178 201
f 201 178 392
f 178 78 392
f 392 78 177
f 23 202 179
f 179 202 393
f 202 45 393
f 393 45 203
f 55 204 203
f 203 204 393
f 204 33 393
f 393 33 179
f 33 204 181
f 181 204 394
f 204 55 394
f 394 55 205
f 54 206 205
f 205 206 394
f 206 32 394
f 394 32 181
f 207 104 395
f 395 104 208
f 105 183 208
f 208 183 395
f 80 182 183
f 183 182 395
f 182 32 395
f 395 32 207
f 105 209 184
f 184 209 396
f 209 81 396
f 396 81 210
f 42 186 210
f 210 186 396
f 186 106 396
f 396 106 184
f 187 42 397
f 397 42 210
f 81 211 210
f 210 211 397
f 211 82 397
f 397 82 212
f 41 187 212
f 212 187 397
f 189 41 398
f 398 41 212
f 82 213 212
f 212 213 398
f 213 83 398
f 398 83 214
f 40 189 214
f 214 189 398
f 191 7 399
f 399 7 190
f 40 215 190
f 190 215 399
f 215 39 399
f 399 39 192
f 8 191 192
f 192 191 399
f 193 39 400
f 400 39 216
f 84 217 216
f 216 217 400
f 217 85 400
f 400 85 194
f 38 193 194
f 194 193 400
f 195 85 401
f 401 85 218
f 27 219 218
f 218 219 401
f 26 220 219
f 219 220 401
f 220 86 401
f 401 86 195
f 86 220 197
f 197 220 402
f 220 26 402
f 402 26 221
f 25 222 221
f 221 222 402
f 222 87 402
f 402 87 197
f 87 222 199
f 199 222 403
f 222 25 403
f 403 25 223
f 24 200 223
f 223 200 403
f 200 88 403
f 403 88 199
f 24 224 201
f 201 224 404
f 224 46 404
f 404 46 225
f 45 202 225
f 225 202 404
f 202 23 404
f 404 23 201
f 45 226 203
f 203 226 405
f 226 56 405
f 405 56 227
f 66 228 227
f 227 228 405
f 228 55 405
f 405 55 203
f 55 228 205
f 205 228 406
f 66 229 228
f 228 229 406
f 229 65 406
f 406 65 230
f 54 205 230
f 230 205 406
f 104 207 231
f 231 207 407
f 207 32 407
f 407 32 206
f 54 232 206
f 206 232 407
f 232 103 407
f 407 103 231
f 104 233 208
f 208 233 408
f 233 31 408
f 408 31 234
f 81 209 234
f 234 209 408
f 209 105 408
f 408 105 208
f 211 81 409
f 409 81 234
f 31 235 234
f 234 235 409
f 235 30 409
f 409 30 236
f 82 211 236
f 236 211 409
f 213 82 410
f 410 82 236
f 30 237 236
f 236 237 410
f 237 29 410
f 410 29 238
f 83 213 238
f 238 213 410
f 215 40 411
f 411 40 214
f 83 239 214
f 214 239 411
f 239 84 411
f 411 84 216
f 39 215 216
f 216 215 411
f 217 84 412
f 412 84 240
f 28 241 240
f 240 241 412
f 241 27 412
f 412 27 218
f 85 217 218
f 218 217 412
f 219 27 413
f 413 27 242
f 49 243 242
f 242 243 413
f 243 48 413
f 413 48 244
f 26 219 244
f 244 219 413
f 26 244 221
f 221 244 414
f 244 48 414
f 414 48 245
f 47 246 245
f 245 246 414
f 246 25 414
f 414 25 221
f 25 246 223
f 223 246 415
f 246 47 415
f 415 47 247
f 46 224 247
f 247 224 415
f 224 24 415
f 415 24 223
f 46 248 225
f 225 248 416
f 248 57 416
f 416 57 249
f 56 226 249
f 249 226 416
f 226 45 416
f 416 45 225
f 56 250 227
f 227 250 417
f 89 251 250
f 250 251 417
f 251 99 417
f 417 99 252
f 252 66 417
f 417 66 227
f 229 66 418
f 418 66 252
f 99 253 252
f 252 253 418
f 253 98 418
f 418 98 254
f 65 229 254
f 254 229 418
f 103 232 255
f 255 232 419
f 232 54 419
f 419 54 230
f 65 256 230
f 230 256 419
f 256 102 419
f 419 102 255
f 31 233 257
f 257 233 420
f 233 104 420
f 420 104 231
f 103 258 231
f 231 258 420
f 258 53 420
f 420 53 257
f 235 31 421
f 421 31 257
f 53 259 257
f 257 259 421
f 259 52 421
f 421 52 260
f 30 235 260
f 260 235 421
f 237 30 422
f 422 30 260
f 52 261 260
f 260 261 422
f 261 51 422
f 422 51 262
f 29 237 262
f 262 237 422
f 239 83 423
f 423 83 238
f 29 263 238
f 238 263 423
f 263 28 423
f 423 28 240
f 84 239 240
f 240 239 423
f 241 28 424
f 424 28 264
f 50 265 264
f 264 265 424
f 265 49 424
f 424 49 242
f 27 241 242
f 242 241 424
f 243 49 425
f 425 49 266
f 60 267 266
f 266 267 425
f 267 59 425
f 425 59 268
f 268 48 425
f 425 48 243
f 48 268 245
f 245 268 426
f 268 59 426
f 426 59 269
f 58 270 269
f 269 270 426
f 270 47 426
f 426 47 245
f 47 270 247
f 247 270 427
f 270 58 427
f 427 58 271
f 57 248 271
f 271 248 427
f 248 46 427
f 427 46 247
f 57 272 249
f 249 272 428
f 90 273 272
f 272 273 428
f 273 89 428
f 428 89 250
f 250 56 428
f 428 56 249
f 251 89 429
f 429 89 274
f 12 275 274
f 274 275 429
f 275 13 429
f 429 13 276
f 99 251 276
f 276 251 429
f 253 99 430
f 430 99 276
f 13 277 276
f 276 277 430
f 277 22 430
f 430 22 278
f 98 253 278
f 278 253 430
f 102 256 279
f 279 256 431
f 256 65 431
f 431 65 254
f 98 280 254
f 254 280 431
f 280 101 431
f 431 101 279
f 53 258 281
f 281 258 432
f 258 103 432
f 432 103 255
f 102 282 255
f 255 282 432
f 282 64 432
f 432 64 281
f 259 53 433
f 433 53 281
f 64 283 281
f 281 283 433
f 283 63 433
f 433 63 284
f 52 259 284
f 284 259 433
f 261 52 434
f 434 52 284
f 63 285 284
f 284 285 434
f 285 62 434
f 434 62 286
f 51 261 286
f 286 261 434
f 263 29 435
f 435 29 262
f 51 287 262
f 262 287 435
f 287 50 435
f 435 50 264
f 28 263 264
f 264 263 435
f 265 50 436
f 436 50 288
f 61 289 288
f 288 289 436
f 289 60 436
f 436 60 266
f 49 265 266
f 266 265 436
f 267 60 437
f 437 60 290
f 290 93 437
f 437 93 291
f 92 292 291
f 291 292 437
f 59 267 292
f 292 267 437
f 59 292 269
f 269 292 438
f 292 92 438
f 438 92 293
f 91 294 293
f 293 294 438
f 294 58 438
f 438 58 269
f 58 294 271
f 271 294 439
f 294 91 439
f 439 91 295
f 90 272 295
f 295 272 439
f 272 57 439
f 439 57 271
f 273 90 440
f 440 90 296
f 14 297 296
f 296 297 440
f 297 12 440
f 440 12 274
f 89 273 274
f 274 273 440
f 275 12 441
f 441 12 298
f 109 299 298
f 298 299 441
f 299 120 441
f 441 120 300
f 13 275 300
f 300 275 441
f 277 13 442
f 442 13 300
f 120 301 300
f 300 301 442
f 301 119 442
f 442 119 302
f 22 277 302
f 302 277 442
f 303 100 443
f 443 100 304
f 101 280 304
f 304 280 443
f 280 98 443
f 443 98 278
f 22 303 278
f 278 303 443
f 64 282 305
f 305 282 444
f 282 102 444
f 444 102 279
f 101 306 279
f 279 306 444
f 306 97 444
f 444 97 305
f 283 64 445
f 445 64 305
f 97 307 305
f 305 307 445
f 307 96 445
f 445 96 308
f 63 283 308
f 308 283 445
f 285 63 446
f 446 63 308
f 96 309 308
f 308 309 446
f 309 95 446
f 446 95 310
f 62 285 310
f 310 285 446
f 287 51 447
f 447 51 286
f 62 311 286
f 286 311 447
f 311 61 447
f 447 61 288
f 50 287 288
f 288 287 447
f 61 312 289
f 289 312 448
f 312 94 448
f 448 94 313
f 93 290 313
f 313 290 448
f 290 60 448
f 448 60 289
f 93 314 291
f 291 314 449
f 314 20 449
f 449 20 315
f 21 316 315
f 315 316 449
f 316 92 449
f 449 92 291
f 92 316 293
f 293 316 450
f 316 21 450
f 450 21 317
f 15 318 317
f 317 318 450
f 318 91 450
f 450 91 293
f 91 318 295
f 295 318 451
f 318 15 451
f 451 15 319
f 14 296 319
f 319 296 451
f 296 90 451
f 451 90 295
f 297 14 452
f 452 14 320
f 110 321 320
f 320 321 452
f 321 109 452
f 452 109 298
f 12 297 298
f 298 297 452
f 299 109 453
f 453 109 322
f 119 301 323
f 324 118 454
f 454 118 325
f 100 303 325
f 325 303 454
f 303 22 454
f 454 22 302
f 119 324 302
f 302 324 454
f 100 326 304
f 304 326 455
f 326 16 455
f 455 16 327
f 97 306 327
f 327 306 455
f 306 101 455
f 455 101 304
f 307 97 456
f 456 97 327
f 16 328 327
f 327 328 456
f 328 17 456
f 456 17 329
f 96 307 329
f 329 307 456
f 309 96 457
f 457 96 329
f 17 330 329
f 329 330 457
f 330 18 457
f 457 18 331
f 95 309 331
f 331 309 457
f 62 310 311
f 311 310 458
f 310 95 458
f 458 95 332
f 94 312 332
f 332 312 458
f 312 61 458
f 458 61 311
f 94 333 313
f 313 333 459
f 333 19 459
f 459 19 334
f 20 314 334
f 334 314 459
f 314 93 459
f 459 93 313
f 20 335 315
f 315 335 460
f 335 113 460
f 460 113 336
f 112 337 336
f 336 337 460
f 337 21 460
f 460 21 315
f 21 337 317
f 317 337 461
f 337 112 461
f 461 112 338
f 111 339 338
f 338 339 461
f 339 15 461
f 461 15 317
f 15 339 319
f 319 339 462
f 339 111 462
f 462 111 340
f 340 110 462
f 462 110 320
f 14 319 320
f 320 319 462
f 110 341 321
f 321 341 463
f 322 109 463
f 463 109 321
f 118 324 342
f 342 324 464
f 324 119 464
f 464 119 323
f 326 100 465
f 465 100 325
f 118 343 325
f 325 343 465
f 343 117 465
f 465 117 344
f 16 326 344
f 344 326 465
f 328 16 466
f 466 16 344
f 117 345 344
f 344 345 466
f 345 116 466
f 466 116 346
f 17 328 346
f 346 328 466
f 330 17 467
f 467 17 346
f 116 347 346
f 346 347 467
f 347 115 467
f 467 115 348
f 18 330 348
f 348 330 467
f 95 331 332
f 332 331 468
f 331 18 468
f 468 18 349
f 19 333 349
f 349 333 468
f 333 94 468
f 468 94 332
f 19 350 334
f 334 350 469
f 350 114 469
f 469 114 351
f 113 335 351
f 351 335 469
f 335 20 469
f 469 20 334
f 113 352 336
f 336 352 470
f 353 112 470
f 470 112 336
f 112 353 338
f 338 353 471
f 354 111 471
f 471 111 338
f 111 354 340
f 340 354 472
f 341 110 472
f 472 110 340
f 343 118 473
f 473 118 342
f 117 343 355
f 355 343 473
f 345 117 474
f 474 117 355
f 116 345 356
f 356 345 474
f 347 116 475
f 475 116 356
f 115 347 357
f 357 347 475
f 18 348 349
f 349 348 476
f 348 115 476
f 476 115 358
f 114 350 358
f 358 350 476
f 350 19 476
f 476 19 349
f 114 359 351
f 351 359 477
f 352 113 477
f 477 113 351
f 358 115 478
f 478 115 357
f 359 114 478
f 478 114 358

