# https://github.com/mikedh/trimesh
v -0.24947727 -0.02116503 -0.02192584
v -0.24697667 -0.00910726 -0.02368814
v -0.25409192 -0.03199819 0.00553483
v -0.24465883 -0.00076901 -0.02315596
v -0.25095367 -0.01867457 0.01730102
v -0.24259502 0.00867377 -0.02182719
v -0.24148059 0.01902093 -0.01726648
v -0.24231291 0.02453128 -0.00476202
v -0.24556434 0.02156250 0.01063380
v -0.24875152 -0.00475276 0.02020606
v -0.24738401 0.00853187 0.01876229
v -0.23401695 -0.02868631 0.01215744
v -0.23375177 -0.01711107 0.02125278
v -0.23289531 -0.00345357 0.02387583
v -0.23237836 0.01006494 0.02194503
v -0.23198879 0.02367209 0.01434934
v -0.22907615 0.02171264 -0.01550391
v -0.23055083 0.02739494 -0.00126559
v -0.22875261 0.01013689 -0.02075812
v -0.22899395 -0.00172907 -0.02093026
v -0.22960508 -0.01236051 -0.01872036
v -0.23078907 -0.02218125 -0.01252025
v -0.24727386 -0.03349895 -0.00982538
v -0.23225957 -0.03025251 -0.00223076
v -0.01196277 0.01378936 0.03408310
v -0.01880959 0.03181557 -0.02711141
v -0.00995544 -0.02468246 0.03945300
v -0.01105243 -0.03698489 0.02542585
v -0.02043435 -0.02405932 -0.02107728
v -0.02154249 0.00435187 -0.03969803
v -0.05634868 -0.01668112 0.04293862
v -0.05961221 -0.03281075 0.03030097
v -0.06738937 -0.02133908 -0.02064031
v -0.06689394 0.01168033 -0.03693676
v -0.06355453 0.03514121 -0.02883911
v -0.06061417 0.04588664 -0.00329754
v -0.05382538 0.02255570 0.03652158
v -0.10189676 -0.01262515 0.03975460
v -0.10350555 -0.02654387 0.02819586
v -0.10934794 -0.02068887 -0.01824898
v -0.11058056 0.01027407 -0.03378928
v -0.11013776 0.03210607 -0.02790767
v -0.10805172 0.04531212 -0.00589406
v -0.10209382 0.02526328 0.03491047
v -0.14464766 -0.00942058 0.03377971
v -0.14546525 -0.02144605 0.02448997
v -0.14913994 -0.01886168 -0.01407290
v -0.15040797 0.00731848 -0.02842301
v -0.15075988 0.02594218 -0.02528742
v -0.15046602 0.03982615 -0.00853738
v -0.14596850 0.02456906 0.02937189
v -0.01762453 -0.03160833 -0.00730568
v -0.06529927 -0.03126754 -0.00703248
v -0.10767037 -0.02945039 -0.00502297
v -0.14793533 -0.02574525 -0.00241956
v -0.01372588 -0.03786859 0.00770095
v -0.06253296 -0.03681392 0.01040146
v -0.10545570 -0.03206215 0.01161787
v -0.14662892 -0.02692074 0.01139590
v -0.18114287 -0.00634585 0.02958208
v -0.18186325 -0.01866092 0.02313483
v -0.18234938 -0.02546854 0.01175916
v -0.18306196 -0.02525294 -0.00094464
v -0.18356425 -0.01894574 -0.01171112
v -0.18433815 0.00412012 -0.02455717
v -0.18475962 0.01996407 -0.02372432
v -0.18487078 0.03377610 -0.01190585
v -0.18159622 0.02384795 0.02310863
v -0.01062927 -0.00562414 0.04143119
v -0.05425280 0.00296823 0.04346260
v -0.10115814 0.00609941 0.04199389
v -0.14471191 0.00698070 0.03630495
v -0.18085593 0.00847185 0.03020644
v -0.18372852 0.03508123 0.00724876
v -0.14851213 0.03812446 0.01344198
v -0.10477549 0.04028994 0.01802686
v -0.05619013 0.03871692 0.02106807
v -0.01314315 0.03356607 0.01957411
v -0.02265507 0.04127400 -0.00099629
v -0.00874743 0.03936858 -0.00198540
v -0.18413925 -0.00892392 -0.01949275
v -0.15004396 -0.00770825 -0.02294779
v -0.11033851 -0.00776461 -0.02823403
v -0.06806570 -0.00773880 -0.03118202
v -0.02191946 -0.01341822 -0.03261054
v -0.21052003 -0.00389245 0.02654350
v -0.20955944 0.01015761 0.02564898
v -0.20932674 0.02397659 0.01811180
v -0.21038467 0.03209226 0.00226659
v -0.21105617 0.02811851 -0.01407102
v -0.21104151 0.01546521 -0.02190235
v -0.21087420 0.00195994 -0.02189085
v -0.21089184 -0.00976181 -0.01803187
v -0.21147722 -0.01925364 -0.01092881
v -0.21204937 -0.02572939 -0.00056729
v -0.21201336 -0.02533221 0.01221931
v -0.21158642 -0.01662928 0.02211598
v 0.00916973 -0.03305685 -0.00868627
v -0.01567006 -0.03505500 -0.00017354
v 0.01357925 -0.03775589 0.00686383
v -0.01219925 -0.03880230 0.01648098
v 0.01585594 -0.03512731 0.02413520
v 0.00544462 -0.02616408 -0.02336422
v -0.01923630 -0.02788899 -0.01420808
v -0.04121488 -0.03672959 0.00921535
v -0.04383528 -0.03008575 -0.00739935
v -0.06390291 -0.03483461 0.00115216
v -0.01029012 -0.03221985 0.03354508
v 0.01447770 -0.02266439 0.03757745
v -0.06114179 -0.03642393 0.02048403
v -0.03799033 -0.03456401 0.02858672
v 0.00184900 -0.01527929 -0.03474116
v -0.02133358 -0.01939298 -0.02724463
v -0.04601157 -0.02063842 -0.02076879
v -0.06644869 -0.02675976 -0.01426655
v -0.08396727 -0.03479428 0.01122868
v -0.08654350 -0.03080715 -0.00629413
v -0.10655338 -0.03163124 0.00303462
v -0.01006162 -0.01542914 0.04215103
v 0.00993907 -0.00395159 0.04022339
v -0.05794472 -0.02588538 0.03821704
v -0.03428566 -0.01980258 0.04221210
v -0.10444313 -0.03036401 0.02020800
v -0.08154607 -0.02956363 0.02964023
v -0.00165632 0.00232994 -0.04044494
v -0.02191401 -0.00573531 -0.03709197
v -0.04635298 -0.00818931 -0.03158009
v -0.06798172 -0.01508500 -0.02628240
v -0.08840019 -0.02131819 -0.01994655
v -0.10860574 -0.02565733 -0.01215178
v -0.12654912 -0.02916190 0.01151702
v -0.12825066 -0.02747543 -0.00359008
v -0.14726287 -0.02714723 0.00441501
v -0.01144314 0.00410477 0.03832483
v 0.00503260 0.01514423 0.03224394
v -0.01240548 0.02360167 0.02856332
v 0.00284767 0.03316114 0.01838878
v -0.03156507 -0.00004709 0.04260394
v -0.05508444 -0.00679971 0.04448888
v -0.10264438 -0.02055130 0.03503752
v -0.07920563 -0.01448656 0.04197353
v -0.14603585 -0.02510689 0.01825345
v -0.12501454 -0.02372616 0.02620736
v -0.02059776 0.01731406 -0.03826743
v -0.00441003 0.02757310 -0.03069815
v -0.04385328 0.01056582 -0.03811508
v -0.06773931 0.00113932 -0.03496939
v -0.08929509 -0.00778253 -0.03030023
v -0.10995269 -0.01480148 -0.02359065
v -0.12972039 -0.01970773 -0.01603082
v -0.14855230 -0.02287393 -0.00858575
v -0.18267345 -0.02644967 0.00537911
v -0.16526520 -0.02583960 0.01148298
v -0.16620708 -0.02512829 -0.00161952
v -0.05376783 0.01273977 0.04070511
v -0.03037962 0.01986609 0.03580827
v -0.00850368 0.03781304 0.00887254
v -0.05460459 0.03157843 0.03008220
v -0.03159437 0.03758517 0.02189618
v -0.07790369 0.00493702 0.04329214
v -0.10136539 -0.00353373 0.04205656
v -0.14497757 -0.01609663 0.02978113
v -0.12388712 -0.01101973 0.03670099
v -0.18210644 -0.02296893 0.01784110
v -0.16438508 -0.01986026 0.02359438
v -0.01123443 0.03754212 -0.01390097
v -0.03886306 0.03542717 -0.02950144
v -0.06533456 0.02367453 -0.03550464
v -0.08900428 0.01137316 -0.03581661
v -0.11053145 0.00057642 -0.03184190
v -0.13078088 -0.00762744 -0.02544239
v -0.14961451 -0.01373944 -0.01887444
v -0.18332237 -0.02267454 -0.00667688
v -0.16708952 -0.01872781 -0.01272911
v -0.21208924 -0.02669475 0.00582066
v -0.19804722 -0.02556524 0.01215953
v -0.19841975 -0.02548200 -0.00061947
v -0.10136968 0.01583554 0.03971374
v -0.07832789 0.02429809 0.03627107
v -0.02002123 0.03956201 0.00998899
v -0.01513740 0.04006882 -0.00139269
v -0.10328764 0.03349024 0.02747703
v -0.08078641 0.03985691 0.01967144
v -0.05843389 0.04369475 0.00973660
v -0.03764147 0.04465149 -0.00187638
v -0.12363571 0.00657121 0.03948548
v -0.14454478 -0.00164706 0.03605464
v -0.18151700 -0.01297134 0.02709296
v -0.16366082 -0.00797876 0.03148323
v -0.21184862 -0.02182102 0.01785290
v -0.19758970 -0.01742483 0.02244136
v -0.02284366 0.03981014 -0.01336715
v -0.06219095 0.04331780 -0.01718894
v -0.08752185 0.03430977 -0.02861306
v -0.11046427 0.02125997 -0.03282711
v -0.13121367 0.00888436 -0.03105110
v -0.15026790 -0.00076018 -0.02628198
v -0.16796255 -0.00819305 -0.02096000
v -0.18386728 -0.01431206 -0.01595259
v -0.21183896 -0.02308845 -0.00620297
v -0.19839823 -0.01920773 -0.01110753
v -0.22323507 -0.02655485 0.01337779
v -0.22256488 -0.02780365 -0.00004229
v -0.23336136 -0.03114725 0.00498751
v -0.14516979 0.01600661 0.03412858
v -0.12481242 0.02507917 0.03249356
v -0.14713973 0.03202141 0.02224487
v -0.12750471 0.03954271 0.01604894
v -0.10646266 0.04482458 0.00691798
v -0.08456540 0.04628374 -0.00463268
v -0.16370100 0.00760670 0.03312361
v -0.18089384 0.00084033 0.03068563
v -0.21110022 -0.01050778 0.02503493
v -0.19669712 -0.00495918 0.02795723
v -0.23406917 -0.02353176 0.01776704
v -0.22333431 -0.01640160 0.02229887
v -0.10938698 0.04096981 -0.01842374
v -0.13134724 0.02928190 -0.02653110
v -0.15057397 0.01645664 -0.02837282
v -0.16831768 0.00568663 -0.02623710
v -0.18428576 -0.00280903 -0.02242425
v -0.19838852 -0.00945182 -0.01850215
v -0.21111310 -0.01475427 -0.01480779
v -0.22184455 -0.02065447 -0.01066482
v -0.23133206 -0.02677810 -0.00796175
v -0.24053401 -0.03226474 -0.00592643
v -0.24987316 -0.03441407 -0.00233403
v -0.24400926 -0.03074214 0.00929195
v -0.18107420 0.01636920 0.02782306
v -0.16495198 0.02409118 0.02610415
v -0.18260980 0.03028423 0.01611596
v -0.16731721 0.03652348 0.01011679
v -0.14969689 0.04107951 0.00272661
v -0.13014728 0.04307453 -0.00718421
v -0.20996666 0.00300756 0.02671081
v -0.19603860 0.00939693 0.02777377
v -0.23329580 -0.01035644 0.02326599
v -0.22254503 -0.00343020 0.02508682
v -0.25259542 -0.02571096 0.01289982
v -0.24291992 -0.01837127 0.01932064
v -0.15077430 0.03431075 -0.01835686
v -0.16876310 0.02275004 -0.02434134
v -0.18451113 0.01183057 -0.02524948
v -0.21082187 -0.00414672 -0.02034086
v -0.19849986 0.00287320 -0.02321142
v -0.22073382 -0.01141307 -0.01779646
v -0.23015642 -0.01745193 -0.01601645
v -0.24709463 -0.02874695 -0.01615569
v -0.23957425 -0.02260711 -0.01643711
v -0.25237530 -0.03424528 -0.01270872
v -0.25953448 -0.03459660 -0.00002185
v -0.20929801 0.01737735 0.02298060
v -0.19632334 0.02388120 0.02046949
v -0.20969713 0.02913600 0.01100993
v -0.19802445 0.03368631 0.00456065
v -0.18446416 0.03631356 -0.00266400
v -0.16875958 0.03654672 -0.01030764
v -0.22185397 0.01026080 0.02365056
v -0.23259407 0.00323958 0.02319619
v -0.24976760 -0.01164390 0.01978895
v -0.24152207 -0.00432692 0.02205002
v -0.26158118 -0.02897109 0.00849494
v -0.25770724 -0.01732177 0.01617724
v -0.18497127 0.02781504 -0.01924944
v -0.19888324 0.01757119 -0.02298015
v -0.21092391 0.00855565 -0.02259320
v -0.22055292 -0.00016111 -0.02107573
v -0.22923088 -0.00709162 -0.02004081
v -0.23838216 -0.01159000 -0.02093291
v -0.24795598 -0.01442705 -0.02351665
v -0.23223025 0.01729635 0.01953480
v -0.22121960 0.02385420 0.01631835
v -0.23122150 0.02686234 0.00694776
v -0.22124678 0.02963680 0.00041145
v -0.21086532 0.03166976 -0.00661194
v -0.19893354 0.03099355 -0.01334003
v -0.24800104 0.00186080 0.01986146
v -0.24064457 0.00899969 0.02029955
v -0.25494629 -0.00407064 0.01880363
v -0.21105510 0.02217144 -0.01902285
v -0.22069460 0.01248522 -0.02106664
v -0.22879517 0.00407323 -0.02122658
v -0.24586755 -0.00486591 -0.02336544
v -0.23691523 -0.00197400 -0.02159274
v -0.24016637 0.02255876 0.01236117
v -0.24671799 0.01558029 0.01605451
v -0.24376726 0.02426638 0.00335228
v -0.23703033 0.02530529 -0.00338766
v -0.22953248 0.02564081 -0.00942624
v -0.22102714 0.02470935 -0.01459453
v -0.25290555 0.00894007 0.01732600
v -0.22884190 0.01615542 -0.01896253
v -0.24350148 0.00367728 -0.02274367
v -0.23600870 0.00875492 -0.02101231
v -0.25026357 0.02140193 0.00959662
v -0.24692106 0.02537680 -0.00531614
v -0.24159044 0.02259395 -0.01196203
v -0.23581958 0.01962988 -0.01653567
v -0.24186271 0.01395451 -0.02019510
v -0.24642640 0.02034336 -0.01754206
v 0.01148328 -0.03595905 -0.00118324
v 0.01517218 -0.03770760 0.01551381
v 0.00719106 -0.02990398 -0.01619208
v -0.04254028 -0.03398034 0.00038424
v 0.01560888 -0.03006215 0.03184915
v -0.03969014 -0.03731952 0.01892975
v 0.00364056 -0.02131715 -0.02966711
v -0.04505068 -0.02566376 -0.01439965
v -0.08527178 -0.03369273 0.00204703
v 0.01252845 -0.01364859 0.04049096
v -0.03610665 -0.02857575 0.03689238
v -0.08278388 -0.03342413 0.02069256
v 0.00014189 -0.00753548 -0.03845286
v -0.04648873 -0.01491644 -0.02648869
v -0.08757132 -0.02659770 -0.01358727
v -0.12740099 -0.02915644 0.00382760
v 0.00716946 0.00576092 0.03722018
v 0.00350159 0.02458313 0.02634037
v -0.03269312 -0.00987858 0.04379010
v -0.08030981 -0.02306557 0.03710479
v -0.12574261 -0.02740789 0.01913872
v -0.00380996 0.01462691 -0.03860500
v -0.04558817 0.00011385 -0.03578284
v -0.08899409 -0.01507028 -0.02547610
v -0.12903970 -0.02415081 -0.01023299
v -0.16568196 -0.02633802 0.00483781
v -0.03081837 0.00969087 0.03973207
v -0.03046203 0.02960665 0.03021136
v -0.07835168 -0.00486899 0.04393649
v -0.12437147 -0.01817716 0.03223503
v -0.16482455 -0.02366484 0.01788357
v -0.04124019 0.02302774 -0.03676164
v -0.08928704 0.00103322 -0.03403366
v -0.13031119 -0.01417591 -0.02104503
v -0.16668600 -0.02251252 -0.00746271
v -0.19821000 -0.02654214 0.00572187
v -0.07786775 0.01475869 0.04089713
v -0.01433727 0.03929849 0.00640297
v -0.07931328 0.03282189 0.02912271
v -0.03492230 0.04240757 0.01094091
v -0.12361819 -0.00263145 0.03920573
v -0.16398716 -0.01451637 0.02824041
v -0.19786131 -0.02220858 0.01779291
v -0.01592350 0.03912320 -0.00980270
v -0.03858107 0.04312474 -0.01609537
v -0.08842647 0.02303401 -0.03443694
v -0.13106209 -0.00001270 -0.02894753
v -0.16749370 -0.01385542 -0.01721969
v -0.19842744 -0.02288303 -0.00626254
v -0.22289020 -0.02852086 0.00678569
v -0.12400562 0.01602613 0.03729242
v -0.12602985 0.03303366 0.02521855
v -0.08264589 0.04479673 0.00837040
v -0.16357589 -0.00054215 0.03317469
v -0.19717127 -0.01154360 0.02587244
v -0.22342974 -0.02214231 0.01855457
v -0.08622497 0.04279526 -0.01799637
v -0.13131464 0.01901812 -0.03057808
v -0.16822332 -0.00173185 -0.02403983
v -0.19840795 -0.01469356 -0.01515380
v -0.22230405 -0.02481695 -0.00594375
v -0.24260724 -0.03306306 0.00161269
v -0.16409034 0.01605263 0.03077871
v -0.16611636 0.03113548 0.01912290
v -0.12897640 0.04336470 0.00505006
v -0.19628680 0.00207083 0.02859366
v -0.22297996 -0.01000977 0.02439919
v -0.24380302 -0.02518620 0.01542801
v -0.13095993 0.03789327 -0.01825714
v -0.16847080 0.01404108 -0.02660543
v -0.19840038 -0.00361302 -0.02123579
v -0.22123700 -0.01632425 -0.01456371
v -0.23962831 -0.02821782 -0.01207992
v -0.25497943 -0.03586060 -0.00585788
v -0.19605011 0.01687495 0.02517703
v -0.19707221 0.02973132 0.01341465
v -0.16824996 0.03863715 -0.00024274
v -0.22215635 0.00328713 0.02478907
v -0.24212122 -0.01131941 0.02155566
v -0.25949270 -0.02357663 0.01266348
v -0.16894150 0.03078911 -0.01868272
v -0.19866902 0.01001379 -0.02399635
v -0.22054690 -0.00589161 -0.01983455
v -0.23915035 -0.01701005 -0.01934764
v -0.22154355 0.01745367 0.02120703
v -0.22115898 0.02801603 0.00891799
v -0.19864637 0.03417854 -0.00492790
v -0.24105448 0.00233392 0.02161586
v -0.25629979 -0.01065709 0.01834249
v -0.19899851 0.02489423 -0.01939958
v -0.22059691 0.00602667 -0.02171141
v -0.23762864 -0.00673222 -0.02141875
v -0.24041814 0.01619982 0.01782537
v -0.23827863 0.02522475 0.00490361
v -0.22122431 0.02857348 -0.00759578
v -0.25382137 0.00234833 0.01837501
v -0.22081888 0.01889610 -0.01879394
v -0.23635501 0.00320251 -0.02164340
v -0.25182730 0.01572404 0.01468226
v -0.24843919 0.02472486 0.00246996
v -0.23619866 0.02344631 -0.01102838
v -0.23576325 0.01435234 -0.01952308
v -0.24626929 0.02371456 -0.01246858
f 100 56 301
f 301 56 99
f 52 98 99
f 99 98 301
f 102 28 302
f 302 28 101
f 56 100 101
f 101 100 302
f 98 52 303
f 303 52 104
f 29 103 104
f 104 103 303
f 53 106 107
f 107 106 304
f 106 52 304
f 304 52 99
f 56 105 99
f 99 105 304
f 105 57 304
f 304 57 107
f 27 108 109
f 109 108 305
f 28 102 108
f 108 102 305
f 111 32 306
f 306 32 110
f 57 105 110
f 110 105 306
f 105 56 306
f 306 56 101
f 28 111 101
f 101 111 306
f 85 112 113
f 113 112 307
f 103 29 307
f 307 29 113
f 33 114 115
f 115 114 308
f 114 29 308
f 308 29 104
f 52 106 104
f 104 106 308
f 106 53 308
f 308 53 115
f 54 117 118
f 118 117 309
f 117 53 309
f 309 53 107
f 57 116 107
f 107 116 309
f 116 58 309
f 309 58 118
f 69 119 120
f 120 119 310
f 119 27 310
f 310 27 109
f 122 31 311
f 311 31 121
f 32 111 121
f 121 111 311
f 111 28 311
f 311 28 108
f 27 122 108
f 108 122 311
f 124 39 312
f 312 39 123
f 58 116 123
f 123 116 312
f 116 57 312
f 312 57 110
f 32 124 110
f 110 124 312
f 30 125 126
f 126 125 313
f 112 85 313
f 313 85 126
f 114 33 314
f 314 33 128
f 128 84 314
f 314 84 127
f 127 85 314
f 314 85 113
f 29 114 113
f 113 114 314
f 40 129 130
f 130 129 315
f 129 33 315
f 315 33 115
f 53 117 115
f 115 117 315
f 117 54 315
f 315 54 130
f 55 132 133
f 133 132 316
f 132 54 316
f 316 54 118
f 58 131 118
f 118 131 316
f 131 59 316
f 316 59 133
f 25 134 135
f 135 134 317
f 134 69 317
f 317 69 120
f 78 136 137
f 137 136 318
f 136 25 318
f 318 25 135
f 31 122 139
f 139 122 319
f 27 119 122
f 122 119 319
f 119 69 319
f 319 69 138
f 70 139 138
f 138 139 319
f 141 38 320
f 320 38 140
f 39 124 140
f 140 124 320
f 124 32 320
f 320 32 121
f 31 141 121
f 121 141 320
f 143 46 321
f 321 46 142
f 59 131 142
f 142 131 321
f 131 58 321
f 321 58 123
f 39 143 123
f 123 143 321
f 125 30 322
f 322 30 144
f 26 145 144
f 144 145 322
f 147 34 323
f 323 34 146
f 30 126 146
f 146 126 323
f 126 85 323
f 323 85 127
f 84 147 127
f 127 147 323
f 40 149 129
f 129 149 324
f 149 83 324
f 324 83 148
f 84 128 148
f 148 128 324
f 33 129 128
f 128 129 324
f 47 150 151
f 151 150 325
f 150 40 325
f 325 40 130
f 54 132 130
f 130 132 325
f 132 55 325
f 325 55 151
f 154 55 326
f 326 55 133
f 59 153 133
f 133 153 326
f 153 62 326
f 326 62 152
f 63 154 152
f 152 154 326
f 37 155 156
f 156 155 327
f 155 70 327
f 327 70 138
f 69 134 138
f 138 134 327
f 134 25 327
f 327 25 156
f 78 137 157
f 136 78 328
f 328 78 159
f 77 158 159
f 159 158 328
f 158 37 328
f 328 37 156
f 25 136 156
f 156 136 328
f 38 141 161
f 161 141 329
f 141 31 329
f 329 31 139
f 139 70 329
f 329 70 160
f 71 161 160
f 160 161 329
f 163 45 330
f 330 45 162
f 46 143 162
f 162 143 330
f 143 39 330
f 330 39 140
f 38 163 140
f 140 163 330
f 165 61 331
f 331 61 164
f 62 153 164
f 164 153 331
f 153 59 331
f 331 59 142
f 46 165 142
f 142 165 331
f 26 166 145
f 34 168 146
f 146 168 332
f 168 35 332
f 332 35 167
f 26 144 167
f 167 144 332
f 144 30 332
f 332 30 146
f 170 41 333
f 333 41 169
f 34 147 169
f 169 147 333
f 147 84 333
f 333 84 148
f 83 170 148
f 148 170 333
f 47 172 150
f 150 172 334
f 172 82 334
f 334 82 171
f 83 149 171
f 171 149 334
f 149 40 334
f 334 40 150
f 174 47 335
f 335 47 151
f 55 154 151
f 151 154 335
f 154 63 335
f 335 63 173
f 173 64 335
f 335 64 174
f 177 63 336
f 336 63 152
f 62 176 152
f 152 176 336
f 176 96 336
f 336 96 175
f 95 177 175
f 175 177 336
f 44 178 179
f 179 178 337
f 178 71 337
f 337 71 160
f 70 155 160
f 160 155 337
f 155 37 337
f 337 37 179
f 181 79 338
f 338 79 180
f 180 78 338
f 338 78 157
f 157 80 338
f 338 80 181
f 158 77 339
f 339 77 183
f 76 182 183
f 183 182 339
f 182 44 339
f 339 44 179
f 37 158 179
f 179 158 339
f 36 184 185
f 185 184 340
f 184 77 340
f 340 77 159
f 78 180 159
f 159 180 340
f 180 79 340
f 340 79 185
f 45 163 187
f 187 163 341
f 163 38 341
f 341 38 161
f 161 71 341
f 341 71 186
f 72 187 186
f 186 187 341
f 189 60 342
f 342 60 188
f 61 165 188
f 188 165 342
f 165 46 342
f 342 46 162
f 45 189 162
f 162 189 342
f 191 97 343
f 343 97 190
f 96 176 190
f 190 176 343
f 176 62 343
f 343 62 164
f 61 191 164
f 164 191 343
f 192 79 344
f 344 79 181
f 181 80 344
f 344 80 166
f 26 192 166
f 166 192 344
f 35 193 167
f 167 193 345
f 193 36 345
f 345 36 185
f 79 192 185
f 185 192 345
f 26 167 192
f 192 167 345
f 41 195 169
f 169 195 346
f 195 42 346
f 346 42 194
f 35 168 194
f 194 168 346
f 168 34 346
f 346 34 169
f 197 48 347
f 347 48 196
f 41 170 196
f 196 170 347
f 170 83 347
f 347 83 171
f 82 197 171
f 171 197 347
f 174 64 348
f 348 64 199
f 81 198 199
f 199 198 348
f 82 172 198
f 198 172 348
f 172 47 348
f 348 47 174
f 201 64 349
f 349 64 173
f 63 177 173
f 173 177 349
f 177 95 349
f 349 95 200
f 200 94 349
f 349 94 201
f 24 203 204
f 204 203 350
f 203 95 350
f 350 95 175
f 96 202 175
f 175 202 350
f 202 12 350
f 350 12 204
f 51 205 206
f 206 205 351
f 205 72 351
f 351 72 186
f 71 178 186
f 186 178 351
f 178 44 351
f 351 44 206
f 182 76 352
f 352 76 208
f 75 207 208
f 208 207 352
f 207 51 352
f 352 51 206
f 44 182 206
f 206 182 352
f 43 209 210
f 210 209 353
f 209 76 353
f 353 76 183
f 77 184 183
f 183 184 353
f 184 36 353
f 353 36 210
f 60 189 212
f 212 189 354
f 189 45 354
f 354 45 187
f 72 211 187
f 187 211 354
f 211 73 354
f 354 73 212
f 214 86 355
f 355 86 213
f 97 191 213
f 213 191 355
f 191 61 355
f 355 61 188
f 60 214 188
f 188 214 355
f 216 13 356
f 356 13 215
f 12 202 215
f 215 202 356
f 202 96 356
f 356 96 190
f 97 216 190
f 190 216 356
f 36 193 210
f 210 193 357
f 193 35 357
f 357 35 194
f 42 217 194
f 194 217 357
f 217 43 357
f 357 43 210
f 48 219 196
f 196 219 358
f 219 49 358
f 358 49 218
f 42 195 218
f 218 195 358
f 195 41 358
f 358 41 196
f 221 65 359
f 359 65 220
f 48 197 220
f 220 197 359
f 197 82 359
f 359 82 198
f 81 221 198
f 198 221 359
f 94 223 201
f 201 223 360
f 223 93 360
f 360 93 222
f 81 199 222
f 222 199 360
f 64 201 199
f 199 201 360
f 225 22 361
f 361 22 224
f 94 200 224
f 224 200 361
f 200 95 361
f 361 95 203
f 24 225 203
f 203 225 361
f 228 3 362
f 362 3 227
f 23 226 227
f 227 226 362
f 226 24 362
f 362 24 204
f 12 228 204
f 204 228 362
f 68 229 230
f 230 229 363
f 229 73 363
f 363 73 211
f 72 205 211
f 211 205 363
f 205 51 363
f 363 51 230
f 207 75 364
f 364 75 232
f 74 231 232
f 232 231 364
f 231 68 364
f 364 68 230
f 51 207 230
f 230 207 364
f 50 233 234
f 234 233 365
f 233 75 365
f 365 75 208
f 76 209 208
f 208 209 365
f 209 43 365
f 365 43 234
f 214 60 366
f 366 60 212
f 73 236 212
f 212 236 366
f 236 87 366
f 366 87 235
f 86 214 235
f 235 214 366
f 238 14 367
f 367 14 237
f 13 216 237
f 237 216 367
f 216 97 367
f 367 97 213
f 86 238 213
f 213 238 367
f 240 5 368
f 368 5 239
f 3 228 239
f 239 228 368
f 228 12 368
f 368 12 215
f 13 240 215
f 215 240 368
f 43 217 234
f 234 217 369
f 217 42 369
f 369 42 218
f 49 241 218
f 218 241 369
f 241 50 369
f 369 50 234
f 65 243 220
f 220 243 370
f 243 66 370
f 370 66 242
f 49 219 242
f 242 219 370
f 219 48 370
f 370 48 220
f 65 221 245
f 245 221 371
f 221 81 371
f 371 81 222
f 93 244 222
f 222 244 371
f 244 92 371
f 371 92 245
f 22 247 224
f 224 247 372
f 247 21 372
f 372 21 246
f 93 223 246
f 246 223 372
f 223 94 372
f 372 94 224
f 249 22 373
f 373 22 225
f 24 226 225
f 225 226 373
f 226 23 373
f 373 23 248
f 1 249 248
f 248 249 373
f 250 23 374
f 374 23 227
f 3 251 227
f 227 251 374
f 88 252 253
f 253 252 375
f 87 236 252
f 252 236 375
f 236 73 375
f 375 73 229
f 229 68 375
f 375 68 253
f 231 74 376
f 376 74 255
f 89 254 255
f 255 254 376
f 254 88 376
f 376 88 253
f 68 231 253
f 253 231 376
f 67 256 257
f 257 256 377
f 256 74 377
f 377 74 232
f 75 233 232
f 232 233 377
f 233 50 377
f 377 50 257
f 14 238 259
f 259 238 378
f 238 86 378
f 378 86 235
f 87 258 235
f 235 258 378
f 258 15 378
f 378 15 259
f 261 10 379
f 379 10 260
f 5 240 260
f 260 240 379
f 240 13 379
f 379 13 237
f 14 261 237
f 237 261 379
f 5 263 239
f 239 263 380
f 3 239 262
f 262 239 380
f 50 241 257
f 257 241 381
f 241 49 381
f 381 49 242
f 66 264 242
f 242 264 381
f 264 67 381
f 381 67 257
f 92 266 245
f 245 266 382
f 266 91 382
f 382 91 265
f 66 243 265
f 265 243 382
f 243 65 382
f 382 65 245
f 268 20 383
f 383 20 267
f 92 244 267
f 267 244 383
f 244 93 383
f 383 93 246
f 21 268 246
f 246 268 383
f 249 1 384
f 384 1 270
f 2 269 270
f 270 269 384
f 269 21 384
f 384 21 247
f 22 249 247
f 247 249 384
f 23 250 248
f 3 262 251
f 272 16 385
f 385 16 271
f 15 258 271
f 271 258 385
f 258 87 385
f 385 87 252
f 88 272 252
f 252 272 385
f 18 273 274
f 274 273 386
f 16 272 273
f 273 272 386
f 88 254 272
f 272 254 386
f 254 89 386
f 386 89 274
f 90 275 276
f 276 275 387
f 275 89 387
f 387 89 255
f 74 256 255
f 255 256 387
f 256 67 387
f 387 67 276
f 278 11 388
f 388 11 277
f 10 261 277
f 277 261 388
f 261 14 388
f 388 14 259
f 15 278 259
f 259 278 388
f 10 279 260
f 260 279 389
f 263 5 389
f 389 5 260
f 67 264 276
f 276 264 390
f 264 66 390
f 390 66 265
f 91 280 265
f 265 280 390
f 280 90 390
f 390 90 276
f 20 282 267
f 267 282 391
f 282 19 391
f 391 19 281
f 91 266 281
f 281 266 391
f 266 92 391
f 391 92 267
f 20 268 284
f 284 268 392
f 21 269 268
f 268 269 392
f 269 2 392
f 392 2 283
f 283 4 392
f 392 4 284
f 11 278 286
f 286 278 393
f 278 15 393
f 393 15 271
f 271 16 393
f 393 16 285
f 9 286 285
f 285 286 393
f 273 18 394
f 394 18 288
f 8 287 288
f 288 287 394
f 9 285 287
f 287 285 394
f 285 16 394
f 394 16 273
f 17 289 290
f 290 289 395
f 289 18 395
f 395 18 274
f 89 275 274
f 274 275 395
f 275 90 395
f 395 90 290
f 279 10 396
f 396 10 277
f 11 291 277
f 277 291 396
f 292 17 397
f 397 17 290
f 90 280 290
f 290 280 397
f 280 91 397
f 397 91 281
f 19 292 281
f 281 292 397
f 19 282 294
f 294 282 398
f 282 20 398
f 398 20 284
f 4 293 284
f 284 293 398
f 293 6 398
f 398 6 294
f 11 286 291
f 291 286 399
f 286 9 399
f 399 9 295
f 9 287 295
f 295 287 400
f 287 8 400
f 400 8 296
f 18 289 288
f 288 289 401
f 289 17 401
f 401 17 298
f 7 297 298
f 298 297 401
f 297 8 401
f 401 8 288
f 292 19 402
f 402 19 294
f 6 299 294
f 294 299 402
f 299 7 402
f 402 7 298
f 17 292 298
f 298 292 402
f 8 297 296
f 296 297 403
f 297 7 403
f 403 7 300
f 7 299 300

