# https://github.com/mikedh/trimesh
v -0.01497793 -0.02866237 -0.00355554
v -0.02154199 -0.03703765 -0.02109471
v -0.08425007 0.07799103 0.06446746
v -0.04859005 0.04947586 0.07811418
v -0.09127506 0.05979281 0.06198677
v -0.05052474 0.02878691 0.06158367
v -0.08866316 0.02830028 0.04552102
v -0.08171970 0.01418649 0.03607127
v -0.04715444 -0.01832763 0.00719705
v -0.05867632 -0.02505141 -0.00666991
v -0.10254883 0.00832577 0.02558833
v -0.11279470 0.02172520 0.04027519
v -0.11676740 0.06477772 0.05395800
v -0.10798560 0.08748643 0.05153960
v -0.05094916 0.03928268 0.07007140
v -0.09259870 0.04319000 0.05489528
v -0.11811813 0.04174677 0.05038664
v -0.06830119 0.12542635 0.03662586
v -0.07042811 0.09513421 0.06166786
v -0.09172988 0.10905634 0.04513356
v -0.06331517 0.01864436 0.04322025
v -0.06764117 0.02994006 0.05269358
v -0.06964381 0.04141329 0.06148279
v -0.06823702 0.05426483 0.06879267
v -0.06259445 0.06843222 0.07274145
v -0.05189614 0.08180386 0.07338735
v -0.03174491 -0.02439998 0.00106177
v -0.04076264 -0.03200637 -0.01467067
v -0.07271348 -0.03490219 -0.02470225
v -0.13744679 0.01014004 0.03162754
v -0.14160109 0.03581854 0.04484025
v -0.13933741 0.06592342 0.04308981
v -0.11617871 0.12010057 0.01738766
v -0.02909421 -0.04845966 -0.04259005
v -0.05155136 -0.04286579 -0.03462064
v -0.04184652 -0.07622914 -0.09128487
v -0.07318026 -0.06865359 -0.08098245
v -0.10185440 -0.05417133 -0.06986907
v -0.08771582 -0.08076182 -0.10855228
v -0.11699279 -0.05788854 -0.09599844
v -0.13237064 0.09448359 0.03330058
v -0.16322232 0.03329181 0.04097450
v -0.15857204 0.06746419 0.03723538
v -0.15629354 0.09607955 0.01572707
v -0.14858576 0.12392490 -0.02089384
v -0.03566219 -0.06165267 -0.06629944
v -0.06207110 -0.05556278 -0.05724049
v -0.08747822 -0.04538050 -0.04628024
v -0.16513037 0.00527127 0.02477413
v -0.12735847 -0.00385646 0.01089785
v -0.15969842 -0.00997335 -0.00306424
v -0.08816279 0.13973590 0.00413758
v -0.12979530 -0.05187200 -0.12377843
v -0.06070754 -0.01004864 0.01540020
v -0.07475038 -0.01556061 0.00278631
v -0.09232757 -0.02423216 -0.01399010
v -0.11395021 -0.03247843 -0.03671491
v -0.13543657 -0.03679974 -0.05836433
v -0.15131747 -0.03286981 -0.08030578
v -0.15561219 -0.02045306 -0.10192791
v -0.07242763 0.00120708 0.02549532
v -0.08948842 -0.00364090 0.01314569
v -0.11212689 -0.01258590 -0.00438920
v -0.14061275 -0.01982214 -0.02448449
v -0.16909603 -0.01956374 -0.03939667
v -0.18184285 -0.00977368 -0.05843881
v -0.17867002 0.00771290 -0.07906002
v -0.17242372 0.05199227 -0.11640593
v -0.05737242 0.00698828 0.03393644
v -0.02379817 -0.01713350 0.01484630
v -0.03684596 -0.01152162 0.01927474
v -0.04823324 -0.00360909 0.02589259
v -0.16458463 0.12293190 -0.06797281
v -0.17574840 0.09556663 -0.09693816
v -0.04733923 0.01918895 0.05348423
v -0.10932812 0.14699530 -0.04018256
v -0.06662517 0.16072229 -0.05336565
v -0.14476671 0.11328263 -0.13422459
v -0.12619758 0.14182796 -0.09061798
v -0.04922513 0.02387144 0.05749708
v -0.05113051 0.03391969 0.06578976
v -0.04501424 0.01483440 0.04949200
v -0.05467036 0.01942476 0.04796591
v -0.06570198 0.02433620 0.04800954
v -0.05843562 0.02972241 0.05670488
v -0.00650846 -0.02986778 -0.00533709
v -0.01211575 -0.02501232 0.00438184
v -0.05023507 0.04430658 0.07440495
v -0.06900364 0.03560286 0.05716997
v -0.05964699 0.04057053 0.06525218
v -0.04946837 0.00962561 0.03886664
v -0.06061990 0.01278361 0.03850138
v -0.08543923 0.02105992 0.04066026
v -0.07781750 0.02967587 0.04894352
v -0.07230627 0.01674109 0.03950536
v -0.01813751 -0.03260166 -0.01190409
v -0.01168712 -0.03877606 -0.02349293
v -0.02346852 -0.02678204 -0.00143942
v -0.02764494 -0.02098916 0.00808430
v -0.03049345 -0.01452554 0.01679984
v -0.06940927 0.04762686 0.06546155
v -0.05768061 0.05220779 0.07256109
v -0.08080371 0.04235215 0.05829805
v -0.09118595 0.03569903 0.05022106
v -0.04155772 0.00040247 0.03078815
v -0.05320302 0.00144882 0.02975452
v -0.06503668 0.00379594 0.03010195
v -0.07737001 0.00771354 0.03078163
v -0.09170881 0.01203085 0.03097019
v -0.10808193 0.01416021 0.03293738
v -0.10067451 0.02572897 0.04293805
v -0.01748607 -0.05019090 -0.04559830
v -0.02521760 -0.04245309 -0.03128269
v -0.03125577 -0.03478585 -0.01813358
v -0.03611151 -0.02784362 -0.00642553
v -0.03969539 -0.02158669 0.00393471
v -0.04204629 -0.01528803 0.01333195
v -0.04276372 -0.00796380 0.02234143
v -0.09265699 0.05125399 0.05898139
v -0.07959316 0.05678281 0.06564784
v -0.06600219 0.06124467 0.07123652
v -0.05236972 0.06443106 0.07708466
v -0.10535199 0.04318875 0.05240268
v -0.11620321 0.03111793 0.04624650
v -0.05467437 -0.00736812 0.02088553
v -0.06684401 -0.00483236 0.02030975
v -0.08027398 -0.00065891 0.02002704
v -0.09636009 0.00285831 0.01891130
v -0.11427242 0.00229118 0.01882035
v -0.13301467 0.00157768 0.02130952
v -0.12497439 0.01644550 0.03621310
v -0.06095796 0.08822738 0.06769976
v -0.06139691 0.10216636 0.05929431
v -0.05940625 0.11669524 0.04771018
v -0.05440488 0.13022868 0.03148022
v -0.05790976 0.07545118 0.07342237
v -0.02215939 -0.06284235 -0.06986091
v -0.03257321 -0.05480125 -0.05438834
v -0.04598568 -0.03713537 -0.02409756
v -0.04045217 -0.04594258 -0.03891930
v -0.04998068 -0.02881417 -0.01083824
v -0.05261191 -0.02126633 0.00063178
v -0.05412773 -0.01450036 0.01098302
v -0.11847648 0.05307593 0.05302063
v -0.10394049 0.06279671 0.05822647
v -0.08840645 0.06876944 0.06355152
v -0.07320762 0.07308134 0.06884965
v -0.14048855 0.02187096 0.03981447
v -0.13067058 0.03908164 0.04785737
v -0.06712320 -0.01228539 0.00948253
v -0.08222010 -0.00993988 0.00804415
v -0.10018096 -0.00792398 0.00520349
v -0.12047774 -0.00778268 0.00226548
v -0.14256926 -0.00860078 0.00292137
v -0.16401856 -0.00392230 0.01150638
v -0.15079880 0.00568353 0.02745643
v -0.07811126 0.08692333 0.06351066
v -0.08085714 0.10213620 0.05485553
v -0.08079049 0.11822528 0.04094243
v -0.07786803 0.13300563 0.02188411
v -0.07091203 0.14556751 -0.00170472
v -0.06018735 0.15564065 -0.02911696
v -0.03864972 -0.06878462 -0.07855386
v -0.04896626 -0.05915064 -0.06208971
v -0.05697292 -0.04908697 -0.04576644
v -0.06239592 -0.03923968 -0.02982986
v -0.06536386 -0.02968600 -0.01515344
v -0.06690929 -0.02063375 -0.00212798
v -0.12914406 0.06566416 0.04850206
v -0.14108588 0.05098996 0.04568177
v -0.11323813 0.07615319 0.05321559
v -0.09561705 0.08284660 0.05842453
v -0.16482328 0.01781692 0.03471306
v -0.15200046 0.03362115 0.04180393
v -0.08324398 -0.01970918 -0.00500229
v -0.10246601 -0.01837683 -0.00941581
v -0.12560806 -0.01685253 -0.01477447
v -0.15146844 -0.01462715 -0.01528749
v -0.17808897 -0.00907352 -0.00603530
v -0.10092916 0.09863229 0.04865921
v -0.10360034 0.13094773 0.01027372
v -0.10351290 0.11535975 0.03290817
v -0.08866766 0.15582173 -0.04706535
v -0.09894999 0.14470554 -0.01670948
v -0.04546659 -0.08374182 -0.10455364
v -0.05778677 -0.07355718 -0.08642355
v -0.06727585 -0.06206861 -0.06892547
v -0.07501749 -0.05094593 -0.05189186
v -0.08027988 -0.04021639 -0.03516519
v -0.08268122 -0.02983323 -0.01937339
v -0.13678342 0.08050038 0.03909776
v -0.12041819 0.09145927 0.04278028
v -0.16077836 0.05055144 0.04167205
v -0.14860531 0.06635205 0.03935626
v -0.10278687 -0.02864429 -0.02509096
v -0.12787244 -0.02593803 -0.03147352
v -0.15572009 -0.02086177 -0.03238630
v -0.18371080 -0.01238260 -0.02582687
v -0.12561030 0.10774567 0.02560273
v -0.13007346 0.12284014 -0.00054684
v -0.12855633 0.13645452 -0.03212839
v -0.11762774 0.14628710 -0.06524199
v -0.10374558 0.15019857 -0.10114959
v -0.06916166 -0.08801561 -0.11418238
v -0.08013200 -0.07516766 -0.09398437
v -0.08764905 -0.06204256 -0.07541132
v -0.09422866 -0.05014266 -0.05784667
v -0.10012934 -0.03910657 -0.04119727
v -0.15767317 0.08260602 0.02786565
v -0.14417421 0.09595324 0.02330199
v -0.12496926 -0.03531405 -0.04780990
v -0.15288717 -0.02799158 -0.05002648
v -0.17779255 -0.01596783 -0.04828113
v -0.15382637 0.10970619 0.00061947
v -0.14679188 0.13300003 -0.07901844
v -0.15702212 0.12730907 -0.04718235
v -0.13545972 0.13062266 -0.11403659
v -0.09534414 -0.08393636 -0.12476015
v -0.10327614 -0.07013427 -0.10243735
v -0.10940151 -0.05705296 -0.08242327
v -0.11746014 -0.04558461 -0.06450939
v -0.16994112 0.09579008 0.01481262
v -0.14468803 -0.03617013 -0.06907362
v -0.16794785 -0.02112442 -0.06912613
v -0.18152702 -0.00138155 -0.06903568
v -0.17148912 0.11631817 -0.01995170
v -0.17170704 0.11162324 -0.08445379
v -0.16185683 0.10354230 -0.11451244
v -0.18112614 0.11428792 -0.05682394
v -0.12394119 -0.05622062 -0.11002937
v -0.13338052 -0.04527989 -0.08910581
v -0.15469893 -0.02738828 -0.09123152
v -0.16693055 -0.00516951 -0.09093374
v -0.18819237 0.09016534 -0.08145046
v -0.17669094 0.07677074 -0.10678646
v -0.14213793 -0.03597534 -0.11356381
v -0.15439025 -0.01262742 -0.11312580
v -0.18771682 0.05992806 -0.09133193
v -0.05679742 0.02447436 0.05237445
v -0.05941467 0.03506333 0.06102106
v -0.05225402 0.01455125 0.04340944
v -0.07527062 0.02325927 0.04413772
v -0.00904302 -0.03414085 -0.01398084
v -0.01999161 -0.02324975 0.00607276
v -0.05905686 0.04625041 0.06919199
v -0.07967341 0.03587153 0.05383489
v -0.04585699 0.00492038 0.03450999
v -0.06898873 0.01017449 0.03487703
v -0.09657467 0.01847938 0.03705797
v -0.01453649 -0.04426519 -0.03398454
v -0.02722159 -0.03042588 -0.00937074
v -0.03504803 -0.01835342 0.01046845
v -0.08075056 0.04933097 0.06238165
v -0.05545943 0.05824000 0.07517850
v -0.10364765 0.03417649 0.04805657
v -0.06025014 -0.00219876 0.02541983
v -0.08627751 0.00571653 0.02529252
v -0.12005015 0.00823752 0.02751309
v -0.05298029 0.09447629 0.06616357
v -0.02001477 -0.05632746 -0.05769873
v -0.03572785 -0.04004726 -0.02796051
v -0.04461260 -0.02481363 -0.00309020
v -0.04857847 -0.01169270 0.01681381
v -0.10548649 0.05273797 0.05602381
v -0.07710372 0.06478992 0.06784257
v -0.12858460 0.02692032 0.04338050
v -0.07381987 -0.00678564 0.01464942
v -0.10782409 -0.00234707 0.01117843
v -0.14775096 -0.00319324 0.01550037
v -0.06776585 0.08103517 0.06869531
v -0.07074515 0.11024486 0.05153802
v -0.06241528 0.13839427 0.01644620
v -0.02413943 -0.06967732 -0.08226570
v -0.04487416 -0.05231653 -0.05040464
v -0.05588051 -0.03373884 -0.01980937
v -0.06010661 -0.01710424 0.00481468
v -0.13091311 0.05230223 0.04947361
v -0.10067349 0.07281622 0.05894947
v -0.15236307 0.01822864 0.03664127
v -0.09188815 -0.01394057 0.00007948
v -0.13500061 -0.01230839 -0.00713903
v -0.08898601 0.09280717 0.05679247
v -0.09176488 0.12531205 0.02740371
v -0.07981943 0.15204835 -0.02268320
v -0.05311253 -0.06619051 -0.07403672
v -0.06887677 -0.04512763 -0.04059312
v -0.07448186 -0.02497769 -0.01018897
v -0.12569186 0.07864704 0.04622915
v -0.15063420 0.05011604 0.04283231
v -0.11467837 -0.02260748 -0.02061465
v -0.16852485 -0.01461032 -0.02096364
v -0.11310995 0.10388341 0.03815988
v -0.11602845 0.13468115 -0.00969934
v -0.09573981 0.15509963 -0.07348084
v -0.06319801 -0.08104332 -0.09953648
v -0.08103663 -0.05661298 -0.06345683
v -0.09113253 -0.03460847 -0.02966183
v -0.14710072 0.08170473 0.03235152
v -0.14102662 -0.02785288 -0.04120526
v -0.13892584 0.10968684 0.01177365
v -0.13790509 0.13666718 -0.05612990
v -0.11191029 0.13927674 -0.12863022
v -0.07502814 -0.09269250 -0.13079914
v -0.09514496 -0.06681204 -0.08821887
v -0.10882196 -0.04285869 -0.05281639
v -0.16962912 0.08322620 0.02852184
v -0.16219081 -0.02595231 -0.05923507
v -0.17036656 0.10718927 -0.00136143
v -0.15565302 0.12070113 -0.09842554
v -0.17569636 0.11921690 -0.03892604
v -0.11105618 -0.07093488 -0.11783609
v -0.12596231 -0.04662918 -0.07652467
v -0.16858268 -0.01365741 -0.08072343
v -0.18572538 0.10400922 -0.07121691
v -0.16452676 0.08283962 -0.12903088
v -0.13844046 -0.04158738 -0.10156187
v -0.16418955 0.00342308 -0.10078302
v -0.18856086 0.07509878 -0.08818695
v -0.14289058 -0.02885550 -0.12583810
f 22 84 85
f 85 84 239
f 84 21 239
f 239 21 83
f 83 75 239
f 239 75 80
f 6 85 80
f 80 85 239
f 1 86 87
f 85 6 240
f 240 6 81
f 15 90 81
f 81 90 240
f 90 23 240
f 240 23 89
f 22 85 89
f 89 85 240
f 21 92 83
f 83 92 241
f 92 69 241
f 241 69 91
f 91 82 241
f 82 75 241
f 241 75 83
f 21 84 95
f 95 84 242
f 84 22 242
f 242 22 94
f 7 93 94
f 94 93 242
f 93 8 242
f 242 8 95
f 86 1 243
f 243 1 96
f 2 97 96
f 96 97 243
f 27 98 99
f 99 98 244
f 98 1 244
f 244 1 87
f 244 70 99
f 102 24 245
f 245 24 101
f 23 90 101
f 101 90 245
f 90 15 245
f 245 15 88
f 4 102 88
f 88 102 245
f 104 7 246
f 246 7 94
f 94 22 246
f 246 22 89
f 23 103 89
f 89 103 246
f 16 104 103
f 103 104 246
f 69 106 91
f 91 106 247
f 106 72 247
f 247 72 105
f 108 61 248
f 248 61 107
f 69 92 107
f 107 92 248
f 92 21 248
f 248 21 95
f 8 108 95
f 95 108 248
f 12 110 111
f 111 110 249
f 110 11 249
f 249 11 109
f 8 93 109
f 109 93 249
f 93 7 249
f 249 7 111
f 97 2 250
f 250 2 113
f 34 112 113
f 113 112 250
f 98 27 251
f 251 27 115
f 28 114 115
f 115 114 251
f 114 2 251
f 251 2 96
f 1 98 96
f 96 98 251
f 9 116 117
f 117 116 252
f 116 27 252
f 252 27 99
f 70 100 99
f 99 100 252
f 100 71 252
f 252 71 117
f 72 118 105
f 120 5 253
f 253 5 119
f 16 103 119
f 119 103 253
f 103 23 253
f 253 23 101
f 24 120 101
f 101 120 253
f 102 4 254
f 122 25 254
f 254 25 121
f 24 102 121
f 121 102 254
f 124 12 255
f 255 12 111
f 7 104 111
f 111 104 255
f 104 16 255
f 255 16 123
f 17 124 123
f 123 124 255
f 61 126 107
f 107 126 256
f 126 54 256
f 256 54 125
f 72 106 125
f 125 106 256
f 106 69 256
f 256 69 107
f 11 128 109
f 109 128 257
f 128 62 257
f 257 62 127
f 61 108 127
f 127 108 257
f 108 8 257
f 257 8 109
f 110 12 258
f 258 12 131
f 30 130 131
f 131 130 258
f 130 50 258
f 258 50 129
f 11 110 129
f 129 110 258
f 19 132 133
f 133 132 259
f 132 26 259
f 18 134 135
f 25 122 136
f 112 34 260
f 260 34 138
f 46 137 138
f 138 137 260
f 140 34 261
f 261 34 113
f 2 114 113
f 113 114 261
f 114 28 261
f 261 28 139
f 35 140 139
f 139 140 261
f 116 9 262
f 262 9 142
f 10 141 142
f 142 141 262
f 141 28 262
f 262 28 115
f 27 116 115
f 115 116 262
f 54 143 125
f 125 143 263
f 143 9 263
f 263 9 117
f 71 118 117
f 117 118 263
f 118 72 263
f 263 72 125
f 145 13 264
f 264 13 144
f 17 123 144
f 144 123 264
f 123 16 264
f 264 16 119
f 5 145 119
f 119 145 264
f 120 24 265
f 265 24 121
f 25 147 121
f 121 147 265
f 147 3 265
f 265 3 146
f 5 120 146
f 146 120 265
f 17 149 124
f 124 149 266
f 149 31 266
f 266 31 148
f 30 131 148
f 148 131 266
f 12 124 131
f 131 124 266
f 151 55 267
f 267 55 150
f 54 126 150
f 150 126 267
f 126 61 267
f 267 61 127
f 62 151 127
f 127 151 267
f 128 11 268
f 268 11 129
f 50 153 129
f 129 153 268
f 153 63 268
f 268 63 152
f 62 128 152
f 152 128 268
f 49 155 156
f 156 155 269
f 155 51 269
f 269 51 154
f 50 130 154
f 154 130 269
f 130 30 269
f 269 30 156
f 3 147 157
f 157 147 270
f 147 25 270
f 270 25 136
f 26 132 136
f 136 132 270
f 132 19 270
f 270 19 157
f 133 134 271
f 134 18 271
f 271 18 159
f 20 158 159
f 159 158 271
f 158 19 271
f 271 19 133
f 52 160 161
f 161 160 272
f 160 18 272
f 272 18 135
f 163 36 273
f 46 163 137
f 137 163 273
f 34 140 138
f 138 140 274
f 140 35 274
f 274 35 165
f 47 164 165
f 165 164 274
f 164 46 274
f 274 46 138
f 28 141 139
f 139 141 275
f 141 10 275
f 275 10 167
f 29 166 167
f 167 166 275
f 166 35 275
f 275 35 139
f 168 10 276
f 276 10 142
f 9 143 142
f 142 143 276
f 143 54 276
f 276 54 150
f 55 168 150
f 150 168 276
f 31 149 170
f 170 149 277
f 149 17 277
f 277 17 144
f 13 169 144
f 144 169 277
f 169 32 277
f 277 32 170
f 172 14 278
f 278 14 171
f 13 145 171
f 171 145 278
f 145 5 278
f 278 5 146
f 3 172 146
f 146 172 278
f 31 174 148
f 148 174 279
f 174 42 279
f 279 42 173
f 49 156 173
f 173 156 279
f 156 30 279
f 279 30 148
f 151 62 280
f 280 62 152
f 63 176 152
f 152 176 280
f 176 56 280
f 280 56 175
f 55 151 175
f 175 151 280
f 178 64 281
f 281 64 177
f 63 153 177
f 177 153 281
f 153 50 281
f 281 50 154
f 51 178 154
f 154 178 281
f 51 155 179
f 172 3 282
f 282 3 157
f 19 158 157
f 157 158 282
f 158 20 282
f 282 20 180
f 14 172 180
f 180 172 282
f 182 20 283
f 283 20 159
f 18 160 159
f 159 160 283
f 160 52 283
f 283 52 181
f 33 182 181
f 181 182 283
f 184 52 284
f 284 52 161
f 161 162 284
f 77 183 162
f 162 183 284
f 183 76 284
f 284 76 184
f 46 164 163
f 163 164 285
f 164 47 285
f 285 47 187
f 37 186 187
f 187 186 285
f 36 163 186
f 186 163 285
f 35 166 165
f 165 166 286
f 166 29 286
f 286 29 189
f 48 188 189
f 189 188 286
f 188 47 286
f 286 47 165
f 168 55 287
f 287 55 175
f 56 190 175
f 175 190 287
f 190 29 287
f 287 29 167
f 10 168 167
f 167 168 287
f 169 13 288
f 288 13 171
f 14 192 171
f 171 192 288
f 192 41 288
f 288 41 191
f 32 169 191
f 191 169 288
f 174 31 289
f 289 31 170
f 32 194 170
f 170 194 289
f 194 43 289
f 289 43 193
f 42 174 193
f 193 174 289
f 196 57 290
f 290 57 195
f 56 176 195
f 195 176 290
f 176 63 290
f 290 63 177
f 64 196 177
f 177 196 290
f 198 65 291
f 291 65 197
f 64 178 197
f 197 178 291
f 178 51 291
f 291 51 179
f 20 182 180
f 180 182 292
f 182 33 292
f 292 33 199
f 41 192 199
f 199 192 292
f 192 14 292
f 292 14 180
f 52 184 181
f 181 184 293
f 76 201 184
f 184 201 293
f 45 200 201
f 201 200 293
f 33 181 200
f 200 181 293
f 183 77 294
f 203 79 294
f 294 79 202
f 76 183 202
f 202 183 294
f 36 186 185
f 185 186 295
f 186 37 295
f 295 37 205
f 39 204 205
f 205 204 295
f 47 188 187
f 187 188 296
f 188 48 296
f 296 48 207
f 38 206 207
f 207 206 296
f 206 37 296
f 296 37 187
f 208 48 297
f 297 48 189
f 29 190 189
f 189 190 297
f 190 56 297
f 297 56 195
f 57 208 195
f 195 208 297
f 194 32 298
f 298 32 191
f 41 210 191
f 191 210 298
f 44 209 210
f 210 209 298
f 43 194 209
f 209 194 298
f 212 58 299
f 299 58 211
f 57 196 211
f 211 196 299
f 196 64 299
f 299 64 197
f 65 212 197
f 197 212 299
f 65 198 213
f 199 33 300
f 300 33 200
f 45 214 200
f 200 214 300
f 214 44 300
f 300 44 210
f 41 199 210
f 210 199 300
f 45 201 216
f 216 201 301
f 201 76 301
f 301 76 202
f 79 215 202
f 202 215 301
f 73 216 215
f 215 216 301
f 302 78 217
f 79 203 217
f 217 203 302
f 204 39 303
f 303 39 218
f 37 206 205
f 205 206 304
f 206 38 304
f 304 38 220
f 40 219 220
f 220 219 304
f 219 39 304
f 304 39 205
f 221 38 305
f 305 38 207
f 48 208 207
f 207 208 305
f 208 57 305
f 305 57 211
f 58 221 211
f 211 221 305
f 209 44 306
f 306 44 222
f 59 223 224
f 224 223 307
f 58 212 223
f 223 212 307
f 212 65 307
f 307 65 213
f 213 66 307
f 307 66 224
f 44 214 222
f 222 214 308
f 214 45 308
f 308 45 226
f 215 79 309
f 309 79 217
f 78 228 217
f 217 228 309
f 74 227 228
f 228 227 309
f 227 73 309
f 309 73 215
f 45 216 226
f 226 216 310
f 216 73 310
f 310 73 229
f 218 39 311
f 311 39 219
f 40 230 219
f 219 230 311
f 230 53 311
f 231 40 312
f 312 40 220
f 38 221 220
f 220 221 312
f 221 58 312
f 312 58 223
f 59 231 223
f 223 231 312
f 60 232 233
f 233 232 313
f 232 59 313
f 313 59 224
f 66 225 224
f 224 225 313
f 67 233 225
f 225 233 313
f 73 227 229
f 229 227 314
f 227 74 314
f 314 74 234
f 315 68 235
f 74 228 235
f 235 228 315
f 228 78 315
f 236 53 316
f 316 53 230
f 40 231 230
f 230 231 316
f 59 232 231
f 231 232 316
f 60 236 232
f 232 236 316
f 60 233 237
f 237 233 317
f 233 67 317
f 74 235 234
f 234 235 318
f 68 238 235
f 235 238 318
f 236 60 319
f 319 60 237

