# https://github.com/mikedh/trimesh
v 0.00056212 0.07690329 -0.01459384
v 0.02772056 0.06695636 -0.01917273
v -0.02481213 0.07083307 -0.01186997
v -0.04241617 0.05459374 -0.01067719
v 0.04654311 -0.00343814 -0.02490330
v 0.02117157 -0.02937602 -0.02343750
v -0.01062776 -0.03673758 -0.01977903
v -0.03568929 -0.01908584 -0.01443923
v -0.04933740 0.00857627 -0.01150954
v -0.05212960 0.03395712 -0.01031291
v 0.05083238 0.04907065 -0.02322567
v -0.00928277 0.04728485 -0.36568069
v 0.01154839 0.04702505 -0.36379170
v -0.02399282 0.03165896 -0.36369389
v -0.03118332 0.01462277 -0.35877192
v 0.02502079 -0.00782093 -0.34150928
v 0.01494350 -0.02108293 -0.33769310
v 0.00231190 -0.02572938 -0.33740360
v -0.01042911 -0.02408634 -0.34066373
v -0.02143747 -0.01612507 -0.34622800
v -0.02846257 -0.00309544 -0.35272741
v 0.02318734 0.03039920 -0.35724843
v -0.00650935 0.08766952 -0.17179352
v -0.03892432 0.07806543 -0.16913348
v -0.05883870 0.05353013 -0.16618019
v -0.06308767 0.02558657 -0.16245097
v -0.05421157 -0.00152932 -0.15975934
v -0.03327332 -0.02265307 -0.15911490
v -0.00594738 -0.02454541 -0.16057438
v 0.01696203 -0.01255426 -0.16350192
v 0.03721102 0.00241705 -0.16719007
v 0.04632459 0.05333548 -0.17315358
v 0.02534660 0.07827228 -0.17359793
v -0.00135889 0.08521116 -0.06119269
v -0.03041391 0.07820105 -0.05800408
v -0.05098985 0.05893091 -0.05604315
v -0.05779551 0.03352125 -0.05575466
v -0.05352199 0.00632608 -0.05586135
v -0.03643489 -0.01904478 -0.05765647
v -0.00944318 -0.02829930 -0.06217051
v 0.01810749 -0.02012397 -0.06568265
v 0.04024591 0.00032138 -0.06789643
v 0.04714698 0.05166383 -0.06678993
v 0.02776443 0.07484932 -0.06469542
v -0.00815384 0.07518824 -0.22747779
v -0.03499368 0.06673550 -0.22531956
v -0.05213553 0.04535168 -0.22190350
v -0.05532059 0.02001409 -0.21777362
v -0.04695013 -0.00370518 -0.21456969
v -0.02809654 -0.02015045 -0.21281153
v -0.00500742 -0.02156110 -0.21252477
v 0.01446835 -0.01144502 -0.21457386
v 0.03166000 0.00206896 -0.21857208
v 0.03694149 0.04716041 -0.22628820
v 0.01866361 0.06744075 -0.22796512
v -0.00766993 0.06458015 -0.27988338
v -0.03033546 0.05543175 -0.27849400
v -0.04329424 0.03494065 -0.27479917
v -0.04547477 0.01271263 -0.27032417
v -0.03774667 -0.00676646 -0.26613528
v -0.02176002 -0.01834144 -0.26271725
v -0.00389148 -0.01936186 -0.26101065
v 0.01155081 -0.01191721 -0.26220167
v 0.02506740 0.00090583 -0.26579273
v 0.03046227 0.04112760 -0.27537489
v 0.01525482 0.05888168 -0.27894008
v 0.00303167 0.07404611 0.03110129
v -0.02253962 0.06615559 0.03438705
v -0.03920935 0.04925387 0.03524399
v -0.05047083 0.02933399 0.03458247
v -0.04802506 0.00400797 0.03123707
v -0.03385255 -0.02416709 0.02563158
v -0.01061229 -0.04755577 0.01841870
v 0.02596634 -0.04267572 0.01379699
v 0.05257729 -0.00996181 0.01442748
v 0.06018483 0.05017655 0.01872703
v 0.03323308 0.06798582 0.02513841
v -0.00464062 0.09172903 -0.11429697
v 0.02777147 0.08091926 -0.11698371
v 0.04851805 0.05490556 -0.11773658
v 0.03878440 0.00267979 -0.11460537
v 0.01780479 -0.01495061 -0.11237162
v -0.00750089 -0.02637292 -0.10892361
v -0.03665656 -0.02237667 -0.10583603
v -0.05778250 0.00181770 -0.10542375
v -0.06463008 0.03042261 -0.10678738
v -0.05900152 0.05896882 -0.10906225
v -0.03787363 0.08338288 -0.11134285
v -0.00750963 0.05657873 -0.32702726
v -0.02552544 0.04309124 -0.32564968
v -0.03459384 0.02341314 -0.32131428
v -0.03527731 0.00423658 -0.31601888
v -0.02841294 -0.01133942 -0.31085247
v -0.01584439 -0.01995865 -0.30613506
v -0.00166558 -0.02075621 -0.30340916
v 0.01132482 -0.01545067 -0.30371588
v 0.02200060 -0.00305713 -0.30700260
v 0.02670052 0.03542776 -0.31929862
v 0.01387801 0.05300938 -0.32492238
v 0.02822535 0.01196862 -0.34815294
v 0.02811551 0.01483495 -0.31260306
v 0.03350934 0.01909290 -0.27059549
v 0.04099632 0.02254509 -0.22269547
v 0.04924224 0.02475843 -0.17061311
v 0.05101686 0.02635704 -0.11664075
v 0.05074535 0.02534314 -0.06799763
v 0.05823853 0.02393524 -0.02513832
v 0.06813079 0.02079370 0.01484522
v -0.01071327 0.04092395 -0.38985312
v -0.02545519 0.02282224 -0.39000350
v -0.03295952 0.00204184 -0.38730764
v -0.02682140 -0.01551035 -0.38066840
v -0.01844831 -0.02899275 -0.37495971
v -0.00599218 -0.03698497 -0.36917883
v 0.00794467 -0.03937586 -0.36635059
v 0.02205456 -0.03333185 -0.36834925
v 0.03210743 -0.01612247 -0.37332141
v 0.03189459 0.00735311 -0.37927115
v 0.01975713 0.02748674 -0.38558978
v 0.00754147 0.04518901 -0.38894159
v 0.01791399 0.07176930 0.02842015
v 0.04857594 0.06129092 0.02160522
v -0.01082942 0.07210662 0.03310466
v 0.00156970 0.07535002 0.00861928
v 0.01458297 0.07372863 -0.01690292
v 0.03011809 0.06725270 0.00301650
v 0.04077712 0.05931850 -0.02132297
v 0.05567179 0.04975469 -0.00255635
v 0.06695608 0.03632533 0.01647076
v -0.05125917 0.01707342 0.03324327
v -0.04619969 0.04014315 0.03517145
v -0.03138554 0.05775060 0.03501987
v -0.02354854 0.06881385 0.01148772
v -0.01292533 0.07553355 -0.01295972
v -0.00050006 0.08074687 -0.03699994
v 0.01404171 0.08256134 -0.06299347
v 0.02712775 0.07047555 -0.04079330
v 0.03913495 0.06423608 -0.06587404
v 0.04756472 0.05003635 -0.04404753
v 0.05670094 0.03704536 -0.02446896
v 0.06340610 0.02270708 -0.00518307
v 0.06318400 0.00507306 0.01425642
v 0.03909627 -0.02551008 0.01440695
v 0.00708976 -0.05020214 0.01534286
v -0.04132555 -0.00959028 0.02877238
v -0.04865056 0.00774443 0.01000345
v -0.05224578 0.02174625 -0.01078266
v -0.05092441 0.03281802 0.01196405
v -0.04871906 0.04497105 -0.01034981
v -0.03998423 0.05227900 0.01220101
v -0.03462394 0.06348395 -0.01108730
v -0.02738489 0.07405937 -0.03429389
v -0.01657505 0.08336758 -0.05955428
v -0.00317398 0.08921734 -0.08679420
v 0.01240385 0.08877213 -0.11578232
v 0.02784909 0.07872369 -0.08990675
v 0.04026227 0.06914641 -0.11759293
v 0.04772474 0.05370559 -0.09141546
v 0.05341808 0.02506472 -0.04598910
v 0.05082028 0.03836656 -0.06756270
v 0.05495598 0.01018539 -0.02527350
v 0.04970793 -0.00633585 -0.00502816
v 0.03471597 -0.01686063 -0.02417779
v 0.02342855 -0.03575615 -0.00470084
v 0.00536937 -0.03677767 -0.02224088
v -0.01092995 -0.04180964 -0.00051907
v -0.02473439 -0.03837551 0.02189931
v -0.03502610 -0.02053202 0.00592414
v -0.04368280 -0.00524572 -0.01260841
v -0.05078612 0.00793622 -0.03304201
v -0.05679664 0.02010587 -0.05572015
v -0.05484007 0.03410507 -0.03217268
v -0.05607261 0.04654081 -0.05583781
v -0.04675554 0.05708282 -0.03241867
v -0.04221644 0.06983672 -0.05672830
v -0.03459387 0.08183429 -0.08356249
v -0.02192260 0.09015024 -0.11273831
v -0.00566760 0.09139028 -0.14307076
v 0.01010704 0.08512168 -0.17282838
v 0.02711990 0.08089690 -0.14508802
v 0.03773604 0.06717571 -0.17370147
v 0.04834093 0.05482030 -0.14520788
v 0.05193525 0.04022117 -0.11737388
v 0.05023436 0.02614561 -0.09152621
v 0.04330283 -0.00097986 -0.04625541
v 0.04708539 0.01259856 -0.06813079
v 0.03035809 -0.01097359 -0.06701511
v 0.01905981 -0.02333903 -0.04392856
v 0.00458603 -0.02616449 -0.06412798
v -0.01000211 -0.03153876 -0.04061925
v -0.02494061 -0.03118149 -0.01723474
v -0.03525159 -0.01789540 -0.03564715
v -0.04727449 -0.00751986 -0.05626506
v -0.05654781 0.00395766 -0.07984519
v -0.06290892 0.01601796 -0.10592288
v -0.06181163 0.03220765 -0.08038265
v -0.06357986 0.04474968 -0.10787928
v -0.05557685 0.05952504 -0.08147222
v -0.05038096 0.07226746 -0.11018366
v -0.03936572 0.08192702 -0.14028269
v -0.02346069 0.08541662 -0.17054361
v -0.00730342 0.08182944 -0.19990212
v 0.00585244 0.07312388 -0.22790194
v 0.02229020 0.07320851 -0.20126301
v 0.02923427 0.05845746 -0.22744256
v 0.04225628 0.05045340 -0.20030808
v 0.05022356 0.03862242 -0.17208380
v 0.05125216 0.02586321 -0.14327836
v 0.04655659 0.01374650 -0.11560649
v 0.03867918 0.00218372 -0.09059495
v 0.02880132 -0.00661027 -0.11369705
v 0.01790740 -0.01705434 -0.08840448
v 0.00576827 -0.02177617 -0.11075443
v -0.00858078 -0.02668197 -0.08477283
v -0.02322946 -0.02590758 -0.05988783
v -0.03703018 -0.02096851 -0.08094317
v -0.04922277 -0.01184149 -0.10526294
v -0.05676436 0.00003111 -0.13232547
v -0.06030782 0.01175217 -0.16082221
v -0.06499194 0.02815503 -0.13449043
v -0.06258515 0.03949082 -0.16435897
v -0.06023815 0.05680011 -0.13775766
v -0.05088839 0.06684903 -0.16770118
v -0.03703471 0.07278489 -0.19754738
v -0.02228911 0.07303257 -0.22662747
v -0.00800136 0.06947335 -0.25401938
v 0.00435279 0.06356168 -0.27972722
v 0.01646020 0.06273175 -0.25374043
v 0.02412287 0.05106420 -0.27745175
v 0.03311373 0.04404741 -0.25124073
v 0.04554223 0.02359679 -0.19706154
v 0.04095491 0.03483422 -0.22465366
v 0.04460029 0.01264384 -0.16896456
v 0.03860240 0.00258691 -0.14051372
v 0.02752014 -0.00568295 -0.16530389
v 0.01751889 -0.01352190 -0.13758886
v 0.00613352 -0.01939697 -0.16191840
v -0.00658959 -0.02568970 -0.13446552
v -0.02202226 -0.02708326 -0.10713440
v -0.03529158 -0.02299095 -0.13218433
v -0.04535715 -0.01375113 -0.15920448
v -0.05092740 -0.00259943 -0.18745190
v -0.05239964 0.00773238 -0.21595949
v -0.05947781 0.02319221 -0.19032580
v -0.05527611 0.03269188 -0.21986151
v -0.05558933 0.04990515 -0.19433814
v -0.04531744 0.05715127 -0.22371048
v -0.03272311 0.06115820 -0.25234354
v -0.01963031 0.06187052 -0.27945256
v -0.00742369 0.06041287 -0.30433452
v 0.00367173 0.05711908 -0.32633901
v 0.01450109 0.05565779 -0.30272955
v 0.02174946 0.04532440 -0.32255876
v 0.02851228 0.03824164 -0.29814798
v 0.03703474 0.02099825 -0.24719983
v 0.03373613 0.03008965 -0.27304369
v 0.03482012 0.00220250 -0.19316536
v 0.03769684 0.01144919 -0.22066319
v 0.02346186 -0.00522550 -0.21642733
v 0.01593597 -0.01191638 -0.18933690
v 0.00523613 -0.01737593 -0.21324438
v -0.00547500 -0.02313014 -0.18683076
v -0.01944056 -0.02614860 -0.15959388
v -0.03091945 -0.02156556 -0.18631816
v -0.03881852 -0.01357943 -0.21353781
v -0.04246609 -0.00505146 -0.24107343
v -0.04286398 0.00231544 -0.26815146
v -0.05051303 0.01661263 -0.24475062
v -0.04562698 0.02373391 -0.27256560
v -0.04791887 0.04050666 -0.24892890
v -0.03838134 0.04592103 -0.27691728
v -0.02799694 0.04933898 -0.30311900
v -0.01767971 0.05134386 -0.32681906
v -0.00883806 0.05153313 -0.34802365
v 0.00123860 0.05080924 -0.36531729
v 0.01237455 0.04948238 -0.34585202
v 0.01867695 0.03934777 -0.36105508
v 0.02481702 0.03271617 -0.33914775
v 0.03031320 0.01705196 -0.29243666
v 0.02869412 0.02496583 -0.31590444
v 0.02812593 0.00176847 -0.24280882
v 0.03031269 0.00925098 -0.26812023
v 0.01859266 -0.00604802 -0.26373607
v 0.01291545 -0.01141349 -0.23900259
v 0.00413364 -0.01657144 -0.26125658
v -0.00450703 -0.02020884 -0.23732781
v -0.01634200 -0.02257581 -0.21238631
v -0.02500570 -0.01890442 -0.23841304
v -0.03050540 -0.01388223 -0.26430148
v -0.03298010 -0.00906080 -0.28962016
v -0.03278308 -0.00427961 -0.31340569
v -0.04046945 0.00829456 -0.29426593
v -0.03573819 0.01363449 -0.31868553
v -0.03887852 0.02897862 -0.29909110
v -0.03131457 0.03348724 -0.32374495
v -0.02446438 0.03688559 -0.34607309
v -0.01667964 0.03940217 -0.36484754
v -0.00963452 0.04297932 -0.37935466
v -0.00271243 0.04796061 -0.38924444
v 0.00970137 0.04522785 -0.37821716
v 0.01421116 0.03713212 -0.38776767
v 0.02149324 0.02830151 -0.37291104
v 0.02643721 0.02128320 -0.35268265
v 0.02741823 0.01304462 -0.33118510
v 0.02279265 -0.00066570 -0.28732073
v 0.02569337 0.00548101 -0.30957907
v 0.01714358 -0.01017978 -0.30503112
v 0.01093435 -0.01331097 -0.28395903
v 0.00501092 -0.01889867 -0.30317968
v -0.00292821 -0.01950710 -0.28324628
v -0.01260377 -0.02005255 -0.26152813
v -0.01861145 -0.01880565 -0.28549302
v -0.02265804 -0.01663092 -0.30837989
v -0.02441782 -0.01353106 -0.32977146
v -0.02556109 -0.01019532 -0.34943134
v -0.03102775 0.00056941 -0.33553135
v -0.03035504 0.00522050 -0.35594863
v -0.03195654 0.01863918 -0.34118700
v -0.02951707 0.02332776 -0.36163819
v -0.02468042 0.02634941 -0.37825859
v -0.01751938 0.03178801 -0.39010888
v -0.01262414 0.04338679 -0.39963788
v 0.01817438 0.03045677 -0.39722878
v 0.02587768 0.01776519 -0.38262236
v 0.02980991 0.00907951 -0.36441368
v 0.02780914 0.00186877 -0.34455532
v 0.02279205 -0.00552842 -0.32501501
v 0.02060436 -0.01568921 -0.33918238
v 0.01270521 -0.01799254 -0.32158756
v 0.00879343 -0.02425554 -0.33707213
v 0.00017498 -0.02278337 -0.32142431
v -0.00868303 -0.02123037 -0.30442005
v -0.01304339 -0.02162740 -0.32451153
v -0.01628645 -0.02084665 -0.34325033
v -0.01970758 -0.02223770 -0.36033040
v -0.02312930 -0.02271594 -0.37767565
v -0.02739356 -0.00978036 -0.36741704
v -0.03013887 -0.00743956 -0.38422722
v -0.03167485 0.00758107 -0.37418431
v -0.03221594 0.01313926 -0.38929731
v -0.02608068 0.02353133 -0.40094650
v 0.03007136 0.00794375 -0.39277518
v 0.03426085 -0.00448725 -0.37614387
v 0.02841631 -0.01183878 -0.35713178
v 0.02786968 -0.02597771 -0.37071055
v 0.01832332 -0.02629824 -0.35243475
v 0.01505529 -0.03778588 -0.36674899
v 0.00509359 -0.03138852 -0.35142571
v -0.00418227 -0.02567143 -0.33865649
v -0.00803986 -0.02972370 -0.35452247
v -0.01266287 -0.03386343 -0.37194306
v -0.01927605 -0.03407382 -0.38848507
v -0.02740882 -0.01878246 -0.39221525
v -0.03258832 -0.00006532 -0.39986926
v 0.03334907 -0.01742309 -0.38869381
v 0.02530291 -0.03864135 -0.38350880
v 0.01067236 -0.04675040 -0.37997997
v 0.00088724 -0.03882540 -0.36714590
v -0.00499415 -0.04440523 -0.38250417
v 0.01584497 0.07245491 0.00602171
v 0.04462609 0.06031915 -0.00015247
v -0.01189453 0.07396919 0.01037240
v 0.01416455 0.07801987 -0.03881633
v 0.03877541 0.06127167 -0.04255366
v 0.06206778 0.03690246 -0.00417528
v -0.05169582 0.02080598 0.01121819
v -0.04659557 0.04324219 0.01217636
v -0.03264369 0.06092700 0.01221094
v -0.01472138 0.07899375 -0.03556442
v 0.01314341 0.08639714 -0.08840197
v 0.03979810 0.06738087 -0.09087235
v 0.05237761 0.03778009 -0.04523283
v 0.05922903 0.00805158 -0.00546730
v 0.03717868 -0.02107945 -0.00478390
v 0.00613617 -0.04291661 -0.00328603
v -0.04225558 -0.00595048 0.00828913
v -0.05395548 0.02133188 -0.03252852
v -0.05241968 0.04615503 -0.03218144
v -0.03813188 0.06649316 -0.03311604
v -0.01948617 0.08763478 -0.08511657
v 0.01152831 0.08847376 -0.14425975
v 0.03980327 0.06917427 -0.14547688
v 0.05095929 0.03958795 -0.09165239
v 0.05053618 0.01204899 -0.04636562
v 0.03228910 -0.01327273 -0.04528123
v 0.00470061 -0.02983933 -0.04256797
v -0.02513804 -0.03413651 0.00280023
v -0.04488331 -0.00567950 -0.03390437
v -0.06071950 0.01812068 -0.08001238
v -0.06038053 0.04603647 -0.08085674
v -0.04695185 0.07192496 -0.08232814
v -0.02330112 0.08938141 -0.14168537
v 0.00806406 0.07945622 -0.20074302
v 0.03404568 0.06317229 -0.20115161
v 0.05204714 0.03994831 -0.14440626
v 0.04599585 0.01359434 -0.09116381
v 0.02925135 -0.00815852 -0.08968574
v 0.00517444 -0.02356543 -0.08677858
v -0.02347909 -0.02727102 -0.03816044
v -0.04901762 -0.00983063 -0.07992750
v -0.06267411 0.01390475 -0.13316786
v -0.06420550 0.04240166 -0.13613528
v -0.05184337 0.07048145 -0.13902205
v -0.02286324 0.07966552 -0.19885540
v 0.00482426 0.06786324 -0.25414014
v 0.02611841 0.05452464 -0.25279564
v 0.04607244 0.03674758 -0.19886810
v 0.04653402 0.01327329 -0.14189959
v 0.02840014 -0.00595570 -0.13911825
v 0.00611029 -0.02046970 -0.13599890
v -0.02281176 -0.02622469 -0.08270425
v -0.04777625 -0.01314727 -0.13194579
v -0.05658606 0.00993439 -0.18865108
v -0.05914252 0.03661766 -0.19236982
v -0.04815438 0.06234969 -0.19602096
v -0.02093212 0.06717060 -0.25338870
v 0.00408655 0.06005256 -0.30388308
v 0.02286034 0.04801786 -0.30076104
v 0.03685635 0.03253917 -0.24932724
v 0.04145361 0.01201357 -0.19513553
v 0.02579781 -0.00543244 -0.19116610
v 0.00575003 -0.01834864 -0.18783939
v -0.02082250 -0.02711977 -0.13311416
v -0.04241835 -0.01375199 -0.18667966
v -0.04772983 0.00523153 -0.24278277
v -0.05062684 0.02855091 -0.24684662
v -0.04201773 0.05181994 -0.25080329
v -0.01857132 0.05678255 -0.30412591
v 0.00211919 0.05310463 -0.34748411
v 0.02016903 0.04202216 -0.34298521
v 0.03096052 0.02752217 -0.29531229
v 0.03385354 0.01053332 -0.24497753
v 0.02078632 -0.00529679 -0.24078918
v 0.00461829 -0.01671422 -0.23780900
v -0.01803535 -0.02448800 -0.18634778
v -0.03474700 -0.01343462 -0.23962885
v -0.03782296 -0.00115002 -0.29190135
v -0.04076755 0.01844510 -0.29665953
v -0.03468116 0.03951616 -0.30131274
v -0.01747081 0.04491912 -0.34750801
v -0.00038534 0.04863363 -0.37920487
v 0.01663622 0.03718599 -0.37594301
v 0.02698605 0.02320812 -0.33478332
v 0.02731985 0.00760283 -0.28971761
v 0.01723736 -0.00769965 -0.28536481
v 0.00420432 -0.01726181 -0.28323358
v -0.01457427 -0.02100460 -0.23755014
v -0.02636336 -0.01506369 -0.28744054
v -0.02845596 -0.00713013 -0.33265084
v -0.03208715 0.00928695 -0.33840215
v -0.02988595 0.02795556 -0.34388554
v -0.01663142 0.03444924 -0.37901789
v -0.00492489 0.05038875 -0.39927256
v 0.02606170 0.01889498 -0.36877495
v 0.02582482 0.00342208 -0.32786065
v 0.01830436 -0.01285614 -0.32289177
v 0.00662232 -0.02113107 -0.32108957
v -0.01058879 -0.02014743 -0.28403664
v -0.01914982 -0.01840802 -0.32697433
v -0.02422023 -0.01662389 -0.36372864
v -0.02986379 -0.00164054 -0.37101650
v -0.03061497 0.01747035 -0.37663770
v -0.01894236 0.03371875 -0.40020478
v 0.02439819 0.01964957 -0.39499712
v 0.03065453 -0.00149363 -0.36048603
v 0.02413833 -0.02028789 -0.35439509
v 0.01179589 -0.02988896 -0.35139728
v -0.00649216 -0.02302233 -0.32261050
v -0.01415098 -0.02661769 -0.35724491
v -0.02383387 -0.02634565 -0.39030033
v -0.03058861 -0.01066092 -0.39596277
v -0.03189211 0.01214722 -0.40127504
v 0.03407095 -0.00453427 -0.39079237
v 0.03024865 -0.02934263 -0.38623524
v 0.01833802 -0.04444963 -0.38104063
v -0.00157251 -0.03129484 -0.35249460
v -0.01273671 -0.04039558 -0.38535994
v 0.00296707 -0.04647752 -0.38059294
f 2 125 126
f 126 125 360
f 125 1 360
f 360 1 124
f 67 121 124
f 124 121 360
f 121 77 360
f 360 77 126
f 128 11 361
f 361 11 127
f 127 2 361
f 361 2 126
f 77 122 126
f 126 122 361
f 122 76 361
f 361 76 128
f 1 134 124
f 124 134 362
f 134 3 362
f 362 3 133
f 68 123 133
f 133 123 362
f 123 67 362
f 362 67 124
f 137 44 363
f 363 44 136
f 136 34 363
f 363 34 135
f 1 125 135
f 135 125 363
f 2 137 125
f 125 137 363
f 139 43 364
f 364 43 138
f 44 137 138
f 138 137 364
f 137 2 364
f 364 2 127
f 11 139 127
f 127 139 364
f 76 129 128
f 128 129 365
f 129 108 365
f 365 108 141
f 141 107 365
f 365 107 140
f 11 128 140
f 140 128 365
f 148 10 366
f 366 10 147
f 9 146 147
f 147 146 366
f 146 71 366
f 366 71 130
f 70 148 130
f 130 148 366
f 4 149 150
f 150 149 367
f 10 148 149
f 149 148 367
f 70 131 148
f 148 131 367
f 131 69 367
f 367 69 150
f 3 151 133
f 133 151 368
f 4 150 151
f 151 150 368
f 69 132 150
f 150 132 368
f 132 68 368
f 368 68 133
f 34 153 135
f 135 153 369
f 153 35 369
f 369 35 152
f 3 134 152
f 152 134 369
f 134 1 369
f 369 1 135
f 79 155 156
f 156 155 370
f 155 78 370
f 370 78 154
f 34 136 154
f 154 136 370
f 136 44 370
f 370 44 156
f 80 157 158
f 158 157 371
f 157 79 371
f 371 79 156
f 44 138 156
f 156 138 371
f 138 43 371
f 371 43 158
f 43 139 160
f 160 139 372
f 139 11 372
f 372 11 140
f 107 159 140
f 140 159 372
f 159 106 372
f 372 106 160
f 75 162 142
f 142 162 373
f 162 5 373
f 373 5 161
f 107 141 161
f 161 141 373
f 108 142 141
f 141 142 373
f 164 6 374
f 374 6 163
f 5 162 163
f 163 162 374
f 162 75 374
f 374 75 143
f 74 164 143
f 143 164 374
f 166 7 375
f 375 7 165
f 6 164 165
f 165 164 375
f 164 74 375
f 375 74 144
f 73 166 144
f 144 166 375
f 146 9 376
f 376 9 169
f 8 168 169
f 169 168 376
f 168 72 376
f 376 72 145
f 71 146 145
f 145 146 376
f 37 171 172
f 172 171 377
f 38 170 171
f 171 170 377
f 170 9 377
f 377 9 147
f 10 172 147
f 147 172 377
f 36 173 174
f 174 173 378
f 173 37 378
f 378 37 172
f 10 149 172
f 172 149 378
f 149 4 378
f 378 4 174
f 35 175 152
f 152 175 379
f 175 36 379
f 379 36 174
f 4 151 174
f 174 151 379
f 151 3 379
f 379 3 152
f 78 177 154
f 154 177 380
f 177 88 380
f 380 88 176
f 35 153 176
f 176 153 380
f 153 34 380
f 380 34 154
f 33 179 180
f 180 179 381
f 179 23 381
f 381 23 178
f 78 155 178
f 178 155 381
f 155 79 381
f 381 79 180
f 32 181 182
f 182 181 382
f 181 33 382
f 382 33 180
f 79 157 180
f 180 157 382
f 157 80 382
f 382 80 182
f 158 43 383
f 383 43 160
f 106 184 160
f 160 184 383
f 184 105 383
f 383 105 183
f 183 80 383
f 383 80 158
f 106 159 186
f 186 159 384
f 159 107 384
f 384 107 161
f 5 185 161
f 161 185 384
f 185 42 384
f 384 42 186
f 188 41 385
f 385 41 187
f 42 185 187
f 187 185 385
f 185 5 385
f 385 5 163
f 6 188 163
f 163 188 385
f 190 40 386
f 386 40 189
f 41 188 189
f 189 188 386
f 188 6 386
f 386 6 165
f 7 190 165
f 165 190 386
f 168 8 387
f 387 8 191
f 7 166 191
f 191 166 387
f 166 73 387
f 387 73 167
f 72 168 167
f 167 168 387
f 170 38 388
f 388 38 193
f 39 192 193
f 193 192 388
f 192 8 388
f 388 8 169
f 9 170 169
f 169 170 388
f 86 195 196
f 196 195 389
f 195 85 389
f 389 85 194
f 38 171 194
f 194 171 389
f 171 37 389
f 389 37 196
f 87 197 198
f 198 197 390
f 197 86 390
f 390 86 196
f 37 173 196
f 196 173 390
f 173 36 390
f 390 36 198
f 88 199 176
f 176 199 391
f 199 87 391
f 391 87 198
f 36 175 198
f 198 175 391
f 175 35 391
f 391 35 176
f 23 201 178
f 178 201 392
f 201 24 392
f 392 24 200
f 88 177 200
f 200 177 392
f 177 78 392
f 392 78 178
f 55 203 204
f 204 203 393
f 203 45 393
f 393 45 202
f 23 179 202
f 202 179 393
f 179 33 393
f 393 33 204
f 54 205 206
f 206 205 394
f 205 55 394
f 394 55 204
f 33 181 204
f 204 181 394
f 181 32 394
f 394 32 206
f 80 183 182
f 182 183 395
f 105 208 183
f 183 208 395
f 208 104 395
f 395 104 207
f 207 32 395
f 395 32 182
f 42 210 186
f 186 210 396
f 210 81 396
f 396 81 209
f 105 184 209
f 209 184 396
f 184 106 396
f 396 106 186
f 212 82 397
f 397 82 211
f 81 210 211
f 211 210 397
f 210 42 397
f 397 42 187
f 41 212 187
f 187 212 397
f 214 83 398
f 398 83 213
f 82 212 213
f 213 212 398
f 212 41 398
f 398 41 189
f 40 214 189
f 189 214 398
f 192 39 399
f 399 39 215
f 40 190 215
f 215 190 399
f 190 7 399
f 399 7 191
f 8 192 191
f 191 192 399
f 194 85 400
f 400 85 217
f 84 216 217
f 217 216 400
f 216 39 400
f 400 39 193
f 38 194 193
f 193 194 400
f 26 219 220
f 220 219 401
f 27 218 219
f 219 218 401
f 218 85 401
f 401 85 195
f 195 86 401
f 401 86 220
f 25 221 222
f 222 221 402
f 221 26 402
f 402 26 220
f 86 197 220
f 220 197 402
f 197 87 402
f 402 87 222
f 24 223 200
f 200 223 403
f 223 25 403
f 403 25 222
f 87 199 222
f 222 199 403
f 199 88 403
f 403 88 200
f 45 225 202
f 202 225 404
f 225 46 404
f 404 46 224
f 24 201 224
f 224 201 404
f 201 23 404
f 404 23 202
f 66 227 228
f 228 227 405
f 227 56 405
f 405 56 226
f 45 203 226
f 226 203 405
f 203 55 405
f 405 55 228
f 230 65 406
f 406 65 229
f 66 228 229
f 229 228 406
f 55 205 228
f 228 205 406
f 54 230 205
f 205 230 406
f 54 206 232
f 232 206 407
f 206 32 407
f 407 32 207
f 104 231 207
f 207 231 407
f 231 103 407
f 407 103 232
f 81 234 209
f 209 234 408
f 234 31 408
f 408 31 233
f 104 208 233
f 233 208 408
f 208 105 408
f 408 105 209
f 236 30 409
f 409 30 235
f 31 234 235
f 235 234 409
f 234 81 409
f 409 81 211
f 82 236 211
f 211 236 409
f 238 29 410
f 410 29 237
f 30 236 237
f 237 236 410
f 236 82 410
f 410 82 213
f 83 238 213
f 213 238 410
f 216 84 411
f 411 84 239
f 83 214 239
f 239 214 411
f 214 40 411
f 411 40 215
f 39 216 215
f 215 216 411
f 218 27 412
f 412 27 241
f 28 240 241
f 241 240 412
f 240 84 412
f 412 84 217
f 85 218 217
f 217 218 412
f 244 48 413
f 413 48 243
f 49 242 243
f 243 242 413
f 242 27 413
f 413 27 219
f 26 244 219
f 219 244 413
f 47 245 246
f 246 245 414
f 245 48 414
f 414 48 244
f 26 221 244
f 244 221 414
f 221 25 414
f 414 25 246
f 46 247 224
f 224 247 415
f 247 47 415
f 415 47 246
f 25 223 246
f 246 223 415
f 223 24 415
f 415 24 224
f 56 249 226
f 226 249 416
f 249 57 416
f 416 57 248
f 46 225 248
f 248 225 416
f 225 45 416
f 416 45 226
f 252 99 417
f 417 99 251
f 89 250 251
f 251 250 417
f 56 227 250
f 250 227 417
f 227 66 417
f 417 66 252
f 254 98 418
f 418 98 253
f 99 252 253
f 253 252 418
f 252 66 418
f 418 66 229
f 65 254 229
f 229 254 418
f 65 230 256
f 256 230 419
f 230 54 419
f 419 54 232
f 103 255 232
f 232 255 419
f 255 102 419
f 419 102 256
f 103 231 258
f 258 231 420
f 231 104 420
f 420 104 233
f 31 257 233
f 233 257 420
f 257 53 420
f 420 53 258
f 260 52 421
f 421 52 259
f 53 257 259
f 259 257 421
f 257 31 421
f 421 31 235
f 30 260 235
f 235 260 421
f 262 51 422
f 422 51 261
f 52 260 261
f 261 260 422
f 260 30 422
f 422 30 237
f 29 262 237
f 237 262 422
f 240 28 423
f 423 28 263
f 29 238 263
f 263 238 423
f 238 83 423
f 423 83 239
f 84 240 239
f 239 240 423
f 242 49 424
f 424 49 265
f 50 264 265
f 265 264 424
f 264 28 424
f 424 28 241
f 27 242 241
f 241 242 424
f 268 59 425
f 425 59 267
f 60 266 267
f 267 266 425
f 266 49 425
f 425 49 243
f 243 48 425
f 425 48 268
f 58 269 270
f 270 269 426
f 269 59 426
f 426 59 268
f 48 245 268
f 268 245 426
f 245 47 426
f 426 47 270
f 57 271 248
f 248 271 427
f 271 58 427
f 427 58 270
f 47 247 270
f 270 247 427
f 247 46 427
f 427 46 248
f 250 89 428
f 428 89 273
f 90 272 273
f 273 272 428
f 57 249 272
f 272 249 428
f 249 56 428
f 428 56 250
f 276 13 429
f 429 13 275
f 12 274 275
f 275 274 429
f 274 89 429
f 429 89 251
f 99 276 251
f 251 276 429
f 278 22 430
f 430 22 277
f 13 276 277
f 277 276 430
f 276 99 430
f 430 99 253
f 98 278 253
f 253 278 430
f 98 254 280
f 280 254 431
f 254 65 431
f 431 65 256
f 102 279 256
f 256 279 431
f 279 101 431
f 431 101 280
f 102 255 282
f 282 255 432
f 255 103 432
f 432 103 258
f 53 281 258
f 258 281 432
f 281 64 432
f 432 64 282
f 284 63 433
f 433 63 283
f 64 281 283
f 283 281 433
f 281 53 433
f 433 53 259
f 52 284 259
f 259 284 433
f 286 62 434
f 434 62 285
f 63 284 285
f 285 284 434
f 284 52 434
f 434 52 261
f 51 286 261
f 261 286 434
f 264 50 435
f 435 50 287
f 51 262 287
f 287 262 435
f 262 29 435
f 435 29 263
f 28 264 263
f 263 264 435
f 266 60 436
f 436 60 289
f 61 288 289
f 289 288 436
f 288 50 436
f 436 50 265
f 49 266 265
f 265 266 436
f 92 291 292
f 292 291 437
f 291 93 437
f 437 93 290
f 290 60 437
f 437 60 267
f 59 292 267
f 267 292 437
f 91 293 294
f 294 293 438
f 293 92 438
f 438 92 292
f 59 269 292
f 292 269 438
f 269 58 438
f 438 58 294
f 90 295 272
f 272 295 439
f 295 91 439
f 439 91 294
f 58 271 294
f 294 271 439
f 271 57 439
f 439 57 272
f 274 12 440
f 440 12 297
f 14 296 297
f 297 296 440
f 296 90 440
f 440 90 273
f 89 274 273
f 273 274 440
f 300 120 441
f 441 120 299
f 109 298 299
f 299 298 441
f 298 12 441
f 441 12 275
f 13 300 275
f 275 300 441
f 302 119 442
f 442 119 301
f 120 300 301
f 301 300 442
f 300 13 442
f 442 13 277
f 22 302 277
f 277 302 442
f 278 98 443
f 443 98 280
f 101 304 280
f 280 304 443
f 304 100 443
f 443 100 303
f 22 278 303
f 303 278 443
f 101 279 306
f 306 279 444
f 279 102 444
f 444 102 282
f 64 305 282
f 282 305 444
f 305 97 444
f 444 97 306
f 308 96 445
f 445 96 307
f 97 305 307
f 307 305 445
f 305 64 445
f 445 64 283
f 63 308 283
f 283 308 445
f 310 95 446
f 446 95 309
f 96 308 309
f 309 308 446
f 308 63 446
f 446 63 285
f 62 310 285
f 285 310 446
f 288 61 447
f 447 61 311
f 62 286 311
f 311 286 447
f 286 51 447
f 447 51 287
f 50 288 287
f 287 288 447
f 93 313 290
f 290 313 448
f 313 94 448
f 448 94 312
f 61 289 312
f 312 289 448
f 289 60 448
f 448 60 290
f 21 315 316
f 316 315 449
f 315 20 449
f 449 20 314
f 93 291 314
f 314 291 449
f 291 92 449
f 449 92 316
f 15 317 318
f 318 317 450
f 317 21 450
f 450 21 316
f 92 293 316
f 316 293 450
f 293 91 450
f 450 91 318
f 14 319 296
f 296 319 451
f 319 15 451
f 451 15 318
f 91 295 318
f 318 295 451
f 295 90 451
f 451 90 296
f 298 109 452
f 452 109 321
f 110 320 321
f 321 320 452
f 320 14 452
f 452 14 297
f 12 298 297
f 297 298 452
f 322 109 453
f 453 109 299
f 119 323 301
f 302 22 454
f 454 22 303
f 100 325 303
f 303 325 454
f 325 118 454
f 454 118 324
f 119 302 324
f 324 302 454
f 97 327 306
f 306 327 455
f 327 16 455
f 455 16 326
f 100 304 326
f 326 304 455
f 304 101 455
f 455 101 306
f 329 17 456
f 456 17 328
f 16 327 328
f 328 327 456
f 327 97 456
f 456 97 307
f 96 329 307
f 307 329 456
f 331 18 457
f 457 18 330
f 17 329 330
f 330 329 457
f 329 96 457
f 457 96 309
f 95 331 309
f 309 331 457
f 94 332 312
f 312 332 458
f 332 95 458
f 458 95 310
f 62 311 310
f 310 311 458
f 311 61 458
f 458 61 312
f 20 334 314
f 314 334 459
f 334 19 459
f 459 19 333
f 94 313 333
f 333 313 459
f 313 93 459
f 459 93 314
f 112 336 337
f 337 336 460
f 336 113 460
f 460 113 335
f 20 315 335
f 335 315 460
f 315 21 460
f 460 21 337
f 111 338 339
f 339 338 461
f 338 112 461
f 461 112 337
f 21 317 337
f 337 317 461
f 317 15 461
f 461 15 339
f 320 110 462
f 462 110 340
f 340 111 462
f 462 111 339
f 15 319 339
f 339 319 462
f 14 320 319
f 319 320 462
f 110 321 341
f 341 321 463
f 321 109 463
f 463 109 322
f 323 119 464
f 464 119 324
f 118 342 324
f 324 342 464
f 344 117 465
f 465 117 343
f 118 325 343
f 343 325 465
f 325 100 465
f 465 100 326
f 16 344 326
f 326 344 465
f 346 116 466
f 466 116 345
f 117 344 345
f 345 344 466
f 344 16 466
f 466 16 328
f 17 346 328
f 328 346 466
f 348 115 467
f 467 115 347
f 116 346 347
f 347 346 467
f 346 17 467
f 467 17 330
f 18 348 330
f 330 348 467
f 19 349 333
f 333 349 468
f 349 18 468
f 468 18 331
f 95 332 331
f 331 332 468
f 332 94 468
f 468 94 333
f 113 351 335
f 335 351 469
f 351 114 469
f 469 114 350
f 19 334 350
f 350 334 469
f 334 20 469
f 469 20 335
f 113 336 352
f 352 336 470
f 336 112 470
f 470 112 353
f 112 338 353
f 353 338 471
f 338 111 471
f 471 111 354
f 111 340 354
f 354 340 472
f 340 110 472
f 472 110 341
f 342 118 473
f 473 118 343
f 117 355 343
f 343 355 473
f 355 117 474
f 474 117 345
f 116 356 345
f 345 356 474
f 356 116 475
f 475 116 347
f 115 357 347
f 347 357 475
f 114 358 350
f 350 358 476
f 358 115 476
f 476 115 348
f 18 349 348
f 348 349 476
f 349 19 476
f 476 19 350
f 114 351 359
f 359 351 477
f 351 113 477
f 477 113 352
f 357 115 478
f 478 115 358
f 358 114 478
f 478 114 359

