# https://github.com/mikedh/trimesh
v -0.09038155 0.04187953 -0.04660511
v -0.17719541 0.00267174 -0.04820040
v -0.14020960 -0.00336548 -0.04979640
v -0.13385643 -0.04222635 -0.02315077
v -0.16945724 -0.03748725 -0.02680278
v -0.11867724 -0.02125571 0.03759733
v -0.15785585 -0.02403929 0.03072470
v -0.15628164 -0.00531216 0.03981271
v -0.11602469 0.00134762 0.04447410
v -0.13845901 0.02595240 -0.05003375
v -0.17792206 0.03043596 -0.04503387
v -0.13030542 0.05079475 -0.03116491
v -0.17260514 0.05154311 -0.02284768
v -0.11720048 0.04499688 0.02244174
v -0.15895008 0.03761142 0.02725253
v -0.05015774 -0.06093346 -0.00801834
v -0.06244962 -0.05027485 -0.03501320
v -0.05688362 -0.01212523 -0.06858137
v -0.09872006 0.01680744 -0.05852187
v -0.05565688 0.00998561 -0.07462260
v -0.10053174 -0.00953111 -0.05610526
v -0.09774809 -0.04708255 -0.02515143
v -0.09154765 -0.05051525 0.00206801
v -0.08516671 -0.04004632 0.02719995
v -0.07874107 -0.01885585 0.04384759
v -0.07439864 0.00945033 0.04693061
v -0.07789183 0.05211103 0.00890598
v -0.28598927 0.01378936 0.03408316
v -0.29283608 0.03181557 -0.02711135
v -0.25583257 0.00541218 -0.04088739
v -0.24400066 -0.02682101 -0.02682683
v -0.23606829 -0.03121007 0.02483743
v -0.23814653 -0.01680052 0.03679869
v -0.26161174 0.02994300 -0.03301561
v -0.25812067 0.04391868 -0.00761312
v -0.24934362 0.02180832 0.03160641
v -0.28398193 -0.02468246 0.03945306
v -0.28507893 -0.03698489 0.02542591
v -0.29446085 -0.02405932 -0.02107722
v -0.29556899 0.00435187 -0.03969797
v -0.21616881 0.00666662 -0.04437706
v -0.21945150 0.03181695 -0.03774318
v -0.21723385 0.04905272 -0.01455823
v -0.20422666 0.03130155 0.02977359
v -0.19708185 -0.01033229 0.03739217
v -0.19694819 -0.02783066 0.02721801
v -0.20657377 -0.03214345 -0.02920398
v -0.12828438 -0.04695907 0.00040671
v -0.16481231 -0.04481386 -0.00482488
v -0.20267181 -0.04237815 -0.00918180
v -0.24119030 -0.03587082 -0.01041681
v -0.29165103 -0.03160833 -0.00730562
v -0.12289827 -0.03810204 0.02144101
v -0.16075079 -0.03821786 0.01565233
v -0.19922449 -0.03958924 0.01119134
v -0.23777242 -0.03791270 0.00765654
v -0.28775238 -0.03786859 0.00770101
v -0.07412781 0.03539870 0.03383851
v -0.11530654 0.02497026 0.03892317
v -0.15639620 0.01672502 0.03910139
v -0.19963072 0.01054854 0.03848395
v -0.24346997 0.00225389 0.03891534
v -0.28465576 -0.00562414 0.04143125
v -0.08283211 0.05569806 -0.02183929
v -0.12228821 0.05596888 -0.00244665
v -0.16512005 0.05156401 0.00545719
v -0.21072803 0.04669580 0.01104194
v -0.25315015 0.03863975 0.01616806
v -0.28716965 0.03356607 0.01957417
v -0.28277393 0.03936858 -0.00198534
v -0.01362166 -0.02187980 0.04097450
v -0.00897138 0.01229258 0.03723538
v -0.00669289 0.04090793 0.01572707
v 0.00101490 0.06875329 -0.02089384
v -0.01552971 -0.04990034 0.02477413
v -0.01009776 -0.06514496 -0.00306424
v -0.04809560 -0.04483588 0.02877039
v -0.04095821 -0.01852386 0.04523709
v -0.03497821 0.01381527 0.04282817
v -0.03590830 0.04036346 0.02040339
v -0.04110846 0.05682858 -0.01148123
v -0.04720251 0.05432754 -0.04590943
v -0.29594596 -0.01341822 -0.03261048
v -0.24880980 -0.01261916 -0.03699484
v -0.21117713 -0.01390306 -0.04085115
v -0.17365597 -0.01918927 -0.04143006
v -0.13771753 -0.02470101 -0.04047373
v -0.09990479 -0.03005496 -0.04533586
v -0.05968039 -0.03235793 -0.05602005
v -0.05274792 0.03343568 -0.06747368
v -0.01949537 -0.07473535 -0.03939667
v -0.03224219 -0.06494529 -0.05843881
v -0.02906936 -0.04745871 -0.07906002
v -0.02322546 -0.02979267 -0.09706333
v -0.02282307 -0.00317934 -0.11640593
v -0.01498397 0.06776028 -0.06797281
v -0.02614774 0.04039501 -0.09693816
v -0.01441790 -0.05909391 0.01150638
v -0.00119814 -0.04948808 0.02745643
v -0.01522262 -0.03735469 0.03471306
v -0.00239980 -0.02155046 0.04180393
v -0.00186779 -0.06979877 -0.01528749
v -0.05089870 -0.05427181 0.01349089
v -0.03104734 -0.04777199 0.02565590
v -0.02848831 -0.06424513 -0.00603530
v -0.01117770 -0.00462017 0.04167205
v 0.00099535 0.01118044 0.03935626
v -0.04459313 -0.03307117 0.03918877
v -0.02569854 -0.02034147 0.04233757
v -0.00611943 -0.07603339 -0.03238630
v -0.03411014 -0.06755421 -0.02582687
v -0.06653564 -0.04210903 0.02874810
v -0.07257015 -0.05441180 -0.00137669
v -0.08838128 -0.04680291 0.01485863
v -0.00807251 0.02743441 0.02786565
v 0.00542645 0.04078163 0.02330199
v -0.03752899 -0.00239986 0.04647395
v -0.02000944 0.01322091 0.03853518
v -0.08174549 -0.03067887 0.03728881
v -0.05938900 -0.01815646 0.04557911
v -0.02819189 -0.07113945 -0.04828113
v -0.04590835 -0.05593371 -0.04661292
v -0.05971785 -0.05757265 -0.02245492
v -0.09503670 -0.05077380 -0.01160970
v -0.07947312 -0.04836895 -0.02902451
v -0.10384582 -0.03864081 0.02412501
v -0.10966663 -0.04857783 0.00130510
v -0.12553133 -0.04380605 0.01146245
v -0.00422572 0.05453458 0.00061947
v -0.00742146 0.07213746 -0.04718235
v -0.03467318 0.02835462 0.03350732
v -0.02034046 0.04061846 0.01481262
v -0.07629196 -0.00511540 0.04727381
v -0.05427322 0.01243635 0.04537949
v -0.09856291 -0.01992186 0.04082787
v -0.12059288 -0.03050884 0.03024399
v -0.01834719 -0.07629603 -0.06912613
v -0.03192636 -0.05655316 -0.06903568
v -0.04221541 -0.03739148 -0.06604752
v -0.06138462 -0.04191629 -0.04676154
v -0.11570363 -0.04500019 -0.02333060
v -0.13108228 -0.04641980 -0.01150411
v -0.07946199 -0.03118147 -0.05015782
v -0.09936832 -0.03968852 -0.03643003
v -0.14182751 -0.03789411 0.01842949
v -0.14634554 -0.04566272 -0.00209516
v -0.16272770 -0.04284346 0.00594676
v -0.03814131 0.05015013 0.00535440
v -0.02188846 0.06114655 -0.01995170
v -0.02210638 0.05645162 -0.08445379
v -0.04426563 0.05877314 -0.02829060
v -0.03152548 0.05911631 -0.05682394
v -0.07367554 0.02326080 0.04213959
v -0.05390418 0.03896854 0.02731982
v -0.11711763 -0.01039856 0.04259187
v -0.09524466 0.00566045 0.04632187
v -0.13846056 -0.02233215 0.03366348
v -0.15911843 -0.03175147 0.02387875
v -0.01732989 -0.06034112 -0.09093374
v -0.02533755 -0.03829044 -0.08861065
v -0.03624588 -0.01887838 -0.08278993
v -0.05802783 -0.02217457 -0.06302938
v -0.11869241 -0.02804479 -0.04288730
v -0.13612001 -0.03453516 -0.03312877
v -0.15140252 -0.03984226 -0.02483597
v -0.16712449 -0.04305366 -0.01613271
v -0.10017429 -0.02018516 -0.05178326
v -0.07891496 -0.01082752 -0.06198868
v -0.17988591 -0.03893042 0.01342168
v -0.18369173 -0.04392384 -0.00712863
v -0.20092104 -0.04239901 0.00130931
v -0.07576978 0.04511635 0.02304566
v -0.05927983 0.05467002 -0.00129405
v -0.05051897 0.04502977 -0.05867162
v -0.03859171 0.03499372 -0.08145046
v -0.02709028 0.02159913 -0.10678646
v -0.06408204 0.05429437 -0.03459024
v -0.08038475 0.05608651 -0.00554237
v -0.11547463 0.01333809 0.04324937
v -0.09479369 0.03050138 0.03680778
v -0.15691935 -0.01529884 0.03621447
v -0.13628815 -0.00208241 0.04178545
v -0.19782038 -0.03454410 0.01987803
v -0.17733358 -0.02583642 0.02884713
v -0.01252776 -0.04359143 -0.11104259
v -0.02297735 -0.01936772 -0.10567153
v -0.03811616 0.00475645 -0.09133193
v -0.05602436 -0.00142142 -0.07297736
v -0.11983849 -0.00717685 -0.05322197
v -0.13907425 -0.01451318 -0.04576510
v -0.15533464 -0.02214853 -0.04085937
v -0.17164902 -0.02908202 -0.03531563
v -0.18795608 -0.03510484 -0.02832872
v -0.20455034 -0.03879767 -0.01976293
v -0.07764590 0.01320470 -0.06574267
v -0.10035442 0.00268191 -0.05915290
v -0.21833561 -0.03917741 0.00942034
v -0.22160964 -0.03977519 -0.01020971
v -0.23935054 -0.03785202 -0.00150493
v -0.11582850 0.03576721 0.03186661
v -0.09724469 0.04887344 0.01683632
v -0.08629049 0.05056063 -0.03601074
v -0.07087426 0.03683273 -0.05715966
v -0.05457111 0.02173148 -0.07269117
v -0.10157461 0.05660428 -0.01180339
v -0.11943613 0.05192826 0.01101616
v -0.15606777 0.00551242 0.04091403
v -0.13567500 0.02058706 0.03900957
v -0.19674478 -0.01975758 0.03324816
v -0.17657541 -0.00785698 0.03841761
v -0.23650821 -0.03561651 0.01662302
v -0.21658917 -0.02930415 0.02597642
v -0.14033465 0.01032001 -0.05177498
v -0.11732702 0.02127648 -0.05501121
v -0.15841712 -0.00030983 -0.04939610
v -0.17552151 -0.00884997 -0.04563710
v -0.19229133 -0.01661752 -0.04148865
v -0.20879595 -0.02345441 -0.03626862
v -0.22492070 -0.02916400 -0.02875507
v -0.24238642 -0.03212127 -0.01915881
v -0.09492157 0.03042588 -0.05423364
v -0.26485677 -0.03305685 -0.00868621
v -0.28969656 -0.03505500 -0.00017348
v -0.26044725 -0.03775589 0.00686389
v -0.15722550 0.02770134 0.03451321
v -0.13762824 0.04123028 0.02503935
v -0.12601070 0.05590801 -0.01697057
v -0.10889231 0.04700333 -0.03954509
v -0.14316235 0.05388953 0.00172007
v -0.16156219 0.04580823 0.01749334
v -0.17774813 0.01366692 0.03883311
v -0.19810562 -0.00008100 0.03920144
v -0.23663868 -0.02487817 0.03181031
v -0.21780117 -0.01288735 0.03671020
v -0.28622575 -0.03880230 0.01648104
v -0.25817056 -0.03512731 0.02413526
v -0.15780513 0.02880488 -0.04816270
v -0.17813025 0.01582345 -0.04854405
v -0.13472702 0.04046647 -0.04278818
v -0.19635589 0.00487048 -0.04642045
v -0.21366303 -0.00408529 -0.04349530
v -0.22994058 -0.01239763 -0.03926113
v -0.24611910 -0.02006789 -0.03267992
v -0.26858188 -0.02616408 -0.02336416
v -0.29326279 -0.02788899 -0.01420802
v -0.20172803 0.02109079 0.03538278
v -0.18118261 0.03458551 0.02859533
v -0.16892473 0.05385892 -0.00818208
v -0.15090744 0.05178598 -0.02712807
v -0.18773703 0.04936029 0.00814998
v -0.20699368 0.04011194 0.02144146
v -0.22197230 0.00719303 0.03821912
v -0.24049346 -0.00749410 0.03918350
v -0.28431661 -0.03221985 0.03354514
v -0.25954880 -0.02266439 0.03757751
v -0.17583989 0.04345501 -0.03615877
v -0.19853346 0.03099586 -0.04156592
v -0.21832989 0.01894524 -0.04302356
v -0.23615877 0.00685611 -0.04250589
v -0.25219531 -0.00430523 -0.03997314
v -0.27217750 -0.01527929 -0.03474110
v -0.29536007 -0.01939298 -0.02724457
v -0.24656771 0.01208729 0.03627834
v -0.22735809 0.02728527 0.03052419
v -0.21425615 0.04997732 -0.00104886
v -0.19491886 0.05039176 -0.01934531
v -0.23305975 0.04324216 0.01365510
v -0.25151537 0.03108628 0.02501157
v -0.28408812 -0.01542914 0.04215109
v -0.26408742 -0.00395159 0.04022345
v -0.21916999 0.04273799 -0.02790079
v -0.24092291 0.03166216 -0.03504688
v -0.25945894 0.01704572 -0.03946880
v -0.27568282 0.00232994 -0.04044488
v -0.29594050 -0.00573531 -0.03709191
v -0.28546964 0.00410477 0.03832489
v -0.26899390 0.01514423 0.03224400
v -0.23875223 0.04689704 -0.01084572
v -0.25563203 0.04326431 0.00514176
v -0.28643198 0.02360167 0.02856338
v -0.27117883 0.03316114 0.01838884
v -0.26072697 0.03967157 -0.02101344
v -0.29462425 0.01731406 -0.03826737
v -0.27843653 0.02757310 -0.03069809
v -0.28253017 0.03781304 0.00887260
v -0.27273487 0.04067786 -0.00430053
v -0.28526093 0.03754212 -0.01390091
v -0.28916390 0.04006882 -0.00139263
v -0.29687016 0.03981014 -0.01336709
v 0.00184970 -0.05836485 0.01550037
v -0.00276241 -0.03694297 0.03664127
v -0.03196958 -0.05732886 0.01119512
v -0.00103354 -0.00505557 0.04283231
v -0.02875043 -0.03540481 0.03607544
v -0.01892419 -0.06978193 -0.02096364
v -0.07001977 -0.05029685 0.01461157
v 0.00249994 0.02653312 0.03235152
v -0.02236633 -0.00339438 0.04320082
v -0.06279679 -0.03137457 0.03939721
v -0.04281783 -0.06328718 -0.03556779
v -0.07665657 -0.05332548 -0.01580709
v -0.10672598 -0.04495272 0.01323164
v -0.02002846 0.02805459 0.02852184
v -0.05648690 -0.00310477 0.04772180
v -0.10108601 -0.03038614 0.03361592
v -0.01259016 -0.08112392 -0.05923507
v -0.04460590 -0.04668565 -0.05636746
v -0.11272927 -0.04868375 -0.01125416
v -0.08011857 -0.04075438 -0.04083696
v -0.14398210 -0.04309530 0.00872254
v -0.02076590 0.05201766 -0.00136143
v -0.02609570 0.06404528 -0.03892604
v -0.05325826 0.02685854 0.03844488
v -0.09654583 -0.00755581 0.04532737
v -0.13993560 -0.03072363 0.02676582
v -0.01898202 -0.06882903 -0.08072343
v -0.03839576 -0.02782860 -0.07525873
v -0.11797304 -0.03758850 -0.03387135
v -0.14887773 -0.04469904 -0.01366088
v -0.07878882 -0.02114302 -0.05702871
v -0.18173085 -0.04281228 0.00359806
v -0.05628753 0.04837016 0.01379231
v -0.03612472 0.04883761 -0.07121691
v -0.06191620 0.05717427 -0.01700339
v -0.09473611 0.01863380 0.04316336
v -0.13722895 -0.01273746 0.03892764
v -0.17833678 -0.03305615 0.02181253
v -0.01458889 -0.05174854 -0.10078302
v -0.03686222 -0.00842989 -0.08841962
v -0.11954327 -0.01802421 -0.04868710
v -0.15354021 -0.03188476 -0.03403386
v -0.18585055 -0.04129347 -0.01817253
v -0.07887073 0.00054987 -0.06531146
v -0.21986668 -0.04076739 -0.00031498
v -0.09561072 0.04071343 0.02780530
v -0.06726676 0.04685391 -0.04777399
v -0.03896020 0.01992717 -0.08818695
v -0.09916158 0.05442395 0.00297406
v -0.13577734 0.00919891 0.04186147
v -0.17671286 -0.01747741 0.03449959
v -0.21721475 -0.03519670 0.01825133
v -0.11950348 0.00592329 -0.05577216
v -0.15692757 -0.01187930 -0.04580185
v -0.19011305 -0.02643108 -0.03618607
v -0.22303970 -0.03560340 -0.02012280
v -0.07470416 0.02556373 -0.06290427
v -0.26254322 -0.03595905 -0.00118318
v -0.13616548 0.03144395 0.03336999
v -0.10499199 0.05414490 -0.02660996
v -0.14000873 0.04892153 0.01443794
v -0.17686464 0.00270026 0.03999802
v -0.21676902 -0.02180297 0.03228551
v -0.25885431 -0.03770760 0.01551387
v -0.15898322 0.01335174 -0.05079114
v -0.11336412 0.03583758 -0.04919794
v -0.19439666 -0.00637924 -0.04488668
v -0.22725968 -0.02117333 -0.03515202
v -0.26683544 -0.02990398 -0.01619202
v -0.17910258 0.02447400 0.03500333
v -0.14687769 0.05533953 -0.01237148
v -0.18395506 0.04311474 0.01949117
v -0.21956255 -0.00297524 0.03869936
v -0.25841762 -0.03006215 0.03184921
v -0.15478782 0.04267042 -0.03979507
v -0.19797604 0.01752046 -0.04575574
v -0.23298334 -0.00324872 -0.04169735
v -0.27038594 -0.02131715 -0.02966705
v -0.22464378 0.01732683 0.03553683
v -0.19154952 0.05217744 -0.00499770
v -0.22987433 0.03627185 0.02310362
v -0.26149805 -0.01364859 0.04049101
v -0.19743185 0.04286018 -0.03258690
v -0.23908044 0.01875596 -0.04100841
v -0.27388461 -0.00753548 -0.03845280
v -0.26685704 0.00576092 0.03722024
v -0.23611800 0.04707594 0.00217438
v -0.27052490 0.02458313 0.02634043
v -0.24075349 0.04193595 -0.02405220
v -0.27783646 0.01462691 -0.03860494
v -0.27124394 0.03923139 0.00790811
v -0.27576797 0.03714108 -0.01790786
v -0.28836377 0.03929849 0.00640303
v -0.28995000 0.03912320 -0.00980264
f 75 98 99
f 99 98 290
f 98 76 290
f 101 71 291
f 291 71 100
f 75 99 100
f 100 99 291
f 76 98 105
f 105 98 292
f 75 104 98
f 98 104 292
f 104 77 292
f 292 77 103
f 16 105 103
f 103 105 292
f 107 72 293
f 293 72 106
f 71 101 106
f 106 101 293
f 109 78 294
f 294 78 108
f 77 104 108
f 108 104 294
f 104 75 294
f 294 75 100
f 71 109 100
f 100 109 294
f 111 91 295
f 295 91 110
f 110 102 295
f 102 76 295
f 295 76 105
f 16 111 105
f 105 111 295
f 23 113 114
f 114 113 296
f 113 16 296
f 296 16 103
f 77 112 103
f 103 112 296
f 112 24 296
f 296 24 114
f 73 115 116
f 116 115 297
f 72 107 115
f 115 107 297
f 109 71 298
f 298 71 106
f 72 118 106
f 106 118 298
f 118 79 298
f 298 79 117
f 78 109 117
f 117 109 298
f 120 25 299
f 299 25 119
f 24 112 119
f 119 112 299
f 112 77 299
f 299 77 108
f 78 120 108
f 108 120 299
f 17 122 123
f 123 122 300
f 122 92 300
f 300 92 121
f 91 111 121
f 121 111 300
f 111 16 300
f 300 16 123
f 125 17 301
f 301 17 123
f 16 113 123
f 123 113 301
f 113 23 301
f 301 23 124
f 22 125 124
f 124 125 301
f 48 127 128
f 128 127 302
f 127 23 302
f 302 23 114
f 24 126 114
f 114 126 302
f 126 53 302
f 302 53 128
f 118 72 303
f 303 72 115
f 115 73 303
f 303 73 132
f 132 80 303
f 303 80 131
f 79 118 131
f 131 118 303
f 120 78 304
f 304 78 117
f 79 134 117
f 117 134 304
f 134 26 304
f 304 26 133
f 25 120 133
f 133 120 304
f 53 126 136
f 136 126 305
f 126 24 305
f 305 24 119
f 25 135 119
f 119 135 305
f 135 6 305
f 305 6 136
f 306 91 121
f 121 92 306
f 306 92 137
f 140 89 307
f 307 89 139
f 139 93 307
f 307 93 138
f 92 122 138
f 138 122 307
f 122 17 307
f 307 17 140
f 4 141 142
f 142 141 308
f 141 22 308
f 308 22 124
f 23 127 124
f 124 127 308
f 127 48 308
f 308 48 142
f 17 125 140
f 140 125 309
f 125 22 309
f 309 22 144
f 144 88 309
f 309 88 143
f 89 140 143
f 143 140 309
f 49 146 147
f 147 146 310
f 146 48 310
f 310 48 128
f 53 145 128
f 128 145 310
f 145 54 310
f 310 54 147
f 81 148 149
f 149 148 311
f 148 80 311
f 311 80 132
f 73 129 132
f 132 129 311
f 129 74 311
f 311 74 149
f 82 151 152
f 152 151 312
f 151 81 312
f 312 81 149
f 74 130 149
f 149 130 312
f 130 96 312
f 312 96 152
f 134 79 313
f 313 79 131
f 80 154 131
f 131 154 313
f 154 58 313
f 313 58 153
f 26 134 153
f 153 134 313
f 135 25 314
f 314 25 133
f 26 156 133
f 133 156 314
f 156 9 314
f 314 9 155
f 6 135 155
f 155 135 314
f 54 145 158
f 158 145 315
f 145 53 315
f 315 53 136
f 6 157 136
f 136 157 315
f 157 7 315
f 315 7 158
f 92 138 137
f 137 138 316
f 93 159 138
f 138 159 316
f 18 161 162
f 162 161 317
f 161 94 317
f 317 94 160
f 93 139 160
f 160 139 317
f 89 162 139
f 139 162 317
f 22 141 144
f 144 141 318
f 141 4 318
f 318 4 164
f 87 163 164
f 164 163 318
f 163 88 318
f 318 88 144
f 5 165 166
f 166 165 319
f 165 4 319
f 319 4 142
f 48 146 142
f 142 146 319
f 146 49 319
f 319 49 166
f 18 162 168
f 168 162 320
f 162 89 320
f 320 89 143
f 88 167 143
f 143 167 320
f 167 21 320
f 320 21 168
f 50 170 171
f 171 170 321
f 170 49 321
f 321 49 147
f 54 169 147
f 147 169 321
f 169 55 321
f 321 55 171
f 173 27 322
f 322 27 172
f 58 154 172
f 172 154 322
f 154 80 322
f 322 80 148
f 148 81 322
f 322 81 173
f 90 174 175
f 175 174 323
f 174 82 323
f 323 82 152
f 96 150 152
f 152 150 323
f 150 97 323
f 323 97 175
f 27 173 178
f 178 173 324
f 81 151 173
f 173 151 324
f 151 82 324
f 324 82 177
f 177 64 324
f 324 64 178
f 156 26 325
f 325 26 153
f 58 180 153
f 153 180 325
f 180 59 325
f 325 59 179
f 9 156 179
f 179 156 325
f 157 6 326
f 326 6 155
f 9 182 155
f 155 182 326
f 182 8 326
f 326 8 181
f 7 157 181
f 181 157 326
f 184 46 327
f 327 46 183
f 55 169 183
f 183 169 327
f 169 54 327
f 327 54 158
f 7 184 158
f 158 184 327
f 159 93 328
f 328 93 160
f 94 185 160
f 160 185 328
f 161 18 329
f 329 18 188
f 20 187 188
f 188 187 329
f 95 186 187
f 187 186 329
f 94 161 186
f 186 161 329
f 88 163 167
f 167 163 330
f 163 87 330
f 330 87 190
f 3 189 190
f 190 189 330
f 189 21 330
f 330 21 167
f 165 5 331
f 331 5 192
f 86 191 192
f 192 191 331
f 191 87 331
f 331 87 164
f 4 165 164
f 164 165 331
f 47 193 194
f 194 193 332
f 193 5 332
f 332 5 166
f 49 170 166
f 166 170 332
f 170 50 332
f 332 50 194
f 196 19 333
f 333 19 195
f 20 188 195
f 195 188 333
f 188 18 333
f 333 18 168
f 21 196 168
f 168 196 333
f 51 198 199
f 199 198 334
f 198 50 334
f 334 50 171
f 55 197 171
f 171 197 334
f 197 56 334
f 334 56 199
f 27 201 172
f 172 201 335
f 201 14 335
f 335 14 200
f 59 180 200
f 200 180 335
f 180 58 335
f 335 58 172
f 174 90 336
f 336 90 203
f 1 202 203
f 203 202 336
f 202 64 336
f 336 64 177
f 82 174 177
f 177 174 336
f 97 176 175
f 175 176 337
f 95 187 176
f 176 187 337
f 187 20 337
f 337 20 204
f 204 90 337
f 337 90 175
f 14 201 206
f 206 201 338
f 201 27 338
f 338 27 178
f 64 205 178
f 178 205 338
f 65 206 205
f 205 206 338
f 182 9 339
f 339 9 179
f 59 208 179
f 179 208 339
f 208 60 339
f 339 60 207
f 8 182 207
f 207 182 339
f 210 45 340
f 340 45 209
f 46 184 209
f 209 184 340
f 184 7 340
f 340 7 181
f 8 210 181
f 181 210 340
f 212 32 341
f 341 32 211
f 56 197 211
f 211 197 341
f 197 55 341
f 341 55 183
f 46 212 183
f 183 212 341
f 19 196 214
f 214 196 342
f 196 21 342
f 342 21 189
f 189 3 342
f 342 3 213
f 213 10 342
f 342 10 214
f 2 215 216
f 216 215 343
f 215 3 343
f 343 3 190
f 87 191 190
f 190 191 343
f 191 86 343
f 343 86 216
f 193 47 344
f 344 47 218
f 85 217 218
f 218 217 344
f 217 86 344
f 344 86 192
f 5 193 192
f 192 193 344
f 31 219 220
f 220 219 345
f 219 47 345
f 345 47 194
f 50 198 194
f 194 198 345
f 198 51 345
f 345 51 220
f 90 204 203
f 203 204 346
f 204 20 346
f 346 20 195
f 19 221 195
f 195 221 346
f 221 1 346
f 346 1 203
f 56 224 199
f 199 224 347
f 224 57 347
f 347 57 223
f 52 222 223
f 223 222 347
f 222 51 347
f 347 51 199
f 14 226 200
f 200 226 348
f 15 225 226
f 226 225 348
f 225 60 348
f 348 60 208
f 208 59 348
f 348 59 200
f 202 1 349
f 349 1 228
f 12 227 228
f 228 227 349
f 227 65 349
f 349 65 205
f 64 202 205
f 205 202 349
f 230 15 350
f 350 15 226
f 14 206 226
f 226 206 350
f 206 65 350
f 350 65 229
f 66 230 229
f 229 230 350
f 45 210 232
f 232 210 351
f 210 8 351
f 351 8 207
f 60 231 207
f 207 231 351
f 61 232 231
f 231 232 351
f 33 233 234
f 234 233 352
f 32 212 233
f 233 212 352
f 212 46 352
f 352 46 209
f 45 234 209
f 209 234 352
f 32 236 211
f 211 236 353
f 236 38 353
f 353 38 235
f 57 224 235
f 235 224 353
f 224 56 353
f 353 56 211
f 215 2 354
f 354 2 238
f 238 11 354
f 354 11 237
f 10 213 237
f 237 213 354
f 3 215 213
f 213 215 354
f 1 221 228
f 228 221 355
f 221 19 355
f 355 19 214
f 10 239 214
f 214 239 355
f 239 12 355
f 355 12 228
f 41 240 241
f 241 240 356
f 240 2 356
f 356 2 216
f 86 217 216
f 216 217 356
f 217 85 356
f 356 85 241
f 219 31 357
f 357 31 243
f 84 242 243
f 243 242 357
f 242 85 357
f 357 85 218
f 47 219 218
f 218 219 357
f 51 222 220
f 220 222 358
f 222 52 358
f 358 52 245
f 39 244 245
f 245 244 358
f 244 31 358
f 358 31 220
f 44 246 247
f 247 246 359
f 246 61 359
f 359 61 231
f 60 225 231
f 231 225 359
f 225 15 359
f 359 15 247
f 227 12 360
f 360 12 249
f 13 248 249
f 249 248 360
f 248 66 360
f 360 66 229
f 65 227 229
f 229 227 360
f 251 44 361
f 361 44 247
f 15 230 247
f 247 230 361
f 230 66 361
f 361 66 250
f 67 251 250
f 250 251 361
f 253 33 362
f 362 33 234
f 45 232 234
f 234 232 362
f 232 61 362
f 362 61 252
f 62 253 252
f 252 253 362
f 236 32 363
f 363 32 233
f 233 33 363
f 363 33 255
f 37 254 255
f 255 254 363
f 38 236 254
f 254 236 363
f 11 256 237
f 237 256 364
f 256 13 364
f 364 13 249
f 12 239 249
f 249 239 364
f 239 10 364
f 364 10 237
f 240 41 365
f 365 41 258
f 42 257 258
f 258 257 365
f 11 238 257
f 257 238 365
f 2 240 238
f 238 240 365
f 30 259 260
f 260 259 366
f 259 41 366
f 366 41 241
f 85 242 241
f 241 242 366
f 242 84 366
f 366 84 260
f 83 261 262
f 262 261 367
f 261 84 367
f 367 84 243
f 31 244 243
f 243 244 367
f 244 39 367
f 367 39 262
f 36 263 264
f 264 263 368
f 263 62 368
f 368 62 252
f 61 246 252
f 252 246 368
f 246 44 368
f 368 44 264
f 43 265 266
f 266 265 369
f 265 67 369
f 369 67 250
f 66 248 250
f 250 248 369
f 248 13 369
f 369 13 266
f 268 36 370
f 370 36 264
f 44 251 264
f 264 251 370
f 251 67 370
f 370 67 267
f 68 268 267
f 267 268 370
f 33 253 255
f 255 253 371
f 253 62 371
f 371 62 270
f 63 269 270
f 270 269 371
f 269 37 371
f 371 37 255
f 42 271 257
f 257 271 372
f 271 43 372
f 372 43 266
f 13 256 266
f 266 256 372
f 256 11 372
f 372 11 257
f 259 30 373
f 373 30 273
f 34 272 273
f 273 272 373
f 272 42 373
f 373 42 258
f 41 259 258
f 258 259 373
f 40 274 275
f 275 274 374
f 274 30 374
f 374 30 260
f 84 261 260
f 260 261 374
f 261 83 374
f 374 83 275
f 263 36 375
f 375 36 277
f 28 276 277
f 277 276 375
f 276 63 375
f 375 63 270
f 62 263 270
f 270 263 375
f 279 68 376
f 376 68 267
f 67 265 267
f 267 265 376
f 265 43 376
f 376 43 278
f 35 279 278
f 278 279 376
f 69 280 281
f 281 280 377
f 280 28 377
f 377 28 277
f 36 268 277
f 277 268 377
f 68 281 268
f 268 281 377
f 272 34 378
f 378 34 282
f 282 35 378
f 378 35 278
f 43 271 278
f 278 271 378
f 42 272 271
f 271 272 378
f 284 34 379
f 379 34 273
f 30 274 273
f 273 274 379
f 274 40 379
f 379 40 283
f 29 284 283
f 283 284 379
f 286 70 380
f 380 70 285
f 69 281 285
f 285 281 380
f 281 68 380
f 380 68 279
f 35 286 279
f 279 286 380
f 287 70 381
f 381 70 286
f 35 282 286
f 286 282 381
f 282 34 381
f 381 34 284
f 29 287 284
f 284 287 381
f 382 69 285
f 285 70 382
f 382 70 288
f 288 70 383
f 383 70 287
f 29 289 287
f 287 289 383

