# https://github.com/mikedh/trimesh
v -0.01554263 -0.03917043 -0.01964810
v -0.00791079 -0.03563059 -0.01477036
v -0.00888777 -0.02757598 -0.02462590
v -0.01313341 -0.03112749 -0.02734214
v -0.00086898 -0.02116503 -0.02192584
v -0.01214004 -0.01129748 -0.02896231
v -0.01658630 -0.02075947 -0.03134441
v -0.01423383 -0.01791815 -0.03046378
v -0.01501703 -0.03675387 -0.00356579
v 0.00163162 -0.00910726 -0.02368814
v -0.01093102 -0.00361503 -0.02784538
v -0.02398169 -0.03373563 0.00342485
v -0.00548363 -0.03199819 0.00553483
v 0.00394946 -0.00076901 -0.02315596
v -0.00843883 0.00468089 -0.02762997
v -0.00234538 -0.01867457 0.01730102
v -0.01492870 -0.01521104 0.01589039
v 0.00601327 0.00867377 -0.02182719
v -0.00423056 0.01384541 -0.02568659
v 0.00712770 0.01902093 -0.01726648
v -0.00190562 0.02322196 -0.01848567
v -0.02298039 -0.00504376 -0.02893987
v -0.02311486 -0.00992886 -0.03053105
v -0.02552766 -0.01287963 -0.03154969
v -0.02811599 -0.02136743 0.01143843
v -0.02263784 0.00086469 -0.02714753
v -0.02492523 -0.01083738 0.01591295
v -0.00255817 0.02708060 -0.00553480
v 0.00629538 0.02453128 -0.00476202
v -0.02036482 0.00894212 -0.02828431
v -0.00597620 0.02250920 0.00880232
v 0.00304395 0.02156250 0.01063380
v -0.01531708 0.01909843 -0.02794933
v -0.01169163 -0.00247254 0.01772553
v -0.00014323 -0.00475276 0.02020606
v -0.01189125 0.02850274 -0.02031505
v 0.00122428 0.00853187 0.01876229
v -0.00912523 0.01026326 0.01618177
v -0.01167977 0.03163915 -0.00628859
v -0.01481616 0.02597937 0.00710070
v -0.01826048 0.01396626 0.01431316
v -0.02136064 0.00141456 0.01653883
v 0.00133443 -0.03349895 -0.00982538
v -0.03398824 -0.00430932 -0.02489057
v -0.03205019 -0.00736972 -0.02798462
v -0.03260839 0.01238101 -0.02674732
v -0.02775985 0.02282614 -0.02873906
v -0.02398592 0.03265198 -0.02178866
v -0.03137821 0.00413766 0.01508701
v -0.02797610 0.01705815 0.01227221
v -0.01849616 -0.02568779 0.00988087
v -0.00126487 -0.03441407 -0.00233403
v -0.00398713 -0.02571096 0.01289982
v 0.00151366 -0.02874695 -0.01615569
v 0.00903404 -0.02260711 -0.01643711
v -0.00376701 -0.03424528 -0.01270872
v -0.01058882 -0.03741224 -0.00873557
v -0.01092619 -0.03459660 -0.00002185
v -0.00115931 -0.01164390 0.01978895
v -0.01297289 -0.02897109 0.00849494
v -0.01650333 -0.02077611 0.01300091
v -0.00909895 -0.01732177 0.01617724
v 0.01022613 -0.01159000 -0.02093291
v 0.00065231 -0.01442705 -0.02351665
v -0.00748843 -0.03200506 -0.02011079
v -0.00583655 -0.02461554 -0.02329352
v -0.01202792 -0.03742224 -0.01679125
v -0.01897204 -0.03963249 -0.00696146
v -0.01945990 -0.03582443 0.00075275
v -0.02108920 -0.03003689 0.00678712
v 0.00060725 0.00186080 0.01986146
v -0.01330447 -0.00882664 0.01747328
v -0.00633800 -0.00407064 0.01880363
v -0.02338475 -0.02303371 0.01076129
v -0.02648973 -0.01652476 0.01409486
v -0.02003312 -0.01277000 0.01605430
v 0.00274074 -0.00486591 -0.02336544
v 0.01169306 -0.00197400 -0.02159274
v -0.00748479 -0.01574581 -0.02654374
v -0.00535387 -0.00657251 -0.02592039
v -0.01152563 -0.00756992 -0.02830935
v -0.01080066 -0.02978748 -0.02558741
v -0.01363665 -0.03575952 -0.02389818
v -0.01301128 -0.01473741 -0.02960730
v -0.01096082 -0.02270643 -0.02818221
v -0.02751076 -0.03721721 -0.00012708
v -0.02790922 -0.03119006 0.00472423
v -0.02991235 -0.02564957 0.00866750
v 0.00189030 0.01558029 0.01605451
v 0.00484103 0.02426638 0.00335228
v -0.00429726 0.00894007 0.01732600
v -0.01035774 0.00374150 0.01739964
v -0.02323395 -0.00477446 0.01683819
v -0.01655567 -0.00049487 0.01699364
v -0.02983069 -0.00937198 0.01558620
v -0.03278613 -0.02021130 0.01195046
v 0.00510681 0.00367728 -0.02274367
v 0.01259959 0.00875492 -0.02101231
v -0.00269735 0.00162303 -0.02499780
v -0.01000661 0.00044732 -0.02740097
v -0.01626867 -0.00134371 -0.02813286
v -0.02297288 -0.00233264 -0.02776018
v -0.01702315 -0.00762759 -0.02964437
v -0.01423025 -0.02606259 -0.02983478
v -0.01474673 -0.01949662 -0.03040200
v -0.01836789 -0.01340414 -0.03114811
v -0.02283645 -0.00772018 -0.02976918
v -0.00165528 0.02140193 0.00959662
v -0.00774229 0.01676589 0.01358172
v -0.00405884 0.02617981 0.00196022
v 0.00168723 0.02537680 -0.00531614
v 0.00701785 0.02259395 -0.01196203
v -0.01977879 0.00755821 0.01576978
v -0.01367480 0.01210396 0.01519749
v -0.02642709 0.00295279 0.01581627
v -0.03315127 -0.00216462 0.01566309
v 0.00674558 0.01395451 -0.02019510
v 0.00054634 0.01059037 -0.02343822
v -0.00631124 0.00912692 -0.02710104
v -0.01410550 0.00675543 -0.02855158
v -0.02197838 0.00477932 -0.02743196
v -0.02895105 -0.00417010 -0.02698338
v -0.02948123 0.00206820 -0.02499551
v -0.03532505 -0.00142128 -0.02313527
v -0.02380204 -0.01153427 -0.03092280
v -0.02068263 -0.01639696 -0.03204545
v -0.02836484 -0.00810191 -0.02925819
v -0.03291070 -0.00607006 -0.02670214
v -0.01024222 0.02421859 0.00793165
v -0.01656306 0.02028754 0.01154387
v -0.00690114 0.02929897 -0.00583383
v -0.01305819 0.02999334 0.00101125
v -0.00185043 0.02600203 -0.01250833
v 0.00218189 0.02034336 -0.01754206
v -0.02311248 0.01569670 0.01334575
v -0.02960211 0.01051524 0.01411095
v -0.00267112 0.01881912 -0.02288935
v -0.00962907 0.01651744 -0.02708241
v -0.01790500 0.01365843 -0.02883223
v -0.02668750 0.01066534 -0.02753699
v -0.03474319 0.00786892 -0.02451062
v -0.01983476 0.02761990 0.00606620
v -0.02634752 0.02326673 0.00938174
v -0.00660282 0.02579271 -0.01936314
v -0.01122040 0.03107890 -0.01378295
v -0.01734608 0.03397325 -0.00708514
v -0.01323199 0.02427447 -0.02508825
v -0.03020722 0.01725868 -0.02854943
v -0.02173913 0.02123787 -0.02854225
v -0.01811469 0.03090515 -0.02112231
v -0.02555281 0.02833210 -0.02648383
v 0.00897998 -0.02821782 -0.01207992
v -0.00637114 -0.03586060 -0.00585788
v -0.01088440 -0.02357663 0.01266348
v 0.00945795 -0.01701005 -0.01934764
v -0.00364220 -0.02999080 -0.01851997
v -0.01488000 -0.03932455 -0.01156902
v -0.01594347 -0.03278373 0.00450683
v -0.00769150 -0.01065709 0.01834249
v -0.02160043 -0.01826706 0.01370621
v 0.01097965 -0.00673222 -0.02141875
v -0.00625587 -0.01109866 -0.02626055
v -0.01066154 -0.03422325 -0.02161270
v -0.00935239 -0.01949293 -0.02705449
v -0.02331489 -0.03886645 -0.00288191
v -0.02550894 -0.02732085 0.00776806
v -0.00521308 0.00234833 0.01837501
v -0.01832688 -0.00669897 0.01714104
v -0.03132099 -0.01522176 0.01431116
v 0.01225328 0.00320251 -0.02164340
v -0.00424290 -0.00241017 -0.02546856
v -0.01664209 -0.00462206 -0.02890247
v -0.01206177 -0.02464258 -0.02860498
v -0.01759255 -0.01061631 -0.03041634
v -0.00321901 0.01572404 0.01468226
v 0.00016910 0.02472486 0.00246996
v -0.01509207 0.00567833 0.01658359
v -0.02826667 -0.00328059 0.01629782
v 0.01284504 0.01435234 -0.01952308
v -0.00099456 0.00587734 -0.02460381
v -0.01552701 0.00255060 -0.02826604
v -0.02957469 -0.00135404 -0.02563652
v -0.01891929 -0.01506367 -0.03136814
v -0.02830815 -0.00635354 -0.02827233
v -0.01209116 0.01850720 0.01251996
v -0.00833231 0.02809193 0.00151703
v 0.00233901 0.02371456 -0.01246858
v -0.02471423 0.00923089 0.01494160
v 0.00170249 0.01566170 -0.02118099
v -0.01194656 0.01146131 -0.02837384
v -0.02846903 0.00627650 -0.02586305
v -0.02908766 -0.00942565 -0.02964267
v -0.02147543 0.02188019 0.01039499
v -0.00628054 0.02845539 -0.01304933
v -0.01835048 0.03188663 0.00013196
v -0.00773758 0.02157669 -0.02415183
v -0.02425098 0.01558913 -0.02865276
v -0.01730305 0.03361922 -0.01460576
v -0.01957470 0.02668821 -0.02599970
f 152 43 54
f 5 55 54
f 54 55 152
f 58 9 153
f 153 9 57
f 2 56 57
f 57 56 153
f 56 43 153
f 153 43 52
f 13 58 52
f 52 58 153
f 16 62 53
f 53 62 154
f 62 17 154
f 154 17 61
f 61 51 154
f 154 51 60
f 13 53 60
f 60 53 154
f 55 5 155
f 155 5 64
f 10 63 64
f 64 63 155
f 66 5 156
f 156 5 54
f 43 56 54
f 54 56 156
f 56 2 156
f 156 2 65
f 3 66 65
f 65 66 156
f 57 9 157
f 157 9 68
f 157 1 67
f 67 2 157
f 157 2 57
f 60 51 158
f 158 51 70
f 12 69 70
f 70 69 158
f 69 9 158
f 158 9 58
f 13 60 58
f 58 60 158
f 35 73 59
f 59 73 159
f 73 34 159
f 159 34 72
f 17 62 72
f 72 62 159
f 62 16 159
f 159 16 59
f 17 76 61
f 61 76 160
f 76 27 160
f 160 27 75
f 25 74 75
f 75 74 160
f 74 51 160
f 160 51 61
f 63 10 161
f 161 10 77
f 77 14 161
f 161 14 78
f 11 80 81
f 81 80 162
f 80 10 162
f 162 10 64
f 5 79 64
f 64 79 162
f 79 6 162
f 162 6 81
f 4 82 83
f 83 82 163
f 82 3 163
f 163 3 65
f 2 67 65
f 65 67 163
f 67 1 163
f 163 1 83
f 85 8 164
f 164 8 84
f 6 79 84
f 84 79 164
f 5 66 79
f 79 66 164
f 3 85 66
f 66 85 164
f 9 69 68
f 68 69 165
f 69 12 165
f 165 12 86
f 51 74 70
f 70 74 166
f 74 25 166
f 166 25 88
f 88 87 166
f 87 12 166
f 166 12 70
f 92 34 167
f 167 34 73
f 73 35 167
f 167 35 71
f 37 91 71
f 71 91 167
f 38 92 91
f 91 92 167
f 34 94 72
f 72 94 168
f 94 42 168
f 168 42 93
f 27 76 93
f 93 76 168
f 76 17 168
f 168 17 72
f 96 25 169
f 169 25 75
f 27 95 75
f 75 95 169
f 14 97 78
f 78 97 170
f 97 18 170
f 170 18 98
f 80 11 171
f 171 11 100
f 15 99 100
f 100 99 171
f 14 77 99
f 99 77 171
f 10 80 77
f 77 80 171
f 103 22 172
f 172 22 102
f 26 101 102
f 102 101 172
f 101 11 172
f 172 11 81
f 6 103 81
f 81 103 172
f 8 85 105
f 105 85 173
f 85 3 173
f 173 3 82
f 82 4 173
f 173 4 104
f 7 105 104
f 104 105 173
f 22 103 107
f 107 103 174
f 103 6 174
f 174 6 84
f 8 106 84
f 84 106 174
f 106 23 174
f 174 23 107
f 12 87 86
f 25 96 88
f 109 38 175
f 175 38 91
f 37 89 91
f 91 89 175
f 89 32 175
f 175 32 108
f 31 109 108
f 108 109 175
f 32 90 108
f 108 90 176
f 90 29 176
f 176 29 111
f 28 110 111
f 111 110 176
f 110 31 176
f 176 31 108
f 92 38 177
f 177 38 114
f 41 113 114
f 114 113 177
f 113 42 177
f 177 42 94
f 34 92 94
f 94 92 177
f 116 95 178
f 95 27 178
f 178 27 93
f 42 115 93
f 93 115 178
f 115 49 178
f 178 49 116
f 18 117 98
f 98 117 179
f 117 20 179
f 15 119 99
f 99 119 180
f 119 19 180
f 180 19 118
f 18 97 118
f 118 97 180
f 97 14 180
f 180 14 99
f 101 26 181
f 181 26 121
f 121 30 181
f 181 30 120
f 120 15 181
f 181 15 100
f 11 101 100
f 100 101 181
f 124 123 182
f 123 26 182
f 182 26 102
f 22 122 102
f 102 122 182
f 122 44 182
f 182 44 124
f 24 125 126
f 126 125 183
f 125 23 183
f 183 23 106
f 106 8 183
f 183 8 105
f 105 7 183
f 183 7 126
f 44 122 128
f 128 122 184
f 122 22 184
f 184 22 107
f 23 127 107
f 107 127 184
f 127 45 184
f 184 45 128
f 130 41 185
f 185 41 114
f 38 109 114
f 114 109 185
f 109 31 185
f 185 31 129
f 40 130 129
f 129 130 185
f 132 40 186
f 186 40 129
f 31 110 129
f 129 110 186
f 110 28 186
f 186 28 131
f 39 132 131
f 131 132 186
f 29 112 111
f 111 112 187
f 112 20 187
f 187 20 134
f 21 133 134
f 134 133 187
f 133 28 187
f 187 28 111
f 136 49 188
f 188 49 115
f 115 42 188
f 188 42 113
f 113 41 188
f 188 41 135
f 50 136 135
f 135 136 188
f 137 21 189
f 189 21 134
f 20 117 134
f 134 117 189
f 117 18 189
f 189 18 118
f 19 137 118
f 118 137 189
f 30 139 120
f 120 139 190
f 139 33 190
f 190 33 138
f 19 119 138
f 138 119 190
f 119 15 190
f 190 15 120
f 121 26 191
f 191 26 123
f 123 141 191
f 141 46 191
f 191 46 140
f 30 121 140
f 140 121 191
f 192 45 127
f 23 125 127
f 127 125 192
f 125 24 192
f 143 50 193
f 193 50 135
f 41 130 135
f 135 130 193
f 130 40 193
f 193 40 142
f 142 143 193
f 145 39 194
f 194 39 131
f 28 133 131
f 131 133 194
f 133 21 194
f 194 21 144
f 36 145 144
f 144 145 194
f 40 132 142
f 142 132 195
f 132 39 195
f 195 39 146
f 33 147 138
f 138 147 196
f 147 36 196
f 196 36 144
f 21 137 144
f 144 137 196
f 137 19 196
f 196 19 138
f 33 139 149
f 149 139 197
f 139 30 197
f 197 30 140
f 46 148 140
f 140 148 197
f 148 47 197
f 197 47 149
f 39 145 146
f 146 145 198
f 145 36 198
f 198 36 150
f 151 48 199
f 199 48 150
f 36 147 150
f 150 147 199
f 147 33 199
f 199 33 149
f 47 151 149
f 149 151 199

