# https://github.com/mikedh/trimesh
v -0.01650979 0.04924116 -0.01479673
v 0.00186262 0.05481596 -0.01548570
v -0.02698141 0.02712280 -0.01612854
v -0.03284028 -0.00274836 -0.01752788
v 0.03349854 -0.01589152 -0.00730038
v 0.02813841 -0.04166712 -0.00254303
v 0.01323560 -0.05428573 0.00365603
v -0.00532832 -0.05360904 0.00297654
v -0.02428716 -0.04005171 -0.00552446
v -0.02862410 -0.02043513 -0.00438559
v 0.01649196 0.03690261 -0.01374602
v 0.02751035 0.01138887 -0.01007670
v -0.02275139 -0.17470534 -0.05769086
v -0.02454697 -0.17261900 -0.05740762
v -0.01740417 -0.17222889 -0.05715060
v -0.01970564 -0.17064310 -0.05569172
v -0.01929565 -0.16900761 -0.05483919
v -0.01550786 -0.17123584 -0.05764681
v -0.02387099 -0.16891797 -0.05589002
v -0.02273469 -0.17076199 -0.05603904
v -0.01789869 -0.16434420 -0.05259091
v -0.02608483 -0.16250028 -0.05556244
v -0.01429699 -0.15682684 -0.06175423
v -0.01326421 -0.16326316 -0.06409782
v -0.01767898 -0.15812500 -0.05020380
v -0.02454342 -0.15645461 -0.06456476
v -0.01278035 -0.15198438 -0.06419343
v -0.02668460 -0.14613421 -0.06660277
v -0.02561325 -0.16356115 -0.06625324
v -0.02129239 -0.17204369 -0.06537271
v -0.01736167 -0.17211611 -0.06570506
v -0.02654938 -0.17191692 -0.05836767
v -0.02304403 -0.17517631 -0.05981266
v -0.02578995 -0.15650402 -0.05342358
v -0.01821086 -0.17514495 -0.05993682
v -0.02553251 -0.14247046 -0.05139464
v -0.03221473 -0.14337317 -0.06764537
v -0.02986836 -0.13989471 -0.04962802
v -0.04130818 -0.13860477 -0.06469238
v -0.04019938 -0.14470024 -0.06473804
v -0.03125685 -0.14759652 -0.06619197
v -0.03096268 -0.14837389 -0.05252492
v -0.01486593 -0.14427905 -0.04706800
v -0.00870867 -0.15184031 -0.06263673
v -0.01921199 -0.17463578 -0.05774343
v -0.04756100 -0.14507083 -0.06024760
v -0.04755439 -0.14547197 -0.06146675
v -0.04890297 -0.14416964 -0.06248719
v -0.04932439 -0.14369185 -0.05973071
v -0.04637536 -0.14416350 -0.05776727
v -0.04597571 -0.14520640 -0.05915451
v -0.05206603 -0.13925551 -0.05859971
v -0.04647501 -0.13969512 -0.05484754
v -0.05383964 -0.13223855 -0.05600607
v -0.04707086 -0.13440199 -0.05261660
v -0.05468284 -0.12195642 -0.05503982
v -0.04633309 -0.12854852 -0.05088139
v -0.04045661 -0.13393651 -0.05172658
v -0.05419670 -0.12294499 -0.06358713
v -0.04487011 -0.13451426 -0.06572884
v -0.04295678 -0.13611103 -0.06381094
v -0.05119289 -0.13369971 -0.06515616
v -0.04932073 -0.13810985 -0.06604093
v -0.04200925 -0.13803540 -0.06464797
v -0.04331602 -0.14495171 -0.05857843
v -0.04184772 -0.14336340 -0.06769377
v -0.04348789 -0.14707784 -0.06300539
v -0.04496759 -0.14378519 -0.06696683
v -0.04563437 -0.14661400 -0.06359285
v -0.04628895 -0.14677031 -0.06193042
v -0.04448090 -0.14571635 -0.05953032
v -0.04490399 -0.14695875 -0.06115180
v -0.03686842 -0.16110982 -0.05912924
v -0.03154494 -0.16019834 -0.05891788
v -0.03585392 -0.15967421 -0.05816805
v -0.03818849 -0.16070457 -0.05973071
v -0.03681232 -0.15875314 -0.05784154
v -0.03273349 -0.15817250 -0.05743271
v -0.03305681 -0.15915789 -0.05799663
v -0.03984366 -0.15351166 -0.05668491
v -0.03195854 -0.15351750 -0.05455571
v -0.04074647 -0.14625455 -0.05372065
v -0.04096647 -0.15302147 -0.06512713
v -0.03053787 -0.15169518 -0.06630099
v -0.02995847 -0.15983073 -0.05911142
v -0.03587945 -0.15958400 -0.06577927
v -0.03323600 -0.15904771 -0.06596053
v -0.03471117 -0.16274188 -0.06128794
v -0.03224885 -0.16288854 -0.06161201
v -0.03529136 -0.16219218 -0.05954832
v -0.03284368 -0.16206483 -0.05966133
v -0.00572716 -0.17735348 -0.05363816
v -0.00823639 -0.17910509 -0.05490804
v -0.00948694 -0.17764552 -0.05476111
v -0.00579758 -0.17588739 -0.05268031
v -0.00211434 -0.17834656 -0.05433881
v -0.00094880 -0.18031780 -0.05616987
v -0.00090383 -0.17754091 -0.05404991
v 0.00065303 -0.18015693 -0.05692768
v -0.00615832 -0.16939722 -0.05097967
v 0.00263286 -0.17217712 -0.05350256
v -0.00639734 -0.15929113 -0.04800475
v 0.00334875 -0.15977911 -0.05118120
v 0.00354275 -0.17227654 -0.06524152
v -0.00199279 -0.18171705 -0.06373167
v -0.00333099 -0.18331186 -0.05769193
v -0.01134071 -0.17059995 -0.06136775
v -0.00678585 -0.18141161 -0.06375927
v -0.00919935 -0.15836738 -0.06084895
v 0.00498335 -0.15023805 -0.06529331
v 0.00147969 -0.16091107 -0.06536943
v -0.00796773 -0.14461230 -0.04580599
v -0.00815308 -0.18332071 -0.05718088
v -0.00783391 -0.18272723 -0.05547506
v -0.00416772 -0.18278046 -0.05575728
v 0.00474977 -0.14345850 -0.04745376
v 0.01356834 -0.14369227 -0.04502922
v 0.01274753 -0.16018258 -0.04959619
v 0.01739518 -0.14781304 -0.06727469
v 0.01244552 -0.16398774 -0.06614649
v 0.02991989 -0.16106473 -0.04740393
v 0.02695391 -0.17720283 -0.04900473
v 0.03178152 -0.14081441 -0.04353887
v 0.03680612 -0.16368566 -0.06242853
v 0.03694119 -0.14220573 -0.06037241
v 0.02874412 -0.18224032 -0.06179756
v 0.01003304 -0.17821301 -0.06308472
v 0.01318340 -0.18594451 -0.05343616
v 0.01117548 -0.17392568 -0.04979503
v 0.01305349 -0.18419899 -0.04879409
v 0.01536362 -0.17459728 -0.04814774
v 0.01436536 -0.18295775 -0.04658180
v 0.02045590 -0.18371709 -0.04571098
v 0.02148758 -0.18623946 -0.04768270
v 0.02329972 -0.17650051 -0.04739624
v 0.02033414 -0.18788405 -0.05243051
v 0.02394186 0.01837064 -0.03276330
v 0.02411596 0.02156663 -0.04858732
v -0.02125017 0.05681654 -0.04187578
v -0.03715347 0.00947729 -0.03823376
v -0.02494191 0.04479763 -0.06230074
v -0.04051459 0.01195833 -0.05071902
v -0.02462187 -0.17382689 -0.05797350
v -0.01848020 -0.16665099 -0.05403680
v -0.02554215 -0.16594235 -0.05542541
v -0.01473266 -0.15973548 -0.06264591
v -0.01795916 -0.16137446 -0.05139935
v -0.01376985 -0.15397115 -0.06162632
v -0.02444988 -0.15164403 -0.06425989
v -0.02494787 -0.15930323 -0.06537592
v -0.02267553 -0.16894357 -0.06610864
v -0.01461621 -0.16868360 -0.06670427
v -0.02778970 -0.16862775 -0.06172985
v -0.02566873 -0.17368401 -0.05986166
v -0.02271885 -0.17400847 -0.06337684
v -0.02556860 -0.17183466 -0.06352639
v -0.02595995 -0.15962554 -0.05482829
v -0.01267277 -0.16930561 -0.06015408
v -0.01687239 -0.17433427 -0.06369632
v -0.01509489 -0.17332779 -0.05990642
v -0.01327820 -0.17240785 -0.06405288
v -0.02583858 -0.15114011 -0.05242723
v -0.04042520 -0.14213170 -0.06366712
v -0.03126901 -0.14577143 -0.06635612
v -0.03061658 -0.14550100 -0.05163443
v -0.01662982 -0.15252866 -0.04865593
v -0.01687430 -0.17343561 -0.05819100
v -0.04649158 -0.14228718 -0.05611151
v -0.05059782 -0.14193518 -0.05917054
v -0.05325863 -0.13586624 -0.05729359
v -0.04690911 -0.13680915 -0.05360949
v -0.04706571 -0.13191619 -0.05173725
v -0.05445002 -0.12838025 -0.05544478
v -0.04058149 -0.01929097 -0.04246849
v -0.03563280 -0.02883483 -0.02533197
v -0.04235230 -0.01249938 -0.05581325
v -0.04355407 -0.13524921 -0.06412745
v -0.05253898 -0.13053129 -0.06450790
v -0.05035706 -0.13565637 -0.06566066
v -0.04257087 -0.13701093 -0.06395024
v -0.04046780 -0.14229144 -0.06062961
v -0.04155132 -0.14596240 -0.06612915
v -0.04182722 -0.14631356 -0.06158769
v -0.04129581 -0.14063157 -0.06766135
v -0.03896002 -0.14409427 -0.06458068
v -0.04713045 -0.14195381 -0.06712884
v -0.04736367 -0.14551742 -0.06353730
v -0.04473913 -0.14545329 -0.06570399
v -0.04979651 -0.14188479 -0.06348944
v -0.04745229 -0.14371632 -0.06535906
v -0.04702407 -0.14604355 -0.06226599
v -0.04379454 -0.14643903 -0.06037802
v -0.03805286 -0.15666674 -0.05747908
v -0.03218898 -0.15623797 -0.05631614
v -0.04056691 -0.14951981 -0.05523771
v -0.04075813 -0.14783658 -0.06571031
v -0.03151609 -0.15075205 -0.05313915
v -0.02793999 -0.15813087 -0.06101406
v -0.03798115 -0.15694342 -0.06649071
v -0.03181362 -0.15630857 -0.06693774
v -0.04002543 -0.15830760 -0.06158781
v -0.03704171 -0.16204367 -0.06099641
v -0.03507701 -0.16177760 -0.06413031
v -0.03816740 -0.16060798 -0.06361496
v -0.03178622 -0.16191272 -0.06454176
v -0.03667924 -0.16183702 -0.05985099
v -0.03158779 -0.14931013 -0.06618577
v -0.03016627 -0.16190664 -0.06123227
v -0.02884911 -0.16081823 -0.06434035
v -0.03125684 -0.16144334 -0.05991310
v -0.04070349 -0.14139135 -0.05258244
v -0.00614214 -0.17370589 -0.05156034
v 0.00073174 -0.17596410 -0.05416733
v -0.00637639 -0.16444562 -0.04980862
v 0.00315368 -0.16605677 -0.05209458
v 0.00372030 -0.17900382 -0.05898011
v -0.00196283 -0.18263115 -0.06050348
v -0.00025579 -0.18184511 -0.05770975
v 0.00061512 -0.17831845 -0.06495208
v 0.00197968 -0.18114243 -0.06034636
v -0.00947265 -0.17723043 -0.06461799
v -0.00988798 -0.16506855 -0.06099969
v -0.00871824 -0.15362756 -0.06077474
v 0.00251782 -0.15568967 -0.06431556
v 0.00161074 -0.16598119 -0.06523824
v -0.00631329 -0.15280543 -0.04631352
v -0.00776799 -0.18301968 -0.06045330
v -0.01117869 -0.17518134 -0.05588275
v -0.01082671 -0.18096028 -0.05649728
v -0.01182091 -0.17987932 -0.05911523
v -0.00934936 -0.18164275 -0.05580527
v -0.00158313 -0.18184255 -0.05653179
v 0.00350215 -0.15277545 -0.04949087
v 0.01437989 -0.15328614 -0.04770356
v 0.01537377 -0.15599952 -0.06619334
v 0.02861254 -0.16934322 -0.04944819
v 0.03015791 -0.15227084 -0.04534268
v 0.03643963 -0.15438969 -0.06201881
v 0.03370856 -0.17372750 -0.06334990
v 0.01018736 -0.17058499 -0.06544501
v 0.01103696 -0.18332778 -0.05831373
v 0.01046956 -0.18077339 -0.04995424
v 0.01403742 -0.17982812 -0.04729712
v 0.02595454 -0.18400569 -0.04828930
v 0.02186649 -0.18136869 -0.04589629
v 0.02323648 -0.18708466 -0.05764127
v 0.01102781 -0.16691418 -0.05000699
v 0.01563850 0.00233932 -0.06329805
v -0.02314880 0.00170968 -0.06475997
v -0.00378019 0.00641272 -0.06430739
v 0.02716096 -0.00602207 -0.04951918
v 0.03133467 -0.01222414 -0.03006631
v 0.01598588 0.04789522 -0.04022974
v 0.01704644 0.04219499 -0.05997550
v -0.00317408 0.06199712 -0.04463494
v -0.03292011 0.03634840 -0.03775978
v -0.00487840 0.05100386 -0.06291312
v -0.03787185 0.02853000 -0.05639493
v -0.03593083 -0.00590372 -0.06351453
v -0.00329344 -0.18030257 -0.05470484
v -0.00660621 -0.17982469 -0.05436081
v -0.01969649 -0.17269774 -0.05643970
v -0.02274469 -0.17301188 -0.05656362
v -0.03304872 -0.16059382 -0.05859864
v -0.03546879 -0.16102899 -0.05864799
v -0.04563597 -0.14613811 -0.05988240
v -0.04685614 -0.14601038 -0.06062323
v 0.03214374 -0.05268572 -0.02732956
v 0.02838798 -0.04754539 -0.04986852
v 0.01377979 -0.04517342 -0.06015146
v -0.00344127 -0.04502067 -0.06493318
v -0.02361098 -0.04634751 -0.06608385
v -0.03992985 -0.04890396 -0.06672925
v -0.04951409 -0.04963258 -0.06028742
v -0.04678422 -0.05269438 -0.04592341
v -0.03640918 -0.05904211 -0.03292263
v -0.02371654 -0.06746905 -0.01906359
v 0.01633616 -0.07306287 -0.01000482
v -0.00550218 -0.07484447 -0.00999445
v -0.05279726 -0.08431486 -0.05106586
v -0.05626638 -0.08492601 -0.06339723
v -0.04563890 -0.09258497 -0.06915188
v -0.02809577 -0.09101178 -0.06867588
v -0.00241192 -0.10059949 -0.06910622
v 0.02029849 -0.09183116 -0.06648988
v 0.03387037 -0.08930813 -0.05474538
v 0.03180659 -0.09219172 -0.03560007
v 0.01541615 -0.10012955 -0.02196074
v -0.04154457 -0.08809548 -0.04090428
v -0.02630614 -0.09491433 -0.03290910
v -0.00720328 -0.10051676 -0.02563298
v -0.05623582 -0.10924548 -0.06414962
v -0.05440459 -0.10817082 -0.05492264
v -0.04526599 -0.11536149 -0.04814202
v -0.02887152 -0.12385888 -0.04502934
v -0.01106437 -0.12875263 -0.04200143
v 0.01101959 -0.12751038 -0.03655607
v 0.03462440 -0.12168763 -0.04053724
v 0.03927887 -0.12340306 -0.06007081
v -0.04171455 -0.13143797 -0.06946141
v -0.02626127 -0.13016701 -0.06970453
v -0.00648698 -0.14241333 -0.06923562
v 0.02409804 -0.12749225 -0.06890124
v 0.00539894 -0.13317162 -0.06932431
v -0.01517020 -0.13518508 -0.06971598
v -0.03619923 -0.12761731 -0.06978524
v -0.05006279 -0.11792178 -0.06871772
v -0.01071329 0.04092393 0.00531644
v -0.02545521 0.02282221 0.00516605
v -0.03295954 0.00204182 0.00786191
v -0.02682142 -0.01551037 0.01450115
v -0.01844832 -0.02899277 0.02020985
v -0.00599220 -0.03698499 0.02599072
v 0.00794466 -0.03937588 0.02881896
v 0.02205455 -0.03333187 0.02682030
v 0.03210741 -0.01612249 0.02184814
v 0.03189457 0.00735309 0.01589841
v 0.01975711 0.02748671 0.00957978
v 0.00754146 0.04518899 0.00622797
v -0.00963453 0.04297930 0.01581490
v -0.00271244 0.04796058 0.00592512
v 0.00970136 0.04522783 0.01695240
v 0.01421115 0.03713210 0.00740188
v -0.01751940 0.03178799 0.00506067
v -0.01262416 0.04338677 -0.00446832
v -0.00829545 0.05580653 -0.01483560
v 0.00535328 0.04866241 -0.00429821
v 0.01047370 0.04815966 -0.01509601
v 0.01817437 0.03045674 -0.00205922
v 0.02587766 0.01776516 0.01254719
v -0.02312931 -0.02271597 0.01749390
v -0.03013888 -0.00743958 0.01094234
v -0.03221595 0.01313924 0.00587225
v -0.02608070 0.02353131 -0.00577694
v -0.02184793 0.03893705 -0.01542729
v -0.01943764 0.05458677 -0.02835274
v -0.01278745 0.06144091 -0.04386944
v -0.00078644 0.05997583 -0.03025615
v 0.00726543 0.05787075 -0.04346555
v 0.01601404 0.04332689 -0.02730030
v 0.03007134 0.00794373 0.00239438
v 0.02185036 0.02429162 -0.01186335
v 0.03426083 -0.00448727 0.01902568
v 0.02786966 -0.02597773 0.02445900
v 0.01505528 -0.03778590 0.02842057
v -0.01266289 -0.03386346 0.02322650
v -0.01927607 -0.03407384 0.00668448
v -0.02741025 -0.02733223 -0.00506389
v -0.02740884 -0.01878248 0.00295430
v -0.03093196 -0.01471006 -0.00959122
v -0.03258833 -0.00006534 -0.00469971
v -0.03115021 0.01372810 -0.01717758
v -0.02807066 0.04813871 -0.03954601
v -0.02908638 0.03224228 -0.02736151
v -0.02325159 0.05445946 -0.05337894
v -0.01534644 0.04928722 -0.06301862
v -0.00459741 0.05961959 -0.05556989
v 0.00641701 0.04889842 -0.06237978
v 0.01643091 0.04872642 -0.05130565
v 0.02486356 0.01475944 -0.02188522
v 0.02031972 0.03368969 -0.03625083
v 0.03142555 -0.00217286 -0.00856638
v 0.03334905 -0.01742311 0.00647575
v 0.03179057 -0.02969077 -0.00530070
v 0.02530289 -0.03864137 0.01166075
v 0.02174327 -0.05012573 0.00153005
v 0.01067235 -0.04675042 0.01518959
v 0.00088722 -0.03882542 0.02802366
v -0.00499417 -0.04440526 0.01266539
v -0.01469722 -0.04904890 -0.00008368
v -0.03165261 -0.03450553 -0.01606548
v -0.03408356 -0.01581641 -0.02243215
v -0.03553978 0.02313390 -0.03736675
v -0.03448319 0.00427566 -0.02945256
v -0.03632401 0.03610986 -0.04785019
v -0.03299837 0.03769928 -0.06012142
v -0.02444004 0.02548992 -0.06416726
v -0.01456419 0.00475455 -0.06452101
v -0.00429784 0.03232760 -0.06368607
v 0.00652041 0.00554015 -0.06435645
v 0.01709437 0.02542883 -0.06335783
v 0.02311994 0.03118264 -0.05385059
v 0.02389283 0.02104162 -0.04231000
v 0.03217779 -0.01421869 -0.01896846
v 0.02814984 0.00336430 -0.03089523
v 0.03034221 -0.04520048 -0.01405132
v 0.03291401 -0.03014620 -0.02940619
v 0.02583173 -0.06610634 -0.01649874
v 0.01498976 -0.06249122 -0.00390393
v 0.00417516 -0.05518403 0.00389683
v -0.02441484 -0.05385149 -0.01254582
v -0.00572810 -0.06356136 -0.00325143
v -0.01507781 -0.07170694 -0.01392365
v -0.03596562 -0.04351649 -0.02873510
v -0.03072220 -0.06298103 -0.02578247
v -0.03884409 -0.00441307 -0.04013646
v -0.03798482 -0.02370250 -0.03440225
v -0.03970179 0.01209241 -0.04563767
v -0.03984447 0.01915142 -0.05294389
v -0.03714883 0.01347377 -0.06144458
v -0.03022815 -0.00204607 -0.06493509
v -0.01348740 -0.04551339 -0.06574905
v -0.00372037 -0.01977968 -0.06471014
v -0.02238034 -0.02255382 -0.06540251
v 0.00544426 -0.04489811 -0.06313419
v 0.01370342 -0.02115543 -0.06056017
v 0.02219751 -0.00169685 -0.05706388
v 0.02522331 0.01064557 -0.04918969
v 0.03032315 -0.00948768 -0.04040825
v 0.02731726 -0.02579200 -0.04910493
v 0.03280485 -0.04939302 -0.04097152
v 0.03179233 -0.07412602 -0.03218246
v 0.02527312 -0.09622591 -0.02687460
v 0.01645257 -0.08597252 -0.01592791
v 0.00522104 -0.07566811 -0.00814384
v -0.02427520 -0.08108137 -0.02621424
v -0.00569181 -0.08708378 -0.01787692
v -0.01725736 -0.09834656 -0.02900040
v -0.04296273 -0.03552454 -0.04446101
v -0.04164012 -0.05562173 -0.03971612
v -0.03878643 -0.07398647 -0.03669876
v -0.03429440 -0.09124654 -0.03693694
v -0.04252508 -0.01565290 -0.04974753
v -0.04114965 0.00249154 -0.05300695
v -0.04008390 -0.00936570 -0.06043249
v -0.03258350 -0.04768412 -0.06641173
v -0.03677173 -0.02708800 -0.06533837
v -0.02629507 -0.06932957 -0.06735212
v -0.01710027 -0.09403124 -0.06873828
v -0.00341007 -0.07091752 -0.06651694
v 0.01118611 -0.09501673 -0.06820482
v 0.01608068 -0.06917790 -0.06303316
v 0.02152643 -0.04615522 -0.05570078
v 0.03059262 -0.06925861 -0.05199844
v 0.03499593 -0.08995091 -0.04539734
v 0.03306230 -0.10790540 -0.03900832
v 0.02491909 -0.12397140 -0.03460157
v 0.01358198 -0.11359048 -0.02910656
v 0.00378373 -0.10136657 -0.02246422
v -0.02814212 -0.10869719 -0.04004097
v -0.00927535 -0.11386947 -0.03446865
v -0.02033003 -0.12513861 -0.04285711
v -0.04516007 -0.03034629 -0.05849260
v -0.05003472 -0.05061078 -0.05332762
v -0.04762511 -0.08564284 -0.04589194
v -0.05061837 -0.06942059 -0.04808593
v -0.04406321 -0.10172575 -0.04524487
v -0.03757802 -0.11768648 -0.04641569
v -0.04598556 -0.04930548 -0.06514102
v -0.04364708 -0.07041611 -0.06793368
v -0.03705801 -0.09032726 -0.06885022
v -0.02662057 -0.11252132 -0.06972605
v -0.02083535 -0.13257731 -0.06971073
v -0.01033828 -0.12060536 -0.06984615
v 0.00332985 -0.11922219 -0.06948745
v 0.01435205 -0.13002191 -0.06918961
v 0.02340360 -0.11113258 -0.06925052
v 0.02845943 -0.08985426 -0.06214237
v 0.03768558 -0.10754764 -0.05866057
v 0.03851281 -0.12170085 -0.05031896
v 0.03337055 -0.13276081 -0.04221529
v 0.02314044 -0.14208685 -0.03974527
v 0.01378147 -0.13657938 -0.03933531
v -0.00001160 -0.12623635 -0.03917825
v -0.01564839 -0.13765244 -0.04484779
v -0.02176169 -0.14265348 -0.04629058
v -0.02580629 -0.13499008 -0.04747784
v -0.05597335 -0.08412589 -0.05714047
v -0.05343099 -0.06860793 -0.06186372
v -0.05122064 -0.11006881 -0.05062002
v -0.05456634 -0.09746441 -0.05346948
v -0.03102614 -0.13245287 -0.04656690
v -0.03640760 -0.13570285 -0.04805332
v -0.04112257 -0.12595291 -0.04992169
v -0.05274458 -0.08710910 -0.06806940
v -0.04065795 -0.11224511 -0.06973004
v -0.03148998 -0.12824432 -0.06973720
v -0.02676582 -0.14005418 -0.06957418
v -0.02188614 -0.14800869 -0.06865507
v -0.01655315 -0.14537720 -0.06922120
v -0.01010300 -0.13866766 -0.06958330
v -0.00201970 -0.13790741 -0.06937104
v 0.01084284 -0.14891974 -0.06552184
v 0.02207582 -0.13923399 -0.06873780
v 0.00541361 -0.14429380 -0.06862062
v 0.03441523 -0.12587894 -0.06809312
v 0.03793336 -0.13493341 -0.05985248
v 0.03639761 -0.14103882 -0.05123293
v 0.02180597 -0.15259038 -0.04246175
v 0.01460852 -0.14907412 -0.04634762
v 0.03074247 -0.14718361 -0.04431349
v 0.00887945 -0.14196496 -0.04859895
v 0.00497207 -0.13664771 -0.04291272
v -0.00145121 -0.14345692 -0.04401541
v -0.00836803 -0.13812651 -0.04388165
v -0.01093777 -0.14352642 -0.04834968
v -0.01601475 -0.14891754 -0.04791659
v -0.02222754 -0.15163247 -0.04770803
v -0.02555613 -0.14726583 -0.05243278
v -0.02733670 -0.14108132 -0.05157501
v -0.05621317 -0.10793373 -0.05952346
v -0.05739836 -0.09868483 -0.06455630
v -0.04719043 -0.12231068 -0.04913801
v -0.05177574 -0.12409460 -0.05121344
v -0.05415824 -0.11638240 -0.05533230
v -0.03040276 -0.14310486 -0.05075634
v -0.03657027 -0.14327888 -0.04899466
v -0.04043935 -0.13875775 -0.05224299
v -0.04295491 -0.13072659 -0.05178040
v -0.05388770 -0.11215539 -0.06745118
v -0.04930188 -0.10722047 -0.06942570
v -0.04523680 -0.12682833 -0.06952047
v -0.03968817 -0.12951261 -0.06973237
v -0.03387503 -0.13775793 -0.06955171
v -0.02956697 -0.14443336 -0.06680417
v -0.01330991 -0.15263940 -0.06225711
v -0.02458005 -0.14862878 -0.06482530
v -0.01998830 -0.15288161 -0.06670064
v -0.01042190 -0.15111802 -0.06199747
v -0.00720738 -0.14947258 -0.06837213
v -0.00309235 -0.15231840 -0.06724262
v 0.00699277 -0.14715765 -0.05420613
v 0.01126336 -0.14817174 -0.05536807
v 0.02978458 -0.14467148 -0.06683820
v 0.03528166 -0.15275736 -0.05257553
v 0.03621688 -0.14852075 -0.06137568
v 0.02990481 -0.15671013 -0.04647136
v 0.02104308 -0.15994154 -0.04478443
v 0.01365814 -0.15696062 -0.04885954
v 0.01132753 -0.15532847 -0.05664206
v 0.01709385 -0.15161983 -0.06639057
v -0.00666039 -0.14913405 -0.04600126
v 0.00378136 -0.14826192 -0.04858422
v -0.00112619 -0.15281199 -0.04529274
v -0.01211618 -0.14860533 -0.05278605
v -0.01029517 -0.14821307 -0.05191457
v -0.01303086 -0.15360682 -0.05347455
v -0.01722084 -0.15569575 -0.04951918
v -0.02276210 -0.15720595 -0.04950500
v -0.02580170 -0.15426545 -0.05281103
v -0.02632597 -0.15140743 -0.05871975
v -0.02681024 -0.14545844 -0.05932873
v -0.02819200 -0.14403234 -0.05851948
v -0.05522621 -0.12120957 -0.05957067
v -0.05514437 -0.11704984 -0.06366682
v -0.04695351 -0.13055789 -0.05138105
v -0.05152239 -0.12968276 -0.05197942
v -0.05469006 -0.12561406 -0.05518109
v -0.03146832 -0.14483176 -0.06668979
v -0.02911711 -0.14672364 -0.05835068
v -0.03075349 -0.14714931 -0.05218804
v -0.03635980 -0.14736934 -0.05035865
v -0.04078931 -0.14403786 -0.05306470
v -0.04080631 -0.14046968 -0.06346506
v -0.04209365 -0.13709014 -0.05677587
v -0.04200363 -0.14127810 -0.05763841
v -0.04268338 -0.13696374 -0.06412977
v -0.04331277 -0.13466152 -0.05607718
v -0.05106781 -0.12830548 -0.06681621
v -0.04841267 -0.12873953 -0.06847352
v -0.04093353 -0.13611607 -0.06885666
v -0.03786324 -0.14062653 -0.06858051
v -0.01405719 -0.15545030 -0.06151724
v -0.02429958 -0.15461795 -0.06419760
v -0.01957209 -0.15671213 -0.06625074
v -0.00859693 -0.15246664 -0.06096226
v -0.00401162 -0.15556930 -0.06602550
v 0.00312518 -0.15323467 -0.06417143
v 0.00515428 -0.15371905 -0.05702764
v 0.02750264 -0.15515990 -0.06679094
v 0.03689474 -0.15919013 -0.06213218
v 0.03556785 -0.16192491 -0.05403471
v 0.01978384 -0.16681354 -0.04687005
v 0.01170984 -0.16349272 -0.04986560
v 0.02949552 -0.16542764 -0.04830283
v 0.00875738 -0.16230352 -0.05713969
v 0.01382296 -0.16031693 -0.06634718
v -0.00988784 -0.15297223 -0.05167329
v -0.00628665 -0.15624992 -0.04689890
v 0.00344607 -0.15664823 -0.05043793
v -0.00153244 -0.15982716 -0.04705471
v -0.01337492 -0.15842287 -0.05445695
v -0.01790842 -0.15985472 -0.05079192
v -0.02275282 -0.16042076 -0.05118418
v -0.02586716 -0.15816407 -0.05411142
v -0.02644075 -0.15640981 -0.05927634
v -0.05345871 -0.12725499 -0.06408399
v -0.05472517 -0.12839611 -0.05988842
v -0.04406102 -0.13486902 -0.06461459
v -0.04294483 -0.13483049 -0.05633456
v -0.04706904 -0.13319263 -0.05216157
v -0.05125092 -0.13281384 -0.05273217
v -0.05411996 -0.13045405 -0.05568427
v -0.03709276 -0.14378653 -0.06749547
v -0.03123796 -0.14671968 -0.06623328
v -0.02932890 -0.14884428 -0.05851883
v -0.03121088 -0.14950819 -0.05273682
v -0.03659476 -0.15063681 -0.05175024
v -0.04067293 -0.14790205 -0.05444521
v -0.04208876 -0.14492567 -0.05899906
v -0.04017150 -0.14354895 -0.06416517
v -0.04796672 -0.13349969 -0.06737363
v -0.01464090 -0.15830953 -0.06210268
v -0.02475777 -0.15797753 -0.06488830
v -0.01946950 -0.15925313 -0.06696403
v -0.00888553 -0.15557028 -0.06060106
v -0.00433162 -0.16002272 -0.06618935
v 0.00169706 -0.15827022 -0.06475282
v 0.00457254 -0.16029732 -0.05874902
v 0.02505605 -0.16491882 -0.06659448
v 0.03578337 -0.16859318 -0.06317365
v 0.03489220 -0.17133005 -0.05498213
v 0.02796936 -0.17294808 -0.04973942
v 0.01949570 -0.17024122 -0.04801536
v 0.01087467 -0.17027519 -0.04998881
v 0.00737238 -0.16814081 -0.05703986
v 0.01113738 -0.16725848 -0.06580770
v -0.00992677 -0.15864397 -0.05262220
v -0.00647935 -0.16192706 -0.04912060
v 0.00311702 -0.16280944 -0.05160159
v -0.00176996 -0.16508637 -0.04911560
v -0.01340847 -0.16160895 -0.05540013
v -0.01787707 -0.16283934 -0.05198610
v -0.02262247 -0.16322641 -0.05236715
v -0.02600306 -0.16102095 -0.05542076
v -0.02697361 -0.15946235 -0.06024754
v -0.05362251 -0.13245793 -0.06028014
v -0.05171396 -0.13249327 -0.06489736
v -0.04322404 -0.13565041 -0.06393450
v -0.04274298 -0.13623597 -0.05709499
v -0.04699673 -0.13555792 -0.05309105
v -0.05098216 -0.13598518 -0.05393344
v -0.05358432 -0.13405525 -0.05656677
v -0.03664035 -0.14591177 -0.06777263
v -0.02938046 -0.15019791 -0.05904883
v -0.03137724 -0.14842142 -0.06614548
v -0.03172526 -0.15209369 -0.05381352
v -0.03655389 -0.15387066 -0.05399305
v -0.04022762 -0.15152021 -0.05618525
v -0.04046175 -0.14608659 -0.06532186
v -0.04221745 -0.14828591 -0.06036186
v -0.04655504 -0.13496102 -0.06752181
v -0.01432064 -0.16105614 -0.06346250
v -0.02524081 -0.16077764 -0.06612080
v -0.01939261 -0.16275851 -0.06751227
v -0.00955899 -0.16186048 -0.06101173
v -0.00476785 -0.16507654 -0.06599355
v 0.00147970 -0.16348092 -0.06553811
v 0.00484186 -0.16714285 -0.05914783
v 0.02154285 -0.17300956 -0.06607842
v 0.03208850 -0.18046547 -0.05424184
v 0.03135829 -0.17831851 -0.06265587
v 0.01373138 -0.17420499 -0.04896617
v 0.02503538 -0.17684956 -0.04822648
v 0.01934655 -0.17437710 -0.04734832
v 0.00723214 -0.17519249 -0.05648357
v 0.00994022 -0.17451428 -0.06478441
v -0.01036806 -0.16439147 -0.05385852
v -0.00623713 -0.16696478 -0.05048293
v 0.00304018 -0.16924344 -0.05290931
v -0.00180715 -0.17069967 -0.05107969
v -0.01312530 -0.16495751 -0.05698299
v -0.01816098 -0.16555740 -0.05339497
v -0.02229512 -0.16587411 -0.05356842
v -0.02595837 -0.16410185 -0.05547988
v -0.02748100 -0.16262828 -0.06072843
v -0.05269839 -0.13533154 -0.06123883
v -0.05079417 -0.13469289 -0.06538850
v -0.04273015 -0.13659526 -0.06375688
v -0.04263881 -0.13760046 -0.05779487
v -0.04662748 -0.13814045 -0.05418777
v -0.05005081 -0.13948439 -0.05543029
v -0.05275363 -0.13758881 -0.05801427
v -0.03676708 -0.14854236 -0.06789488
v -0.03149769 -0.15034453 -0.06630492
v -0.02876079 -0.15225117 -0.05939287
v -0.03224860 -0.15504898 -0.05539566
v -0.03555143 -0.15647675 -0.05607319
v -0.03909259 -0.15516744 -0.05711585
v -0.04149222 -0.15309061 -0.06093317
v -0.04094157 -0.15009682 -0.06535006
v -0.04602960 -0.13611628 -0.06742603
v -0.01376988 -0.16553865 -0.06671143
v -0.02372983 -0.16672869 -0.06651700
v -0.01919317 -0.16762067 -0.06665760
v -0.01027927 -0.16755034 -0.06102479
v -0.00502133 -0.16959815 -0.06633377
v 0.00216796 -0.16827793 -0.06524408
v 0.00510739 -0.17309357 -0.05891055
v 0.01919574 -0.18100886 -0.06464726
v 0.02558652 -0.18544687 -0.06004429
v 0.02699025 -0.18612192 -0.05277908
v 0.02684334 -0.18181063 -0.04847419
v 0.01043168 -0.17781015 -0.04988217
v 0.01460475 -0.17697628 -0.04786551
v 0.01216774 -0.18038262 -0.04869801
v 0.02274521 -0.17877681 -0.04670012
v 0.02438594 -0.18336333 -0.04730010
v 0.01781070 -0.17991327 -0.04585725
v 0.01042752 -0.18122522 -0.06077188
v 0.00917178 -0.18174861 -0.05480105
v -0.01024127 -0.16988565 -0.05407673
v -0.00611734 -0.17170597 -0.05113614
v 0.00170992 -0.17450173 -0.05392009
v -0.00246695 -0.17448671 -0.05189872
v -0.01172173 -0.16717051 -0.06219923
v -0.01487651 -0.16802113 -0.05667686
v -0.01889044 -0.16794379 -0.05448288
v -0.02176693 -0.16844998 -0.05489302
v -0.02468181 -0.16759993 -0.05572027
v -0.02760413 -0.16645224 -0.06374395
v -0.02742682 -0.16701506 -0.05877364
v -0.05156727 -0.13863788 -0.06221294
v -0.04985172 -0.13668422 -0.06589729
v -0.04248853 -0.13739379 -0.06431448
v -0.04241045 -0.13934137 -0.05834508
v -0.04653302 -0.14118738 -0.05545729
v -0.04886256 -0.14202870 -0.05710149
v -0.05123127 -0.14079724 -0.05889720
v -0.03625324 -0.15159352 -0.06786889
v -0.02772531 -0.15466367 -0.06327224
v -0.02905084 -0.15669428 -0.05801439
v -0.03254366 -0.15738384 -0.05691183
v -0.03481732 -0.15831773 -0.05727994
v -0.03730193 -0.15789689 -0.05767828
v -0.03969339 -0.15707569 -0.05959064
v -0.04095440 -0.15589423 -0.06311613
v -0.04613282 -0.13774712 -0.06759971
v -0.01299199 -0.17096986 -0.06563121
v -0.01232083 -0.17086248 -0.06291735
v -0.02679650 -0.17033060 -0.06320274
v -0.02481599 -0.17071329 -0.06513000
v -0.01618429 -0.17075838 -0.06620950
v -0.02189416 -0.17075427 -0.06572497
v -0.01950021 -0.17213984 -0.06555760
v -0.01064220 -0.17405803 -0.06442404
v -0.00465745 -0.17696704 -0.06540900
v 0.00149111 -0.17571692 -0.06558025
v 0.00482835 -0.17763100 -0.06124616
v 0.00293139 -0.17754267 -0.05680674
v 0.01686090 -0.18638183 -0.05906516
v 0.02173290 -0.18780275 -0.05514193
v 0.02159601 -0.18769820 -0.05000931
v 0.02462998 -0.18522961 -0.04829544
v 0.01140821 -0.18283285 -0.04964823
v 0.01385307 -0.18182830 -0.04700434
v 0.01333594 -0.18302400 -0.04751050
v 0.02137651 -0.18456833 -0.04643369
v 0.02129912 -0.18310694 -0.04574460
v 0.01696248 -0.18353514 -0.04565287
v 0.01269719 -0.18560840 -0.05084807
v 0.01203708 -0.18483190 -0.05588418
v -0.01205902 -0.17330785 -0.05774099
v -0.00912753 -0.17411108 -0.05317259
v -0.00597630 -0.17501421 -0.05220062
v -0.00006832 -0.17684148 -0.05422896
v -0.00306317 -0.17638044 -0.05275410
v -0.01404640 -0.17036696 -0.05871099
v -0.01706178 -0.17000268 -0.05607450
v -0.02319004 -0.16988663 -0.05605024
v -0.01955858 -0.16983022 -0.05527174
v -0.02127443 -0.17045905 -0.05563611
v -0.02551365 -0.17034311 -0.05726492
v -0.02730154 -0.17060880 -0.05988574
v -0.05066635 -0.14175050 -0.06151509
v -0.04979834 -0.14032955 -0.06431931
v -0.04024534 -0.14015923 -0.06227028
v -0.04351199 -0.14260904 -0.05726826
v -0.04647174 -0.14325423 -0.05684137
v -0.04810417 -0.14400048 -0.05852169
v -0.05006379 -0.14274506 -0.05942875
v -0.03128769 -0.15383832 -0.06731403
v -0.03941433 -0.15495570 -0.06661892
v -0.03511588 -0.15602647 -0.06701124
v -0.02801704 -0.15961714 -0.06318158
v -0.02974127 -0.15808238 -0.06625146
v -0.02876258 -0.15924142 -0.05988157
v -0.03100480 -0.15862392 -0.05795032
v -0.03638622 -0.15924696 -0.05799341
v -0.03287518 -0.15868582 -0.05777174
v -0.03438921 -0.15911339 -0.05782604
v -0.03793147 -0.15960856 -0.05883807
v -0.03899422 -0.15995873 -0.06044841
v -0.03947902 -0.15949826 -0.06282562
v -0.03885488 -0.15875391 -0.06487364
v -0.04176617 -0.13913654 -0.06679356
v -0.04794689 -0.14015494 -0.06705469
v -0.04492056 -0.14122619 -0.06792122
v -0.01690687 -0.17322571 -0.06508464
v -0.01484039 -0.17354680 -0.06408840
v -0.01411168 -0.17315067 -0.06185043
v -0.01487866 -0.17235778 -0.05922741
v -0.02637292 -0.17280544 -0.05939472
v -0.02578354 -0.17283802 -0.06169289
v -0.02435081 -0.17295144 -0.06351745
v -0.02214505 -0.17304192 -0.06468946
v -0.01981139 -0.17464198 -0.06340069
v -0.01135117 -0.17848028 -0.06228352
v -0.01201019 -0.17736523 -0.05801773
v -0.00808378 -0.17983176 -0.06422383
v -0.00446977 -0.18163957 -0.06380284
v -0.00051254 -0.18029569 -0.06434000
v 0.00231013 -0.18058039 -0.06247568
v 0.00311661 -0.18008737 -0.05997807
v 0.00022265 -0.17897628 -0.05561006
v 0.00210305 -0.17967163 -0.05791312
v 0.01628102 -0.18730034 -0.05209100
v 0.01661484 -0.18521677 -0.04745764
v -0.00797120 -0.17651157 -0.05359924
v -0.01024930 -0.17668371 -0.05507523
v -0.00158836 -0.17800946 -0.05411011
v -0.00357011 -0.17764018 -0.05364680
v -0.00567637 -0.17673032 -0.05313337
v -0.01837227 -0.17125381 -0.05627984
v -0.01663548 -0.17183475 -0.05711424
v -0.02400033 -0.17170636 -0.05686939
v -0.02559271 -0.17240725 -0.05764973
v -0.01980203 -0.17164458 -0.05600828
v -0.02113308 -0.17280750 -0.05638587
v -0.02257164 -0.17175399 -0.05620593
v -0.04933278 -0.14372156 -0.06128109
v -0.04951379 -0.14309428 -0.06294990
v -0.04870482 -0.14255766 -0.06482846
v -0.04753596 -0.14267783 -0.06632209
v -0.03924556 -0.14190288 -0.06617820
v -0.03939255 -0.14287244 -0.06332487
v -0.04149821 -0.14371963 -0.05924088
v -0.04488501 -0.14451562 -0.05776668
v -0.04829785 -0.14458026 -0.06011927
v -0.04621911 -0.14479060 -0.05864429
v -0.04691817 -0.14508550 -0.05959636
v -0.03242403 -0.15791167 -0.06634694
v -0.03677581 -0.15867092 -0.06605256
v -0.03463809 -0.15930374 -0.06596446
v -0.02951251 -0.16093941 -0.06032217
v -0.02925755 -0.16177191 -0.06262833
v -0.03032070 -0.16157509 -0.06455654
v -0.03273742 -0.16043083 -0.06542969
v -0.03089474 -0.16007222 -0.05884963
v -0.03210583 -0.15956013 -0.05836809
v -0.03654884 -0.16042210 -0.05862373
v -0.03761692 -0.16097505 -0.05934769
v -0.03308666 -0.15974091 -0.05819428
v -0.03420563 -0.16075702 -0.05853301
v -0.03555435 -0.16018621 -0.05826747
v -0.03783590 -0.16152476 -0.06046522
v -0.03740256 -0.16172249 -0.06215966
v -0.03664725 -0.16129429 -0.06394100
v -0.03580855 -0.16065268 -0.06518227
v -0.04118463 -0.14213748 -0.06790113
v -0.04600686 -0.14307563 -0.06704235
v -0.04363589 -0.14364250 -0.06736392
v -0.01742713 -0.17494337 -0.06179440
v -0.01651897 -0.17446463 -0.06015521
v -0.01621523 -0.17347129 -0.05860132
v -0.01695177 -0.17286654 -0.05788684
v -0.02467039 -0.17329033 -0.05768991
v -0.02513437 -0.17394884 -0.05851746
v -0.02466996 -0.17447932 -0.05990392
v -0.02281177 -0.17478229 -0.06169695
v -0.02061845 -0.17551966 -0.05977470
v -0.00744146 -0.18222506 -0.06242919
v -0.01038611 -0.18183471 -0.05987173
v -0.01152174 -0.18043880 -0.05742192
v -0.01051998 -0.17942138 -0.05577165
v -0.00470887 -0.18310468 -0.06092066
v -0.00179842 -0.18240242 -0.06239414
v 0.00033410 -0.18197791 -0.06029671
v 0.00098400 -0.18143914 -0.05910200
v 0.00055452 -0.18074305 -0.05733961
v -0.00042398 -0.18034084 -0.05628628
v -0.00111583 -0.17939441 -0.05548364
v -0.00728430 -0.17794441 -0.05417091
v -0.00869647 -0.17848514 -0.05472314
v -0.00603035 -0.17835252 -0.05383742
v -0.00275441 -0.17904042 -0.05439407
v -0.00491256 -0.18012239 -0.05433708
v -0.01852274 -0.17258991 -0.05672342
v -0.02388160 -0.17296971 -0.05683923
v -0.01956856 -0.17393918 -0.05708688
v -0.02105725 -0.17479239 -0.05771661
v -0.02283005 -0.17418058 -0.05698276
v -0.04772453 -0.14517973 -0.06088692
v -0.04822259 -0.14491509 -0.06192309
v -0.04818426 -0.14480738 -0.06314349
v -0.04735543 -0.14476086 -0.06438124
v -0.04612055 -0.14473660 -0.06556970
v -0.04483479 -0.14454384 -0.06654686
v -0.04132627 -0.14435418 -0.06724632
v -0.03971040 -0.14546610 -0.06573874
v -0.04014160 -0.14568509 -0.06287247
v -0.04191755 -0.14562703 -0.06034648
v -0.04404229 -0.14541463 -0.05903506
v -0.04517348 -0.14543991 -0.05919999
v -0.04584734 -0.14563469 -0.05949169
v -0.04632322 -0.14609958 -0.06020445
v -0.04716812 -0.14553220 -0.06030262
v -0.03331779 -0.16189979 -0.06445807
v -0.03128016 -0.16091098 -0.05951607
v -0.03092383 -0.16177656 -0.06032908
v -0.03106254 -0.16253052 -0.06162184
v -0.03160001 -0.16267238 -0.06322438
v -0.03221947 -0.16043488 -0.05876839
v -0.03636566 -0.16117053 -0.05888283
v -0.03682397 -0.16196553 -0.06021881
v -0.03683896 -0.16153206 -0.05958664
v -0.03296587 -0.16152389 -0.05909783
v -0.03405054 -0.16221572 -0.05952758
v -0.03542826 -0.16179786 -0.05907691
v -0.03602681 -0.16247321 -0.06116182
v -0.03460635 -0.16252054 -0.06275612
v -0.04321828 -0.14583520 -0.06601650
v -0.01879738 -0.17480154 -0.05859315
v -0.01768732 -0.17406975 -0.05796272
v -0.02395587 -0.17430253 -0.05780810
v -0.02290808 -0.17496957 -0.05839086
v -0.00821479 -0.18345021 -0.05853456
v -0.01003982 -0.18229659 -0.05698037
v -0.00899728 -0.18061910 -0.05544335
v -0.01000890 -0.18136264 -0.05597186
v -0.00558913 -0.18364014 -0.05740917
v -0.00256452 -0.18322219 -0.05924821
v -0.00159281 -0.18271754 -0.05781466
v -0.00111891 -0.18098639 -0.05635715
v -0.00110066 -0.18177952 -0.05695850
v -0.00201139 -0.18039621 -0.05534840
v -0.00776026 -0.17963387 -0.05466986
v -0.00754543 -0.18189607 -0.05492598
v -0.00401470 -0.18197219 -0.05514288
v -0.00603350 -0.18291400 -0.05549467
v -0.04725918 -0.14580576 -0.06111628
v -0.04723875 -0.14581315 -0.06193095
v -0.04724626 -0.14590056 -0.06284100
v -0.04654157 -0.14613019 -0.06367147
v -0.04496509 -0.14612342 -0.06478828
v -0.04238850 -0.14672257 -0.06445312
v -0.04251699 -0.14680008 -0.06244779
v -0.04398701 -0.14611624 -0.05996525
v -0.04326460 -0.14651899 -0.06071061
v -0.04502286 -0.14602367 -0.05973667
v -0.04529408 -0.14669232 -0.06050485
v -0.04567005 -0.14695822 -0.06161529
v -0.04653105 -0.14651944 -0.06126434
v -0.03357457 -0.16293226 -0.06144184
v -0.03181769 -0.16179244 -0.05982673
v -0.03286204 -0.16247858 -0.06026584
v -0.03632785 -0.16200642 -0.05967450
v -0.03501366 -0.16242687 -0.06019318
v -0.04462038 -0.14698542 -0.06333309
v -0.00902277 -0.18211676 -0.05576140
v -0.00790489 -0.18292381 -0.05626750
v -0.00381148 -0.18292586 -0.05664778
v -0.00266929 -0.18246959 -0.05608135
v -0.04677123 -0.14640529 -0.06213814
v -0.04596530 -0.14668612 -0.06261677
v -0.04422012 -0.14674999 -0.06071508
v -0.04452929 -0.14707170 -0.06182569
v -0.00038535 0.04863361 0.01596469
v 0.01663620 0.03718597 0.01922655
v -0.00492490 0.05038873 -0.00410300
v 0.01267721 0.04091471 -0.00352699
v -0.01894237 0.03371873 -0.00503522
v -0.01069681 0.06017731 -0.02963334
v 0.00884432 0.05451852 -0.02958131
v 0.02439817 0.01964954 0.00017244
v -0.02383389 -0.02634568 0.00486922
v -0.03058863 -0.01066094 -0.00079322
v -0.03189212 0.01214720 -0.00610548
v -0.02480181 0.04442298 -0.02754664
v -0.01428805 0.05857023 -0.05499309
v 0.00634333 0.05682538 -0.05462724
v 0.02023226 0.02921817 -0.02447003
v 0.03407094 -0.00453429 0.00437719
v 0.03024863 -0.02934266 0.00893432
v 0.01833800 -0.04444965 0.01412892
v -0.01273672 -0.04039560 0.00980961
v -0.03135629 -0.02289636 -0.01372963
v -0.03247358 0.01864148 -0.02795160
v -0.03106098 0.04685280 -0.05069429
v -0.01542196 0.02994836 -0.06386662
v 0.00699018 0.03076749 -0.06361127
v 0.02178289 0.03557375 -0.04635251
v 0.02905743 0.00041163 -0.02011877
v 0.03237791 -0.02990378 -0.01737976
v 0.02405135 -0.05627671 -0.00843656
v 0.00296705 -0.04647755 0.01457661
v -0.01548614 -0.05954340 -0.00684834
v -0.03115019 -0.04834699 -0.02026868
v -0.03635594 -0.00945574 -0.03165936
v -0.03873233 0.02410404 -0.04588842
v -0.03178358 0.01980725 -0.06410003
v -0.01331837 -0.02079249 -0.06517476
v 0.00524601 -0.01986027 -0.06325620
v 0.02284136 0.01753717 -0.05698723
v 0.02741131 0.00659912 -0.04076576
v 0.03180718 -0.02821562 -0.04048687
v 0.02591763 -0.08050500 -0.02214742
v 0.00470048 -0.06464742 -0.00222379
v -0.01555774 -0.08467676 -0.02149057
v -0.03955287 -0.03923362 -0.03708267
v -0.03196307 -0.07734895 -0.03139842
v -0.04089688 -0.00071570 -0.04732221
v -0.03997047 0.00732160 -0.05738693
v -0.03021523 -0.02487461 -0.06565499
v -0.01534565 -0.06999183 -0.06687069
v 0.00724974 -0.07023910 -0.06556553
v 0.02121174 -0.02333595 -0.05568957
v 0.03375317 -0.07059817 -0.04284960
v 0.02512860 -0.11078329 -0.03147471
v 0.00508381 -0.08803291 -0.01500273
v -0.01900220 -0.11183959 -0.03748882
v -0.04547666 -0.03250298 -0.05184007
v -0.04495761 -0.07131515 -0.04243791
v -0.03656080 -0.10491124 -0.04268134
v -0.04213627 -0.02876492 -0.06322610
v -0.03573944 -0.06982405 -0.06769168
v -0.01837768 -0.11553721 -0.06981552
v 0.01330807 -0.11402495 -0.06940472
v 0.02429806 -0.06878307 -0.05862916
v 0.03699721 -0.10705866 -0.04874533
v 0.02426724 -0.13448269 -0.03726655
v 0.00177731 -0.11413121 -0.03140813
v -0.02183567 -0.13567610 -0.04537231
v -0.05401054 -0.06845127 -0.05510527
v -0.05001678 -0.09893136 -0.04895216
v -0.03668742 -0.12812432 -0.04782683
v -0.05000433 -0.06953098 -0.06669796
v -0.03416252 -0.11097680 -0.06973124
v -0.02249813 -0.14180617 -0.06957966
v -0.00496830 -0.12819876 -0.06979090
v 0.01332194 -0.14211817 -0.06858486
v 0.03312154 -0.10891352 -0.06720668
v 0.03753003 -0.13305446 -0.05083114
v 0.02236588 -0.14785231 -0.04125947
v 0.00869478 -0.13810353 -0.04356015
v -0.00153893 -0.13654452 -0.04249918
v -0.01133911 -0.13969402 -0.04638195
v -0.02187264 -0.14765988 -0.04694855
v -0.02792029 -0.13616632 -0.04800183
v -0.05712549 -0.09741869 -0.05886638
v -0.05172415 -0.11844916 -0.05116427
v -0.03650816 -0.14029829 -0.04840076
v -0.04368323 -0.12621631 -0.05010891
v -0.05416679 -0.10138121 -0.06863123
v -0.04447721 -0.11806217 -0.06957030
v -0.03036970 -0.13888298 -0.06939960
v -0.02058890 -0.15072323 -0.06698489
v -0.01110770 -0.14857410 -0.06859094
v -0.00168744 -0.14736268 -0.06878972
v 0.00931102 -0.14642508 -0.05492067
v 0.03234150 -0.13730398 -0.06721884
v 0.03551280 -0.14727016 -0.05181402
v 0.02147216 -0.15652267 -0.04390037
v 0.01174134 -0.15133793 -0.05594468
v -0.00112090 -0.14845876 -0.04480177
v -0.01111151 -0.14756365 -0.05233073
v -0.01276231 -0.15087594 -0.05310386
v -0.02267089 -0.15486912 -0.04847521
v -0.02630909 -0.14785652 -0.05909038
v -0.02773739 -0.14440141 -0.05892962
v -0.05521788 -0.11579723 -0.05962926
v -0.05162749 -0.12750093 -0.05164361
v -0.02866812 -0.14493029 -0.05836129
v -0.03645736 -0.14561288 -0.04976404
v -0.04206833 -0.13917450 -0.05703622
v -0.04261841 -0.13546498 -0.05638492
v -0.05269749 -0.12106682 -0.06652182
v -0.04393166 -0.13363717 -0.06874770
v -0.03763111 -0.13690230 -0.06942350
v -0.01972118 -0.15523819 -0.06626225
v -0.00370082 -0.15417631 -0.06632245
v 0.00582656 -0.14987804 -0.05524534
v 0.02861080 -0.14992352 -0.06708801
v 0.03550899 -0.15742095 -0.05329537
v 0.02036549 -0.16341223 -0.04560143
v 0.01008844 -0.15923886 -0.05709213
v -0.00992958 -0.15041663 -0.05162466
v -0.00123771 -0.15663649 -0.04612559
v -0.01317486 -0.15616400 -0.05404645
v -0.02273475 -0.15892790 -0.05042213
v -0.02627391 -0.15431095 -0.05885047
v -0.05510864 -0.12517761 -0.05969244
v -0.04310732 -0.13438333 -0.05603361
v -0.05130492 -0.13131510 -0.05239373
v -0.03747244 -0.14262034 -0.06771141
v -0.02926305 -0.14801447 -0.05842078
v -0.03636990 -0.14892857 -0.05097073
v -0.04190511 -0.14329187 -0.05839080
v -0.04928653 -0.13192674 -0.06716114
v -0.01947069 -0.15803645 -0.06648755
v -0.00435315 -0.15764110 -0.06597060
v 0.00468788 -0.15703542 -0.05817235
v 0.02631551 -0.16054974 -0.06693012
v 0.03541523 -0.16671194 -0.05460107
v 0.01950873 -0.16894577 -0.04773086
v 0.00778350 -0.16521202 -0.05704272
v -0.00988668 -0.15573986 -0.05194312
v -0.00177512 -0.16250862 -0.04814118
v -0.01350603 -0.16002230 -0.05480665
v -0.02273428 -0.16184045 -0.05179375
v -0.02675982 -0.15803052 -0.05972052
v -0.05405676 -0.13074633 -0.06006032
v -0.04281767 -0.13554404 -0.05673784
v -0.05116130 -0.13432346 -0.05328214
v -0.03679691 -0.14482303 -0.06762600
v -0.02937311 -0.14951686 -0.05867589
v -0.03675310 -0.15230582 -0.05279815
v -0.04228951 -0.14645971 -0.05958652
v -0.04709062 -0.13434367 -0.06750965
v -0.01950274 -0.16065968 -0.06748044
v -0.00452423 -0.16265718 -0.06625950
v 0.00458850 -0.16380332 -0.05890161
v 0.02336958 -0.16908561 -0.06634587
v 0.03373501 -0.17610346 -0.05476624
v 0.01967041 -0.17176632 -0.04791510
v 0.00719149 -0.17128368 -0.05687171
v -0.01018400 -0.16147230 -0.05334008
v -0.00176653 -0.16796179 -0.05012870
v -0.01329203 -0.16312749 -0.05629009
v -0.02244838 -0.16456736 -0.05299890
v -0.02717161 -0.16092227 -0.06071472
v -0.05321175 -0.13390897 -0.06071150
v -0.04268143 -0.13691552 -0.05741525
v -0.05064332 -0.13785018 -0.05465478
v -0.03670594 -0.14714987 -0.06787598
v -0.02917819 -0.15105928 -0.05940932
v -0.03600697 -0.15515850 -0.05515355
v -0.04200052 -0.15063186 -0.06092769
v -0.04622880 -0.13552962 -0.06746107
v -0.01916863 -0.16516103 -0.06717980
v -0.00489558 -0.16706912 -0.06581259
v 0.00505990 -0.16994087 -0.05937850
v 0.02031600 -0.17704926 -0.06555700
v 0.02962404 -0.18411945 -0.05369300
v 0.01249568 -0.17776336 -0.04896790
v 0.02510720 -0.18105651 -0.04754180
v 0.01866840 -0.17698799 -0.04664934
v 0.00793196 -0.17901267 -0.05571699
v -0.01038511 -0.16742785 -0.05422097
v -0.00202444 -0.17287995 -0.05147934
v -0.01376320 -0.16677640 -0.05683851
v -0.02209155 -0.16725941 -0.05430275
v -0.02766539 -0.16462202 -0.05990285
v -0.05209398 -0.13686445 -0.06191480
v -0.04252024 -0.13834806 -0.05820233
v -0.04934987 -0.14081441 -0.05623114
v -0.03671908 -0.15012206 -0.06777042
v -0.02833752 -0.15437208 -0.05841637
v -0.03513102 -0.15751152 -0.05674535
v -0.04068318 -0.15514590 -0.06033605
v -0.04599807 -0.13678698 -0.06747735
v -0.01186165 -0.16905810 -0.06513643
v -0.02612005 -0.16874327 -0.06506664
v -0.01927099 -0.16997249 -0.06614035
v -0.00498922 -0.17360811 -0.06611329
v 0.00453414 -0.17597256 -0.05764061
v 0.01800621 -0.18444453 -0.06238896
v 0.02480124 -0.18701421 -0.05141860
v 0.01220353 -0.18205602 -0.04840022
v 0.02349649 -0.18424476 -0.04716414
v 0.01728134 -0.18211303 -0.04554349
v 0.01078363 -0.18378864 -0.05310392
v -0.00978725 -0.17203970 -0.05339760
v -0.00280967 -0.17553647 -0.05239880
v -0.01604812 -0.16914375 -0.05628312
v -0.02147628 -0.16944621 -0.05536604
v -0.02645048 -0.16899420 -0.05791545
v -0.05117469 -0.14048423 -0.06186807
v -0.04259866 -0.14111395 -0.05780035
v -0.04846770 -0.14307217 -0.05775154
v -0.03558795 -0.15372874 -0.06757468
v -0.02827650 -0.15641092 -0.06601202
v -0.03008273 -0.15785636 -0.05792159
v -0.03458498 -0.15874107 -0.05761248
v -0.03872603 -0.15868871 -0.05915254
v -0.04023217 -0.15720232 -0.06433982
v -0.04564586 -0.13942249 -0.06791407
v -0.01481543 -0.17228551 -0.06552386
v -0.01342618 -0.17175241 -0.06068271
v -0.02671100 -0.17169739 -0.06123513
v -0.02353974 -0.17195974 -0.06498164
v -0.01972789 -0.17374186 -0.06467992
v -0.01239210 -0.17593504 -0.06086367
v -0.00438687 -0.17966835 -0.06481338
v 0.00349958 -0.17936377 -0.06247318
v 0.00144543 -0.17840291 -0.05629885
v 0.01634797 -0.18714584 -0.05577719
v 0.01633616 -0.18700470 -0.04924566
v 0.01680952 -0.18410127 -0.04608041
v -0.00848544 -0.17552034 -0.05341315
v -0.00329535 -0.17705674 -0.05321401
v -0.01784056 -0.17066042 -0.05609906
v -0.02465458 -0.17106046 -0.05685389
v -0.02115849 -0.17158095 -0.05591536
v -0.05011322 -0.14268748 -0.06144607
v -0.04861529 -0.14120389 -0.06574982
v -0.03943726 -0.14099870 -0.06498003
v -0.04432958 -0.14357139 -0.05715609
v -0.04745704 -0.14464174 -0.05925494
v -0.03479481 -0.15783103 -0.06639057
v -0.02844477 -0.16053931 -0.06156224
v -0.03123201 -0.15947611 -0.06584960
v -0.03162587 -0.15915067 -0.05811518
v -0.03730652 -0.16010521 -0.05868071
v -0.03426862 -0.15974404 -0.05806154
v -0.03844641 -0.16097231 -0.06145394
v -0.03729378 -0.16003634 -0.06509215
v -0.04423399 -0.14255394 -0.06769782
v -0.01559867 -0.17421715 -0.06202751
v -0.01608796 -0.17280231 -0.05814761
v -0.02562821 -0.17323901 -0.05824047
v -0.02463804 -0.17386199 -0.06177735
v -0.02005145 -0.17525081 -0.06163162
v -0.00993712 -0.18048061 -0.06233621
v -0.01136826 -0.17856492 -0.05659759
v -0.00469460 -0.18265094 -0.06235713
v 0.00070280 -0.18158199 -0.06236756
v 0.00198960 -0.18027206 -0.05854636
v -0.00067408 -0.17924197 -0.05536509
v -0.00752090 -0.17735453 -0.05382955
v -0.00420053 -0.17855005 -0.05385721
v -0.01885451 -0.17181550 -0.05628586
v -0.02357501 -0.17218305 -0.05663389
v -0.02123792 -0.17415322 -0.05697656
v -0.04852429 -0.14460532 -0.06113982
v -0.04854944 -0.14387627 -0.06388628
v -0.04630487 -0.14382486 -0.06648147
v -0.03960304 -0.14321767 -0.06709033
v -0.04016879 -0.14451907 -0.06156468
v -0.04501860 -0.14506240 -0.05852538
v -0.04661380 -0.14557279 -0.05981708
v -0.03422324 -0.16075446 -0.06534773
v -0.03054352 -0.16103510 -0.05966210
v -0.03029042 -0.16242032 -0.06314111
v -0.03245325 -0.15991162 -0.05842227
v -0.03616728 -0.16064103 -0.05856252
v -0.03736109 -0.16158123 -0.05990332
v -0.03414834 -0.16171028 -0.05901271
v -0.03612830 -0.16222153 -0.06245697
v -0.04323025 -0.14472063 -0.06691414
v -0.01726006 -0.17421071 -0.05871290
v -0.01807979 -0.17349507 -0.05737025
v -0.02401251 -0.17385597 -0.05714667
v -0.02429964 -0.17453442 -0.05849469
v -0.02088940 -0.17511539 -0.05840844
v -0.01048099 -0.18216862 -0.05806512
v -0.00962026 -0.18012245 -0.05539775
v -0.00523339 -0.18365051 -0.05899251
v -0.00050414 -0.18251230 -0.05934316
v -0.00054991 -0.18097012 -0.05661333
v -0.00184594 -0.17953403 -0.05503559
v -0.00709474 -0.17853086 -0.05418277
v -0.00576960 -0.18207331 -0.05488944
v -0.04739270 -0.14551438 -0.06074828
v -0.04775906 -0.14542250 -0.06254643
v -0.04616705 -0.14551867 -0.06465846
v -0.04107435 -0.14656006 -0.06384504
v -0.04330371 -0.14593871 -0.05981725
v -0.04533327 -0.14571826 -0.05945981
v -0.04597709 -0.14665393 -0.06090707
v -0.03316700 -0.16268967 -0.06298023
v -0.03198482 -0.16121562 -0.05929238
v -0.03170501 -0.16223039 -0.06044024
v -0.03640603 -0.16171373 -0.05929255
v -0.03614682 -0.16224696 -0.06022209
v -0.03398587 -0.16249989 -0.06016612
v -0.04362264 -0.14652167 -0.06471974
v -0.00941257 -0.18223198 -0.05634600
v -0.00857291 -0.18128039 -0.05521393
v -0.00573596 -0.18315105 -0.05633688
v -0.00226633 -0.18252562 -0.05688339
v -0.00247195 -0.18164126 -0.05562961
v -0.04697694 -0.14619313 -0.06159234
v -0.04667747 -0.14633037 -0.06285483
v -0.04372501 -0.14688571 -0.06134987
v -0.04463622 -0.14645611 -0.06020397
v -0.04526366 -0.14697881 -0.06225014
f 322 319 958
f 958 319 321
f 308 320 321
f 321 320 958
f 959 318 323
f 319 322 323
f 323 322 959
f 327 2 960
f 960 2 326
f 326 1 960
f 960 1 325
f 325 308 960
f 960 308 321
f 319 327 321
f 321 327 960
f 329 11 961
f 961 11 328
f 2 327 328
f 328 327 961
f 327 319 961
f 961 319 323
f 318 329 323
f 323 329 961
f 1 335 325
f 325 335 962
f 335 3 962
f 962 3 334
f 309 324 334
f 334 324 962
f 324 308 962
f 962 308 325
f 338 255 963
f 963 255 337
f 337 139 963
f 963 139 336
f 1 326 336
f 336 326 963
f 2 338 326
f 326 338 963
f 11 340 328
f 328 340 964
f 340 253 964
f 964 253 339
f 255 338 339
f 339 338 964
f 338 2 964
f 964 2 328
f 11 329 342
f 342 329 965
f 329 318 965
f 965 318 330
f 317 341 330
f 330 341 965
f 341 12 965
f 965 12 342
f 10 348 349
f 349 348 966
f 9 347 348
f 348 347 966
f 312 331 347
f 347 331 966
f 331 311 966
f 966 311 349
f 4 350 351
f 351 350 967
f 350 10 967
f 967 10 349
f 311 332 349
f 349 332 967
f 332 310 967
f 967 310 351
f 3 352 334
f 334 352 968
f 4 351 352
f 352 351 968
f 310 333 351
f 351 333 968
f 333 309 968
f 968 309 334
f 3 335 354
f 354 335 969
f 335 1 969
f 969 1 336
f 139 353 336
f 336 353 969
f 353 256 969
f 969 256 354
f 255 357 337
f 337 357 970
f 357 257 970
f 970 257 356
f 141 355 356
f 356 355 970
f 355 139 970
f 970 139 337
f 357 255 971
f 971 255 339
f 253 359 339
f 339 359 971
f 254 358 359
f 359 358 971
f 358 257 971
f 971 257 357
f 253 340 361
f 361 340 972
f 340 11 972
f 972 11 342
f 12 360 342
f 342 360 972
f 360 137 972
f 972 137 361
f 363 5 973
f 973 5 362
f 12 341 362
f 362 341 973
f 341 317 973
f 973 317 343
f 316 363 343
f 343 363 973
f 365 6 974
f 974 6 364
f 5 363 364
f 364 363 974
f 363 316 974
f 974 316 344
f 315 365 344
f 344 365 974
f 367 7 975
f 975 7 366
f 6 365 366
f 366 365 975
f 365 315 975
f 975 315 345
f 314 367 345
f 345 367 975
f 9 370 347
f 347 370 976
f 370 8 976
f 976 8 369
f 313 346 369
f 369 346 976
f 346 312 976
f 976 312 347
f 4 372 350
f 350 372 977
f 372 175 977
f 977 175 371
f 9 348 371
f 371 348 977
f 348 10 977
f 977 10 350
f 4 352 374
f 374 352 978
f 352 3 978
f 978 3 354
f 256 373 354
f 354 373 978
f 373 140 978
f 978 140 374
f 355 141 979
f 979 141 376
f 258 375 376
f 376 375 979
f 375 256 979
f 979 256 353
f 139 355 353
f 353 355 979
f 257 379 356
f 356 379 980
f 379 250 980
f 980 250 378
f 249 377 378
f 378 377 980
f 377 141 980
f 980 141 356
f 257 358 379
f 379 358 981
f 358 254 981
f 981 254 381
f 248 380 381
f 381 380 981
f 380 250 981
f 981 250 379
f 383 138 982
f 982 138 382
f 382 254 982
f 982 254 359
f 359 253 982
f 982 253 361
f 137 383 361
f 361 383 982
f 137 360 385
f 385 360 983
f 360 12 983
f 983 12 362
f 5 384 362
f 362 384 983
f 384 252 983
f 983 252 385
f 252 384 387
f 387 384 984
f 384 5 984
f 984 5 364
f 6 386 364
f 364 386 984
f 268 387 386
f 386 387 984
f 278 388 389
f 389 388 985
f 268 386 388
f 388 386 985
f 386 6 985
f 985 6 366
f 7 389 366
f 366 389 985
f 8 390 369
f 369 390 986
f 7 367 390
f 390 367 986
f 367 314 986
f 986 314 368
f 368 313 986
f 986 313 369
f 279 392 393
f 393 392 987
f 392 8 987
f 987 8 370
f 9 391 370
f 370 391 987
f 391 277 987
f 987 277 393
f 277 391 395
f 395 391 988
f 391 9 988
f 988 9 371
f 175 394 371
f 371 394 988
f 394 276 988
f 988 276 395
f 175 372 397
f 397 372 989
f 372 4 989
f 989 4 374
f 140 396 374
f 374 396 989
f 396 174 989
f 989 174 397
f 375 258 990
f 990 258 399
f 142 398 399
f 399 398 990
f 140 373 398
f 398 373 990
f 373 256 990
f 990 256 375
f 377 249 991
f 991 249 401
f 259 400 401
f 401 400 991
f 400 258 991
f 991 258 376
f 141 377 376
f 376 377 991
f 404 249 992
f 992 249 378
f 250 403 378
f 378 403 992
f 403 271 992
f 992 271 402
f 272 404 402
f 402 404 992
f 250 380 403
f 403 380 993
f 380 248 993
f 993 248 406
f 270 405 406
f 406 405 993
f 405 271 993
f 993 271 403
f 251 407 408
f 408 407 994
f 407 248 994
f 994 248 381
f 254 382 381
f 381 382 994
f 382 138 994
f 994 138 408
f 383 137 995
f 995 137 385
f 252 409 385
f 385 409 995
f 409 251 995
f 995 251 408
f 138 383 408
f 408 383 995
f 411 269 996
f 996 269 410
f 251 409 410
f 410 409 996
f 409 252 996
f 996 252 387
f 268 411 387
f 387 411 996
f 288 413 414
f 414 413 997
f 413 287 997
f 997 287 412
f 268 388 412
f 412 388 997
f 388 278 997
f 997 278 414
f 415 278 998
f 998 278 389
f 7 390 389
f 389 390 998
f 390 8 998
f 998 8 392
f 392 279 998
f 998 279 415
f 418 291 999
f 999 291 417
f 417 279 999
f 999 279 393
f 277 416 393
f 393 416 999
f 416 290 999
f 999 290 418
f 276 394 420
f 420 394 1000
f 394 175 1000
f 1000 175 397
f 174 419 397
f 397 419 1000
f 419 275 1000
f 1000 275 420
f 290 416 422
f 422 416 1001
f 416 277 1001
f 1001 277 395
f 276 421 395
f 395 421 1001
f 421 289 1001
f 1001 289 422
f 396 140 1002
f 1002 140 398
f 142 424 398
f 398 424 1002
f 424 176 1002
f 1002 176 423
f 174 396 423
f 423 396 1002
f 424 142 1003
f 1003 142 399
f 258 400 399
f 399 400 1003
f 400 259 1003
f 1003 259 425
f 176 424 425
f 425 424 1003
f 427 259 1004
f 1004 259 401
f 249 404 401
f 401 404 1004
f 404 272 1004
f 1004 272 426
f 273 427 426
f 426 427 1004
f 284 429 430
f 430 429 1005
f 429 283 1005
f 1005 283 428
f 428 272 1005
f 1005 272 402
f 402 271 1005
f 1005 271 430
f 432 285 1006
f 1006 285 431
f 284 430 431
f 431 430 1006
f 271 405 430
f 430 405 1006
f 405 270 1006
f 1006 270 432
f 433 270 1007
f 1007 270 406
f 248 407 406
f 406 407 1007
f 407 251 1007
f 1007 251 410
f 269 433 410
f 410 433 1007
f 411 268 1008
f 1008 268 412
f 287 435 412
f 412 435 1008
f 435 286 1008
f 1008 286 434
f 269 411 434
f 434 411 1008
f 297 437 438
f 438 437 1009
f 437 298 1009
f 1009 298 436
f 287 413 436
f 436 413 1009
f 413 288 1009
f 1009 288 438
f 439 288 1010
f 1010 288 414
f 278 415 414
f 414 415 1010
f 415 279 1010
f 1010 279 417
f 291 439 417
f 417 439 1010
f 296 441 442
f 442 441 1011
f 291 418 441
f 441 418 1011
f 290 440 418
f 418 440 1011
f 440 295 1011
f 1011 295 442
f 275 419 444
f 444 419 1012
f 419 174 1012
f 1012 174 423
f 176 443 423
f 423 443 1012
f 443 274 1012
f 1012 274 444
f 421 276 1013
f 1013 276 420
f 275 446 420
f 420 446 1013
f 280 445 446
f 446 445 1013
f 445 289 1013
f 1013 289 421
f 295 440 448
f 448 440 1014
f 440 290 1014
f 1014 290 422
f 289 447 422
f 422 447 1014
f 447 294 1014
f 1014 294 448
f 443 176 1015
f 1015 176 425
f 259 427 425
f 425 427 1015
f 427 273 1015
f 1015 273 449
f 274 443 449
f 449 443 1015
f 272 428 426
f 426 428 1016
f 428 283 1016
f 1016 283 451
f 282 450 451
f 451 450 1016
f 450 273 1016
f 1016 273 426
f 305 453 454
f 454 453 1017
f 453 301 1017
f 1017 301 452
f 283 429 452
f 452 429 1017
f 429 284 1017
f 1017 284 454
f 457 303 1018
f 1018 303 456
f 304 455 456
f 456 455 1018
f 455 284 1018
f 1018 284 431
f 285 457 431
f 431 457 1018
f 286 458 434
f 434 458 1019
f 285 432 458
f 458 432 1019
f 270 433 432
f 432 433 1019
f 433 269 1019
f 1019 269 434
f 287 436 435
f 435 436 1020
f 436 298 1020
f 1020 298 460
f 299 459 460
f 460 459 1020
f 459 286 1020
f 1020 286 435
f 117 462 463
f 463 462 1021
f 462 123 1021
f 1021 123 461
f 298 437 461
f 461 437 1021
f 437 297 1021
f 1021 297 463
f 464 297 1022
f 1022 297 438
f 288 439 438
f 438 439 1022
f 439 291 1022
f 1022 291 441
f 296 464 441
f 441 464 1022
f 36 466 467
f 467 466 1023
f 43 465 466
f 466 465 1023
f 465 296 1023
f 1023 296 442
f 295 467 442
f 442 467 1023
f 446 275 1024
f 1024 275 444
f 274 469 444
f 444 469 1024
f 281 468 469
f 469 468 1024
f 468 280 1024
f 1024 280 446
f 447 289 1025
f 1025 289 445
f 445 280 1025
f 1025 280 471
f 471 293 1025
f 1025 293 470
f 294 447 470
f 470 447 1025
f 474 58 1026
f 1026 58 473
f 38 472 473
f 473 472 1026
f 472 295 1026
f 1026 295 448
f 294 474 448
f 448 474 1026
f 469 274 1027
f 1027 274 449
f 273 450 449
f 449 450 1027
f 282 475 450
f 450 475 1027
f 475 281 1027
f 1027 281 469
f 451 283 1028
f 1028 283 452
f 301 477 452
f 452 477 1028
f 477 306 1028
f 1028 306 476
f 476 282 1028
f 1028 282 451
f 453 305 1029
f 1029 305 480
f 27 479 480
f 480 479 1029
f 479 28 1029
f 1029 28 478
f 301 453 478
f 478 453 1029
f 455 304 1030
f 1030 304 482
f 302 481 482
f 482 481 1030
f 481 305 1030
f 1030 305 454
f 284 455 454
f 454 455 1030
f 485 304 1031
f 1031 304 456
f 303 484 456
f 456 484 1031
f 484 119 1031
f 1031 119 483
f 110 485 483
f 483 485 1031
f 286 459 458
f 458 459 1032
f 459 299 1032
f 1032 299 486
f 303 457 486
f 486 457 1032
f 457 285 1032
f 1032 285 458
f 461 123 1033
f 1033 123 488
f 125 487 488
f 488 487 1033
f 487 299 1033
f 1033 299 460
f 298 461 460
f 460 461 1033
f 123 462 491
f 491 462 1034
f 462 117 1034
f 1034 117 490
f 234 489 490
f 490 489 1034
f 489 237 1034
f 1034 237 491
f 493 116 1035
f 1035 116 492
f 492 117 1035
f 1035 117 463
f 297 493 463
f 463 493 1035
f 112 494 495
f 495 494 1036
f 116 493 494
f 494 493 1036
f 297 464 493
f 493 464 1036
f 464 296 1036
f 1036 296 495
f 465 43 1037
f 1037 43 496
f 496 112 1037
f 1037 112 495
f 296 465 495
f 495 465 1037
f 466 36 1038
f 1038 36 499
f 162 498 499
f 499 498 1038
f 166 497 498
f 498 497 1038
f 43 466 497
f 497 466 1038
f 472 38 1039
f 1039 38 500
f 500 36 1039
f 1039 36 467
f 295 472 467
f 467 472 1039
f 468 281 1040
f 1040 281 502
f 292 501 502
f 502 501 1040
f 501 293 1040
f 1040 293 471
f 280 468 471
f 471 468 1040
f 505 56 1041
f 1041 56 504
f 57 503 504
f 504 503 1041
f 503 294 1041
f 1041 294 470
f 293 505 470
f 470 505 1041
f 58 508 473
f 473 508 1042
f 508 211 1042
f 1042 211 507
f 165 506 507
f 507 506 1042
f 506 38 1042
f 1042 38 473
f 503 57 1043
f 1043 57 509
f 58 474 509
f 509 474 1043
f 294 503 474
f 474 503 1043
f 281 475 502
f 502 475 1044
f 475 282 1044
f 1044 282 511
f 307 510 511
f 511 510 1044
f 510 292 1044
f 1044 292 502
f 476 306 1045
f 1045 306 513
f 300 512 513
f 513 512 1045
f 512 307 1045
f 1045 307 511
f 282 476 511
f 511 476 1045
f 28 515 478
f 478 515 1046
f 515 37 1046
f 1046 37 514
f 306 477 514
f 514 477 1046
f 477 301 1046
f 1046 301 478
f 518 149 1047
f 1047 149 517
f 28 479 517
f 517 479 1047
f 479 27 1047
f 1047 27 516
f 148 518 516
f 516 518 1047
f 520 44 1048
f 1048 44 519
f 519 27 1048
f 1048 27 480
f 305 481 480
f 480 481 1048
f 481 302 1048
f 1048 302 520
f 304 485 482
f 482 485 1049
f 485 110 1049
f 1049 110 521
f 44 520 521
f 521 520 1049
f 520 302 1049
f 1049 302 482
f 117 492 523
f 523 492 1050
f 116 522 492
f 492 522 1050
f 522 110 1050
f 1050 110 483
f 119 523 483
f 483 523 1050
f 484 303 1051
f 1051 303 486
f 299 487 486
f 486 487 1051
f 487 125 1051
f 1051 125 524
f 119 484 524
f 524 484 1051
f 526 125 1052
f 1052 125 488
f 123 491 488
f 488 491 1052
f 491 237 1052
f 1052 237 525
f 238 526 525
f 525 526 1052
f 489 234 1053
f 1053 234 529
f 118 528 529
f 529 528 1053
f 121 527 528
f 528 527 1053
f 527 237 1053
f 1053 237 489
f 117 523 490
f 490 523 1054
f 119 531 523
f 523 531 1054
f 531 235 1054
f 1054 235 530
f 530 234 1054
f 1054 234 490
f 233 533 534
f 534 533 1055
f 533 116 1055
f 1055 116 494
f 112 532 494
f 494 532 1055
f 226 534 532
f 532 534 1055
f 44 536 519
f 519 536 1056
f 112 496 536
f 536 496 1056
f 43 535 496
f 496 535 1056
f 27 519 535
f 535 519 1056
f 148 516 537
f 537 516 1057
f 27 535 516
f 516 535 1057
f 43 497 535
f 535 497 1057
f 497 166 1057
f 1057 166 537
f 498 162 1058
f 1058 162 540
f 34 539 540
f 540 539 1058
f 25 538 539
f 539 538 1058
f 538 166 1058
f 1058 166 498
f 36 542 499
f 499 542 1059
f 28 517 542
f 542 517 1059
f 517 149 1059
f 1059 149 541
f 541 162 1059
f 1059 162 499
f 37 515 543
f 543 515 1060
f 28 542 515
f 515 542 1060
f 542 36 1060
f 1060 36 500
f 38 543 500
f 500 543 1060
f 293 501 505
f 505 501 1061
f 501 292 1061
f 1061 292 545
f 59 544 545
f 545 544 1061
f 56 505 544
f 544 505 1061
f 56 548 504
f 504 548 1062
f 548 173 1062
f 1062 173 547
f 172 546 547
f 547 546 1062
f 546 57 1062
f 1062 57 504
f 550 164 1063
f 1063 164 549
f 37 543 549
f 549 543 1063
f 38 506 543
f 543 506 1063
f 506 165 1063
f 1063 165 550
f 211 553 507
f 507 553 1064
f 553 82 1064
f 1064 82 552
f 42 551 552
f 552 551 1064
f 551 165 1064
f 1064 165 507
f 556 211 1065
f 1065 211 508
f 58 555 508
f 508 555 1065
f 555 39 1065
f 1065 39 554
f 163 556 554
f 554 556 1065
f 555 58 1066
f 1066 58 509
f 57 558 509
f 509 558 1066
f 60 557 558
f 558 557 1066
f 39 555 557
f 557 555 1066
f 510 307 1067
f 1067 307 560
f 60 559 560
f 560 559 1067
f 559 59 1067
f 1067 59 545
f 292 510 545
f 545 510 1067
f 39 557 561
f 561 557 1068
f 557 60 1068
f 1068 60 560
f 307 512 560
f 560 512 1068
f 512 300 1068
f 1068 300 561
f 306 514 513
f 513 514 1069
f 37 562 514
f 514 562 1069
f 39 561 562
f 562 561 1069
f 561 300 1069
f 1069 300 513
f 26 564 565
f 565 564 1070
f 149 518 564
f 564 518 1070
f 518 148 1070
f 1070 148 563
f 563 23 1070
f 1070 23 565
f 110 568 521
f 521 568 1071
f 568 224 1071
f 1071 224 567
f 567 223 1071
f 1071 223 566
f 566 44 1071
f 1071 44 521
f 224 568 569
f 569 568 1072
f 568 110 1072
f 1072 110 522
f 116 533 522
f 522 533 1072
f 533 233 1072
f 1072 233 569
f 235 531 570
f 570 531 1073
f 531 119 1073
f 1073 119 524
f 125 526 524
f 524 526 1073
f 526 238 1073
f 1073 238 570
f 237 527 525
f 525 527 1074
f 527 121 1074
f 1074 121 572
f 124 571 572
f 572 571 1074
f 571 238 1074
f 1074 238 525
f 575 121 1075
f 1075 121 528
f 528 118 1075
f 1075 118 574
f 247 573 574
f 574 573 1075
f 236 575 573
f 573 575 1075
f 530 235 1076
f 1076 235 577
f 577 120 1076
f 1076 120 576
f 576 118 1076
f 1076 118 529
f 234 530 529
f 529 530 1076
f 578 226 1077
f 1077 226 532
f 112 536 532
f 532 536 1077
f 44 566 536
f 536 566 1077
f 223 578 566
f 566 578 1077
f 103 580 581
f 581 580 1078
f 580 233 1078
f 1078 233 534
f 226 579 534
f 534 579 1078
f 579 102 1078
f 1078 102 581
f 538 25 1079
f 1079 25 582
f 582 23 1079
f 1079 23 563
f 563 148 1079
f 1079 148 537
f 166 538 537
f 537 538 1079
f 539 34 1080
f 1080 34 585
f 157 584 585
f 585 584 1080
f 147 583 584
f 584 583 1080
f 583 25 1080
f 1080 25 539
f 541 149 1081
f 1081 149 564
f 26 586 564
f 564 586 1081
f 586 34 1081
f 1081 34 540
f 162 541 540
f 540 541 1081
f 588 173 1082
f 1082 173 548
f 548 56 1082
f 1082 56 544
f 544 59 1082
f 1082 59 587
f 178 588 587
f 587 588 1082
f 1083 558 546
f 558 57 546
f 546 172 1083
f 1083 172 590
f 177 589 590
f 590 589 1083
f 558 1083 60
f 589 60 1083
f 173 593 547
f 547 593 1084
f 593 54 1084
f 1084 54 592
f 55 591 592
f 592 591 1084
f 591 172 1084
f 1084 172 547
f 594 163 1085
f 1085 163 554
f 39 562 554
f 554 562 1085
f 562 37 1085
f 1085 37 549
f 164 594 549
f 549 594 1085
f 596 41 1086
f 1086 41 595
f 164 550 595
f 595 550 1086
f 165 551 550
f 550 551 1086
f 551 42 1086
f 1086 42 596
f 552 82 1087
f 1087 82 599
f 195 598 599
f 599 598 1087
f 598 197 1087
f 1087 197 597
f 597 42 1087
f 1087 42 552
f 40 600 601
f 601 600 1088
f 600 82 1088
f 1088 82 553
f 211 556 553
f 553 556 1088
f 556 163 1088
f 1088 163 601
f 602 178 1089
f 1089 178 587
f 59 559 587
f 587 559 1089
f 559 60 1089
f 1089 60 589
f 177 602 589
f 589 602 1089
f 150 604 605
f 605 604 1090
f 604 26 1090
f 1090 26 565
f 23 603 565
f 565 603 1090
f 603 146 1090
f 1090 146 605
f 224 608 567
f 567 608 1091
f 111 607 608
f 608 607 1091
f 607 109 1091
f 1091 109 606
f 223 567 606
f 606 567 1091
f 580 103 1092
f 1092 103 609
f 111 608 609
f 609 608 1092
f 608 224 1092
f 1092 224 569
f 233 580 569
f 569 580 1092
f 571 124 1093
f 1093 124 610
f 120 577 610
f 610 577 1093
f 577 235 1093
f 1093 235 570
f 238 571 570
f 570 571 1093
f 239 611 612
f 612 611 1094
f 611 124 1094
f 1094 124 572
f 121 575 572
f 572 575 1094
f 575 236 1094
f 1094 236 612
f 573 247 1095
f 1095 247 615
f 129 614 615
f 615 614 1095
f 122 613 614
f 614 613 1095
f 613 236 1095
f 1095 236 573
f 240 616 617
f 617 616 1096
f 616 247 1096
f 1096 247 574
f 118 576 574
f 574 576 1096
f 120 617 576
f 576 617 1096
f 579 226 1097
f 1097 226 578
f 578 223 1097
f 1097 223 606
f 109 618 606
f 606 618 1097
f 618 102 1097
f 1097 102 579
f 215 620 621
f 621 620 1098
f 620 103 1098
f 1098 103 581
f 102 619 581
f 581 619 1098
f 619 214 1098
f 1098 214 621
f 25 583 582
f 582 583 1099
f 583 147 1099
f 1099 147 622
f 622 146 1099
f 1099 146 603
f 23 582 603
f 603 582 1099
f 584 157 1100
f 1100 157 625
f 625 22 1100
f 1100 22 624
f 21 623 624
f 624 623 1100
f 623 147 1100
f 1100 147 584
f 626 157 1101
f 1101 157 585
f 34 586 585
f 585 586 1101
f 586 26 1101
f 1101 26 604
f 150 626 604
f 604 626 1101
f 173 588 593
f 593 588 1102
f 588 178 1102
f 1102 178 628
f 62 627 628
f 628 627 1102
f 627 54 1102
f 1102 54 593
f 172 591 590
f 590 591 1103
f 591 55 1103
f 1103 55 630
f 61 629 630
f 630 629 1103
f 629 177 1103
f 1103 177 590
f 592 54 1104
f 1104 54 633
f 170 632 633
f 633 632 1104
f 171 631 632
f 632 631 1104
f 631 55 1104
f 1104 55 592
f 634 40 1105
f 1105 40 601
f 163 594 601
f 601 594 1105
f 594 164 1105
f 1105 164 595
f 41 634 595
f 595 634 1105
f 41 596 636
f 636 596 1106
f 42 597 596
f 596 597 1106
f 597 197 1106
f 1106 197 635
f 207 636 635
f 635 636 1106
f 598 195 1107
f 1107 195 639
f 80 638 639
f 639 638 1107
f 81 637 638
f 638 637 1107
f 197 598 637
f 637 598 1107
f 641 195 1108
f 1108 195 599
f 82 600 599
f 599 600 1108
f 600 40 1108
f 1108 40 640
f 196 641 640
f 640 641 1108
f 642 62 1109
f 1109 62 628
f 178 602 628
f 628 602 1109
f 602 177 1109
f 1109 177 629
f 61 642 629
f 629 642 1109
f 29 644 645
f 645 644 1110
f 150 605 644
f 644 605 1110
f 146 643 605
f 605 643 1110
f 24 645 643
f 643 645 1110
f 607 111 1111
f 1111 111 648
f 225 647 648
f 648 647 1111
f 647 222 1111
f 1111 222 646
f 109 607 646
f 646 607 1111
f 649 225 1112
f 1112 225 648
f 648 111 1112
f 1112 111 609
f 103 620 609
f 609 620 1112
f 620 215 1112
f 1112 215 649
f 240 617 650
f 650 617 1113
f 617 120 1113
f 1113 120 610
f 124 611 610
f 610 611 1113
f 611 239 1113
f 1113 239 650
f 652 239 1114
f 1114 239 612
f 236 613 612
f 612 613 1114
f 613 122 1114
f 1114 122 651
f 126 652 651
f 651 652 1114
f 655 135 1115
f 1115 135 654
f 122 614 654
f 654 614 1115
f 129 653 614
f 614 653 1115
f 653 131 1115
f 1115 131 655
f 616 240 1116
f 1116 240 657
f 127 656 657
f 657 656 1116
f 656 129 1116
f 1116 129 615
f 247 616 615
f 615 616 1116
f 658 214 1117
f 1117 214 619
f 102 618 619
f 619 618 1117
f 618 109 1117
f 1117 109 646
f 222 658 646
f 646 658 1117
f 101 660 661
f 661 660 1118
f 660 215 1118
f 1118 215 621
f 214 659 621
f 621 659 1118
f 659 100 1118
f 1118 100 661
f 147 623 622
f 622 623 1119
f 623 21 1119
f 1119 21 662
f 662 24 1119
f 1119 24 643
f 643 146 1119
f 1119 146 622
f 22 665 624
f 624 665 1120
f 665 145 1120
f 1120 145 664
f 144 663 664
f 664 663 1120
f 663 21 1120
f 1120 21 624
f 157 626 625
f 625 626 1121
f 626 150 1121
f 1121 150 644
f 29 666 644
f 644 666 1121
f 666 22 1121
f 1121 22 625
f 627 62 1122
f 1122 62 668
f 179 667 668
f 668 667 1122
f 667 170 1122
f 1122 170 633
f 54 627 633
f 633 627 1122
f 180 669 670
f 670 669 1123
f 669 61 1123
f 1123 61 630
f 55 631 630
f 630 631 1123
f 631 171 1123
f 1123 171 670
f 632 170 1124
f 1124 170 673
f 52 672 673
f 673 672 1124
f 53 671 672
f 672 671 1124
f 671 171 1124
f 1124 171 632
f 674 196 1125
f 1125 196 640
f 40 634 640
f 640 634 1125
f 634 41 1125
f 1125 41 636
f 207 674 636
f 636 674 1125
f 197 637 635
f 635 637 1126
f 637 81 1126
f 1126 81 676
f 84 675 676
f 676 675 1126
f 675 207 1126
f 1126 207 635
f 80 679 638
f 638 679 1127
f 679 193 1127
f 1127 193 678
f 194 677 678
f 678 677 1127
f 677 81 1127
f 1127 81 638
f 83 680 681
f 681 680 1128
f 680 80 1128
f 1128 80 639
f 195 641 639
f 639 641 1128
f 641 196 1128
f 1128 196 681
f 682 179 1129
f 1129 179 668
f 62 642 668
f 668 642 1129
f 642 61 1129
f 1129 61 669
f 180 682 669
f 669 682 1129
f 151 684 685
f 685 684 1130
f 29 645 684
f 684 645 1130
f 24 683 645
f 645 683 1130
f 152 685 683
f 683 685 1130
f 647 225 1131
f 1131 225 688
f 104 687 688
f 688 687 1131
f 107 686 687
f 687 686 1131
f 686 222 1131
f 1131 222 647
f 225 649 688
f 688 649 1132
f 215 660 649
f 649 660 1132
f 660 101 1132
f 1132 101 689
f 689 104 1132
f 1132 104 688
f 652 126 1133
f 1133 126 690
f 690 127 1133
f 1133 127 657
f 657 240 1133
f 1133 240 650
f 239 652 650
f 650 652 1133
f 122 693 651
f 651 693 1134
f 244 692 693
f 693 692 1134
f 246 691 692
f 692 691 1134
f 691 126 1134
f 1134 126 651
f 696 243 1135
f 1135 243 695
f 131 653 695
f 695 653 1135
f 653 129 1135
f 1135 129 694
f 242 696 694
f 694 696 1135
f 244 693 698
f 698 693 1136
f 693 122 1136
f 1136 122 654
f 135 697 654
f 654 697 1136
f 697 245 1136
f 1136 245 698
f 655 131 1137
f 1137 131 695
f 243 699 695
f 695 699 1137
f 245 697 699
f 699 697 1137
f 697 135 1137
f 1137 135 655
f 701 242 1138
f 1138 242 694
f 129 656 694
f 694 656 1138
f 656 127 1138
f 1138 127 700
f 241 701 700
f 700 701 1138
f 702 100 1139
f 1139 100 659
f 214 658 659
f 659 658 1139
f 658 222 1139
f 1139 222 686
f 107 702 686
f 686 702 1139
f 213 704 705
f 705 704 1140
f 704 101 1140
f 1140 101 661
f 100 703 661
f 661 703 1140
f 703 212 1140
f 1140 212 705
f 144 707 663
f 663 707 1141
f 707 158 1141
f 1141 158 706
f 24 662 706
f 706 662 1141
f 21 663 662
f 662 663 1141
f 145 710 664
f 664 710 1142
f 710 19 1142
f 1142 19 709
f 17 708 709
f 709 708 1142
f 708 144 1142
f 1142 144 664
f 145 665 712
f 712 665 1143
f 22 666 665
f 665 666 1143
f 29 711 666
f 666 711 1143
f 153 712 711
f 711 712 1143
f 667 179 1144
f 1144 179 714
f 63 713 714
f 714 713 1144
f 713 52 1144
f 1144 52 673
f 170 667 673
f 673 667 1144
f 671 53 1145
f 1145 53 716
f 64 715 716
f 716 715 1145
f 715 180 1145
f 1145 180 670
f 171 671 670
f 670 671 1145
f 672 52 1146
f 1146 52 719
f 169 718 719
f 719 718 1146
f 168 717 718
f 718 717 1146
f 717 53 1146
f 1146 53 672
f 720 83 1147
f 1147 83 681
f 196 674 681
f 681 674 1147
f 674 207 1147
f 1147 207 675
f 84 720 675
f 675 720 1147
f 81 677 676
f 676 677 1148
f 677 194 1148
f 1148 194 722
f 198 721 722
f 722 721 1148
f 84 676 721
f 721 676 1148
f 193 725 678
f 678 725 1149
f 725 77 1149
f 1149 77 724
f 78 723 724
f 724 723 1149
f 723 194 1149
f 1149 194 678
f 80 680 679
f 679 680 1150
f 680 83 1150
f 1150 83 727
f 201 726 727
f 727 726 1150
f 193 679 726
f 726 679 1150
f 728 63 1151
f 1151 63 714
f 179 682 714
f 714 682 1151
f 180 715 682
f 682 715 1151
f 64 728 715
f 715 728 1151
f 161 729 730
f 730 729 1152
f 729 152 1152
f 1152 152 683
f 24 706 683
f 683 706 1152
f 158 730 706
f 706 730 1152
f 684 151 1153
f 1153 151 732
f 156 731 732
f 732 731 1153
f 731 153 1153
f 1153 153 711
f 29 684 711
f 711 684 1153
f 30 734 735
f 735 734 1154
f 734 151 1154
f 1154 151 685
f 685 152 1154
f 1154 152 733
f 733 31 1154
f 1154 31 735
f 687 104 1155
f 1155 104 738
f 219 737 738
f 738 737 1155
f 737 221 1155
f 1155 221 736
f 107 687 736
f 736 687 1155
f 740 216 1156
f 1156 216 739
f 104 689 739
f 739 689 1156
f 101 704 689
f 689 704 1156
f 704 213 1156
f 1156 213 740
f 241 700 741
f 741 700 1157
f 700 127 1157
f 1157 127 690
f 126 691 690
f 690 691 1157
f 691 246 1157
f 1157 246 741
f 692 244 1158
f 1158 244 744
f 134 743 744
f 744 743 1158
f 743 136 1158
f 1158 136 742
f 246 692 742
f 742 692 1158
f 132 746 747
f 747 746 1159
f 243 696 746
f 746 696 1159
f 696 242 1159
f 1159 242 745
f 745 130 1159
f 1159 130 747
f 133 748 749
f 749 748 1160
f 748 134 1160
f 1160 134 744
f 244 698 744
f 744 698 1160
f 245 749 698
f 698 749 1160
f 699 243 1161
f 1161 243 746
f 746 132 1161
f 1161 132 750
f 750 133 1161
f 1161 133 749
f 749 245 1161
f 1161 245 699
f 752 128 1162
f 1162 128 751
f 130 745 751
f 751 745 1162
f 745 242 1162
f 1162 242 701
f 241 752 701
f 701 752 1162
f 754 212 1163
f 1163 212 703
f 703 100 1163
f 1163 100 702
f 107 753 702
f 702 753 1163
f 753 228 1163
f 1163 228 754
f 98 756 757
f 757 756 1164
f 756 213 1164
f 1164 213 705
f 212 755 705
f 705 755 1164
f 755 95 1164
f 1164 95 757
f 707 144 1165
f 1165 144 708
f 17 759 708
f 708 759 1165
f 759 18 1165
f 1165 18 758
f 158 707 758
f 758 707 1165
f 16 761 762
f 762 761 1166
f 761 17 1166
f 1166 17 709
f 19 760 709
f 709 760 1166
f 760 20 1166
f 1166 20 762
f 764 32 1167
f 1167 32 763
f 19 710 763
f 763 710 1167
f 710 145 1167
f 1167 145 712
f 153 764 712
f 712 764 1167
f 52 713 719
f 719 713 1168
f 63 766 713
f 713 766 1168
f 766 189 1168
f 1168 189 765
f 765 169 1168
f 1168 169 719
f 168 768 717
f 717 768 1169
f 768 181 1169
f 1169 181 767
f 64 716 767
f 767 716 1169
f 716 53 1169
f 1169 53 717
f 718 169 1170
f 1170 169 771
f 771 49 1170
f 1170 49 770
f 770 50 1170
f 1170 50 769
f 168 718 769
f 769 718 1170
f 774 199 1171
f 1171 199 773
f 83 720 773
f 773 720 1171
f 84 772 720
f 720 772 1171
f 200 774 772
f 772 774 1171
f 776 200 1172
f 1172 200 772
f 84 721 772
f 772 721 1172
f 721 198 1172
f 1172 198 775
f 209 776 775
f 775 776 1172
f 194 723 722
f 722 723 1173
f 723 78 1173
f 1173 78 778
f 85 777 778
f 778 777 1173
f 777 198 1173
f 1173 198 722
f 79 780 781
f 781 780 1174
f 780 78 1174
f 1174 78 724
f 77 779 724
f 724 779 1174
f 779 75 1174
f 1174 75 781
f 726 201 1175
f 1175 201 783
f 76 782 783
f 783 782 1175
f 782 77 1175
f 1175 77 725
f 725 193 1175
f 1175 193 726
f 83 773 727
f 727 773 1176
f 773 199 1176
f 1176 199 785
f 204 784 785
f 785 784 1176
f 784 201 1176
f 1176 201 727
f 788 186 1177
f 1177 186 787
f 63 728 787
f 787 728 1177
f 64 786 728
f 728 786 1177
f 184 788 786
f 786 788 1177
f 159 789 790
f 790 789 1178
f 789 31 1178
f 1178 31 733
f 152 729 733
f 733 729 1178
f 729 161 1178
f 1178 161 790
f 792 160 1179
f 1179 160 791
f 161 730 791
f 791 730 1179
f 730 158 1179
f 1179 158 758
f 18 792 758
f 758 792 1179
f 731 156 1180
f 1180 156 794
f 154 793 794
f 794 793 1180
f 32 764 793
f 793 764 1180
f 153 731 764
f 764 731 1180
f 734 30 1181
f 1181 30 796
f 155 795 796
f 796 795 1181
f 795 156 1181
f 1181 156 732
f 151 734 732
f 732 734 1181
f 797 155 1182
f 1182 155 796
f 796 30 1182
f 1182 30 735
f 735 31 1182
f 1182 31 789
f 159 797 789
f 789 797 1182
f 228 753 799
f 799 753 1183
f 753 107 1183
f 1183 107 736
f 736 221 1183
f 1183 221 798
f 798 230 1183
f 1183 230 799
f 737 219 1184
f 1184 219 802
f 802 105 1184
f 1184 105 801
f 801 108 1184
f 1184 108 800
f 221 737 800
f 800 737 1184
f 104 739 738
f 738 739 1185
f 739 216 1185
f 1185 216 804
f 220 803 804
f 804 803 1185
f 803 219 1185
f 1185 219 738
f 216 740 806
f 806 740 1186
f 740 213 1186
f 1186 213 756
f 756 98 1186
f 1186 98 805
f 805 99 1186
f 1186 99 806
f 241 741 752
f 752 741 1187
f 246 742 741
f 741 742 1187
f 742 136 1187
f 1187 136 807
f 807 128 1187
f 1187 128 752
f 808 130 1188
f 1188 130 751
f 128 807 751
f 751 807 1188
f 807 136 1188
f 1188 136 743
f 743 134 1188
f 1188 134 808
f 134 748 808
f 808 748 1189
f 748 133 1189
f 1189 133 750
f 750 132 1189
f 1189 132 747
f 130 808 747
f 747 808 1189
f 212 754 755
f 755 754 1190
f 228 810 754
f 754 810 1190
f 94 809 810
f 810 809 1190
f 809 95 1190
f 1190 95 755
f 95 813 757
f 757 813 1191
f 92 812 813
f 813 812 1191
f 96 811 812
f 812 811 1191
f 811 98 1191
f 1191 98 757
f 18 759 815
f 815 759 1192
f 17 761 759
f 759 761 1192
f 761 16 1192
f 1192 16 814
f 814 15 1192
f 1192 15 815
f 817 14 1193
f 1193 14 816
f 20 760 816
f 816 760 1193
f 760 19 1193
f 1193 19 763
f 32 817 763
f 763 817 1193
f 762 20 1194
f 1194 20 820
f 263 819 820
f 820 819 1194
f 262 818 819
f 819 818 1194
f 818 16 1194
f 1194 16 762
f 765 189 1195
f 1195 189 822
f 48 821 822
f 822 821 1195
f 821 49 1195
f 1195 49 771
f 169 765 771
f 771 765 1195
f 766 63 1196
f 1196 63 787
f 787 186 1196
f 1196 186 824
f 190 823 824
f 824 823 1196
f 189 766 823
f 823 766 1196
f 64 767 786
f 786 767 1197
f 181 826 767
f 767 826 1197
f 185 825 826
f 826 825 1197
f 825 184 1197
f 1197 184 786
f 768 168 1198
f 1198 168 769
f 50 828 769
f 769 828 1198
f 828 65 1198
f 1198 65 827
f 181 768 827
f 827 768 1198
f 51 830 831
f 831 830 1199
f 830 50 1199
f 1199 50 770
f 49 829 770
f 770 829 1199
f 829 46 1199
f 1199 46 831
f 834 86 1200
f 1200 86 833
f 199 774 833
f 833 774 1200
f 774 200 1200
f 1200 200 832
f 832 87 1200
f 1200 87 834
f 209 775 836
f 836 775 1201
f 775 198 1201
f 1201 198 777
f 85 835 777
f 777 835 1201
f 835 208 1201
f 1201 208 836
f 838 87 1202
f 1202 87 832
f 200 776 832
f 832 776 1202
f 776 209 1202
f 1202 209 837
f 205 838 837
f 837 838 1202
f 780 79 1203
f 1203 79 840
f 74 839 840
f 840 839 1203
f 839 85 1203
f 1203 85 778
f 78 780 778
f 778 780 1203
f 77 782 779
f 779 782 1204
f 782 76 1204
f 1204 76 842
f 842 73 1204
f 1204 73 841
f 75 779 841
f 841 779 1204
f 75 845 781
f 781 845 1205
f 265 844 845
f 845 844 1205
f 264 843 844
f 844 843 1205
f 843 79 1205
f 1205 79 781
f 201 784 783
f 783 784 1206
f 784 204 1206
f 1206 204 847
f 202 846 847
f 847 846 1206
f 846 76 1206
f 1206 76 783
f 199 833 785
f 785 833 1207
f 833 86 1207
f 1207 86 849
f 203 848 849
f 849 848 1207
f 848 204 1207
f 1207 204 785
f 852 68 1208
f 1208 68 851
f 186 788 851
f 851 788 1208
f 788 184 1208
f 1208 184 850
f 850 66 1208
f 1208 66 852
f 35 853 854
f 854 853 1209
f 853 159 1209
f 1209 159 790
f 161 791 790
f 790 791 1209
f 791 160 1209
f 1209 160 854
f 792 18 1210
f 1210 18 815
f 15 856 815
f 815 856 1210
f 856 167 1210
f 1210 167 855
f 160 792 855
f 855 792 1210
f 793 154 1211
f 1211 154 858
f 858 143 1211
f 1211 143 857
f 14 817 857
f 857 817 1211
f 817 32 1211
f 1211 32 793
f 795 155 1212
f 1212 155 860
f 33 859 860
f 860 859 1212
f 859 154 1212
f 1212 154 794
f 156 795 794
f 794 795 1212
f 861 33 1213
f 1213 33 860
f 155 797 860
f 860 797 1213
f 797 159 1213
f 1213 159 853
f 853 35 1213
f 1213 35 861
f 230 798 863
f 863 798 1214
f 221 800 798
f 798 800 1214
f 800 108 1214
f 1214 108 862
f 862 227 1214
f 1214 227 863
f 865 94 1215
f 1215 94 810
f 810 228 1215
f 1215 228 799
f 799 230 1215
f 1215 230 864
f 229 865 864
f 864 865 1215
f 801 105 1216
f 1216 105 867
f 867 217 1216
f 1216 217 866
f 227 862 866
f 866 862 1216
f 862 108 1216
f 1216 108 801
f 219 803 802
f 802 803 1217
f 803 220 1217
f 1217 220 868
f 217 867 868
f 868 867 1217
f 867 105 1217
f 1217 105 802
f 216 806 804
f 804 806 1218
f 99 870 806
f 806 870 1218
f 218 869 870
f 870 869 1218
f 869 220 1218
f 1218 220 804
f 811 96 1219
f 1219 96 872
f 97 871 872
f 872 871 1219
f 99 805 871
f 871 805 1219
f 98 811 805
f 805 811 1219
f 95 809 813
f 813 809 1220
f 809 94 1220
f 1220 94 874
f 93 873 874
f 874 873 1220
f 873 92 1220
f 1220 92 813
f 877 260 1221
f 1221 260 876
f 96 812 876
f 876 812 1221
f 812 92 1221
f 1221 92 875
f 261 877 875
f 875 877 1221
f 16 818 814
f 814 818 1222
f 818 262 1222
f 1222 262 878
f 15 814 878
f 878 814 1222
f 820 20 1223
f 1223 20 816
f 14 879 816
f 816 879 1223
f 879 263 1223
f 1223 263 820
f 263 882 819
f 819 882 1224
f 882 13 1224
f 1224 13 881
f 45 880 881
f 881 880 1224
f 880 262 1224
f 1224 262 819
f 829 49 1225
f 1225 49 821
f 821 48 1225
f 1225 48 884
f 47 883 884
f 884 883 1225
f 46 829 883
f 883 829 1225
f 189 823 822
f 822 823 1226
f 823 190 1226
f 1226 190 886
f 187 885 886
f 886 885 1226
f 885 48 1226
f 1226 48 822
f 186 851 824
f 824 851 1227
f 851 68 1227
f 1227 68 888
f 188 887 888
f 888 887 1227
f 887 190 1227
f 1227 190 824
f 184 825 850
f 850 825 1228
f 825 185 1228
f 1228 185 890
f 182 889 890
f 890 889 1228
f 889 66 1228
f 1228 66 850
f 826 181 1229
f 1229 181 827
f 65 892 827
f 827 892 1229
f 892 183 1229
f 1229 183 891
f 891 185 1229
f 1229 185 826
f 51 894 830
f 830 894 1230
f 71 893 894
f 894 893 1230
f 65 828 893
f 893 828 1230
f 828 50 1230
f 1230 50 830
f 46 897 831
f 831 897 1231
f 897 267 1231
f 1231 267 896
f 266 895 896
f 896 895 1231
f 895 51 1231
f 1231 51 831
f 898 203 1232
f 1232 203 849
f 849 86 1232
f 1232 86 834
f 834 87 1232
f 1232 87 838
f 838 205 1232
f 1232 205 898
f 208 835 900
f 900 835 1233
f 835 85 1233
f 1233 85 839
f 74 899 839
f 839 899 1233
f 899 210 1233
f 1233 210 900
f 902 205 1234
f 1234 205 837
f 837 209 1234
f 1234 209 836
f 208 901 836
f 836 901 1234
f 901 89 1234
f 1234 89 902
f 79 843 840
f 840 843 1235
f 843 264 1235
f 1235 264 903
f 903 74 1235
f 1235 74 840
f 73 904 841
f 841 904 1236
f 904 265 1236
f 1236 265 845
f 75 841 845
f 845 841 1236
f 73 842 906
f 906 842 1237
f 76 846 842
f 842 846 1237
f 202 905 846
f 846 905 1237
f 905 206 1237
f 1237 206 906
f 265 909 844
f 844 909 1238
f 909 90 1238
f 1238 90 908
f 91 907 908
f 908 907 1238
f 907 264 1238
f 1238 264 844
f 204 848 847
f 847 848 1239
f 848 203 1239
f 1239 203 911
f 88 910 911
f 911 910 1239
f 910 202 1239
f 1239 202 847
f 188 888 912
f 912 888 1240
f 888 68 1240
f 1240 68 852
f 852 66 1240
f 1240 66 889
f 889 182 1240
f 1240 182 912
f 855 167 1241
f 1241 167 914
f 45 913 914
f 914 913 1241
f 913 35 1241
f 1241 35 854
f 854 160 1241
f 1241 160 855
f 914 167 1242
f 1242 167 856
f 856 15 1242
f 1242 15 878
f 262 880 878
f 878 880 1242
f 880 45 1242
f 1242 45 914
f 13 882 915
f 915 882 1243
f 882 263 1243
f 1243 263 879
f 14 857 879
f 879 857 1243
f 857 143 1243
f 1243 143 915
f 154 859 858
f 858 859 1244
f 859 33 1244
f 1244 33 916
f 13 915 916
f 916 915 1244
f 915 143 1244
f 1244 143 858
f 35 913 861
f 861 913 1245
f 913 45 1245
f 1245 45 881
f 881 13 1245
f 1245 13 916
f 33 861 916
f 916 861 1245
f 918 229 1246
f 1246 229 864
f 864 230 1246
f 1246 230 863
f 227 917 863
f 863 917 1246
f 113 918 917
f 917 918 1246
f 231 919 920
f 920 919 1247
f 919 93 1247
f 1247 93 874
f 94 865 874
f 874 865 1247
f 865 229 1247
f 1247 229 920
f 217 922 866
f 866 922 1248
f 922 106 1248
f 1248 106 921
f 113 917 921
f 921 917 1248
f 917 227 1248
f 1248 227 866
f 220 869 868
f 868 869 1249
f 869 218 1249
f 1249 218 923
f 106 922 923
f 923 922 1249
f 922 217 1249
f 1249 217 868
f 925 218 1250
f 1250 218 870
f 99 871 870
f 870 871 1250
f 97 924 871
f 871 924 1250
f 232 925 924
f 924 925 1250
f 872 96 1251
f 1251 96 876
f 876 260 1251
f 1251 260 926
f 926 97 1251
f 1251 97 872
f 873 93 1252
f 1252 93 927
f 927 261 1252
f 1252 261 875
f 92 873 875
f 875 873 1252
f 930 115 1253
f 1253 115 929
f 260 877 929
f 929 877 1253
f 877 261 1253
f 1253 261 928
f 114 930 928
f 928 930 1253
f 883 47 1254
f 1254 47 931
f 931 267 1254
f 1254 267 897
f 897 46 1254
f 1254 46 883
f 191 932 933
f 933 932 1255
f 932 47 1255
f 1255 47 884
f 48 885 884
f 884 885 1255
f 885 187 1255
f 1255 187 933
f 190 887 886
f 886 887 1256
f 887 188 1256
f 1256 188 935
f 935 69 1256
f 1256 69 934
f 934 187 1256
f 1256 187 886
f 185 891 890
f 890 891 1257
f 891 183 1257
f 1257 183 937
f 67 936 937
f 937 936 1257
f 936 182 1257
f 1257 182 890
f 183 892 939
f 939 892 1258
f 892 65 1258
f 1258 65 893
f 893 71 1258
f 1258 71 938
f 192 939 938
f 938 939 1258
f 51 895 894
f 894 895 1259
f 895 266 1259
f 1259 266 940
f 940 71 1259
f 1259 71 894
f 896 267 1260
f 1260 267 943
f 70 942 943
f 943 942 1260
f 942 72 1260
f 1260 72 941
f 266 896 941
f 941 896 1260
f 88 911 944
f 944 911 1261
f 203 898 911
f 911 898 1261
f 205 902 898
f 898 902 1261
f 902 89 1261
f 1261 89 944
f 945 210 1262
f 1262 210 899
f 899 74 1262
f 1262 74 903
f 264 907 903
f 903 907 1262
f 91 945 907
f 907 945 1262
f 945 91 1263
f 1263 91 946
f 89 901 946
f 946 901 1263
f 901 208 1263
f 1263 208 900
f 210 945 900
f 900 945 1263
f 906 206 1264
f 1264 206 947
f 90 909 947
f 947 909 1264
f 265 904 909
f 909 904 1264
f 904 73 1264
f 1264 73 906
f 905 202 1265
f 1265 202 910
f 88 948 910
f 910 948 1265
f 948 90 1265
f 1265 90 947
f 206 905 947
f 947 905 1265
f 91 908 946
f 946 908 1266
f 908 90 1266
f 1266 90 948
f 948 88 1266
f 1266 88 944
f 89 946 944
f 944 946 1266
f 69 935 949
f 949 935 1267
f 935 188 1267
f 1267 188 912
f 182 936 912
f 912 936 1267
f 936 67 1267
f 1267 67 949
f 918 113 1268
f 1268 113 951
f 114 950 951
f 951 950 1268
f 950 231 1268
f 1268 231 920
f 229 918 920
f 920 918 1268
f 919 231 1269
f 1269 231 950
f 114 928 950
f 950 928 1269
f 928 261 1269
f 1269 261 927
f 93 919 927
f 927 919 1269
f 113 921 951
f 951 921 1270
f 106 952 921
f 921 952 1270
f 952 115 1270
f 1270 115 930
f 930 114 1270
f 1270 114 951
f 218 925 923
f 923 925 1271
f 925 232 1271
f 1271 232 953
f 115 952 953
f 953 952 1271
f 952 106 1271
f 1271 106 923
f 953 232 1272
f 1272 232 924
f 97 926 924
f 924 926 1272
f 926 260 1272
f 1272 260 929
f 115 953 929
f 929 953 1272
f 932 191 1273
f 1273 191 954
f 954 70 1273
f 1273 70 943
f 267 931 943
f 943 931 1273
f 47 932 931
f 931 932 1273
f 70 954 955
f 955 954 1274
f 954 191 1274
f 1274 191 933
f 187 934 933
f 933 934 1274
f 934 69 1274
f 1274 69 955
f 957 67 1275
f 1275 67 937
f 183 939 937
f 937 939 1275
f 192 956 939
f 939 956 1275
f 956 72 1275
f 1275 72 957
f 956 192 1276
f 1276 192 938
f 71 940 938
f 938 940 1276
f 940 266 1276
f 1276 266 941
f 72 956 941
f 941 956 1276
f 67 957 949
f 949 957 1277
f 72 942 957
f 957 942 1277
f 942 70 1277
f 1277 70 955
f 69 949 955
f 955 949 1277

