# https://github.com/mikedh/trimesh
v 0.01486668 -0.02874820 -0.00355449
v 0.02134695 -0.03716585 -0.02109927
v 0.08479086 0.07753170 0.06456423
v 0.04933111 0.04940835 0.07814547
v 0.09162847 0.05937092 0.06207147
v 0.05107212 0.02860104 0.06162772
v 0.08882825 0.02796937 0.04557836
v 0.08182689 0.01386132 0.03612071
v 0.04713575 -0.01856691 0.00722325
v 0.05862309 -0.02525825 -0.00665012
v 0.10259292 0.00812712 0.02562037
v 0.11285599 0.02153624 0.04030889
v 0.11695919 0.06444489 0.05402321
v 0.10836201 0.08700767 0.05164075
v 0.05158729 0.03914583 0.07011181
v 0.09283865 0.04282211 0.05496457
v 0.11821798 0.04151819 0.05042952
v 0.06940049 0.12483136 0.03677243
v 0.07120775 0.09467034 0.06177413
v 0.09242141 0.10847371 0.04526997
v 0.06356171 0.01829605 0.04327968
v 0.06796047 0.02959370 0.05275840
v 0.07006160 0.04108190 0.06155166
v 0.06877122 0.05395331 0.06886366
v 0.06327397 0.06815958 0.07281008
v 0.05274124 0.08158583 0.07344851
v 0.03170647 -0.02455439 0.00107691
v 0.04068485 -0.03215971 -0.01465985
v 0.07264055 -0.03513433 -0.02468070
v 0.13748056 0.01010688 0.03164443
v 0.14163956 0.03579604 0.04485428
v 0.13940239 0.06584560 0.04311326
v 0.11675713 0.11953552 0.01754004
v 0.02883042 -0.04863018 -0.04259622
v 0.05141881 -0.04306970 -0.03461021
v 0.04123911 -0.07656801 -0.09129408
v 0.07278723 -0.06912012 -0.08096787
v 0.10162638 -0.05469639 -0.06983534
v 0.08713035 -0.08146552 -0.10852391
v 0.11666390 -0.05869727 -0.09594321
v 0.13258696 0.09418952 0.03337815
v 0.16325635 0.03329731 0.04098627
v 0.15860592 0.06746967 0.03724492
v 0.15639767 0.09593257 0.01578310
v 0.14907029 0.12334685 -0.02069116
v 0.03525678 -0.06189476 -0.06630847
v 0.06183684 -0.05586812 -0.05722958
v 0.08734605 -0.04571928 -0.04625386
v 0.16516212 0.00527541 0.02478790
v 0.12738718 -0.00393427 0.01091895
v 0.15972364 -0.01003404 -0.00304580
v 0.08923994 0.13906420 0.00431696
v 0.12945874 -0.05298105 -0.12369019
v 0.06071548 -0.01035653 0.01543647
v 0.07473144 -0.01581002 0.00281501
v 0.09230288 -0.02446626 -0.01396164
v 0.11390576 -0.03277226 -0.03668612
v 0.13535051 -0.03727562 -0.05833238
v 0.15120973 -0.03361841 -0.08025590
v 0.15555956 -0.02147396 -0.10183722
v 0.07248078 0.00087968 0.02553856
v 0.08950915 -0.00387717 0.01317787
v 0.11214265 -0.01274330 -0.00436348
v 0.14062222 -0.01998525 -0.02446067
v 0.16909132 -0.01987695 -0.03937107
v 0.18184842 -0.01030035 -0.05839345
v 0.17875003 0.00697287 -0.07896224
v 0.17287097 0.05095231 -0.11619765
v 0.05754944 0.00663969 0.03398934
v 0.02385754 -0.01728746 0.01486593
v 0.03693236 -0.01178559 0.01930827
v 0.04835804 -0.00393693 0.02593723
v 0.16526577 0.12209897 -0.06769371
v 0.17636639 0.09460894 -0.09667274
v 0.04781309 0.01897466 0.05352724
v 0.11043625 0.14622905 -0.03996757
v 0.06829803 0.16009007 -0.05318263
v 0.14587441 0.11219890 -0.13398707
v 0.12737872 0.14091546 -0.09037611
v 0.04973316 0.02366700 0.05754113
v 0.05172099 0.03375589 0.06583264
v 0.04546329 0.01462750 0.04953235
v 0.05502106 0.01912438 0.04802135
v 0.06598417 0.02398884 0.04807192
v 0.05886597 0.02944038 0.05676332
v 0.00632176 -0.02990489 -0.00534537
v 0.01206349 -0.02507173 0.00438565
v 0.05092457 0.04420398 0.07444128
v 0.06937281 0.03526625 0.05723694
v 0.06017035 0.04031950 0.06531081
v 0.04976232 0.00933709 0.03891593
v 0.06083066 0.01243441 0.03855774
v 0.08557388 0.02073617 0.04071325
v 0.07805342 0.02931781 0.04900685
v 0.07247158 0.01638798 0.03956160
v 0.01800180 -0.03270031 -0.01190510
v 0.01139166 -0.03886482 -0.02350688
v 0.02340395 -0.02690239 -0.00143066
v 0.02764341 -0.02115110 0.00810286
v 0.03056516 -0.01473852 0.01682654
v 0.06988216 0.04730293 0.06553197
v 0.05831556 0.05200341 0.07261592
v 0.08113104 0.04198065 0.05836982
v 0.09138578 0.03535322 0.05028385
v 0.04180974 0.00014159 0.03082874
v 0.05335150 0.00110612 0.02980354
v 0.06513499 0.00344135 0.03015122
v 0.07745030 0.00738780 0.03082803
v 0.09178010 0.01176425 0.03101134
v 0.10813329 0.01397141 0.03296950
v 0.10078333 0.02545877 0.04298484
v 0.01710623 -0.05031838 -0.04561463
v 0.02499364 -0.04259976 -0.03128794
v 0.03113976 -0.03492529 -0.01812911
v 0.03605765 -0.02798809 -0.00641289
v 0.03966822 -0.02178260 0.00395554
v 0.04206427 -0.01555072 0.01336294
v 0.04286712 -0.00826668 0.02238089
v 0.09294737 0.05085971 0.05905795
v 0.08003934 0.05639691 0.06572798
v 0.06660582 0.06095010 0.07130709
v 0.05312829 0.06428852 0.07713130
v 0.10552108 0.04287222 0.05246216
v 0.11627969 0.03091652 0.04628342
v 0.05472263 -0.00770073 0.02092689
v 0.06687246 -0.00515574 0.02034974
v 0.08029849 -0.00094929 0.02006415
v 0.09639564 0.00264156 0.01894361
v 0.11430547 0.00216119 0.01884547
v 0.13304614 0.00152712 0.02132854
v 0.12501656 0.01634644 0.03623649
v 0.06176780 0.08787840 0.06778497
v 0.06231391 0.10171947 0.05940104
v 0.06049609 0.11617098 0.04783839
v 0.05570647 0.12968532 0.03162360
v 0.05867025 0.07520407 0.07348809
v 0.02163223 -0.06301783 -0.06987974
v 0.03224938 -0.05500373 -0.05439600
v 0.04588071 -0.03730988 -0.02408728
v 0.04026850 -0.04613287 -0.03891629
v 0.04991253 -0.02899386 -0.01082364
v 0.05257796 -0.02148054 0.00065416
v 0.05412033 -0.01477910 0.01101452
v 0.11861268 0.05280332 0.05307281
v 0.10421649 0.06239442 0.05830598
v 0.08884477 0.06833172 0.06364349
v 0.07381708 0.07270011 0.06893528
v 0.14052454 0.02184537 0.03982994
v 0.13073006 0.03897426 0.04788288
v 0.06711522 -0.01256002 0.00951418
v 0.08222136 -0.01019099 0.00807554
v 0.10019822 -0.00811625 0.00523207
v 0.12050247 -0.00789564 0.00228864
v 0.14259647 -0.00865329 0.00294060
v 0.16404876 -0.00391921 0.01152086
v 0.15083060 0.00568908 0.02747035
v 0.07876410 0.08645653 0.06361333
v 0.08160070 0.10158224 0.05497795
v 0.08167583 0.11762155 0.04108942
v 0.07895190 0.13235981 0.02205145
v 0.07224215 0.14493226 -0.00153467
v 0.06178479 0.15505835 -0.02894416
v 0.03814850 -0.06907209 -0.07856351
v 0.04865766 -0.05943173 -0.06208825
v 0.05679729 -0.04933490 -0.04575571
v 0.06229690 -0.03945823 -0.02981332
v 0.06530543 -0.02989541 -0.01513338
v 0.06687163 -0.02086690 -0.00210357
v 0.12926518 0.06546240 0.04854631
v 0.14112848 0.05096349 0.04569548
v 0.11350838 0.07574939 0.05329764
v 0.09607526 0.08235304 0.05852905
v 0.16485644 0.01782187 0.03472590
v 0.15203370 0.03362839 0.04181477
v 0.08322375 -0.01994215 -0.00497472
v 0.10246477 -0.01857987 -0.00938809
v 0.12562289 -0.01699004 -0.01475060
v 0.15148848 -0.01473061 -0.01526651
v 0.17811266 -0.00915530 -0.00601846
v 0.10145094 0.09809655 0.04877940
v 0.10442265 0.13029784 0.01044756
v 0.10414948 0.11477249 0.03305307
v 0.09006897 0.15508826 -0.04686505
v 0.10003364 0.14399484 -0.01651493
v 0.04474613 -0.08414017 -0.10456100
v 0.05729112 -0.07397255 -0.08642089
v 0.06696882 -0.06244579 -0.06891343
v 0.07483922 -0.05127112 -0.05187246
v 0.08018262 -0.04049185 -0.03514174
v 0.08263239 -0.03007345 -0.01934767
v 0.13690146 0.08033122 0.03914288
v 0.12071787 0.09106382 0.04287112
v 0.16081265 0.05055712 0.04168284
v 0.14863903 0.06635932 0.03936315
v 0.10275541 -0.02889429 -0.02506238
v 0.12786113 -0.02617056 -0.03144690
v 0.15572146 -0.02109007 -0.03236189
v 0.18372339 -0.01259844 -0.02580604
v 0.12598092 0.10730978 0.02571937
v 0.13059814 0.12228539 -0.00037816
v 0.12936217 0.13573255 -0.03190541
v 0.11877902 0.14545548 -0.06501210
v 0.10522824 0.14933171 -0.10093433
v 0.06844634 -0.08861521 -0.11417064
v 0.07964187 -0.07574499 -0.09396446
v 0.08734268 -0.06254658 -0.07538542
v 0.09405077 -0.05056601 -0.05781630
v 0.10004260 -0.03943664 -0.04116771
v 0.15771890 0.08257669 0.02788383
v 0.14432252 0.09574764 0.02336657
v 0.12490535 -0.03568466 -0.04777992
v 0.15285085 -0.02839560 -0.04999739
v 0.17778720 -0.01638391 -0.04824942
v 0.15406700 0.10936439 0.00074264
v 0.14770670 0.13210649 -0.07875231
v 0.15764077 0.12658271 -0.04692781
v 0.13662557 0.12963970 -0.11379623
v 0.09468298 -0.08477752 -0.12471914
v 0.10282140 -0.07090719 -0.10239285
v 0.10911809 -0.05770962 -0.08238092
v 0.11730731 -0.04610310 -0.06447399
v 0.17001046 0.09569707 0.01485634
v 0.14458415 -0.03677564 -0.06903580
v 0.16790998 -0.02178212 -0.06907803
v 0.18156068 -0.00201484 -0.06896767
v 0.17178166 0.11586580 -0.01976457
v 0.17237890 0.11071556 -0.08417305
v 0.16268881 0.10250085 -0.11425513
v 0.18159282 0.11357674 -0.05655125
v 0.12359137 -0.05718486 -0.10995826
v 0.13317217 -0.04608316 -0.08905154
v 0.15460730 -0.02827913 -0.09116316
v 0.16696873 -0.00606093 -0.09083939
v 0.18863617 0.08935253 -0.08119234
v 0.17723428 0.07576814 -0.10654399
v 0.14195757 -0.03706691 -0.11347347
v 0.15439913 -0.01376454 -0.11301073
v 0.18804240 0.05911157 -0.09112734
v 0.05718809 0.02418283 0.05243161
v 0.05988907 0.03479482 0.06107995
v 0.05257493 0.01425515 0.04346222
v 0.07547072 0.02290549 0.04419750
v 0.00881718 -0.03420042 -0.01399145
v 0.01996968 -0.02336219 0.00608435
v 0.05963358 0.04602042 0.06924933
v 0.07994902 0.03550351 0.05390248
v 0.04612740 0.00464170 0.03455526
v 0.06911943 0.00981981 0.03492978
v 0.09666337 0.01821544 0.03710148
v 0.01420509 -0.04437159 -0.03399974
v 0.02713984 -0.03054706 -0.00936395
v 0.03505612 -0.01856719 0.01049328
v 0.08113250 0.04895112 0.06245765
v 0.05615515 0.05806555 0.07522956
v 0.10378281 0.03388923 0.04810852
v 0.06032047 -0.00254779 0.02546555
v 0.08632145 0.00543528 0.02533132
v 0.12008736 0.00812775 0.02753717
v 0.05390457 0.09415278 0.06624541
v 0.01957008 -0.05647781 -0.05771619
v 0.03557782 -0.04021029 -0.02795711
v 0.04457054 -0.02499046 -0.00307265
v 0.04860896 -0.01199663 0.01685038
v 0.10570106 0.05238194 0.05609220
v 0.07762582 0.06440326 0.06792590
v 0.12863352 0.02682339 0.04340371
v 0.07382176 -0.00707700 0.01468399
v 0.10785197 -0.00250598 0.01120561
v 0.14778200 -0.00318903 0.01551515
v 0.06846991 0.08066781 0.06878173
v 0.07165566 0.10969384 0.05166617
v 0.06373412 0.13779199 0.01660690
v 0.02351450 -0.06988145 -0.08228481
v 0.04463828 -0.05254611 -0.05040237
v 0.05580262 -0.03392884 -0.01979405
v 0.06008326 -0.01735374 0.00484195
v 0.13099283 0.05216415 0.04950488
v 0.10102972 0.07236646 0.05904123
v 0.15239570 0.01823526 0.03665382
v 0.09188833 -0.01416113 0.00010863
v 0.13502404 -0.01239425 -0.00711781
v 0.08957087 0.09227835 0.05690917
v 0.09261915 0.12467163 0.02756548
v 0.08118493 0.15136741 -0.02250263
v 0.05271683 -0.06653294 -0.07403550
v 0.06874418 -0.04539147 -0.04057550
v 0.07444187 -0.02520424 -0.01016456
v 0.12588409 0.07835555 0.04629400
v 0.15066786 0.05012350 0.04284135
v 0.11467461 -0.02280799 -0.02058822
v 0.16854029 -0.01476219 -0.02094325
v 0.11355829 0.10338348 0.03827935
v 0.11682914 0.13400834 -0.00950629
v 0.09718868 0.15430408 -0.07326961
v 0.06259283 -0.08154512 -0.09953055
v 0.08080013 -0.05701685 -0.06343544
v 0.09106801 -0.03488410 -0.02963388
v 0.14717047 0.08162567 0.03237972
v 0.14100291 -0.02815731 -0.04117832
v 0.13922402 0.10930863 0.01189050
v 0.13877566 0.13586137 -0.05588192
v 0.11340998 0.13832763 -0.12842941
v 0.07422076 -0.09339777 -0.13077855
v 0.09476169 -0.06744061 -0.08818534
v 0.10870469 -0.04327011 -0.05278435
v 0.16966181 0.08323027 0.02853170
v 0.16214687 -0.02647777 -0.05919996
v 0.17052461 0.10693009 -0.00125208
v 0.15654224 0.11972200 -0.09815699
v 0.17610325 0.11861138 -0.03868094
v 0.11055257 -0.07185993 -0.11777699
v 0.12577540 -0.04728106 -0.07648250
v 0.16857282 -0.01443519 -0.08065450
v 0.18620016 0.10323150 -0.07094178
v 0.16528127 0.08173209 -0.12879053
v 0.13823262 -0.04254115 -0.10149047
v 0.16429277 0.00243036 -0.10066280
v 0.18895255 0.07427385 -0.08795339
v 0.14276435 -0.03007035 -0.12572584
f 80 75 239
f 239 75 83
f 83 21 239
f 239 21 84
f 22 85 84
f 84 85 239
f 6 80 85
f 85 80 239
f 1 87 86
f 89 23 240
f 240 23 90
f 15 81 90
f 90 81 240
f 81 6 240
f 240 6 85
f 22 89 85
f 85 89 240
f 82 91 241
f 91 69 241
f 241 69 92
f 21 83 92
f 92 83 241
f 83 75 241
f 241 75 82
f 7 94 93
f 93 94 242
f 94 22 242
f 242 22 84
f 21 95 84
f 84 95 242
f 95 8 242
f 242 8 93
f 96 1 243
f 243 1 86
f 2 96 97
f 97 96 243
f 87 1 244
f 244 1 98
f 27 99 98
f 98 99 244
f 99 70 244
f 88 15 245
f 245 15 90
f 23 101 90
f 90 101 245
f 101 24 245
f 245 24 102
f 4 88 102
f 102 88 245
f 23 89 103
f 103 89 246
f 89 22 246
f 246 22 94
f 94 7 246
f 246 7 104
f 16 103 104
f 104 103 246
f 105 72 247
f 247 72 106
f 69 91 106
f 106 91 247
f 95 21 248
f 248 21 92
f 69 107 92
f 92 107 248
f 107 61 248
f 248 61 108
f 8 95 108
f 108 95 248
f 8 109 93
f 93 109 249
f 109 11 249
f 249 11 110
f 12 111 110
f 110 111 249
f 111 7 249
f 249 7 93
f 34 113 112
f 112 113 250
f 113 2 250
f 250 2 97
f 96 2 251
f 251 2 114
f 28 115 114
f 114 115 251
f 115 27 251
f 251 27 98
f 1 96 98
f 98 96 251
f 70 99 100
f 100 99 252
f 99 27 252
f 252 27 116
f 9 117 116
f 116 117 252
f 117 71 252
f 252 71 100
f 72 105 118
f 101 23 253
f 253 23 103
f 16 119 103
f 103 119 253
f 119 5 253
f 253 5 120
f 24 101 120
f 120 101 253
f 121 25 254
f 254 25 122
f 254 4 102
f 24 121 102
f 102 121 254
f 123 16 255
f 255 16 104
f 7 111 104
f 104 111 255
f 111 12 255
f 255 12 124
f 17 123 124
f 124 123 255
f 72 125 106
f 106 125 256
f 125 54 256
f 256 54 126
f 61 107 126
f 126 107 256
f 107 69 256
f 256 69 106
f 61 127 108
f 108 127 257
f 127 62 257
f 257 62 128
f 11 109 128
f 128 109 257
f 109 8 257
f 257 8 108
f 129 50 258
f 258 50 130
f 30 131 130
f 130 131 258
f 131 12 258
f 258 12 110
f 11 129 110
f 110 129 258
f 259 26 132
f 19 133 132
f 132 133 259
f 18 135 134
f 25 136 122
f 46 138 137
f 137 138 260
f 138 34 260
f 260 34 112
f 139 28 261
f 261 28 114
f 2 113 114
f 114 113 261
f 113 34 261
f 261 34 140
f 35 139 140
f 140 139 261
f 115 28 262
f 262 28 141
f 10 142 141
f 141 142 262
f 142 9 262
f 262 9 116
f 27 115 116
f 116 115 262
f 71 117 118
f 118 117 263
f 117 9 263
f 263 9 143
f 54 125 143
f 143 125 263
f 125 72 263
f 263 72 118
f 119 16 264
f 264 16 123
f 17 144 123
f 123 144 264
f 144 13 264
f 264 13 145
f 5 119 145
f 145 119 264
f 146 3 265
f 265 3 147
f 25 121 147
f 147 121 265
f 121 24 265
f 265 24 120
f 5 146 120
f 120 146 265
f 30 148 131
f 131 148 266
f 148 31 266
f 266 31 149
f 17 124 149
f 149 124 266
f 12 131 124
f 124 131 266
f 127 61 267
f 267 61 126
f 54 150 126
f 126 150 267
f 150 55 267
f 267 55 151
f 62 127 151
f 151 127 267
f 152 63 268
f 268 63 153
f 50 129 153
f 153 129 268
f 129 11 268
f 268 11 128
f 62 152 128
f 128 152 268
f 50 154 130
f 130 154 269
f 154 51 269
f 269 51 155
f 49 156 155
f 155 156 269
f 156 30 269
f 269 30 130
f 26 136 132
f 132 136 270
f 136 25 270
f 270 25 147
f 3 157 147
f 147 157 270
f 157 19 270
f 270 19 132
f 20 159 158
f 158 159 271
f 159 18 271
f 271 18 134
f 134 133 271
f 133 19 271
f 271 19 158
f 52 161 160
f 160 161 272
f 135 18 272
f 272 18 160
f 273 36 163
f 46 137 163
f 163 137 273
f 47 165 164
f 164 165 274
f 165 35 274
f 274 35 140
f 34 138 140
f 140 138 274
f 138 46 274
f 274 46 164
f 29 167 166
f 166 167 275
f 167 10 275
f 275 10 141
f 28 139 141
f 141 139 275
f 139 35 275
f 275 35 166
f 150 54 276
f 276 54 143
f 9 142 143
f 143 142 276
f 142 10 276
f 276 10 168
f 55 150 168
f 168 150 276
f 13 144 169
f 169 144 277
f 144 17 277
f 277 17 149
f 31 170 149
f 149 170 277
f 170 32 277
f 277 32 169
f 146 5 278
f 278 5 145
f 13 171 145
f 145 171 278
f 171 14 278
f 278 14 172
f 3 146 172
f 172 146 278
f 49 173 156
f 156 173 279
f 173 42 279
f 279 42 174
f 31 148 174
f 174 148 279
f 148 30 279
f 279 30 156
f 175 56 280
f 280 56 176
f 63 152 176
f 176 152 280
f 152 62 280
f 280 62 151
f 55 175 151
f 151 175 280
f 154 50 281
f 281 50 153
f 63 177 153
f 153 177 281
f 177 64 281
f 281 64 178
f 51 154 178
f 178 154 281
f 51 179 155
f 180 20 282
f 282 20 158
f 19 157 158
f 158 157 282
f 157 3 282
f 282 3 172
f 14 180 172
f 172 180 282
f 181 52 283
f 283 52 160
f 18 159 160
f 160 159 283
f 159 20 283
f 283 20 182
f 33 181 182
f 182 181 283
f 77 162 183
f 183 162 284
f 162 161 284
f 161 52 284
f 284 52 184
f 184 76 284
f 284 76 183
f 37 187 186
f 186 187 285
f 187 47 285
f 285 47 164
f 46 163 164
f 164 163 285
f 36 186 163
f 163 186 285
f 48 189 188
f 188 189 286
f 189 29 286
f 286 29 166
f 35 165 166
f 166 165 286
f 165 47 286
f 286 47 188
f 167 29 287
f 287 29 190
f 56 175 190
f 190 175 287
f 175 55 287
f 287 55 168
f 10 167 168
f 168 167 287
f 191 41 288
f 288 41 192
f 14 171 192
f 192 171 288
f 171 13 288
f 288 13 169
f 32 191 169
f 169 191 288
f 193 43 289
f 289 43 194
f 32 170 194
f 194 170 289
f 170 31 289
f 289 31 174
f 42 193 174
f 174 193 289
f 177 63 290
f 290 63 176
f 56 195 176
f 176 195 290
f 195 57 290
f 290 57 196
f 64 177 196
f 196 177 290
f 179 51 291
f 291 51 178
f 64 197 178
f 178 197 291
f 197 65 291
f 291 65 198
f 41 199 192
f 192 199 292
f 199 33 292
f 292 33 182
f 20 180 182
f 182 180 292
f 180 14 292
f 292 14 192
f 45 201 200
f 200 201 293
f 76 184 201
f 201 184 293
f 52 181 184
f 184 181 293
f 33 200 181
f 181 200 293
f 202 79 294
f 294 79 203
f 294 77 183
f 76 202 183
f 183 202 294
f 39 205 204
f 204 205 295
f 205 37 295
f 295 37 186
f 36 185 186
f 186 185 295
f 38 207 206
f 206 207 296
f 207 48 296
f 296 48 188
f 47 187 188
f 188 187 296
f 187 37 296
f 296 37 206
f 195 56 297
f 297 56 190
f 29 189 190
f 190 189 297
f 189 48 297
f 297 48 208
f 57 195 208
f 208 195 297
f 44 210 209
f 209 210 298
f 41 191 210
f 210 191 298
f 191 32 298
f 298 32 194
f 43 209 194
f 194 209 298
f 197 64 299
f 299 64 196
f 57 211 196
f 196 211 299
f 211 58 299
f 299 58 212
f 65 197 212
f 212 197 299
f 65 213 198
f 210 44 300
f 300 44 214
f 45 200 214
f 214 200 300
f 200 33 300
f 300 33 199
f 41 210 199
f 199 210 300
f 79 202 215
f 215 202 301
f 202 76 301
f 301 76 201
f 45 216 201
f 201 216 301
f 73 215 216
f 216 215 301
f 217 78 302
f 79 217 203
f 203 217 302
f 218 39 303
f 303 39 204
f 40 220 219
f 219 220 304
f 220 38 304
f 304 38 206
f 37 205 206
f 206 205 304
f 205 39 304
f 304 39 219
f 211 57 305
f 305 57 208
f 48 207 208
f 208 207 305
f 207 38 305
f 305 38 221
f 58 211 221
f 221 211 305
f 222 44 306
f 306 44 209
f 213 65 307
f 307 65 212
f 58 223 212
f 212 223 307
f 59 224 223
f 223 224 307
f 224 66 307
f 307 66 213
f 44 222 214
f 214 222 308
f 226 45 308
f 308 45 214
f 74 228 227
f 227 228 309
f 78 217 228
f 228 217 309
f 217 79 309
f 309 79 215
f 215 73 309
f 309 73 227
f 45 226 216
f 216 226 310
f 229 73 310
f 310 73 216
f 311 53 230
f 40 219 230
f 230 219 311
f 219 39 311
f 311 39 218
f 223 58 312
f 312 58 221
f 38 220 221
f 221 220 312
f 220 40 312
f 312 40 231
f 59 223 231
f 231 223 312
f 66 224 225
f 225 224 313
f 224 59 313
f 313 59 232
f 60 233 232
f 232 233 313
f 67 225 233
f 233 225 313
f 73 229 227
f 227 229 314
f 234 74 314
f 314 74 227
f 315 78 228
f 74 235 228
f 228 235 315
f 235 68 315
f 59 231 232
f 232 231 316
f 40 230 231
f 231 230 316
f 230 53 316
f 316 53 236
f 60 232 236
f 236 232 316
f 317 67 233
f 60 237 233
f 233 237 317
f 68 235 238
f 238 235 318
f 74 234 235
f 235 234 318
f 237 60 319
f 319 60 236

