# https://github.com/mikedh/trimesh
v 0.09044680 0.04172329 -0.04654300
v 0.17720604 0.00268671 -0.04822066
v 0.14021996 -0.00335533 -0.04980925
v 0.13387641 -0.04221673 -0.02316219
v 0.16947696 -0.03747309 -0.02682137
v 0.11870977 -0.02124733 0.03758955
v 0.15788725 -0.02402642 0.03070864
v 0.15631315 -0.00529952 0.03979719
v 0.11605683 0.00135576 0.04446703
v 0.13846692 0.02596240 -0.05004621
v 0.17793074 0.03045101 -0.04505429
v 0.13031563 0.05080405 -0.03117543
v 0.17261660 0.05155755 -0.02286696
v 0.11722389 0.04500512 0.02243435
v 0.15897426 0.03762437 0.02723649
v 0.05017726 -0.06103206 -0.00800511
v 0.06247078 -0.05048824 -0.03498822
v 0.05699959 -0.01259325 -0.06846589
v 0.09876728 0.01666282 -0.05847955
v 0.05585992 0.00942050 -0.07445014
v 0.10056150 -0.00964869 -0.05608436
v 0.09776762 -0.04712077 -0.02515224
v 0.09157288 -0.05051025 0.00206700
v 0.08519730 -0.04004120 0.02719998
v 0.07877442 -0.01885099 0.04384884
v 0.07443093 0.00945500 0.04693282
v 0.07793526 0.05204489 0.00893390
v 0.28600323 0.01379849 0.03404629
v 0.29285517 0.03182652 -0.02714762
v 0.25584504 0.00544006 -0.04092216
v 0.24402043 -0.02679475 -0.02685931
v 0.23609957 -0.03118516 0.02480662
v 0.23817840 -0.01677545 0.03676760
v 0.26162270 0.02997157 -0.03305146
v 0.25813535 0.04394667 -0.00764826
v 0.24936935 0.02183491 0.03157324
v 0.28399706 -0.02467355 0.03941572
v 0.28509614 -0.03697586 0.02538872
v 0.29448214 -0.02404967 -0.02111316
v 0.29559094 0.00436174 -0.03973365
v 0.21618009 0.00668761 -0.04440483
v 0.21946144 0.03183830 -0.03777161
v 0.21724689 0.04907372 -0.01458606
v 0.20425165 0.03132084 0.02974850
v 0.19711328 -0.01031391 0.03736863
v 0.19697928 -0.02781219 0.02719438
v 0.20659301 -0.03212357 -0.02922988
v 0.12831029 -0.04694991 0.00039673
v 0.16483763 -0.04480025 -0.00484255
v 0.20269674 -0.04235886 -0.00920680
v 0.24121466 -0.03584501 -0.01044872
v 0.29167137 -0.03159875 -0.00734219
v 0.12292847 -0.03809330 0.02143222
v 0.16078022 -0.03820468 0.01563558
v 0.19925362 -0.03957047 0.01116708
v 0.23780090 -0.03788746 0.00762534
v 0.28777134 -0.03785941 0.00766411
v 0.07415564 0.03540329 0.03384048
v 0.11533549 0.02497835 0.03891617
v 0.15642533 0.01673770 0.03908587
v 0.19965988 0.01056725 0.03845984
v 0.24349996 0.00227975 0.03888306
v 0.28466994 -0.00561523 0.04139408
v 0.08289918 0.05555872 -0.02177909
v 0.12230492 0.05597753 -0.00245538
v 0.16513786 0.05157762 0.00543973
v 0.21074694 0.04671593 0.01101553
v 0.25317055 0.03866694 0.01613408
v 0.28718457 0.03357667 0.01953730
v 0.28279018 0.03939051 -0.00202423
v 0.01365131 -0.02187593 0.04098615
v 0.00900088 0.01229644 0.03724480
v 0.00679263 0.04075933 0.01578298
v -0.00053474 0.06817361 -0.02069128
v 0.01555708 -0.04989782 0.02478778
v 0.01011860 -0.06520728 -0.00304592
v 0.04812562 -0.04483282 0.02877903
v 0.04099074 -0.01852072 0.04524660
v 0.03500928 0.01381817 0.04283836
v 0.03595307 0.04030901 0.02043396
v 0.04126166 0.05653597 -0.01134539
v 0.04748499 0.05379974 -0.04567745
v 0.29596794 -0.01340851 -0.03264621
v 0.24882546 -0.01259223 -0.03702822
v 0.21119156 -0.01388266 -0.04087788
v 0.17367041 -0.01917469 -0.04144961
v 0.13773194 -0.02469106 -0.04048595
v 0.09992504 -0.03013619 -0.04532933
v 0.05973382 -0.03271992 -0.05595535
v 0.05302860 0.03282940 -0.06724784
v 0.01948628 -0.07505019 -0.03937119
v 0.03224339 -0.06547359 -0.05839357
v 0.02914499 -0.04820037 -0.07896236
v 0.02342935 -0.03069462 -0.09691387
v 0.02326593 -0.00422092 -0.11619776
v 0.01566073 0.06692574 -0.06769383
v 0.02676135 0.03943571 -0.09667286
v 0.01444373 -0.05909244 0.01152074
v 0.00122556 -0.04948415 0.02747023
v 0.01525140 -0.03735136 0.03472579
v 0.00242867 -0.02154485 0.04181466
v 0.00188345 -0.06990384 -0.01526663
v 0.05092561 -0.05426927 0.01349929
v 0.03107584 -0.04776973 0.02566773
v 0.02850762 -0.06432854 -0.00601858
v 0.01120761 -0.00461611 0.04168272
v -0.00096601 0.01118608 0.03936303
v 0.04462494 -0.03306804 0.03919786
v 0.02572960 -0.02033851 0.04234925
v 0.00611642 -0.07626330 -0.03236201
v 0.03411835 -0.06777167 -0.02580616
v 0.06656614 -0.04210514 0.02875254
v 0.07259373 -0.05446173 -0.00137079
v 0.08840939 -0.04679781 0.01485807
v 0.00811386 0.02740346 0.02788371
v -0.00528252 0.04057441 0.02336645
v 0.03756151 -0.00239680 0.04648381
v 0.02003957 0.01322371 0.03854632
v 0.08177789 -0.03067387 0.03728977
v 0.05942219 -0.01815265 0.04558483
v 0.02818216 -0.07155714 -0.04824954
v 0.04592720 -0.05631785 -0.04657313
v 0.05973534 -0.05772816 -0.02243894
v 0.09505883 -0.05076882 -0.01161134
v 0.07949330 -0.04848909 -0.02901384
v 0.10387611 -0.03863420 0.02412057
v 0.10969234 -0.04857106 0.00129944
v 0.12555951 -0.04379712 0.01145312
v 0.00446196 0.05419116 0.00074252
v 0.00803573 0.07140948 -0.04692793
v 0.03470190 0.02835727 0.03351703
v 0.02040543 0.04052384 0.01485622
v 0.07632531 -0.00511066 0.04727560
v 0.05430506 0.01243992 0.04538599
v 0.09859592 -0.01991555 0.04082456
v 0.12062445 -0.03050029 0.03023565
v 0.01830494 -0.07695535 -0.06907815
v 0.03195564 -0.05718808 -0.06896779
v 0.04229258 -0.03795293 -0.06595713
v 0.06141725 -0.04220795 -0.04671982
v 0.11572322 -0.04499315 -0.02333742
v 0.13110545 -0.04641040 -0.01151481
v 0.07949488 -0.03139183 -0.05012497
v 0.09938705 -0.03974658 -0.03642866
v 0.14185724 -0.03788334 0.01841661
v 0.14637122 -0.04565153 -0.00210905
v 0.16275540 -0.04283006 0.00592956
v 0.03822711 0.04999267 0.00542921
v 0.02217662 0.06069257 -0.01976469
v 0.02277386 0.05554232 -0.08417317
v 0.04449502 0.05834464 -0.02809542
v 0.03198779 0.05840351 -0.05655137
v 0.07370606 0.02326544 0.04214188
v 0.05394277 0.03892956 0.02734101
v 0.11715034 -0.01039031 0.04258454
v 0.09527719 0.00566658 0.04631919
v 0.13849238 -0.02232173 0.03365138
v 0.15914902 -0.03173846 0.02386230
v 0.01736370 -0.06123416 -0.09083951
v 0.02547386 -0.03911570 -0.08848521
v 0.03642854 -0.01958674 -0.08264303
v 0.05810976 -0.02259333 -0.06293929
v 0.11870906 -0.02807725 -0.04289213
v 0.13613707 -0.03452534 -0.03314060
v 0.15142241 -0.03983057 -0.02485105
v 0.16714713 -0.04303976 -0.01615092
v 0.10019827 -0.02028681 -0.05177003
v 0.07897939 -0.01111181 -0.06192204
v 0.17991522 -0.03891462 0.01340106
v 0.18371674 -0.04390752 -0.00715008
v 0.20094830 -0.04237997 0.00128457
v 0.07579458 0.04512088 0.02304724
v 0.05936696 0.05449341 -0.00121343
v 0.05081491 0.04444464 -0.05843052
v 0.03903113 0.03417930 -0.08119246
v 0.02762924 0.02059491 -0.10654411
v 0.06423385 0.05397411 -0.03444397
v 0.08044147 0.05597844 -0.00549641
v 0.11550573 0.01334620 0.04324231
v 0.09482220 0.03050747 0.03680512
v 0.15695104 -0.01528610 0.03619874
v 0.13631997 -0.00207221 0.04177389
v 0.19785076 -0.03452547 0.01985404
v 0.17736480 -0.02582093 0.02882716
v 0.01270267 -0.04467430 -0.11090007
v 0.02326727 -0.02034091 -0.10549706
v 0.03843737 0.00393834 -0.09112746
v 0.05618249 -0.00194209 -0.07283431
v 0.11985698 -0.00722595 -0.05322129
v 0.13908666 -0.01450312 -0.04577765
v 0.15534905 -0.02213649 -0.04087532
v 0.17166576 -0.02906763 -0.03533474
v 0.18797532 -0.03508809 -0.02835098
v 0.20457244 -0.03877810 -0.01978841
v 0.07775705 0.01286144 -0.06563243
v 0.10039186 0.00254964 -0.05912217
v 0.21836454 -0.03915565 0.00939247
v 0.22163427 -0.03975293 -0.01023835
v 0.23937711 -0.03782650 -0.00153643
v 0.11585471 0.03577532 0.03185955
v 0.09726727 0.04887951 0.01683307
v 0.08636022 0.05040592 -0.03594506
v 0.07102753 0.03646682 -0.05701113
v 0.05481635 0.02113818 -0.07249045
v 0.10161167 0.05654447 -0.01178342
v 0.11945632 0.05193670 0.01100805
v 0.15609840 0.00552507 0.04089850
v 0.13570413 0.02059723 0.03899819
v 0.19677639 -0.01973911 0.03322437
v 0.17660674 -0.00784160 0.03839800
v 0.23653835 -0.03559147 0.01659197
v 0.21662033 -0.02928272 0.02594894
v 0.14034358 0.01033019 -0.05178797
v 0.11735159 0.02121534 -0.05500039
v 0.15842775 -0.00029752 -0.04941267
v 0.17553389 -0.00883521 -0.04565707
v 0.19230571 -0.01660018 -0.04151192
v 0.20881251 -0.02343429 -0.03629491
v 0.22493994 -0.02914127 -0.02878428
v 0.24240848 -0.03209525 -0.01919100
v 0.09497860 0.03027375 -0.05418009
v 0.26488036 -0.03303261 -0.00872254
v 0.28971630 -0.03504566 -0.00021011
v 0.26047337 -0.03773201 0.00682816
v 0.15725240 0.02771409 0.03449747
v 0.13765207 0.04124063 0.02502754
v 0.12602380 0.05591697 -0.01698008
v 0.10892573 0.04693581 -0.03952411
v 0.14317968 0.05390039 0.00170702
v 0.16158345 0.04582148 0.01747659
v 0.17777735 0.01368240 0.03881326
v 0.19813627 -0.00006244 0.03917757
v 0.23667070 -0.02485318 0.03177929
v 0.21783262 -0.01286585 0.03668272
v 0.28624386 -0.03879324 0.01644409
v 0.25819868 -0.03510345 0.02409956
v 0.15781304 0.02881711 -0.04817906
v 0.17813942 0.01583851 -0.04856449
v 0.13473555 0.04047617 -0.04279983
v 0.19636685 0.00488828 -0.04644457
v 0.21367580 -0.00406459 -0.04352251
v 0.22995543 -0.01237422 -0.03929132
v 0.24613670 -0.02004127 -0.03271288
v 0.26860288 -0.02613966 -0.02340093
v 0.29328355 -0.02787939 -0.01424408
v 0.20175520 0.02110970 0.03535825
v 0.18120721 0.03460144 0.02857465
v 0.16893938 0.05387293 -0.00820038
v 0.15091816 0.05179754 -0.02714282
v 0.18775538 0.04937697 0.00812796
v 0.20701560 0.04013161 0.02141580
v 0.22200155 0.00721506 0.03819078
v 0.24052453 -0.00746872 0.03915191
v 0.28433269 -0.03221091 0.03350788
v 0.25957710 -0.02264028 0.03754166
v 0.17584905 0.04346976 -0.03617859
v 0.19854274 0.03101386 -0.04159054
v 0.21834004 0.01896647 -0.04305169
v 0.23617068 0.00688030 -0.04253748
v 0.25220919 -0.00427784 -0.04000720
v 0.27219597 -0.01525453 -0.03477851
v 0.29538184 -0.01938326 -0.02728027
v 0.24659583 0.01211350 0.03624552
v 0.22738323 0.02730801 0.03049472
v 0.21427199 0.04999791 -0.00107604
v 0.19493106 0.05040928 -0.01936904
v 0.23307928 0.04326564 0.01362458
v 0.25153860 0.03111323 0.02497777
v 0.28410265 -0.01542024 0.04211393
v 0.26411378 -0.00392696 0.04018685
v 0.21918076 0.04275927 -0.02792907
v 0.24093321 0.03168689 -0.03507927
v 0.25947037 0.01707411 -0.03950432
v 0.27569833 0.00235507 -0.04048294
v 0.29596266 -0.00572553 -0.03712764
v 0.28548351 0.00411364 0.03828806
v 0.26901716 0.01516932 0.03220659
v 0.23876616 0.04692141 -0.01087770
v 0.25564942 0.04329187 0.00510731
v 0.28644627 0.02361123 0.02852660
v 0.27119836 0.03318689 0.01835114
v 0.26073936 0.03969999 -0.02104911
v 0.29464525 0.01732413 -0.03830317
v 0.27845025 0.02759935 -0.03073668
v 0.28254697 0.03783274 0.00883386
v 0.27275047 0.04070680 -0.00433806
v 0.28527698 0.03756167 -0.01393953
v 0.28918019 0.04008102 -0.00142971
v 0.29688892 0.03981451 -0.01340032
v -0.00182304 -0.05836226 0.01551503
v 0.00279066 -0.03693797 0.03665370
v 0.03199549 -0.05732733 0.01120737
v 0.00106283 -0.00504973 0.04284123
v 0.02878055 -0.03540210 0.03608713
v 0.01893525 -0.06993542 -0.02094337
v 0.07004733 -0.05029320 0.01461560
v -0.00243457 0.02645243 0.03237960
v 0.02239750 -0.00339140 0.04321229
v 0.06282920 -0.03137068 0.03940243
v 0.04282662 -0.06358421 -0.03554171
v 0.07667701 -0.05340877 -0.01579991
v 0.10675412 -0.04494602 0.01322663
v 0.02005677 0.02805704 0.02853158
v 0.05651979 -0.00310108 0.04772809
v 0.10111812 -0.03037967 0.03361207
v 0.01254183 -0.08165101 -0.05920008
v 0.04464784 -0.04716108 -0.05630514
v 0.11275193 -0.04867687 -0.01126033
v 0.08014217 -0.04091958 -0.04081759
v 0.14400998 -0.04308435 0.00870928
v 0.02091958 0.05175686 -0.00125220
v 0.02649821 0.06343815 -0.03868106
v 0.05328798 0.02686194 0.03845131
v 0.09657884 -0.00754962 0.04532465
v 0.13996658 -0.03071304 0.02675331
v 0.01896778 -0.06960842 -0.08065462
v 0.03852423 -0.02847630 -0.07513562
v 0.11798951 -0.03758137 -0.03387868
v 0.14890066 -0.04468761 -0.01367533
v 0.07883579 -0.02139292 -0.05697984
v 0.18175820 -0.04279628 0.00357717
v 0.05634402 0.04827248 0.01383770
v 0.03659512 0.04805827 -0.07094190
v 0.06204031 0.05691468 -0.01688451
v 0.09476715 0.01863993 0.04316074
v 0.13726112 -0.01272716 0.03891593
v 0.17836717 -0.03304055 0.02179238
v 0.01468773 -0.05274287 -0.10066292
v 0.03710786 -0.00919748 -0.08824617
v 0.11956045 -0.01806585 -0.04868954
v 0.15355715 -0.03187292 -0.03404939
v 0.18587276 -0.04127692 -0.01819432
v 0.07895681 0.00023329 -0.06522435
v 0.21989363 -0.04074536 -0.00034323
v 0.09563616 0.04071949 0.02780268
v 0.06742756 0.04649885 -0.04761833
v 0.03934751 0.01910061 -0.08795351
v 0.09919629 0.05437789 0.00298849
v 0.13580814 0.00920911 0.04185006
v 0.17674437 -0.01746201 0.03447974
v 0.21724489 -0.03517516 0.01822379
v 0.11952433 0.00586756 -0.05576694
v 0.15693983 -0.01186713 -0.04581803
v 0.19012961 -0.02641402 -0.03620875
v 0.22306159 -0.03558091 -0.02015167
v 0.07483883 0.02520365 -0.06277236
v 0.26256809 -0.03593500 -0.00121918
v 0.13619217 0.03145415 0.03335860
v 0.10502836 0.05407811 -0.02658746
v 0.14002958 0.04893214 0.01442549
v 0.17689505 0.00271565 0.03997833
v 0.21680072 -0.02178150 0.03225800
v 0.25888136 -0.03768387 0.01547840
v 0.15899220 0.01336411 -0.05080792
v 0.11339310 0.03577239 -0.04918116
v 0.19440910 -0.00636167 -0.04491034
v 0.22727659 -0.02115026 -0.03518170
v 0.26685780 -0.02987959 -0.01622865
v 0.17912969 0.02448965 0.03498322
v 0.14689174 0.05535078 -0.01238543
v 0.18397656 0.04313092 0.01947007
v 0.21959320 -0.00295353 0.03867146
v 0.25844592 -0.03003827 0.03181365
v 0.15479645 0.04268236 -0.03981078
v 0.19798586 0.01753843 -0.04578027
v 0.23299664 -0.00322491 -0.04172823
v 0.27040550 -0.02129255 -0.02970409
v 0.22467127 0.01734922 0.03550780
v 0.19156468 0.05219456 -0.00502059
v 0.22989684 0.03629491 0.02307358
v 0.26152569 -0.01362423 0.04045480
v 0.19744197 0.04287804 -0.03261113
v 0.23909107 0.01878046 -0.04104042
v 0.27390149 -0.00751063 -0.03849036
v 0.26688200 0.00578582 0.03718323
v 0.23613462 0.04709986 0.00214314
v 0.27054641 0.02460847 0.02630270
v 0.24076504 0.04196063 -0.02408454
v 0.27785087 0.01465245 -0.03864342
v 0.27126172 0.03925946 0.00787070
v 0.27578169 0.03716962 -0.01794583
v 0.28837958 0.03931030 0.00636595
v 0.28996709 0.03913514 -0.00983968
f 290 76 98
f 75 99 98
f 98 99 290
f 75 100 99
f 99 100 291
f 100 71 291
f 291 71 101
f 103 77 292
f 292 77 104
f 75 98 104
f 104 98 292
f 76 105 98
f 98 105 292
f 16 103 105
f 105 103 292
f 106 72 293
f 293 72 107
f 71 106 101
f 101 106 293
f 100 75 294
f 294 75 104
f 77 108 104
f 104 108 294
f 108 78 294
f 294 78 109
f 71 100 109
f 109 100 294
f 105 76 295
f 295 76 102
f 102 110 295
f 110 91 295
f 295 91 111
f 16 105 111
f 111 105 295
f 77 103 112
f 112 103 296
f 103 16 296
f 296 16 113
f 23 114 113
f 113 114 296
f 114 24 296
f 296 24 112
f 73 116 115
f 115 116 297
f 72 115 107
f 107 115 297
f 117 79 298
f 298 79 118
f 72 106 118
f 118 106 298
f 106 71 298
f 298 71 109
f 78 117 109
f 109 117 298
f 108 77 299
f 299 77 112
f 24 119 112
f 112 119 299
f 119 25 299
f 299 25 120
f 78 108 120
f 120 108 299
f 91 121 111
f 111 121 300
f 121 92 300
f 300 92 122
f 17 123 122
f 122 123 300
f 123 16 300
f 300 16 111
f 124 23 301
f 301 23 113
f 16 123 113
f 113 123 301
f 123 17 301
f 301 17 125
f 22 124 125
f 125 124 301
f 24 114 126
f 126 114 302
f 114 23 302
f 302 23 127
f 48 128 127
f 127 128 302
f 128 53 302
f 302 53 126
f 131 80 303
f 303 80 132
f 132 73 303
f 303 73 115
f 115 72 303
f 303 72 118
f 79 131 118
f 118 131 303
f 133 26 304
f 304 26 134
f 79 117 134
f 134 117 304
f 117 78 304
f 304 78 120
f 25 133 120
f 120 133 304
f 25 119 135
f 135 119 305
f 119 24 305
f 305 24 126
f 53 136 126
f 126 136 305
f 136 6 305
f 305 6 135
f 121 91 306
f 137 92 306
f 306 92 121
f 92 138 122
f 122 138 307
f 138 93 307
f 307 93 139
f 139 89 307
f 307 89 140
f 140 17 307
f 307 17 122
f 23 124 127
f 127 124 308
f 124 22 308
f 308 22 141
f 4 142 141
f 141 142 308
f 142 48 308
f 308 48 127
f 143 88 309
f 309 88 144
f 144 22 309
f 309 22 125
f 17 140 125
f 125 140 309
f 89 143 140
f 140 143 309
f 53 128 145
f 145 128 310
f 128 48 310
f 310 48 146
f 49 147 146
f 146 147 310
f 147 54 310
f 310 54 145
f 73 132 129
f 129 132 311
f 132 80 311
f 311 80 148
f 81 149 148
f 148 149 311
f 149 74 311
f 311 74 129
f 74 149 130
f 130 149 312
f 149 81 312
f 312 81 151
f 82 152 151
f 151 152 312
f 152 96 312
f 312 96 130
f 153 58 313
f 313 58 154
f 80 131 154
f 154 131 313
f 131 79 313
f 313 79 134
f 26 153 134
f 134 153 313
f 155 9 314
f 314 9 156
f 26 133 156
f 156 133 314
f 133 25 314
f 314 25 135
f 6 155 135
f 135 155 314
f 6 136 157
f 157 136 315
f 136 53 315
f 315 53 145
f 54 158 145
f 145 158 315
f 158 7 315
f 315 7 157
f 92 137 138
f 138 137 316
f 93 138 159
f 159 138 316
f 93 160 139
f 139 160 317
f 160 94 317
f 317 94 161
f 18 162 161
f 161 162 317
f 89 139 162
f 162 139 317
f 87 164 163
f 163 164 318
f 164 4 318
f 318 4 141
f 22 144 141
f 141 144 318
f 144 88 318
f 318 88 163
f 48 142 146
f 146 142 319
f 142 4 319
f 319 4 165
f 5 166 165
f 165 166 319
f 166 49 319
f 319 49 146
f 88 143 167
f 167 143 320
f 143 89 320
f 320 89 162
f 18 168 162
f 162 168 320
f 168 21 320
f 320 21 167
f 54 147 169
f 169 147 321
f 147 49 321
f 321 49 170
f 50 171 170
f 170 171 321
f 171 55 321
f 321 55 169
f 148 80 322
f 322 80 154
f 58 172 154
f 154 172 322
f 172 27 322
f 322 27 173
f 173 81 322
f 322 81 148
f 96 152 150
f 150 152 323
f 152 82 323
f 323 82 174
f 90 175 174
f 174 175 323
f 175 97 323
f 323 97 150
f 177 82 324
f 324 82 151
f 81 173 151
f 151 173 324
f 27 178 173
f 173 178 324
f 178 64 324
f 324 64 177
f 179 59 325
f 325 59 180
f 58 153 180
f 180 153 325
f 153 26 325
f 325 26 156
f 9 179 156
f 156 179 325
f 181 8 326
f 326 8 182
f 9 155 182
f 182 155 326
f 155 6 326
f 326 6 157
f 7 181 157
f 157 181 326
f 158 54 327
f 327 54 169
f 55 183 169
f 169 183 327
f 183 46 327
f 327 46 184
f 7 158 184
f 184 158 327
f 160 93 328
f 328 93 159
f 94 160 185
f 185 160 328
f 95 187 186
f 186 187 329
f 20 188 187
f 187 188 329
f 188 18 329
f 329 18 161
f 94 186 161
f 161 186 329
f 3 190 189
f 189 190 330
f 190 87 330
f 330 87 163
f 88 167 163
f 163 167 330
f 167 21 330
f 330 21 189
f 164 87 331
f 331 87 191
f 86 192 191
f 191 192 331
f 192 5 331
f 331 5 165
f 4 164 165
f 165 164 331
f 49 166 170
f 170 166 332
f 166 5 332
f 332 5 193
f 47 194 193
f 193 194 332
f 194 50 332
f 332 50 170
f 168 18 333
f 333 18 188
f 20 195 188
f 188 195 333
f 195 19 333
f 333 19 196
f 21 168 196
f 196 168 333
f 55 171 197
f 197 171 334
f 171 50 334
f 334 50 198
f 51 199 198
f 198 199 334
f 199 56 334
f 334 56 197
f 59 200 180
f 180 200 335
f 200 14 335
f 335 14 201
f 27 172 201
f 201 172 335
f 172 58 335
f 335 58 180
f 177 64 336
f 336 64 202
f 1 203 202
f 202 203 336
f 203 90 336
f 336 90 174
f 82 177 174
f 174 177 336
f 204 20 337
f 337 20 187
f 95 176 187
f 187 176 337
f 97 175 176
f 176 175 337
f 175 90 337
f 337 90 204
f 64 178 205
f 205 178 338
f 178 27 338
f 338 27 201
f 14 206 201
f 201 206 338
f 65 205 206
f 206 205 338
f 207 60 339
f 339 60 208
f 59 179 208
f 208 179 339
f 179 9 339
f 339 9 182
f 8 207 182
f 182 207 339
f 181 7 340
f 340 7 184
f 46 209 184
f 184 209 340
f 209 45 340
f 340 45 210
f 8 181 210
f 210 181 340
f 183 55 341
f 341 55 197
f 56 211 197
f 197 211 341
f 211 32 341
f 341 32 212
f 46 183 212
f 212 183 341
f 213 3 342
f 342 3 189
f 189 21 342
f 342 21 196
f 19 214 196
f 196 214 342
f 214 10 342
f 342 10 213
f 87 190 191
f 191 190 343
f 190 3 343
f 343 3 215
f 2 216 215
f 215 216 343
f 216 86 343
f 343 86 191
f 192 86 344
f 344 86 217
f 85 218 217
f 217 218 344
f 218 47 344
f 344 47 193
f 5 192 193
f 193 192 344
f 50 194 198
f 198 194 345
f 194 47 345
f 345 47 219
f 31 220 219
f 219 220 345
f 220 51 345
f 345 51 198
f 19 195 221
f 221 195 346
f 195 20 346
f 346 20 204
f 90 203 204
f 204 203 346
f 203 1 346
f 346 1 221
f 52 223 222
f 222 223 347
f 223 57 347
f 347 57 224
f 56 199 224
f 224 199 347
f 199 51 347
f 347 51 222
f 208 60 348
f 348 60 225
f 15 226 225
f 225 226 348
f 14 200 226
f 226 200 348
f 200 59 348
f 348 59 208
f 205 65 349
f 349 65 227
f 12 228 227
f 227 228 349
f 228 1 349
f 349 1 202
f 64 205 202
f 202 205 349
f 229 65 350
f 350 65 206
f 14 226 206
f 206 226 350
f 226 15 350
f 350 15 230
f 66 229 230
f 230 229 350
f 60 207 231
f 231 207 351
f 207 8 351
f 351 8 210
f 45 232 210
f 210 232 351
f 61 231 232
f 232 231 351
f 209 46 352
f 352 46 212
f 32 233 212
f 212 233 352
f 33 234 233
f 233 234 352
f 45 209 234
f 234 209 352
f 57 235 224
f 224 235 353
f 235 38 353
f 353 38 236
f 32 211 236
f 236 211 353
f 211 56 353
f 353 56 224
f 10 237 213
f 213 237 354
f 237 11 354
f 354 11 238
f 238 2 354
f 354 2 215
f 3 213 215
f 215 213 354
f 10 214 239
f 239 214 355
f 214 19 355
f 355 19 221
f 1 228 221
f 221 228 355
f 228 12 355
f 355 12 239
f 86 216 217
f 217 216 356
f 216 2 356
f 356 2 240
f 41 241 240
f 240 241 356
f 241 85 356
f 356 85 217
f 218 85 357
f 357 85 242
f 84 243 242
f 242 243 357
f 243 31 357
f 357 31 219
f 47 218 219
f 219 218 357
f 39 245 244
f 244 245 358
f 245 52 358
f 358 52 222
f 51 220 222
f 222 220 358
f 220 31 358
f 358 31 244
f 60 231 225
f 225 231 359
f 231 61 359
f 359 61 246
f 44 247 246
f 246 247 359
f 247 15 359
f 359 15 225
f 229 66 360
f 360 66 248
f 13 249 248
f 248 249 360
f 249 12 360
f 360 12 227
f 65 229 227
f 227 229 360
f 250 66 361
f 361 66 230
f 15 247 230
f 230 247 361
f 247 44 361
f 361 44 251
f 67 250 251
f 251 250 361
f 252 61 362
f 362 61 232
f 45 234 232
f 232 234 362
f 234 33 362
f 362 33 253
f 62 252 253
f 253 252 362
f 37 255 254
f 254 255 363
f 255 33 363
f 363 33 233
f 233 32 363
f 363 32 236
f 38 254 236
f 236 254 363
f 12 249 239
f 239 249 364
f 249 13 364
f 364 13 256
f 11 237 256
f 256 237 364
f 237 10 364
f 364 10 239
f 11 257 238
f 238 257 365
f 42 258 257
f 257 258 365
f 258 41 365
f 365 41 240
f 2 238 240
f 240 238 365
f 85 241 242
f 242 241 366
f 241 41 366
f 366 41 259
f 30 260 259
f 259 260 366
f 260 84 366
f 366 84 242
f 31 243 244
f 244 243 367
f 243 84 367
f 367 84 261
f 83 262 261
f 261 262 367
f 262 39 367
f 367 39 244
f 61 252 246
f 246 252 368
f 252 62 368
f 368 62 263
f 36 264 263
f 263 264 368
f 264 44 368
f 368 44 246
f 66 250 248
f 248 250 369
f 250 67 369
f 369 67 265
f 43 266 265
f 265 266 369
f 266 13 369
f 369 13 248
f 267 67 370
f 370 67 251
f 44 264 251
f 251 264 370
f 264 36 370
f 370 36 268
f 68 267 268
f 268 267 370
f 63 270 269
f 269 270 371
f 270 62 371
f 371 62 253
f 33 255 253
f 253 255 371
f 255 37 371
f 371 37 269
f 13 266 256
f 256 266 372
f 266 43 372
f 372 43 271
f 42 257 271
f 271 257 372
f 257 11 372
f 372 11 256
f 258 42 373
f 373 42 272
f 34 273 272
f 272 273 373
f 273 30 373
f 373 30 259
f 41 258 259
f 259 258 373
f 84 260 261
f 261 260 374
f 260 30 374
f 374 30 274
f 40 275 274
f 274 275 374
f 275 83 374
f 374 83 261
f 270 63 375
f 375 63 276
f 28 277 276
f 276 277 375
f 277 36 375
f 375 36 263
f 62 270 263
f 263 270 375
f 278 43 376
f 376 43 265
f 67 267 265
f 265 267 376
f 267 68 376
f 376 68 279
f 35 278 279
f 279 278 376
f 36 277 268
f 268 277 377
f 277 28 377
f 377 28 280
f 69 281 280
f 280 281 377
f 68 268 281
f 281 268 377
f 43 278 271
f 271 278 378
f 278 35 378
f 378 35 282
f 282 34 378
f 378 34 272
f 42 271 272
f 272 271 378
f 283 40 379
f 379 40 274
f 30 273 274
f 274 273 379
f 273 34 379
f 379 34 284
f 29 283 284
f 284 283 379
f 279 68 380
f 380 68 281
f 69 285 281
f 281 285 380
f 285 70 380
f 380 70 286
f 35 279 286
f 286 279 380
f 284 34 381
f 381 34 282
f 35 286 282
f 282 286 381
f 286 70 381
f 381 70 287
f 29 284 287
f 287 284 381
f 285 69 382
f 288 70 382
f 382 70 285
f 287 70 383
f 383 70 288
f 29 287 289
f 289 287 383

