# https://github.com/mikedh/trimesh
v 0.01555932 -0.03917044 -0.01961589
v 0.00792611 -0.03562935 -0.01473707
v 0.00890148 -0.02757453 -0.02459222
v 0.01314878 -0.03112765 -0.02730936
v 0.00088555 -0.02116373 -0.02189368
v 0.01215327 -0.01129593 -0.02892900
v 0.01660019 -0.02075892 -0.03131133
v 0.01424718 -0.01791679 -0.03043026
v 0.01503217 -0.03675266 -0.00353235
v -0.00161487 -0.00910600 -0.02365613
v 0.01094401 -0.00361346 -0.02781236
v 0.02399647 -0.03373395 0.00345829
v 0.00549889 -0.03199756 0.00556690
v -0.00393260 -0.00076783 -0.02312437
v 0.00845158 0.00468237 -0.02759713
v 0.00235826 -0.01867450 0.01733258
v 0.01494163 -0.01520891 0.01592395
v -0.00599653 0.00867477 -0.02179572
v 0.00424379 0.01384687 -0.02565408
v -0.00711155 0.01902170 -0.01723513
v 0.00191885 0.02322347 -0.01845318
v 0.02299333 -0.00504186 -0.02890664
v 0.02312768 -0.00992716 -0.03049767
v 0.02554053 -0.01287791 -0.03151664
v 0.02812940 -0.02136466 0.01147220
v 0.02265036 0.00086689 -0.02711457
v 0.02493823 -0.01083412 0.01594636
v 0.00257081 0.02708222 -0.00550228
v -0.00628114 0.02453168 -0.00473037
v 0.02037746 0.00894421 -0.02825162
v 0.00598818 0.02251101 0.00883517
v -0.00303191 0.02156251 0.01066577
v 0.01532936 0.01910014 -0.02791679
v 0.01170403 -0.00247062 0.01775876
v 0.00015491 -0.00475301 0.02023771
v 0.01190323 0.02850468 -0.02028283
v -0.00121307 0.00853163 0.01879421
v 0.00913721 0.01026515 0.01621488
v 0.01169145 0.03164154 -0.00625655
v 0.01482803 0.02598254 0.00713292
v 0.01827282 0.01396960 0.01434579
v 0.02137339 0.00141800 0.01657179
v -0.00131691 -0.03349816 -0.00979441
v 0.03400046 -0.00430671 -0.02485737
v 0.03206241 -0.00736728 -0.02795109
v 0.03262126 0.01238407 -0.02671477
v 0.02777237 0.02282904 -0.02870676
v 0.02399778 0.03265511 -0.02175695
v 0.03139180 0.00414192 0.01511943
v 0.02798891 0.01706267 0.01230443
v 0.01850981 -0.02568560 0.00991461
v 0.00128162 -0.03441345 -0.00230280
v 0.00400120 -0.02571059 0.01293156
v -0.00149608 -0.02874596 -0.01612428
v -0.00901431 -0.02260676 -0.01640821
v 0.00378346 -0.03424407 -0.01267630
v 0.01060414 -0.03741110 -0.00870219
v 0.01094157 -0.03459542 0.00001132
v 0.00117141 -0.01164405 0.01982042
v 0.01298726 -0.02896954 0.00852826
v 0.01651663 -0.02077389 0.01303452
v 0.00911200 -0.01732061 0.01621005
v -0.01020598 -0.01158953 -0.02090394
v -0.00063550 -0.01442576 -0.02348465
v 0.00750303 -0.03200369 -0.02007717
v 0.00585133 -0.02461411 -0.02326030
v 0.01204348 -0.03742177 -0.01675794
v 0.01898843 -0.03963191 -0.00692880
v 0.01947510 -0.03582297 0.00078616
v 0.02110326 -0.03003483 0.00682089
v -0.00059575 0.00186054 0.01989320
v 0.01331705 -0.00882465 0.01750660
v 0.00635028 -0.00406972 0.01883644
v 0.02339810 -0.02303107 0.01079515
v 0.02650291 -0.01652174 0.01412854
v 0.02004606 -0.01276714 0.01608801
v -0.00272399 -0.00486468 -0.02333367
v -0.01167315 -0.00197361 -0.02156356
v 0.00749850 -0.01574434 -0.02651045
v 0.00536776 -0.00657103 -0.02588746
v 0.01153862 -0.00756832 -0.02827615
v 0.01081526 -0.02978698 -0.02555397
v 0.01365268 -0.03575968 -0.02386558
v 0.01302457 -0.01473595 -0.02957398
v 0.01097435 -0.02270509 -0.02814859
v 0.02752692 -0.03721601 -0.00009462
v 0.02792352 -0.03118809 0.00475764
v 0.02992600 -0.02564708 0.00870118
v -0.00187886 0.01558019 0.01608628
v -0.00482798 0.02426657 0.00338405
v 0.00430912 0.00894099 0.01735875
v 0.01037002 0.00374345 0.01743281
v 0.02324688 -0.00477104 0.01687139
v 0.01656830 -0.00049209 0.01702702
v 0.02984399 -0.00936841 0.01561937
v 0.03279966 -0.02020834 0.01198411
v -0.00508994 0.00367839 -0.02271217
v -0.01258034 0.00875525 -0.02098304
v 0.00271153 0.00162449 -0.02496508
v 0.01001942 0.00044880 -0.02736801
v 0.01628143 -0.00134186 -0.02809983
v 0.02298570 -0.00233061 -0.02772710
v 0.01703626 -0.00762590 -0.02961105
v 0.01424479 -0.02606239 -0.02980173
v 0.01476032 -0.01949573 -0.03036854
v 0.01838100 -0.01340262 -0.03111458
v 0.02284956 -0.00771831 -0.02973577
v 0.00166738 0.02140287 0.00962925
v 0.00775421 0.01676776 0.01361471
v 0.00407112 0.02618146 0.00199285
v -0.00167382 0.02537787 -0.00528374
v -0.00700235 0.02259459 -0.01193053
v 0.01979119 0.00756162 0.01580268
v 0.01368690 0.01210671 0.01523048
v 0.02644026 0.00295665 0.01584902
v 0.03316504 -0.00216057 0.01569581
v -0.00672895 0.01395544 -0.02016369
v -0.00053149 0.01059172 -0.02340588
v 0.00632423 0.00912839 -0.02706826
v 0.01411825 0.00675717 -0.02851877
v 0.02199101 0.00478153 -0.02739912
v 0.02896351 -0.00416776 -0.02695015
v 0.02949411 0.00207089 -0.02496287
v 0.03533757 -0.00141850 -0.02310237
v 0.02381492 -0.01153267 -0.03088945
v 0.02069581 -0.01639580 -0.03201234
v 0.02837723 -0.00809975 -0.02922466
v 0.03292286 -0.00606765 -0.02666864
v 0.01025397 0.02422108 0.00796419
v 0.01657516 0.02029089 0.01157632
v 0.00691313 0.02930106 -0.00580156
v 0.01306993 0.02999616 0.00104329
v 0.00186342 0.02600351 -0.01247579
v -0.00216734 0.02034457 -0.01750979
v 0.02312511 0.01570070 0.01337820
v 0.02961540 0.01051963 0.01414335
v 0.00268441 0.01882059 -0.02285671
v 0.00964171 0.01651899 -0.02704972
v 0.01791751 0.01366037 -0.02879962
v 0.02670032 0.01066792 -0.02750432
v 0.03475595 0.00787207 -0.02447814
v 0.01984662 0.02762372 0.00609812
v 0.02635980 0.02327123 0.00941378
v 0.00661534 0.02579451 -0.01933080
v 0.01123226 0.03108102 -0.01375097
v 0.01735771 0.03397628 -0.00705341
v 0.01324415 0.02427629 -0.02505606
v 0.03021979 0.01726161 -0.02851701
v 0.02175164 0.02124008 -0.02850983
v 0.01812667 0.03090763 -0.02109051
v 0.02556503 0.02833504 -0.02645200
v -0.00896066 -0.02821768 -0.01205140
v 0.00638711 -0.03585953 -0.00582519
v 0.01089823 -0.02357525 0.01269662
v -0.00943798 -0.01700956 -0.01931858
v 0.00365824 -0.02998948 -0.01848713
v 0.01489586 -0.03932393 -0.01153603
v 0.01595807 -0.03278219 0.00454041
v 0.00770390 -0.01065615 0.01837531
v 0.02161354 -0.01826424 0.01373988
v -0.01095974 -0.00673175 -0.02138975
v 0.00626969 -0.01109715 -0.02622744
v 0.01067662 -0.03422273 -0.02157930
v 0.00936580 -0.01949151 -0.02702099
v 0.02333128 -0.03886557 -0.00284943
v 0.02552265 -0.02731846 0.00780186
v 0.00522506 0.00234926 0.01840776
v 0.01833969 -0.00669611 0.01717442
v 0.03133452 -0.01521852 0.01434460
v -0.01223344 0.00320299 -0.02161431
v 0.00425702 -0.00240868 -0.02543572
v 0.01665503 -0.00462034 -0.02886933
v 0.01207584 -0.02464197 -0.02857146
v 0.01760584 -0.01061468 -0.03038293
v 0.00323087 0.01572496 0.01471505
v -0.00015634 0.02472587 0.00250238
v 0.01510435 0.00568106 0.01661679
v 0.02827996 -0.00327682 0.01633084
v -0.01282626 0.01435260 -0.01949349
v 0.00100911 0.00587871 -0.02457127
v 0.01553977 0.00255245 -0.02823320
v 0.02958733 -0.00135158 -0.02560341
v 0.01893246 -0.01506240 -0.03133470
v 0.02832061 -0.00635141 -0.02823892
v 0.01210314 0.01850987 0.01255280
v 0.00834417 0.02809426 0.00154942
v -0.00232488 0.02371571 -0.01243624
v 0.02472705 0.00923479 0.01497412
v -0.00168765 0.01566305 -0.02114877
v 0.01195908 0.01146290 -0.02834105
v 0.02848178 0.00627914 -0.02583042
v 0.02910006 -0.00942352 -0.02960926
v 0.02148765 0.02188409 0.01042718
v 0.00629264 0.02845725 -0.01301712
v 0.01836210 0.03189000 0.00016391
v 0.00775003 0.02157827 -0.02411926
v 0.02426362 0.01559150 -0.02862021
v 0.01731473 0.03362192 -0.01457393
v 0.01958692 0.02669048 -0.02596748
f 54 43 152
f 5 54 55
f 55 54 152
f 52 43 153
f 153 43 56
f 2 57 56
f 56 57 153
f 57 9 153
f 153 9 58
f 13 52 58
f 58 52 153
f 60 51 154
f 154 51 61
f 61 17 154
f 154 17 62
f 16 53 62
f 62 53 154
f 13 60 53
f 53 60 154
f 10 64 63
f 63 64 155
f 64 5 155
f 155 5 55
f 65 2 156
f 156 2 56
f 43 54 56
f 56 54 156
f 54 5 156
f 156 5 66
f 3 65 66
f 66 65 156
f 67 1 157
f 68 9 157
f 157 9 57
f 57 2 157
f 157 2 67
f 58 9 158
f 158 9 69
f 12 70 69
f 69 70 158
f 70 51 158
f 158 51 60
f 13 58 60
f 60 58 158
f 17 72 62
f 62 72 159
f 72 34 159
f 159 34 73
f 35 59 73
f 73 59 159
f 59 16 159
f 159 16 62
f 25 75 74
f 74 75 160
f 75 27 160
f 160 27 76
f 17 61 76
f 76 61 160
f 61 51 160
f 160 51 74
f 77 10 161
f 161 10 63
f 78 14 161
f 161 14 77
f 5 64 79
f 79 64 162
f 64 10 162
f 162 10 80
f 11 81 80
f 80 81 162
f 81 6 162
f 162 6 79
f 2 65 67
f 67 65 163
f 65 3 163
f 163 3 82
f 4 83 82
f 82 83 163
f 83 1 163
f 163 1 67
f 5 79 66
f 66 79 164
f 6 84 79
f 79 84 164
f 84 8 164
f 164 8 85
f 3 66 85
f 85 66 164
f 86 12 165
f 165 12 69
f 9 68 69
f 69 68 165
f 87 88 166
f 88 25 166
f 166 25 74
f 51 70 74
f 74 70 166
f 70 12 166
f 166 12 87
f 37 71 91
f 91 71 167
f 71 35 167
f 167 35 73
f 73 34 167
f 167 34 92
f 38 91 92
f 92 91 167
f 27 93 76
f 76 93 168
f 93 42 168
f 168 42 94
f 34 72 94
f 94 72 168
f 72 17 168
f 168 17 76
f 27 75 95
f 95 75 169
f 75 25 169
f 169 25 96
f 14 78 97
f 97 78 170
f 98 18 170
f 170 18 97
f 14 99 77
f 77 99 171
f 15 100 99
f 99 100 171
f 100 11 171
f 171 11 80
f 10 77 80
f 80 77 171
f 81 11 172
f 172 11 101
f 26 102 101
f 101 102 172
f 102 22 172
f 172 22 103
f 6 81 103
f 103 81 172
f 104 4 173
f 173 4 82
f 82 3 173
f 173 3 85
f 8 105 85
f 85 105 173
f 7 104 105
f 105 104 173
f 8 84 106
f 106 84 174
f 84 6 174
f 174 6 103
f 22 107 103
f 103 107 174
f 107 23 174
f 174 23 106
f 12 86 87
f 25 88 96
f 108 32 175
f 175 32 89
f 37 91 89
f 89 91 175
f 91 38 175
f 175 38 109
f 31 108 109
f 109 108 175
f 28 111 110
f 110 111 176
f 111 29 176
f 176 29 90
f 32 108 90
f 90 108 176
f 108 31 176
f 176 31 110
f 94 42 177
f 177 42 113
f 41 114 113
f 113 114 177
f 114 38 177
f 177 38 92
f 34 94 92
f 92 94 177
f 42 93 115
f 115 93 178
f 93 27 178
f 178 27 95
f 95 116 178
f 116 49 178
f 178 49 115
f 179 20 117
f 18 98 117
f 117 98 179
f 18 118 97
f 97 118 180
f 118 19 180
f 180 19 119
f 15 99 119
f 119 99 180
f 99 14 180
f 180 14 97
f 100 15 181
f 181 15 120
f 120 30 181
f 181 30 121
f 121 26 181
f 181 26 101
f 11 100 101
f 101 100 181
f 22 102 122
f 122 102 182
f 102 26 182
f 182 26 123
f 123 124 182
f 124 44 182
f 182 44 122
f 105 8 183
f 183 8 106
f 106 23 183
f 183 23 125
f 24 126 125
f 125 126 183
f 126 7 183
f 183 7 105
f 23 107 127
f 127 107 184
f 107 22 184
f 184 22 122
f 44 128 122
f 122 128 184
f 128 45 184
f 184 45 127
f 129 31 185
f 185 31 109
f 38 114 109
f 109 114 185
f 114 41 185
f 185 41 130
f 40 129 130
f 130 129 185
f 131 28 186
f 186 28 110
f 31 129 110
f 110 129 186
f 129 40 186
f 186 40 132
f 39 131 132
f 132 131 186
f 21 134 133
f 133 134 187
f 134 20 187
f 187 20 112
f 29 111 112
f 112 111 187
f 111 28 187
f 187 28 133
f 135 41 188
f 188 41 113
f 113 42 188
f 188 42 115
f 115 49 188
f 188 49 136
f 50 135 136
f 136 135 188
f 118 18 189
f 189 18 117
f 20 134 117
f 117 134 189
f 134 21 189
f 189 21 137
f 19 118 137
f 137 118 189
f 19 138 119
f 119 138 190
f 138 33 190
f 190 33 139
f 30 120 139
f 139 120 190
f 120 15 190
f 190 15 119
f 140 46 191
f 191 46 141
f 141 123 191
f 123 26 191
f 191 26 121
f 30 140 121
f 121 140 191
f 23 127 125
f 125 127 192
f 127 45 192
f 192 24 125
f 142 40 193
f 193 40 130
f 41 135 130
f 130 135 193
f 135 50 193
f 193 50 143
f 143 142 193
f 144 21 194
f 194 21 133
f 28 131 133
f 133 131 194
f 131 39 194
f 194 39 145
f 36 144 145
f 145 144 194
f 146 39 195
f 195 39 132
f 40 142 132
f 132 142 195
f 21 144 137
f 137 144 196
f 144 36 196
f 196 36 147
f 33 138 147
f 147 138 196
f 138 19 196
f 196 19 137
f 46 140 148
f 148 140 197
f 140 30 197
f 197 30 139
f 33 149 139
f 139 149 197
f 149 47 197
f 197 47 148
f 150 36 198
f 198 36 145
f 39 146 145
f 145 146 198
f 149 33 199
f 199 33 147
f 36 150 147
f 147 150 199
f 150 48 199
f 199 48 151
f 47 149 151
f 151 149 199

