# https://github.com/mikedh/trimesh
v -0.01497794 -0.02866238 -0.00355566
v -0.02154202 -0.03703766 -0.02109495
v -0.08425004 0.07799101 0.06446749
v -0.04859003 0.04947585 0.07811406
v -0.09127504 0.05979279 0.06198665
v -0.05052472 0.02878690 0.06158367
v -0.08866313 0.02830026 0.04552105
v -0.08171965 0.01418648 0.03607139
v -0.04715445 -0.01832764 0.00719693
v -0.05867630 -0.02505143 -0.00666982
v -0.10254883 0.00832575 0.02558839
v -0.11279463 0.02172517 0.04027534
v -0.11676735 0.06477769 0.05395812
v -0.10798554 0.08748641 0.05153963
v -0.05094915 0.03928267 0.07007128
v -0.09259867 0.04318998 0.05489531
v -0.11811810 0.04174675 0.05038667
v -0.06830117 0.12542633 0.03662586
v -0.07042810 0.09513419 0.06166774
v -0.09172985 0.10905632 0.04513356
v -0.06331514 0.01864435 0.04322025
v -0.06764116 0.02994004 0.05269346
v -0.06964379 0.04141327 0.06148282
v -0.06823701 0.05426481 0.06879267
v -0.06259442 0.06843220 0.07274133
v -0.05189612 0.08180385 0.07338724
v -0.03174490 -0.02439999 0.00106177
v -0.04076263 -0.03200638 -0.01467067
v -0.07271350 -0.03490220 -0.02470237
v -0.13744674 0.01014002 0.03162751
v -0.14160103 0.03581851 0.04484025
v -0.13933736 0.06592340 0.04308984
v -0.11617871 0.12010056 0.01738766
v -0.02909423 -0.04845966 -0.04259017
v -0.05155140 -0.04286581 -0.03462076
v -0.04184655 -0.07622912 -0.09128499
v -0.07318030 -0.06865359 -0.08098257
v -0.10185444 -0.05417134 -0.06986904
v -0.08771587 -0.08076181 -0.10855240
v -0.11699282 -0.05788854 -0.09599844
v -0.13237058 0.09448358 0.03330067
v -0.16322221 0.03329179 0.04097462
v -0.15857196 0.06746417 0.03723550
v -0.15629349 0.09607953 0.01572719
v -0.14858574 0.12392489 -0.02089381
v -0.03566222 -0.06165268 -0.06629956
v -0.06207111 -0.05556276 -0.05724058
v -0.08747822 -0.04538050 -0.04628024
v -0.16513029 0.00527124 0.02477431
v -0.12735843 -0.00385647 0.01089796
v -0.15969830 -0.00997337 -0.00306413
v -0.08816279 0.13973588 0.00413746
v -0.12979533 -0.05187199 -0.12377855
v -0.06070752 -0.01004865 0.01540023
v -0.07475038 -0.01556063 0.00278634
v -0.09232758 -0.02423216 -0.01399010
v -0.11395021 -0.03247844 -0.03671491
v -0.13543657 -0.03679975 -0.05836430
v -0.15131747 -0.03286981 -0.08030564
v -0.15561220 -0.02045305 -0.10192791
v -0.07242763 0.00120706 0.02549520
v -0.08948841 -0.00364091 0.01314569
v -0.11212685 -0.01258592 -0.00438911
v -0.14061268 -0.01982215 -0.02448440
v -0.16909594 -0.01956376 -0.03939649
v -0.18184284 -0.00977369 -0.05843878
v -0.17866999 0.00771290 -0.07905999
v -0.17242375 0.05199227 -0.11640590
v -0.05737240 0.00698826 0.03393644
v -0.02379816 -0.01713350 0.01484630
v -0.03684596 -0.01152164 0.01927462
v -0.04823322 -0.00360911 0.02589256
v -0.16458461 0.12293188 -0.06797269
v -0.17574844 0.09556662 -0.09693813
v -0.04733920 0.01918893 0.05348423
v -0.10932814 0.14699528 -0.04018253
v -0.06662518 0.16072228 -0.05336577
v -0.14476675 0.11328264 -0.13422444
v -0.12619760 0.14182796 -0.09061798
v -0.04922513 0.02387143 0.05749696
v -0.05113050 0.03391967 0.06578964
v -0.04501423 0.01483438 0.04949188
v -0.05467035 0.01942474 0.04796579
v -0.06570196 0.02433618 0.04800957
v -0.05843561 0.02972240 0.05670488
v -0.00650846 -0.02986781 -0.00533721
v -0.01211574 -0.02501234 0.00438172
v -0.05023505 0.04430657 0.07440495
v -0.06900362 0.03560284 0.05716985
v -0.05964697 0.04057051 0.06525218
v -0.04946836 0.00962560 0.03886652
v -0.06061989 0.01278359 0.03850126
v -0.08543922 0.02105990 0.04066023
v -0.07781750 0.02967585 0.04894340
v -0.07230623 0.01674107 0.03950533
v -0.01813752 -0.03260167 -0.01190421
v -0.01168713 -0.03877606 -0.02349305
v -0.02346853 -0.02678205 -0.00143954
v -0.02764494 -0.02098919 0.00808418
v -0.03049345 -0.01452555 0.01679972
v -0.06940922 0.04762684 0.06546161
v -0.05768058 0.05220778 0.07256112
v -0.08080367 0.04235213 0.05829802
v -0.09118593 0.03569901 0.05022115
v -0.04155770 0.00040246 0.03078827
v -0.05320301 0.00144880 0.02975452
v -0.06503667 0.00379592 0.03010184
v -0.07736997 0.00771353 0.03078175
v -0.09170878 0.01203083 0.03097019
v -0.10808188 0.01416020 0.03293753
v -0.10067447 0.02572894 0.04293802
v -0.01748608 -0.05019090 -0.04559842
v -0.02521762 -0.04245309 -0.03128281
v -0.03125580 -0.03478586 -0.01813382
v -0.03611150 -0.02784363 -0.00642553
v -0.03969537 -0.02158671 0.00393486
v -0.04204627 -0.01528805 0.01333192
v -0.04276371 -0.00796381 0.02234131
v -0.09265697 0.05125396 0.05898127
v -0.07959312 0.05678279 0.06564787
v -0.06600215 0.06124465 0.07123652
v -0.05236971 0.06443105 0.07708469
v -0.10535194 0.04318873 0.05240276
v -0.11620318 0.03111791 0.04624659
v -0.05467438 -0.00736813 0.02088541
v -0.06684400 -0.00483237 0.02030963
v -0.08027396 -0.00065893 0.02002716
v -0.09636006 0.00285829 0.01891130
v -0.11427240 0.00229116 0.01882035
v -0.13301464 0.00157765 0.02130952
v -0.12497431 0.01644548 0.03621325
v -0.06095794 0.08822737 0.06769964
v -0.06139688 0.10216634 0.05929431
v -0.05940624 0.11669522 0.04771006
v -0.05440485 0.13022865 0.03148034
v -0.05790975 0.07545117 0.07342225
v -0.02215942 -0.06284235 -0.06986102
v -0.03257323 -0.05480125 -0.05438846
v -0.04598568 -0.03713537 -0.02409756
v -0.04045218 -0.04594259 -0.03891942
v -0.04998067 -0.02881418 -0.01083824
v -0.05261190 -0.02126634 0.00063178
v -0.05412772 -0.01450037 0.01098299
v -0.11847645 0.05307590 0.05302063
v -0.10394045 0.06279669 0.05822650
v -0.08840641 0.06876942 0.06355152
v -0.07320761 0.07308133 0.06884953
v -0.14048849 0.02187094 0.03981459
v -0.13067052 0.03908161 0.04785737
v -0.06712322 -0.01228541 0.00948241
v -0.08222010 -0.00993990 0.00804418
v -0.10018095 -0.00792399 0.00520349
v -0.12047770 -0.00778269 0.00226560
v -0.14256922 -0.00860079 0.00292149
v -0.16401843 -0.00392233 0.01150653
v -0.15079871 0.00568351 0.02745655
v -0.07811124 0.08692331 0.06351063
v -0.08085710 0.10213618 0.05485550
v -0.08079049 0.11822526 0.04094231
v -0.07786801 0.13300561 0.02188411
v -0.07091204 0.14556749 -0.00170484
v -0.06018735 0.15564064 -0.02911708
v -0.03864974 -0.06878462 -0.07855397
v -0.04896627 -0.05915064 -0.06208962
v -0.05697292 -0.04908697 -0.04576632
v -0.06239593 -0.03923969 -0.02982998
v -0.06536384 -0.02968602 -0.01515344
v -0.06690931 -0.02063376 -0.00212809
v -0.12914399 0.06566413 0.04850209
v -0.14108572 0.05098993 0.04568216
v -0.11323811 0.07615317 0.05321577
v -0.09561703 0.08284658 0.05842456
v -0.16482321 0.01781690 0.03471318
v -0.15200034 0.03362112 0.04180408
v -0.08324398 -0.01970920 -0.00500226
v -0.10246602 -0.01837684 -0.00941581
v -0.12560805 -0.01685255 -0.01477429
v -0.15146840 -0.01462717 -0.01528740
v -0.17808885 -0.00907354 -0.00603503
v -0.10092913 0.09863227 0.04865921
v -0.10360033 0.13094772 0.01027364
v -0.10351285 0.11535972 0.03290835
v -0.08866766 0.15582172 -0.04706535
v -0.09895000 0.14470552 -0.01670960
v -0.04546661 -0.08374181 -0.10455376
v -0.05778680 -0.07355719 -0.08642349
v -0.06727588 -0.06206862 -0.06892547
v -0.07501752 -0.05094594 -0.05189174
v -0.08027991 -0.04021639 -0.03516531
v -0.08268124 -0.02983323 -0.01937351
v -0.13678337 0.08050035 0.03909788
v -0.12041816 0.09145925 0.04278031
v -0.16077829 0.05055142 0.04167217
v -0.14860531 0.06635203 0.03935629
v -0.10278689 -0.02864429 -0.02509093
v -0.12787244 -0.02593803 -0.03147349
v -0.15572006 -0.02086179 -0.03238615
v -0.18371067 -0.01238262 -0.02582672
v -0.12561028 0.10774565 0.02560285
v -0.13007343 0.12284011 -0.00054672
v -0.12855630 0.13645452 -0.03212827
v -0.11762779 0.14628709 -0.06524211
v -0.10374563 0.15019858 -0.10114959
v -0.06916170 -0.08801560 -0.11418244
v -0.08013204 -0.07516765 -0.09398448
v -0.08764909 -0.06204256 -0.07541144
v -0.09422869 -0.05014266 -0.05784667
v -0.10012938 -0.03910657 -0.04119739
v -0.15767303 0.08260600 0.02786580
v -0.14417418 0.09595322 0.02330205
v -0.12496931 -0.03531405 -0.04780987
v -0.15288718 -0.02799159 -0.05002642
v -0.17779249 -0.01596785 -0.04828095
v -0.15382629 0.10970616 0.00061962
v -0.14679191 0.13300003 -0.07901844
v -0.15702208 0.12730905 -0.04718220
v -0.13545975 0.13062266 -0.11403662
v -0.09534417 -0.08393635 -0.12476015
v -0.10327617 -0.07013427 -0.10243747
v -0.10940154 -0.05705296 -0.08242327
v -0.11746017 -0.04558461 -0.06450927
v -0.16994109 0.09579006 0.01481268
v -0.14468804 -0.03617013 -0.06907359
v -0.16794782 -0.02112442 -0.06912613
v -0.18152693 -0.00138156 -0.06903553
v -0.17148900 0.11631814 -0.01995143
v -0.17170707 0.11162322 -0.08445373
v -0.16185685 0.10354230 -0.11451232
v -0.18112614 0.11428791 -0.05682391
v -0.12394122 -0.05622062 -0.11002949
v -0.13338052 -0.04527989 -0.08910570
v -0.15469891 -0.02738828 -0.09123141
v -0.16693055 -0.00516952 -0.09093368
v -0.18819231 0.09016533 -0.08145034
v -0.17669095 0.07677073 -0.10678643
v -0.14213796 -0.03597534 -0.11356381
v -0.15439029 -0.01262741 -0.11312577
v -0.18771680 0.05992805 -0.09133190
v -0.05679741 0.02447434 0.05237433
v -0.05941465 0.03506331 0.06102094
v -0.05225400 0.01455123 0.04340944
v -0.07527057 0.02325925 0.04413784
v -0.00904303 -0.03414086 -0.01398095
v -0.01999162 -0.02324976 0.00607264
v -0.05905684 0.04625039 0.06919199
v -0.07967335 0.03587151 0.05383500
v -0.04585697 0.00492037 0.03450987
v -0.06898873 0.01017447 0.03487691
v -0.09657465 0.01847936 0.03705794
v -0.01453650 -0.04426520 -0.03398466
v -0.02722160 -0.03042590 -0.00937086
v -0.03504803 -0.01835344 0.01046833
v -0.08075051 0.04933095 0.06238165
v -0.05545941 0.05823999 0.07517838
v -0.10364762 0.03417647 0.04805657
v -0.06025011 -0.00219878 0.02541995
v -0.08627750 0.00571652 0.02529243
v -0.12005006 0.00823750 0.02751333
v -0.05298028 0.09447628 0.06616357
v -0.02001478 -0.05632746 -0.05769873
v -0.03572787 -0.04004727 -0.02796063
v -0.04461256 -0.02481364 -0.00309005
v -0.04857846 -0.01169271 0.01681370
v -0.10548644 0.05273795 0.05602381
v -0.07710371 0.06478990 0.06784245
v -0.12858460 0.02692029 0.04338053
v -0.07381986 -0.00678565 0.01464942
v -0.10782403 -0.00234710 0.01117867
v -0.14775092 -0.00319326 0.01550040
v -0.06776584 0.08103515 0.06869519
v -0.07074514 0.11024483 0.05153790
v -0.06241528 0.13839426 0.01644608
v -0.02413945 -0.06967732 -0.08226582
v -0.04487420 -0.05231653 -0.05040476
v -0.05588052 -0.03373885 -0.01980948
v -0.06010661 -0.01710426 0.00481457
v -0.13091305 0.05230220 0.04947361
v -0.10067346 0.07281619 0.05894947
v -0.15236299 0.01822861 0.03664142
v -0.09188814 -0.01394058 0.00007948
v -0.13500056 -0.01230841 -0.00713894
v -0.08898595 0.09280715 0.05679247
v -0.09176481 0.12531202 0.02740392
v -0.07981943 0.15204833 -0.02268320
v -0.05311255 -0.06619050 -0.07403672
v -0.06887680 -0.04512762 -0.04059324
v -0.07448186 -0.02497770 -0.01018897
v -0.12569183 0.07864702 0.04622915
v -0.15063417 0.05011602 0.04283234
v -0.11467840 -0.02260749 -0.02061477
v -0.16852481 -0.01461033 -0.02096364
v -0.11310988 0.10388339 0.03816000
v -0.11602842 0.13468114 -0.00969911
v -0.09573983 0.15509962 -0.07348084
v -0.06319805 -0.08104333 -0.09953660
v -0.08103668 -0.05661299 -0.06345695
v -0.09113254 -0.03460848 -0.02966183
v -0.14710066 0.08170471 0.03235161
v -0.14102663 -0.02785289 -0.04120523
v -0.13892578 0.10968681 0.01177377
v -0.13790514 0.13666716 -0.05612999
v -0.11191033 0.13927674 -0.12863019
v -0.07502819 -0.09269249 -0.13079938
v -0.09514500 -0.06681204 -0.08821887
v -0.10882198 -0.04285870 -0.05281639
v -0.16962900 0.08322618 0.02852196
v -0.16219080 -0.02595232 -0.05923504
v -0.17036648 0.10718925 -0.00136140
v -0.15565305 0.12070112 -0.09842551
v -0.17569633 0.11921688 -0.03892595
v -0.11105621 -0.07093488 -0.11783609
v -0.12596234 -0.04662918 -0.07652467
v -0.16858268 -0.01365742 -0.08072340
v -0.18572541 0.10400921 -0.07121685
v -0.16452679 0.08283963 -0.12903076
v -0.13844049 -0.04158738 -0.10156184
v -0.16418954 0.00342307 -0.10078287
v -0.18856083 0.07509878 -0.08818692
v -0.14289059 -0.02885549 -0.12583810
f 22 84 85
f 85 84 239
f 84 21 239
f 239 21 83
f 83 75 239
f 239 75 80
f 6 85 80
f 80 85 239
f 1 86 87
f 85 6 240
f 240 6 81
f 15 90 81
f 81 90 240
f 90 23 240
f 240 23 89
f 22 85 89
f 89 85 240
f 21 92 83
f 83 92 241
f 92 69 241
f 241 69 91
f 91 82 241
f 82 75 241
f 241 75 83
f 21 84 95
f 95 84 242
f 84 22 242
f 242 22 94
f 7 93 94
f 94 93 242
f 93 8 242
f 242 8 95
f 86 1 243
f 243 1 96
f 2 97 96
f 96 97 243
f 27 98 99
f 99 98 244
f 98 1 244
f 244 1 87
f 244 70 99
f 102 24 245
f 245 24 101
f 23 90 101
f 101 90 245
f 90 15 245
f 245 15 88
f 4 102 88
f 88 102 245
f 104 7 246
f 246 7 94
f 94 22 246
f 246 22 89
f 23 103 89
f 89 103 246
f 16 104 103
f 103 104 246
f 69 106 91
f 91 106 247
f 106 72 247
f 247 72 105
f 108 61 248
f 248 61 107
f 69 92 107
f 107 92 248
f 92 21 248
f 248 21 95
f 8 108 95
f 95 108 248
f 12 110 111
f 111 110 249
f 110 11 249
f 249 11 109
f 8 93 109
f 109 93 249
f 93 7 249
f 249 7 111
f 97 2 250
f 250 2 113
f 34 112 113
f 113 112 250
f 98 27 251
f 251 27 115
f 28 114 115
f 115 114 251
f 114 2 251
f 251 2 96
f 1 98 96
f 96 98 251
f 9 116 117
f 117 116 252
f 116 27 252
f 252 27 99
f 70 100 99
f 99 100 252
f 100 71 252
f 252 71 117
f 72 118 105
f 120 5 253
f 253 5 119
f 16 103 119
f 119 103 253
f 103 23 253
f 253 23 101
f 24 120 101
f 101 120 253
f 102 4 254
f 122 25 254
f 254 25 121
f 24 102 121
f 121 102 254
f 124 12 255
f 255 12 111
f 7 104 111
f 111 104 255
f 104 16 255
f 255 16 123
f 17 124 123
f 123 124 255
f 61 126 107
f 107 126 256
f 126 54 256
f 256 54 125
f 72 106 125
f 125 106 256
f 106 69 256
f 256 69 107
f 11 128 109
f 109 128 257
f 128 62 257
f 257 62 127
f 61 108 127
f 127 108 257
f 108 8 257
f 257 8 109
f 110 12 258
f 258 12 131
f 30 130 131
f 131 130 258
f 130 50 258
f 258 50 129
f 11 110 129
f 129 110 258
f 19 132 133
f 133 132 259
f 132 26 259
f 18 134 135
f 25 122 136
f 112 34 260
f 260 34 138
f 46 137 138
f 138 137 260
f 140 34 261
f 261 34 113
f 2 114 113
f 113 114 261
f 114 28 261
f 261 28 139
f 35 140 139
f 139 140 261
f 116 9 262
f 262 9 142
f 10 141 142
f 142 141 262
f 141 28 262
f 262 28 115
f 27 116 115
f 115 116 262
f 54 143 125
f 125 143 263
f 143 9 263
f 263 9 117
f 71 118 117
f 117 118 263
f 118 72 263
f 263 72 125
f 145 13 264
f 264 13 144
f 17 123 144
f 144 123 264
f 123 16 264
f 264 16 119
f 5 145 119
f 119 145 264
f 120 24 265
f 265 24 121
f 25 147 121
f 121 147 265
f 147 3 265
f 265 3 146
f 5 120 146
f 146 120 265
f 17 149 124
f 124 149 266
f 149 31 266
f 266 31 148
f 30 131 148
f 148 131 266
f 12 124 131
f 131 124 266
f 151 55 267
f 267 55 150
f 54 126 150
f 150 126 267
f 126 61 267
f 267 61 127
f 62 151 127
f 127 151 267
f 128 11 268
f 268 11 129
f 50 153 129
f 129 153 268
f 153 63 268
f 268 63 152
f 62 128 152
f 152 128 268
f 49 155 156
f 156 155 269
f 155 51 269
f 269 51 154
f 50 130 154
f 154 130 269
f 130 30 269
f 269 30 156
f 3 147 157
f 157 147 270
f 147 25 270
f 270 25 136
f 26 132 136
f 136 132 270
f 132 19 270
f 270 19 157
f 133 134 271
f 134 18 271
f 271 18 159
f 20 158 159
f 159 158 271
f 158 19 271
f 271 19 133
f 52 160 161
f 161 160 272
f 160 18 272
f 272 18 135
f 163 36 273
f 46 163 137
f 137 163 273
f 34 140 138
f 138 140 274
f 140 35 274
f 274 35 165
f 47 164 165
f 165 164 274
f 164 46 274
f 274 46 138
f 28 141 139
f 139 141 275
f 141 10 275
f 275 10 167
f 29 166 167
f 167 166 275
f 166 35 275
f 275 35 139
f 168 10 276
f 276 10 142
f 9 143 142
f 142 143 276
f 143 54 276
f 276 54 150
f 55 168 150
f 150 168 276
f 31 149 170
f 170 149 277
f 149 17 277
f 277 17 144
f 13 169 144
f 144 169 277
f 169 32 277
f 277 32 170
f 172 14 278
f 278 14 171
f 13 145 171
f 171 145 278
f 145 5 278
f 278 5 146
f 3 172 146
f 146 172 278
f 31 174 148
f 148 174 279
f 174 42 279
f 279 42 173
f 49 156 173
f 173 156 279
f 156 30 279
f 279 30 148
f 151 62 280
f 280 62 152
f 63 176 152
f 152 176 280
f 176 56 280
f 280 56 175
f 55 151 175
f 175 151 280
f 178 64 281
f 281 64 177
f 63 153 177
f 177 153 281
f 153 50 281
f 281 50 154
f 51 178 154
f 154 178 281
f 51 155 179
f 172 3 282
f 282 3 157
f 19 158 157
f 157 158 282
f 158 20 282
f 282 20 180
f 14 172 180
f 180 172 282
f 182 20 283
f 283 20 159
f 18 160 159
f 159 160 283
f 160 52 283
f 283 52 181
f 33 182 181
f 181 182 283
f 184 52 284
f 284 52 161
f 161 162 284
f 77 183 162
f 162 183 284
f 183 76 284
f 284 76 184
f 46 164 163
f 163 164 285
f 164 47 285
f 285 47 187
f 37 186 187
f 187 186 285
f 36 163 186
f 186 163 285
f 35 166 165
f 165 166 286
f 166 29 286
f 286 29 189
f 48 188 189
f 189 188 286
f 188 47 286
f 286 47 165
f 168 55 287
f 287 55 175
f 56 190 175
f 175 190 287
f 190 29 287
f 287 29 167
f 10 168 167
f 167 168 287
f 169 13 288
f 288 13 171
f 14 192 171
f 171 192 288
f 192 41 288
f 288 41 191
f 32 169 191
f 191 169 288
f 174 31 289
f 289 31 170
f 32 194 170
f 170 194 289
f 194 43 289
f 289 43 193
f 42 174 193
f 193 174 289
f 196 57 290
f 290 57 195
f 56 176 195
f 195 176 290
f 176 63 290
f 290 63 177
f 64 196 177
f 177 196 290
f 198 65 291
f 291 65 197
f 64 178 197
f 197 178 291
f 178 51 291
f 291 51 179
f 20 182 180
f 180 182 292
f 182 33 292
f 292 33 199
f 41 192 199
f 199 192 292
f 192 14 292
f 292 14 180
f 52 184 181
f 181 184 293
f 76 201 184
f 184 201 293
f 45 200 201
f 201 200 293
f 33 181 200
f 200 181 293
f 183 77 294
f 203 79 294
f 294 79 202
f 76 183 202
f 202 183 294
f 36 186 185
f 185 186 295
f 186 37 295
f 295 37 205
f 39 204 205
f 205 204 295
f 47 188 187
f 187 188 296
f 188 48 296
f 296 48 207
f 38 206 207
f 207 206 296
f 206 37 296
f 296 37 187
f 208 48 297
f 297 48 189
f 29 190 189
f 189 190 297
f 190 56 297
f 297 56 195
f 57 208 195
f 195 208 297
f 194 32 298
f 298 32 191
f 41 210 191
f 191 210 298
f 44 209 210
f 210 209 298
f 43 194 209
f 209 194 298
f 212 58 299
f 299 58 211
f 57 196 211
f 211 196 299
f 196 64 299
f 299 64 197
f 65 212 197
f 197 212 299
f 65 198 213
f 199 33 300
f 300 33 200
f 45 214 200
f 200 214 300
f 214 44 300
f 300 44 210
f 41 199 210
f 210 199 300
f 45 201 216
f 216 201 301
f 201 76 301
f 301 76 202
f 79 215 202
f 202 215 301
f 73 216 215
f 215 216 301
f 302 78 217
f 79 203 217
f 217 203 302
f 204 39 303
f 303 39 218
f 37 206 205
f 205 206 304
f 206 38 304
f 304 38 220
f 40 219 220
f 220 219 304
f 219 39 304
f 304 39 205
f 221 38 305
f 305 38 207
f 48 208 207
f 207 208 305
f 208 57 305
f 305 57 211
f 58 221 211
f 211 221 305
f 209 44 306
f 306 44 222
f 59 223 224
f 224 223 307
f 58 212 223
f 223 212 307
f 212 65 307
f 307 65 213
f 213 66 307
f 307 66 224
f 44 214 222
f 222 214 308
f 214 45 308
f 308 45 226
f 215 79 309
f 309 79 217
f 78 228 217
f 217 228 309
f 74 227 228
f 228 227 309
f 227 73 309
f 309 73 215
f 45 216 226
f 226 216 310
f 216 73 310
f 310 73 229
f 218 39 311
f 311 39 219
f 40 230 219
f 219 230 311
f 230 53 311
f 231 40 312
f 312 40 220
f 38 221 220
f 220 221 312
f 221 58 312
f 312 58 223
f 59 231 223
f 223 231 312
f 60 232 233
f 233 232 313
f 232 59 313
f 313 59 224
f 66 225 224
f 224 225 313
f 67 233 225
f 225 233 313
f 73 227 229
f 229 227 314
f 227 74 314
f 314 74 234
f 315 68 235
f 74 228 235
f 235 228 315
f 228 78 315
f 236 53 316
f 316 53 230
f 40 231 230
f 230 231 316
f 59 232 231
f 231 232 316
f 60 236 232
f 232 236 316
f 60 233 237
f 237 233 317
f 233 67 317
f 74 235 234
f 234 235 318
f 68 238 235
f 235 238 318
f 236 60 319
f 319 60 237

