# https://github.com/mikedh/trimesh
v -0.01554245 -0.03917058 -0.01964828
v -0.00791067 -0.03563062 -0.01477057
v -0.00888765 -0.02757607 -0.02462596
v -0.01313317 -0.03112770 -0.02734232
v -0.00086886 -0.02116508 -0.02192599
v -0.01213998 -0.01129754 -0.02896243
v -0.01658618 -0.02075959 -0.03134459
v -0.01423371 -0.01791824 -0.03046393
v -0.01501691 -0.03675390 -0.00356591
v 0.00163162 -0.00910729 -0.02368814
v -0.01093090 -0.00361506 -0.02784562
v -0.02398163 -0.03373568 0.00342479
v -0.00548357 -0.03199822 0.00553477
v 0.00394940 -0.00076900 -0.02315602
v -0.00843871 0.00468083 -0.02763015
v -0.00234544 -0.01867454 0.01730093
v -0.01492870 -0.01521098 0.01589018
v 0.00601327 0.00867377 -0.02182734
v -0.00423044 0.01384538 -0.02568683
v 0.00712770 0.01902092 -0.01726663
v -0.00190556 0.02322193 -0.01848581
v -0.02298021 -0.00504382 -0.02894011
v -0.02311468 -0.00992894 -0.03053117
v -0.02552754 -0.01287974 -0.03154984
v -0.02811593 -0.02136740 0.01143825
v -0.02263778 0.00086460 -0.02714762
v -0.02492517 -0.01083734 0.01591280
v -0.00255811 0.02708058 -0.00553498
v 0.00629538 0.02453128 -0.00476202
v -0.02036476 0.00894206 -0.02828464
v -0.00597614 0.02250920 0.00880212
v 0.00304389 0.02156253 0.01063368
v -0.01531696 0.01909839 -0.02794957
v -0.01169157 -0.00247255 0.01772532
v -0.00014311 -0.00475275 0.02020618
v -0.01189113 0.02850264 -0.02031520
v 0.00122428 0.00853188 0.01876238
v -0.00912523 0.01026324 0.01618165
v -0.01167971 0.03163914 -0.00628886
v -0.01481605 0.02597934 0.00710046
v -0.01826042 0.01396623 0.01431304
v -0.02136064 0.00141461 0.01653859
v 0.00133437 -0.03349890 -0.00982550
v -0.03398818 -0.00430934 -0.02489069
v -0.03205019 -0.00736975 -0.02798480
v -0.03260851 0.01238092 -0.02674747
v -0.02775997 0.02282609 -0.02873918
v -0.02398604 0.03265189 -0.02178887
v -0.03137821 0.00413766 0.01508680
v -0.02797604 0.01705810 0.01227203
v -0.01849610 -0.02568778 0.00988063
v -0.00126499 -0.03441407 -0.00233397
v -0.00398713 -0.02571095 0.01289976
v 0.00151366 -0.02874697 -0.01615584
v 0.00903398 -0.02260714 -0.01643714
v -0.00376707 -0.03424527 -0.01270884
v -0.01058871 -0.03741227 -0.00873563
v -0.01092619 -0.03459666 -0.00002190
v -0.00115931 -0.01164389 0.01978871
v -0.01297277 -0.02897110 0.00849485
v -0.01650333 -0.02077608 0.01300085
v -0.00909895 -0.01732174 0.01617703
v 0.01022607 -0.01159004 -0.02093297
v 0.00065237 -0.01442705 -0.02351671
v -0.00748837 -0.03200515 -0.02011079
v -0.00583649 -0.02461562 -0.02329355
v -0.01202792 -0.03742233 -0.01679137
v -0.01897198 -0.03963252 -0.00696161
v -0.01945984 -0.03582448 0.00075263
v -0.02108908 -0.03003689 0.00678706
v 0.00060719 0.00186085 0.01986143
v -0.01330441 -0.00882662 0.01747307
v -0.00633800 -0.00407060 0.01880354
v -0.02338463 -0.02303372 0.01076108
v -0.02648968 -0.01652472 0.01409471
v -0.02003312 -0.01276999 0.01605421
v 0.00274074 -0.00486594 -0.02336553
v 0.01169300 -0.00197400 -0.02159277
v -0.00748467 -0.01574584 -0.02654386
v -0.00535381 -0.00657254 -0.02592057
v -0.01152551 -0.00756995 -0.02830946
v -0.01080054 -0.02978760 -0.02558756
v -0.01363659 -0.03575967 -0.02389836
v -0.01301116 -0.01473747 -0.02960753
v -0.01096070 -0.02270649 -0.02818233
v -0.02751070 -0.03721727 -0.00012714
v -0.02790922 -0.03119007 0.00472414
v -0.02991223 -0.02564955 0.00866744
v 0.00189036 0.01558028 0.01605445
v 0.00484103 0.02426635 0.00335225
v -0.00429720 0.00894005 0.01732588
v -0.01035768 0.00374149 0.01739955
v -0.02323407 -0.00477440 0.01683795
v -0.01655561 -0.00049484 0.01699346
v -0.02983057 -0.00937198 0.01558602
v -0.03278607 -0.02021126 0.01195031
v 0.00510687 0.00367728 -0.02274376
v 0.01259959 0.00875493 -0.02101240
v -0.00269729 0.00162302 -0.02499798
v -0.01000649 0.00044726 -0.02740121
v -0.01626861 -0.00134374 -0.02813309
v -0.02297270 -0.00233273 -0.02776033
v -0.01702309 -0.00762768 -0.02964455
v -0.01423013 -0.02606271 -0.02983490
v -0.01474661 -0.01949671 -0.03040218
v -0.01836771 -0.01340420 -0.03114828
v -0.02283639 -0.00772018 -0.02976942
v -0.00165534 0.02140197 0.00959656
v -0.00774229 0.01676595 0.01358160
v -0.00405884 0.02617978 0.00196010
v 0.00168735 0.02537681 -0.00531614
v 0.00701779 0.02259398 -0.01196215
v -0.01977867 0.00755825 0.01576957
v -0.01367462 0.01210396 0.01519731
v -0.02642703 0.00295279 0.01581603
v -0.03315133 -0.00216457 0.01566291
v 0.00674558 0.01395453 -0.02019519
v 0.00054640 0.01059035 -0.02343836
v -0.00631118 0.00912689 -0.02710122
v -0.01410544 0.00675537 -0.02855182
v -0.02197838 0.00477927 -0.02743217
v -0.02895093 -0.00417008 -0.02698365
v -0.02948123 0.00206814 -0.02499568
v -0.03532493 -0.00142137 -0.02313542
v -0.02380192 -0.01153438 -0.03092289
v -0.02068257 -0.01639704 -0.03204557
v -0.02836472 -0.00810199 -0.02925831
v -0.03291065 -0.00607010 -0.02670228
v -0.01024216 0.02421859 0.00793141
v -0.01656306 0.02028756 0.01154378
v -0.00690103 0.02929893 -0.00583407
v -0.01305819 0.02999335 0.00101098
v -0.00185037 0.02600197 -0.01250842
v 0.00218207 0.02034327 -0.01754206
v -0.02311248 0.01569670 0.01334557
v -0.02960217 0.01051522 0.01411083
v -0.00267112 0.01881909 -0.02288952
v -0.00962907 0.01651738 -0.02708250
v -0.01790488 0.01365838 -0.02883238
v -0.02668756 0.01066533 -0.02753717
v -0.03474313 0.00786885 -0.02451086
v -0.01983476 0.02761986 0.00606599
v -0.02634764 0.02326674 0.00938156
v -0.00660276 0.02579270 -0.01936328
v -0.01122034 0.03107884 -0.01378322
v -0.01734596 0.03397316 -0.00708532
v -0.01323193 0.02427443 -0.02508849
v -0.03020716 0.01725852 -0.02854955
v -0.02173913 0.02123779 -0.02854243
v -0.01811469 0.03090509 -0.02112260
v -0.02555281 0.02833202 -0.02648410
v 0.00897986 -0.02821782 -0.01207989
v -0.00637102 -0.03586059 -0.00585788
v -0.01088446 -0.02357658 0.01266342
v 0.00945795 -0.01701005 -0.01934764
v -0.00364226 -0.02999079 -0.01852000
v -0.01487994 -0.03932461 -0.01156917
v -0.01594341 -0.03278374 0.00450680
v -0.00769156 -0.01065704 0.01834238
v -0.02160031 -0.01826705 0.01370600
v 0.01097971 -0.00673221 -0.02141887
v -0.00625575 -0.01109869 -0.02626079
v -0.01066154 -0.03422338 -0.02161288
v -0.00935239 -0.01949293 -0.02705467
v -0.02331477 -0.03886657 -0.00288209
v -0.02550894 -0.02732083 0.00776789
v -0.00521302 0.00234834 0.01837486
v -0.01832688 -0.00669888 0.01714078
v -0.03132087 -0.01522175 0.01431099
v 0.01225328 0.00320253 -0.02164343
v -0.00424290 -0.00241023 -0.02546868
v -0.01664197 -0.00462215 -0.02890262
v -0.01206166 -0.02464267 -0.02860510
v -0.01759255 -0.01061628 -0.03041652
v -0.00321907 0.01572408 0.01468223
v 0.00016910 0.02472489 0.00246981
v -0.01509202 0.00567834 0.01658359
v -0.02826655 -0.00328055 0.01629764
v 0.01284498 0.01435233 -0.01952311
v -0.00099444 0.00587731 -0.02460399
v -0.01552695 0.00255058 -0.02826628
v -0.02957469 -0.00135403 -0.02563667
v -0.01891917 -0.01506373 -0.03136823
v -0.02830797 -0.00635364 -0.02827239
v -0.01209116 0.01850724 0.01251978
v -0.00833219 0.02809190 0.00151682
v 0.00233907 0.02371457 -0.01246870
v -0.02471411 0.00923087 0.01494139
v 0.00170249 0.01566169 -0.02118108
v -0.01194638 0.01146119 -0.02837396
v -0.02846897 0.00627644 -0.02586329
v -0.02908754 -0.00942574 -0.02964267
v -0.02147537 0.02188018 0.01039469
v -0.00628042 0.02845533 -0.01304951
v -0.01835042 0.03188655 0.00013188
v -0.00773746 0.02157663 -0.02415198
v -0.02425092 0.01558903 -0.02865297
v -0.01730305 0.03361912 -0.01460588
v -0.01957476 0.02668816 -0.02599981
f 152 43 54
f 5 55 54
f 54 55 152
f 58 9 153
f 153 9 57
f 2 56 57
f 57 56 153
f 56 43 153
f 153 43 52
f 13 58 52
f 52 58 153
f 16 62 53
f 53 62 154
f 62 17 154
f 154 17 61
f 61 51 154
f 154 51 60
f 13 53 60
f 60 53 154
f 55 5 155
f 155 5 64
f 10 63 64
f 64 63 155
f 66 5 156
f 156 5 54
f 43 56 54
f 54 56 156
f 56 2 156
f 156 2 65
f 3 66 65
f 65 66 156
f 57 9 157
f 157 9 68
f 157 1 67
f 67 2 157
f 157 2 57
f 60 51 158
f 158 51 70
f 12 69 70
f 70 69 158
f 69 9 158
f 158 9 58
f 13 60 58
f 58 60 158
f 35 73 59
f 59 73 159
f 73 34 159
f 159 34 72
f 17 62 72
f 72 62 159
f 62 16 159
f 159 16 59
f 17 76 61
f 61 76 160
f 76 27 160
f 160 27 75
f 25 74 75
f 75 74 160
f 74 51 160
f 160 51 61
f 63 10 161
f 161 10 77
f 77 14 161
f 161 14 78
f 11 80 81
f 81 80 162
f 80 10 162
f 162 10 64
f 5 79 64
f 64 79 162
f 79 6 162
f 162 6 81
f 4 82 83
f 83 82 163
f 82 3 163
f 163 3 65
f 2 67 65
f 65 67 163
f 67 1 163
f 163 1 83
f 85 8 164
f 164 8 84
f 6 79 84
f 84 79 164
f 5 66 79
f 79 66 164
f 3 85 66
f 66 85 164
f 9 69 68
f 68 69 165
f 69 12 165
f 165 12 86
f 51 74 70
f 70 74 166
f 74 25 166
f 166 25 88
f 88 87 166
f 87 12 166
f 166 12 70
f 92 34 167
f 167 34 73
f 73 35 167
f 167 35 71
f 37 91 71
f 71 91 167
f 38 92 91
f 91 92 167
f 34 94 72
f 72 94 168
f 94 42 168
f 168 42 93
f 27 76 93
f 93 76 168
f 76 17 168
f 168 17 72
f 96 25 169
f 169 25 75
f 27 95 75
f 75 95 169
f 14 97 78
f 78 97 170
f 97 18 170
f 170 18 98
f 80 11 171
f 171 11 100
f 15 99 100
f 100 99 171
f 14 77 99
f 99 77 171
f 10 80 77
f 77 80 171
f 103 22 172
f 172 22 102
f 26 101 102
f 102 101 172
f 101 11 172
f 172 11 81
f 6 103 81
f 81 103 172
f 8 85 105
f 105 85 173
f 85 3 173
f 173 3 82
f 82 4 173
f 173 4 104
f 7 105 104
f 104 105 173
f 22 103 107
f 107 103 174
f 103 6 174
f 174 6 84
f 8 106 84
f 84 106 174
f 106 23 174
f 174 23 107
f 12 87 86
f 25 96 88
f 109 38 175
f 175 38 91
f 37 89 91
f 91 89 175
f 89 32 175
f 175 32 108
f 31 109 108
f 108 109 175
f 32 90 108
f 108 90 176
f 90 29 176
f 176 29 111
f 28 110 111
f 111 110 176
f 110 31 176
f 176 31 108
f 92 38 177
f 177 38 114
f 41 113 114
f 114 113 177
f 113 42 177
f 177 42 94
f 34 92 94
f 94 92 177
f 116 95 178
f 95 27 178
f 178 27 93
f 42 115 93
f 93 115 178
f 115 49 178
f 178 49 116
f 18 117 98
f 98 117 179
f 117 20 179
f 15 119 99
f 99 119 180
f 119 19 180
f 180 19 118
f 18 97 118
f 118 97 180
f 97 14 180
f 180 14 99
f 101 26 181
f 181 26 121
f 121 30 181
f 181 30 120
f 120 15 181
f 181 15 100
f 11 101 100
f 100 101 181
f 124 123 182
f 123 26 182
f 182 26 102
f 22 122 102
f 102 122 182
f 122 44 182
f 182 44 124
f 24 125 126
f 126 125 183
f 125 23 183
f 183 23 106
f 106 8 183
f 183 8 105
f 105 7 183
f 183 7 126
f 44 122 128
f 128 122 184
f 122 22 184
f 184 22 107
f 23 127 107
f 107 127 184
f 127 45 184
f 184 45 128
f 130 41 185
f 185 41 114
f 38 109 114
f 114 109 185
f 109 31 185
f 185 31 129
f 40 130 129
f 129 130 185
f 132 40 186
f 186 40 129
f 31 110 129
f 129 110 186
f 110 28 186
f 186 28 131
f 39 132 131
f 131 132 186
f 29 112 111
f 111 112 187
f 112 20 187
f 187 20 134
f 21 133 134
f 134 133 187
f 133 28 187
f 187 28 111
f 136 49 188
f 188 49 115
f 115 42 188
f 188 42 113
f 113 41 188
f 188 41 135
f 50 136 135
f 135 136 188
f 137 21 189
f 189 21 134
f 20 117 134
f 134 117 189
f 117 18 189
f 189 18 118
f 19 137 118
f 118 137 189
f 30 139 120
f 120 139 190
f 139 33 190
f 190 33 138
f 19 119 138
f 138 119 190
f 119 15 190
f 190 15 120
f 121 26 191
f 191 26 123
f 123 141 191
f 141 46 191
f 191 46 140
f 30 121 140
f 140 121 191
f 192 45 127
f 23 125 127
f 127 125 192
f 125 24 192
f 143 50 193
f 193 50 135
f 41 130 135
f 135 130 193
f 130 40 193
f 193 40 142
f 142 143 193
f 145 39 194
f 194 39 131
f 28 133 131
f 131 133 194
f 133 21 194
f 194 21 144
f 36 145 144
f 144 145 194
f 40 132 142
f 142 132 195
f 132 39 195
f 195 39 146
f 33 147 138
f 138 147 196
f 147 36 196
f 196 36 144
f 21 137 144
f 144 137 196
f 137 19 196
f 196 19 138
f 33 139 149
f 149 139 197
f 139 30 197
f 197 30 140
f 46 148 140
f 140 148 197
f 148 47 197
f 197 47 149
f 39 145 146
f 146 145 198
f 145 36 198
f 198 36 150
f 151 48 199
f 199 48 150
f 36 147 150
f 150 147 199
f 147 33 199
f 199 33 149
f 47 151 149
f 149 151 199

