# https://github.com/mikedh/trimesh
v -0.09038155 0.04187952 -0.04660508
v -0.17719550 0.00267170 -0.04820034
v -0.14020966 -0.00336551 -0.04979634
v -0.13385655 -0.04222638 -0.02315068
v -0.16945739 -0.03748728 -0.02680269
v -0.11867733 -0.02125573 0.03759730
v -0.15785594 -0.02403932 0.03072476
v -0.15628172 -0.00531219 0.03981277
v -0.11602472 0.00134758 0.04447421
v -0.13845910 0.02595237 -0.05003372
v -0.17792214 0.03043593 -0.04503372
v -0.13030548 0.05079472 -0.03116482
v -0.17260523 0.05154309 -0.02284765
v -0.11720063 0.04499685 0.02244177
v -0.15895016 0.03761137 0.02725253
v -0.05015771 -0.06093349 -0.00801840
v -0.06244957 -0.05027486 -0.03501314
v -0.05688362 -0.01212524 -0.06858143
v -0.09872000 0.01680742 -0.05852187
v -0.05565682 0.00998560 -0.07462260
v -0.10053162 -0.00953115 -0.05610505
v -0.09774806 -0.04708258 -0.02515137
v -0.09154774 -0.05051526 0.00206801
v -0.08516650 -0.04004635 0.02720004
v -0.07874098 -0.01885587 0.04384759
v -0.07439855 0.00945031 0.04693067
v -0.07789181 0.05211100 0.00890601
v -0.28598918 0.01378928 0.03408325
v -0.29283606 0.03181549 -0.02711126
v -0.25583251 0.00541207 -0.04088736
v -0.24400069 -0.02682113 -0.02682668
v -0.23606829 -0.03121017 0.02483746
v -0.23814656 -0.01680064 0.03679875
v -0.26161183 0.02994290 -0.03301555
v -0.25812067 0.04391858 -0.00761309
v -0.24934356 0.02180823 0.03160653
v -0.28398196 -0.02468249 0.03945309
v -0.28507899 -0.03698489 0.02542588
v -0.29446079 -0.02405935 -0.02107719
v -0.29556893 0.00435179 -0.03969797
v -0.21616890 0.00666658 -0.04437700
v -0.21945156 0.03181691 -0.03774312
v -0.21723397 0.04905266 -0.01455817
v -0.20422681 0.03130151 0.02977368
v -0.19708200 -0.01033236 0.03739229
v -0.19694825 -0.02783070 0.02721813
v -0.20657386 -0.03214346 -0.02920392
v -0.12828453 -0.04695911 0.00040674
v -0.16481234 -0.04481389 -0.00482485
v -0.20267190 -0.04237822 -0.00918174
v -0.24119033 -0.03587090 -0.01041675
v -0.29165094 -0.03160835 -0.00730562
v -0.12289836 -0.03810207 0.02144110
v -0.16075088 -0.03821791 0.01565236
v -0.19922455 -0.03958930 0.01119140
v -0.23777242 -0.03791279 0.00765657
v -0.28775232 -0.03786862 0.00770101
v -0.07412773 0.03539867 0.03383848
v -0.11530669 0.02497023 0.03892317
v -0.15639634 0.01672497 0.03910142
v -0.19963081 0.01054852 0.03848398
v -0.24346994 0.00225384 0.03891537
v -0.28465579 -0.00562420 0.04143131
v -0.08283211 0.05569803 -0.02183920
v -0.12228836 0.05596885 -0.00244659
v -0.16512014 0.05156400 0.00545722
v -0.21072812 0.04669577 0.01104206
v -0.25315021 0.03863963 0.01616812
v -0.28716950 0.03356599 0.01957425
v -0.28277405 0.03936852 -0.00198540
v -0.01362158 -0.02187982 0.04097450
v -0.00897133 0.01229256 0.03723538
v -0.00669286 0.04090792 0.01572707
v 0.00101489 0.06875328 -0.02089393
v -0.01552966 -0.04990036 0.02477419
v -0.01009767 -0.06514497 -0.00306424
v -0.04809560 -0.04483589 0.02877036
v -0.04095809 -0.01852387 0.04523709
v -0.03497817 0.01381524 0.04282814
v -0.03590834 0.04036345 0.02040333
v -0.04110828 0.05682856 -0.01148117
v -0.04720245 0.05432752 -0.04590940
v -0.29594581 -0.01341834 -0.03261039
v -0.24880983 -0.01261927 -0.03699479
v -0.21117719 -0.01390311 -0.04085109
v -0.17365606 -0.01918932 -0.04143000
v -0.13771756 -0.02470103 -0.04047370
v -0.09990479 -0.03005499 -0.04533574
v -0.05968031 -0.03235795 -0.05601996
v -0.05274786 0.03343567 -0.06747359
v -0.01949531 -0.07473537 -0.03939661
v -0.03224221 -0.06494530 -0.05843890
v -0.02906936 -0.04745871 -0.07906011
v -0.02322552 -0.02979266 -0.09706354
v -0.02282313 -0.00317933 -0.11640602
v -0.01498398 0.06776028 -0.06797281
v -0.02614781 0.04039501 -0.09693825
v -0.01441780 -0.05909394 0.01150641
v -0.00119808 -0.04948810 0.02745643
v -0.01522258 -0.03735471 0.03471306
v -0.00239971 -0.02155048 0.04180396
v -0.00186777 -0.06979878 -0.01528752
v -0.05089867 -0.05427182 0.01349086
v -0.03104731 -0.04777201 0.02565584
v -0.02848822 -0.06424515 -0.00603515
v -0.01117766 -0.00462019 0.04167205
v 0.00099532 0.01118043 0.03935617
v -0.04459296 -0.03307120 0.03918880
v -0.02569844 -0.02034149 0.04233769
v -0.00611943 -0.07603339 -0.03238627
v -0.03411004 -0.06755422 -0.02582684
v -0.06653550 -0.04210906 0.02874821
v -0.07257013 -0.05441181 -0.00137666
v -0.08838136 -0.04680292 0.01485863
v -0.00807241 0.02743439 0.02786568
v 0.00542645 0.04078161 0.02330193
v -0.03752895 -0.00239988 0.04647395
v -0.02000929 0.01322090 0.03853518
v -0.08174552 -0.03067890 0.03728893
v -0.05938889 -0.01815648 0.04557920
v -0.02819186 -0.07113945 -0.04828107
v -0.04590829 -0.05593373 -0.04661292
v -0.05971789 -0.05757267 -0.02245498
v -0.09503673 -0.05077382 -0.01160961
v -0.07947309 -0.04836897 -0.02902451
v -0.10384585 -0.03864084 0.02412507
v -0.10966666 -0.04857786 0.00130519
v -0.12553139 -0.04380609 0.01146251
v -0.00422566 0.05453456 0.00061950
v -0.00742145 0.07213744 -0.04718232
v -0.03467309 0.02835459 0.03350732
v -0.02034046 0.04061845 0.01481256
v -0.07629187 -0.00511542 0.04727390
v -0.05427319 0.01243631 0.04537946
v -0.09856288 -0.01992191 0.04082799
v -0.12059297 -0.03050886 0.03024402
v -0.01834719 -0.07629602 -0.06912625
v -0.03192630 -0.05655316 -0.06903565
v -0.04221544 -0.03739149 -0.06604752
v -0.06138453 -0.04191630 -0.04676148
v -0.11570372 -0.04500022 -0.02333060
v -0.13108237 -0.04641983 -0.01150408
v -0.07946198 -0.03118149 -0.05015773
v -0.09936829 -0.03968854 -0.03643000
v -0.14182760 -0.03789414 0.01842952
v -0.14634569 -0.04566276 -0.00209510
v -0.16272779 -0.04284347 0.00594684
v -0.03814128 0.05015011 0.00535446
v -0.02188838 0.06114653 -0.01995155
v -0.02210644 0.05645161 -0.08445385
v -0.04426560 0.05877313 -0.02829063
v -0.03152551 0.05911630 -0.05682403
v -0.07367557 0.02326077 0.04213968
v -0.05390404 0.03896851 0.02731979
v -0.11711772 -0.01039859 0.04259190
v -0.09524478 0.00566042 0.04632181
v -0.13846059 -0.02233217 0.03366348
v -0.15911846 -0.03175152 0.02387878
v -0.01732992 -0.06034112 -0.09093380
v -0.02533756 -0.03829044 -0.08861077
v -0.03624585 -0.01887838 -0.08278990
v -0.05802774 -0.02217458 -0.06302938
v -0.11869238 -0.02804483 -0.04288721
v -0.13612013 -0.03453519 -0.03312871
v -0.15140261 -0.03984227 -0.02483594
v -0.16712458 -0.04305369 -0.01613262
v -0.10017423 -0.02018520 -0.05178323
v -0.07891485 -0.01082754 -0.06198868
v -0.17988603 -0.03893045 0.01342174
v -0.18369178 -0.04392385 -0.00712857
v -0.20092113 -0.04239908 0.00130937
v -0.07576974 0.04511633 0.02304566
v -0.05927981 0.05466999 -0.00129402
v -0.05051886 0.04502975 -0.05867150
v -0.03859168 0.03499372 -0.08145046
v -0.02709033 0.02159913 -0.10678655
v -0.06408200 0.05429434 -0.03459015
v -0.08038473 0.05608648 -0.00554237
v -0.11547472 0.01333806 0.04324943
v -0.09479378 0.03050135 0.03680781
v -0.15691943 -0.01529887 0.03621456
v -0.13628824 -0.00208247 0.04178548
v -0.19782044 -0.03454414 0.01987815
v -0.17733367 -0.02583647 0.02884719
v -0.01252778 -0.04359143 -0.11104256
v -0.02297737 -0.01936771 -0.10567161
v -0.03811617 0.00475645 -0.09133202
v -0.05602434 -0.00142143 -0.07297742
v -0.11983852 -0.00717688 -0.05322191
v -0.13907434 -0.01451322 -0.04576507
v -0.15533473 -0.02214854 -0.04085928
v -0.17164905 -0.02908205 -0.03531554
v -0.18795617 -0.03510489 -0.02832866
v -0.20455040 -0.03879771 -0.01976284
v -0.07764584 0.01320468 -0.06574264
v -0.10035451 0.00268189 -0.05915296
v -0.21833564 -0.03917748 0.00942039
v -0.22160961 -0.03977530 -0.01020965
v -0.23935057 -0.03785211 -0.00150484
v -0.11582859 0.03576718 0.03186667
v -0.09724472 0.04887342 0.01683629
v -0.08629049 0.05056061 -0.03601071
v -0.07087429 0.03683272 -0.05715972
v -0.05457108 0.02173147 -0.07269108
v -0.10157464 0.05660425 -0.01180336
v -0.11943622 0.05192822 0.01101622
v -0.15606786 0.00551238 0.04091415
v -0.13567509 0.02058702 0.03900960
v -0.19674487 -0.01975760 0.03324816
v -0.17657550 -0.00785698 0.03841767
v -0.23650815 -0.03561662 0.01662305
v -0.21658917 -0.02930423 0.02597651
v -0.14033480 0.01031998 -0.05177492
v -0.11732708 0.02127645 -0.05501118
v -0.15841727 -0.00030987 -0.04939604
v -0.17552157 -0.00885003 -0.04563701
v -0.19229145 -0.01661752 -0.04148859
v -0.20879604 -0.02345442 -0.03626856
v -0.22492076 -0.02916405 -0.02875504
v -0.24238642 -0.03212137 -0.01915878
v -0.09492157 0.03042585 -0.05423367
v -0.26485683 -0.03305688 -0.00868627
v -0.28969650 -0.03505502 -0.00017348
v -0.26044725 -0.03775599 0.00686389
v -0.15722553 0.02770128 0.03451326
v -0.13762833 0.04123027 0.02503943
v -0.12601085 0.05590798 -0.01697046
v -0.10889237 0.04700329 -0.03954503
v -0.14316244 0.05388950 0.00172013
v -0.16156231 0.04580818 0.01749343
v -0.17774822 0.01366687 0.03883326
v -0.19810571 -0.00008104 0.03920156
v -0.23663865 -0.02487826 0.03181034
v -0.21780120 -0.01288743 0.03671023
v -0.28622572 -0.03880233 0.01648104
v -0.25817065 -0.03512735 0.02413520
v -0.15780522 0.02880484 -0.04816261
v -0.17813034 0.01582342 -0.04854393
v -0.13472708 0.04046643 -0.04278815
v -0.19635601 0.00487045 -0.04642037
v -0.21366312 -0.00408531 -0.04349518
v -0.22994061 -0.01239767 -0.03926107
v -0.24611904 -0.02006795 -0.03267989
v -0.26858191 -0.02616422 -0.02336416
v -0.29326274 -0.02788901 -0.01420799
v -0.20172812 0.02109072 0.03538278
v -0.18118273 0.03458545 0.02859539
v -0.16892482 0.05385889 -0.00818202
v -0.15090753 0.05178594 -0.02712804
v -0.18773706 0.04936026 0.00815010
v -0.20699377 0.04011190 0.02144152
v -0.22197230 0.00719298 0.03821912
v -0.24049346 -0.00749420 0.03918350
v -0.28431655 -0.03221988 0.03354514
v -0.25954877 -0.02266448 0.03757751
v -0.17583998 0.04345496 -0.03615865
v -0.19853355 0.03099580 -0.04156584
v -0.21832998 0.01894520 -0.04302347
v -0.23615886 0.00685605 -0.04250586
v -0.25219531 -0.00430531 -0.03997308
v -0.27217744 -0.01527941 -0.03474107
v -0.29536010 -0.01939296 -0.02724463
v -0.24656777 0.01208719 0.03627846
v -0.22735818 0.02728519 0.03052425
v -0.21425624 0.04997725 -0.00104877
v -0.19491895 0.05039171 -0.01934525
v -0.23305981 0.04324210 0.01365519
v -0.25151537 0.03108620 0.02501160
v -0.28408806 -0.01542921 0.04215115
v -0.26408739 -0.00395164 0.04022342
v -0.21917005 0.04273792 -0.02790076
v -0.24092294 0.03166209 -0.03504682
v -0.25945897 0.01704562 -0.03946874
v -0.27568279 0.00232985 -0.04044494
v -0.29594044 -0.00573533 -0.03709191
v -0.28546955 0.00410466 0.03832501
v -0.26899378 0.01514411 0.03224409
v -0.23875226 0.04689698 -0.01084569
v -0.25563206 0.04326421 0.00514179
v -0.28643195 0.02360165 0.02856335
v -0.27117883 0.03316107 0.01838878
v -0.26072700 0.03967147 -0.02101338
v -0.29462416 0.01731404 -0.03826740
v -0.27843650 0.02757298 -0.03069809
v -0.28252999 0.03781290 0.00887263
v -0.27273493 0.04067781 -0.00430056
v -0.28526084 0.03754208 -0.01390088
v -0.28916378 0.04006874 -0.00139257
v -0.29687019 0.03981012 -0.01336712
v 0.00184971 -0.05836486 0.01550028
v -0.00276236 -0.03694299 0.03664130
v -0.03196943 -0.05732888 0.01119518
v -0.00103354 -0.00505558 0.04283223
v -0.02875029 -0.03540483 0.03607544
v -0.01892418 -0.06978193 -0.02096376
v -0.07001972 -0.05029687 0.01461160
v 0.00249997 0.02653310 0.03235149
v -0.02236629 -0.00339440 0.04320070
v -0.06279676 -0.03137459 0.03939724
v -0.04281777 -0.06328719 -0.03556776
v -0.07665649 -0.05332550 -0.01580706
v -0.10672601 -0.04495275 0.01323166
v -0.02002837 0.02805457 0.02852184
v -0.05648687 -0.00310480 0.04772192
v -0.10108607 -0.03038617 0.03361601
v -0.01259017 -0.08112393 -0.05923516
v -0.04460584 -0.04668567 -0.05636743
v -0.11272933 -0.04868377 -0.01125413
v -0.08011854 -0.04075440 -0.04083684
v -0.14398219 -0.04309531 0.00872263
v -0.02076586 0.05201765 -0.00136152
v -0.02609570 0.06404528 -0.03892606
v -0.05325812 0.02685851 0.03844491
v -0.09654598 -0.00755583 0.04532743
v -0.13993575 -0.03072365 0.02676585
v -0.01898205 -0.06882902 -0.08072352
v -0.03839578 -0.02782860 -0.07525873
v -0.11797307 -0.03758853 -0.03387126
v -0.14887781 -0.04469907 -0.01366079
v -0.07878874 -0.02114304 -0.05702877
v -0.18173094 -0.04281233 0.00359815
v -0.05628741 0.04837014 0.01379234
v -0.03612478 0.04883761 -0.07121697
v -0.06191616 0.05717425 -0.01700330
v -0.09473620 0.01863377 0.04316336
v -0.13722904 -0.01273749 0.03892767
v -0.17833684 -0.03305618 0.02181256
v -0.01458891 -0.05174854 -0.10078299
v -0.03686218 -0.00842990 -0.08841962
v -0.11954333 -0.01802424 -0.04868707
v -0.15354033 -0.03188481 -0.03403381
v -0.18585058 -0.04129347 -0.01817250
v -0.07887067 0.00054986 -0.06531149
v -0.21986671 -0.04076744 -0.00031495
v -0.09561075 0.04071340 0.02780530
v -0.06726658 0.04685389 -0.04777390
v -0.03896020 0.01992717 -0.08818704
v -0.09916161 0.05442392 0.00297406
v -0.13577749 0.00919887 0.04186153
v -0.17671292 -0.01747742 0.03449962
v -0.21721478 -0.03519676 0.01825136
v -0.11950360 0.00592328 -0.05577210
v -0.15692760 -0.01187934 -0.04580176
v -0.19011314 -0.02643113 -0.03618595
v -0.22303979 -0.03560346 -0.02012277
v -0.07470410 0.02556371 -0.06290418
v -0.26254319 -0.03595914 -0.00118312
v -0.13616557 0.03144390 0.03337008
v -0.10499205 0.05414487 -0.02660990
v -0.14000882 0.04892150 0.01443797
v -0.17686467 0.00270023 0.03999811
v -0.21676908 -0.02180301 0.03228560
v -0.25885426 -0.03770768 0.01551390
v -0.15898336 0.01335170 -0.05079111
v -0.11336415 0.03583756 -0.04919791
v -0.19439675 -0.00637927 -0.04488662
v -0.22725980 -0.02117342 -0.03515196
v -0.26683550 -0.02990404 -0.01619208
v -0.17910267 0.02447394 0.03500342
v -0.14687772 0.05533951 -0.01237139
v -0.18395515 0.04311468 0.01949123
v -0.21956263 -0.00297532 0.03869942
v -0.25841768 -0.03006222 0.03184921
v -0.15478785 0.04267038 -0.03979504
v -0.19797619 0.01752041 -0.04575562
v -0.23298337 -0.00324880 -0.04169729
v -0.27038594 -0.02131724 -0.02966702
v -0.22464387 0.01732677 0.03553686
v -0.19154955 0.05217738 -0.00499767
v -0.22987442 0.03627179 0.02310368
v -0.26149805 -0.01364869 0.04049107
v -0.19743200 0.04286015 -0.03258684
v -0.23908053 0.01875588 -0.04100838
v -0.27388464 -0.00753554 -0.03845277
v -0.26685695 0.00576078 0.03722030
v -0.23611803 0.04707586 0.00217447
v -0.27052493 0.02458305 0.02634045
v -0.24075352 0.04193591 -0.02405217
v -0.27783637 0.01462680 -0.03860494
v -0.27124394 0.03923132 0.00790814
v -0.27576779 0.03714094 -0.01790768
v -0.28836371 0.03929845 0.00640315
v -0.28994991 0.03912317 -0.00980264
f 75 98 99
f 99 98 290
f 98 76 290
f 101 71 291
f 291 71 100
f 75 99 100
f 100 99 291
f 76 98 105
f 105 98 292
f 75 104 98
f 98 104 292
f 104 77 292
f 292 77 103
f 16 105 103
f 103 105 292
f 107 72 293
f 293 72 106
f 71 101 106
f 106 101 293
f 109 78 294
f 294 78 108
f 77 104 108
f 108 104 294
f 104 75 294
f 294 75 100
f 71 109 100
f 100 109 294
f 111 91 295
f 295 91 110
f 110 102 295
f 102 76 295
f 295 76 105
f 16 111 105
f 105 111 295
f 23 113 114
f 114 113 296
f 113 16 296
f 296 16 103
f 77 112 103
f 103 112 296
f 112 24 296
f 296 24 114
f 73 115 116
f 116 115 297
f 72 107 115
f 115 107 297
f 109 71 298
f 298 71 106
f 72 118 106
f 106 118 298
f 118 79 298
f 298 79 117
f 78 109 117
f 117 109 298
f 120 25 299
f 299 25 119
f 24 112 119
f 119 112 299
f 112 77 299
f 299 77 108
f 78 120 108
f 108 120 299
f 17 122 123
f 123 122 300
f 122 92 300
f 300 92 121
f 91 111 121
f 121 111 300
f 111 16 300
f 300 16 123
f 125 17 301
f 301 17 123
f 16 113 123
f 123 113 301
f 113 23 301
f 301 23 124
f 22 125 124
f 124 125 301
f 48 127 128
f 128 127 302
f 127 23 302
f 302 23 114
f 24 126 114
f 114 126 302
f 126 53 302
f 302 53 128
f 118 72 303
f 303 72 115
f 115 73 303
f 303 73 132
f 132 80 303
f 303 80 131
f 79 118 131
f 131 118 303
f 120 78 304
f 304 78 117
f 79 134 117
f 117 134 304
f 134 26 304
f 304 26 133
f 25 120 133
f 133 120 304
f 53 126 136
f 136 126 305
f 126 24 305
f 305 24 119
f 25 135 119
f 119 135 305
f 135 6 305
f 305 6 136
f 306 91 121
f 121 92 306
f 306 92 137
f 140 89 307
f 307 89 139
f 139 93 307
f 307 93 138
f 92 122 138
f 138 122 307
f 122 17 307
f 307 17 140
f 4 141 142
f 142 141 308
f 141 22 308
f 308 22 124
f 23 127 124
f 124 127 308
f 127 48 308
f 308 48 142
f 17 125 140
f 140 125 309
f 125 22 309
f 309 22 144
f 144 88 309
f 309 88 143
f 89 140 143
f 143 140 309
f 49 146 147
f 147 146 310
f 146 48 310
f 310 48 128
f 53 145 128
f 128 145 310
f 145 54 310
f 310 54 147
f 81 148 149
f 149 148 311
f 148 80 311
f 311 80 132
f 73 129 132
f 132 129 311
f 129 74 311
f 311 74 149
f 82 151 152
f 152 151 312
f 151 81 312
f 312 81 149
f 74 130 149
f 149 130 312
f 130 96 312
f 312 96 152
f 134 79 313
f 313 79 131
f 80 154 131
f 131 154 313
f 154 58 313
f 313 58 153
f 26 134 153
f 153 134 313
f 135 25 314
f 314 25 133
f 26 156 133
f 133 156 314
f 156 9 314
f 314 9 155
f 6 135 155
f 155 135 314
f 54 145 158
f 158 145 315
f 145 53 315
f 315 53 136
f 6 157 136
f 136 157 315
f 157 7 315
f 315 7 158
f 92 138 137
f 137 138 316
f 93 159 138
f 138 159 316
f 18 161 162
f 162 161 317
f 161 94 317
f 317 94 160
f 93 139 160
f 160 139 317
f 89 162 139
f 139 162 317
f 22 141 144
f 144 141 318
f 141 4 318
f 318 4 164
f 87 163 164
f 164 163 318
f 163 88 318
f 318 88 144
f 5 165 166
f 166 165 319
f 165 4 319
f 319 4 142
f 48 146 142
f 142 146 319
f 146 49 319
f 319 49 166
f 18 162 168
f 168 162 320
f 162 89 320
f 320 89 143
f 88 167 143
f 143 167 320
f 167 21 320
f 320 21 168
f 50 170 171
f 171 170 321
f 170 49 321
f 321 49 147
f 54 169 147
f 147 169 321
f 169 55 321
f 321 55 171
f 173 27 322
f 322 27 172
f 58 154 172
f 172 154 322
f 154 80 322
f 322 80 148
f 148 81 322
f 322 81 173
f 90 174 175
f 175 174 323
f 174 82 323
f 323 82 152
f 96 150 152
f 152 150 323
f 150 97 323
f 323 97 175
f 27 173 178
f 178 173 324
f 81 151 173
f 173 151 324
f 151 82 324
f 324 82 177
f 177 64 324
f 324 64 178
f 156 26 325
f 325 26 153
f 58 180 153
f 153 180 325
f 180 59 325
f 325 59 179
f 9 156 179
f 179 156 325
f 157 6 326
f 326 6 155
f 9 182 155
f 155 182 326
f 182 8 326
f 326 8 181
f 7 157 181
f 181 157 326
f 184 46 327
f 327 46 183
f 55 169 183
f 183 169 327
f 169 54 327
f 327 54 158
f 7 184 158
f 158 184 327
f 159 93 328
f 328 93 160
f 94 185 160
f 160 185 328
f 161 18 329
f 329 18 188
f 20 187 188
f 188 187 329
f 95 186 187
f 187 186 329
f 94 161 186
f 186 161 329
f 88 163 167
f 167 163 330
f 163 87 330
f 330 87 190
f 3 189 190
f 190 189 330
f 189 21 330
f 330 21 167
f 165 5 331
f 331 5 192
f 86 191 192
f 192 191 331
f 191 87 331
f 331 87 164
f 4 165 164
f 164 165 331
f 47 193 194
f 194 193 332
f 193 5 332
f 332 5 166
f 49 170 166
f 166 170 332
f 170 50 332
f 332 50 194
f 196 19 333
f 333 19 195
f 20 188 195
f 195 188 333
f 188 18 333
f 333 18 168
f 21 196 168
f 168 196 333
f 51 198 199
f 199 198 334
f 198 50 334
f 334 50 171
f 55 197 171
f 171 197 334
f 197 56 334
f 334 56 199
f 27 201 172
f 172 201 335
f 201 14 335
f 335 14 200
f 59 180 200
f 200 180 335
f 180 58 335
f 335 58 172
f 174 90 336
f 336 90 203
f 1 202 203
f 203 202 336
f 202 64 336
f 336 64 177
f 82 174 177
f 177 174 336
f 97 176 175
f 175 176 337
f 95 187 176
f 176 187 337
f 187 20 337
f 337 20 204
f 204 90 337
f 337 90 175
f 14 201 206
f 206 201 338
f 201 27 338
f 338 27 178
f 64 205 178
f 178 205 338
f 65 206 205
f 205 206 338
f 182 9 339
f 339 9 179
f 59 208 179
f 179 208 339
f 208 60 339
f 339 60 207
f 8 182 207
f 207 182 339
f 210 45 340
f 340 45 209
f 46 184 209
f 209 184 340
f 184 7 340
f 340 7 181
f 8 210 181
f 181 210 340
f 212 32 341
f 341 32 211
f 56 197 211
f 211 197 341
f 197 55 341
f 341 55 183
f 46 212 183
f 183 212 341
f 19 196 214
f 214 196 342
f 196 21 342
f 342 21 189
f 189 3 342
f 342 3 213
f 213 10 342
f 342 10 214
f 2 215 216
f 216 215 343
f 215 3 343
f 343 3 190
f 87 191 190
f 190 191 343
f 191 86 343
f 343 86 216
f 193 47 344
f 344 47 218
f 85 217 218
f 218 217 344
f 217 86 344
f 344 86 192
f 5 193 192
f 192 193 344
f 31 219 220
f 220 219 345
f 219 47 345
f 345 47 194
f 50 198 194
f 194 198 345
f 198 51 345
f 345 51 220
f 90 204 203
f 203 204 346
f 204 20 346
f 346 20 195
f 19 221 195
f 195 221 346
f 221 1 346
f 346 1 203
f 56 224 199
f 199 224 347
f 224 57 347
f 347 57 223
f 52 222 223
f 223 222 347
f 222 51 347
f 347 51 199
f 14 226 200
f 200 226 348
f 15 225 226
f 226 225 348
f 225 60 348
f 348 60 208
f 208 59 348
f 348 59 200
f 202 1 349
f 349 1 228
f 12 227 228
f 228 227 349
f 227 65 349
f 349 65 205
f 64 202 205
f 205 202 349
f 230 15 350
f 350 15 226
f 14 206 226
f 226 206 350
f 206 65 350
f 350 65 229
f 66 230 229
f 229 230 350
f 45 210 232
f 232 210 351
f 210 8 351
f 351 8 207
f 60 231 207
f 207 231 351
f 61 232 231
f 231 232 351
f 33 233 234
f 234 233 352
f 32 212 233
f 233 212 352
f 212 46 352
f 352 46 209
f 45 234 209
f 209 234 352
f 32 236 211
f 211 236 353
f 236 38 353
f 353 38 235
f 57 224 235
f 235 224 353
f 224 56 353
f 353 56 211
f 215 2 354
f 354 2 238
f 238 11 354
f 354 11 237
f 10 213 237
f 237 213 354
f 3 215 213
f 213 215 354
f 1 221 228
f 228 221 355
f 221 19 355
f 355 19 214
f 10 239 214
f 214 239 355
f 239 12 355
f 355 12 228
f 41 240 241
f 241 240 356
f 240 2 356
f 356 2 216
f 86 217 216
f 216 217 356
f 217 85 356
f 356 85 241
f 219 31 357
f 357 31 243
f 84 242 243
f 243 242 357
f 242 85 357
f 357 85 218
f 47 219 218
f 218 219 357
f 51 222 220
f 220 222 358
f 222 52 358
f 358 52 245
f 39 244 245
f 245 244 358
f 244 31 358
f 358 31 220
f 44 246 247
f 247 246 359
f 246 61 359
f 359 61 231
f 60 225 231
f 231 225 359
f 225 15 359
f 359 15 247
f 227 12 360
f 360 12 249
f 13 248 249
f 249 248 360
f 248 66 360
f 360 66 229
f 65 227 229
f 229 227 360
f 251 44 361
f 361 44 247
f 15 230 247
f 247 230 361
f 230 66 361
f 361 66 250
f 67 251 250
f 250 251 361
f 253 33 362
f 362 33 234
f 45 232 234
f 234 232 362
f 232 61 362
f 362 61 252
f 62 253 252
f 252 253 362
f 236 32 363
f 363 32 233
f 233 33 363
f 363 33 255
f 37 254 255
f 255 254 363
f 38 236 254
f 254 236 363
f 11 256 237
f 237 256 364
f 256 13 364
f 364 13 249
f 12 239 249
f 249 239 364
f 239 10 364
f 364 10 237
f 240 41 365
f 365 41 258
f 42 257 258
f 258 257 365
f 11 238 257
f 257 238 365
f 2 240 238
f 238 240 365
f 30 259 260
f 260 259 366
f 259 41 366
f 366 41 241
f 85 242 241
f 241 242 366
f 242 84 366
f 366 84 260
f 83 261 262
f 262 261 367
f 261 84 367
f 367 84 243
f 31 244 243
f 243 244 367
f 244 39 367
f 367 39 262
f 36 263 264
f 264 263 368
f 263 62 368
f 368 62 252
f 61 246 252
f 252 246 368
f 246 44 368
f 368 44 264
f 43 265 266
f 266 265 369
f 265 67 369
f 369 67 250
f 66 248 250
f 250 248 369
f 248 13 369
f 369 13 266
f 268 36 370
f 370 36 264
f 44 251 264
f 264 251 370
f 251 67 370
f 370 67 267
f 68 268 267
f 267 268 370
f 33 253 255
f 255 253 371
f 253 62 371
f 371 62 270
f 63 269 270
f 270 269 371
f 269 37 371
f 371 37 255
f 42 271 257
f 257 271 372
f 271 43 372
f 372 43 266
f 13 256 266
f 266 256 372
f 256 11 372
f 372 11 257
f 259 30 373
f 373 30 273
f 34 272 273
f 273 272 373
f 272 42 373
f 373 42 258
f 41 259 258
f 258 259 373
f 40 274 275
f 275 274 374
f 274 30 374
f 374 30 260
f 84 261 260
f 260 261 374
f 261 83 374
f 374 83 275
f 263 36 375
f 375 36 277
f 28 276 277
f 277 276 375
f 276 63 375
f 375 63 270
f 62 263 270
f 270 263 375
f 279 68 376
f 376 68 267
f 67 265 267
f 267 265 376
f 265 43 376
f 376 43 278
f 35 279 278
f 278 279 376
f 69 280 281
f 281 280 377
f 280 28 377
f 377 28 277
f 36 268 277
f 277 268 377
f 68 281 268
f 268 281 377
f 272 34 378
f 378 34 282
f 282 35 378
f 378 35 278
f 43 271 278
f 278 271 378
f 42 272 271
f 271 272 378
f 284 34 379
f 379 34 273
f 30 274 273
f 273 274 379
f 274 40 379
f 379 40 283
f 29 284 283
f 283 284 379
f 286 70 380
f 380 70 285
f 69 281 285
f 285 281 380
f 281 68 380
f 380 68 279
f 35 286 279
f 279 286 380
f 287 70 381
f 381 70 286
f 35 282 286
f 286 282 381
f 282 34 381
f 381 34 284
f 29 287 284
f 284 287 381
f 382 69 285
f 285 70 382
f 382 70 288
f 288 70 383
f 383 70 287
f 29 289 287
f 287 289 383

