# https://github.com/mikedh/trimesh
v -0.24947709 -0.02116508 -0.02192605
v -0.24697661 -0.00910729 -0.02368820
v -0.25409180 -0.03199822 0.00553471
v -0.24465883 -0.00076900 -0.02315608
v -0.25095367 -0.01867454 0.01730087
v -0.24259496 0.00867377 -0.02182740
v -0.24148053 0.01902092 -0.01726669
v -0.24231285 0.02453128 -0.00476208
v -0.24556434 0.02156253 0.01063362
v -0.24875134 -0.00475275 0.02020612
v -0.24738395 0.00853188 0.01876232
v -0.23401701 -0.02868632 0.01215744
v -0.23375171 -0.01711104 0.02125272
v -0.23289531 -0.00345351 0.02387577
v -0.23237830 0.01006493 0.02194497
v -0.23198885 0.02367211 0.01434934
v -0.22907615 0.02171261 -0.01550403
v -0.23055077 0.02739493 -0.00126567
v -0.22875261 0.01013689 -0.02075812
v -0.22899395 -0.00172908 -0.02093035
v -0.22960502 -0.01236054 -0.01872036
v -0.23078912 -0.02218122 -0.01252031
v -0.24727386 -0.03349890 -0.00982556
v -0.23225957 -0.03025250 -0.00223082
v -0.01196271 0.01378925 0.03408319
v -0.01880959 0.03181546 -0.02711132
v -0.00995550 -0.02468252 0.03945303
v -0.01105252 -0.03698492 0.02542582
v -0.02043432 -0.02405938 -0.02107725
v -0.02154246 0.00435176 -0.03969803
v -0.05634868 -0.01668115 0.04293856
v -0.05961227 -0.03281080 0.03030100
v -0.06738937 -0.02133913 -0.02064031
v -0.06689394 0.01168030 -0.03693679
v -0.06355453 0.03514118 -0.02883917
v -0.06061423 0.04588661 -0.00329754
v -0.05382541 0.02255567 0.03652161
v -0.10189682 -0.01262518 0.03975454
v -0.10350561 -0.02654390 0.02819586
v -0.10934800 -0.02068889 -0.01824903
v -0.11058068 0.01027404 -0.03378937
v -0.11013782 0.03210604 -0.02790767
v -0.10805178 0.04531209 -0.00589418
v -0.10209382 0.02526325 0.03491044
v -0.14464778 -0.00942061 0.03377959
v -0.14546531 -0.02144608 0.02448988
v -0.14914000 -0.01886171 -0.01407301
v -0.15040803 0.00731845 -0.02842307
v -0.15075994 0.02594220 -0.02528754
v -0.15046608 0.03982612 -0.00853744
v -0.14596856 0.02456903 0.02937180
v -0.01762447 -0.03160838 -0.00730568
v -0.06529927 -0.03126759 -0.00703251
v -0.10767049 -0.02945048 -0.00502303
v -0.14793545 -0.02574532 -0.00241965
v -0.01372585 -0.03786865 0.00770095
v -0.06253296 -0.03681393 0.01040143
v -0.10545582 -0.03206219 0.01161784
v -0.14662904 -0.02692077 0.01139578
v -0.18114293 -0.00634587 0.02958196
v -0.18186331 -0.01866095 0.02313468
v -0.18234944 -0.02546857 0.01175907
v -0.18306190 -0.02525293 -0.00094467
v -0.18356419 -0.01894581 -0.01171112
v -0.18433821 0.00412008 -0.02455726
v -0.18475962 0.01996406 -0.02372438
v -0.18487084 0.03377608 -0.01190588
v -0.18159616 0.02384795 0.02310860
v -0.01062933 -0.00562423 0.04143125
v -0.05425283 0.00296818 0.04346257
v -0.10115826 0.00609932 0.04199392
v -0.14471197 0.00698070 0.03630483
v -0.18085593 0.00847183 0.03020632
v -0.18372858 0.03508119 0.00724864
v -0.14851224 0.03812447 0.01344186
v -0.10477555 0.04028985 0.01802677
v -0.05619007 0.03871687 0.02106807
v -0.01314303 0.03356596 0.01957420
v -0.02265510 0.04127401 -0.00099632
v -0.00874758 0.03936849 -0.00198546
v -0.18413925 -0.00892395 -0.01949286
v -0.15004402 -0.00770828 -0.02294794
v -0.11033851 -0.00776470 -0.02823415
v -0.06806564 -0.00773883 -0.03118202
v -0.02191934 -0.01341837 -0.03261045
v -0.21052003 -0.00389247 0.02654344
v -0.20955938 0.01015758 0.02564895
v -0.20932674 0.02397658 0.01811171
v -0.21038461 0.03209227 0.00226650
v -0.21105623 0.02811849 -0.01407105
v -0.21104157 0.01546517 -0.02190244
v -0.21087420 0.00195993 -0.02189088
v -0.21089178 -0.00976182 -0.01803190
v -0.21147716 -0.01925366 -0.01092887
v -0.21204937 -0.02572942 -0.00056735
v -0.21201336 -0.02533222 0.01221931
v -0.21158642 -0.01662931 0.02211598
v 0.00916964 -0.03305691 -0.00868633
v -0.01567003 -0.03505505 -0.00017354
v 0.01357922 -0.03775602 0.00686383
v -0.01219925 -0.03880236 0.01648098
v 0.01585582 -0.03512738 0.02413514
v 0.00544456 -0.02616425 -0.02336422
v -0.01923627 -0.02788904 -0.01420805
v -0.04121491 -0.03672962 0.00921541
v -0.04383534 -0.03008583 -0.00739932
v -0.06390297 -0.03483464 0.00115216
v -0.01029009 -0.03221991 0.03354508
v 0.01447770 -0.02266451 0.03757745
v -0.06114173 -0.03642398 0.02048403
v -0.03799039 -0.03456405 0.02858672
v 0.00184903 -0.01527944 -0.03474113
v -0.02133363 -0.01939299 -0.02724469
v -0.04601160 -0.02063844 -0.02076870
v -0.06644869 -0.02675981 -0.01426655
v -0.08396733 -0.03479427 0.01122868
v -0.08654350 -0.03080718 -0.00629413
v -0.10655344 -0.03163128 0.00303456
v -0.01006159 -0.01542924 0.04215109
v 0.00993907 -0.00395167 0.04022336
v -0.05794466 -0.02588541 0.03821704
v -0.03428569 -0.01980261 0.04221210
v -0.10444319 -0.03036404 0.02020788
v -0.08154613 -0.02956366 0.02964020
v -0.00165632 0.00232982 -0.04044500
v -0.02191398 -0.00573536 -0.03709197
v -0.04635301 -0.00818934 -0.03158000
v -0.06798172 -0.01508506 -0.02628240
v -0.08840024 -0.02131822 -0.01994655
v -0.10860574 -0.02565736 -0.01215193
v -0.12654918 -0.02916198 0.01151696
v -0.12825072 -0.02747552 -0.00359023
v -0.14726293 -0.02714726 0.00441489
v -0.01144308 0.00410463 0.03832495
v 0.00503269 0.01514408 0.03224403
v -0.01240548 0.02360162 0.02856329
v 0.00284764 0.03316104 0.01838872
v -0.03156510 -0.00004718 0.04260397
v -0.05508450 -0.00679974 0.04448888
v -0.10264444 -0.02055134 0.03503743
v -0.07920569 -0.01448659 0.04197350
v -0.14603591 -0.02510690 0.01825342
v -0.12501466 -0.02372625 0.02620721
v -0.02059770 0.01731401 -0.03826746
v -0.00441003 0.02757295 -0.03069815
v -0.04385328 0.01056574 -0.03811502
v -0.06773931 0.00113927 -0.03496942
v -0.08929515 -0.00778256 -0.03030026
v -0.10995275 -0.01480151 -0.02359068
v -0.12972045 -0.01970786 -0.01603091
v -0.14855236 -0.02287396 -0.00858584
v -0.18267345 -0.02644971 0.00537917
v -0.16526520 -0.02583963 0.01148286
v -0.16620708 -0.02512832 -0.00161952
v -0.05376789 0.01273974 0.04070508
v -0.03037965 0.01986605 0.03580824
v -0.00850353 0.03781287 0.00887257
v -0.05460459 0.03157838 0.03008220
v -0.03159440 0.03758520 0.02189621
v -0.07790375 0.00493698 0.04329208
v -0.10136551 -0.00353382 0.04205653
v -0.14497769 -0.01609666 0.02978101
v -0.12388718 -0.01101982 0.03670090
v -0.18210638 -0.02296896 0.01784104
v -0.16438514 -0.01986029 0.02359435
v -0.01123437 0.03754205 -0.01390094
v -0.03886309 0.03542708 -0.02950135
v -0.06533462 0.02367454 -0.03550464
v -0.08900428 0.01137313 -0.03581664
v -0.11053157 0.00057645 -0.03184193
v -0.13078088 -0.00762746 -0.02544245
v -0.14961457 -0.01373951 -0.01887450
v -0.18332243 -0.02267457 -0.00667694
v -0.16708946 -0.01872782 -0.01272920
v -0.21208930 -0.02669477 0.00582057
v -0.19804716 -0.02556521 0.01215947
v -0.19841975 -0.02548203 -0.00061953
v -0.10136974 0.01583551 0.03971374
v -0.07832789 0.02429806 0.03627101
v -0.02002129 0.03956195 0.00998902
v -0.01513731 0.04006871 -0.00139263
v -0.10328770 0.03349015 0.02747700
v -0.08078647 0.03985688 0.01967141
v -0.05843389 0.04369468 0.00973657
v -0.03764147 0.04465146 -0.00187635
v -0.12363577 0.00657117 0.03948542
v -0.14454484 -0.00164709 0.03605458
v -0.18151700 -0.01297134 0.02709290
v -0.16366088 -0.00797879 0.03148323
v -0.21184850 -0.02182102 0.01785275
v -0.19758976 -0.01742484 0.02244130
v -0.02284372 0.03981009 -0.01336718
v -0.06219101 0.04331779 -0.01718891
v -0.08752179 0.03430974 -0.02861303
v -0.11046433 0.02125994 -0.03282723
v -0.13121378 0.00888433 -0.03105119
v -0.15026796 -0.00076019 -0.02628204
v -0.16796255 -0.00819308 -0.02096006
v -0.18386734 -0.01431213 -0.01595268
v -0.21183896 -0.02308847 -0.00620300
v -0.19839823 -0.01920775 -0.01110759
v -0.22323513 -0.02655484 0.01337776
v -0.22256488 -0.02780364 -0.00004241
v -0.23336130 -0.03114732 0.00498754
v -0.14516985 0.01600658 0.03412849
v -0.12481248 0.02507914 0.03249344
v -0.14713979 0.03202138 0.02224478
v -0.12750471 0.03954268 0.01604882
v -0.10646278 0.04482448 0.00691789
v -0.08456540 0.04628365 -0.00463274
v -0.16370106 0.00760671 0.03312349
v -0.18089390 0.00084029 0.03068545
v -0.21110028 -0.01050780 0.02503493
v -0.19669712 -0.00495920 0.02795714
v -0.23406923 -0.02353175 0.01776704
v -0.22333425 -0.01640159 0.02229878
v -0.10938704 0.04096978 -0.01842374
v -0.13134736 0.02928192 -0.02653119
v -0.15057409 0.01645662 -0.02837294
v -0.16831768 0.00568656 -0.02623719
v -0.18428576 -0.00280906 -0.02242431
v -0.19838846 -0.00945189 -0.01850221
v -0.21111310 -0.01475430 -0.01480785
v -0.22184449 -0.02065448 -0.01066485
v -0.23133206 -0.02677810 -0.00796181
v -0.24053401 -0.03226472 -0.00592649
v -0.24987322 -0.03441407 -0.00233403
v -0.24400920 -0.03074216 0.00929186
v -0.18107420 0.01636918 0.02782294
v -0.16495198 0.02409115 0.02610409
v -0.18260980 0.03028422 0.01611590
v -0.16731727 0.03652344 0.01011676
v -0.14969695 0.04107951 0.00272658
v -0.13014734 0.04307450 -0.00718430
v -0.20996660 0.00300754 0.02671066
v -0.19603866 0.00939693 0.02777368
v -0.23329568 -0.01035643 0.02326587
v -0.22254509 -0.00343021 0.02508676
v -0.25259537 -0.02571095 0.01289970
v -0.24291986 -0.01837127 0.01932058
v -0.15077430 0.03431072 -0.01835698
v -0.16876304 0.02275003 -0.02434143
v -0.18451113 0.01183055 -0.02524948
v -0.21082187 -0.00414672 -0.02034095
v -0.19849980 0.00287322 -0.02321145
v -0.22073382 -0.01141306 -0.01779664
v -0.23015654 -0.01745193 -0.01601651
v -0.24709457 -0.02874697 -0.01615590
v -0.23957425 -0.02260714 -0.01643720
v -0.25237530 -0.03424527 -0.01270890
v -0.25953442 -0.03459666 -0.00002196
v -0.20929790 0.01737732 0.02298045
v -0.19632339 0.02388116 0.02046943
v -0.20969713 0.02913602 0.01100990
v -0.19802445 0.03368631 0.00456059
v -0.18446422 0.03631353 -0.00266406
v -0.16875964 0.03654669 -0.01030770
v -0.22185403 0.01026079 0.02365059
v -0.23259401 0.00323955 0.02319613
v -0.24976754 -0.01164389 0.01978865
v -0.24152219 -0.00432681 0.02204987
v -0.26158100 -0.02897110 0.00849479
v -0.25770718 -0.01732174 0.01617697
v -0.18497127 0.02781502 -0.01924947
v -0.19888324 0.01757116 -0.02298018
v -0.21092391 0.00855560 -0.02259323
v -0.22055292 -0.00016108 -0.02107579
v -0.22923082 -0.00709163 -0.02004078
v -0.23838216 -0.01159004 -0.02093303
v -0.24795586 -0.01442705 -0.02351677
v -0.23223019 0.01729636 0.01953471
v -0.22121960 0.02385418 0.01631820
v -0.23122156 0.02686235 0.00694773
v -0.22124678 0.02963678 0.00041139
v -0.21086538 0.03166974 -0.00661200
v -0.19893342 0.03099355 -0.01334000
v -0.24800104 0.00186085 0.01986137
v -0.24064451 0.00899969 0.02029952
v -0.25494623 -0.00407060 0.01880348
v -0.21105510 0.02217143 -0.01902282
v -0.22069454 0.01248523 -0.02106661
v -0.22879511 0.00407321 -0.02122664
v -0.24586749 -0.00486594 -0.02336559
v -0.23691523 -0.00197400 -0.02159283
v -0.24016637 0.02255878 0.01236111
v -0.24671787 0.01558028 0.01605439
v -0.24376720 0.02426635 0.00335220
v -0.23703027 0.02530529 -0.00338772
v -0.22953242 0.02564080 -0.00942624
v -0.22102708 0.02470933 -0.01459461
v -0.25290543 0.00894005 0.01732582
v -0.22884190 0.01615541 -0.01896259
v -0.24350137 0.00367728 -0.02274382
v -0.23600864 0.00875493 -0.02101246
v -0.25026357 0.02140197 0.00959650
v -0.24692088 0.02537681 -0.00531620
v -0.24159044 0.02259398 -0.01196221
v -0.23581946 0.01962986 -0.01653579
v -0.24186265 0.01395453 -0.02019525
v -0.24642617 0.02034327 -0.01754212
v 0.01148328 -0.03595917 -0.00118318
v 0.01517221 -0.03770771 0.01551384
v 0.00719097 -0.02990407 -0.01619214
v -0.04254031 -0.03398038 0.00038433
v 0.01560879 -0.03006225 0.03184915
v -0.03969017 -0.03731959 0.01892978
v 0.00364053 -0.02131726 -0.02966708
v -0.04505071 -0.02566378 -0.01439965
v -0.08527184 -0.03369276 0.00204697
v 0.01252842 -0.01364871 0.04049101
v -0.03610665 -0.02857583 0.03689241
v -0.08278394 -0.03342414 0.02069253
v 0.00014183 -0.00753557 -0.03845283
v -0.04648870 -0.01491647 -0.02648872
v -0.08757138 -0.02659777 -0.01358724
v -0.12740105 -0.02915647 0.00382757
v 0.00716951 0.00576075 0.03722024
v 0.00350153 0.02458302 0.02634040
v -0.03269309 -0.00987866 0.04379010
v -0.08030987 -0.02306570 0.03710473
v -0.12574267 -0.02740798 0.01913860
v -0.00380990 0.01462677 -0.03860500
v -0.04558814 0.00011377 -0.03578281
v -0.08899403 -0.01507027 -0.02547613
v -0.12903965 -0.02415079 -0.01023304
v -0.16568196 -0.02633805 0.00483775
v -0.03081837 0.00969080 0.03973210
v -0.03046203 0.02960656 0.03021133
v -0.07835162 -0.00486905 0.04393646
v -0.12437153 -0.01817719 0.03223494
v -0.16482460 -0.02366483 0.01788354
v -0.04124010 0.02302771 -0.03676158
v -0.08928710 0.00103313 -0.03403366
v -0.13031125 -0.01417594 -0.02104503
v -0.16668606 -0.02251255 -0.00746280
v -0.19821000 -0.02654216 0.00572190
v -0.07786775 0.01475868 0.04089707
v -0.01433724 0.03929842 0.00640309
v -0.07931328 0.03282189 0.02912268
v -0.03492230 0.04240754 0.01094091
v -0.12361813 -0.00263148 0.03920567
v -0.16398722 -0.01451640 0.02824023
v -0.19786137 -0.02220864 0.01779276
v -0.01592344 0.03912314 -0.00980270
v -0.03858110 0.04312466 -0.01609534
v -0.08842647 0.02303395 -0.03443694
v -0.13106215 -0.00001268 -0.02894759
v -0.16749376 -0.01385547 -0.01721975
v -0.19842738 -0.02288305 -0.00626263
v -0.22289020 -0.02852089 0.00678554
v -0.12400568 0.01602610 0.03729233
v -0.12602997 0.03303362 0.02521846
v -0.08264589 0.04479672 0.00837031
v -0.16357589 -0.00054217 0.03317460
v -0.19717127 -0.01154363 0.02587238
v -0.22342980 -0.02214230 0.01855460
v -0.08622503 0.04279519 -0.01799640
v -0.13131469 0.01901809 -0.03057820
v -0.16822332 -0.00173191 -0.02403989
v -0.19840795 -0.01469358 -0.01515388
v -0.22230405 -0.02481695 -0.00594380
v -0.24260718 -0.03306304 0.00161263
v -0.16409034 0.01605258 0.03077865
v -0.16611636 0.03113547 0.01912284
v -0.12897646 0.04336462 0.00505006
v -0.19628680 0.00207081 0.02859360
v -0.22297990 -0.01000980 0.02439904
v -0.24380302 -0.02518620 0.01542786
v -0.13095993 0.03789330 -0.01825717
v -0.16847074 0.01404102 -0.02660549
v -0.19840044 -0.00361309 -0.02123591
v -0.22123700 -0.01632424 -0.01456371
v -0.23962837 -0.02821782 -0.01207995
v -0.25497925 -0.03586059 -0.00585794
v -0.19605005 0.01687495 0.02517697
v -0.19707215 0.02973130 0.01341462
v -0.16825002 0.03863712 -0.00024286
v -0.22215641 0.00328712 0.02478904
v -0.24212128 -0.01131938 0.02155563
v -0.25949270 -0.02357658 0.01266336
v -0.16894150 0.03078911 -0.01868278
v -0.19866902 0.01001376 -0.02399641
v -0.22054696 -0.00589164 -0.01983461
v -0.23915029 -0.01701005 -0.01934770
v -0.22154355 0.01745366 0.02120706
v -0.22115886 0.02801605 0.00891790
v -0.19864637 0.03417852 -0.00492796
v -0.24105448 0.00233396 0.02161577
v -0.25629979 -0.01065704 0.01834232
v -0.19899857 0.02489423 -0.01939964
v -0.22059691 0.00602666 -0.02171147
v -0.23762852 -0.00673221 -0.02141893
v -0.24041814 0.01619983 0.01782531
v -0.23827857 0.02522478 0.00490341
v -0.22122431 0.02857348 -0.00759584
v -0.25382125 0.00234834 0.01837480
v -0.22081888 0.01889611 -0.01879406
v -0.23635495 0.00320253 -0.02164349
v -0.25182730 0.01572408 0.01468217
v -0.24843913 0.02472489 0.00246975
v -0.23619866 0.02344628 -0.01102838
v -0.23576325 0.01435233 -0.01952317
v -0.24626917 0.02371457 -0.01246876
f 100 56 301
f 301 56 99
f 52 98 99
f 99 98 301
f 102 28 302
f 302 28 101
f 56 100 101
f 101 100 302
f 98 52 303
f 303 52 104
f 29 103 104
f 104 103 303
f 53 106 107
f 107 106 304
f 106 52 304
f 304 52 99
f 56 105 99
f 99 105 304
f 105 57 304
f 304 57 107
f 27 108 109
f 109 108 305
f 28 102 108
f 108 102 305
f 111 32 306
f 306 32 110
f 57 105 110
f 110 105 306
f 105 56 306
f 306 56 101
f 28 111 101
f 101 111 306
f 85 112 113
f 113 112 307
f 103 29 307
f 307 29 113
f 33 114 115
f 115 114 308
f 114 29 308
f 308 29 104
f 52 106 104
f 104 106 308
f 106 53 308
f 308 53 115
f 54 117 118
f 118 117 309
f 117 53 309
f 309 53 107
f 57 116 107
f 107 116 309
f 116 58 309
f 309 58 118
f 69 119 120
f 120 119 310
f 119 27 310
f 310 27 109
f 122 31 311
f 311 31 121
f 32 111 121
f 121 111 311
f 111 28 311
f 311 28 108
f 27 122 108
f 108 122 311
f 124 39 312
f 312 39 123
f 58 116 123
f 123 116 312
f 116 57 312
f 312 57 110
f 32 124 110
f 110 124 312
f 30 125 126
f 126 125 313
f 112 85 313
f 313 85 126
f 114 33 314
f 314 33 128
f 128 84 314
f 314 84 127
f 127 85 314
f 314 85 113
f 29 114 113
f 113 114 314
f 40 129 130
f 130 129 315
f 129 33 315
f 315 33 115
f 53 117 115
f 115 117 315
f 117 54 315
f 315 54 130
f 55 132 133
f 133 132 316
f 132 54 316
f 316 54 118
f 58 131 118
f 118 131 316
f 131 59 316
f 316 59 133
f 25 134 135
f 135 134 317
f 134 69 317
f 317 69 120
f 78 136 137
f 137 136 318
f 136 25 318
f 318 25 135
f 31 122 139
f 139 122 319
f 27 119 122
f 122 119 319
f 119 69 319
f 319 69 138
f 70 139 138
f 138 139 319
f 141 38 320
f 320 38 140
f 39 124 140
f 140 124 320
f 124 32 320
f 320 32 121
f 31 141 121
f 121 141 320
f 143 46 321
f 321 46 142
f 59 131 142
f 142 131 321
f 131 58 321
f 321 58 123
f 39 143 123
f 123 143 321
f 125 30 322
f 322 30 144
f 26 145 144
f 144 145 322
f 147 34 323
f 323 34 146
f 30 126 146
f 146 126 323
f 126 85 323
f 323 85 127
f 84 147 127
f 127 147 323
f 40 149 129
f 129 149 324
f 149 83 324
f 324 83 148
f 84 128 148
f 148 128 324
f 33 129 128
f 128 129 324
f 47 150 151
f 151 150 325
f 150 40 325
f 325 40 130
f 54 132 130
f 130 132 325
f 132 55 325
f 325 55 151
f 154 55 326
f 326 55 133
f 59 153 133
f 133 153 326
f 153 62 326
f 326 62 152
f 63 154 152
f 152 154 326
f 37 155 156
f 156 155 327
f 155 70 327
f 327 70 138
f 69 134 138
f 138 134 327
f 134 25 327
f 327 25 156
f 78 137 157
f 136 78 328
f 328 78 159
f 77 158 159
f 159 158 328
f 158 37 328
f 328 37 156
f 25 136 156
f 156 136 328
f 38 141 161
f 161 141 329
f 141 31 329
f 329 31 139
f 139 70 329
f 329 70 160
f 71 161 160
f 160 161 329
f 163 45 330
f 330 45 162
f 46 143 162
f 162 143 330
f 143 39 330
f 330 39 140
f 38 163 140
f 140 163 330
f 165 61 331
f 331 61 164
f 62 153 164
f 164 153 331
f 153 59 331
f 331 59 142
f 46 165 142
f 142 165 331
f 26 166 145
f 34 168 146
f 146 168 332
f 168 35 332
f 332 35 167
f 26 144 167
f 167 144 332
f 144 30 332
f 332 30 146
f 170 41 333
f 333 41 169
f 34 147 169
f 169 147 333
f 147 84 333
f 333 84 148
f 83 170 148
f 148 170 333
f 47 172 150
f 150 172 334
f 172 82 334
f 334 82 171
f 83 149 171
f 171 149 334
f 149 40 334
f 334 40 150
f 174 47 335
f 335 47 151
f 55 154 151
f 151 154 335
f 154 63 335
f 335 63 173
f 173 64 335
f 335 64 174
f 177 63 336
f 336 63 152
f 62 176 152
f 152 176 336
f 176 96 336
f 336 96 175
f 95 177 175
f 175 177 336
f 44 178 179
f 179 178 337
f 178 71 337
f 337 71 160
f 70 155 160
f 160 155 337
f 155 37 337
f 337 37 179
f 181 79 338
f 338 79 180
f 180 78 338
f 338 78 157
f 157 80 338
f 338 80 181
f 158 77 339
f 339 77 183
f 76 182 183
f 183 182 339
f 182 44 339
f 339 44 179
f 37 158 179
f 179 158 339
f 36 184 185
f 185 184 340
f 184 77 340
f 340 77 159
f 78 180 159
f 159 180 340
f 180 79 340
f 340 79 185
f 45 163 187
f 187 163 341
f 163 38 341
f 341 38 161
f 161 71 341
f 341 71 186
f 72 187 186
f 186 187 341
f 189 60 342
f 342 60 188
f 61 165 188
f 188 165 342
f 165 46 342
f 342 46 162
f 45 189 162
f 162 189 342
f 191 97 343
f 343 97 190
f 96 176 190
f 190 176 343
f 176 62 343
f 343 62 164
f 61 191 164
f 164 191 343
f 192 79 344
f 344 79 181
f 181 80 344
f 344 80 166
f 26 192 166
f 166 192 344
f 35 193 167
f 167 193 345
f 193 36 345
f 345 36 185
f 79 192 185
f 185 192 345
f 26 167 192
f 192 167 345
f 41 195 169
f 169 195 346
f 195 42 346
f 346 42 194
f 35 168 194
f 194 168 346
f 168 34 346
f 346 34 169
f 197 48 347
f 347 48 196
f 41 170 196
f 196 170 347
f 170 83 347
f 347 83 171
f 82 197 171
f 171 197 347
f 174 64 348
f 348 64 199
f 81 198 199
f 199 198 348
f 82 172 198
f 198 172 348
f 172 47 348
f 348 47 174
f 201 64 349
f 349 64 173
f 63 177 173
f 173 177 349
f 177 95 349
f 349 95 200
f 200 94 349
f 349 94 201
f 24 203 204
f 204 203 350
f 203 95 350
f 350 95 175
f 96 202 175
f 175 202 350
f 202 12 350
f 350 12 204
f 51 205 206
f 206 205 351
f 205 72 351
f 351 72 186
f 71 178 186
f 186 178 351
f 178 44 351
f 351 44 206
f 182 76 352
f 352 76 208
f 75 207 208
f 208 207 352
f 207 51 352
f 352 51 206
f 44 182 206
f 206 182 352
f 43 209 210
f 210 209 353
f 209 76 353
f 353 76 183
f 77 184 183
f 183 184 353
f 184 36 353
f 353 36 210
f 60 189 212
f 212 189 354
f 189 45 354
f 354 45 187
f 72 211 187
f 187 211 354
f 211 73 354
f 354 73 212
f 214 86 355
f 355 86 213
f 97 191 213
f 213 191 355
f 191 61 355
f 355 61 188
f 60 214 188
f 188 214 355
f 216 13 356
f 356 13 215
f 12 202 215
f 215 202 356
f 202 96 356
f 356 96 190
f 97 216 190
f 190 216 356
f 36 193 210
f 210 193 357
f 193 35 357
f 357 35 194
f 42 217 194
f 194 217 357
f 217 43 357
f 357 43 210
f 48 219 196
f 196 219 358
f 219 49 358
f 358 49 218
f 42 195 218
f 218 195 358
f 195 41 358
f 358 41 196
f 221 65 359
f 359 65 220
f 48 197 220
f 220 197 359
f 197 82 359
f 359 82 198
f 81 221 198
f 198 221 359
f 94 223 201
f 201 223 360
f 223 93 360
f 360 93 222
f 81 199 222
f 222 199 360
f 64 201 199
f 199 201 360
f 225 22 361
f 361 22 224
f 94 200 224
f 224 200 361
f 200 95 361
f 361 95 203
f 24 225 203
f 203 225 361
f 228 3 362
f 362 3 227
f 23 226 227
f 227 226 362
f 226 24 362
f 362 24 204
f 12 228 204
f 204 228 362
f 68 229 230
f 230 229 363
f 229 73 363
f 363 73 211
f 72 205 211
f 211 205 363
f 205 51 363
f 363 51 230
f 207 75 364
f 364 75 232
f 74 231 232
f 232 231 364
f 231 68 364
f 364 68 230
f 51 207 230
f 230 207 364
f 50 233 234
f 234 233 365
f 233 75 365
f 365 75 208
f 76 209 208
f 208 209 365
f 209 43 365
f 365 43 234
f 214 60 366
f 366 60 212
f 73 236 212
f 212 236 366
f 236 87 366
f 366 87 235
f 86 214 235
f 235 214 366
f 238 14 367
f 367 14 237
f 13 216 237
f 237 216 367
f 216 97 367
f 367 97 213
f 86 238 213
f 213 238 367
f 240 5 368
f 368 5 239
f 3 228 239
f 239 228 368
f 228 12 368
f 368 12 215
f 13 240 215
f 215 240 368
f 43 217 234
f 234 217 369
f 217 42 369
f 369 42 218
f 49 241 218
f 218 241 369
f 241 50 369
f 369 50 234
f 65 243 220
f 220 243 370
f 243 66 370
f 370 66 242
f 49 219 242
f 242 219 370
f 219 48 370
f 370 48 220
f 65 221 245
f 245 221 371
f 221 81 371
f 371 81 222
f 93 244 222
f 222 244 371
f 244 92 371
f 371 92 245
f 22 247 224
f 224 247 372
f 247 21 372
f 372 21 246
f 93 223 246
f 246 223 372
f 223 94 372
f 372 94 224
f 249 22 373
f 373 22 225
f 24 226 225
f 225 226 373
f 226 23 373
f 373 23 248
f 1 249 248
f 248 249 373
f 250 23 374
f 374 23 227
f 3 251 227
f 227 251 374
f 88 252 253
f 253 252 375
f 87 236 252
f 252 236 375
f 236 73 375
f 375 73 229
f 229 68 375
f 375 68 253
f 231 74 376
f 376 74 255
f 89 254 255
f 255 254 376
f 254 88 376
f 376 88 253
f 68 231 253
f 253 231 376
f 67 256 257
f 257 256 377
f 256 74 377
f 377 74 232
f 75 233 232
f 232 233 377
f 233 50 377
f 377 50 257
f 14 238 259
f 259 238 378
f 238 86 378
f 378 86 235
f 87 258 235
f 235 258 378
f 258 15 378
f 378 15 259
f 261 10 379
f 379 10 260
f 5 240 260
f 260 240 379
f 240 13 379
f 379 13 237
f 14 261 237
f 237 261 379
f 5 263 239
f 239 263 380
f 3 239 262
f 262 239 380
f 50 241 257
f 257 241 381
f 241 49 381
f 381 49 242
f 66 264 242
f 242 264 381
f 264 67 381
f 381 67 257
f 92 266 245
f 245 266 382
f 266 91 382
f 382 91 265
f 66 243 265
f 265 243 382
f 243 65 382
f 382 65 245
f 268 20 383
f 383 20 267
f 92 244 267
f 267 244 383
f 244 93 383
f 383 93 246
f 21 268 246
f 246 268 383
f 249 1 384
f 384 1 270
f 2 269 270
f 270 269 384
f 269 21 384
f 384 21 247
f 22 249 247
f 247 249 384
f 23 250 248
f 3 262 251
f 272 16 385
f 385 16 271
f 15 258 271
f 271 258 385
f 258 87 385
f 385 87 252
f 88 272 252
f 252 272 385
f 18 273 274
f 274 273 386
f 16 272 273
f 273 272 386
f 88 254 272
f 272 254 386
f 254 89 386
f 386 89 274
f 90 275 276
f 276 275 387
f 275 89 387
f 387 89 255
f 74 256 255
f 255 256 387
f 256 67 387
f 387 67 276
f 278 11 388
f 388 11 277
f 10 261 277
f 277 261 388
f 261 14 388
f 388 14 259
f 15 278 259
f 259 278 388
f 10 279 260
f 260 279 389
f 263 5 389
f 389 5 260
f 67 264 276
f 276 264 390
f 264 66 390
f 390 66 265
f 91 280 265
f 265 280 390
f 280 90 390
f 390 90 276
f 20 282 267
f 267 282 391
f 282 19 391
f 391 19 281
f 91 266 281
f 281 266 391
f 266 92 391
f 391 92 267
f 20 268 284
f 284 268 392
f 21 269 268
f 268 269 392
f 269 2 392
f 392 2 283
f 283 4 392
f 392 4 284
f 11 278 286
f 286 278 393
f 278 15 393
f 393 15 271
f 271 16 393
f 393 16 285
f 9 286 285
f 285 286 393
f 273 18 394
f 394 18 288
f 8 287 288
f 288 287 394
f 9 285 287
f 287 285 394
f 285 16 394
f 394 16 273
f 17 289 290
f 290 289 395
f 289 18 395
f 395 18 274
f 89 275 274
f 274 275 395
f 275 90 395
f 395 90 290
f 279 10 396
f 396 10 277
f 11 291 277
f 277 291 396
f 292 17 397
f 397 17 290
f 90 280 290
f 290 280 397
f 280 91 397
f 397 91 281
f 19 292 281
f 281 292 397
f 19 282 294
f 294 282 398
f 282 20 398
f 398 20 284
f 4 293 284
f 284 293 398
f 293 6 398
f 398 6 294
f 11 286 291
f 291 286 399
f 286 9 399
f 399 9 295
f 9 287 295
f 295 287 400
f 287 8 400
f 400 8 296
f 18 289 288
f 288 289 401
f 289 17 401
f 401 17 298
f 7 297 298
f 298 297 401
f 297 8 401
f 401 8 288
f 292 19 402
f 402 19 294
f 6 299 294
f 294 299 402
f 299 7 402
f 402 7 298
f 17 292 298
f 298 292 402
f 8 297 296
f 296 297 403
f 297 7 403
f 403 7 300
f 7 299 300

