# https://github.com/mikedh/trimesh
v 0.37409233 -0.03174560 -0.03284043
v 0.37034172 -0.01365900 -0.03548411
v 0.38101235 -0.04799634 0.00835042
v 0.36686513 -0.00115175 -0.03468646
v 0.37630142 -0.02801175 0.02599896
v 0.36376923 0.01301216 -0.03269349
v 0.36209670 0.02853255 -0.02585261
v 0.36334232 0.03679752 -0.00709546
v 0.36821616 0.03234376 0.01599874
v 0.37299639 -0.00712952 0.03035665
v 0.37094441 0.01279745 0.02819140
v 0.35089882 -0.04303272 0.01827487
v 0.35049676 -0.02567063 0.03191843
v 0.34920975 -0.00518477 0.03585420
v 0.34843397 0.01509309 0.03295912
v 0.34785194 0.03550445 0.02156670
v 0.34349451 0.03256788 -0.02321462
v 0.34570044 0.04109003 -0.00185572
v 0.34301215 0.01520481 -0.03109695
v 0.34337489 -0.00259417 -0.03135600
v 0.34429120 -0.01854146 -0.02804160
v 0.34606594 -0.03327301 -0.01874202
v 0.37078866 -0.05024724 -0.01469153
v 0.34826822 -0.04538088 -0.00330810
v 0.01781715 0.02069774 0.05106934
v 0.02809506 0.04773978 -0.04072152
v 0.01480789 -0.03701032 0.05912349
v 0.01645651 -0.05546379 0.03808299
v 0.03053551 -0.03607450 -0.03166983
v 0.03219871 0.00654261 -0.05960056
v 0.08438109 -0.02503633 0.06437168
v 0.08928180 -0.04922913 0.04541441
v 0.10096863 -0.03201552 -0.03099270
v 0.10023254 0.01751562 -0.05543352
v 0.09522012 0.05270618 -0.04328576
v 0.09079922 0.06882120 -0.00497322
v 0.08059913 0.03381978 0.05474988
v 0.15270495 -0.01895256 0.05961553
v 0.15512297 -0.03982936 0.04227644
v 0.16390594 -0.03104121 -0.02738795
v 0.16576096 0.01540488 -0.05069410
v 0.16509408 0.04815242 -0.04186936
v 0.16195572 0.06795877 -0.00884834
v 0.15300223 0.03788088 0.05235354
v 0.21683399 -0.01414419 0.05067140
v 0.21806475 -0.03218123 0.03673585
v 0.22359225 -0.02830053 -0.02110640
v 0.22549966 0.01097146 -0.04262804
v 0.22602591 0.03890680 -0.03792268
v 0.22557762 0.05973066 -0.01279598
v 0.21881622 0.03684092 0.04406414
v 0.02631936 -0.04739812 -0.01101337
v 0.09782776 -0.04690996 -0.01058292
v 0.16138413 -0.04418529 -0.00755041
v 0.22178086 -0.03862711 -0.00362778
v 0.02046933 -0.05678912 0.01149608
v 0.09367096 -0.05523147 0.01556598
v 0.15805533 -0.04810457 0.01740951
v 0.21981561 -0.04039205 0.01709484
v 0.27157876 -0.00952963 0.04439105
v 0.27266237 -0.02800155 0.03471909
v 0.27339667 -0.03821176 0.01765511
v 0.27447081 -0.03788702 -0.00140016
v 0.27522826 -0.02842503 -0.01754912
v 0.27639324 0.00617504 -0.03681519
v 0.27702446 0.02994108 -0.03556422
v 0.27718582 0.05065782 -0.01783494
v 0.27225995 0.03576183 0.03468441
v 0.01581721 -0.00842284 0.06209104
v 0.08123736 0.00443773 0.06515913
v 0.15159605 0.00913409 0.06297630
v 0.21692875 0.01045743 0.05446118
v 0.27114719 0.01269680 0.04532902
v 0.27546438 0.05261346 0.01089648
v 0.22263774 0.05717567 0.02017200
v 0.15703144 0.06042272 0.02703112
v 0.08415270 0.05806354 0.03157237
v 0.01958916 0.05036501 0.02930586
v 0.03385949 0.06191507 -0.00154326
v 0.01299759 0.05908576 -0.00303644
v 0.27609354 -0.01339143 -0.02922016
v 0.22495196 -0.01156917 -0.03441730
v 0.16539582 -0.01165368 -0.04236357
v 0.10198760 -0.01161374 -0.04680344
v 0.03276421 -0.02011277 -0.04896940
v 0.31564575 -0.00584626 0.03984604
v 0.31420425 0.01522885 0.03850503
v 0.31385743 0.03595809 0.02720046
v 0.31545022 0.04813317 0.00343416
v 0.31646445 0.04217422 -0.02107233
v 0.31644657 0.02319501 -0.03282063
v 0.31619650 0.00293718 -0.03280490
v 0.31622206 -0.01464582 -0.02701758
v 0.31709781 -0.02888424 -0.01636380
v 0.31795227 -0.03859898 -0.00082175
v 0.31789301 -0.03800439 0.01835811
v 0.31724784 -0.02495113 0.03320382
v -0.01386715 -0.04954891 -0.01308390
v 0.02338675 -0.05256849 -0.00031526
v -0.02047764 -0.05659802 0.01024215
v 0.01817809 -0.05818986 0.02466604
v -0.02388968 -0.05265517 0.03614925
v -0.00828338 -0.03920949 -0.03510149
v 0.02873763 -0.04181908 -0.02136621
v 0.06169429 -0.05510406 0.01377778
v 0.06563196 -0.04513638 -0.01114234
v 0.09573000 -0.05226127 0.00169269
v 0.01531134 -0.04831637 0.05026173
v -0.02182204 -0.03396042 0.05631240
v 0.09158010 -0.05464762 0.03068912
v 0.05684960 -0.05185800 0.04283363
v -0.00289374 -0.02288179 -0.05216785
v 0.03188508 -0.02907489 -0.04092050
v 0.06890188 -0.03096378 -0.03119432
v 0.09955492 -0.04014727 -0.02143308
v 0.12582261 -0.05220256 0.01681633
v 0.12969411 -0.04621988 -0.00946650
v 0.15970544 -0.04745728 0.00453513
v 0.01496628 -0.02313036 0.06317080
v -0.01501702 -0.00589044 0.06028019
v 0.08677697 -0.03884208 0.05728899
v 0.05128692 -0.02971769 0.06327215
v 0.15653292 -0.04555840 0.03029430
v 0.12218303 -0.04435886 0.04443303
v 0.00235980 0.00353260 -0.06072450
v 0.03275630 -0.00858830 -0.05569155
v 0.06941874 -0.01228862 -0.04740980
v 0.10185948 -0.02263366 -0.03945485
v 0.13248477 -0.03198480 -0.02994310
v 0.16278998 -0.03849480 -0.01824282
v 0.18969557 -0.04375415 0.01726770
v 0.19225413 -0.04122277 -0.00539214
v 0.22076931 -0.04073088 0.00662353
v 0.01703757 0.00617046 0.05743200
v -0.00766195 0.02275398 0.04830981
v 0.01848171 0.03541685 0.04278981
v -0.00439015 0.04978033 0.02752662
v 0.04720604 -0.00008460 0.06386139
v 0.08248432 -0.01021432 0.06669768
v 0.15382852 -0.03084117 0.05253915
v 0.11866710 -0.02174481 0.06293406
v 0.21892316 -0.03767178 0.02738106
v 0.18738780 -0.03560223 0.03930289
v 0.03078018 0.02598620 -0.05745485
v 0.00648768 0.04139903 -0.04610511
v 0.06567192 0.01584473 -0.05721081
v 0.10149953 0.00170384 -0.05248341
v 0.13383141 -0.01168017 -0.04547176
v 0.16481522 -0.02220953 -0.03539931
v 0.19446382 -0.02956960 -0.02405181
v 0.22270892 -0.03431920 -0.01287657
v 0.27388546 -0.03968277 0.00808512
v 0.24777031 -0.03876936 0.01723337
v 0.24918831 -0.03770103 -0.00241980
v 0.08051110 0.01909546 0.06102378
v 0.04543112 0.02978633 0.05366952
v 0.01263276 0.05674911 0.01325070
v 0.08177085 0.04735459 0.04509217
v 0.04725914 0.05636674 0.03280417
v 0.11671381 0.00739047 0.06491347
v 0.15190690 -0.00531563 0.06306919
v 0.21733073 -0.02415774 0.04467309
v 0.18569200 -0.01654372 0.05504447
v 0.27302974 -0.03446291 0.02677820
v 0.24644477 -0.02980179 0.03540078
v 0.01672778 0.05634251 -0.02090938
v 0.05818341 0.05313568 -0.04428925
v 0.09789276 0.03550665 -0.05328441
v 0.13339743 0.01705419 -0.05374417
v 0.16568667 0.00085831 -0.04777416
v 0.19605813 -0.01144809 -0.03816726
v 0.22430616 -0.02061656 -0.02830794
v 0.27486366 -0.03401870 -0.00999812
v 0.25051635 -0.02809911 -0.01908294
v 0.31800967 -0.04004755 0.00875977
v 0.29694369 -0.03835518 0.01826230
v 0.29750759 -0.03822931 -0.00090582
v 0.15191406 0.02373855 0.05955725
v 0.11735290 0.03643290 0.05438451
v 0.02990606 0.05934855 0.01493289
v 0.02258259 0.06012153 -0.00214465
v 0.15479583 0.05022201 0.04120508
v 0.12104765 0.05977319 0.02948802
v 0.08752329 0.06553161 0.01457695
v 0.05633967 0.06696884 -0.00285119
v 0.18531338 0.00984227 0.05922313
v 0.21667840 -0.00248415 0.05408478
v 0.27214104 -0.01946772 0.04065684
v 0.24535463 -0.01198053 0.04723527
v 0.31764338 -0.03273809 0.02680858
v 0.29625249 -0.02614609 0.03368600
v 0.03414568 0.05972176 -0.02010057
v 0.09317001 0.06496955 -0.02580996
v 0.13117058 0.05145818 -0.04293658
v 0.16558599 0.03188371 -0.04924956
v 0.19670937 0.01332017 -0.04657821
v 0.22528893 -0.00114667 -0.03941771
v 0.25182903 -0.01229587 -0.03142781
v 0.27568441 -0.02147405 -0.02391064
v 0.31763882 -0.03463694 -0.00927518
v 0.29747923 -0.02881685 -0.01663721
v 0.33472537 -0.03983709 0.02010048
v 0.33372563 -0.04170903 -0.00002978
v 0.34991813 -0.04672373 0.00751984
v 0.21761630 0.02399650 0.05119809
v 0.18708077 0.03760503 0.04873784
v 0.22057566 0.04802017 0.03337495
v 0.19112590 0.05930240 0.02407377
v 0.15956685 0.06722592 0.01036916
v 0.12672597 0.06941623 -0.00696588
v 0.24541382 0.01139771 0.04969745
v 0.27120441 0.00124944 0.04604696
v 0.31651712 -0.01576910 0.03758253
v 0.29491067 -0.00744810 0.04196075
v 0.35097465 -0.03530141 0.02668968
v 0.33486976 -0.02460802 0.03348309
v 0.16396380 0.06144684 -0.02764249
v 0.19690749 0.04391611 -0.03979589
v 0.22574839 0.02467879 -0.04255191
v 0.25236342 0.00852414 -0.03934202
v 0.27631403 -0.00421892 -0.03361644
v 0.29746709 -0.01418234 -0.02772810
v 0.31655288 -0.02213487 -0.02218191
v 0.33264864 -0.03098438 -0.01596312
v 0.34687883 -0.04016870 -0.01190450
v 0.36068013 -0.04839739 -0.00884705
v 0.37468645 -0.05162017 -0.00345411
v 0.36588808 -0.04611452 0.01398204
v 0.27147522 0.02454304 0.04175497
v 0.24729252 0.03612519 0.03917049
v 0.27378300 0.04541694 0.02419647
v 0.25084644 0.05477540 0.01519207
v 0.22441917 0.06160947 0.00409976
v 0.19509933 0.06460272 -0.01077470
v 0.31481508 0.00450361 0.04009728
v 0.29392218 0.01408614 0.04168653
v 0.34981137 -0.01553897 0.03493854
v 0.33368388 -0.00515132 0.03766604
v 0.37876583 -0.03856588 0.01939743
v 0.36425007 -0.02755892 0.02902458
v 0.22604415 0.05145864 -0.02752567
v 0.25303003 0.03411909 -0.03649623
v 0.27665270 0.01774091 -0.03785286
v 0.31611765 -0.00622299 -0.03048045
v 0.29763534 0.00430596 -0.03479076
v 0.33098503 -0.01712157 -0.02666044
v 0.34511787 -0.02617881 -0.02398614
v 0.37051990 -0.04311894 -0.02418633
v 0.35924256 -0.03391014 -0.02461223
v 0.37843921 -0.05136611 -0.01901436
v 0.38917636 -0.05189313 0.00001707
v 0.31381265 0.02605863 0.03450327
v 0.29435162 0.03581328 0.03073155
v 0.31441551 0.04369792 0.01654846
v 0.29690919 0.05052267 0.00687025
v 0.27657188 0.05446302 -0.00397218
v 0.25301868 0.05481262 -0.01544421
v 0.33264711 0.01538526 0.03551303
v 0.34875771 0.00485498 0.03483501
v 0.37452114 -0.01746607 0.02973072
v 0.36215133 -0.00649284 0.03311929
v 0.39224490 -0.04345431 0.01279248
v 0.38643203 -0.02598092 0.02431516
v 0.27733979 0.04171704 -0.02885091
v 0.29820961 0.02635288 -0.03444225
v 0.31627089 0.01283082 -0.03385770
v 0.33071405 -0.00024330 -0.03157814
v 0.34373018 -0.01063799 -0.03002210
v 0.35745504 -0.01738430 -0.03135583
v 0.37181076 -0.02163864 -0.03522688
v 0.34821251 0.02594036 0.02934412
v 0.33169734 0.03577596 0.02451557
v 0.34670350 0.04029043 0.01046424
v 0.33174411 0.04445145 0.00065584
v 0.31617486 0.04750035 -0.00988350
v 0.29828014 0.04648542 -0.01998054
v 0.37187040 0.00279081 0.02983989
v 0.36083454 0.01349718 0.03049466
v 0.38228945 -0.00610458 0.02825475
v 0.31646508 0.03325409 -0.02850075
v 0.33092577 0.01872618 -0.03156325
v 0.34307652 0.00610935 -0.03180041
v 0.36867804 -0.00729702 -0.03500041
v 0.35525429 -0.00296042 -0.03234525
v 0.36011883 0.03383644 0.01858797
v 0.36994573 0.02337029 0.02412951
v 0.36552206 0.03639986 0.00507617
v 0.35541942 0.03795710 -0.00503598
v 0.34417632 0.03845958 -0.01409729
v 0.33142099 0.03706173 -0.02185379
v 0.37922771 0.01341148 0.02603821
v 0.34314483 0.02423243 -0.02840298
v 0.36512912 0.00551759 -0.03406816
v 0.35389351 0.01313287 -0.03147447
v 0.37526510 0.03210430 0.01444396
v 0.37025329 0.03806681 -0.00792552
v 0.36226049 0.03389189 -0.01789571
v 0.35360787 0.02944498 -0.02475885
v 0.36267060 0.02093316 -0.03024544
v 0.36951300 0.03051685 -0.02626460
v -0.01733556 -0.05390250 -0.00182886
v -0.02286565 -0.05652580 0.02321751
v -0.01090100 -0.04481939 -0.02434307
v 0.06368588 -0.05097928 0.00053216
v -0.02351881 -0.04505740 0.04772039
v 0.05940311 -0.05599035 0.02834862
v -0.00557944 -0.03193883 -0.04455622
v 0.06745791 -0.03850245 -0.02164167
v 0.12778312 -0.05054931 0.00304445
v -0.01889916 -0.02043634 0.06068212
v 0.05402040 -0.04287681 0.05529231
v 0.12404349 -0.05014857 0.03101175
v -0.00033546 -0.01126594 -0.05773562
v 0.06962018 -0.02237995 -0.03977349
v 0.13123879 -0.03990481 -0.02040517
v 0.19097678 -0.04374500 0.00573393
v -0.01086470 0.00867873 0.05577476
v -0.00536808 0.03691271 0.03945396
v 0.04889752 -0.01483185 0.06563969
v 0.12032550 -0.03461271 0.05563017
v 0.18848259 -0.04112403 0.02869999
v 0.00558861 0.02197867 -0.05796522
v 0.06827335 0.00016657 -0.05371324
v 0.13337777 -0.02261224 -0.03823646
v 0.19344020 -0.03623503 -0.01535579
v 0.24839822 -0.03951621 0.00726575
v 0.04608732 0.01452279 0.05955447
v 0.04555696 0.04439762 0.04527560
v 0.11738528 -0.00731868 0.06587925
v 0.18642041 -0.02727926 0.04834489
v 0.24710655 -0.03550798 0.02683452
v 0.06175179 0.03453744 -0.05518014
v 0.13382078 0.00154386 -0.05107069
v 0.19535181 -0.02127143 -0.03157220
v 0.24990910 -0.03377683 -0.01118414
v 0.29719028 -0.03982031 0.00860613
v 0.11666080 0.02212332 0.06132231
v 0.02138167 0.05896545 0.00954885
v 0.11883393 0.04921945 0.04366341
v 0.05225565 0.06360158 0.01637341
v 0.18528710 -0.00396166 0.05880252
v 0.24584592 -0.02178647 0.04237023
v 0.29666243 -0.03332086 0.02671253
v 0.02376294 0.05870271 -0.01475961
v 0.05775503 0.06468048 -0.02417953
v 0.13252992 0.03454510 -0.05167320
v 0.19648120 -0.00002564 -0.04342402
v 0.25112440 -0.02078997 -0.02581818
v 0.29752109 -0.03433034 -0.00937012
v 0.33421075 -0.04278556 0.01021220
v 0.18586885 0.02402493 0.05593493
v 0.18890986 0.04953765 0.03782688
v 0.12384135 0.06718416 0.01253772
v 0.24522615 -0.00082575 0.04977325
v 0.29562306 -0.01732461 0.03883302
v 0.33501478 -0.03321876 0.02786619
v 0.12922106 0.06418506 -0.02701115
v 0.19686055 0.02852082 -0.04586756
v 0.25222116 -0.00260389 -0.03604674
v 0.29749533 -0.02204506 -0.02270637
v 0.33333645 -0.03722847 -0.00888181
v 0.36378783 -0.04959522 0.00246213
v 0.24599835 0.02406675 0.04618116
v 0.24904150 0.04669238 0.02870009
v 0.19333784 0.06503646 0.00757657
v 0.29429457 0.00309685 0.04291589
v 0.33433682 -0.01502067 0.03663409
v 0.36557650 -0.03778098 0.02318586
v 0.19632295 0.05683223 -0.02738415
v 0.25259292 0.02105597 -0.03989352
v 0.29748595 -0.00542368 -0.03182812
v 0.33173892 -0.02448861 -0.02181150
v 0.35932302 -0.04232652 -0.01807701
v 0.38234469 -0.05378930 -0.00873770
v 0.29394015 0.02530349 0.03779205
v 0.29547734 0.04458928 0.02015050
v 0.25224978 0.05794705 -0.00034668
v 0.33310050 0.00492474 0.03721972
v 0.36305067 -0.01698139 0.03237758
v 0.38911137 -0.03536288 0.01904502
v 0.25329504 0.04617712 -0.02800726
v 0.29788926 0.01501690 -0.03596748
v 0.33070501 -0.00883917 -0.02971695
v 0.35860706 -0.02551434 -0.02897778
v 0.33218175 0.02617477 0.03184811
v 0.33160901 0.04201949 0.01341543
v 0.29784598 0.05126205 -0.00736230
v 0.36144939 0.00349847 0.03246858
v 0.38431987 -0.01598422 0.02756305
v 0.29838064 0.03733706 -0.02907068
v 0.33077994 0.00903844 -0.03253118
v 0.35632440 -0.01009762 -0.03208453
v 0.36049524 0.02429767 0.02678377
v 0.35728929 0.03783588 0.00740124
v 0.33171352 0.04285724 -0.01135518
v 0.38060162 0.00352389 0.02761173
v 0.33111066 0.02834225 -0.02815359
v 0.35441386 0.00480449 -0.03242138
v 0.37761033 0.02358744 0.02207266
v 0.37252950 0.03708881 0.00375366
v 0.35417488 0.03516918 -0.01649756
v 0.35352462 0.02152890 -0.02924014
v 0.36927670 0.03557357 -0.01865427
f 52 99 98
f 98 99 301
f 99 56 301
f 301 56 100
f 56 101 100
f 100 101 302
f 101 28 302
f 302 28 102
f 29 104 103
f 103 104 303
f 104 52 303
f 303 52 98
f 56 99 105
f 105 99 304
f 99 52 304
f 304 52 106
f 53 107 106
f 106 107 304
f 107 57 304
f 304 57 105
f 27 109 108
f 108 109 305
f 28 108 102
f 102 108 305
f 101 56 306
f 306 56 105
f 57 110 105
f 105 110 306
f 110 32 306
f 306 32 111
f 28 101 111
f 111 101 306
f 85 113 112
f 112 113 307
f 113 29 307
f 307 29 103
f 52 104 106
f 106 104 308
f 104 29 308
f 308 29 114
f 33 115 114
f 114 115 308
f 115 53 308
f 308 53 106
f 57 107 116
f 116 107 309
f 107 53 309
f 309 53 117
f 54 118 117
f 117 118 309
f 118 58 309
f 309 58 116
f 69 120 119
f 119 120 310
f 109 27 310
f 310 27 119
f 108 28 311
f 311 28 111
f 32 121 111
f 111 121 311
f 121 31 311
f 311 31 122
f 27 108 122
f 122 108 311
f 110 57 312
f 312 57 116
f 58 123 116
f 116 123 312
f 123 39 312
f 312 39 124
f 32 110 124
f 124 110 312
f 30 126 125
f 125 126 313
f 126 85 313
f 313 85 112
f 113 85 314
f 314 85 127
f 127 84 314
f 314 84 128
f 128 33 314
f 314 33 114
f 29 113 114
f 114 113 314
f 53 115 117
f 117 115 315
f 115 33 315
f 315 33 129
f 40 130 129
f 129 130 315
f 130 54 315
f 315 54 117
f 58 118 131
f 131 118 316
f 118 54 316
f 316 54 132
f 55 133 132
f 132 133 316
f 133 59 316
f 316 59 131
f 120 69 317
f 317 69 134
f 25 135 134
f 134 135 317
f 135 25 318
f 318 25 136
f 78 137 136
f 136 137 318
f 138 69 319
f 319 69 119
f 27 122 119
f 119 122 319
f 31 139 122
f 122 139 319
f 70 138 139
f 139 138 319
f 121 32 320
f 320 32 124
f 39 140 124
f 124 140 320
f 140 38 320
f 320 38 141
f 31 121 141
f 141 121 320
f 123 58 321
f 321 58 131
f 59 142 131
f 131 142 321
f 142 46 321
f 321 46 143
f 39 123 143
f 143 123 321
f 144 30 322
f 322 30 125
f 26 144 145
f 145 144 322
f 127 85 323
f 323 85 126
f 30 146 126
f 126 146 323
f 146 34 323
f 323 34 147
f 84 127 147
f 147 127 323
f 84 148 128
f 128 148 324
f 148 83 324
f 324 83 149
f 40 129 149
f 149 129 324
f 33 128 129
f 129 128 324
f 54 130 132
f 132 130 325
f 130 40 325
f 325 40 150
f 47 151 150
f 150 151 325
f 151 55 325
f 325 55 132
f 152 62 326
f 326 62 153
f 59 133 153
f 153 133 326
f 133 55 326
f 326 55 154
f 63 152 154
f 154 152 326
f 69 138 134
f 134 138 327
f 138 70 327
f 327 70 155
f 37 156 155
f 155 156 327
f 156 25 327
f 327 25 134
f 78 157 137
f 156 37 328
f 328 37 158
f 77 159 158
f 158 159 328
f 159 78 328
f 328 78 136
f 25 156 136
f 136 156 328
f 160 70 329
f 329 70 139
f 139 31 329
f 329 31 141
f 38 161 141
f 141 161 329
f 71 160 161
f 161 160 329
f 140 39 330
f 330 39 143
f 46 162 143
f 143 162 330
f 162 45 330
f 330 45 163
f 38 140 163
f 163 140 330
f 142 59 331
f 331 59 153
f 62 164 153
f 153 164 331
f 164 61 331
f 331 61 165
f 46 142 165
f 165 142 331
f 26 145 166
f 26 167 144
f 144 167 332
f 167 35 332
f 332 35 168
f 34 146 168
f 168 146 332
f 146 30 332
f 332 30 144
f 148 84 333
f 333 84 147
f 34 169 147
f 147 169 333
f 169 41 333
f 333 41 170
f 83 148 170
f 170 148 333
f 83 171 149
f 149 171 334
f 171 82 334
f 334 82 172
f 47 150 172
f 172 150 334
f 150 40 334
f 334 40 149
f 173 63 335
f 335 63 154
f 55 151 154
f 154 151 335
f 151 47 335
f 335 47 174
f 174 64 335
f 335 64 173
f 175 96 336
f 336 96 176
f 62 152 176
f 176 152 336
f 152 63 336
f 336 63 177
f 95 175 177
f 177 175 336
f 70 160 155
f 155 160 337
f 160 71 337
f 337 71 178
f 44 179 178
f 178 179 337
f 179 37 337
f 337 37 155
f 157 78 338
f 338 78 180
f 180 79 338
f 338 79 181
f 181 80 338
f 338 80 157
f 179 44 339
f 339 44 182
f 76 183 182
f 182 183 339
f 183 77 339
f 339 77 158
f 37 179 158
f 158 179 339
f 78 159 180
f 180 159 340
f 159 77 340
f 340 77 184
f 36 185 184
f 184 185 340
f 185 79 340
f 340 79 180
f 186 71 341
f 341 71 161
f 161 38 341
f 341 38 163
f 45 187 163
f 163 187 341
f 72 186 187
f 187 186 341
f 162 46 342
f 342 46 165
f 61 188 165
f 165 188 342
f 188 60 342
f 342 60 189
f 45 162 189
f 189 162 342
f 164 62 343
f 343 62 176
f 96 190 176
f 176 190 343
f 190 97 343
f 343 97 191
f 61 164 191
f 191 164 343
f 166 80 344
f 344 80 181
f 181 79 344
f 344 79 192
f 26 166 192
f 192 166 344
f 79 185 192
f 192 185 345
f 185 36 345
f 345 36 193
f 35 167 193
f 193 167 345
f 26 192 167
f 167 192 345
f 35 194 168
f 168 194 346
f 194 42 346
f 346 42 195
f 41 169 195
f 195 169 346
f 169 34 346
f 346 34 168
f 171 83 347
f 347 83 170
f 41 196 170
f 170 196 347
f 196 48 347
f 347 48 197
f 82 171 197
f 197 171 347
f 82 198 172
f 172 198 348
f 81 199 198
f 198 199 348
f 199 64 348
f 348 64 174
f 174 47 348
f 348 47 172
f 200 95 349
f 349 95 177
f 63 173 177
f 177 173 349
f 173 64 349
f 349 64 201
f 201 94 349
f 349 94 200
f 96 175 202
f 202 175 350
f 175 95 350
f 350 95 203
f 24 204 203
f 203 204 350
f 204 12 350
f 350 12 202
f 71 186 178
f 178 186 351
f 186 72 351
f 351 72 205
f 51 206 205
f 205 206 351
f 206 44 351
f 351 44 178
f 206 51 352
f 352 51 207
f 75 208 207
f 207 208 352
f 208 76 352
f 352 76 182
f 44 206 182
f 182 206 352
f 77 183 184
f 184 183 353
f 183 76 353
f 353 76 209
f 43 210 209
f 209 210 353
f 210 36 353
f 353 36 184
f 72 187 211
f 211 187 354
f 187 45 354
f 354 45 189
f 60 212 189
f 189 212 354
f 212 73 354
f 354 73 211
f 188 61 355
f 355 61 191
f 97 213 191
f 191 213 355
f 213 86 355
f 355 86 214
f 60 188 214
f 214 188 355
f 190 96 356
f 356 96 202
f 12 215 202
f 202 215 356
f 215 13 356
f 356 13 216
f 97 190 216
f 216 190 356
f 42 194 217
f 217 194 357
f 194 35 357
f 357 35 193
f 36 210 193
f 193 210 357
f 210 43 357
f 357 43 217
f 42 218 195
f 195 218 358
f 218 49 358
f 358 49 219
f 48 196 219
f 219 196 358
f 196 41 358
f 358 41 195
f 198 82 359
f 359 82 197
f 48 220 197
f 197 220 359
f 220 65 359
f 359 65 221
f 81 198 221
f 221 198 359
f 81 222 199
f 199 222 360
f 222 93 360
f 360 93 223
f 94 201 223
f 223 201 360
f 64 199 201
f 201 199 360
f 203 95 361
f 361 95 200
f 94 224 200
f 200 224 361
f 224 22 361
f 361 22 225
f 24 203 225
f 225 203 361
f 204 24 362
f 362 24 226
f 23 227 226
f 226 227 362
f 227 3 362
f 362 3 228
f 12 204 228
f 228 204 362
f 72 211 205
f 205 211 363
f 211 73 363
f 363 73 229
f 68 230 229
f 229 230 363
f 230 51 363
f 363 51 205
f 230 68 364
f 364 68 231
f 74 232 231
f 231 232 364
f 232 75 364
f 364 75 207
f 51 230 207
f 207 230 364
f 76 208 209
f 209 208 365
f 208 75 365
f 365 75 233
f 50 234 233
f 233 234 365
f 234 43 365
f 365 43 209
f 235 87 366
f 366 87 236
f 73 212 236
f 236 212 366
f 212 60 366
f 366 60 214
f 86 235 214
f 214 235 366
f 213 97 367
f 367 97 216
f 13 237 216
f 216 237 367
f 237 14 367
f 367 14 238
f 86 213 238
f 238 213 367
f 215 12 368
f 368 12 228
f 3 239 228
f 228 239 368
f 239 5 368
f 368 5 240
f 13 215 240
f 240 215 368
f 49 218 241
f 241 218 369
f 218 42 369
f 369 42 217
f 43 234 217
f 217 234 369
f 234 50 369
f 369 50 241
f 49 242 219
f 219 242 370
f 242 66 370
f 370 66 243
f 65 220 243
f 243 220 370
f 220 48 370
f 370 48 219
f 93 222 244
f 244 222 371
f 222 81 371
f 371 81 221
f 65 245 221
f 221 245 371
f 245 92 371
f 371 92 244
f 93 246 223
f 223 246 372
f 246 21 372
f 372 21 247
f 22 224 247
f 247 224 372
f 224 94 372
f 372 94 223
f 248 23 373
f 373 23 226
f 24 225 226
f 226 225 373
f 225 22 373
f 373 22 249
f 1 248 249
f 249 248 373
f 227 23 374
f 374 23 250
f 3 227 251
f 251 227 374
f 229 73 375
f 375 73 236
f 87 252 236
f 236 252 375
f 88 253 252
f 252 253 375
f 253 68 375
f 375 68 229
f 253 88 376
f 376 88 254
f 89 255 254
f 254 255 376
f 255 74 376
f 376 74 231
f 68 253 231
f 231 253 376
f 75 232 233
f 233 232 377
f 232 74 377
f 377 74 256
f 67 257 256
f 256 257 377
f 257 50 377
f 377 50 233
f 87 235 258
f 258 235 378
f 235 86 378
f 378 86 238
f 14 259 238
f 238 259 378
f 259 15 378
f 378 15 258
f 237 13 379
f 379 13 240
f 5 260 240
f 240 260 379
f 260 10 379
f 379 10 261
f 14 237 261
f 261 237 379
f 5 239 263
f 263 239 380
f 3 262 239
f 239 262 380
f 66 242 264
f 264 242 381
f 242 49 381
f 381 49 241
f 50 257 241
f 241 257 381
f 257 67 381
f 381 67 264
f 66 265 243
f 243 265 382
f 265 91 382
f 382 91 266
f 92 245 266
f 266 245 382
f 245 65 382
f 382 65 243
f 246 93 383
f 383 93 244
f 92 267 244
f 244 267 383
f 267 20 383
f 383 20 268
f 21 246 268
f 268 246 383
f 247 21 384
f 384 21 269
f 2 270 269
f 269 270 384
f 270 1 384
f 384 1 249
f 22 247 249
f 249 247 384
f 23 248 250
f 3 251 262
f 252 87 385
f 385 87 258
f 15 271 258
f 258 271 385
f 271 16 385
f 385 16 272
f 88 252 272
f 272 252 385
f 88 272 254
f 254 272 386
f 16 273 272
f 272 273 386
f 18 274 273
f 273 274 386
f 274 89 386
f 386 89 254
f 74 255 256
f 256 255 387
f 255 89 387
f 387 89 275
f 90 276 275
f 275 276 387
f 276 67 387
f 387 67 256
f 259 14 388
f 388 14 261
f 10 277 261
f 261 277 388
f 277 11 388
f 388 11 278
f 15 259 278
f 278 259 388
f 10 260 279
f 279 260 389
f 260 5 389
f 389 5 263
f 91 265 280
f 280 265 390
f 265 66 390
f 390 66 264
f 67 276 264
f 264 276 390
f 276 90 390
f 390 90 280
f 91 281 266
f 266 281 391
f 281 19 391
f 391 19 282
f 20 267 282
f 282 267 391
f 267 92 391
f 391 92 266
f 283 2 392
f 392 2 269
f 21 268 269
f 269 268 392
f 20 284 268
f 268 284 392
f 284 4 392
f 392 4 283
f 285 16 393
f 393 16 271
f 271 15 393
f 393 15 278
f 11 286 278
f 278 286 393
f 9 285 286
f 286 285 393
f 9 287 285
f 285 287 394
f 8 288 287
f 287 288 394
f 288 18 394
f 394 18 273
f 273 16 394
f 394 16 285
f 89 274 275
f 275 274 395
f 274 18 395
f 395 18 289
f 17 290 289
f 289 290 395
f 290 90 395
f 395 90 275
f 11 277 291
f 291 277 396
f 277 10 396
f 396 10 279
f 281 91 397
f 397 91 280
f 90 290 280
f 280 290 397
f 290 17 397
f 397 17 292
f 19 281 292
f 292 281 397
f 4 284 293
f 293 284 398
f 284 20 398
f 398 20 282
f 19 294 282
f 282 294 398
f 294 6 398
f 398 6 293
f 295 9 399
f 399 9 286
f 11 291 286
f 286 291 399
f 296 8 400
f 400 8 287
f 9 295 287
f 287 295 400
f 7 298 297
f 297 298 401
f 298 17 401
f 401 17 289
f 18 288 289
f 289 288 401
f 288 8 401
f 401 8 297
f 298 7 402
f 402 7 299
f 6 294 299
f 299 294 402
f 294 19 402
f 402 19 292
f 17 298 292
f 292 298 402
f 300 7 403
f 403 7 297
f 8 296 297
f 297 296 403
f 7 300 299

