# https://github.com/mikedh/trimesh
v 0.02230002 -0.04312230 -0.00533173
v 0.03202042 -0.05574878 -0.03164890
v 0.12718629 0.11629755 0.09684635
v 0.07399666 0.07411252 0.11721820
v 0.13744270 0.08905638 0.09310720
v 0.07660818 0.04290156 0.09244158
v 0.13324237 0.04195406 0.06836754
v 0.12274034 0.02079198 0.05418107
v 0.07070362 -0.02785036 0.01083487
v 0.08793464 -0.03788738 -0.00997518
v 0.15388938 0.01219068 0.03843055
v 0.16928398 0.03230436 0.06046333
v 0.17543879 0.09666734 0.08103482
v 0.16254301 0.13051150 0.07746112
v 0.07738093 0.05871875 0.10516771
v 0.13925797 0.06423316 0.08244685
v 0.17732697 0.06227729 0.07564428
v 0.10410073 0.18724704 0.05515865
v 0.10681162 0.14200551 0.09266120
v 0.13863212 0.16271057 0.06790496
v 0.09534256 0.02744408 0.06491952
v 0.10194070 0.04439055 0.07913760
v 0.10509240 0.06162285 0.09232749
v 0.10315683 0.08092996 0.10329549
v 0.09491095 0.10223937 0.10921512
v 0.07911186 0.12237874 0.11017276
v 0.04755971 -0.03683159 0.00161536
v 0.06102728 -0.04823956 -0.02198977
v 0.10896082 -0.05270150 -0.03702105
v 0.20622084 0.01516032 0.04746665
v 0.21245934 0.05369406 0.06728142
v 0.20910358 0.09876840 0.06466989
v 0.17513570 0.17930328 0.02631006
v 0.04324563 -0.07294527 -0.06389433
v 0.07712821 -0.06460455 -0.05191532
v 0.06185867 -0.11485202 -0.13694112
v 0.10918084 -0.10368018 -0.12145180
v 0.15243957 -0.08204459 -0.10475301
v 0.13069552 -0.12219828 -0.16278587
v 0.17499585 -0.08804591 -0.14391482
v 0.19888044 0.14128428 0.05006723
v 0.24488452 0.04994596 0.06147941
v 0.23790888 0.10120451 0.05586738
v 0.23459650 0.14389885 0.02367465
v 0.22360543 0.18502027 -0.03103674
v 0.05288517 -0.09284214 -0.09946270
v 0.09275526 -0.08380218 -0.08584437
v 0.13101907 -0.06857892 -0.06938079
v 0.24774318 0.00791312 0.03718185
v 0.19108077 -0.00590141 0.01637843
v 0.23958546 -0.01505106 -0.00456870
v 0.13385991 0.20859630 0.00647544
v 0.19418811 -0.07947158 -0.18553528
v 0.09107322 -0.01553479 0.02315471
v 0.11209716 -0.02371503 0.00422252
v 0.13845432 -0.03669939 -0.02094246
v 0.17085864 -0.04915839 -0.05502918
v 0.20302577 -0.05591343 -0.08749857
v 0.22681459 -0.05042762 -0.12038385
v 0.23333934 -0.03221094 -0.15275583
v 0.10872117 0.00131952 0.03830784
v 0.13426373 -0.00581576 0.01976680
v 0.16821397 -0.01911495 -0.00654522
v 0.21093333 -0.02997788 -0.03669100
v 0.25363698 -0.02981542 -0.05905660
v 0.27277263 -0.01545052 -0.08759017
v 0.26812505 0.01045931 -0.11844336
v 0.25930646 0.07642847 -0.17429648
v 0.08632416 0.00995954 0.05098401
v 0.03578631 -0.02593119 0.02229889
v 0.05539854 -0.01767839 0.02896240
v 0.07253706 -0.00590539 0.03890584
v 0.24789866 0.18314845 -0.10154056
v 0.26454959 0.14191341 -0.14500911
v 0.07171964 0.02846199 0.08029086
v 0.16565437 0.21934358 -0.05995135
v 0.10244704 0.24013511 -0.07977394
v 0.21881162 0.16829835 -0.20098061
v 0.19106808 0.21137319 -0.13556416
v 0.07459974 0.03550050 0.08631170
v 0.07758149 0.05063383 0.09874896
v 0.06819494 0.02194125 0.07429853
v 0.08253159 0.02868657 0.07203202
v 0.09897625 0.03598326 0.07210788
v 0.08829895 0.04416057 0.08514498
v 0.00948264 -0.04485733 -0.00801805
v 0.01809524 -0.03760760 0.00657847
v 0.07638686 0.06630597 0.11166192
v 0.10405921 0.05289937 0.08585541
v 0.09025553 0.06047925 0.09796621
v 0.07464348 0.01400563 0.05837390
v 0.09124599 0.01865161 0.05783661
v 0.12836082 0.03110426 0.06106987
v 0.11708013 0.04397671 0.07351027
v 0.10870737 0.02458197 0.05934240
v 0.02700270 -0.04905047 -0.01785765
v 0.01708749 -0.05829723 -0.03526032
v 0.03510592 -0.04035359 -0.00214599
v 0.04146511 -0.03172665 0.01215429
v 0.04584774 -0.02210778 0.02523981
v 0.10482324 0.07095440 0.09829795
v 0.08747334 0.07800511 0.10892388
v 0.12169656 0.06297097 0.08755473
v 0.13707867 0.05302983 0.07542578
v 0.06271461 0.00021238 0.04624311
v 0.08002725 0.00165918 0.04470531
v 0.09770249 0.00516203 0.04522683
v 0.11617545 0.01108170 0.04624204
v 0.13767015 0.01764637 0.04651701
v 0.16219994 0.02095711 0.04945425
v 0.15117500 0.03818816 0.06447726
v 0.02565935 -0.07547757 -0.06842195
v 0.03749046 -0.06389964 -0.04693191
v 0.04670964 -0.05238793 -0.02719366
v 0.05408647 -0.04198214 -0.00961933
v 0.05950233 -0.03267390 0.00593331
v 0.06309640 -0.02332608 0.02004441
v 0.06430068 -0.01240002 0.03357134
v 0.13942106 0.07628957 0.08858692
v 0.12005901 0.08459537 0.09859197
v 0.09990873 0.09142515 0.10696063
v 0.07969244 0.09643278 0.11569695
v 0.15828162 0.06430833 0.07869324
v 0.17441954 0.04637478 0.06942513
v 0.08208395 -0.01155110 0.03139033
v 0.10030869 -0.00773361 0.03052461
v 0.12044774 -0.00142393 0.03009622
v 0.14459346 0.00396234 0.02841541
v 0.17145821 0.00324178 0.02826820
v 0.19956921 0.00229068 0.03199281
v 0.18752484 0.02451966 0.05435474
v 0.09265170 0.13181760 0.10167745
v 0.09347087 0.15257920 0.08910156
v 0.09074414 0.17425647 0.07175758
v 0.08355970 0.19452798 0.04743540
v 0.08800537 0.11280610 0.11023214
v 0.03244834 -0.09452674 -0.10481961
v 0.04837407 -0.08250560 -0.08159400
v 0.06882107 -0.05596482 -0.03613092
v 0.06040275 -0.06919931 -0.05837444
v 0.07486879 -0.04349079 -0.01623546
v 0.07886694 -0.03222081 0.00098124
v 0.08118050 -0.02216865 0.01652178
v 0.17791902 0.07920498 0.07960921
v 0.15632473 0.09359163 0.08745897
v 0.13326715 0.10249758 0.09546523
v 0.11072562 0.10905017 0.10340292
v 0.21078681 0.03276805 0.05974491
v 0.19609509 0.05846139 0.07182432
v 0.10067283 -0.01884003 0.01427127
v 0.12333204 -0.01528649 0.01211331
v 0.15029733 -0.01217438 0.00784811
v 0.18075370 -0.01184346 0.00343296
v 0.21389471 -0.01297993 0.00441090
v 0.24607314 -0.00587882 0.01728129
v 0.22624590 0.00853362 0.04120552
v 0.11814615 0.12968480 0.09541999
v 0.12240105 0.15237336 0.08246692
v 0.12251375 0.17643233 0.06163413
v 0.11842785 0.19853972 0.03307718
v 0.10836323 0.21739839 -0.00230200
v 0.09267718 0.23258753 -0.04341624
v 0.05722275 -0.10360814 -0.11784527
v 0.07298649 -0.08914759 -0.09313237
v 0.08519594 -0.07400235 -0.06863356
v 0.09344535 -0.05918734 -0.04471998
v 0.09795814 -0.04484312 -0.02270007
v 0.10030744 -0.03130035 -0.00315535
v 0.19389777 0.09819360 0.07281946
v 0.21169272 0.07644524 0.06854322
v 0.17026257 0.11362408 0.07994646
v 0.14411289 0.12352956 0.08779357
v 0.24728466 0.02673280 0.05208885
v 0.22805055 0.05044258 0.06272216
v 0.12483563 -0.02991322 -0.00746208
v 0.15369716 -0.02786980 -0.01408213
v 0.18843433 -0.02548506 -0.02212590
v 0.22723272 -0.02209592 -0.02289977
v 0.26716899 -0.01373295 -0.00902769
v 0.15217641 0.14714483 0.07316910
v 0.15663398 0.19544676 0.01567134
v 0.15622422 0.17215874 0.04957960
v 0.13510345 0.23263239 -0.07029758
v 0.15005046 0.21599226 -0.02477240
v 0.06711920 -0.12621025 -0.15684150
v 0.08593668 -0.11095882 -0.12963134
v 0.10045323 -0.09366869 -0.10337014
v 0.11225883 -0.07690668 -0.07780869
v 0.12027393 -0.06073778 -0.05271261
v 0.12394859 -0.04511018 -0.02902151
v 0.20535219 0.12049683 0.05871432
v 0.18107681 0.13659573 0.06430668
v 0.24121898 0.07583568 0.06252426
v 0.22295855 0.09953898 0.05904472
v 0.15413312 -0.04334143 -0.03759357
v 0.19179169 -0.03925584 -0.04717035
v 0.23358219 -0.03163510 -0.04854283
v 0.27558509 -0.01889766 -0.03870906
v 0.18897138 0.16096467 0.03857906
v 0.19589721 0.18342808 -0.00056724
v 0.19404325 0.20359883 -0.04785812
v 0.17816853 0.21818322 -0.09751815
v 0.15784236 0.22399757 -0.15140149
v 0.10266951 -0.13292281 -0.17125596
v 0.11946281 -0.11361748 -0.14094669
v 0.13101402 -0.09381987 -0.11307813
v 0.14107616 -0.07584902 -0.08672445
v 0.15006390 -0.05915496 -0.06175157
v 0.23657835 0.12386503 0.04182574
v 0.21648378 0.14362146 0.03504985
v 0.18735802 -0.05352699 -0.07166988
v 0.22927628 -0.04259340 -0.07499609
v 0.26668080 -0.02457587 -0.07237413
v 0.23110050 0.16404659 0.00111396
v 0.22156005 0.19815974 -0.11812847
v 0.23646116 0.18987406 -0.07039171
v 0.20493836 0.19445955 -0.17069434
v 0.14202447 -0.12716628 -0.18707871
v 0.15423210 -0.10636078 -0.15358927
v 0.16367714 -0.08656443 -0.12357138
v 0.17596096 -0.06915465 -0.09671098
v 0.25501569 0.14354560 0.02228451
v 0.21687622 -0.05516346 -0.10355370
v 0.25186497 -0.03267318 -0.10361704
v 0.27234102 -0.00302226 -0.10345150
v 0.25767249 0.17379870 -0.02964685
v 0.25856835 0.16607334 -0.12625958
v 0.24403321 0.15375128 -0.17138270
v 0.27238923 0.17036511 -0.08482687
v 0.18538706 -0.08577729 -0.16493739
v 0.19975825 -0.06912474 -0.13357731
v 0.23191095 -0.04241869 -0.13674474
v 0.25045310 -0.00909140 -0.13625909
v 0.28295425 0.13402880 -0.12178851
v 0.26585142 0.11365221 -0.15981598
v 0.21293636 -0.05560036 -0.17021021
v 0.23159869 -0.02064681 -0.16951610
v 0.28206360 0.08866736 -0.13669101
v 0.08578213 0.03627424 0.07864741
v 0.08983361 0.05219223 0.09161993
v 0.07886240 0.02138272 0.06519333
v 0.11320608 0.03435824 0.06629625
v 0.01322577 -0.05130063 -0.02098718
v 0.02995452 -0.03504329 0.00912652
v 0.08945037 0.06903063 0.10387399
v 0.11992353 0.05325527 0.08085372
v 0.06919110 0.00696255 0.05183289
v 0.10367915 0.01472972 0.05239467
v 0.14499505 0.02732316 0.05565222
v 0.02130763 -0.06655738 -0.05099961
v 0.04070976 -0.04582059 -0.01404592
v 0.05258418 -0.02785079 0.01573992
v 0.12169875 0.07342668 0.09368648
v 0.08423273 0.08709833 0.11284434
v 0.15567422 0.05083385 0.07216278
v 0.09048070 -0.00382169 0.03819832
v 0.12948217 0.00815292 0.03799698
v 0.18013104 0.01219162 0.04130575
v 0.08085686 0.14122917 0.09936812
v 0.02935512 -0.08471671 -0.08657429
v 0.05336673 -0.06031544 -0.04193566
v 0.06685581 -0.03748569 -0.00460898
v 0.07291344 -0.01799494 0.02527557
v 0.15855159 0.07857291 0.08413830
v 0.11643873 0.09660489 0.10188885
v 0.19295028 0.04023508 0.06510557
v 0.11073264 -0.01061550 0.02202598
v 0.16177796 -0.00375897 0.01680842
v 0.22167300 -0.00478355 0.02327273
v 0.10270486 0.12100172 0.10317260
v 0.10748349 0.16454076 0.07749925
v 0.09560118 0.20668799 0.02491035
v 0.03527175 -0.10482217 -0.12342722
v 0.06695742 -0.07881916 -0.07560356
v 0.08370393 -0.05089326 -0.02969108
v 0.09012489 -0.02603061 0.00726292
v 0.19648925 0.07824623 0.07425732
v 0.15154458 0.10854969 0.08856185
v 0.22859355 0.02735289 0.05498073
v 0.13783249 -0.02124169 0.00016295
v 0.20253606 -0.01859138 -0.01067671
v 0.13435631 0.13841752 0.08536375
v 0.13892873 0.18700744 0.04134822
v 0.12177740 0.22705112 -0.03375395
v 0.07907525 -0.09979941 -0.11105325
v 0.10311627 -0.06808721 -0.06086325
v 0.11166280 -0.03780636 -0.01524684
v 0.18882614 0.11753332 0.06944100
v 0.22600179 0.07518525 0.06426203
v 0.17201191 -0.03421199 -0.03088233
v 0.25281044 -0.02214328 -0.03141488
v 0.17033744 0.15507522 0.05741902
v 0.17524371 0.20101251 -0.01425944
v 0.14578302 0.23145612 -0.10990442
v 0.09388925 -0.12231768 -0.14929582
v 0.12120019 -0.08552527 -0.09515316
v 0.13660202 -0.05232615 -0.04445082
v 0.22075570 0.12243851 0.04856958
v 0.21150437 -0.04223597 -0.06176748
v 0.20883603 0.16396294 0.01783575
v 0.20816349 0.20379206 -0.08382288
v 0.17011497 0.20749144 -0.19264412
v 0.11133114 -0.14009666 -0.19616782
v 0.14214253 -0.10116091 -0.13227801
v 0.16305704 -0.06490517 -0.07917652
v 0.25449271 0.12484540 0.04279755
v 0.24322030 -0.03971666 -0.08879994
v 0.25578692 0.16039514 -0.00187812
v 0.23481336 0.17958300 -0.14723548
v 0.26415488 0.17791707 -0.05802141
v 0.16582885 -0.10778989 -0.17666549
v 0.18866310 -0.07092159 -0.11472375
v 0.25285923 -0.02165279 -0.12098175
v 0.27930024 0.15484725 -0.10641267
v 0.24792190 0.12259813 -0.19318579
v 0.20734893 -0.06381172 -0.15223570
v 0.24643916 0.00364554 -0.15099420
v 0.28342882 0.11141078 -0.13193009
v 0.21414653 -0.04510553 -0.18858876
f 80 75 239
f 239 75 83
f 83 21 239
f 239 21 84
f 22 85 84
f 84 85 239
f 6 80 85
f 85 80 239
f 1 87 86
f 89 23 240
f 240 23 90
f 15 81 90
f 90 81 240
f 81 6 240
f 240 6 85
f 22 89 85
f 85 89 240
f 82 91 241
f 91 69 241
f 241 69 92
f 21 83 92
f 92 83 241
f 83 75 241
f 241 75 82
f 7 94 93
f 93 94 242
f 94 22 242
f 242 22 84
f 21 95 84
f 84 95 242
f 95 8 242
f 242 8 93
f 96 1 243
f 243 1 86
f 2 96 97
f 97 96 243
f 87 1 244
f 244 1 98
f 27 99 98
f 98 99 244
f 99 70 244
f 88 15 245
f 245 15 90
f 23 101 90
f 90 101 245
f 101 24 245
f 245 24 102
f 4 88 102
f 102 88 245
f 23 89 103
f 103 89 246
f 89 22 246
f 246 22 94
f 94 7 246
f 246 7 104
f 16 103 104
f 104 103 246
f 105 72 247
f 247 72 106
f 69 91 106
f 106 91 247
f 95 21 248
f 248 21 92
f 69 107 92
f 92 107 248
f 107 61 248
f 248 61 108
f 8 95 108
f 108 95 248
f 8 109 93
f 93 109 249
f 109 11 249
f 249 11 110
f 12 111 110
f 110 111 249
f 111 7 249
f 249 7 93
f 34 113 112
f 112 113 250
f 113 2 250
f 250 2 97
f 96 2 251
f 251 2 114
f 28 115 114
f 114 115 251
f 115 27 251
f 251 27 98
f 1 96 98
f 98 96 251
f 70 99 100
f 100 99 252
f 99 27 252
f 252 27 116
f 9 117 116
f 116 117 252
f 117 71 252
f 252 71 100
f 72 105 118
f 101 23 253
f 253 23 103
f 16 119 103
f 103 119 253
f 119 5 253
f 253 5 120
f 24 101 120
f 120 101 253
f 121 25 254
f 254 25 122
f 254 4 102
f 24 121 102
f 102 121 254
f 123 16 255
f 255 16 104
f 7 111 104
f 104 111 255
f 111 12 255
f 255 12 124
f 17 123 124
f 124 123 255
f 72 125 106
f 106 125 256
f 125 54 256
f 256 54 126
f 61 107 126
f 126 107 256
f 107 69 256
f 256 69 106
f 61 127 108
f 108 127 257
f 127 62 257
f 257 62 128
f 11 109 128
f 128 109 257
f 109 8 257
f 257 8 108
f 129 50 258
f 258 50 130
f 30 131 130
f 130 131 258
f 131 12 258
f 258 12 110
f 11 129 110
f 110 129 258
f 259 26 132
f 19 133 132
f 132 133 259
f 18 135 134
f 25 136 122
f 46 138 137
f 137 138 260
f 138 34 260
f 260 34 112
f 139 28 261
f 261 28 114
f 2 113 114
f 114 113 261
f 113 34 261
f 261 34 140
f 35 139 140
f 140 139 261
f 115 28 262
f 262 28 141
f 10 142 141
f 141 142 262
f 142 9 262
f 262 9 116
f 27 115 116
f 116 115 262
f 71 117 118
f 118 117 263
f 117 9 263
f 263 9 143
f 54 125 143
f 143 125 263
f 125 72 263
f 263 72 118
f 119 16 264
f 264 16 123
f 17 144 123
f 123 144 264
f 144 13 264
f 264 13 145
f 5 119 145
f 145 119 264
f 146 3 265
f 265 3 147
f 25 121 147
f 147 121 265
f 121 24 265
f 265 24 120
f 5 146 120
f 120 146 265
f 30 148 131
f 131 148 266
f 148 31 266
f 266 31 149
f 17 124 149
f 149 124 266
f 12 131 124
f 124 131 266
f 127 61 267
f 267 61 126
f 54 150 126
f 126 150 267
f 150 55 267
f 267 55 151
f 62 127 151
f 151 127 267
f 152 63 268
f 268 63 153
f 50 129 153
f 153 129 268
f 129 11 268
f 268 11 128
f 62 152 128
f 128 152 268
f 50 154 130
f 130 154 269
f 154 51 269
f 269 51 155
f 49 156 155
f 155 156 269
f 156 30 269
f 269 30 130
f 26 136 132
f 132 136 270
f 136 25 270
f 270 25 147
f 3 157 147
f 147 157 270
f 157 19 270
f 270 19 132
f 20 159 158
f 158 159 271
f 159 18 271
f 271 18 134
f 134 133 271
f 133 19 271
f 271 19 158
f 52 161 160
f 160 161 272
f 135 18 272
f 272 18 160
f 273 36 163
f 46 137 163
f 163 137 273
f 47 165 164
f 164 165 274
f 165 35 274
f 274 35 140
f 34 138 140
f 140 138 274
f 138 46 274
f 274 46 164
f 29 167 166
f 166 167 275
f 167 10 275
f 275 10 141
f 28 139 141
f 141 139 275
f 139 35 275
f 275 35 166
f 150 54 276
f 276 54 143
f 9 142 143
f 143 142 276
f 142 10 276
f 276 10 168
f 55 150 168
f 168 150 276
f 13 144 169
f 169 144 277
f 144 17 277
f 277 17 149
f 31 170 149
f 149 170 277
f 170 32 277
f 277 32 169
f 146 5 278
f 278 5 145
f 13 171 145
f 145 171 278
f 171 14 278
f 278 14 172
f 3 146 172
f 172 146 278
f 49 173 156
f 156 173 279
f 173 42 279
f 279 42 174
f 31 148 174
f 174 148 279
f 148 30 279
f 279 30 156
f 175 56 280
f 280 56 176
f 63 152 176
f 176 152 280
f 152 62 280
f 280 62 151
f 55 175 151
f 151 175 280
f 154 50 281
f 281 50 153
f 63 177 153
f 153 177 281
f 177 64 281
f 281 64 178
f 51 154 178
f 178 154 281
f 51 179 155
f 180 20 282
f 282 20 158
f 19 157 158
f 158 157 282
f 157 3 282
f 282 3 172
f 14 180 172
f 172 180 282
f 181 52 283
f 283 52 160
f 18 159 160
f 160 159 283
f 159 20 283
f 283 20 182
f 33 181 182
f 182 181 283
f 77 162 183
f 183 162 284
f 162 161 284
f 161 52 284
f 284 52 184
f 184 76 284
f 284 76 183
f 37 187 186
f 186 187 285
f 187 47 285
f 285 47 164
f 46 163 164
f 164 163 285
f 36 186 163
f 163 186 285
f 48 189 188
f 188 189 286
f 189 29 286
f 286 29 166
f 35 165 166
f 166 165 286
f 165 47 286
f 286 47 188
f 167 29 287
f 287 29 190
f 56 175 190
f 190 175 287
f 175 55 287
f 287 55 168
f 10 167 168
f 168 167 287
f 191 41 288
f 288 41 192
f 14 171 192
f 192 171 288
f 171 13 288
f 288 13 169
f 32 191 169
f 169 191 288
f 193 43 289
f 289 43 194
f 32 170 194
f 194 170 289
f 170 31 289
f 289 31 174
f 42 193 174
f 174 193 289
f 177 63 290
f 290 63 176
f 56 195 176
f 176 195 290
f 195 57 290
f 290 57 196
f 64 177 196
f 196 177 290
f 179 51 291
f 291 51 178
f 64 197 178
f 178 197 291
f 197 65 291
f 291 65 198
f 41 199 192
f 192 199 292
f 199 33 292
f 292 33 182
f 20 180 182
f 182 180 292
f 180 14 292
f 292 14 192
f 45 201 200
f 200 201 293
f 76 184 201
f 201 184 293
f 52 181 184
f 184 181 293
f 33 200 181
f 181 200 293
f 202 79 294
f 294 79 203
f 294 77 183
f 76 202 183
f 183 202 294
f 39 205 204
f 204 205 295
f 205 37 295
f 295 37 186
f 36 185 186
f 186 185 295
f 38 207 206
f 206 207 296
f 207 48 296
f 296 48 188
f 47 187 188
f 188 187 296
f 187 37 296
f 296 37 206
f 195 56 297
f 297 56 190
f 29 189 190
f 190 189 297
f 189 48 297
f 297 48 208
f 57 195 208
f 208 195 297
f 44 210 209
f 209 210 298
f 41 191 210
f 210 191 298
f 191 32 298
f 298 32 194
f 43 209 194
f 194 209 298
f 197 64 299
f 299 64 196
f 57 211 196
f 196 211 299
f 211 58 299
f 299 58 212
f 65 197 212
f 212 197 299
f 65 213 198
f 210 44 300
f 300 44 214
f 45 200 214
f 214 200 300
f 200 33 300
f 300 33 199
f 41 210 199
f 199 210 300
f 79 202 215
f 215 202 301
f 202 76 301
f 301 76 201
f 45 216 201
f 201 216 301
f 73 215 216
f 216 215 301
f 217 78 302
f 79 217 203
f 203 217 302
f 218 39 303
f 303 39 204
f 40 220 219
f 219 220 304
f 220 38 304
f 304 38 206
f 37 205 206
f 206 205 304
f 205 39 304
f 304 39 219
f 211 57 305
f 305 57 208
f 48 207 208
f 208 207 305
f 207 38 305
f 305 38 221
f 58 211 221
f 221 211 305
f 222 44 306
f 306 44 209
f 213 65 307
f 307 65 212
f 58 223 212
f 212 223 307
f 59 224 223
f 223 224 307
f 224 66 307
f 307 66 213
f 44 222 214
f 214 222 308
f 226 45 308
f 308 45 214
f 74 228 227
f 227 228 309
f 78 217 228
f 228 217 309
f 217 79 309
f 309 79 215
f 215 73 309
f 309 73 227
f 45 226 216
f 216 226 310
f 229 73 310
f 310 73 216
f 311 53 230
f 40 219 230
f 230 219 311
f 219 39 311
f 311 39 218
f 223 58 312
f 312 58 221
f 38 220 221
f 221 220 312
f 220 40 312
f 312 40 231
f 59 223 231
f 231 223 312
f 66 224 225
f 225 224 313
f 224 59 313
f 313 59 232
f 60 233 232
f 232 233 313
f 67 225 233
f 233 225 313
f 73 229 227
f 227 229 314
f 234 74 314
f 314 74 227
f 315 78 228
f 74 235 228
f 228 235 315
f 235 68 315
f 59 231 232
f 232 231 316
f 40 230 231
f 231 230 316
f 230 53 316
f 316 53 236
f 60 232 236
f 236 232 316
f 317 67 233
f 60 237 233
f 233 237 317
f 68 235 238
f 238 235 318
f 74 234 235
f 235 234 318
f 237 60 319
f 319 60 236

