# https://github.com/mikedh/trimesh
v 0.13567020 0.06258494 -0.06981450
v 0.26580906 0.00403007 -0.07233099
v 0.21032994 -0.00503300 -0.07471387
v 0.20081462 -0.06332509 -0.03474328
v 0.25421544 -0.05620964 -0.04023206
v 0.17806466 -0.03187099 0.05638432
v 0.23683087 -0.03603963 0.04606296
v 0.23446973 -0.00794928 0.05969579
v 0.17408524 0.00203364 0.06670054
v 0.20770038 0.03894360 -0.07506931
v 0.26689611 0.04567652 -0.06758143
v 0.19547344 0.07620608 -0.04676314
v 0.25892490 0.07733632 -0.03430044
v 0.17583583 0.06750768 0.03365153
v 0.23846139 0.05643655 0.04085473
v 0.07526589 -0.09154809 -0.01200766
v 0.09370617 -0.07573236 -0.05248233
v 0.08549939 -0.01888988 -0.10269884
v 0.14815092 0.02499423 -0.08771933
v 0.08378988 0.01413075 -0.11167521
v 0.15084225 -0.01447303 -0.08412654
v 0.14665143 -0.07068115 -0.03772836
v 0.13735932 -0.07576537 0.00310050
v 0.12779595 -0.06006180 0.04079997
v 0.11816163 -0.02827649 0.06577326
v 0.11164640 0.01418250 0.07039923
v 0.11690289 0.07806734 0.01340085
v 0.42900485 0.02069774 0.05106943
v 0.43928276 0.04773978 -0.04072143
v 0.38376756 0.00816009 -0.06138324
v 0.36603065 -0.04019212 -0.04028897
v 0.35414935 -0.04677774 0.03720993
v 0.35726760 -0.02516318 0.05515140
v 0.39243405 0.04495735 -0.04957719
v 0.38720302 0.06592001 -0.01147239
v 0.37405402 0.03275236 0.04735986
v 0.42599559 -0.03701032 0.05912358
v 0.42764421 -0.05546379 0.03808308
v 0.44172321 -0.03607450 -0.03166974
v 0.44338641 0.00654261 -0.05960047
v 0.32427014 0.01003142 -0.06660724
v 0.32919216 0.04775745 -0.05665741
v 0.32587034 0.07361058 -0.02187909
v 0.30637748 0.04698126 0.04462275
v 0.29566992 -0.01547087 0.05605294
v 0.29546892 -0.04171829 0.04079157
v 0.30988952 -0.04818535 -0.04384482
v 0.19246543 -0.07042487 0.00059509
v 0.24725645 -0.06720038 -0.00726382
v 0.30404511 -0.06353829 -0.01381020
v 0.36182199 -0.05376751 -0.01567308
v 0.43750705 -0.04739812 -0.01101329
v 0.18439270 -0.05713995 0.03214833
v 0.24117033 -0.05730702 0.02345337
v 0.29888043 -0.05935571 0.01675062
v 0.35670135 -0.05683119 0.01143801
v 0.43165701 -0.05678912 0.01149616
v 0.11123346 0.05310493 0.05076072
v 0.17300324 0.03746753 0.05837425
v 0.23463799 0.02510655 0.05862881
v 0.29948982 0.01585088 0.05768976
v 0.36524994 0.00341962 0.05832459
v 0.42700491 -0.00842284 0.06209112
v 0.12434877 0.08333808 -0.03266864
v 0.18345738 0.08396629 -0.00368307
v 0.24770679 0.07736643 0.00815960
v 0.31612041 0.07007389 0.01652330
v 0.37975582 0.05800041 0.02420112
v 0.43077685 0.05036501 0.02930595
v 0.42418527 0.05908576 -0.00303635
v 0.02047696 -0.03281389 0.06147922
v 0.01350132 0.01844466 0.05586720
v 0.01018894 0.06113900 0.02367447
v -0.00080211 0.10226041 -0.03103692
v 0.02333562 -0.07484673 0.03718167
v 0.01517790 -0.09781092 -0.00456888
v 0.07218843 -0.06724923 0.04316855
v 0.06148611 -0.02778108 0.06786990
v 0.05251392 0.02072725 0.06425754
v 0.05392960 0.06046351 0.03065094
v 0.06189249 0.08480396 -0.01701809
v 0.07122748 0.08069961 -0.06851617
v 0.44395191 -0.02011277 -0.04896931
v 0.37323819 -0.01888835 -0.05554233
v 0.31678734 -0.02082399 -0.06131682
v 0.26050562 -0.02876204 -0.06217441
v 0.20659791 -0.03703659 -0.06072893
v 0.14988756 -0.04520428 -0.06799400
v 0.08960073 -0.04907988 -0.08393302
v 0.07954290 0.04924410 -0.10087176
v 0.02922942 -0.11257528 -0.05905679
v 0.04836508 -0.09821038 -0.08759035
v 0.04371749 -0.07230056 -0.11844354
v 0.03514403 -0.04604193 -0.14537080
v 0.03489889 -0.00633138 -0.17429664
v 0.02349110 0.10038861 -0.10154074
v 0.04014202 0.05915356 -0.14500929
v 0.02166559 -0.08863866 0.01728111
v 0.00183834 -0.07422622 0.04120535
v 0.02287710 -0.05602704 0.05208868
v 0.00364300 -0.03231727 0.06272199
v 0.00282518 -0.10485576 -0.02289994
v 0.07638842 -0.08140390 0.02024894
v 0.04661376 -0.07165460 0.03850159
v 0.04276143 -0.09649281 -0.00902787
v 0.01681141 -0.00692416 0.06252408
v -0.00144902 0.01677912 0.05904455
v 0.06693741 -0.04960206 0.05879679
v 0.03859440 -0.03050776 0.06352387
v 0.00917463 -0.11439495 -0.04854301
v 0.05117753 -0.10165751 -0.03870924
v 0.09984921 -0.06315771 0.04312881
v 0.10889059 -0.08169260 -0.00205618
v 0.13261408 -0.07019672 0.02228710
v 0.01217079 0.04110519 0.04182556
v -0.00792378 0.06086161 0.03504968
v 0.05634227 -0.00359520 0.06972571
v 0.03005935 0.01983556 0.05781948
v 0.12266684 -0.04601081 0.05593465
v 0.08913329 -0.02722897 0.06837725
v 0.04227324 -0.10733571 -0.07237431
v 0.06889080 -0.08447678 -0.06985969
v 0.08960301 -0.08659224 -0.03365841
v 0.14258825 -0.07615323 -0.01741701
v 0.11923995 -0.07273363 -0.04352076
v 0.15581417 -0.05795130 0.03618085
v 0.16453851 -0.07285659 0.00194916
v 0.18833927 -0.06569568 0.01717968
v 0.00669294 0.08128674 0.00111378
v 0.01205360 0.10711422 -0.07039189
v 0.05205285 0.04253590 0.05027555
v 0.03060814 0.06078576 0.02228433
v 0.11448796 -0.00766599 0.07091340
v 0.08145759 0.01865988 0.06807899
v 0.14789388 -0.02987332 0.06123684
v 0.18093667 -0.04575043 0.04535347
v 0.02745741 -0.11543303 -0.10361723
v 0.04793346 -0.08578212 -0.10345169
v 0.06343887 -0.05692940 -0.09893570
v 0.09212587 -0.06331193 -0.07007973
v 0.17358483 -0.06748973 -0.03500613
v 0.19665818 -0.06961560 -0.01727222
v 0.11924232 -0.04708775 -0.07518746
v 0.14908057 -0.05961987 -0.05464299
v 0.21278586 -0.05682501 0.02762491
v 0.21955683 -0.06847730 -0.00316358
v 0.24413310 -0.06424509 0.00889434
v 0.05734066 0.07498900 0.00814382
v 0.03326493 0.09103886 -0.02964704
v 0.03416079 0.08331348 -0.12625976
v 0.06674253 0.08751696 -0.04214313
v 0.04798169 0.08760527 -0.08482705
v 0.11055909 0.03489816 0.06321282
v 0.08091416 0.05839434 0.04101151
v 0.17572551 -0.01558546 0.06387681
v 0.14291578 0.00849987 0.06947879
v 0.20773857 -0.03348260 0.05047707
v 0.23872353 -0.04760769 0.03579345
v 0.02604555 -0.09185124 -0.13625926
v 0.03821079 -0.05867355 -0.13272781
v 0.05464281 -0.02938011 -0.12396455
v 0.08716464 -0.03388999 -0.09440893
v 0.17806359 -0.04211588 -0.06433820
v 0.20420561 -0.05178801 -0.04971090
v 0.22713362 -0.05974586 -0.03727657
v 0.25072069 -0.06455964 -0.02422638
v 0.15029740 -0.03043021 -0.07765505
v 0.11846909 -0.01666771 -0.09288306
v 0.26987283 -0.05837193 0.02010159
v 0.27557511 -0.06586128 -0.01072512
v 0.30142245 -0.06356996 0.00192686
v 0.11369187 0.06768132 0.03457086
v 0.08905044 0.08174012 -0.00182015
v 0.07622237 0.06666696 -0.08764578
v 0.05854669 0.05126895 -0.12178869
v 0.04144386 0.03089237 -0.15981617
v 0.09635077 0.08096117 -0.05166595
v 0.12066220 0.08396766 -0.00824462
v 0.17325860 0.02001930 0.06486346
v 0.14223330 0.04576120 0.05520768
v 0.23542656 -0.02292915 0.05429811
v 0.20447996 -0.00310832 0.06266083
v 0.29677614 -0.05178821 0.02978106
v 0.26604720 -0.03873140 0.04324074
v 0.01905400 -0.06701145 -0.16635010
v 0.03490090 -0.03051136 -0.15824559
v 0.05765605 0.00590751 -0.13669119
v 0.08427374 -0.00291313 -0.10925146
v 0.17978547 -0.01083892 -0.07983193
v 0.20862999 -0.02175468 -0.06866648
v 0.23302357 -0.03320473 -0.06131298
v 0.25749864 -0.04360145 -0.05300211
v 0.28196298 -0.05263214 -0.04252647
v 0.30685866 -0.05816715 -0.02968261
v 0.11663557 0.01929216 -0.09844865
v 0.15058779 0.00382446 -0.08868326
v 0.32754681 -0.05873348 0.01408870
v 0.33245140 -0.05962940 -0.01535753
v 0.35906567 -0.05673975 -0.00230465
v 0.17378206 0.05366298 0.04778933
v 0.14590090 0.07331926 0.02524960
v 0.12954033 0.07560888 -0.05391759
v 0.10654130 0.05470023 -0.08551670
v 0.08222452 0.03170727 -0.10873568
v 0.15241751 0.08481670 -0.01767513
v 0.17918448 0.07790505 0.01651208
v 0.23414760 0.00828760 0.06134775
v 0.20355619 0.03089585 0.05849729
v 0.29516458 -0.02960866 0.04983656
v 0.26491011 -0.01176240 0.05759700
v 0.35480753 -0.05338721 0.02488796
v 0.32493049 -0.04392408 0.03892341
v 0.21051537 0.01549528 -0.07768195
v 0.17602739 0.03182301 -0.08250059
v 0.23764163 -0.00044628 -0.07411901
v 0.26330084 -0.01325281 -0.06848561
v 0.28845857 -0.02490027 -0.06226788
v 0.31321877 -0.03515144 -0.05444236
v 0.33740991 -0.04371191 -0.04317642
v 0.36361272 -0.04814288 -0.02878650
v 0.14246790 0.04541062 -0.08127013
v 0.39732054 -0.04954891 -0.01308381
v 0.43457445 -0.05256849 -0.00031517
v 0.39071006 -0.05659802 0.01024224
v 0.23587860 0.04157114 0.05174621
v 0.20647810 0.06186095 0.03754131
v 0.18903570 0.08387546 -0.02547012
v 0.16338859 0.07040372 -0.05928617
v 0.21476952 0.08085059 0.00256053
v 0.24237517 0.06873222 0.02621489
v 0.26666603 0.02052360 0.05821989
v 0.29720441 -0.00009366 0.05876636
v 0.35500605 -0.03727977 0.04766894
v 0.32674893 -0.01929878 0.05502408
v 0.42936579 -0.05818986 0.02466614
v 0.38729802 -0.05265517 0.03614934
v 0.23671956 0.04322566 -0.07226859
v 0.26720913 0.02375777 -0.07284673
v 0.20210333 0.06071425 -0.06419975
v 0.29455028 0.00733242 -0.06966685
v 0.32051370 -0.00609688 -0.06528376
v 0.34493314 -0.01856133 -0.05893698
v 0.36920505 -0.03006190 -0.04906932
v 0.40290432 -0.03920949 -0.03510140
v 0.43992533 -0.04181908 -0.02136612
v 0.30263280 0.03166455 0.05303737
v 0.27181082 0.05190216 0.04286197
v 0.25340907 0.08080940 -0.01230057
v 0.22637724 0.07769631 -0.04071423
v 0.28163307 0.07406546 0.01219194
v 0.31052340 0.06019741 0.03212370
v 0.33300232 0.01082259 0.05728617
v 0.36078679 -0.01120308 0.05872786
v 0.42649903 -0.04831637 0.05026182
v 0.38936565 -0.03396042 0.05631249
v 0.26377357 0.06520464 -0.05426788
v 0.29781411 0.04652079 -0.06238581
v 0.32751006 0.02844970 -0.06457753
v 0.35425602 0.01032045 -0.06380622
v 0.37831379 -0.00641676 -0.06001080
v 0.40829395 -0.02288179 -0.05216776
v 0.44307276 -0.02907489 -0.04092040
v 0.36989374 0.01817025 0.05436828
v 0.34107484 0.04096202 0.04574208
v 0.32140799 0.07499686 -0.00161406
v 0.29239659 0.07561392 -0.02905356
v 0.34961892 0.06489846 0.02043687
v 0.37730790 0.04666985 0.03746666
v 0.42615398 -0.02313036 0.06317090
v 0.39617067 -0.00589044 0.06028028
v 0.32877114 0.06413890 -0.04189361
v 0.36139982 0.04753034 -0.05261891
v 0.38920555 0.02561116 -0.05925648
v 0.41354749 0.00353260 -0.06072441
v 0.44394399 -0.00858830 -0.05569146
v 0.42822527 0.00617046 0.05743209
v 0.40352574 0.02275398 0.04830988
v 0.35814924 0.07038211 -0.01631655
v 0.38347413 0.06493781 0.00766097
v 0.42966941 0.03541685 0.04278990
v 0.40679754 0.04978033 0.02752671
v 0.39110904 0.05954998 -0.03157367
v 0.44196788 0.02598620 -0.05745475
v 0.41767538 0.04139903 -0.04610502
v 0.42382045 0.05674911 0.01325079
v 0.40912571 0.06106020 -0.00650709
v 0.42791547 0.05634251 -0.02090930
v 0.43377029 0.06012153 -0.00214457
v 0.44533338 0.05972176 -0.02010048
v -0.00273456 -0.08754339 0.02327255
v 0.00418599 -0.05540696 0.05498055
v 0.04799324 -0.08599100 0.01681105
v 0.00159425 -0.00757459 0.06426184
v 0.04317082 -0.05310315 0.05413070
v 0.02840288 -0.10490313 -0.03141505
v 0.10507100 -0.07543980 0.02192340
v -0.00365185 0.03967864 0.04856940
v 0.03359625 -0.00508710 0.06481844
v 0.09424380 -0.04705602 0.05910365
v 0.06423993 -0.09537632 -0.05331256
v 0.11501552 -0.08011316 -0.02369987
v 0.16013118 -0.06741903 0.01983994
v 0.03008516 0.04208556 0.04279737
v 0.08477968 -0.00465162 0.07159214
v 0.15167718 -0.04556951 0.05041811
v 0.01881274 -0.12247651 -0.08880012
v 0.06697176 -0.07074162 -0.08445771
v 0.16912790 -0.07301531 -0.01689050
v 0.12021325 -0.06137937 -0.06122639
v 0.21601497 -0.06462653 0.01306392
v 0.03137937 0.07763529 -0.00187830
v 0.03974732 0.09515722 -0.05802159
v 0.07993197 0.04029291 0.05767697
v 0.14486826 -0.01132443 0.06798698
v 0.20994987 -0.04606956 0.04012996
v 0.02845167 -0.10441263 -0.12098193
v 0.05778635 -0.04271445 -0.11270343
v 0.17698427 -0.05637206 -0.05081802
v 0.22335099 -0.06703142 -0.02051299
v 0.11825368 -0.03208938 -0.08546976
v 0.27263730 -0.06419442 0.00536575
v 0.08451603 0.07240872 0.02075655
v 0.05489268 0.07208740 -0.10641285
v 0.09306047 0.08537202 -0.02532676
v 0.14215072 0.02795989 0.06474111
v 0.20589168 -0.01909074 0.05837390
v 0.26755075 -0.04956083 0.03268857
v 0.02203160 -0.07911430 -0.15099438
v 0.05566179 -0.01379622 -0.13236925
v 0.17934068 -0.02709878 -0.07303431
v 0.23033572 -0.04780938 -0.05107408
v 0.27880914 -0.06191538 -0.02729148
v 0.11843522 0.00034994 -0.09783653
v 0.32984044 -0.06111804 -0.00051484
v 0.14345424 0.06107923 0.04170402
v 0.10114134 0.06974827 -0.07142750
v 0.05902127 0.02865091 -0.13193026
v 0.14879444 0.08156684 0.00448273
v 0.20371221 0.01381366 0.06277509
v 0.26511656 -0.02619302 0.05171961
v 0.32586733 -0.05276274 0.02733568
v 0.17928649 0.00880134 -0.08365041
v 0.23540975 -0.01780069 -0.06872705
v 0.28519441 -0.03962103 -0.05431312
v 0.33459238 -0.05337137 -0.03022751
v 0.11225824 0.03780548 -0.09415854
v 0.39385213 -0.05390250 -0.00182877
v 0.20428826 0.04718123 0.05003790
v 0.15754254 0.08111716 -0.03988119
v 0.21004437 0.07339821 0.02163823
v 0.26534258 0.00407348 0.05996749
v 0.32520108 -0.03267225 0.04838700
v 0.38832204 -0.05652580 0.02321760
v 0.23848830 0.02004617 -0.07621188
v 0.17008965 0.05365859 -0.07377174
v 0.29161365 -0.00954250 -0.06736551
v 0.34091489 -0.03172539 -0.05277255
v 0.40028670 -0.04481939 -0.02434298
v 0.26869454 0.03673448 0.05247483
v 0.22033761 0.08302617 -0.01857814
v 0.27596484 0.06469638 0.02920510
v 0.32938980 -0.00443029 0.05800719
v 0.38766888 -0.04505740 0.04772047
v 0.23219468 0.06402354 -0.05971617
v 0.29697879 0.02630765 -0.06867040
v 0.34949496 -0.00483736 -0.06259234
v 0.40560825 -0.03193883 -0.04455613
v 0.33700691 0.02602383 0.05326170
v 0.28734702 0.07829184 -0.00753089
v 0.34484526 0.05444236 0.03461037
v 0.39228853 -0.02043634 0.06068220
v 0.29616296 0.06431706 -0.04891670
v 0.35863660 0.02817069 -0.06156063
v 0.41085224 -0.01126594 -0.05773554
v 0.40032300 0.00867873 0.05577484
v 0.35420193 0.07064979 0.00321471
v 0.40581962 0.03691271 0.03945405
v 0.36114756 0.06294094 -0.03612681
v 0.41677631 0.02197867 -0.05796513
v 0.40689258 0.05888919 0.01180605
v 0.41367254 0.05575443 -0.02691875
v 0.43256937 0.05896545 0.00954892
v 0.43495063 0.05870271 -0.01475952
f 290 76 98
f 75 99 98
f 98 99 290
f 75 100 99
f 99 100 291
f 100 71 291
f 291 71 101
f 103 77 292
f 292 77 104
f 75 98 104
f 104 98 292
f 76 105 98
f 98 105 292
f 16 103 105
f 105 103 292
f 106 72 293
f 293 72 107
f 71 106 101
f 101 106 293
f 100 75 294
f 294 75 104
f 77 108 104
f 104 108 294
f 108 78 294
f 294 78 109
f 71 100 109
f 109 100 294
f 105 76 295
f 295 76 102
f 102 110 295
f 110 91 295
f 295 91 111
f 16 105 111
f 111 105 295
f 77 103 112
f 112 103 296
f 103 16 296
f 296 16 113
f 23 114 113
f 113 114 296
f 114 24 296
f 296 24 112
f 73 116 115
f 115 116 297
f 72 115 107
f 107 115 297
f 117 79 298
f 298 79 118
f 72 106 118
f 118 106 298
f 106 71 298
f 298 71 109
f 78 117 109
f 109 117 298
f 108 77 299
f 299 77 112
f 24 119 112
f 112 119 299
f 119 25 299
f 299 25 120
f 78 108 120
f 120 108 299
f 91 121 111
f 111 121 300
f 121 92 300
f 300 92 122
f 17 123 122
f 122 123 300
f 123 16 300
f 300 16 111
f 124 23 301
f 301 23 113
f 16 123 113
f 113 123 301
f 123 17 301
f 301 17 125
f 22 124 125
f 125 124 301
f 24 114 126
f 126 114 302
f 114 23 302
f 302 23 127
f 48 128 127
f 127 128 302
f 128 53 302
f 302 53 126
f 131 80 303
f 303 80 132
f 132 73 303
f 303 73 115
f 115 72 303
f 303 72 118
f 79 131 118
f 118 131 303
f 133 26 304
f 304 26 134
f 79 117 134
f 134 117 304
f 117 78 304
f 304 78 120
f 25 133 120
f 120 133 304
f 25 119 135
f 135 119 305
f 119 24 305
f 305 24 126
f 53 136 126
f 126 136 305
f 136 6 305
f 305 6 135
f 121 91 306
f 137 92 306
f 306 92 121
f 92 138 122
f 122 138 307
f 138 93 307
f 307 93 139
f 139 89 307
f 307 89 140
f 140 17 307
f 307 17 122
f 23 124 127
f 127 124 308
f 124 22 308
f 308 22 141
f 4 142 141
f 141 142 308
f 142 48 308
f 308 48 127
f 143 88 309
f 309 88 144
f 144 22 309
f 309 22 125
f 17 140 125
f 125 140 309
f 89 143 140
f 140 143 309
f 53 128 145
f 145 128 310
f 128 48 310
f 310 48 146
f 49 147 146
f 146 147 310
f 147 54 310
f 310 54 145
f 73 132 129
f 129 132 311
f 132 80 311
f 311 80 148
f 81 149 148
f 148 149 311
f 149 74 311
f 311 74 129
f 74 149 130
f 130 149 312
f 149 81 312
f 312 81 151
f 82 152 151
f 151 152 312
f 152 96 312
f 312 96 130
f 153 58 313
f 313 58 154
f 80 131 154
f 154 131 313
f 131 79 313
f 313 79 134
f 26 153 134
f 134 153 313
f 155 9 314
f 314 9 156
f 26 133 156
f 156 133 314
f 133 25 314
f 314 25 135
f 6 155 135
f 135 155 314
f 6 136 157
f 157 136 315
f 136 53 315
f 315 53 145
f 54 158 145
f 145 158 315
f 158 7 315
f 315 7 157
f 92 137 138
f 138 137 316
f 93 138 159
f 159 138 316
f 93 160 139
f 139 160 317
f 160 94 317
f 317 94 161
f 18 162 161
f 161 162 317
f 89 139 162
f 162 139 317
f 87 164 163
f 163 164 318
f 164 4 318
f 318 4 141
f 22 144 141
f 141 144 318
f 144 88 318
f 318 88 163
f 48 142 146
f 146 142 319
f 142 4 319
f 319 4 165
f 5 166 165
f 165 166 319
f 166 49 319
f 319 49 146
f 88 143 167
f 167 143 320
f 143 89 320
f 320 89 162
f 18 168 162
f 162 168 320
f 168 21 320
f 320 21 167
f 54 147 169
f 169 147 321
f 147 49 321
f 321 49 170
f 50 171 170
f 170 171 321
f 171 55 321
f 321 55 169
f 148 80 322
f 322 80 154
f 58 172 154
f 154 172 322
f 172 27 322
f 322 27 173
f 173 81 322
f 322 81 148
f 96 152 150
f 150 152 323
f 152 82 323
f 323 82 174
f 90 175 174
f 174 175 323
f 175 97 323
f 323 97 150
f 177 82 324
f 324 82 151
f 81 173 151
f 151 173 324
f 27 178 173
f 173 178 324
f 178 64 324
f 324 64 177
f 179 59 325
f 325 59 180
f 58 153 180
f 180 153 325
f 153 26 325
f 325 26 156
f 9 179 156
f 156 179 325
f 181 8 326
f 326 8 182
f 9 155 182
f 182 155 326
f 155 6 326
f 326 6 157
f 7 181 157
f 157 181 326
f 158 54 327
f 327 54 169
f 55 183 169
f 169 183 327
f 183 46 327
f 327 46 184
f 7 158 184
f 184 158 327
f 160 93 328
f 328 93 159
f 94 160 185
f 185 160 328
f 95 187 186
f 186 187 329
f 20 188 187
f 187 188 329
f 188 18 329
f 329 18 161
f 94 186 161
f 161 186 329
f 3 190 189
f 189 190 330
f 190 87 330
f 330 87 163
f 88 167 163
f 163 167 330
f 167 21 330
f 330 21 189
f 164 87 331
f 331 87 191
f 86 192 191
f 191 192 331
f 192 5 331
f 331 5 165
f 4 164 165
f 165 164 331
f 49 166 170
f 170 166 332
f 166 5 332
f 332 5 193
f 47 194 193
f 193 194 332
f 194 50 332
f 332 50 170
f 168 18 333
f 333 18 188
f 20 195 188
f 188 195 333
f 195 19 333
f 333 19 196
f 21 168 196
f 196 168 333
f 55 171 197
f 197 171 334
f 171 50 334
f 334 50 198
f 51 199 198
f 198 199 334
f 199 56 334
f 334 56 197
f 59 200 180
f 180 200 335
f 200 14 335
f 335 14 201
f 27 172 201
f 201 172 335
f 172 58 335
f 335 58 180
f 177 64 336
f 336 64 202
f 1 203 202
f 202 203 336
f 203 90 336
f 336 90 174
f 82 177 174
f 174 177 336
f 204 20 337
f 337 20 187
f 95 176 187
f 187 176 337
f 97 175 176
f 176 175 337
f 175 90 337
f 337 90 204
f 64 178 205
f 205 178 338
f 178 27 338
f 338 27 201
f 14 206 201
f 201 206 338
f 65 205 206
f 206 205 338
f 207 60 339
f 339 60 208
f 59 179 208
f 208 179 339
f 179 9 339
f 339 9 182
f 8 207 182
f 182 207 339
f 181 7 340
f 340 7 184
f 46 209 184
f 184 209 340
f 209 45 340
f 340 45 210
f 8 181 210
f 210 181 340
f 183 55 341
f 341 55 197
f 56 211 197
f 197 211 341
f 211 32 341
f 341 32 212
f 46 183 212
f 212 183 341
f 213 3 342
f 342 3 189
f 189 21 342
f 342 21 196
f 19 214 196
f 196 214 342
f 214 10 342
f 342 10 213
f 87 190 191
f 191 190 343
f 190 3 343
f 343 3 215
f 2 216 215
f 215 216 343
f 216 86 343
f 343 86 191
f 192 86 344
f 344 86 217
f 85 218 217
f 217 218 344
f 218 47 344
f 344 47 193
f 5 192 193
f 193 192 344
f 50 194 198
f 198 194 345
f 194 47 345
f 345 47 219
f 31 220 219
f 219 220 345
f 220 51 345
f 345 51 198
f 19 195 221
f 221 195 346
f 195 20 346
f 346 20 204
f 90 203 204
f 204 203 346
f 203 1 346
f 346 1 221
f 52 223 222
f 222 223 347
f 223 57 347
f 347 57 224
f 56 199 224
f 224 199 347
f 199 51 347
f 347 51 222
f 208 60 348
f 348 60 225
f 15 226 225
f 225 226 348
f 14 200 226
f 226 200 348
f 200 59 348
f 348 59 208
f 205 65 349
f 349 65 227
f 12 228 227
f 227 228 349
f 228 1 349
f 349 1 202
f 64 205 202
f 202 205 349
f 229 65 350
f 350 65 206
f 14 226 206
f 206 226 350
f 226 15 350
f 350 15 230
f 66 229 230
f 230 229 350
f 60 207 231
f 231 207 351
f 207 8 351
f 351 8 210
f 45 232 210
f 210 232 351
f 61 231 232
f 232 231 351
f 209 46 352
f 352 46 212
f 32 233 212
f 212 233 352
f 33 234 233
f 233 234 352
f 45 209 234
f 234 209 352
f 57 235 224
f 224 235 353
f 235 38 353
f 353 38 236
f 32 211 236
f 236 211 353
f 211 56 353
f 353 56 224
f 10 237 213
f 213 237 354
f 237 11 354
f 354 11 238
f 238 2 354
f 354 2 215
f 3 213 215
f 215 213 354
f 10 214 239
f 239 214 355
f 214 19 355
f 355 19 221
f 1 228 221
f 221 228 355
f 228 12 355
f 355 12 239
f 86 216 217
f 217 216 356
f 216 2 356
f 356 2 240
f 41 241 240
f 240 241 356
f 241 85 356
f 356 85 217
f 218 85 357
f 357 85 242
f 84 243 242
f 242 243 357
f 243 31 357
f 357 31 219
f 47 218 219
f 219 218 357
f 39 245 244
f 244 245 358
f 245 52 358
f 358 52 222
f 51 220 222
f 222 220 358
f 220 31 358
f 358 31 244
f 60 231 225
f 225 231 359
f 231 61 359
f 359 61 246
f 44 247 246
f 246 247 359
f 247 15 359
f 359 15 225
f 229 66 360
f 360 66 248
f 13 249 248
f 248 249 360
f 249 12 360
f 360 12 227
f 65 229 227
f 227 229 360
f 250 66 361
f 361 66 230
f 15 247 230
f 230 247 361
f 247 44 361
f 361 44 251
f 67 250 251
f 251 250 361
f 252 61 362
f 362 61 232
f 45 234 232
f 232 234 362
f 234 33 362
f 362 33 253
f 62 252 253
f 253 252 362
f 37 255 254
f 254 255 363
f 255 33 363
f 363 33 233
f 233 32 363
f 363 32 236
f 38 254 236
f 236 254 363
f 12 249 239
f 239 249 364
f 249 13 364
f 364 13 256
f 11 237 256
f 256 237 364
f 237 10 364
f 364 10 239
f 11 257 238
f 238 257 365
f 42 258 257
f 257 258 365
f 258 41 365
f 365 41 240
f 2 238 240
f 240 238 365
f 85 241 242
f 242 241 366
f 241 41 366
f 366 41 259
f 30 260 259
f 259 260 366
f 260 84 366
f 366 84 242
f 31 243 244
f 244 243 367
f 243 84 367
f 367 84 261
f 83 262 261
f 261 262 367
f 262 39 367
f 367 39 244
f 61 252 246
f 246 252 368
f 252 62 368
f 368 62 263
f 36 264 263
f 263 264 368
f 264 44 368
f 368 44 246
f 66 250 248
f 248 250 369
f 250 67 369
f 369 67 265
f 43 266 265
f 265 266 369
f 266 13 369
f 369 13 248
f 267 67 370
f 370 67 251
f 44 264 251
f 251 264 370
f 264 36 370
f 370 36 268
f 68 267 268
f 268 267 370
f 63 270 269
f 269 270 371
f 270 62 371
f 371 62 253
f 33 255 253
f 253 255 371
f 255 37 371
f 371 37 269
f 13 266 256
f 256 266 372
f 266 43 372
f 372 43 271
f 42 257 271
f 271 257 372
f 257 11 372
f 372 11 256
f 258 42 373
f 373 42 272
f 34 273 272
f 272 273 373
f 273 30 373
f 373 30 259
f 41 258 259
f 259 258 373
f 84 260 261
f 261 260 374
f 260 30 374
f 374 30 274
f 40 275 274
f 274 275 374
f 275 83 374
f 374 83 261
f 270 63 375
f 375 63 276
f 28 277 276
f 276 277 375
f 277 36 375
f 375 36 263
f 62 270 263
f 263 270 375
f 278 43 376
f 376 43 265
f 67 267 265
f 265 267 376
f 267 68 376
f 376 68 279
f 35 278 279
f 279 278 376
f 36 277 268
f 268 277 377
f 277 28 377
f 377 28 280
f 69 281 280
f 280 281 377
f 68 268 281
f 281 268 377
f 43 278 271
f 271 278 378
f 278 35 378
f 378 35 282
f 282 34 378
f 378 34 272
f 42 271 272
f 272 271 378
f 283 40 379
f 379 40 274
f 30 273 274
f 274 273 379
f 273 34 379
f 379 34 284
f 29 283 284
f 284 283 379
f 279 68 380
f 380 68 281
f 69 285 281
f 281 285 380
f 285 70 380
f 380 70 286
f 35 279 286
f 286 279 380
f 284 34 381
f 381 34 282
f 35 286 282
f 282 286 381
f 286 70 381
f 381 70 287
f 29 284 287
f 287 284 381
f 285 69 382
f 288 70 382
f 382 70 285
f 287 70 383
f 383 70 288
f 29 287 289
f 289 287 383

