# https://github.com/mikedh/trimesh
v -0.13557232 0.06281928 -0.06990762
v -0.26579325 0.00400755 -0.07230051
v -0.21031449 -0.00504826 -0.07469451
v -0.20078483 -0.06333957 -0.03472602
v -0.25418609 -0.05623092 -0.04020403
v -0.17801599 -0.03188360 0.05639595
v -0.23678391 -0.03605898 0.04608714
v -0.23442258 -0.00796828 0.05971915
v -0.17403708 0.00202137 0.06671131
v -0.20768865 0.03892855 -0.07505058
v -0.26688321 0.04565389 -0.06755058
v -0.19545822 0.07619208 -0.04674723
v -0.25890784 0.07731463 -0.03427148
v -0.17580094 0.06749527 0.03366265
v -0.23842524 0.05641705 0.04087880
v -0.07523657 -0.09140023 -0.01202760
v -0.09367436 -0.07541229 -0.05251971
v -0.08532543 -0.01818786 -0.10287214
v -0.14808000 0.02521113 -0.08778280
v -0.08348523 0.01497840 -0.11193390
v -0.15079743 -0.01429672 -0.08415757
v -0.14662209 -0.07062387 -0.03772705
v -0.13732161 -0.07577289 0.00310201
v -0.12774975 -0.06006952 0.04080006
v -0.11811147 -0.02828381 0.06577139
v -0.11159782 0.01417546 0.07039600
v -0.11683772 0.07816650 0.01335902
v -0.42898377 0.02068392 0.05112488
v -0.43925409 0.04772324 -0.04066689
v -0.38374876 0.00811811 -0.06133104
v -0.36600103 -0.04023169 -0.04024002
v -0.35410243 -0.04681526 0.03725619
v -0.35721984 -0.02520096 0.05519813
v -0.39241774 0.04491435 -0.04952332
v -0.38718100 0.06587787 -0.01141964
v -0.37401534 0.03271235 0.04740980
v -0.42597294 -0.03702374 0.05917964
v -0.42761848 -0.05547734 0.03813882
v -0.44169118 -0.03608902 -0.03161579
v -0.44335340 0.00652769 -0.05954695
v -0.32425335 0.00999987 -0.06656550
v -0.32917734 0.04772536 -0.05661468
v -0.32585095 0.07357899 -0.02183725
v -0.30634022 0.04695226 0.04466052
v -0.29562300 -0.01549854 0.05608844
v -0.29542238 -0.04174605 0.04082719
v -0.30986079 -0.04821519 -0.04380588
v -0.19242680 -0.07043866 0.00061011
v -0.24721851 -0.06722084 -0.00723728
v -0.30400785 -0.06356733 -0.01377261
v -0.36178550 -0.05380635 -0.01562513
v -0.43747641 -0.04741252 -0.01095843
v -0.18434754 -0.05715311 0.03216165
v -0.24112632 -0.05732687 0.02347854
v -0.29883682 -0.05938395 0.01678710
v -0.35665863 -0.05686919 0.01148485
v -0.43162848 -0.05680293 0.01155152
v -0.11119160 0.05309801 0.05075772
v -0.17296004 0.03745535 0.05838475
v -0.23459451 0.02508745 0.05865213
v -0.29944622 0.01582278 0.05772597
v -0.36520491 0.00338076 0.05837305
v -0.42698369 -0.00843630 0.06214696
v -0.12424816 0.08354705 -0.03275880
v -0.18343254 0.08395327 -0.00366988
v -0.24768021 0.07734600 0.00818583
v -0.31609218 0.07004365 0.01656309
v -0.37972531 0.05795944 0.02425218
v -0.43075425 0.05034898 0.02936138
v -0.42416107 0.05905278 -0.00297810
v -0.02043237 -0.03281973 0.06146175
v -0.01345699 0.01843884 0.05585307
v -0.01003929 0.06136188 0.02359061
v 0.00152234 0.10312992 -0.03134090
v -0.02329449 -0.07485054 0.03716129
v -0.01514650 -0.09771745 -0.00459636
v -0.07214340 -0.06725384 0.04315554
v -0.06143714 -0.02778581 0.06785563
v -0.05246726 0.02072286 0.06424221
v -0.05386251 0.06054518 0.03060500
v -0.06166242 0.08524284 -0.01722176
v -0.07080367 0.08149128 -0.06886410
v -0.44391871 -0.02012751 -0.04891559
v -0.37321475 -0.01892890 -0.05549218
v -0.31676578 -0.02085467 -0.06127663
v -0.26048409 -0.02878398 -0.06214500
v -0.20657634 -0.03705154 -0.06071055
v -0.14985719 -0.04508248 -0.06800361
v -0.08952046 -0.04853693 -0.08402994
v -0.07912179 0.05015351 -0.10121038
v -0.02924296 -0.11210305 -0.05909491
v -0.04836332 -0.09741795 -0.08765835
v -0.04360404 -0.07118806 -0.11859016
v -0.03483828 -0.04468899 -0.14559531
v -0.03423470 -0.00476899 -0.17460903
v -0.02247597 0.10164042 -0.10195921
v -0.03922172 0.06059251 -0.14540738
v -0.02162670 -0.08864091 0.01725961
v -0.00179712 -0.07423215 0.04118464
v -0.02283387 -0.05603206 0.05206959
v -0.00359957 -0.03232572 0.06270594
v -0.00280166 -0.10469817 -0.02293128
v -0.07634800 -0.08140773 0.02023629
v -0.04657097 -0.07165801 0.03848376
v -0.04273233 -0.09636773 -0.00905273
v -0.01676649 -0.00693028 0.06250807
v 0.00149298 0.01677065 0.05903426
v -0.06688944 -0.04960680 0.05878320
v -0.03854766 -0.03051223 0.06350654
v -0.00917914 -0.11405009 -0.04857941
v -0.05116506 -0.10133133 -0.03874026
v -0.09980325 -0.06316359 0.04312232
v -0.10885519 -0.08161771 -0.00206499
v -0.13257204 -0.07020438 0.02228794
v -0.01210861 0.04115158 0.04179852
v 0.00813968 0.06117242 0.03495289
v -0.05629342 -0.00359982 0.06971093
v -0.03001393 0.01983135 0.05780277
v -0.12261828 -0.04601835 0.05593339
v -0.08908333 -0.02723472 0.06836880
v -0.04228779 -0.10670918 -0.07242161
v -0.06886243 -0.08390059 -0.06991938
v -0.08957684 -0.08635901 -0.03368247
v -0.14255509 -0.07616073 -0.01741441
v -0.11920963 -0.07255345 -0.04353676
v -0.15576877 -0.05796126 0.03618760
v -0.16449999 -0.07286679 0.00195779
v -0.18829708 -0.06570914 0.01719376
v -0.00633849 0.08180184 0.00092925
v -0.01113217 0.10820616 -0.07077348
v -0.05200963 0.04253188 0.05026098
v -0.03051069 0.06092768 0.02221884
v -0.11443781 -0.00767313 0.07091085
v -0.08140978 0.01865447 0.06806919
v -0.14784432 -0.02988287 0.06124198
v -0.18088945 -0.04576329 0.04536603
v -0.02752078 -0.11444403 -0.10368938
v -0.04788945 -0.08482974 -0.10355348
v -0.06332316 -0.05608723 -0.09907128
v -0.09207680 -0.06287445 -0.07014222
v -0.17355558 -0.06750033 -0.03499590
v -0.19662356 -0.06962975 -0.01725612
v -0.11919297 -0.04677223 -0.07523659
v -0.14905243 -0.05953281 -0.05464500
v -0.21274140 -0.05684121 0.02764428
v -0.21951854 -0.06849414 -0.00314265
v -0.24409169 -0.06426521 0.00892026
v -0.05721192 0.07522516 0.00803169
v -0.03283257 0.09171979 -0.02992732
v -0.03315966 0.08467742 -0.12668077
v -0.06639840 0.08815969 -0.04243595
v -0.04728826 0.08867445 -0.08523604
v -0.11051335 0.03489116 0.06320952
v -0.08085606 0.05845276 0.04097969
v -0.17567658 -0.01559788 0.06388785
v -0.14286717 0.00849063 0.06948272
v -0.20769088 -0.03349825 0.05049522
v -0.23867769 -0.04762728 0.03581817
v -0.02599488 -0.09051168 -0.13640070
v -0.03800634 -0.05743566 -0.13291616
v -0.05436878 -0.02831757 -0.12418485
v -0.08704161 -0.03326187 -0.09454407
v -0.17803857 -0.04206725 -0.06433081
v -0.20418020 -0.05180279 -0.04969306
v -0.22710391 -0.05976340 -0.03725391
v -0.25068687 -0.06458053 -0.02419893
v -0.15026134 -0.03027780 -0.07767484
v -0.11837227 -0.01624131 -0.09298302
v -0.26982904 -0.05839567 0.02013261
v -0.27553767 -0.06588578 -0.01069285
v -0.30138170 -0.06359862 0.00196406
v -0.11365461 0.06767450 0.03456849
v -0.08891972 0.08200499 -0.00194103
v -0.07577829 0.06754462 -0.08800725
v -0.05788752 0.05249058 -0.12217569
v -0.04063550 0.03239870 -0.16017982
v -0.09612300 0.08144151 -0.05188523
v -0.12057709 0.08412972 -0.00831356
v -0.17321208 0.02000709 0.06487414
v -0.14219067 0.04575203 0.05521172
v -0.23537915 -0.02294830 0.05432184
v -0.20443236 -0.00312371 0.06267822
v -0.29673066 -0.05181621 0.02981723
v -0.26600050 -0.03875471 0.04327079
v -0.01879167 -0.06538715 -0.16656384
v -0.03446606 -0.02905157 -0.15850741
v -0.05717425 0.00713468 -0.13699803
v -0.08403651 -0.00213215 -0.10946613
v -0.17975778 -0.01076532 -0.07983287
v -0.20861151 -0.02176983 -0.06864761
v -0.23300210 -0.03322281 -0.06128892
v -0.25747358 -0.04362308 -0.05297331
v -0.28193426 -0.05265733 -0.04249299
v -0.30682560 -0.05819656 -0.02964426
v -0.11646876 0.01980702 -0.09861396
v -0.15053176 0.00402284 -0.08872944
v -0.32750346 -0.05876622 0.01413059
v -0.33241442 -0.05966295 -0.01531448
v -0.35902586 -0.05677817 -0.00225726
v -0.17374288 0.05365077 0.04780000
v -0.14586708 0.07331013 0.02525443
v -0.12943573 0.07584091 -0.05401607
v -0.10631144 0.05524908 -0.08573958
v -0.08185662 0.03259720 -0.10903662
v -0.15236196 0.08490638 -0.01770504
v -0.17915433 0.07789233 0.01652433
v -0.23410179 0.00826857 0.06137123
v -0.20351263 0.03088053 0.05851440
v -0.29511730 -0.02963640 0.04987224
v -0.26486325 -0.01178547 0.05762651
v -0.35476222 -0.05342493 0.02493458
v -0.32488375 -0.04395635 0.03896476
v -0.21050220 0.01547997 -0.07766238
v -0.17599062 0.03191467 -0.08251677
v -0.23762590 -0.00046480 -0.07409406
v -0.26328235 -0.01327504 -0.06845551
v -0.28843717 -0.02492628 -0.06223289
v -0.31319406 -0.03518163 -0.05440284
v -0.33738114 -0.04374608 -0.04313256
v -0.36357963 -0.04818206 -0.02873817
v -0.14238235 0.04563877 -0.08135050
v -0.39728524 -0.04958532 -0.01302940
v -0.43454475 -0.05258253 -0.00026022
v -0.39067088 -0.05663399 0.01029583
v -0.23583830 0.04155192 0.05176989
v -0.20644250 0.06184540 0.03755915
v -0.18901628 0.08386197 -0.02545569
v -0.16333855 0.07050494 -0.05931754
v -0.21474366 0.08083425 0.00258019
v -0.24234346 0.06871227 0.02624014
v -0.26662233 0.02050030 0.05824989
v -0.29715856 -0.00012156 0.05880234
v -0.35495798 -0.03731739 0.04771551
v -0.32670180 -0.01933115 0.05506535
v -0.42933858 -0.05820350 0.02472156
v -0.38725597 -0.05269103 0.03620280
v -0.23670783 0.04320726 -0.07224392
v -0.26719551 0.02373513 -0.07281589
v -0.20209062 0.06069964 -0.06418222
v -0.29453401 0.00730568 -0.06963056
v -0.32049468 -0.00612796 -0.06524277
v -0.34491091 -0.01859650 -0.05889160
v -0.36917856 -0.03010193 -0.04901984
v -0.40287286 -0.03924633 -0.03504624
v -0.43989411 -0.04183352 -0.02131198
v -0.30259218 0.03163608 0.05307417
v -0.27177409 0.05187817 0.04289308
v -0.25338723 0.08078834 -0.01227303
v -0.22636130 0.07767891 -0.04069206
v -0.28160559 0.07404039 0.01222515
v -0.31049066 0.06016785 0.03216228
v -0.33295845 0.01078947 0.05732868
v -0.36074019 -0.01124130 0.05877525
v -0.42647483 -0.04832982 0.05031771
v -0.38932315 -0.03399672 0.05636626
v -0.26375997 0.06518244 -0.05423798
v -0.29780032 0.04649370 -0.06234876
v -0.32749497 0.02841780 -0.06453520
v -0.35423829 0.01028408 -0.06375879
v -0.37829296 -0.00645796 -0.05995962
v -0.40826616 -0.02291912 -0.05211160
v -0.44304015 -0.02908944 -0.04086695
v -0.36985166 0.01813078 0.05441769
v -0.34103727 0.04092779 0.04578637
v -0.32138436 0.07496588 -0.00157316
v -0.29237842 0.07558756 -0.02901788
v -0.34958972 0.06486315 0.02048278
v -0.37727306 0.04662930 0.03751740
v -0.42613209 -0.02314382 0.06322672
v -0.39613108 -0.00592746 0.06033513
v -0.32875508 0.06410688 -0.04185114
v -0.36138441 0.04749313 -0.05257023
v -0.38918845 0.02556843 -0.05920311
v -0.41352418 0.00349478 -0.06066741
v -0.44391066 -0.00860300 -0.05563786
v -0.42820433 0.00615699 0.05748752
v -0.40349067 0.02271616 0.04836614
v -0.35812839 0.07034547 -0.01626854
v -0.38344809 0.06489631 0.00771269
v -0.42964792 0.03540247 0.04284503
v -0.40676824 0.04974161 0.02758317
v -0.39109050 0.05950721 -0.03152007
v -0.44193624 0.02597106 -0.05740110
v -0.41765475 0.04135947 -0.04604714
v -0.42379499 0.05671935 0.01330894
v -0.40910240 0.06101671 -0.00645084
v -0.42789126 0.05631312 -0.02085132
v -0.43374567 0.06010311 -0.00208886
v -0.44530528 0.05971518 -0.02005068
v 0.00277457 -0.08754729 0.02325042
v -0.00414354 -0.05541448 0.05496195
v -0.04795415 -0.08599332 0.01679277
v -0.00155031 -0.00758337 0.06424834
v -0.04312544 -0.05310724 0.05411316
v -0.02838627 -0.10467290 -0.03144564
v -0.10502958 -0.07544531 0.02191740
v 0.00374995 0.03979965 0.04852723
v -0.03354944 -0.00509160 0.06480105
v -0.09419514 -0.04706188 0.05909586
v -0.06422665 -0.09493078 -0.05335164
v -0.11498473 -0.07998825 -0.02371059
v -0.16008902 -0.06742913 0.01984749
v -0.03004255 0.04208186 0.04278276
v -0.08473031 -0.00465720 0.07158288
v -0.15162910 -0.04557925 0.05042402
v -0.01888526 -0.12168589 -0.08885274
v -0.06690876 -0.07002850 -0.08455115
v -0.16909399 -0.07302565 -0.01688119
v -0.12017781 -0.06113160 -0.06125526
v -0.21597329 -0.06464296 0.01308394
v -0.03114879 0.07802647 -0.00204228
v -0.03914355 0.09606792 -0.05838909
v -0.07988718 0.04028776 0.05766736
v -0.14481897 -0.01133375 0.06799115
v -0.20990362 -0.04608548 0.04014877
v -0.02847308 -0.10324353 -0.12108528
v -0.05759367 -0.04174290 -0.11288809
v -0.17695960 -0.05638279 -0.05080689
v -0.22331671 -0.06704860 -0.02049119
v -0.11818311 -0.03171456 -0.08554315
v -0.27259641 -0.06421850 0.00539723
v -0.08443112 0.07255521 0.02068851
v -0.05418717 0.07325641 -0.10682546
v -0.09287424 0.08576138 -0.02550495
v -0.14210430 0.02795066 0.06474504
v -0.20584356 -0.01910623 0.05839150
v -0.26750526 -0.04958427 0.03271884
v -0.02188337 -0.07762281 -0.15117448
v -0.05529327 -0.01264485 -0.13262943
v -0.17931500 -0.02703636 -0.07303060
v -0.23031050 -0.04782721 -0.05105071
v -0.27877587 -0.06194020 -0.02725875
v -0.11830601 0.00082479 -0.09796723
v -0.32980006 -0.06115116 -0.00047242
v -0.14341613 0.06107010 0.04170795
v -0.10089987 0.07028083 -0.07166085
v -0.05844030 0.02989076 -0.13228056
v -0.14874241 0.08163588 0.00446109
v -0.20366624 0.01379831 0.06279229
v -0.26506938 -0.02621613 0.05174943
v -0.32582217 -0.05279514 0.02737704
v -0.17925540 0.00888492 -0.08365815
v -0.23539140 -0.01781901 -0.06870264
v -0.28516971 -0.03964670 -0.05427893
v -0.33455968 -0.05340519 -0.03018416
v -0.11205615 0.03834556 -0.09435627
v -0.39381479 -0.05393871 -0.00177468
v -0.20424836 0.04716585 0.05005512
v -0.15748808 0.08121730 -0.03991485
v -0.21001323 0.07338225 0.02165695
v -0.26529700 0.00405035 0.05999717
v -0.32515362 -0.03270452 0.04842840
v -0.38828139 -0.05656152 0.02327085
v -0.23847504 0.02002755 -0.07618667
v -0.17004622 0.05375634 -0.07379686
v -0.29159513 -0.00956891 -0.06732993
v -0.34088970 -0.03176013 -0.05272794
v -0.40025325 -0.04485606 -0.02428812
v -0.26865400 0.03671091 0.05250513
v -0.22031658 0.08300926 -0.01855709
v -0.27593272 0.06467202 0.02923684
v -0.32934395 -0.00446298 0.05804913
v -0.38762652 -0.04509333 0.04777382
v -0.23218178 0.06400557 -0.05969256
v -0.29696428 0.02628062 -0.06863343
v -0.34947505 -0.00487320 -0.06254593
v -0.40557891 -0.03197586 -0.04450053
v -0.33696581 0.02599015 0.05330529
v -0.28732433 0.07826607 -0.00749651
v -0.34481163 0.05440768 0.03465552
v -0.39224708 -0.02047304 0.06073660
v -0.29614800 0.06429023 -0.04888026
v -0.35862079 0.02813382 -0.06151257
v -0.41082696 -0.01130331 -0.05767915
v -0.40028542 0.00864117 0.05583045
v -0.35417705 0.07061379 0.00326171
v -0.40578739 0.03687457 0.03951068
v -0.36113028 0.06290387 -0.03607826
v -0.41675456 0.02194020 -0.05790741
v -0.40686591 0.05884698 0.01186221
v -0.41365169 0.05571141 -0.02686152
v -0.43254556 0.05894767 0.00960472
v -0.43492486 0.05868475 -0.01470396
f 75 98 99
f 99 98 290
f 98 76 290
f 101 71 291
f 291 71 100
f 75 99 100
f 100 99 291
f 76 98 105
f 105 98 292
f 75 104 98
f 98 104 292
f 104 77 292
f 292 77 103
f 16 105 103
f 103 105 292
f 107 72 293
f 293 72 106
f 71 101 106
f 106 101 293
f 109 78 294
f 294 78 108
f 77 104 108
f 108 104 294
f 104 75 294
f 294 75 100
f 71 109 100
f 100 109 294
f 111 91 295
f 295 91 110
f 110 102 295
f 102 76 295
f 295 76 105
f 16 111 105
f 105 111 295
f 23 113 114
f 114 113 296
f 113 16 296
f 296 16 103
f 77 112 103
f 103 112 296
f 112 24 296
f 296 24 114
f 73 115 116
f 116 115 297
f 72 107 115
f 115 107 297
f 109 71 298
f 298 71 106
f 72 118 106
f 106 118 298
f 118 79 298
f 298 79 117
f 78 109 117
f 117 109 298
f 120 25 299
f 299 25 119
f 24 112 119
f 119 112 299
f 112 77 299
f 299 77 108
f 78 120 108
f 108 120 299
f 17 122 123
f 123 122 300
f 122 92 300
f 300 92 121
f 91 111 121
f 121 111 300
f 111 16 300
f 300 16 123
f 125 17 301
f 301 17 123
f 16 113 123
f 123 113 301
f 113 23 301
f 301 23 124
f 22 125 124
f 124 125 301
f 48 127 128
f 128 127 302
f 127 23 302
f 302 23 114
f 24 126 114
f 114 126 302
f 126 53 302
f 302 53 128
f 118 72 303
f 303 72 115
f 115 73 303
f 303 73 132
f 132 80 303
f 303 80 131
f 79 118 131
f 131 118 303
f 120 78 304
f 304 78 117
f 79 134 117
f 117 134 304
f 134 26 304
f 304 26 133
f 25 120 133
f 133 120 304
f 53 126 136
f 136 126 305
f 126 24 305
f 305 24 119
f 25 135 119
f 119 135 305
f 135 6 305
f 305 6 136
f 306 91 121
f 121 92 306
f 306 92 137
f 140 89 307
f 307 89 139
f 139 93 307
f 307 93 138
f 92 122 138
f 138 122 307
f 122 17 307
f 307 17 140
f 4 141 142
f 142 141 308
f 141 22 308
f 308 22 124
f 23 127 124
f 124 127 308
f 127 48 308
f 308 48 142
f 17 125 140
f 140 125 309
f 125 22 309
f 309 22 144
f 144 88 309
f 309 88 143
f 89 140 143
f 143 140 309
f 49 146 147
f 147 146 310
f 146 48 310
f 310 48 128
f 53 145 128
f 128 145 310
f 145 54 310
f 310 54 147
f 81 148 149
f 149 148 311
f 148 80 311
f 311 80 132
f 73 129 132
f 132 129 311
f 129 74 311
f 311 74 149
f 82 151 152
f 152 151 312
f 151 81 312
f 312 81 149
f 74 130 149
f 149 130 312
f 130 96 312
f 312 96 152
f 134 79 313
f 313 79 131
f 80 154 131
f 131 154 313
f 154 58 313
f 313 58 153
f 26 134 153
f 153 134 313
f 135 25 314
f 314 25 133
f 26 156 133
f 133 156 314
f 156 9 314
f 314 9 155
f 6 135 155
f 155 135 314
f 54 145 158
f 158 145 315
f 145 53 315
f 315 53 136
f 6 157 136
f 136 157 315
f 157 7 315
f 315 7 158
f 92 138 137
f 137 138 316
f 93 159 138
f 138 159 316
f 18 161 162
f 162 161 317
f 161 94 317
f 317 94 160
f 93 139 160
f 160 139 317
f 89 162 139
f 139 162 317
f 22 141 144
f 144 141 318
f 141 4 318
f 318 4 164
f 87 163 164
f 164 163 318
f 163 88 318
f 318 88 144
f 5 165 166
f 166 165 319
f 165 4 319
f 319 4 142
f 48 146 142
f 142 146 319
f 146 49 319
f 319 49 166
f 18 162 168
f 168 162 320
f 162 89 320
f 320 89 143
f 88 167 143
f 143 167 320
f 167 21 320
f 320 21 168
f 50 170 171
f 171 170 321
f 170 49 321
f 321 49 147
f 54 169 147
f 147 169 321
f 169 55 321
f 321 55 171
f 173 27 322
f 322 27 172
f 58 154 172
f 172 154 322
f 154 80 322
f 322 80 148
f 148 81 322
f 322 81 173
f 90 174 175
f 175 174 323
f 174 82 323
f 323 82 152
f 96 150 152
f 152 150 323
f 150 97 323
f 323 97 175
f 27 173 178
f 178 173 324
f 81 151 173
f 173 151 324
f 151 82 324
f 324 82 177
f 177 64 324
f 324 64 178
f 156 26 325
f 325 26 153
f 58 180 153
f 153 180 325
f 180 59 325
f 325 59 179
f 9 156 179
f 179 156 325
f 157 6 326
f 326 6 155
f 9 182 155
f 155 182 326
f 182 8 326
f 326 8 181
f 7 157 181
f 181 157 326
f 184 46 327
f 327 46 183
f 55 169 183
f 183 169 327
f 169 54 327
f 327 54 158
f 7 184 158
f 158 184 327
f 159 93 328
f 328 93 160
f 94 185 160
f 160 185 328
f 161 18 329
f 329 18 188
f 20 187 188
f 188 187 329
f 95 186 187
f 187 186 329
f 94 161 186
f 186 161 329
f 88 163 167
f 167 163 330
f 163 87 330
f 330 87 190
f 3 189 190
f 190 189 330
f 189 21 330
f 330 21 167
f 165 5 331
f 331 5 192
f 86 191 192
f 192 191 331
f 191 87 331
f 331 87 164
f 4 165 164
f 164 165 331
f 47 193 194
f 194 193 332
f 193 5 332
f 332 5 166
f 49 170 166
f 166 170 332
f 170 50 332
f 332 50 194
f 196 19 333
f 333 19 195
f 20 188 195
f 195 188 333
f 188 18 333
f 333 18 168
f 21 196 168
f 168 196 333
f 51 198 199
f 199 198 334
f 198 50 334
f 334 50 171
f 55 197 171
f 171 197 334
f 197 56 334
f 334 56 199
f 27 201 172
f 172 201 335
f 201 14 335
f 335 14 200
f 59 180 200
f 200 180 335
f 180 58 335
f 335 58 172
f 174 90 336
f 336 90 203
f 1 202 203
f 203 202 336
f 202 64 336
f 336 64 177
f 82 174 177
f 177 174 336
f 97 176 175
f 175 176 337
f 95 187 176
f 176 187 337
f 187 20 337
f 337 20 204
f 204 90 337
f 337 90 175
f 14 201 206
f 206 201 338
f 201 27 338
f 338 27 178
f 64 205 178
f 178 205 338
f 65 206 205
f 205 206 338
f 182 9 339
f 339 9 179
f 59 208 179
f 179 208 339
f 208 60 339
f 339 60 207
f 8 182 207
f 207 182 339
f 210 45 340
f 340 45 209
f 46 184 209
f 209 184 340
f 184 7 340
f 340 7 181
f 8 210 181
f 181 210 340
f 212 32 341
f 341 32 211
f 56 197 211
f 211 197 341
f 197 55 341
f 341 55 183
f 46 212 183
f 183 212 341
f 19 196 214
f 214 196 342
f 196 21 342
f 342 21 189
f 189 3 342
f 342 3 213
f 213 10 342
f 342 10 214
f 2 215 216
f 216 215 343
f 215 3 343
f 343 3 190
f 87 191 190
f 190 191 343
f 191 86 343
f 343 86 216
f 193 47 344
f 344 47 218
f 85 217 218
f 218 217 344
f 217 86 344
f 344 86 192
f 5 193 192
f 192 193 344
f 31 219 220
f 220 219 345
f 219 47 345
f 345 47 194
f 50 198 194
f 194 198 345
f 198 51 345
f 345 51 220
f 90 204 203
f 203 204 346
f 204 20 346
f 346 20 195
f 19 221 195
f 195 221 346
f 221 1 346
f 346 1 203
f 56 224 199
f 199 224 347
f 224 57 347
f 347 57 223
f 52 222 223
f 223 222 347
f 222 51 347
f 347 51 199
f 14 226 200
f 200 226 348
f 15 225 226
f 226 225 348
f 225 60 348
f 348 60 208
f 208 59 348
f 348 59 200
f 202 1 349
f 349 1 228
f 12 227 228
f 228 227 349
f 227 65 349
f 349 65 205
f 64 202 205
f 205 202 349
f 230 15 350
f 350 15 226
f 14 206 226
f 226 206 350
f 206 65 350
f 350 65 229
f 66 230 229
f 229 230 350
f 45 210 232
f 232 210 351
f 210 8 351
f 351 8 207
f 60 231 207
f 207 231 351
f 61 232 231
f 231 232 351
f 33 233 234
f 234 233 352
f 32 212 233
f 233 212 352
f 212 46 352
f 352 46 209
f 45 234 209
f 209 234 352
f 32 236 211
f 211 236 353
f 236 38 353
f 353 38 235
f 57 224 235
f 235 224 353
f 224 56 353
f 353 56 211
f 215 2 354
f 354 2 238
f 238 11 354
f 354 11 237
f 10 213 237
f 237 213 354
f 3 215 213
f 213 215 354
f 1 221 228
f 228 221 355
f 221 19 355
f 355 19 214
f 10 239 214
f 214 239 355
f 239 12 355
f 355 12 228
f 41 240 241
f 241 240 356
f 240 2 356
f 356 2 216
f 86 217 216
f 216 217 356
f 217 85 356
f 356 85 241
f 219 31 357
f 357 31 243
f 84 242 243
f 243 242 357
f 242 85 357
f 357 85 218
f 47 219 218
f 218 219 357
f 51 222 220
f 220 222 358
f 222 52 358
f 358 52 245
f 39 244 245
f 245 244 358
f 244 31 358
f 358 31 220
f 44 246 247
f 247 246 359
f 246 61 359
f 359 61 231
f 60 225 231
f 231 225 359
f 225 15 359
f 359 15 247
f 227 12 360
f 360 12 249
f 13 248 249
f 249 248 360
f 248 66 360
f 360 66 229
f 65 227 229
f 229 227 360
f 251 44 361
f 361 44 247
f 15 230 247
f 247 230 361
f 230 66 361
f 361 66 250
f 67 251 250
f 250 251 361
f 253 33 362
f 362 33 234
f 45 232 234
f 234 232 362
f 232 61 362
f 362 61 252
f 62 253 252
f 252 253 362
f 236 32 363
f 363 32 233
f 233 33 363
f 363 33 255
f 37 254 255
f 255 254 363
f 38 236 254
f 254 236 363
f 11 256 237
f 237 256 364
f 256 13 364
f 364 13 249
f 12 239 249
f 249 239 364
f 239 10 364
f 364 10 237
f 240 41 365
f 365 41 258
f 42 257 258
f 258 257 365
f 11 238 257
f 257 238 365
f 2 240 238
f 238 240 365
f 30 259 260
f 260 259 366
f 259 41 366
f 366 41 241
f 85 242 241
f 241 242 366
f 242 84 366
f 366 84 260
f 83 261 262
f 262 261 367
f 261 84 367
f 367 84 243
f 31 244 243
f 243 244 367
f 244 39 367
f 367 39 262
f 36 263 264
f 264 263 368
f 263 62 368
f 368 62 252
f 61 246 252
f 252 246 368
f 246 44 368
f 368 44 264
f 43 265 266
f 266 265 369
f 265 67 369
f 369 67 250
f 66 248 250
f 250 248 369
f 248 13 369
f 369 13 266
f 268 36 370
f 370 36 264
f 44 251 264
f 264 251 370
f 251 67 370
f 370 67 267
f 68 268 267
f 267 268 370
f 33 253 255
f 255 253 371
f 253 62 371
f 371 62 270
f 63 269 270
f 270 269 371
f 269 37 371
f 371 37 255
f 42 271 257
f 257 271 372
f 271 43 372
f 372 43 266
f 13 256 266
f 266 256 372
f 256 11 372
f 372 11 257
f 259 30 373
f 373 30 273
f 34 272 273
f 273 272 373
f 272 42 373
f 373 42 258
f 41 259 258
f 258 259 373
f 40 274 275
f 275 274 374
f 274 30 374
f 374 30 260
f 84 261 260
f 260 261 374
f 261 83 374
f 374 83 275
f 263 36 375
f 375 36 277
f 28 276 277
f 277 276 375
f 276 63 375
f 375 63 270
f 62 263 270
f 270 263 375
f 279 68 376
f 376 68 267
f 67 265 267
f 267 265 376
f 265 43 376
f 376 43 278
f 35 279 278
f 278 279 376
f 69 280 281
f 281 280 377
f 280 28 377
f 377 28 277
f 36 268 277
f 277 268 377
f 68 281 268
f 268 281 377
f 272 34 378
f 378 34 282
f 282 35 378
f 378 35 278
f 43 271 278
f 278 271 378
f 42 272 271
f 271 272 378
f 284 34 379
f 379 34 273
f 30 274 273
f 273 274 379
f 274 40 379
f 379 40 283
f 29 284 283
f 283 284 379
f 286 70 380
f 380 70 285
f 69 281 285
f 285 281 380
f 281 68 380
f 380 68 279
f 35 286 279
f 279 286 380
f 287 70 381
f 381 70 286
f 35 282 286
f 286 282 381
f 282 34 381
f 381 34 284
f 29 287 284
f 284 287 381
f 382 69 285
f 285 70 382
f 382 70 288
f 288 70 383
f 383 70 287
f 29 289 287
f 287 289 383

