# https://github.com/mikedh/trimesh
v -0.02246691 -0.04299357 -0.00533349
v -0.03231303 -0.05555649 -0.03164243
v -0.12637506 0.11698651 0.09670123
v -0.07288504 0.07421378 0.11717109
v -0.13691256 0.08968919 0.09297997
v -0.07578708 0.04318035 0.09237550
v -0.13299469 0.04245039 0.06828157
v -0.12257948 0.02127972 0.05410708
v -0.07073167 -0.02749146 0.01079539
v -0.08801445 -0.03757714 -0.01000473
v -0.15382324 0.01248862 0.03838258
v -0.16919195 0.03258775 0.06041301
v -0.17515103 0.09716653 0.08093718
v -0.16197831 0.13122961 0.07730945
v -0.07642372 0.05892401 0.10510692
v -0.13889800 0.06478497 0.08234297
v -0.17717715 0.06262012 0.07558001
v -0.10245175 0.18813949 0.05493879
v -0.10564215 0.14270128 0.09250161
v -0.13759478 0.16358448 0.06770034
v -0.09497271 0.02796652 0.06483037
v -0.10146174 0.04491006 0.07904019
v -0.10446569 0.06211991 0.09222423
v -0.10235552 0.08139721 0.10318901
v -0.09389163 0.10264830 0.10911200
v -0.07784418 0.12270577 0.11008086
v -0.04761735 -0.03659999 0.00159266
v -0.06114395 -0.04800957 -0.02200601
v -0.10907025 -0.05235330 -0.03705356
v -0.20617011 0.01521003 0.04744126
v -0.21240154 0.05372776 0.06726037
v -0.20900604 0.09888510 0.06463476
v -0.17426806 0.18015084 0.02608149
v -0.04364134 -0.07268949 -0.06388526
v -0.07732710 -0.06429871 -0.05193114
v -0.06276983 -0.11434368 -0.13692748
v -0.10977045 -0.10298039 -0.12147386
v -0.15278166 -0.08125701 -0.10480356
v -0.13157380 -0.12114272 -0.16282860
v -0.17548923 -0.08683281 -0.14399766
v -0.19855587 0.14172537 0.04995100
v -0.24483331 0.04993769 0.06146193
v -0.23785794 0.10119626 0.05585325
v -0.23444023 0.14411929 0.02359078
v -0.22287861 0.18588733 -0.03134071
v -0.05349333 -0.09247902 -0.09944934
v -0.09310667 -0.08334414 -0.08586087
v -0.13121733 -0.06807075 -0.06942036
v -0.24769544 0.00790686 0.03716147
v -0.19103764 -0.00578470 0.01634694
v -0.23954745 -0.01496005 -0.00459619
v -0.13224419 0.20960382 0.00620619
v -0.19469299 -0.07780798 -0.18566783
v -0.09106128 -0.01507297 0.02310035
v -0.11212557 -0.02334095 0.00417951
v -0.13849137 -0.03634824 -0.02098515
v -0.17092531 -0.04871766 -0.05507237
v -0.20315486 -0.05519963 -0.08754645
v -0.22697621 -0.04930471 -0.12045846
v -0.23341830 -0.03067958 -0.15289186
v -0.10864145 0.00181059 0.03824280
v -0.13423261 -0.00546136 0.01971853
v -0.16819028 -0.01887888 -0.00658366
v -0.21091902 -0.02973323 -0.03672660
v -0.25364391 -0.02934564 -0.05909473
v -0.27276426 -0.01466053 -0.08765817
v -0.26800499 0.01156935 -0.11858998
v -0.25863562 0.07798840 -0.17460885
v -0.08605860 0.01048239 0.05090466
v -0.03569724 -0.02570025 0.02226945
v -0.05526894 -0.01728246 0.02891193
v -0.07234983 -0.00541366 0.03883884
v -0.24687691 0.18439782 -0.10195904
v -0.26362266 0.14334993 -0.14540719
v -0.07100880 0.02878339 0.08022635
v -0.16399221 0.22049292 -0.06027380
v -0.09993777 0.24108342 -0.08004865
v -0.21715012 0.16992396 -0.20133666
v -0.18929640 0.21274194 -0.13592697
v -0.07383769 0.03580714 0.08624544
v -0.07669575 0.05087950 0.09868446
v -0.06752135 0.02225157 0.07423782
v -0.08200552 0.02913711 0.07194868
v -0.09855294 0.03650427 0.07201436
v -0.08765341 0.04458360 0.08505732
v -0.00976269 -0.04480172 -0.00800581
v -0.01817361 -0.03751851 0.00657258
v -0.07535258 0.06645986 0.11160742
v -0.10350543 0.05340426 0.08575478
v -0.08947046 0.06085576 0.09787827
v -0.07420254 0.01443840 0.05829978
v -0.09092984 0.01917538 0.05775189
v -0.12815883 0.03158985 0.06099035
v -0.11672625 0.04451377 0.07341510
v -0.10845934 0.02511161 0.05925799
v -0.02720628 -0.04890250 -0.01785632
v -0.01753069 -0.05816409 -0.03523958
v -0.03520280 -0.04017308 -0.00215931
v -0.04146741 -0.03148379 0.01212627
v -0.04574017 -0.02178833 0.02519958
v -0.10411383 0.07144026 0.09819242
v -0.08652087 0.07831167 0.10884168
v -0.12120550 0.06352820 0.08744703
v -0.13677890 0.05354852 0.07533173
v -0.06233655 0.00060369 0.04618240
v -0.07980452 0.00217320 0.04463178
v -0.09755501 0.00569388 0.04515276
v -0.11605495 0.01157029 0.04617263
v -0.13756317 0.01804624 0.04645528
v -0.16212282 0.02124030 0.04940630
v -0.15101170 0.03859341 0.06440703
v -0.02622912 -0.07528635 -0.06839763
v -0.03782643 -0.06367963 -0.04692422
v -0.04688370 -0.05217879 -0.02720073
v -0.05416725 -0.04176544 -0.00963829
v -0.05954305 -0.03238006 0.00590229
v -0.06306940 -0.02293207 0.01999788
v -0.06414557 -0.01194571 0.03351196
v -0.13898546 0.07688094 0.08847191
v -0.11938968 0.08517418 0.09847180
v -0.09900323 0.09186697 0.10685478
v -0.07855456 0.09664658 0.11562703
v -0.15802791 0.06478309 0.07860414
v -0.17430477 0.04667686 0.06936988
v -0.08201157 -0.01105219 0.03132812
v -0.10026600 -0.00724856 0.03046444
v -0.12041094 -0.00098839 0.03004074
v -0.14454009 0.00428744 0.02836695
v -0.17140860 0.00343674 0.02823052
v -0.19952196 0.00236648 0.03196428
v -0.18746146 0.02466822 0.05431988
v -0.09143691 0.13234105 0.10154946
v -0.09209532 0.15324951 0.08894146
v -0.08910936 0.17504283 0.07156509
v -0.08160727 0.19534298 0.04722051
v -0.08686463 0.11317675 0.11013337
v -0.03323913 -0.09426353 -0.10479153
v -0.04885984 -0.08220188 -0.08158269
v -0.06897852 -0.05570306 -0.03614634
v -0.06067827 -0.06891388 -0.05837913
v -0.07497100 -0.04322127 -0.01625736
v -0.07891785 -0.03189951 0.00094767
v -0.08119158 -0.02175056 0.01647449
v -0.17771467 0.07961385 0.07953094
v -0.15591067 0.09419504 0.08733975
v -0.13260962 0.10315413 0.09532728
v -0.10981142 0.10962199 0.10327430
v -0.21073274 0.03280641 0.05972188
v -0.19600578 0.05862242 0.07178606
v -0.10068483 -0.01842812 0.01422362
v -0.12333015 -0.01490985 0.01206627
v -0.15027143 -0.01188599 0.00780523
v -0.18071655 -0.01167403 0.00339840
v -0.21385383 -0.01290119 0.00438223
v -0.24602764 -0.00588349 0.01725979
v -0.22619807 0.00852527 0.04118483
v -0.11716686 0.13038497 0.09526594
v -0.12128565 0.15320427 0.08228325
v -0.12118574 0.17733789 0.06141347
v -0.11680202 0.19950841 0.03282616
v -0.10636806 0.21835123 -0.00255726
v -0.09028103 0.23346096 -0.04367562
v -0.05797461 -0.10317693 -0.11783096
v -0.07344940 -0.08872596 -0.09313443
v -0.08545938 -0.07363045 -0.06864948
v -0.09359390 -0.05885954 -0.04474497
v -0.09804576 -0.04452903 -0.02273016
v -0.10036396 -0.03095064 -0.00319214
v -0.19371598 0.09849620 0.07275313
v -0.21162858 0.07648489 0.06852324
v -0.16985717 0.11422976 0.07982366
v -0.14342555 0.12426987 0.08763684
v -0.24723481 0.02672535 0.05206977
v -0.22800051 0.05043168 0.06270612
v -0.12486597 -0.02956380 -0.00750339
v -0.15369903 -0.02756526 -0.01412372
v -0.18841208 -0.02527883 -0.02216144
v -0.22720260 -0.02194075 -0.02293110
v -0.26713328 -0.01361031 -0.00905255
v -0.15139369 0.14794841 0.07298881
v -0.15540049 0.19642158 0.01541046
v -0.15526928 0.17303958 0.04936253
v -0.13300149 0.23373258 -0.07059802
v -0.14842500 0.21705828 -0.02506440
v -0.06819991 -0.12561271 -0.15683064
v -0.08668020 -0.11033578 -0.12963524
v -0.10091382 -0.09310293 -0.10338821
v -0.11252628 -0.07641891 -0.07783761
v -0.12041986 -0.06032459 -0.05274796
v -0.12402186 -0.04474984 -0.02906027
v -0.20517505 0.12075052 0.05864682
v -0.18062724 0.13718888 0.06417047
v -0.24116743 0.07582713 0.06250825
v -0.22290796 0.09952805 0.05903444
v -0.15418034 -0.04296643 -0.03763640
v -0.19180866 -0.03890705 -0.04721024
v -0.23358009 -0.03129269 -0.04857923
v -0.27556601 -0.01857393 -0.03874008
v -0.18841542 0.16161847 0.03840428
v -0.19511014 0.18426017 -0.00082008
v -0.19283445 0.20468178 -0.04819241
v -0.17644168 0.21943064 -0.09786317
v -0.15561844 0.22529787 -0.15172438
v -0.10374255 -0.13202340 -0.17127366
v -0.12019806 -0.11275148 -0.14097672
v -0.13147364 -0.09306384 -0.11311716
v -0.14134304 -0.07521399 -0.08677001
v -0.15019407 -0.05865985 -0.06179609
v -0.23650954 0.12390900 0.04179870
v -0.21626127 0.14392983 0.03495308
v -0.18745397 -0.05297107 -0.07171480
v -0.22933077 -0.04198739 -0.07503963
v -0.26668874 -0.02395177 -0.07242143
v -0.23073943 0.16455924 0.00092943
v -0.22018786 0.19950004 -0.11852766
v -0.23553312 0.19096357 -0.07077330
v -0.20318962 0.19593399 -0.17105493
v -0.14301626 -0.12590453 -0.18714022
v -0.15491426 -0.10520140 -0.15365620
v -0.16410231 -0.08557944 -0.12363491
v -0.17619026 -0.06837691 -0.09676390
v -0.25491163 0.14368509 0.02221902
v -0.21703206 -0.05425520 -0.10361038
v -0.25192173 -0.03168663 -0.10368919
v -0.27229040 -0.00207234 -0.10355329
v -0.25723350 0.17447721 -0.02992714
v -0.25756060 0.16743483 -0.12668060
v -0.24278527 0.15531345 -0.17176848
v -0.27168921 0.17143187 -0.08523586
v -0.18591183 -0.08433093 -0.16504423
v -0.20007078 -0.06791984 -0.13365855
v -0.23204836 -0.04108242 -0.13684711
v -0.25039583 -0.00775428 -0.13640052
v -0.28228846 0.13524800 -0.12217551
v -0.26503643 0.11515609 -0.16017965
v -0.21320694 -0.05396301 -0.17034572
v -0.23158544 -0.01894112 -0.16968865
v -0.28157520 0.08989207 -0.13699785
v -0.08519612 0.03671151 0.07856149
v -0.08912197 0.05259497 0.09153141
v -0.07838100 0.02182685 0.06511416
v -0.11290585 0.03488887 0.06620676
v -0.01356455 -0.05121129 -0.02097143
v -0.02998743 -0.03487464 0.00910896
v -0.08858526 0.06937559 0.10378798
v -0.11951003 0.05380727 0.08075250
v -0.06878545 0.00738056 0.05176480
v -0.10348309 0.01526171 0.05231536
v -0.14486198 0.02771904 0.05558691
v -0.02180475 -0.06639780 -0.05097699
v -0.04083240 -0.04563885 -0.01405629
v -0.05257204 -0.02753016 0.01570250
v -0.12112576 0.07399643 0.09357247
v -0.08318912 0.08735999 0.11276757
v -0.15547143 0.05126471 0.07208486
v -0.09037517 -0.00329817 0.03812993
v -0.12941625 0.00857478 0.03793865
v -0.18007509 0.01235625 0.04126999
v -0.07947042 0.14171442 0.09924536
v -0.03002217 -0.08449119 -0.08654809
v -0.05359181 -0.06007091 -0.04194095
v -0.06691884 -0.03722046 -0.00463507
v -0.07286769 -0.01753906 0.02522055
v -0.15822966 0.07910692 0.08403571
v -0.11565557 0.09718485 0.10176367
v -0.19287690 0.04038043 0.06507080
v -0.11072979 -0.01017847 0.02197413
v -0.16173604 -0.00352065 0.01676800
v -0.22162638 -0.00478989 0.02325060
v -0.10164876 0.12155273 0.10304278
v -0.10611771 0.16536724 0.07730685
v -0.09362292 0.20759139 0.02466912
v -0.03620917 -0.10451598 -0.12339873
v -0.06731130 -0.07847479 -0.07560714
v -0.08382078 -0.05060828 -0.02971422
v -0.09015991 -0.02565639 0.00722185
v -0.19636958 0.07845330 0.07421042
v -0.15101019 0.10922429 0.08842420
v -0.22854449 0.02734291 0.05496213
v -0.13783221 -0.02091087 0.00011922
v -0.20250084 -0.01846262 -0.01070841
v -0.13347892 0.13921073 0.08518871
v -0.13764721 0.18796803 0.04110588
v -0.11972914 0.22807250 -0.03402480
v -0.07966882 -0.09928575 -0.11105508
v -0.10331520 -0.06769143 -0.06088986
v -0.11172279 -0.03746655 -0.01528346
v -0.18853775 0.11797053 0.06934372
v -0.22595126 0.07517403 0.06424851
v -0.17201760 -0.03391123 -0.03092215
v -0.25278722 -0.02191550 -0.03144546
v -0.16966482 0.15582509 0.05724000
v -0.17404263 0.20202171 -0.01454867
v -0.14360975 0.23264943 -0.11022126
v -0.09479708 -0.12156499 -0.14930490
v -0.12155502 -0.08491949 -0.09518542
v -0.13669881 -0.05191272 -0.04449275
v -0.22065099 0.12255706 0.04852742
v -0.21153994 -0.04177934 -0.06180785
v -0.20838867 0.16453021 0.01766065
v -0.20685771 0.20500074 -0.08419498
v -0.16786550 0.20891511 -0.19294529
v -0.11254228 -0.13903873 -0.19619907
v -0.14271750 -0.10021806 -0.13232831
v -0.16323297 -0.06428805 -0.07922459
v -0.25444350 0.12483927 0.04278294
v -0.24328620 -0.03892848 -0.08885256
v -0.25554972 0.16078387 -0.00204210
v -0.23347957 0.18105168 -0.14763826
v -0.26354449 0.17882532 -0.05838893
v -0.16658432 -0.10640232 -0.17675414
v -0.18894351 -0.06994377 -0.11478700
v -0.25287402 -0.02048613 -0.12108510
v -0.27858812 0.15601382 -0.10682527
v -0.24679018 0.12425944 -0.19354614
v -0.20766073 -0.06238107 -0.15234276
v -0.24628431 0.00513460 -0.15117431
v -0.28284125 0.11264817 -0.13228038
v -0.21433589 -0.04328324 -0.18875715
f 22 84 85
f 85 84 239
f 84 21 239
f 239 21 83
f 83 75 239
f 239 75 80
f 6 85 80
f 80 85 239
f 1 86 87
f 85 6 240
f 240 6 81
f 15 90 81
f 81 90 240
f 90 23 240
f 240 23 89
f 22 85 89
f 89 85 240
f 21 92 83
f 83 92 241
f 92 69 241
f 241 69 91
f 91 82 241
f 82 75 241
f 241 75 83
f 21 84 95
f 95 84 242
f 84 22 242
f 242 22 94
f 7 93 94
f 94 93 242
f 93 8 242
f 242 8 95
f 86 1 243
f 243 1 96
f 2 97 96
f 96 97 243
f 27 98 99
f 99 98 244
f 98 1 244
f 244 1 87
f 244 70 99
f 102 24 245
f 245 24 101
f 23 90 101
f 101 90 245
f 90 15 245
f 245 15 88
f 4 102 88
f 88 102 245
f 104 7 246
f 246 7 94
f 94 22 246
f 246 22 89
f 23 103 89
f 89 103 246
f 16 104 103
f 103 104 246
f 69 106 91
f 91 106 247
f 106 72 247
f 247 72 105
f 108 61 248
f 248 61 107
f 69 92 107
f 107 92 248
f 92 21 248
f 248 21 95
f 8 108 95
f 95 108 248
f 12 110 111
f 111 110 249
f 110 11 249
f 249 11 109
f 8 93 109
f 109 93 249
f 93 7 249
f 249 7 111
f 97 2 250
f 250 2 113
f 34 112 113
f 113 112 250
f 98 27 251
f 251 27 115
f 28 114 115
f 115 114 251
f 114 2 251
f 251 2 96
f 1 98 96
f 96 98 251
f 9 116 117
f 117 116 252
f 116 27 252
f 252 27 99
f 70 100 99
f 99 100 252
f 100 71 252
f 252 71 117
f 72 118 105
f 120 5 253
f 253 5 119
f 16 103 119
f 119 103 253
f 103 23 253
f 253 23 101
f 24 120 101
f 101 120 253
f 102 4 254
f 122 25 254
f 254 25 121
f 24 102 121
f 121 102 254
f 124 12 255
f 255 12 111
f 7 104 111
f 111 104 255
f 104 16 255
f 255 16 123
f 17 124 123
f 123 124 255
f 61 126 107
f 107 126 256
f 126 54 256
f 256 54 125
f 72 106 125
f 125 106 256
f 106 69 256
f 256 69 107
f 11 128 109
f 109 128 257
f 128 62 257
f 257 62 127
f 61 108 127
f 127 108 257
f 108 8 257
f 257 8 109
f 110 12 258
f 258 12 131
f 30 130 131
f 131 130 258
f 130 50 258
f 258 50 129
f 11 110 129
f 129 110 258
f 19 132 133
f 133 132 259
f 132 26 259
f 18 134 135
f 25 122 136
f 112 34 260
f 260 34 138
f 46 137 138
f 138 137 260
f 140 34 261
f 261 34 113
f 2 114 113
f 113 114 261
f 114 28 261
f 261 28 139
f 35 140 139
f 139 140 261
f 116 9 262
f 262 9 142
f 10 141 142
f 142 141 262
f 141 28 262
f 262 28 115
f 27 116 115
f 115 116 262
f 54 143 125
f 125 143 263
f 143 9 263
f 263 9 117
f 71 118 117
f 117 118 263
f 118 72 263
f 263 72 125
f 145 13 264
f 264 13 144
f 17 123 144
f 144 123 264
f 123 16 264
f 264 16 119
f 5 145 119
f 119 145 264
f 120 24 265
f 265 24 121
f 25 147 121
f 121 147 265
f 147 3 265
f 265 3 146
f 5 120 146
f 146 120 265
f 17 149 124
f 124 149 266
f 149 31 266
f 266 31 148
f 30 131 148
f 148 131 266
f 12 124 131
f 131 124 266
f 151 55 267
f 267 55 150
f 54 126 150
f 150 126 267
f 126 61 267
f 267 61 127
f 62 151 127
f 127 151 267
f 128 11 268
f 268 11 129
f 50 153 129
f 129 153 268
f 153 63 268
f 268 63 152
f 62 128 152
f 152 128 268
f 49 155 156
f 156 155 269
f 155 51 269
f 269 51 154
f 50 130 154
f 154 130 269
f 130 30 269
f 269 30 156
f 3 147 157
f 157 147 270
f 147 25 270
f 270 25 136
f 26 132 136
f 136 132 270
f 132 19 270
f 270 19 157
f 133 134 271
f 134 18 271
f 271 18 159
f 20 158 159
f 159 158 271
f 158 19 271
f 271 19 133
f 52 160 161
f 161 160 272
f 160 18 272
f 272 18 135
f 163 36 273
f 46 163 137
f 137 163 273
f 34 140 138
f 138 140 274
f 140 35 274
f 274 35 165
f 47 164 165
f 165 164 274
f 164 46 274
f 274 46 138
f 28 141 139
f 139 141 275
f 141 10 275
f 275 10 167
f 29 166 167
f 167 166 275
f 166 35 275
f 275 35 139
f 168 10 276
f 276 10 142
f 9 143 142
f 142 143 276
f 143 54 276
f 276 54 150
f 55 168 150
f 150 168 276
f 31 149 170
f 170 149 277
f 149 17 277
f 277 17 144
f 13 169 144
f 144 169 277
f 169 32 277
f 277 32 170
f 172 14 278
f 278 14 171
f 13 145 171
f 171 145 278
f 145 5 278
f 278 5 146
f 3 172 146
f 146 172 278
f 31 174 148
f 148 174 279
f 174 42 279
f 279 42 173
f 49 156 173
f 173 156 279
f 156 30 279
f 279 30 148
f 151 62 280
f 280 62 152
f 63 176 152
f 152 176 280
f 176 56 280
f 280 56 175
f 55 151 175
f 175 151 280
f 178 64 281
f 281 64 177
f 63 153 177
f 177 153 281
f 153 50 281
f 281 50 154
f 51 178 154
f 154 178 281
f 51 155 179
f 172 3 282
f 282 3 157
f 19 158 157
f 157 158 282
f 158 20 282
f 282 20 180
f 14 172 180
f 180 172 282
f 182 20 283
f 283 20 159
f 18 160 159
f 159 160 283
f 160 52 283
f 283 52 181
f 33 182 181
f 181 182 283
f 184 52 284
f 284 52 161
f 161 162 284
f 77 183 162
f 162 183 284
f 183 76 284
f 284 76 184
f 46 164 163
f 163 164 285
f 164 47 285
f 285 47 187
f 37 186 187
f 187 186 285
f 36 163 186
f 186 163 285
f 35 166 165
f 165 166 286
f 166 29 286
f 286 29 189
f 48 188 189
f 189 188 286
f 188 47 286
f 286 47 165
f 168 55 287
f 287 55 175
f 56 190 175
f 175 190 287
f 190 29 287
f 287 29 167
f 10 168 167
f 167 168 287
f 169 13 288
f 288 13 171
f 14 192 171
f 171 192 288
f 192 41 288
f 288 41 191
f 32 169 191
f 191 169 288
f 174 31 289
f 289 31 170
f 32 194 170
f 170 194 289
f 194 43 289
f 289 43 193
f 42 174 193
f 193 174 289
f 196 57 290
f 290 57 195
f 56 176 195
f 195 176 290
f 176 63 290
f 290 63 177
f 64 196 177
f 177 196 290
f 198 65 291
f 291 65 197
f 64 178 197
f 197 178 291
f 178 51 291
f 291 51 179
f 20 182 180
f 180 182 292
f 182 33 292
f 292 33 199
f 41 192 199
f 199 192 292
f 192 14 292
f 292 14 180
f 52 184 181
f 181 184 293
f 76 201 184
f 184 201 293
f 45 200 201
f 201 200 293
f 33 181 200
f 200 181 293
f 183 77 294
f 203 79 294
f 294 79 202
f 76 183 202
f 202 183 294
f 36 186 185
f 185 186 295
f 186 37 295
f 295 37 205
f 39 204 205
f 205 204 295
f 47 188 187
f 187 188 296
f 188 48 296
f 296 48 207
f 38 206 207
f 207 206 296
f 206 37 296
f 296 37 187
f 208 48 297
f 297 48 189
f 29 190 189
f 189 190 297
f 190 56 297
f 297 56 195
f 57 208 195
f 195 208 297
f 194 32 298
f 298 32 191
f 41 210 191
f 191 210 298
f 44 209 210
f 210 209 298
f 43 194 209
f 209 194 298
f 212 58 299
f 299 58 211
f 57 196 211
f 211 196 299
f 196 64 299
f 299 64 197
f 65 212 197
f 197 212 299
f 65 198 213
f 199 33 300
f 300 33 200
f 45 214 200
f 200 214 300
f 214 44 300
f 300 44 210
f 41 199 210
f 210 199 300
f 45 201 216
f 216 201 301
f 201 76 301
f 301 76 202
f 79 215 202
f 202 215 301
f 73 216 215
f 215 216 301
f 302 78 217
f 79 203 217
f 217 203 302
f 204 39 303
f 303 39 218
f 37 206 205
f 205 206 304
f 206 38 304
f 304 38 220
f 40 219 220
f 220 219 304
f 219 39 304
f 304 39 205
f 221 38 305
f 305 38 207
f 48 208 207
f 207 208 305
f 208 57 305
f 305 57 211
f 58 221 211
f 211 221 305
f 209 44 306
f 306 44 222
f 59 223 224
f 224 223 307
f 58 212 223
f 223 212 307
f 212 65 307
f 307 65 213
f 213 66 307
f 307 66 224
f 44 214 222
f 222 214 308
f 214 45 308
f 308 45 226
f 215 79 309
f 309 79 217
f 78 228 217
f 217 228 309
f 74 227 228
f 228 227 309
f 227 73 309
f 309 73 215
f 45 216 226
f 226 216 310
f 216 73 310
f 310 73 229
f 218 39 311
f 311 39 219
f 40 230 219
f 219 230 311
f 230 53 311
f 231 40 312
f 312 40 220
f 38 221 220
f 220 221 312
f 221 58 312
f 312 58 223
f 59 231 223
f 223 231 312
f 60 232 233
f 233 232 313
f 232 59 313
f 313 59 224
f 66 225 224
f 224 225 313
f 67 233 225
f 225 233 313
f 73 227 229
f 229 227 314
f 227 74 314
f 314 74 234
f 315 68 235
f 74 228 235
f 235 228 315
f 228 78 315
f 236 53 316
f 316 53 230
f 40 231 230
f 230 231 316
f 59 232 231
f 231 232 316
f 60 236 232
f 232 236 316
f 60 233 237
f 237 233 317
f 233 67 317
f 74 235 234
f 234 235 318
f 68 238 235
f 235 238 318
f 236 60 319
f 319 60 237

