# https://github.com/mikedh/trimesh
v -0.37421563 -0.03174762 -0.03288907
v -0.37046492 -0.01366094 -0.03553230
v -0.38113770 -0.04799733 0.00830207
v -0.36698824 -0.00115350 -0.03473412
v -0.37643051 -0.02801181 0.02595131
v -0.36389244 0.01301066 -0.03274110
v -0.36222079 0.02853138 -0.02590004
v -0.36346927 0.03679692 -0.00714312
v -0.36834651 0.03234380 0.01595043
v -0.37312701 -0.00712913 0.03030918
v -0.37107592 0.01279782 0.02814348
v -0.35102552 -0.04302948 0.01823616
v -0.35062757 -0.02566656 0.03187908
v -0.34934297 -0.00518026 0.03581365
v -0.34856745 0.01509739 0.03291745
v -0.34798327 0.03550817 0.02152401
v -0.34361422 0.03256892 -0.02325604
v -0.34582615 0.04109240 -0.00189850
v -0.34312891 0.01520534 -0.03113718
v -0.34349093 -0.00259362 -0.03139553
v -0.34440753 -0.01854081 -0.02808054
v -0.34618368 -0.03327183 -0.01878046
v -0.37091079 -0.05024835 -0.01473834
v -0.34838936 -0.04537875 -0.00334623
v -0.01794406 0.02068387 0.05112478
v -0.02821439 0.04772319 -0.04066698
v -0.01493325 -0.03702378 0.05917955
v -0.01657878 -0.05547738 0.03813873
v -0.03065148 -0.03608907 -0.03161588
v -0.03231369 0.00652764 -0.05954705
v -0.08452302 -0.02502172 0.06440784
v -0.08941841 -0.04921620 0.04545150
v -0.10108406 -0.03200870 -0.03096046
v -0.10034091 0.01752045 -0.05540518
v -0.09533179 0.05271177 -0.04325876
v -0.09092135 0.06882992 -0.00494631
v -0.08073811 0.03383350 0.05478242
v -0.15284523 -0.01893777 0.05963181
v -0.15525841 -0.03981585 0.04229379
v -0.16402200 -0.03103334 -0.02737354
v -0.16587102 0.01541106 -0.05068405
v -0.16520673 0.04815906 -0.04186151
v -0.16207767 0.06796813 -0.00884127
v -0.15314073 0.03789488 0.05236566
v -0.21697167 -0.01413091 0.05066938
v -0.21819796 -0.03216912 0.03673482
v -0.22371000 -0.02829256 -0.02110952
v -0.22561204 0.01097767 -0.04263461
v -0.22613991 0.03891330 -0.03793131
v -0.22569912 0.05973918 -0.01280616
v -0.21895284 0.03685355 0.04405770
v -0.02643670 -0.04741257 -0.01095852
v -0.09794891 -0.04690138 -0.01054876
v -0.16150573 -0.04417572 -0.00753455
v -0.22190318 -0.03861798 -0.00362948
v -0.02058878 -0.05680297 0.01155143
v -0.09379944 -0.05522090 0.01560214
v -0.15818373 -0.04809328 0.01742676
v -0.21994356 -0.04038116 0.01709367
v -0.27171439 -0.00951880 0.04437294
v -0.27279497 -0.02799143 0.03470202
v -0.27352416 -0.03820286 0.01763861
v -0.27459285 -0.03787939 -0.00141701
v -0.27534628 -0.02841872 -0.01756668
v -0.27650732 0.00618012 -0.03683589
v -0.27713943 0.02994609 -0.03558657
v -0.27730626 0.05066412 -0.01785882
v -0.27239424 0.03577192 0.03466290
v -0.01594399 -0.00843634 0.06214688
v -0.08137925 0.00445227 0.06519385
v -0.15173739 0.00914898 0.06299088
v -0.21706795 0.01047105 0.05445725
v -0.27128389 0.01270774 0.04530948
v -0.27559287 0.05262178 0.01087296
v -0.22276836 0.05718671 0.02016279
v -0.15716332 0.06043478 0.02704016
v -0.08428510 0.05807531 0.03160211
v -0.01971454 0.05034894 0.02936130
v -0.03398265 0.06191101 -0.00149448
v -0.01312137 0.05905273 -0.00297819
v -0.27620888 -0.01338592 -0.02923929
v -0.22506603 -0.01156242 -0.03442191
v -0.16550777 -0.01164705 -0.04235122
v -0.10209846 -0.01160824 -0.04677303
v -0.03287901 -0.02012756 -0.04891567
v -0.31578005 -0.00583870 0.03981516
v -0.31433907 0.01523637 0.03847342
v -0.31399011 0.03596487 0.02716756
v -0.31557692 0.04813840 0.00339975
v -0.31658434 0.04217774 -0.02110657
v -0.31656236 0.02319776 -0.03285366
v -0.31631130 0.00293989 -0.03283632
v -0.31633767 -0.01464273 -0.02704785
v -0.31721574 -0.02888049 -0.01639331
v -0.31807405 -0.03859413 -0.00085103
v -0.31802004 -0.03799833 0.01832897
v -0.31737963 -0.02494397 0.03317397
v 0.01375446 -0.04958537 -0.01302950
v -0.02350505 -0.05258257 -0.00026031
v 0.02036883 -0.05663403 0.01029574
v -0.01829887 -0.05820354 0.02472147
v 0.02378373 -0.05269107 0.03620271
v 0.00816684 -0.03924638 -0.03504633
v -0.02885440 -0.04183356 -0.02131207
v -0.06182237 -0.05509443 0.01382312
v -0.06575301 -0.04512874 -0.01109898
v -0.09585446 -0.05225196 0.00172824
v -0.01543513 -0.04832986 0.05031762
v 0.02171655 -0.03399676 0.05636617
v -0.09171259 -0.05463597 0.03072605
v -0.05698558 -0.05184607 0.04288008
v 0.00277355 -0.02291916 -0.05211169
v -0.03200045 -0.02908948 -0.04086703
v -0.06901740 -0.03095766 -0.03115305
v -0.09967304 -0.04013971 -0.02139982
v -0.12595100 -0.05219141 0.01684302
v -0.12981525 -0.04621077 -0.00944119
v -0.15983016 -0.04744692 0.00455184
v -0.01509238 -0.02314386 0.06322664
v 0.01490860 -0.00592750 0.06033504
v -0.08691699 -0.03882812 0.05732556
v -0.05142853 -0.02970391 0.06331815
v -0.15666479 -0.04554606 0.03031182
v -0.12231919 -0.04434549 0.04446030
v -0.00248448 0.00349473 -0.06066750
v -0.03287097 -0.00860304 -0.05563796
v -0.06952952 -0.01228401 -0.04737000
v -0.10197258 -0.02262759 -0.03942360
v -0.13260036 -0.03197733 -0.02991983
v -0.16290861 -0.03848604 -0.01822790
v -0.18982377 -0.04374297 0.01727544
v -0.19237608 -0.04121328 -0.00538534
v -0.22089439 -0.04072089 0.00662234
v -0.01716462 0.00615694 0.05748743
v 0.00754904 0.02271612 0.04836604
v -0.01860822 0.03540243 0.04284494
v 0.00427146 0.04974156 0.02758308
v -0.04734765 -0.00007077 0.06390596
v -0.08262675 -0.01019961 0.06673332
v -0.15396666 -0.03082701 0.05255614
v -0.11880853 -0.02172989 0.06296025
v -0.21905386 -0.03766035 0.02738013
v -0.18752199 -0.03558937 0.03931081
v -0.03089655 0.02597102 -0.05740119
v -0.00661504 0.04135942 -0.04604722
v -0.06577992 0.01584861 -0.05717253
v -0.10160896 0.00170890 -0.05245413
v -0.13394273 -0.01167384 -0.04545039
v -0.16492913 -0.02220226 -0.03538602
v -0.19458067 -0.02956179 -0.02404637
v -0.22282854 -0.03431094 -0.01287876
v -0.27401017 -0.03967457 0.00806876
v -0.24789780 -0.03875944 0.01722429
v -0.24931062 -0.03769248 -0.00242928
v -0.08065184 0.01910961 0.06105762
v -0.04556947 0.02979908 0.05371236
v -0.01275529 0.05671930 0.01330885
v -0.08190688 0.04736757 0.04512330
v -0.04739160 0.05637780 0.03284431
v -0.11685562 0.00740547 0.06493812
v -0.15204827 -0.00530073 0.06308479
v -0.21746653 -0.02414499 0.04467152
v -0.18583077 -0.01652973 0.05505135
v -0.27315957 -0.03445344 0.02676156
v -0.24657771 -0.02979043 0.03539153
v -0.01685156 0.05631308 -0.02085141
v -0.05829464 0.05314062 -0.04425203
v -0.09800193 0.03551181 -0.05325696
v -0.13350642 0.01705969 -0.05372496
v -0.16579735 0.00086468 -0.04776289
v -0.19617132 -0.01144119 -0.03816367
v -0.22442186 -0.02060927 -0.02831175
v -0.27498364 -0.03401186 -0.01001541
v -0.25063419 -0.02809173 -0.01909380
v -0.31813395 -0.04004215 0.00873085
v -0.29707074 -0.03834782 0.01823921
v -0.29762963 -0.03822304 -0.00092929
v -0.15205461 0.02375327 0.05957061
v -0.11749183 0.03644709 0.05440652
v -0.03003194 0.05934292 0.01498353
v -0.02270596 0.06010306 -0.00208895
v -0.15493155 0.05023523 0.04121550
v -0.12117970 0.05978532 0.02950712
v -0.08765084 0.06554202 0.01460485
v -0.05646221 0.06697719 -0.00281453
v -0.18545365 0.00985676 0.05922813
v -0.21681726 -0.00247063 0.05408187
v -0.27227550 -0.01945701 0.04063935
v -0.24549132 -0.01196818 0.04722485
v -0.31777275 -0.03273153 0.02677913
v -0.29638464 -0.02613726 0.03366195
v -0.03426558 0.05971514 -0.02005077
v -0.09328652 0.06497669 -0.02578337
v -0.13128269 0.05146461 -0.04291955
v -0.16569649 0.03188991 -0.04924084
v -0.19682067 0.01332649 -0.04657678
v -0.22540194 -0.00114028 -0.03942306
v -0.25194383 -0.01228962 -0.03144009
v -0.27580101 -0.02146819 -0.02392902
v -0.31775844 -0.03463270 -0.00930450
v -0.29759735 -0.02881163 -0.01666139
v -0.33485270 -0.03983226 0.02006664
v -0.33384732 -0.04170546 -0.00006362
v -0.35004195 -0.04672098 0.00748131
v -0.21775477 0.02400987 0.05119273
v -0.18721872 0.03761871 0.04874016
v -0.22070968 0.04803207 0.03336717
v -0.19125707 0.05931402 0.02407323
v -0.15969417 0.06723672 0.01037684
v -0.12684810 0.06942548 -0.00694911
v -0.24555159 0.01141007 0.04968523
v -0.27134085 0.00126044 0.04602817
v -0.31665042 -0.01576170 0.03755240
v -0.29504568 -0.00743880 0.04193571
v -0.35110384 -0.03529762 0.02665056
v -0.33500138 -0.02460239 0.03344817
v -0.16408056 0.06145467 -0.02763561
v -0.19702104 0.04392288 -0.03979679
v -0.22586113 0.02468493 -0.04255941
v -0.25247652 0.00852984 -0.03935579
v -0.27642864 -0.00421359 -0.03363646
v -0.29758269 -0.01417783 -0.02775332
v -0.31666965 -0.02213145 -0.02221177
v -0.33276673 -0.03098172 -0.01599727
v -0.34699809 -0.04016715 -0.01194271
v -0.36080102 -0.04839708 -0.00888974
v -0.37480983 -0.05162111 -0.00350104
v -0.36601380 -0.04611324 0.01393779
v -0.27161130 0.02455377 0.04173441
v -0.24742797 0.03613672 0.03915614
v -0.27391470 0.04542633 0.02417385
v -0.25097590 0.05478516 0.01517514
v -0.22454542 0.06161926 0.00408987
v -0.19522101 0.06461175 -0.01077645
v -0.31494990 0.00451131 0.04006599
v -0.29405799 0.01409540 0.04166052
v -0.34994352 -0.01553464 0.03489881
v -0.33381764 -0.00514532 0.03763014
v -0.37889305 -0.03856643 0.01934955
v -0.36437979 -0.02755690 0.02898087
v -0.22616145 0.05146608 -0.02753547
v -0.25314456 0.03412504 -0.03651215
v -0.27676670 0.01774582 -0.03787422
v -0.31623281 -0.00622008 -0.03051143
v -0.29774970 0.00430983 -0.03481718
v -0.33110073 -0.01711959 -0.02669496
v -0.34523481 -0.02617789 -0.02402477
v -0.37064186 -0.04312046 -0.02423385
v -0.35936137 -0.03391071 -0.02465580
v -0.37856295 -0.05136791 -0.01906335
v -0.38930163 -0.05189499 -0.00003294
v -0.31394685 0.02606598 0.03447067
v -0.29448508 0.03582174 0.03070415
v -0.31454570 0.04370403 0.01651485
v -0.29703667 0.05052946 0.00684088
v -0.27669633 0.05447029 -0.00399609
v -0.25313946 0.05482004 -0.01546155
v -0.33278104 0.01539119 0.03547588
v -0.34889101 0.00485932 0.03479419
v -0.37465131 -0.01746583 0.02968298
v -0.36228329 -0.00649022 0.03307480
v -0.39237150 -0.04345665 0.01274218
v -0.38656077 -0.02598261 0.02426545
v -0.27745690 0.04172253 -0.02887421
v -0.29832486 0.02635674 -0.03447027
v -0.31638586 0.01283340 -0.03388985
v -0.33082938 -0.00024162 -0.03161369
v -0.34384623 -0.01063744 -0.03006117
v -0.35757324 -0.01738506 -0.03139955
v -0.37193379 -0.02164058 -0.03527516
v -0.34834529 0.02594454 0.02930207
v -0.33182940 0.03578127 0.02447730
v -0.34683234 0.04029352 0.01042160
v -0.33187017 0.04445517 0.00061708
v -0.31629807 0.04750461 -0.00991800
v -0.29840013 0.04649032 -0.02001000
v -0.37200156 0.00279128 0.02979205
v -0.36096677 0.01349954 0.03044928
v -0.38241934 -0.00610590 0.02820522
v -0.31658265 0.03325715 -0.02853423
v -0.33104181 0.01872784 -0.03159991
v -0.34319267 0.00610981 -0.03183996
v -0.36880124 -0.00729891 -0.03504839
v -0.35537284 -0.00296100 -0.03238924
v -0.36024955 0.03383817 0.01854166
v -0.37007681 0.02337042 0.02408159
v -0.36565080 0.03639953 0.00502830
v -0.35554540 0.03795793 -0.00508158
v -0.34429863 0.03846120 -0.01413936
v -0.33154062 0.03706400 -0.02189191
v -0.37935814 0.01341008 0.02598873
v -0.34326285 0.02423311 -0.02844389
v -0.36525206 0.00551592 -0.03411573
v -0.35401296 0.01313239 -0.03151869
v -0.37539535 0.03210296 0.01439475
v -0.37038132 0.03806521 -0.00797430
v -0.36238566 0.03389097 -0.01794331
v -0.35372919 0.02944479 -0.02480369
v -0.36279397 0.02093179 -0.03029288
v -0.36963925 0.03051491 -0.02631318
v 0.01722492 -0.05393875 -0.00177477
v 0.02275832 -0.05656156 0.02327076
v 0.01078646 -0.04485611 -0.02428821
v -0.06381046 -0.05097057 0.00057650
v 0.02341319 -0.04509337 0.04777373
v -0.05953525 -0.05597938 0.02839467
v 0.00546080 -0.03197589 -0.04450062
v -0.06757607 -0.03849567 -0.02159947
v -0.12790776 -0.05053914 0.00307045
v 0.01879263 -0.02047306 0.06073652
v -0.05415997 -0.04286375 0.05533862
v -0.12417591 -0.05013621 0.03103880
v 0.00021274 -0.01130336 -0.05767925
v -0.06973305 -0.02237470 -0.03973308
v -0.13135707 -0.03989666 -0.02038086
v -0.19110157 -0.04373470 0.00574136
v 0.01075426 0.00864112 0.05583036
v 0.00525230 0.03687453 0.03951060
v -0.04903963 -0.01481799 0.06568515
v -0.12046481 -0.03459855 0.05565710
v -0.18861401 -0.04111197 0.02870790
v -0.00571485 0.02194016 -0.05790750
v -0.06838221 0.00017065 -0.05367421
v -0.13349105 -0.02260541 -0.03821419
v -0.19355948 -0.03622618 -0.01534956
v -0.24852294 -0.03950707 0.00725663
v -0.04622756 0.01453620 0.05959815
v -0.04569305 0.04440984 0.04531699
v -0.11752743 -0.00730357 0.06590469
v -0.18655729 -0.02726579 0.04835241
v -0.24723690 -0.03549725 0.02682531
v -0.06186015 0.03454156 -0.05514237
v -0.13393065 0.00154969 -0.05105049
v -0.19546687 -0.02126391 -0.03156755
v -0.25002909 -0.03376883 -0.01119420
v -0.29731500 -0.03981324 0.00858285
v -0.11680162 0.02213802 0.06134560
v -0.02150586 0.05894763 0.00960464
v -0.11896992 0.04923284 0.04368402
v -0.05238345 0.06361131 0.01641137
v -0.18542720 -0.00394722 0.05880850
v -0.24598083 -0.02177460 0.04236035
v -0.29679205 -0.03331296 0.02668914
v -0.02388516 0.05868471 -0.01470405
v -0.05787165 0.06468699 -0.02414301
v -0.13263970 0.03455093 -0.05165541
v -0.19659322 -0.00001902 -0.04342138
v -0.25124064 -0.02078320 -0.02582962
v -0.29764107 -0.03432457 -0.00939395
v -0.33433530 -0.04278134 0.01017831
v -0.18600852 0.02403915 0.05593849
v -0.18904495 0.04955043 0.03782769
v -0.12396883 0.06719508 0.01255547
v -0.24536384 -0.00081326 0.04976190
v -0.29575691 -0.01731544 0.03880857
v -0.33514470 -0.03321345 0.02783190
v -0.12933754 0.06419279 -0.02699460
v -0.19697204 0.02852714 -0.04586730
v -0.25233498 -0.00259786 -0.03605983
v -0.29761192 -0.02204037 -0.02273082
v -0.33345608 -0.03722542 -0.00891570
v -0.36391077 -0.04959456 0.00241895
v -0.24613551 0.02407887 0.04616797
v -0.24917454 0.04670320 0.02868426
v -0.19346469 0.06504693 0.00757509
v -0.29443020 0.00310622 0.04289040
v -0.33446985 -0.01501470 0.03659856
v -0.36570453 -0.03777930 0.02314179
v -0.19643990 0.05683995 -0.02738575
v -0.25270611 0.02106153 -0.03990824
v -0.29760066 -0.00541963 -0.03185387
v -0.33185550 -0.02448636 -0.02184557
v -0.35944255 -0.04232673 -0.01811993
v -0.38246887 -0.05379088 -0.00878691
v -0.29407508 0.02531242 0.03776546
v -0.29560823 0.04459695 0.02012193
v -0.25237503 0.05795568 -0.00036429
v -0.33323462 0.00493068 0.03718356
v -0.36318192 -0.01697907 0.03233345
v -0.38923905 -0.03536487 0.01899504
v -0.25341225 0.04618366 -0.02802417
v -0.29800353 0.01502064 -0.03599462
v -0.33082044 -0.00883746 -0.02975191
v -0.35872543 -0.02551507 -0.02902155
v -0.33231532 0.02618049 0.03181059
v -0.33173829 0.04202408 0.01337685
v -0.29796955 0.05126778 -0.00739194
v -0.36158172 0.00350094 0.03242365
v -0.38444969 -0.01598556 0.02751348
v -0.29849786 0.03734134 -0.02909946
v -0.33089536 0.00903999 -0.03256721
v -0.35644278 -0.01009832 -0.03212839
v -0.36062721 0.02429974 0.02673797
v -0.35741786 0.03783717 0.00735512
v -0.33183647 0.04286022 -0.01139376
v -0.38073187 0.00352251 0.02756220
v -0.33122832 0.02834417 -0.02819109
v -0.35453243 0.00480379 -0.03246524
v -0.37774095 0.02358612 0.02202325
v -0.37265870 0.03708733 0.00370463
v -0.35429799 0.03516942 -0.01654257
v -0.35364488 0.02152850 -0.02928475
v -0.36940376 0.03557185 -0.01870314
f 100 56 301
f 301 56 99
f 52 98 99
f 99 98 301
f 102 28 302
f 302 28 101
f 56 100 101
f 101 100 302
f 98 52 303
f 303 52 104
f 29 103 104
f 104 103 303
f 53 106 107
f 107 106 304
f 106 52 304
f 304 52 99
f 56 105 99
f 99 105 304
f 105 57 304
f 304 57 107
f 27 108 109
f 109 108 305
f 28 102 108
f 108 102 305
f 111 32 306
f 306 32 110
f 57 105 110
f 110 105 306
f 105 56 306
f 306 56 101
f 28 111 101
f 101 111 306
f 85 112 113
f 113 112 307
f 103 29 307
f 307 29 113
f 33 114 115
f 115 114 308
f 114 29 308
f 308 29 104
f 52 106 104
f 104 106 308
f 106 53 308
f 308 53 115
f 54 117 118
f 118 117 309
f 117 53 309
f 309 53 107
f 57 116 107
f 107 116 309
f 116 58 309
f 309 58 118
f 69 119 120
f 120 119 310
f 119 27 310
f 310 27 109
f 122 31 311
f 311 31 121
f 32 111 121
f 121 111 311
f 111 28 311
f 311 28 108
f 27 122 108
f 108 122 311
f 124 39 312
f 312 39 123
f 58 116 123
f 123 116 312
f 116 57 312
f 312 57 110
f 32 124 110
f 110 124 312
f 30 125 126
f 126 125 313
f 112 85 313
f 313 85 126
f 114 33 314
f 314 33 128
f 128 84 314
f 314 84 127
f 127 85 314
f 314 85 113
f 29 114 113
f 113 114 314
f 40 129 130
f 130 129 315
f 129 33 315
f 315 33 115
f 53 117 115
f 115 117 315
f 117 54 315
f 315 54 130
f 55 132 133
f 133 132 316
f 132 54 316
f 316 54 118
f 58 131 118
f 118 131 316
f 131 59 316
f 316 59 133
f 25 134 135
f 135 134 317
f 134 69 317
f 317 69 120
f 78 136 137
f 137 136 318
f 136 25 318
f 318 25 135
f 31 122 139
f 139 122 319
f 27 119 122
f 122 119 319
f 119 69 319
f 319 69 138
f 70 139 138
f 138 139 319
f 141 38 320
f 320 38 140
f 39 124 140
f 140 124 320
f 124 32 320
f 320 32 121
f 31 141 121
f 121 141 320
f 143 46 321
f 321 46 142
f 59 131 142
f 142 131 321
f 131 58 321
f 321 58 123
f 39 143 123
f 123 143 321
f 125 30 322
f 322 30 144
f 26 145 144
f 144 145 322
f 147 34 323
f 323 34 146
f 30 126 146
f 146 126 323
f 126 85 323
f 323 85 127
f 84 147 127
f 127 147 323
f 40 149 129
f 129 149 324
f 149 83 324
f 324 83 148
f 84 128 148
f 148 128 324
f 33 129 128
f 128 129 324
f 47 150 151
f 151 150 325
f 150 40 325
f 325 40 130
f 54 132 130
f 130 132 325
f 132 55 325
f 325 55 151
f 154 55 326
f 326 55 133
f 59 153 133
f 133 153 326
f 153 62 326
f 326 62 152
f 63 154 152
f 152 154 326
f 37 155 156
f 156 155 327
f 155 70 327
f 327 70 138
f 69 134 138
f 138 134 327
f 134 25 327
f 327 25 156
f 78 137 157
f 136 78 328
f 328 78 159
f 77 158 159
f 159 158 328
f 158 37 328
f 328 37 156
f 25 136 156
f 156 136 328
f 38 141 161
f 161 141 329
f 141 31 329
f 329 31 139
f 139 70 329
f 329 70 160
f 71 161 160
f 160 161 329
f 163 45 330
f 330 45 162
f 46 143 162
f 162 143 330
f 143 39 330
f 330 39 140
f 38 163 140
f 140 163 330
f 165 61 331
f 331 61 164
f 62 153 164
f 164 153 331
f 153 59 331
f 331 59 142
f 46 165 142
f 142 165 331
f 26 166 145
f 34 168 146
f 146 168 332
f 168 35 332
f 332 35 167
f 26 144 167
f 167 144 332
f 144 30 332
f 332 30 146
f 170 41 333
f 333 41 169
f 34 147 169
f 169 147 333
f 147 84 333
f 333 84 148
f 83 170 148
f 148 170 333
f 47 172 150
f 150 172 334
f 172 82 334
f 334 82 171
f 83 149 171
f 171 149 334
f 149 40 334
f 334 40 150
f 174 47 335
f 335 47 151
f 55 154 151
f 151 154 335
f 154 63 335
f 335 63 173
f 173 64 335
f 335 64 174
f 177 63 336
f 336 63 152
f 62 176 152
f 152 176 336
f 176 96 336
f 336 96 175
f 95 177 175
f 175 177 336
f 44 178 179
f 179 178 337
f 178 71 337
f 337 71 160
f 70 155 160
f 160 155 337
f 155 37 337
f 337 37 179
f 181 79 338
f 338 79 180
f 180 78 338
f 338 78 157
f 157 80 338
f 338 80 181
f 158 77 339
f 339 77 183
f 76 182 183
f 183 182 339
f 182 44 339
f 339 44 179
f 37 158 179
f 179 158 339
f 36 184 185
f 185 184 340
f 184 77 340
f 340 77 159
f 78 180 159
f 159 180 340
f 180 79 340
f 340 79 185
f 45 163 187
f 187 163 341
f 163 38 341
f 341 38 161
f 161 71 341
f 341 71 186
f 72 187 186
f 186 187 341
f 189 60 342
f 342 60 188
f 61 165 188
f 188 165 342
f 165 46 342
f 342 46 162
f 45 189 162
f 162 189 342
f 191 97 343
f 343 97 190
f 96 176 190
f 190 176 343
f 176 62 343
f 343 62 164
f 61 191 164
f 164 191 343
f 192 79 344
f 344 79 181
f 181 80 344
f 344 80 166
f 26 192 166
f 166 192 344
f 35 193 167
f 167 193 345
f 193 36 345
f 345 36 185
f 79 192 185
f 185 192 345
f 26 167 192
f 192 167 345
f 41 195 169
f 169 195 346
f 195 42 346
f 346 42 194
f 35 168 194
f 194 168 346
f 168 34 346
f 346 34 169
f 197 48 347
f 347 48 196
f 41 170 196
f 196 170 347
f 170 83 347
f 347 83 171
f 82 197 171
f 171 197 347
f 174 64 348
f 348 64 199
f 81 198 199
f 199 198 348
f 82 172 198
f 198 172 348
f 172 47 348
f 348 47 174
f 201 64 349
f 349 64 173
f 63 177 173
f 173 177 349
f 177 95 349
f 349 95 200
f 200 94 349
f 349 94 201
f 24 203 204
f 204 203 350
f 203 95 350
f 350 95 175
f 96 202 175
f 175 202 350
f 202 12 350
f 350 12 204
f 51 205 206
f 206 205 351
f 205 72 351
f 351 72 186
f 71 178 186
f 186 178 351
f 178 44 351
f 351 44 206
f 182 76 352
f 352 76 208
f 75 207 208
f 208 207 352
f 207 51 352
f 352 51 206
f 44 182 206
f 206 182 352
f 43 209 210
f 210 209 353
f 209 76 353
f 353 76 183
f 77 184 183
f 183 184 353
f 184 36 353
f 353 36 210
f 60 189 212
f 212 189 354
f 189 45 354
f 354 45 187
f 72 211 187
f 187 211 354
f 211 73 354
f 354 73 212
f 214 86 355
f 355 86 213
f 97 191 213
f 213 191 355
f 191 61 355
f 355 61 188
f 60 214 188
f 188 214 355
f 216 13 356
f 356 13 215
f 12 202 215
f 215 202 356
f 202 96 356
f 356 96 190
f 97 216 190
f 190 216 356
f 36 193 210
f 210 193 357
f 193 35 357
f 357 35 194
f 42 217 194
f 194 217 357
f 217 43 357
f 357 43 210
f 48 219 196
f 196 219 358
f 219 49 358
f 358 49 218
f 42 195 218
f 218 195 358
f 195 41 358
f 358 41 196
f 221 65 359
f 359 65 220
f 48 197 220
f 220 197 359
f 197 82 359
f 359 82 198
f 81 221 198
f 198 221 359
f 94 223 201
f 201 223 360
f 223 93 360
f 360 93 222
f 81 199 222
f 222 199 360
f 64 201 199
f 199 201 360
f 225 22 361
f 361 22 224
f 94 200 224
f 224 200 361
f 200 95 361
f 361 95 203
f 24 225 203
f 203 225 361
f 228 3 362
f 362 3 227
f 23 226 227
f 227 226 362
f 226 24 362
f 362 24 204
f 12 228 204
f 204 228 362
f 68 229 230
f 230 229 363
f 229 73 363
f 363 73 211
f 72 205 211
f 211 205 363
f 205 51 363
f 363 51 230
f 207 75 364
f 364 75 232
f 74 231 232
f 232 231 364
f 231 68 364
f 364 68 230
f 51 207 230
f 230 207 364
f 50 233 234
f 234 233 365
f 233 75 365
f 365 75 208
f 76 209 208
f 208 209 365
f 209 43 365
f 365 43 234
f 214 60 366
f 366 60 212
f 73 236 212
f 212 236 366
f 236 87 366
f 366 87 235
f 86 214 235
f 235 214 366
f 238 14 367
f 367 14 237
f 13 216 237
f 237 216 367
f 216 97 367
f 367 97 213
f 86 238 213
f 213 238 367
f 240 5 368
f 368 5 239
f 3 228 239
f 239 228 368
f 228 12 368
f 368 12 215
f 13 240 215
f 215 240 368
f 43 217 234
f 234 217 369
f 217 42 369
f 369 42 218
f 49 241 218
f 218 241 369
f 241 50 369
f 369 50 234
f 65 243 220
f 220 243 370
f 243 66 370
f 370 66 242
f 49 219 242
f 242 219 370
f 219 48 370
f 370 48 220
f 65 221 245
f 245 221 371
f 221 81 371
f 371 81 222
f 93 244 222
f 222 244 371
f 244 92 371
f 371 92 245
f 22 247 224
f 224 247 372
f 247 21 372
f 372 21 246
f 93 223 246
f 246 223 372
f 223 94 372
f 372 94 224
f 249 22 373
f 373 22 225
f 24 226 225
f 225 226 373
f 226 23 373
f 373 23 248
f 1 249 248
f 248 249 373
f 250 23 374
f 374 23 227
f 3 251 227
f 227 251 374
f 88 252 253
f 253 252 375
f 87 236 252
f 252 236 375
f 236 73 375
f 375 73 229
f 229 68 375
f 375 68 253
f 231 74 376
f 376 74 255
f 89 254 255
f 255 254 376
f 254 88 376
f 376 88 253
f 68 231 253
f 253 231 376
f 67 256 257
f 257 256 377
f 256 74 377
f 377 74 232
f 75 233 232
f 232 233 377
f 233 50 377
f 377 50 257
f 14 238 259
f 259 238 378
f 238 86 378
f 378 86 235
f 87 258 235
f 235 258 378
f 258 15 378
f 378 15 259
f 261 10 379
f 379 10 260
f 5 240 260
f 260 240 379
f 240 13 379
f 379 13 237
f 14 261 237
f 237 261 379
f 5 263 239
f 239 263 380
f 3 239 262
f 262 239 380
f 50 241 257
f 257 241 381
f 241 49 381
f 381 49 242
f 66 264 242
f 242 264 381
f 264 67 381
f 381 67 257
f 92 266 245
f 245 266 382
f 266 91 382
f 382 91 265
f 66 243 265
f 265 243 382
f 243 65 382
f 382 65 245
f 268 20 383
f 383 20 267
f 92 244 267
f 267 244 383
f 244 93 383
f 383 93 246
f 21 268 246
f 246 268 383
f 249 1 384
f 384 1 270
f 2 269 270
f 270 269 384
f 269 21 384
f 384 21 247
f 22 249 247
f 247 249 384
f 23 250 248
f 3 262 251
f 272 16 385
f 385 16 271
f 15 258 271
f 271 258 385
f 258 87 385
f 385 87 252
f 88 272 252
f 252 272 385
f 18 273 274
f 274 273 386
f 16 272 273
f 273 272 386
f 88 254 272
f 272 254 386
f 254 89 386
f 386 89 274
f 90 275 276
f 276 275 387
f 275 89 387
f 387 89 255
f 74 256 255
f 255 256 387
f 256 67 387
f 387 67 276
f 278 11 388
f 388 11 277
f 10 261 277
f 277 261 388
f 261 14 388
f 388 14 259
f 15 278 259
f 259 278 388
f 10 279 260
f 260 279 389
f 263 5 389
f 389 5 260
f 67 264 276
f 276 264 390
f 264 66 390
f 390 66 265
f 91 280 265
f 265 280 390
f 280 90 390
f 390 90 276
f 20 282 267
f 267 282 391
f 282 19 391
f 391 19 281
f 91 266 281
f 281 266 391
f 266 92 391
f 391 92 267
f 20 268 284
f 284 268 392
f 21 269 268
f 268 269 392
f 269 2 392
f 392 2 283
f 283 4 392
f 392 4 284
f 11 278 286
f 286 278 393
f 278 15 393
f 393 15 271
f 271 16 393
f 393 16 285
f 9 286 285
f 285 286 393
f 273 18 394
f 394 18 288
f 8 287 288
f 288 287 394
f 9 285 287
f 287 285 394
f 285 16 394
f 394 16 273
f 17 289 290
f 290 289 395
f 289 18 395
f 395 18 274
f 89 275 274
f 274 275 395
f 275 90 395
f 395 90 290
f 279 10 396
f 396 10 277
f 11 291 277
f 277 291 396
f 292 17 397
f 397 17 290
f 90 280 290
f 290 280 397
f 280 91 397
f 397 91 281
f 19 292 281
f 281 292 397
f 19 282 294
f 294 282 398
f 282 20 398
f 398 20 284
f 4 293 284
f 284 293 398
f 293 6 398
f 398 6 294
f 11 286 291
f 291 286 399
f 286 9 399
f 399 9 295
f 9 287 295
f 295 287 400
f 287 8 400
f 400 8 296
f 18 289 288
f 288 289 401
f 289 17 401
f 401 17 298
f 7 297 298
f 298 297 401
f 297 8 401
f 401 8 288
f 292 19 402
f 402 19 294
f 6 299 294
f 294 299 402
f 299 7 402
f 402 7 298
f 17 292 298
f 298 292 402
f 8 297 296
f 296 297 403
f 297 7 403
f 403 7 300
f 7 299 300

